<svg xmlns="http://www.w3.org/2000/svg" viewBox="0 0 300 250"><title>Asset 1</title><rect width="300" height="250" fill="none"/><path d="M209,233.52h3.76v.64h-3v2.28h2.32v.64H209.8V240H209Z" fill="#14aa40"/><path d="M213.12,237.64v-.07a2.32,2.32,0,1,1,4.63,0v.07a2.32,2.32,0,1,1-4.63,0Zm3.86,0v-.06c0-1.09-.61-1.79-1.54-1.79s-1.54.7-1.54,1.78v.07c0,1.07.58,1.78,1.54,1.78A1.57,1.57,0,0,0,217,237.64Z" fill="#14aa40"/><path d="M218.77,235.25h.75v.84a1.63,1.63,0,0,1,1.55-.92v.7c-.95,0-1.55.34-1.55,1.5V240h-.75Z" fill="#14aa40"/><path d="M224.27,235.25H225V236a1.93,1.93,0,0,1,1.59-.87,2.14,2.14,0,0,1,2.15,2.37v.07a2.18,2.18,0,0,1-2.15,2.43,1.78,1.78,0,0,1-1.59-.86v2.42h-.75Zm3.71,2.39v-.07c0-1.19-.65-1.78-1.45-1.78s-1.54.58-1.54,1.78v.07c0,1.21.63,1.78,1.55,1.78S228,238.79,228,237.64Z" fill="#14aa40"/><path d="M229.39,238.65c0-1.09,1.16-1.46,2.36-1.46h.68v-.34c0-.75-.29-1.06-1-1.06s-1,.27-1.08.84h-.75a1.65,1.65,0,0,1,1.87-1.46,1.51,1.51,0,0,1,1.71,1.68V240h-.74v-.6A1.71,1.71,0,0,1,231,240C230.09,240,229.39,239.62,229.39,238.65Zm3-.34v-.59h-.65c-.95,0-1.64.24-1.64.93,0,.49.24.79.89.79S232.43,239,232.43,238.31Z" fill="#14aa40"/><path d="M234.39,233.77a.49.49,0,0,1,.49-.49.5.5,0,0,1,.5.49.51.51,0,0,1-.5.5A.5.5,0,0,1,234.39,233.77Zm.13,1.48h.75V240h-.75Z" fill="#14aa40"/><path d="M236.31,237.7v-.08a2.23,2.23,0,0,1,2.2-2.45,1.7,1.7,0,0,1,1.54.83v-3h.75v7h-.75v-.81a2,2,0,0,1-1.61.89A2.11,2.11,0,0,1,236.31,237.7Zm3.77-.07v-.07c0-1.2-.58-1.77-1.5-1.77s-1.49.66-1.49,1.8v.07c0,1.19.64,1.76,1.43,1.76S240.08,238.84,240.08,237.63Z" fill="#14aa40"/><path d="M243.89,235.25h.81l1.4,3.95,1.38-3.95h.77L246.56,240h-1Z" fill="#14aa40"/><path d="M248.61,237.65v-.07a2.21,2.21,0,0,1,2.2-2.41,2.06,2.06,0,0,1,2.12,2.34v.24h-3.55c0,1.07.55,1.67,1.52,1.67.72,0,1.15-.27,1.25-.82h.74a1.81,1.81,0,0,1-2,1.44A2.21,2.21,0,0,1,248.61,237.65Zm3.56-.5c-.08-1-.58-1.36-1.36-1.36a1.41,1.41,0,0,0-1.4,1.36Z" fill="#14aa40"/><path d="M253.94,235.25h.74v.84a1.64,1.64,0,0,1,1.55-.92v.7c-.94,0-1.55.34-1.55,1.5V240h-.74Z" fill="#14aa40"/><path d="M256.75,238.51h.73c.06.56.35.91,1.11.91s1-.25,1-.75-.37-.66-1.1-.79c-1.23-.23-1.64-.57-1.64-1.39a1.47,1.47,0,0,1,1.59-1.32,1.5,1.5,0,0,1,1.7,1.36h-.72c-.1-.52-.39-.74-1-.74s-.89.27-.89.67.24.6,1.1.75,1.66.4,1.66,1.4c0,.85-.59,1.43-1.73,1.43S256.8,239.47,256.75,238.51Z" fill="#14aa40"/><path d="M261.21,233.77a.49.49,0,0,1,.49-.49.5.5,0,0,1,.5.49.51.51,0,0,1-.5.5A.5.5,0,0,1,261.21,233.77Zm.13,1.48h.75V240h-.75Z" fill="#14aa40"/><path d="M263.13,237.64v-.07a2.32,2.32,0,1,1,4.63,0v.07a2.32,2.32,0,1,1-4.63,0Zm3.86,0v-.06c0-1.09-.61-1.79-1.54-1.79s-1.54.7-1.54,1.78v.07c0,1.07.58,1.78,1.54,1.78A1.57,1.57,0,0,0,267,237.64Z" fill="#14aa40"/><path d="M268.79,235.25h.74V236a1.61,1.61,0,0,1,1.52-.83c1,0,1.65.53,1.65,1.9V240H272v-3c0-.83-.36-1.19-1.11-1.19a1.24,1.24,0,0,0-1.32,1.28V240h-.74Z" fill="#14aa40"/><path d="M273.65,238.51h.73c.05.56.35.91,1.1.91s1-.25,1-.75-.37-.66-1.1-.79c-1.22-.23-1.64-.57-1.64-1.39a1.47,1.47,0,0,1,1.6-1.32,1.51,1.51,0,0,1,1.7,1.36h-.72c-.11-.52-.4-.74-1-.74s-.89.27-.89.67.23.6,1.09.75,1.66.4,1.66,1.4c0,.85-.59,1.43-1.73,1.43S273.69,239.47,273.65,238.51Z" fill="#14aa40"/><path d="M278.16,239.43a.58.58,0,1,1,.57.57A.57.57,0,0,1,278.16,239.43Z" fill="#14aa40"/><path d="M22.44,16.34h7.28V26H38V16.34h7.25V41.62H38v-10H29.72v10H22.44Z" fill="#14aa40"/><path d="M69.53,36.46l4.21,5.16H65.5L64,39.78A10.07,10.07,0,0,1,57.19,42c-5.37,0-8.87-2.83-8.87-7.63,0-3.26,2-5.66,5.55-7.36a8,8,0,0,1-1.56-4.42C52.31,18.32,56,16,60.44,16c4,0,7.67,2,7.67,5.91,0,2.75-1.62,4.77-5,6.25l3.18,3.89,1.84-3.6h5.51Zm-8.77-.75-4-4.8a3,3,0,0,0-1.7,2.72,2.93,2.93,0,0,0,3.22,3.14A3.3,3.3,0,0,0,60.76,35.71ZM60,25.53c1.7-.81,2.51-1.77,2.51-3.07a1.82,1.82,0,0,0-1.87-1.95,2,2,0,0,0-2.09,2.19A4.65,4.65,0,0,0,60,25.53Z" fill="#14aa40"/><path d="M76,16.34h9.9c6.61,0,10.29,2.69,10.29,8v.14a6.6,6.6,0,0,1-4.56,6.64l6,10.47H90.07l-5.13-9h-1.7v9H76Zm9.55,11.53c2.44,0,3.64-1,3.64-3.08v-.14c0-2-1.28-2.87-3.61-2.87H83.24v6.09Z" fill="#14aa40"/><path d="M106.57,16.34h11.28c6,0,8.52,2.69,8.52,6.61v.14a5.22,5.22,0,0,1-4.28,5.45c3.11.53,5.06,2.4,5.06,5.9v.14c0,4.53-2.94,7-9.19,7H106.57Zm9.83,10c2.26,0,3.11-.78,3.11-2.58v-.14c0-1.73-.92-2.51-3.11-2.51h-2.76v5.23Zm.25,10.39c2.3,0,3.36-1.06,3.36-2.93V33.7c0-1.91-1-2.9-3.57-2.9h-2.8v6Z" fill="#14aa40"/><path d="M129.65,15H136V41.62h-6.3Z" fill="#14aa40"/><path d="M138.35,32.6v-.28c0-5.94,4.42-9.69,10.15-9.69s10.07,3.64,10.07,9.51v.29c0,6-4.42,9.61-10.11,9.61S138.35,38.58,138.35,32.6Zm13.79-.1v-.29c0-3.11-1.24-4.84-3.64-4.84s-3.68,1.66-3.68,4.77v.29c0,3.18,1.24,4.91,3.68,4.91S152.14,35.57,152.14,32.5Z" fill="#14aa40"/><path d="M159.81,32.6v-.28c0-6.15,4.42-9.69,9.86-9.69,4.53,0,8.7,2,9.05,7.6h-5.94c-.28-1.73-1.13-2.68-3-2.68-2.23,0-3.53,1.59-3.53,4.7v.28c0,3.22,1.23,4.88,3.64,4.88a3.09,3.09,0,0,0,3.22-3.08h5.69C178.65,39,175.5,42,169.53,42,164,42,159.81,38.83,159.81,32.6Z" fill="#14aa40"/><path d="M180.88,15h6.32V30.45l5-7.32h6.58l-6.05,8.31,6.54,10.18h-7.07l-5-8.1v8.1h-6.32Z" fill="#14aa40"/><path d="M21.1,66.49v-.28c0-7.71,5.79-12.87,13.36-12.87S47.86,58.18,47.86,66v.28c0,7.78-5.34,13.08-13.51,13.08S21.1,74.09,21.1,66.49Zm19.19-.07v-.29C40.29,61.64,38,59,34.46,59s-5.8,2.58-5.8,7.18v.28c0,4.6,2.34,7.25,5.84,7.25S40.29,70.94,40.29,66.42Z" fill="#14aa40"/><path d="M50.29,60.48h6.33v3A6.53,6.53,0,0,1,62.7,60c3.57,0,6,2.23,6,7V79H62.42V68.22c0-2.09-.81-3.11-2.65-3.11s-3.15,1.13-3.15,3.5V79H50.29Z" fill="#14aa40"/><path d="M72,52.35h6.29V79H72Z" fill="#14aa40"/><path d="M81.54,55.46A3.49,3.49,0,1,1,85,58.71,3.31,3.31,0,0,1,81.54,55.46Zm.32,5h6.33V79H81.86Z" fill="#14aa40"/><path d="M91.58,60.48h6.33v3A6.53,6.53,0,0,1,104,60c3.57,0,6.05,2.23,6.05,7V79h-6.33V68.22c0-2.09-.81-3.11-2.65-3.11s-3.15,1.13-3.15,3.5V79H91.58Z" fill="#14aa40"/><path d="M112.12,70v-.28c0-5.94,4.42-9.69,10-9.69,5.05,0,9.4,2.9,9.4,9.55v1.66h-13c.18,2.44,1.59,3.85,3.85,3.85,2.09,0,3-1,3.22-2.19h5.94c-.57,4.17-3.78,6.54-9.37,6.54C116.36,79.39,112.12,76,112.12,70Zm13.26-2.33c-.11-2.23-1.2-3.47-3.25-3.47s-3.22,1.24-3.54,3.47Z" fill="#14aa40"/><path d="M139.16,70v-.28c0-6.15,4.42-9.69,9.87-9.69,4.52,0,8.69,2,9.05,7.6h-5.94c-.28-1.73-1.13-2.68-3-2.68-2.23,0-3.54,1.59-3.54,4.7v.28c0,3.22,1.24,4.88,3.64,4.88a3.08,3.08,0,0,0,3.22-3.07h5.69c-.17,4.66-3.32,7.7-9.29,7.7C143.37,79.39,139.16,76.18,139.16,70Z" fill="#14aa40"/><path d="M159.24,70v-.28c0-5.94,4.42-9.69,10.15-9.69s10.07,3.64,10.07,9.51v.29c0,6-4.42,9.61-10.11,9.61S159.24,75.93,159.24,70Zm13.79-.1v-.29c0-3.11-1.24-4.84-3.64-4.84s-3.68,1.66-3.68,4.77v.29c0,3.18,1.24,4.91,3.68,4.91S173,72.92,173,69.85Z" fill="#14aa40"/><path d="M180.56,73.1h5.83c.21,1.34.81,2.09,2.62,2.09,1.55,0,2.26-.61,2.26-1.52s-.88-1.31-3.43-1.67c-5-.63-7-2.08-7-5.94,0-4.1,3.65-6.08,7.92-6.08,4.56,0,7.75,1.56,8.17,6h-5.73a2.06,2.06,0,0,0-2.37-1.84c-1.37,0-2.08.6-2.08,1.45s.85,1.24,3.11,1.52c5.13.64,7.6,2,7.6,5.94,0,4.38-3.25,6.36-8.38,6.36S180.7,77.2,180.56,73.1Z" fill="#14aa40"/><path d="M200.32,73V64.79h-2.23V60.48h2.23V56.62h6.33v3.86h3.64v4.31h-3.64v7.64a1.68,1.68,0,0,0,1.87,1.94,4.62,4.62,0,0,0,1.8-.32v4.81a13.31,13.31,0,0,1-3.5.53C202.65,79.39,200.32,77.38,200.32,73Z" fill="#14aa40"/><path d="M211.7,73.1h5.83c.22,1.34.82,2.09,2.62,2.09,1.56,0,2.26-.61,2.26-1.52S221.53,72.36,219,72c-4.95-.63-7-2.08-7-5.94,0-4.1,3.64-6.08,7.92-6.08,4.56,0,7.74,1.56,8.16,6h-5.72a2.07,2.07,0,0,0-2.37-1.84c-1.38,0-2.09.6-2.09,1.45s.85,1.24,3.11,1.52c5.13.64,7.6,2,7.6,5.94,0,4.38-3.25,6.36-8.38,6.36S211.84,77.2,211.7,73.1Z" fill="#14aa40"/><path d="M236.9,72.53V60.48h6.33v11c0,2.08.82,3.11,2.62,3.11s3.15-1.13,3.15-3.5V60.48h6.32V79H249V76.1a6.09,6.09,0,0,1-5.87,3.29C239.56,79.39,236.9,77.2,236.9,72.53Z" fill="#14aa40"/><path d="M258.54,60.48h6.33v2.76A6.52,6.52,0,0,1,270.63,60c4.31,0,7.81,3.26,7.81,9.58v.29c0,6.36-3.5,9.54-7.85,9.54a6.1,6.1,0,0,1-5.72-3.14v8.91h-6.33ZM272,69.85v-.29c0-3.25-1.42-4.8-3.64-4.8s-3.68,1.66-3.68,4.77v.28c0,3.15,1.38,4.74,3.68,4.74S272,72.89,272,69.85Z" fill="#14aa40"/><path d="M22.72,110.38v-8.24H20.5V97.83h2.22V94h6.33v3.86h3.64v4.31H29.05v7.64a1.68,1.68,0,0,0,1.87,1.94,4.71,4.71,0,0,0,1.81-.32v4.81a13.45,13.45,0,0,1-3.5.53C25.06,116.74,22.72,114.73,22.72,110.38Z" fill="#14aa40"/><path d="M34.1,107.3V107c0-5.94,4.42-9.69,10.15-9.69s10.08,3.64,10.08,9.51v.29c0,6-4.42,9.61-10.11,9.61S34.1,113.28,34.1,107.3Zm13.79-.1v-.29c0-3.11-1.23-4.84-3.64-4.84s-3.68,1.66-3.68,4.77v.29c0,3.18,1.24,4.91,3.68,4.91S47.89,110.27,47.89,107.2Z" fill="#14aa40"/><path d="M130.38,89.7h6.29v26.62h-6.29Z" fill="#14aa40"/><path d="M139.07,107.3V107c0-5.94,4.42-9.69,10-9.69,5,0,9.4,2.9,9.4,9.55v1.66h-13c.18,2.44,1.59,3.85,3.86,3.85,2.08,0,3-1,3.21-2.19h5.94c-.56,4.17-3.78,6.54-9.37,6.54C143.32,116.74,139.07,113.35,139.07,107.3ZM152.33,105c-.1-2.23-1.2-3.47-3.25-3.47s-3.22,1.24-3.54,3.47Z" fill="#14aa40"/><path d="M159.61,110.45h5.83c.22,1.34.82,2.09,2.62,2.09,1.56,0,2.26-.61,2.26-1.52s-.88-1.31-3.43-1.67c-4.95-.63-7-2.08-7-5.94,0-4.1,3.64-6.08,7.92-6.08,4.56,0,7.74,1.56,8.16,6h-5.72a2.07,2.07,0,0,0-2.37-1.84c-1.38,0-2.09.6-2.09,1.45s.85,1.24,3.11,1.52c5.13.64,7.6,2,7.6,5.94,0,4.38-3.25,6.36-8.37,6.36S159.75,114.55,159.61,110.45Z" fill="#14aa40"/><path d="M177.39,110.45h5.83c.22,1.34.82,2.09,2.62,2.09,1.56,0,2.26-.61,2.26-1.52s-.88-1.31-3.43-1.67c-4.95-.63-7-2.08-7-5.94,0-4.1,3.64-6.08,7.92-6.08,4.56,0,7.74,1.56,8.17,6H188a2.07,2.07,0,0,0-2.37-1.84c-1.38,0-2.09.6-2.09,1.45s.85,1.24,3.11,1.52c5.13.64,7.61,2,7.61,5.94,0,4.38-3.26,6.36-8.38,6.36S177.53,114.55,177.39,110.45Z" fill="#14aa40"/><path d="M203.59,110.38v-8.24h-2.23V97.83h2.23V94h6.32v3.86h3.65v4.31h-3.65v7.64a1.69,1.69,0,0,0,1.88,1.94,4.62,4.62,0,0,0,1.8-.32v4.81a13.31,13.31,0,0,1-3.5.53C205.92,116.74,203.59,114.73,203.59,110.38Z" fill="#14aa40"/><path d="M216,89.7h6.33v11.1a6.52,6.52,0,0,1,6.08-3.47c3.57,0,6,2.23,6,7v12h-6.33V105.57c0-2.09-.81-3.11-2.65-3.11s-3.14,1.13-3.14,3.5v10.36H216Z" fill="#14aa40"/><path d="M236.42,111.19c0-4.35,3.68-6,9.83-6H248v-.43c0-1.77-.42-2.93-2.44-2.93a2.27,2.27,0,0,0-2.51,2.19h-5.94c.29-4.46,3.79-6.65,8.84-6.65s8.34,2.09,8.34,7v12h-6.15v-2.16c-.88,1.34-2.51,2.58-5.48,2.58C239.36,116.74,236.42,115.12,236.42,111.19Zm11.6-1.34v-1.13h-1.66c-2.55,0-3.68.49-3.68,2,0,1.06.71,1.73,2.2,1.73C246.68,112.46,248,111.44,248,109.85Z" fill="#14aa40"/><path d="M257.39,97.83h6.33v3a6.52,6.52,0,0,1,6.08-3.47c3.57,0,6,2.23,6,7v12h-6.33V105.57c0-2.09-.81-3.11-2.65-3.11s-3.14,1.13-3.14,3.5v10.36h-6.33Z" fill="#14aa40"/><path d="M27.28,134H20.74v-5.59H41.11V134H34.57v19.69H27.28Z" fill="#14aa40"/><path d="M41.67,147.23v-12H48v11c0,2.08.81,3.11,2.61,3.11s3.15-1.13,3.15-3.5V135.18h6.33v18.49H53.76V150.8a6.07,6.07,0,0,1-5.87,3.29C44.32,154.09,41.67,151.9,41.67,147.23Z" fill="#14aa40"/><path d="M63.3,135.18h6.33v3.67a5.83,5.83,0,0,1,6-3.92v5.9c-3.86-.1-6,1.1-6,4.07v8.77H63.3Z" fill="#14aa40"/><path d="M84.23,150.8v2.87H77.9V127.05h6.33v10.89A6.52,6.52,0,0,1,90,134.68c4.32,0,7.82,3.26,7.82,9.58v.29c0,6.36-3.5,9.54-7.85,9.54A6,6,0,0,1,84.23,150.8Zm7.14-6.25v-.29c0-3.25-1.41-4.8-3.64-4.8s-3.68,1.66-3.68,4.77v.28c0,3.15,1.38,4.74,3.68,4.74S91.37,147.59,91.37,144.55Z" fill="#14aa40"/><path d="M99.11,144.65v-.28c0-5.94,4.42-9.69,10.15-9.69s10.08,3.64,10.08,9.51v.29c0,6-4.42,9.61-10.12,9.61S99.11,150.63,99.11,144.65Zm13.79-.1v-.29c0-3.11-1.24-4.84-3.64-4.84s-3.68,1.66-3.68,4.77v.29c0,3.18,1.24,4.91,3.68,4.91S112.9,147.62,112.9,144.55Z" fill="#14aa40"/><path d="M127,134h-6.54v-5.59h20.36V134h-6.54v19.69H127Z" fill="#14aa40"/><path d="M139.52,148.54c0-4.35,3.67-6,9.83-6h1.76v-.43c0-1.77-.42-2.93-2.44-2.93a2.27,2.27,0,0,0-2.51,2.19h-5.93c.28-4.45,3.78-6.65,8.83-6.65s8.35,2.09,8.35,7v12h-6.15v-2.16c-.89,1.35-2.51,2.58-5.48,2.58C142.45,154.09,139.52,152.47,139.52,148.54Zm11.59-1.34v-1.13h-1.66c-2.54,0-3.67.49-3.67,2,0,1.06.7,1.73,2.19,1.73C149.77,149.81,151.11,148.79,151.11,147.2Z" fill="#14aa40"/><path d="M165.15,144.26l-5.77-9.08h7.29l2.86,4.88,2.79-4.88h6.51L173,143.77l6.39,9.9h-7.28l-3.29-5.52-3.36,5.52H159Z" fill="#14aa40"/><path d="M180.67,150.49a3.52,3.52,0,0,1,3.6-3.57,3.57,3.57,0,1,1,0,7.14A3.52,3.52,0,0,1,180.67,150.49Z" fill="#14aa40"/></svg>