<?xml version="1.0" encoding="utf-8"?>
<!-- Generator: Adobe Illustrator 24.0.2, SVG Export Plug-In . SVG Version: 6.00 Build 0)  -->
<svg version="1.1" id="Layer_1" xmlns="http://www.w3.org/2000/svg" xmlns:xlink="http://www.w3.org/1999/xlink" x="0px" y="0px"
	 viewBox="0 0 300 250" style="enable-background:new 0 0 300 250;" xml:space="preserve">
<style type="text/css">
	.st0{fill:none;}
	.st1{fill:#14AA40;}
</style>
<title>300x250 2</title>
<g id="Layer_2_1_">
	<g id="Rect">
		<rect class="st0" width="300" height="250"/>
	</g>
	<g id="Switch_from_TurboTax._Save_at_least">
		<path class="st1" d="M20.5,26.6h4.3c0.1,1.1,0.6,2.1,2.5,2.1c1.3,0,2-0.6,2-1.6s-0.6-1.2-2.5-1.5c-4.5-0.5-6-1.9-6-5.1
			c0-2.9,2.3-4.9,6.1-4.9s6,1.6,6.3,4.9h-4.1c0-1-0.9-1.8-1.9-1.7c0,0-0.1,0-0.1,0c-1.2,0-1.8,0.5-1.8,1.4s0.5,1.3,2.5,1.5
			c4,0.5,6.1,1.5,6.1,4.9c0,2.9-2.3,5.3-6.4,5.3C22.9,31.9,20.6,30.1,20.5,26.6z"/>
		<path class="st1" d="M34,20.1h4.2l1.7,6.9l2-6.9H45l1.7,6.9l1.9-6.9h3.8l-3.7,11.6h-3.8l-1.7-6.5l-1.8,6.5h-3.9L34,20.1z"/>
		<path class="st1" d="M53.3,17c-0.1-1.2,0.8-2.3,2-2.4s2.3,0.8,2.4,2s-0.8,2.3-2,2.4c-0.1,0-0.1,0-0.2,0c-1.1,0.1-2.1-0.7-2.2-1.8
			C53.3,17.1,53.3,17.1,53.3,17z M53.5,20.1h4v11.5h-4V20.1z"/>
		<path class="st1" d="M60.1,28v-5.2h-1.4v-2.7h1.4v-2.4h4v2.4h2.3v2.7h-2.3v4.8c-0.1,0.6,0.3,1.1,0.9,1.2c0.1,0,0.2,0,0.3,0
			c0.4,0,0.8-0.1,1.1-0.2v3c-0.7,0.2-1.5,0.3-2.2,0.3C61.6,31.9,60.1,30.7,60.1,28z"/>
		<path class="st1" d="M67.3,26v-0.2c-0.1-3.2,2.4-5.9,5.6-6.1c0.2,0,0.4,0,0.6,0c2.8,0,5.4,1.2,5.7,4.8h-3.7c0-0.9-0.8-1.7-1.7-1.7
			c0,0-0.1,0-0.1,0c-1.4,0-2.2,1-2.2,3V26c0,2,0.8,3.1,2.3,3.1c1.1,0,2-0.8,2-1.9c0,0,0,0,0-0.1h3.6c-0.1,2.9-2.1,4.8-5.8,4.8
			C69.9,31.9,67.3,29.9,67.3,26z"/>
		<path class="st1" d="M80.5,15h4v7c0.7-1.4,2.2-2.2,3.8-2.2c2.2,0,3.8,1.4,3.8,4.4v7.5h-4v-6.8c0-1.3-0.5-2-1.7-2s-2,0.7-2,2.2v6.5
			h-4L80.5,15z"/>
		<path class="st1" d="M98.6,22.8h-1.5v-2.7h1.5v-1c0-2.9,1.8-4.3,4.5-4.3c0.6,0,1.2,0.1,1.8,0.2V18c-0.4-0.1-0.7-0.2-1.1-0.1
			c-0.6-0.1-1.2,0.3-1.3,1c0,0.1,0,0.2,0,0.3v1h2.3v2.7h-2.3v8.9h-3.9V22.8z"/>
		<path class="st1" d="M106.2,20.1h4v2.3c0.5-1.6,2.1-2.6,3.8-2.5v3.7c-2.4-0.1-3.8,0.7-3.8,2.5v5.5h-4V20.1z"/>
		<path class="st1" d="M114.6,26v-0.2c0-3.7,2.8-6.1,6.4-6.1s6.3,2.3,6.3,6v0.2c0,3.8-2.8,6-6.3,6S114.6,29.8,114.6,26z M123.3,25.9
			v-0.2c0-2-0.8-3-2.3-3s-2.3,1-2.3,3v0.2c0,2,0.8,3.1,2.3,3.1S123.3,27.9,123.3,25.9L123.3,25.9z"/>
		<path class="st1" d="M128.7,20.1h4v1.8c0.7-1.3,2.1-2.1,3.6-2.1c1.4-0.1,2.6,0.7,3.1,1.9c0.9-1.2,2.3-2,3.8-1.9
			c2.2,0,3.8,1.4,3.8,4.3v7.6h-4v-6.9c0-1.2-0.6-1.8-1.5-1.8c-0.9,0-1.8,0.7-1.8,1.6c0,0.1,0,0.2,0,0.4v6.7h-3.9v-6.9
			c0-1.2-0.6-1.8-1.5-1.8c-0.9,0-1.8,0.7-1.8,1.6c0,0.1,0,0.2,0,0.3v6.7h-4L128.7,20.1z"/>
		<path class="st1" d="M156.4,19.3h-4.1v-3.5h12.8v3.5H161v12.3h-4.6V19.3z"/>
		<path class="st1" d="M165.4,27.6v-7.6h4V27c0,1.3,0.5,2,1.6,2s2-0.7,2-2.2v-6.7h4v11.6h-4v-1.8c-0.7,1.4-2.1,2.2-3.7,2.1
			C167.1,31.9,165.4,30.6,165.4,27.6z"/>
		<path class="st1" d="M179,20.1h4v2.3c0.5-1.6,2.1-2.6,3.8-2.5v3.7c-2.4-0.1-3.8,0.7-3.8,2.5v5.5h-4V20.1z"/>
		<path class="st1" d="M192.1,29.9v1.8h-4V15h4v6.8c0.8-1.3,2.1-2,3.6-2c2.7,0,4.9,2,4.9,6V26c0,4-2.2,6-4.9,6
			C194.2,32.1,192.7,31.2,192.1,29.9z M196.6,26v-0.2c0-2-0.9-3-2.3-3s-2.3,1-2.3,3V26c0,2,0.9,3,2.3,3S196.6,27.9,196.6,26z"/>
		<path class="st1" d="M201.4,26v-0.2c0-3.7,2.8-6.1,6.4-6.1s6.3,2.3,6.3,6v0.2c0,3.8-2.8,6-6.3,6S201.4,29.8,201.4,26z M210.1,25.9
			v-0.2c0-2-0.8-3-2.3-3s-2.3,1-2.3,3v0.2c0,2,0.8,3.1,2.3,3.1S210.1,27.9,210.1,25.9L210.1,25.9z"/>
		<path class="st1" d="M218.9,19.3h-4.1v-3.5h12.8v3.5h-4.1v12.3h-4.6L218.9,19.3z"/>
		<path class="st1" d="M226.7,28.5c0-2.7,2.3-3.8,6.2-3.8h1.1v-0.3c0-1.1-0.3-1.8-1.5-1.8c-0.8-0.1-1.5,0.5-1.6,1.3
			c0,0.1,0,0.1,0,0.2h-3.7c0.2-2.8,2.4-4.2,5.5-4.2s5.2,1.3,5.2,4.4v7.5h-3.9v-1.4c-0.8,1.1-2.1,1.7-3.4,1.6
			C228.6,31.9,226.7,30.9,226.7,28.5z M234,27.6v-0.7h-1c-1.6,0-2.3,0.3-2.3,1.3c0,0.7,0.4,1.1,1.4,1.1
			C233.1,29.3,234,28.6,234,27.6L234,27.6z"/>
		<path class="st1" d="M242.8,25.8l-3.6-5.7h4.6l1.8,3.1l1.8-3.1h4.1l-3.7,5.4l4,6.2h-4.6l-2.1-3.5l-2.1,3.5h-4L242.8,25.8z"/>
		<path class="st1" d="M252.5,29.7c0-1.2,1-2.2,2.2-2.2c0,0,0.1,0,0.1,0c1.2-0.1,2.3,0.9,2.4,2.1s-0.9,2.3-2.1,2.4
			c-0.1,0-0.2,0-0.3,0c-1.2,0-2.2-0.9-2.3-2.1C252.5,29.7,252.5,29.7,252.5,29.7z"/>
		<path class="st1" d="M20.5,50.8h4.3c0.1,1.1,0.6,2.1,2.5,2.1c1.3,0,2-0.6,2-1.6s-0.6-1.2-2.5-1.5c-4.5-0.5-6-1.9-6-5
			c0-2.9,2.3-4.9,6.1-4.9s6,1.6,6.3,4.9h-4.1c0-1-0.8-1.8-1.8-1.8c-0.1,0-0.2,0-0.2,0c-1.2,0-1.8,0.5-1.8,1.3s0.5,1.3,2.5,1.5
			c4,0.5,6.1,1.5,6.1,4.9c0,2.9-2.3,5.3-6.4,5.3C22.9,56.1,20.6,54.2,20.5,50.8z"/>
		<path class="st1" d="M34.5,52.6c0-2.7,2.3-3.8,6.2-3.8h1.1v-0.3c0-1.1-0.3-1.8-1.5-1.8c-0.8-0.1-1.5,0.5-1.6,1.3c0,0,0,0.1,0,0.1
			H35c0.2-2.8,2.4-4.2,5.5-4.2s5.2,1.3,5.2,4.4v7.5h-3.9v-1.4c-0.8,1.1-2.1,1.7-3.4,1.6C36.3,56.1,34.5,55.1,34.5,52.6z M41.8,51.8
			v-0.7h-1c-1.6,0-2.3,0.3-2.3,1.3c0,0.7,0.4,1.1,1.4,1.1C40.9,53.4,41.8,52.8,41.8,51.8z"/>
		<path class="st1" d="M46.3,44.2h4.2l2.4,7.5l2.4-7.5h3.8l-4.3,11.6h-4.3L46.3,44.2z"/>
		<path class="st1" d="M58.9,50.2V50c-0.1-3.3,2.5-6,5.8-6.1c0.2,0,0.3,0,0.5,0c3.2,0,5.9,1.8,5.9,6v1h-8.2
			c-0.1,1.3,0.9,2.4,2.2,2.4c0.1,0,0.1,0,0.2,0c1.3,0,1.9-0.6,2-1.4H71c-0.4,2.6-2.4,4.1-5.9,4.1S58.9,54,58.9,50.2z M67.2,48.7
			c-0.1-1.4-0.8-2.2-2-2.2c-1.2,0-2.2,1-2.2,2.2H67.2z"/>
		<path class="st1" d="M75.8,52.6c0-2.7,2.3-3.8,6.2-3.8H83v-0.3c0-1.1-0.3-1.8-1.5-1.8c-0.8-0.1-1.5,0.5-1.6,1.3c0,0,0,0.1,0,0.1
			h-3.7c0.2-2.8,2.4-4.2,5.5-4.2s5.3,1.3,5.3,4.4v7.5h-3.9v-1.4c-0.8,1.1-2.1,1.7-3.4,1.6C77.6,56.1,75.8,55.1,75.8,52.6z M83,51.8
			v-0.7h-1c-1.6,0-2.3,0.3-2.3,1.3c0,0.7,0.4,1.1,1.4,1.1C82.2,53.4,83,52.8,83,51.8z"/>
		<path class="st1" d="M89.4,52.1v-5.2H88v-2.7h1.4v-2.4h4v2.4h2.3v2.7h-2.3v4.8c0,0.8,0.4,1.2,1.2,1.2c0.4,0,0.8-0.1,1.1-0.2v3
			c-0.7,0.2-1.4,0.3-2.2,0.3C90.8,56.1,89.4,54.8,89.4,52.1z"/>
		<path class="st1" d="M101.3,39.2h3.9v16.7h-3.9V39.2z"/>
		<path class="st1" d="M106.7,50.2V50c-0.1-3.3,2.5-6,5.8-6.1c0.2,0,0.3,0,0.5,0c3.2,0,5.9,1.8,5.9,6v1h-8.2
			c-0.1,1.3,0.9,2.4,2.2,2.4c0.1,0,0.1,0,0.2,0c1.3,0,1.9-0.6,2-1.4h3.7c-0.4,2.6-2.4,4.1-5.9,4.1S106.7,54,106.7,50.2z M115,48.7
			c-0.1-1.4-0.8-2.2-2-2.2c-1.2,0-2.2,1-2.2,2.2H115z"/>
		<path class="st1" d="M119.7,52.6c0-2.7,2.3-3.8,6.2-3.8h1.1v-0.3c0-1.1-0.3-1.8-1.5-1.8c-0.8-0.1-1.5,0.5-1.6,1.3c0,0,0,0.1,0,0.1
			h-3.7c0.2-2.8,2.4-4.2,5.5-4.2s5.2,1.3,5.2,4.4v7.5h-3.9v-1.4c-0.8,1.1-2.1,1.7-3.4,1.6C121.5,56.1,119.7,55.1,119.7,52.6z
			 M127,51.8v-0.7h-1c-1.6,0-2.3,0.3-2.3,1.3c0,0.7,0.4,1.1,1.4,1.1C126.1,53.4,127,52.8,127,51.8L127,51.8z"/>
		<path class="st1" d="M132.1,52.2h3.7c0.1,0.8,0.5,1.3,1.6,1.3c1,0,1.4-0.4,1.4-1s-0.6-0.8-2.1-1c-3.1-0.4-4.4-1.3-4.4-3.7
			c0-2.6,2.3-3.8,5-3.8c2.9,0,4.9,1,5.1,3.8h-3.6c-0.1-0.7-0.7-1.2-1.4-1.2c0,0-0.1,0-0.1,0c-0.9,0-1.3,0.4-1.3,0.9s0.5,0.8,2,1
			c3.2,0.4,4.8,1.3,4.8,3.7c0,2.7-2,4-5.3,4S132.1,54.7,132.1,52.2z"/>
		<path class="st1" d="M144.4,52.1v-5.2H143v-2.7h1.4v-2.4h4v2.4h2.3v2.7h-2.3v4.8c-0.1,0.6,0.2,1.1,0.8,1.3c0.1,0,0.2,0,0.4,0
			c0.4,0,0.8-0.1,1.1-0.2v3c-0.7,0.2-1.5,0.3-2.2,0.3C145.9,56.1,144.4,54.8,144.4,52.1z"/>
	</g>
</g>
<g>
	<path class="st1" d="M209,233.5h3.8v0.6h-3v2.3h2.3v0.6h-2.3v2.9H209V233.5z"/>
	<path class="st1" d="M213.1,237.6L213.1,237.6c0-1.5,1-2.5,2.3-2.5c1.3,0,2.3,1,2.3,2.4v0.1c0,1.4-1,2.4-2.3,2.4
		S213.1,239,213.1,237.6z M217,237.6L217,237.6c0-1.2-0.6-1.9-1.5-1.9c-0.9,0-1.5,0.7-1.5,1.8v0.1c0,1.1,0.6,1.8,1.5,1.8
		C216.4,239.4,217,238.7,217,237.6z"/>
	<path class="st1" d="M218.8,235.2h0.7v0.8c0.3-0.5,0.7-0.9,1.5-0.9v0.7c-0.9,0-1.5,0.3-1.5,1.5v2.6h-0.7V235.2z"/>
	<path class="st1" d="M224.3,235.2h0.7v0.8c0.3-0.5,0.9-0.9,1.6-0.9c1.2,0,2.1,0.9,2.1,2.4v0.1c0,1.4-0.8,2.4-2.1,2.4
		c-0.8,0-1.3-0.4-1.6-0.9v2.4h-0.7V235.2z M228,237.6L228,237.6c0-1.3-0.7-1.9-1.5-1.9c-0.9,0-1.5,0.6-1.5,1.8v0.1
		c0,1.2,0.6,1.8,1.5,1.8C227.5,239.4,228,238.8,228,237.6z"/>
	<path class="st1" d="M229.4,238.7c0-1.1,1.2-1.5,2.4-1.5h0.7v-0.3c0-0.7-0.3-1.1-1-1.1c-0.6,0-1,0.3-1.1,0.8h-0.7
		c0.1-1.1,1-1.5,1.9-1.5c0.9,0,1.7,0.4,1.7,1.7v3.1h-0.7v-0.6c-0.4,0.4-0.8,0.7-1.5,0.7C230.1,240,229.4,239.6,229.4,238.7z
		 M232.4,238.3v-0.6h-0.6c-0.9,0-1.6,0.2-1.6,0.9c0,0.5,0.2,0.8,0.9,0.8C231.8,239.4,232.4,239,232.4,238.3z"/>
	<path class="st1" d="M234.4,233.8c0-0.3,0.2-0.5,0.5-0.5c0.3,0,0.5,0.2,0.5,0.5c0,0.3-0.2,0.5-0.5,0.5
		C234.6,234.3,234.4,234,234.4,233.8z M234.5,235.2h0.7v4.7h-0.7V235.2z"/>
	<path class="st1" d="M236.3,237.7L236.3,237.7c0-1.5,0.9-2.5,2.2-2.5c0.8,0,1.3,0.4,1.5,0.8v-3h0.7v7h-0.7v-0.8
		c-0.3,0.5-0.9,0.9-1.6,0.9C237.2,240,236.3,239.2,236.3,237.7z M240.1,237.6L240.1,237.6c0-1.3-0.6-1.8-1.5-1.8
		c-0.9,0-1.5,0.7-1.5,1.8v0.1c0,1.2,0.6,1.8,1.4,1.8C239.4,239.4,240.1,238.8,240.1,237.6z"/>
	<path class="st1" d="M243.9,235.2h0.8l1.4,4l1.4-4h0.8l-1.7,4.7h-1L243.9,235.2z"/>
	<path class="st1" d="M248.6,237.7L248.6,237.7c0-1.5,0.9-2.5,2.2-2.5c1.1,0,2.1,0.7,2.1,2.3v0.2h-3.5c0,1.1,0.5,1.7,1.5,1.7
		c0.7,0,1.2-0.3,1.3-0.8h0.7c-0.2,0.9-0.9,1.4-2,1.4C249.6,240,248.6,239.1,248.6,237.7z M252.2,237.1c-0.1-1-0.6-1.4-1.4-1.4
		c-0.8,0-1.3,0.5-1.4,1.4H252.2z"/>
	<path class="st1" d="M253.9,235.2h0.7v0.8c0.3-0.5,0.7-0.9,1.5-0.9v0.7c-0.9,0-1.5,0.3-1.5,1.5v2.6h-0.7V235.2z"/>
	<path class="st1" d="M256.8,238.5h0.7c0.1,0.6,0.4,0.9,1.1,0.9c0.7,0,1-0.2,1-0.7c0-0.5-0.4-0.7-1.1-0.8c-1.2-0.2-1.6-0.6-1.6-1.4
		c0-0.9,0.9-1.3,1.6-1.3c0.8,0,1.6,0.3,1.7,1.4h-0.7c-0.1-0.5-0.4-0.7-1-0.7c-0.5,0-0.9,0.3-0.9,0.7c0,0.4,0.2,0.6,1.1,0.7
		c1,0.2,1.7,0.4,1.7,1.4c0,0.9-0.6,1.4-1.7,1.4C257.5,240,256.8,239.5,256.8,238.5z"/>
	<path class="st1" d="M261.2,233.8c0-0.3,0.2-0.5,0.5-0.5c0.3,0,0.5,0.2,0.5,0.5c0,0.3-0.2,0.5-0.5,0.5
		C261.4,234.3,261.2,234,261.2,233.8z M261.3,235.2h0.7v4.7h-0.7V235.2z"/>
	<path class="st1" d="M263.1,237.6L263.1,237.6c0-1.5,1-2.5,2.3-2.5s2.3,1,2.3,2.4v0.1c0,1.4-1,2.4-2.3,2.4
		C264.1,240,263.1,239,263.1,237.6z M267,237.6L267,237.6c0-1.2-0.6-1.9-1.5-1.9c-0.9,0-1.5,0.7-1.5,1.8v0.1c0,1.1,0.6,1.8,1.5,1.8
		C266.4,239.4,267,238.7,267,237.6z"/>
	<path class="st1" d="M268.8,235.2h0.7v0.7c0.2-0.4,0.7-0.8,1.5-0.8c1,0,1.7,0.5,1.7,1.9v2.9H272V237c0-0.8-0.4-1.2-1.1-1.2
		c-0.7,0-1.3,0.4-1.3,1.3v2.9h-0.7V235.2z"/>
	<path class="st1" d="M273.6,238.5h0.7c0.1,0.6,0.4,0.9,1.1,0.9c0.7,0,1-0.2,1-0.7c0-0.5-0.4-0.7-1.1-0.8c-1.2-0.2-1.6-0.6-1.6-1.4
		c0-0.9,0.9-1.3,1.6-1.3c0.8,0,1.6,0.3,1.7,1.4h-0.7c-0.1-0.5-0.4-0.7-1-0.7c-0.5,0-0.9,0.3-0.9,0.7c0,0.4,0.2,0.6,1.1,0.7
		c1,0.2,1.7,0.4,1.7,1.4c0,0.9-0.6,1.4-1.7,1.4C274.4,240,273.7,239.5,273.6,238.5z"/>
	<path class="st1" d="M278.2,239.4c0-0.3,0.3-0.6,0.6-0.6s0.6,0.3,0.6,0.6s-0.3,0.6-0.6,0.6S278.2,239.8,278.2,239.4z"/>
</g>
</svg>
