<svg xmlns="http://www.w3.org/2000/svg" viewBox="0 0 160 600"><title>legal</title><g id="Layer_2" data-name="Layer 2"><g id="Rect"><rect width="160" height="600" fill="none"/></g><g id="For_paid_versions." data-name="For paid versions."><path d="M21.31,441.52h3.76v.64h-3v2.28h2.33v.64H22.09V448h-.78Z" fill="#14aa40"/><path d="M25.41,445.64v-.07a2.32,2.32,0,1,1,4.63,0v.07a2.32,2.32,0,1,1-4.63,0Zm3.86,0v-.06c0-1.09-.61-1.79-1.54-1.79s-1.54.7-1.54,1.78v.07c0,1.07.58,1.78,1.54,1.78A1.57,1.57,0,0,0,29.27,445.64Z" fill="#14aa40"/><path d="M31.07,443.25h.74v.84a1.64,1.64,0,0,1,1.55-.92v.7c-.94.05-1.55.34-1.55,1.5V448h-.74Z" fill="#14aa40"/><path d="M36.56,443.25h.75V444a1.94,1.94,0,0,1,1.6-.87,2.14,2.14,0,0,1,2.14,2.37v.07A2.18,2.18,0,0,1,38.91,448a1.79,1.79,0,0,1-1.6-.86v2.42h-.75Zm3.71,2.39v-.07c0-1.19-.65-1.78-1.45-1.78s-1.53.58-1.53,1.78v.07c0,1.21.63,1.78,1.54,1.78S40.27,446.79,40.27,445.64Z" fill="#14aa40"/><path d="M41.69,446.65c0-1.09,1.15-1.46,2.35-1.46h.68v-.34c0-.75-.29-1.06-1-1.06s-1,.27-1.08.84h-.75a1.65,1.65,0,0,1,1.87-1.46,1.52,1.52,0,0,1,1.72,1.68V448h-.75v-.6a1.7,1.7,0,0,1-1.47.68C42.38,448,41.69,447.62,41.69,446.65Zm3-.34v-.59h-.65c-.94,0-1.64.24-1.64.93,0,.49.24.79.89.79S44.72,447,44.72,446.31Z" fill="#14aa40"/><path d="M46.68,441.77a.5.5,0,0,1,.5-.49.49.49,0,0,1,.49.49.5.5,0,0,1-.49.5A.51.51,0,0,1,46.68,441.77Zm.14,1.48h.74V448h-.74Z" fill="#14aa40"/><path d="M48.61,445.7v-.08a2.23,2.23,0,0,1,2.19-2.45,1.69,1.69,0,0,1,1.54.83v-3h.75v7h-.75v-.81a2,2,0,0,1-1.61.89A2.1,2.1,0,0,1,48.61,445.7Zm3.76-.07v-.07c0-1.2-.58-1.77-1.49-1.77s-1.5.66-1.5,1.8v.07c0,1.19.64,1.76,1.43,1.76S52.37,446.84,52.37,445.63Z" fill="#14aa40"/><path d="M56.18,443.25H57l1.4,3.95,1.38-3.95h.77L58.85,448h-1Z" fill="#14aa40"/><path d="M60.9,445.65v-.07a2.22,2.22,0,0,1,2.21-2.41,2.06,2.06,0,0,1,2.11,2.34v.24H61.67c0,1.07.55,1.67,1.52,1.67.73,0,1.15-.27,1.25-.82h.75a1.83,1.83,0,0,1-2,1.44A2.22,2.22,0,0,1,60.9,445.65Zm3.56-.5c-.08-1-.58-1.36-1.35-1.36a1.41,1.41,0,0,0-1.41,1.36Z" fill="#14aa40"/><path d="M66.23,443.25H67v.84a1.62,1.62,0,0,1,1.54-.92v.7c-.94.05-1.54.34-1.54,1.5V448h-.75Z" fill="#14aa40"/><path d="M69.05,446.51h.72c.06.56.36.91,1.11.91s1-.25,1-.75-.37-.66-1.1-.79c-1.22-.23-1.64-.57-1.64-1.39a1.47,1.47,0,0,1,1.6-1.32,1.51,1.51,0,0,1,1.7,1.36h-.72c-.11-.52-.4-.74-1-.74s-.9.27-.9.67.24.6,1.1.75,1.66.4,1.66,1.4c0,.85-.59,1.43-1.73,1.43S69.09,447.47,69.05,446.51Z" fill="#14aa40"/><path d="M73.5,441.77a.5.5,0,0,1,.5-.49.49.49,0,0,1,.49.49.5.5,0,0,1-.49.5A.51.51,0,0,1,73.5,441.77Zm.14,1.48h.74V448h-.74Z" fill="#14aa40"/><path d="M75.43,445.64v-.07a2.31,2.31,0,1,1,4.62,0v.07a2.31,2.31,0,1,1-4.62,0Zm3.85,0v-.06c0-1.09-.6-1.79-1.54-1.79s-1.54.7-1.54,1.78v.07c0,1.07.59,1.78,1.54,1.78S79.28,446.71,79.28,445.64Z" fill="#14aa40"/><path d="M81.08,443.25h.75V444a1.59,1.59,0,0,1,1.51-.83c1,0,1.66.53,1.66,1.9V448h-.75V445c0-.83-.35-1.19-1.11-1.19a1.23,1.23,0,0,0-1.31,1.28V448h-.75Z" fill="#14aa40"/><path d="M85.94,446.51h.73c0,.56.35.91,1.1.91s1-.25,1-.75-.37-.66-1.1-.79c-1.22-.23-1.64-.57-1.64-1.39a1.47,1.47,0,0,1,1.6-1.32,1.51,1.51,0,0,1,1.7,1.36h-.72c-.11-.52-.4-.74-1-.74s-.89.27-.89.67.23.6,1.1.75,1.65.4,1.65,1.4c0,.85-.58,1.43-1.73,1.43S86,447.47,85.94,446.51Z" fill="#14aa40"/><path d="M90.45,447.43A.58.58,0,1,1,91,448,.57.57,0,0,1,90.45,447.43Z" fill="#14aa40"/></g></g></svg>