<?xml version="1.0" encoding="utf-8"?>
<!-- Generator: Adobe Illustrator 23.1.1, SVG Export Plug-In . SVG Version: 6.00 Build 0)  -->
<svg version="1.1" id="Layer_1" xmlns="http://www.w3.org/2000/svg" xmlns:xlink="http://www.w3.org/1999/xlink" x="0px" y="0px"
	 viewBox="0 0 160 600" style="enable-background:new 0 0 160 600;" xml:space="preserve">
<style type="text/css">
	.st0{fill:none;}
	.st1{fill:#FFFFFF;stroke:#14AA40;stroke-miterlimit:10;}
</style>
<g id="Rect">
	<line class="st0" x1="160" y1="600" x2="0" y2="600"/>
	<line class="st0" x1="0" y1="0" x2="160" y2="0"/>
</g>
<g>
	<path class="st1" d="M50.2,234.1c-2.4-0.2-3.5-1.4-3.6-3.2h2.5c0.1,0.6,0.3,1.1,1.1,1.3v-2c-2.4-0.3-3.4-1.2-3.4-3.1
		c0-1.6,1.3-2.8,3.4-3v-1.2h1.1v1.2c2,0.2,3.1,1.1,3.3,2.9h-2.5c-0.1-0.5-0.3-0.9-0.8-1v1.9c2.1,0.3,3.4,1,3.4,3
		c0,1.7-1.1,3-3.4,3.2v1.7h-1.1V234.1z M50.2,227.8v-1.7c-0.6,0.1-0.9,0.4-0.9,0.9C49.3,227.4,49.4,227.7,50.2,227.8z M51.2,230.4
		v1.8c0.6-0.1,0.9-0.5,0.9-1C52.2,230.8,52,230.6,51.2,230.4z"/>
	<path class="st1" d="M59.6,229.8l-3.2,2v-4l3.8-2.7h4.1v16.7h-4.8V229.8z"/>
	<path class="st1" d="M65.7,233.8v-0.7c0-5.3,3.3-8.2,7.7-8.2c4.4,0,7.7,2.7,7.7,8.1v0.7c0,5.3-3,8.4-7.8,8.4
		C68.7,242.1,65.7,239.1,65.7,233.8z M76.4,233.8v-0.7c0-3.1-0.9-4.6-2.9-4.6c-2,0-2.9,1.5-2.9,4.6v0.7c0,3.1,0.9,4.6,3,4.6
		C75.6,238.4,76.4,236.8,76.4,233.8z"/>
</g>
</svg>
