<?xml version="1.0" encoding="utf-8"?>
<!-- Generator: Adobe Illustrator 23.1.1, SVG Export Plug-In . SVG Version: 6.00 Build 0)  -->
<svg version="1.1" id="Layer_1" xmlns="http://www.w3.org/2000/svg" xmlns:xlink="http://www.w3.org/1999/xlink" x="0px" y="0px"
	 viewBox="0 0 160 600" style="enable-background:new 0 0 160 600;" xml:space="preserve">
<style type="text/css">
	.st0{fill:none;}
	.st1{fill:#14AA40;}
</style>
<g id="Rect">
	<rect class="st0" width="160" height="600"/>
</g>
<g>
	<path class="st1" d="M20.7,149h4.8v6.4H31V149h4.8v16.7H31v-6.6h-5.5v6.6h-4.8V149z"/>
	<path class="st1" d="M51.8,162.3l2.8,3.4h-5.4l-1-1.2c-1,0.8-2.3,1.5-4.5,1.5c-3.5,0-5.9-1.9-5.9-5c0-2.1,1.3-3.7,3.7-4.9
		c-0.7-1-1-2.1-1-2.9c0-2.8,2.4-4.4,5.4-4.4c2.7,0,5.1,1.3,5.1,3.9c0,1.8-1.1,3.2-3.3,4.1l2.1,2.6l1.2-2.4h3.6L51.8,162.3z
		 M46,161.8l-2.6-3.2c-0.6,0.4-1.1,0.9-1.1,1.8c0,1.2,0.7,2.1,2.1,2.1C45,162.5,45.6,162.3,46,161.8z M45.5,155.1
		c1.1-0.5,1.7-1.2,1.7-2c0-0.7-0.5-1.3-1.2-1.3c-0.8,0-1.4,0.5-1.4,1.4C44.6,153.9,44.9,154.4,45.5,155.1z"/>
	<path class="st1" d="M56.1,149h6.5c4.4,0,6.8,1.8,6.8,5.3v0.1c0,2.4-1.3,3.7-3,4.4l4,6.9h-5l-3.4-6h-1.1v6h-4.8V149z M62.4,156.7
		c1.6,0,2.4-0.7,2.4-2v-0.1c0-1.4-0.8-1.9-2.4-1.9h-1.6v4H62.4z"/>
	<path class="st1" d="M76.3,149h7.4c3.9,0,5.6,1.8,5.6,4.4v0.1c0,1.9-1,3.1-2.8,3.6c2.1,0.4,3.3,1.6,3.3,3.9v0.1
		c0,3-1.9,4.6-6.1,4.6h-7.5V149z M82.8,155.7c1.5,0,2.1-0.5,2.1-1.7v-0.1c0-1.1-0.6-1.7-2.1-1.7H81v3.5H82.8z M82.9,162.5
		c1.5,0,2.2-0.7,2.2-1.9v-0.1c0-1.3-0.7-1.9-2.4-1.9H81v3.9H82.9z"/>
	<path class="st1" d="M91.5,148.2h4.2v17.6h-4.2V148.2z"/>
	<path class="st1" d="M97.3,159.8v-0.2c0-3.9,2.9-6.4,6.7-6.4c3.8,0,6.7,2.4,6.7,6.3v0.2c0,4-2.9,6.4-6.7,6.4S97.3,163.7,97.3,159.8
		z M106.4,159.7v-0.2c0-2.1-0.8-3.2-2.4-3.2c-1.6,0-2.4,1.1-2.4,3.2v0.2c0,2.1,0.8,3.2,2.4,3.2C105.5,162.9,106.4,161.7,106.4,159.7
		z"/>
	<path class="st1" d="M111.5,159.8v-0.2c0-4.1,2.9-6.4,6.5-6.4c3,0,5.7,1.3,6,5H120c-0.2-1.1-0.7-1.8-2-1.8c-1.5,0-2.3,1.1-2.3,3.1
		v0.2c0,2.1,0.8,3.2,2.4,3.2c1.2,0,2-0.7,2.1-2h3.8c-0.1,3.1-2.2,5.1-6.1,5.1C114.2,166,111.5,163.9,111.5,159.8z"/>
	<path class="st1" d="M125.4,148.2h4.2v10.2l3.3-4.8h4.3l-4,5.5l4.3,6.7h-4.7l-3.3-5.3v5.3h-4.2V148.2z"/>
	<path class="st1" d="M19.8,182.8v-0.2c0-5.1,3.8-8.5,8.8-8.5c5.1,0,8.8,3.2,8.8,8.4v0.2c0,5.1-3.5,8.6-8.9,8.6
		S19.8,187.9,19.8,182.8z M32.5,182.8v-0.2c0-3-1.5-4.7-3.9-4.7c-2.4,0-3.8,1.7-3.8,4.7v0.2c0,3,1.5,4.8,3.9,4.8
		C31,187.6,32.5,185.8,32.5,182.8z"/>
	<path class="st1" d="M39.1,178.9h4.2v2c0.7-1.3,2-2.3,4-2.3c2.4,0,4,1.5,4,4.6v7.9h-4.2V184c0-1.4-0.5-2.1-1.8-2.1
		c-1.2,0-2.1,0.7-2.1,2.3v6.8h-4.2V178.9z"/>
	<path class="st1" d="M53.5,173.5h4.2v17.6h-4.2V173.5z"/>
	<path class="st1" d="M59.8,175.6c0-1.2,1-2.2,2.3-2.2s2.3,0.9,2.3,2.2s-1,2.1-2.3,2.1S59.8,176.8,59.8,175.6z M60,178.9h4.2v12.2
		H60V178.9z"/>
	<path class="st1" d="M66.4,178.9h4.2v2c0.7-1.3,2-2.3,4-2.3c2.4,0,4,1.5,4,4.6v7.9h-4.2V184c0-1.4-0.5-2.1-1.8-2.1
		c-1.2,0-2.1,0.7-2.1,2.3v6.8h-4.2V178.9z"/>
	<path class="st1" d="M80,185.1v-0.2c0-3.9,2.9-6.4,6.6-6.4c3.3,0,6.2,1.9,6.2,6.3v1.1h-8.6c0.1,1.6,1,2.5,2.5,2.5
		c1.4,0,2-0.6,2.1-1.4h3.9c-0.4,2.8-2.5,4.3-6.2,4.3C82.8,191.4,80,189.1,80,185.1z M88.7,183.6c-0.1-1.5-0.8-2.3-2.1-2.3
		c-1.3,0-2.1,0.8-2.3,2.3H88.7z"/>
	<path class="st1" d="M19.7,210.5v-0.2c0-4.1,2.9-6.4,6.5-6.4c3,0,5.7,1.3,6,5h-3.9c-0.2-1.1-0.7-1.8-2-1.8c-1.5,0-2.3,1.1-2.3,3.1
		v0.2c0,2.1,0.8,3.2,2.4,3.2c1.2,0,2-0.7,2.1-2h3.8c-0.1,3.1-2.2,5.1-6.1,5.1C22.5,216.7,19.7,214.6,19.7,210.5z"/>
	<path class="st1" d="M33,210.5v-0.2c0-3.9,2.9-6.4,6.7-6.4c3.8,0,6.7,2.4,6.7,6.3v0.2c0,4-2.9,6.4-6.7,6.4S33,214.4,33,210.5z
		 M42.1,210.4v-0.2c0-2.1-0.8-3.2-2.4-3.2c-1.6,0-2.4,1.1-2.4,3.2v0.2c0,2.1,0.8,3.2,2.4,3.2C41.2,213.6,42.1,212.4,42.1,210.4z"/>
	<path class="st1" d="M47,212.6h3.9c0.1,0.9,0.5,1.4,1.7,1.4c1,0,1.5-0.4,1.5-1c0-0.6-0.6-0.9-2.3-1.1c-3.3-0.4-4.6-1.4-4.6-3.9
		c0-2.7,2.4-4,5.2-4c3,0,5.1,1,5.4,3.9H54c-0.2-0.8-0.6-1.2-1.6-1.2c-0.9,0-1.4,0.4-1.4,1c0,0.6,0.6,0.8,2.1,1c3.4,0.4,5,1.3,5,3.9
		c0,2.9-2.1,4.2-5.5,4.2C49.2,216.7,47.1,215.3,47,212.6z"/>
	<path class="st1" d="M60.1,212.5v-5.4h-1.5v-2.8h1.5v-2.5h4.2v2.5h2.4v2.8h-2.4v5c0,0.9,0.4,1.3,1.2,1.3c0.5,0,0.8-0.1,1.2-0.2v3.2
		c-0.5,0.1-1.3,0.4-2.3,0.4C61.6,216.7,60.1,215.4,60.1,212.5z"/>
	<path class="st1" d="M67.6,212.6h3.9c0.1,0.9,0.5,1.4,1.7,1.4c1,0,1.5-0.4,1.5-1c0-0.6-0.6-0.9-2.3-1.1c-3.3-0.4-4.6-1.4-4.6-3.9
		c0-2.7,2.4-4,5.2-4c3,0,5.1,1,5.4,3.9h-3.8c-0.2-0.8-0.6-1.2-1.6-1.2c-0.9,0-1.4,0.4-1.4,1c0,0.6,0.6,0.8,2.1,1
		c3.4,0.4,5,1.3,5,3.9c0,2.9-2.1,4.2-5.5,4.2C69.7,216.7,67.7,215.3,67.6,212.6z"/>
	<path class="st1" d="M84.3,212.2v-8h4.2v7.3c0,1.4,0.5,2.1,1.7,2.1c1.3,0,2.1-0.7,2.1-2.3v-7h4.2v12.2h-4.2v-1.9
		c-0.7,1.3-1.8,2.2-3.9,2.2C86,216.7,84.3,215.3,84.3,212.2z"/>
	<path class="st1" d="M98.5,204.2h4.2v1.8c0.7-1.2,2-2.1,3.8-2.1c2.8,0,5.2,2.1,5.2,6.3v0.2c0,4.2-2.3,6.3-5.2,6.3
		c-1.8,0-3.2-0.9-3.8-2.1v5.9h-4.2V204.2z M107.4,210.4v-0.2c0-2.1-0.9-3.2-2.4-3.2c-1.5,0-2.4,1.1-2.4,3.2v0.2
		c0,2.1,0.9,3.1,2.4,3.1C106.6,213.5,107.4,212.4,107.4,210.4z"/>
	<path class="st1" d="M20.9,237.9v-5.4h-1.5v-2.8h1.5V227h4.2v2.5h2.4v2.8h-2.4v5c0,0.9,0.4,1.3,1.2,1.3c0.5,0,0.8-0.1,1.2-0.2v3.2
		c-0.5,0.1-1.3,0.4-2.3,0.4C22.4,242.1,20.9,240.7,20.9,237.9z"/>
	<path class="st1" d="M28.4,235.8v-0.2c0-3.9,2.9-6.4,6.7-6.4c3.8,0,6.7,2.4,6.7,6.3v0.2c0,4-2.9,6.4-6.7,6.4S28.4,239.8,28.4,235.8
		z M37.5,235.8v-0.2c0-2.1-0.8-3.2-2.4-3.2c-1.6,0-2.4,1.1-2.4,3.2v0.2c0,2.1,0.8,3.2,2.4,3.2C36.7,239,37.5,237.8,37.5,235.8z"/>
	<path class="st1" d="M50.2,234.1c-2.4-0.2-3.5-1.4-3.6-3.2h2.5c0.1,0.6,0.3,1.1,1.1,1.3v-2c-2.4-0.3-3.4-1.2-3.4-3.1
		c0-1.6,1.3-2.8,3.4-3v-1.2h1.1v1.2c2,0.2,3.1,1.1,3.3,2.9h-2.5c-0.1-0.5-0.3-0.9-0.8-1v1.9c2.1,0.3,3.4,1,3.4,3
		c0,1.7-1.1,3-3.4,3.2v1.7h-1.1V234.1z M50.2,227.8v-1.7c-0.6,0.1-0.9,0.4-0.9,0.9C49.3,227.4,49.4,227.7,50.2,227.8z M51.2,230.4
		v1.8c0.6-0.1,0.9-0.5,0.9-1C52.2,230.8,52,230.6,51.2,230.4z"/>
	<path class="st1" d="M59.6,229.8l-3.2,2v-4l3.8-2.7h4.1v16.7h-4.8V229.8z"/>
	<path class="st1" d="M65.7,233.8v-0.7c0-5.3,3.3-8.2,7.7-8.2c4.4,0,7.7,2.7,7.7,8.1v0.7c0,5.3-3,8.4-7.8,8.4
		C68.7,242.1,65.7,239.1,65.7,233.8z M76.4,233.8v-0.7c0-3.1-0.9-4.6-2.9-4.6c-2,0-2.9,1.5-2.9,4.6v0.7c0,3.1,0.9,4.6,3,4.6
		C75.6,238.4,76.4,236.8,76.4,233.8z"/>
	<path class="st1" d="M20.5,249.6h4.2v17.6h-4.2V249.6z"/>
	<path class="st1" d="M26.2,261.2V261c0-3.9,2.9-6.4,6.6-6.4c3.3,0,6.2,1.9,6.2,6.3v1.1h-8.6c0.1,1.6,1,2.5,2.5,2.5
		c1.4,0,2-0.6,2.1-1.4H39c-0.4,2.8-2.5,4.3-6.2,4.3C29,267.4,26.2,265.2,26.2,261.2z M35,259.6c-0.1-1.5-0.8-2.3-2.1-2.3
		c-1.3,0-2.1,0.8-2.3,2.3H35z"/>
	<path class="st1" d="M39.8,263.3h3.9c0.1,0.9,0.5,1.4,1.7,1.4c1,0,1.5-0.4,1.5-1c0-0.6-0.6-0.9-2.3-1.1c-3.3-0.4-4.6-1.4-4.6-3.9
		c0-2.7,2.4-4,5.2-4c3,0,5.1,1,5.4,3.9h-3.8c-0.2-0.8-0.6-1.2-1.6-1.2c-0.9,0-1.4,0.4-1.4,1c0,0.6,0.6,0.8,2.1,1
		c3.4,0.4,5,1.3,5,3.9c0,2.9-2.1,4.2-5.5,4.2C41.9,267.4,39.9,266,39.8,263.3z"/>
	<path class="st1" d="M51.5,263.3h3.9c0.1,0.9,0.5,1.4,1.7,1.4c1,0,1.5-0.4,1.5-1c0-0.6-0.6-0.9-2.3-1.1c-3.3-0.4-4.6-1.4-4.6-3.9
		c0-2.7,2.4-4,5.2-4c3,0,5.1,1,5.4,3.9h-3.8c-0.2-0.8-0.6-1.2-1.6-1.2c-0.9,0-1.4,0.4-1.4,1c0,0.6,0.6,0.8,2.1,1
		c3.4,0.4,5,1.3,5,3.9c0,2.9-2.1,4.2-5.5,4.2C53.6,267.4,51.6,266,51.5,263.3z"/>
	<path class="st1" d="M68.8,263.2v-5.4h-1.5v-2.8h1.5v-2.5H73v2.5h2.4v2.8H73v5c0,0.9,0.4,1.3,1.2,1.3c0.5,0,0.8-0.1,1.2-0.2v3.2
		c-0.5,0.1-1.3,0.4-2.3,0.4C70.4,267.4,68.8,266.1,68.8,263.2z"/>
	<path class="st1" d="M77,249.6h4.2v7.3c0.7-1.3,2-2.3,4-2.3c2.4,0,4,1.5,4,4.6v7.9H85V260c0-1.4-0.5-2.1-1.8-2.1
		c-1.2,0-2.1,0.7-2.1,2.3v6.8H77V249.6z"/>
	<path class="st1" d="M90.5,263.8c0-2.9,2.4-4,6.5-4h1.2v-0.3c0-1.2-0.3-1.9-1.6-1.9c-1.1,0-1.6,0.7-1.7,1.4H91
		c0.2-2.9,2.5-4.4,5.8-4.4c3.4,0,5.5,1.4,5.5,4.6v7.9h-4.1v-1.4c-0.6,0.9-1.7,1.7-3.6,1.7C92.4,267.4,90.5,266.3,90.5,263.8z
		 M98.2,262.9v-0.7h-1.1c-1.7,0-2.4,0.3-2.4,1.3c0,0.7,0.5,1.1,1.4,1.1C97.3,264.6,98.2,263.9,98.2,262.9z"/>
	<path class="st1" d="M104.4,254.9h4.2v2c0.7-1.3,2-2.3,4-2.3c2.4,0,4,1.5,4,4.6v7.9h-4.2V260c0-1.4-0.5-2.1-1.8-2.1
		c-1.2,0-2.1,0.7-2.1,2.3v6.8h-4.2V254.9z"/>
	<path class="st1" d="M23.9,279.5h-4.3v-3.7H33v3.7h-4.3v13h-4.8V279.5z"/>
	<path class="st1" d="M33.4,288.2v-8h4.2v7.3c0,1.4,0.5,2.1,1.7,2.1c1.3,0,2.1-0.7,2.1-2.3v-7h4.2v12.2h-4.2v-1.9
		c-0.7,1.3-1.8,2.2-3.9,2.2C35.2,292.8,33.4,291.3,33.4,288.2z"/>
	<path class="st1" d="M47.7,280.3h4.2v2.4c0.8-1.8,2.1-2.6,3.9-2.6v3.9c-2.5-0.1-3.9,0.7-3.9,2.7v5.8h-4.2V280.3z"/>
	<path class="st1" d="M61.5,290.6v1.9h-4.2v-17.6h4.2v7.2c0.7-1.2,2-2.1,3.8-2.1c2.8,0,5.2,2.1,5.2,6.3v0.2c0,4.2-2.3,6.3-5.2,6.3
		C63.5,292.8,62.1,291.9,61.5,290.6z M66.3,286.5v-0.2c0-2.1-0.9-3.2-2.4-3.2c-1.5,0-2.4,1.1-2.4,3.2v0.2c0,2.1,0.9,3.1,2.4,3.1
		C65.4,289.6,66.3,288.5,66.3,286.5z"/>
	<path class="st1" d="M71.4,286.5v-0.2c0-3.9,2.9-6.4,6.7-6.4c3.8,0,6.7,2.4,6.7,6.3v0.2c0,4-2.9,6.4-6.7,6.4S71.4,290.5,71.4,286.5
		z M80.5,286.5v-0.2c0-2.1-0.8-3.2-2.4-3.2c-1.6,0-2.4,1.1-2.4,3.2v0.2c0,2.1,0.8,3.2,2.4,3.2C79.6,289.7,80.5,288.5,80.5,286.5z"/>
	<path class="st1" d="M89.8,279.5h-4.3v-3.7h13.4v3.7h-4.3v13h-4.8V279.5z"/>
	<path class="st1" d="M98.1,289.1c0-2.9,2.4-4,6.5-4h1.2v-0.3c0-1.2-0.3-1.9-1.6-1.9c-1.1,0-1.6,0.7-1.7,1.4h-3.9
		c0.2-2.9,2.5-4.4,5.8-4.4c3.4,0,5.5,1.4,5.5,4.6v7.9h-4.1v-1.4c-0.6,0.9-1.7,1.7-3.6,1.7C100,292.8,98.1,291.7,98.1,289.1z
		 M105.7,288.2v-0.7h-1.1c-1.7,0-2.4,0.3-2.4,1.3c0,0.7,0.5,1.1,1.4,1.1C104.8,289.9,105.7,289.3,105.7,288.2z"/>
	<path class="st1" d="M115,286.3l-3.8-6h4.8l1.9,3.2l1.8-3.2h4.3l-3.9,5.7l4.2,6.5h-4.8l-2.2-3.6l-2.2,3.6h-4.3L115,286.3z"/>
	<path class="st1" d="M125.2,290.4c0-1.3,1-2.4,2.4-2.4c1.4,0,2.5,1.1,2.5,2.4c0,1.3-1,2.4-2.5,2.4
		C126.2,292.7,125.2,291.7,125.2,290.4z"/>
</g>
</svg>
