<?xml version="1.0" encoding="utf-8"?>
<!-- Generator: Adobe Illustrator 24.0.2, SVG Export Plug-In . SVG Version: 6.00 Build 0)  -->
<svg version="1.1" id="Layer_1" xmlns="http://www.w3.org/2000/svg" xmlns:xlink="http://www.w3.org/1999/xlink" x="0px" y="0px"
	 viewBox="0 0 160 600" style="enable-background:new 0 0 160 600;" xml:space="preserve">
<style type="text/css">
	.st0{fill:none;}
	.st1{fill:#14AA40;}
</style>
<title>160x600 4</title>
<g id="Layer_2_1_">
	<g id="Rect">
		<rect class="st0" width="160" height="600"/>
	</g>
	<g id="H_R_Block_Online_costs_at_least_30_less_than_TurboTax.">
		<path class="st1" d="M21.6,148.9h4.8v6.4h5.5v-6.4h4.8v16.6h-4.8V159h-5.5v6.6h-4.8C21.6,165.6,21.6,148.9,21.6,148.9z"/>
		<path class="st1" d="M52.6,162.1l2.8,3.4H50l-1-1.2c-1.3,1-2.9,1.6-4.5,1.5c-3.5,0-5.8-1.9-5.8-5c0-2.1,1.3-3.7,3.7-4.8
			c-0.6-0.9-1-1.9-1-2.9c0-2.8,2.4-4.4,5.3-4.4c2.7,0,5,1.3,5,3.9c0,1.8-1.1,3.1-3.3,4.1l2.1,2.6l1.2-2.4h3.6L52.6,162.1z
			 M46.8,161.6l-2.6-3.2c-0.7,0.3-1.1,1-1.1,1.8c-0.1,1.1,0.7,2,1.8,2.1c0.1,0,0.2,0,0.3,0C45.8,162.3,46.4,162.1,46.8,161.6z
			 M46.3,154.9c1.1-0.5,1.7-1.2,1.7-2c0-0.7-0.5-1.2-1.1-1.3h-0.1c-0.7,0-1.4,0.6-1.4,1.3c0,0.1,0,0.1,0,0.2
			C45.4,153.8,45.8,154.4,46.3,154.9z"/>
		<path class="st1" d="M56.8,148.9h6.5c4.3,0,6.8,1.8,6.8,5.3v0.1c0.1,2-1.1,3.8-3,4.4l4,6.9h-5l-3.4-6h-1.2v6h-4.8v-16.7H56.8z
			 M63.1,156.5c1.6,0,2.4-0.7,2.4-2v-0.1c0-1.3-0.8-1.9-2.4-1.9h-1.5v4H63.1z"/>
		<path class="st1" d="M76.9,148.9h7.4c3.9,0,5.6,1.8,5.6,4.4v0.1c0.1,1.7-1.1,3.3-2.8,3.6c2,0.2,3.5,1.9,3.3,3.9v0.1
			c0,3-1.9,4.6-6,4.6h-7.5V148.9z M83.4,155.5c1.5,0,2-0.5,2-1.7v-0.1c0-1.1-0.6-1.6-2-1.6h-1.8v3.4L83.4,155.5L83.4,155.5z
			 M83.6,162.3c1.5,0,2.2-0.7,2.2-1.9v-0.1c0-1.3-0.7-1.9-2.3-1.9h-1.8v3.9H83.6z"/>
		<path class="st1" d="M92.1,148h4.1v17.5h-4.1V148z"/>
		<path class="st1" d="M97.8,159.6v-0.2c0-3.9,2.9-6.4,6.7-6.4s6.6,2.4,6.6,6.3v0.2c0,3.9-2.9,6.3-6.7,6.3S97.8,163.5,97.8,159.6z
			 M106.9,159.5v-0.2c0-2-0.8-3.2-2.4-3.2s-2.4,1.1-2.4,3.1v0.2c0,2.1,0.8,3.2,2.4,3.2S106.9,161.5,106.9,159.5z"/>
		<path class="st1" d="M112,159.6v-0.2c0-4,2.9-6.4,6.5-6.4c3,0,5.7,1.3,6,5h-3.9c0-1-0.8-1.8-1.8-1.8c-0.1,0-0.1,0-0.2,0
			c-1.5,0-2.3,1.1-2.3,3.1v0.2c0,2.1,0.8,3.2,2.4,3.2c1.1,0.1,2.1-0.8,2.1-1.9v-0.1h3.7c-0.1,3.1-2.2,5.1-6.1,5.1
			C114.7,165.8,112,163.7,112,159.6z"/>
		<path class="st1" d="M125.8,148h4.2v10.2l3.3-4.8h4.3l-4,5.5l4.3,6.7h-4.6l-3.3-5.3v5.3h-4.2V148z"/>
		<path class="st1" d="M20.7,182.6v-0.2c0-5.1,3.8-8.5,8.8-8.5s8.8,3.2,8.8,8.4v0.2c0,5.1-3.5,8.6-8.9,8.6S20.7,187.6,20.7,182.6z
			 M33.3,182.5v-0.2c0-3-1.5-4.7-3.8-4.7s-3.8,1.7-3.8,4.7v0.2c0,3,1.5,4.8,3.8,4.8S33.3,185.5,33.3,182.5z"/>
		<path class="st1" d="M39.9,178.6h4.2v2c0.8-1.5,2.3-2.4,4-2.3c2.3,0,4,1.5,4,4.6v7.9h-4.2v-7.1c0-1.4-0.5-2.1-1.7-2.1
			s-2.1,0.8-2.1,2.3v6.8h-4.2V178.6z"/>
		<path class="st1" d="M54.2,173.3h4.1v17.5h-4.1V173.3z"/>
		<path class="st1" d="M60.5,175.3c0-1.2,1-2.2,2.2-2.2h0.1c1.2,0,2.2,1,2.2,2.2s-1,2.1-2.2,2.1c-1.2,0.1-2.2-0.8-2.3-2
			C60.5,175.4,60.5,175.3,60.5,175.3z M60.7,178.6h4.2v12.2h-4.2V178.6z"/>
		<path class="st1" d="M67.1,178.6h4.2v2c0.8-1.5,2.3-2.4,4-2.3c2.3,0,4,1.5,4,4.6v7.9h-4.2v-7.1c0-1.4-0.5-2.1-1.8-2.1
			s-2.1,0.8-2.1,2.3v6.8H67L67.1,178.6L67.1,178.6z"/>
		<path class="st1" d="M80.6,184.8v-0.2c-0.1-3.4,2.6-6.3,6.1-6.4c0.2,0,0.3,0,0.5,0c3.3,0,6.2,1.9,6.2,6.3v1.1h-8.6
			c-0.1,1.3,1,2.5,2.3,2.5c0.1,0,0.2,0,0.2,0c1.4,0,2-0.6,2.1-1.4h3.9c-0.4,2.8-2.5,4.3-6.2,4.3S80.6,188.8,80.6,184.8z M89.3,183.3
			c-0.1-1.5-0.8-2.3-2.1-2.3c-1.3,0-2.3,1-2.3,2.3H89.3z"/>
		<path class="st1" d="M20.6,210.1v-0.2c0-4,2.9-6.4,6.5-6.4c3,0,5.7,1.3,6,5h-3.9c0-1-0.8-1.8-1.8-1.8c-0.1,0-0.1,0-0.2,0
			c-1.5,0-2.3,1.1-2.3,3.1v0.2c0,2.1,0.8,3.2,2.4,3.2c1.1,0.1,2.1-0.8,2.1-1.9v-0.1h3.7c-0.1,3.1-2.2,5.1-6.1,5.1
			C23.4,216.3,20.6,214.2,20.6,210.1z"/>
		<path class="st1" d="M33.8,210.1v-0.2c0-3.9,2.9-6.4,6.7-6.4s6.6,2.4,6.6,6.3v0.2c0,3.9-2.9,6.3-6.7,6.3S33.8,214,33.8,210.1z
			 M42.9,210v-0.2c0-2-0.8-3.2-2.4-3.2s-2.5,1.1-2.5,3.1v0.2c0,2.1,0.8,3.2,2.4,3.2S42.9,212,42.9,210L42.9,210z"/>
		<path class="st1" d="M47.8,212.1h3.8c0.1,0.9,0.5,1.4,1.7,1.4s1.5-0.4,1.5-1s-0.6-0.9-2.3-1.1c-3.3-0.4-4.6-1.4-4.6-3.9
			c0-2.7,2.4-4,5.2-4c3,0,5.1,1,5.4,3.9h-3.8c-0.1-0.7-0.7-1.3-1.5-1.2c0,0,0,0-0.1,0c-0.9,0-1.4,0.4-1.4,0.9s0.6,0.8,2,1
			c3.4,0.4,5,1.3,5,3.9c0,2.9-2.1,4.2-5.5,4.2S47.9,214.8,47.8,212.1z"/>
		<path class="st1" d="M60.8,212.1v-5.4h-1.5v-2.8h1.5v-2.5H65v2.5h2.4v2.8H65v5c-0.1,0.6,0.3,1.2,0.8,1.3c0.1,0,0.2,0,0.4,0
			c0.4,0,0.8-0.1,1.2-0.2v3.2c-0.7,0.2-1.5,0.3-2.3,0.4C62.3,216.3,60.8,215,60.8,212.1z"/>
		<path class="st1" d="M68.3,212.1h3.8c0.1,0.9,0.5,1.4,1.7,1.4c1,0,1.5-0.4,1.5-1s-0.6-0.9-2.3-1.1c-3.3-0.4-4.6-1.4-4.6-3.9
			c0-2.7,2.4-4,5.2-4c3,0,5.1,1,5.4,3.9h-3.8c-0.1-0.8-0.8-1.3-1.5-1.2c0,0,0,0-0.1,0c-0.9,0-1.4,0.4-1.4,0.9s0.6,0.8,2,1
			c3.4,0.4,5,1.3,5,3.9c0,2.9-2.1,4.2-5.5,4.2S68.4,214.8,68.3,212.1z"/>
		<path class="st1" d="M84.3,212.6c0-2.9,2.4-4,6.5-4H92v-0.3c0-1.2-0.3-1.9-1.6-1.9c-0.8-0.1-1.6,0.5-1.7,1.3v0.1h-3.9
			c0.2-2.9,2.5-4.4,5.8-4.4s5.5,1.4,5.5,4.6v7.9h-4v-1.4c-0.8,1.2-2.2,1.8-3.6,1.7C86.2,216.3,84.3,215.2,84.3,212.6z M91.9,211.8
			V211h-1.1c-1.7,0-2.4,0.3-2.4,1.3c0,0.7,0.5,1.1,1.4,1.1C91,213.5,91.9,212.8,91.9,211.8z"/>
		<path class="st1" d="M98.5,212.1v-5.4H97v-2.8h1.5v-2.5h4.2v2.5h2.4v2.8h-2.4v5c-0.1,0.6,0.3,1.2,0.9,1.3c0.1,0,0.2,0,0.3,0
			c0.4,0,0.8-0.1,1.2-0.2v3.2c-0.7,0.2-1.5,0.3-2.3,0.4C100.1,216.3,98.5,215,98.5,212.1z"/>
		<path class="st1" d="M21.4,223.8h4.1v17.5h-4.1V223.8z"/>
		<path class="st1" d="M27.1,235.3v-0.2c0-3.9,2.9-6.4,6.6-6.4c3.3,0,6.2,1.9,6.2,6.3v1.1h-8.6c-0.1,1.3,1,2.5,2.3,2.5
			c0.1,0,0.2,0,0.2,0c1.4,0,2-0.6,2.1-1.4h3.9c-0.4,2.8-2.5,4.3-6.2,4.3S27.1,239.3,27.1,235.3z M35.8,233.8
			c-0.1-1.5-0.8-2.3-2.1-2.3s-2.3,1-2.3,2.3H35.8z"/>
		<path class="st1" d="M40.7,237.9c0-2.9,2.4-4,6.5-4h1.2v-0.3c0-1.2-0.3-1.9-1.6-1.9c-0.8-0.1-1.6,0.5-1.6,1.3v0.1h-3.9
			c0.2-2.9,2.5-4.4,5.8-4.4s5.5,1.4,5.5,4.6v7.9h-4v-1.4c-0.8,1.2-2.2,1.8-3.6,1.7C42.6,241.5,40.7,240.5,40.7,237.9z M48.3,237
			v-0.7h-1.1c-1.7,0-2.4,0.3-2.4,1.3c0,0.7,0.5,1.1,1.4,1.1C47.4,238.7,48.3,238.1,48.3,237z"/>
		<path class="st1" d="M53.7,237.4h3.8c0.1,0.9,0.5,1.4,1.7,1.4s1.5-0.4,1.5-1s-0.6-0.9-2.3-1.1c-3.3-0.4-4.6-1.4-4.6-3.9
			c0-2.7,2.4-4,5.2-4c3,0,5.1,1,5.4,3.9h-3.8c-0.1-0.7-0.7-1.3-1.5-1.2c0,0,0,0-0.1,0c-0.9,0-1.4,0.4-1.4,0.9s0.6,0.8,2,1
			c3.4,0.4,5,1.3,5,3.9c0,2.9-2.1,4.2-5.5,4.2S53.8,240.1,53.7,237.4z"/>
		<path class="st1" d="M66.7,237.4V232h-1.5v-2.8h1.5v-2.5h4.2v2.5h2.4v2.8h-2.4v5c-0.1,0.6,0.3,1.2,0.9,1.3c0.1,0,0.2,0,0.3,0
			c0.4,0,0.8-0.1,1.2-0.2v3.2c-0.7,0.2-1.5,0.3-2.3,0.4C68.2,241.5,66.7,240.2,66.7,237.4z"/>
		<path class="st1" d="M21.4,249h4.1v17.5h-4.1V249z"/>
		<path class="st1" d="M27.1,260.6v-0.2c0-3.9,2.9-6.4,6.6-6.4c3.3,0,6.2,1.9,6.2,6.3v1.1h-8.6c-0.1,1.3,1,2.5,2.3,2.5
			c0.1,0,0.2,0,0.2,0c1.4,0,2-0.6,2.1-1.5h3.9c-0.4,2.8-2.5,4.3-6.2,4.3S27.1,264.5,27.1,260.6z M35.8,259c-0.1-1.5-0.8-2.3-2.1-2.3
			s-2.3,1-2.3,2.3H35.8z"/>
		<path class="st1" d="M40.6,262.6h3.8c0.1,0.9,0.5,1.4,1.7,1.4c1,0,1.5-0.4,1.5-1s-0.6-0.9-2.3-1.1c-3.3-0.4-4.6-1.4-4.6-3.9
			c0-2.7,2.4-4,5.2-4c3,0,5.1,1,5.4,3.9h-3.8c-0.1-0.7-0.7-1.3-1.5-1.2c0,0,0,0-0.1,0c-0.9,0-1.4,0.4-1.4,1s0.6,0.8,2,1
			c3.4,0.4,5,1.3,5,3.9c0,2.9-2.1,4.2-5.5,4.2S40.7,265.3,40.6,262.6z"/>
		<path class="st1" d="M52.3,262.6h3.8c0.1,0.9,0.5,1.4,1.7,1.4c1,0,1.5-0.4,1.5-1s-0.6-0.9-2.3-1.1c-3.3-0.4-4.6-1.4-4.6-3.9
			c0-2.7,2.4-4,5.2-4c3,0,5.1,1,5.4,3.9h-3.8c-0.1-0.8-0.8-1.3-1.5-1.2c0,0,0,0-0.1,0c-0.9,0-1.4,0.4-1.4,1s0.5,0.8,2,1
			c3.4,0.4,5,1.3,5,3.9c0,2.9-2.1,4.2-5.5,4.2S52.4,265.3,52.3,262.6z"/>
		<path class="st1" d="M69.5,262.6v-5.4H68v-2.8h1.5v-2.5h4.2v2.5h2.4v2.8h-2.4v5c-0.1,0.6,0.3,1.2,0.9,1.3c0.1,0,0.2,0,0.3,0
			c0.4,0,0.8-0.1,1.2-0.2v3.2c-0.7,0.2-1.5,0.3-2.3,0.4C71,266.8,69.5,265.5,69.5,262.6z"/>
		<path class="st1" d="M77.6,249h4.2v7.3c0.8-1.5,2.3-2.4,4-2.3c2.3,0,4,1.5,4,4.6v7.9h-4.2v-7.1c0-1.4-0.5-2-1.7-2
			s-2.1,0.8-2.1,2.3v6.8h-4.2C77.6,266.5,77.6,249,77.6,249z"/>
		<path class="st1" d="M91.1,263.1c0-2.9,2.4-4,6.5-4h1.2v-0.3c0-1.2-0.3-1.9-1.6-1.9c-0.8-0.1-1.6,0.5-1.6,1.3v0.1h-3.9
			c0.2-2.9,2.5-4.4,5.8-4.4s5.5,1.4,5.5,4.6v7.9h-4V265c-0.8,1.2-2.2,1.8-3.6,1.7C93,266.8,91.1,265.7,91.1,263.1z M98.7,262.3v-0.7
			h-1.1c-1.7,0-2.4,0.3-2.4,1.3c0,0.7,0.5,1.1,1.4,1.1C97.6,264.1,98.5,263.4,98.7,262.3C98.7,262.3,98.7,262.3,98.7,262.3z"/>
		<path class="st1" d="M104.9,254.4h4.2v2c0.8-1.5,2.3-2.4,4-2.3c2.3,0,4,1.5,4,4.6v7.9h-4.2v-7.1c0-1.4-0.5-2-1.7-2
			s-2.1,0.8-2.1,2.3v6.8h-4.2L104.9,254.4z"/>
		<path class="st1" d="M24.8,278.8h-4.3v-3.7h13.4v3.7h-4.3v13h-4.8C24.8,291.8,24.8,278.8,24.8,278.8z"/>
		<path class="st1" d="M34.3,287.5v-7.9h4.2v7.3c0,1.4,0.5,2,1.7,2s2.1-0.8,2.1-2.3v-7h4.2v12.2h-4.2v-1.9c-0.7,1.4-2.2,2.3-3.9,2.2
			C36,292,34.3,290.6,34.3,287.5z"/>
		<path class="st1" d="M48.5,279.6h4.2v2.4c0.6-1.7,2.2-2.7,3.9-2.6v3.9c-2.5-0.1-3.9,0.7-3.9,2.7v5.8h-4.2V279.6z"/>
		<path class="st1" d="M62.3,289.9v1.9h-4.2v-17.5h4.2v7.2c0.8-1.3,2.2-2.2,3.8-2.1c2.8,0,5.1,2.1,5.1,6.3v0.2
			c0,4.2-2.3,6.3-5.2,6.3C64.4,292.1,62.9,291.3,62.3,289.9z M66.9,285.8v-0.2c0-2.1-0.9-3.2-2.4-3.2s-2.4,1.1-2.4,3.1v0.2
			c0,2.1,0.9,3.1,2.4,3.1C66.1,288.9,66.9,287.8,66.9,285.8z"/>
		<path class="st1" d="M72,285.8v-0.2c0-3.9,2.9-6.4,6.7-6.4s6.6,2.4,6.6,6.3v0.2c0,4-2.9,6.3-6.7,6.3S72,289.8,72,285.8z
			 M81.1,285.8v-0.2c0-2-0.8-3.2-2.4-3.2s-2.4,1.1-2.4,3.1v0.2c0,2.1,0.8,3.2,2.4,3.2S81.1,287.8,81.1,285.8L81.1,285.8z"/>
		<path class="st1" d="M90.3,278.8H86v-3.7h13.4v3.7h-4.3v13h-4.8L90.3,278.8z"/>
		<path class="st1" d="M98.6,288.4c0-2.9,2.4-4,6.5-4h1.2v-0.3c0-1.2-0.3-1.9-1.6-1.9c-0.8-0.1-1.6,0.5-1.6,1.3v0.1h-3.9
			c0.2-2.9,2.5-4.4,5.8-4.4s5.5,1.4,5.5,4.6v7.9h-4v-1.4c-0.8,1.2-2.2,1.8-3.6,1.7C100.5,292,98.6,291,98.6,288.4z M106.2,287.5
			v-0.7h-1.1c-1.7,0-2.4,0.3-2.4,1.3c0,0.7,0.5,1.1,1.4,1.1C105.1,289.3,106,288.6,106.2,287.5C106.2,287.6,106.2,287.5,106.2,287.5
			z"/>
		<path class="st1" d="M115.5,285.6l-3.8-6h4.8l1.9,3.2l1.8-3.2h4.3l-3.8,5.6l4.2,6.5H120l-2.2-3.6l-2.2,3.6h-4.3L115.5,285.6z"/>
		<path class="st1" d="M125.7,289.7c0-1.3,1-2.3,2.3-2.3h0.1c1.3-0.1,2.4,0.9,2.5,2.2s-0.9,2.4-2.2,2.5c-0.1,0-0.2,0-0.3,0
			c-1.3,0-2.3-1-2.4-2.2C125.7,289.7,125.7,289.7,125.7,289.7z"/>
	</g>
</g>
<g>
	<path class="st1" d="M21.3,441.5h3.8v0.6h-3v2.3h2.3v0.6h-2.3v2.9h-0.8V441.5z"/>
	<path class="st1" d="M25.4,445.6L25.4,445.6c0-1.5,1-2.5,2.3-2.5c1.3,0,2.3,1,2.3,2.4v0.1c0,1.4-1,2.4-2.3,2.4S25.4,447,25.4,445.6
		z M29.3,445.6L29.3,445.6c0-1.2-0.6-1.9-1.5-1.9c-0.9,0-1.5,0.7-1.5,1.8v0.1c0,1.1,0.6,1.8,1.5,1.8
		C28.7,447.4,29.3,446.7,29.3,445.6z"/>
	<path class="st1" d="M31.1,443.2h0.7v0.8c0.3-0.5,0.7-0.9,1.5-0.9v0.7c-0.9,0-1.5,0.3-1.5,1.5v2.6h-0.7V443.2z"/>
	<path class="st1" d="M36.6,443.2h0.7v0.8c0.3-0.5,0.9-0.9,1.6-0.9c1.2,0,2.1,0.9,2.1,2.4v0.1c0,1.4-0.8,2.4-2.1,2.4
		c-0.8,0-1.3-0.4-1.6-0.9v2.4h-0.7V443.2z M40.3,445.6L40.3,445.6c0-1.3-0.7-1.9-1.4-1.9c-0.9,0-1.5,0.6-1.5,1.8v0.1
		c0,1.2,0.6,1.8,1.5,1.8C39.8,447.4,40.3,446.8,40.3,445.6z"/>
	<path class="st1" d="M41.7,446.7c0-1.1,1.2-1.5,2.4-1.5h0.7v-0.3c0-0.7-0.3-1.1-1-1.1c-0.6,0-1,0.3-1.1,0.8h-0.7
		c0.1-1.1,1-1.5,1.9-1.5c0.9,0,1.7,0.4,1.7,1.7v3.1h-0.7v-0.6c-0.4,0.4-0.8,0.7-1.5,0.7C42.4,448,41.7,447.6,41.7,446.7z
		 M44.7,446.3v-0.6h-0.6c-0.9,0-1.6,0.2-1.6,0.9c0,0.5,0.2,0.8,0.9,0.8C44.1,447.4,44.7,447,44.7,446.3z"/>
	<path class="st1" d="M46.7,441.8c0-0.3,0.2-0.5,0.5-0.5c0.3,0,0.5,0.2,0.5,0.5c0,0.3-0.2,0.5-0.5,0.5
		C46.9,442.3,46.7,442,46.7,441.8z M46.8,443.2h0.7v4.7h-0.7V443.2z"/>
	<path class="st1" d="M48.6,445.7L48.6,445.7c0-1.5,0.9-2.5,2.2-2.5c0.8,0,1.3,0.4,1.5,0.8v-3h0.7v7h-0.7v-0.8
		c-0.3,0.5-0.9,0.9-1.6,0.9C49.5,448,48.6,447.2,48.6,445.7z M52.4,445.6L52.4,445.6c0-1.3-0.6-1.8-1.5-1.8c-0.9,0-1.5,0.7-1.5,1.8
		v0.1c0,1.2,0.6,1.8,1.4,1.8C51.7,447.4,52.4,446.8,52.4,445.6z"/>
	<path class="st1" d="M56.2,443.2H57l1.4,4l1.4-4h0.8l-1.7,4.7h-1L56.2,443.2z"/>
	<path class="st1" d="M60.9,445.7L60.9,445.7c0-1.5,0.9-2.5,2.2-2.5c1.1,0,2.1,0.7,2.1,2.3v0.2h-3.5c0,1.1,0.5,1.7,1.5,1.7
		c0.7,0,1.2-0.3,1.3-0.8h0.7c-0.2,0.9-0.9,1.4-2,1.4C61.8,448,60.9,447.1,60.9,445.7z M64.5,445.1c-0.1-1-0.6-1.4-1.4-1.4
		c-0.8,0-1.3,0.5-1.4,1.4H64.5z"/>
	<path class="st1" d="M66.2,443.2H67v0.8c0.3-0.5,0.7-0.9,1.5-0.9v0.7c-0.9,0-1.5,0.3-1.5,1.5v2.6h-0.7V443.2z"/>
	<path class="st1" d="M69,446.5h0.7c0.1,0.6,0.4,0.9,1.1,0.9c0.7,0,1-0.2,1-0.7c0-0.5-0.4-0.7-1.1-0.8c-1.2-0.2-1.6-0.6-1.6-1.4
		c0-0.9,0.9-1.3,1.6-1.3c0.8,0,1.6,0.3,1.7,1.4h-0.7c-0.1-0.5-0.4-0.7-1-0.7c-0.5,0-0.9,0.3-0.9,0.7c0,0.4,0.2,0.6,1.1,0.7
		c1,0.2,1.7,0.4,1.7,1.4c0,0.9-0.6,1.4-1.7,1.4C69.8,448,69.1,447.5,69,446.5z"/>
	<path class="st1" d="M73.5,441.8c0-0.3,0.2-0.5,0.5-0.5c0.3,0,0.5,0.2,0.5,0.5c0,0.3-0.2,0.5-0.5,0.5
		C73.7,442.3,73.5,442,73.5,441.8z M73.6,443.2h0.7v4.7h-0.7V443.2z"/>
	<path class="st1" d="M75.4,445.6L75.4,445.6c0-1.5,1-2.5,2.3-2.5s2.3,1,2.3,2.4v0.1c0,1.4-1,2.4-2.3,2.4
		C76.4,448,75.4,447,75.4,445.6z M79.3,445.6L79.3,445.6c0-1.2-0.6-1.9-1.5-1.9c-0.9,0-1.5,0.7-1.5,1.8v0.1c0,1.1,0.6,1.8,1.5,1.8
		C78.7,447.4,79.3,446.7,79.3,445.6z"/>
	<path class="st1" d="M81.1,443.2h0.7v0.7c0.2-0.4,0.7-0.8,1.5-0.8c1,0,1.7,0.5,1.7,1.9v2.9h-0.7V445c0-0.8-0.4-1.2-1.1-1.2
		c-0.7,0-1.3,0.4-1.3,1.3v2.9h-0.7V443.2z"/>
	<path class="st1" d="M85.9,446.5h0.7c0.1,0.6,0.4,0.9,1.1,0.9c0.7,0,1-0.2,1-0.7c0-0.5-0.4-0.7-1.1-0.8c-1.2-0.2-1.6-0.6-1.6-1.4
		c0-0.9,0.9-1.3,1.6-1.3c0.8,0,1.6,0.3,1.7,1.4h-0.7c-0.1-0.5-0.4-0.7-1-0.7c-0.5,0-0.9,0.3-0.9,0.7c0,0.4,0.2,0.6,1.1,0.7
		c1,0.2,1.7,0.4,1.7,1.4c0,0.9-0.6,1.4-1.7,1.4C86.7,448,86,447.5,85.9,446.5z"/>
	<path class="st1" d="M90.4,447.4c0-0.3,0.3-0.6,0.6-0.6s0.6,0.3,0.6,0.6S91.3,448,91,448S90.4,447.8,90.4,447.4z"/>
</g>
</svg>
