<svg xmlns="http://www.w3.org/2000/svg" viewBox="0 0 300 250"><title>20_solid</title><g id="Layer_2" data-name="Layer 2"><g id="Rect"><rect width="300" height="250" fill="none"/></g><g id="_20_Solid" data-name="$20_Solid"><path d="M119.38,146.46l16.2-17.17c4.6-4.93,7.65-8.88,7.65-12.77,0-3.11-1.62-5.18-4.93-5.18s-5.38,2-6,7.51h-12c.45-11.6,7.45-17.49,18.66-17.49s17.37,6.09,17.37,14.64c0,6.35-3.57,11.15-8.75,16.14l-6.48,6.29h15.55v9.91H119.38Z" fill="#14aa40" stroke="#14aa40" stroke-miterlimit="10" stroke-width="1.26"/><path d="M158.46,126.18v-2c0-14.64,9.13-22.87,21.38-22.87s21.39,7.58,21.39,22.61v1.82c0,14.71-8.43,23.33-21.65,23.33C166.62,149.12,158.46,140.76,158.46,126.18Zm29.48-.13v-1.88c0-8.49-2.46-12.77-8.1-12.77s-8.1,4.21-8.1,12.77v1.94c0,8.62,2.53,12.7,8.23,12.7S187.94,134.6,187.94,126.05Z" fill="#14aa40" stroke="#14aa40" stroke-miterlimit="10" stroke-width="1.26"/><path d="M110.23,114.91l-2.14-.36c-4.77-.68-6.8-2.41-6.8-6.22,0-3.32,2.61-5.71,6.8-6V99.88h2.14v2.47c4,.33,6.34,2.17,6.67,5.92h-5a2.17,2.17,0,0,0-1.7-2m0,0a5.17,5.17,0,0,0-2.14-.06c-1.22.22-1.86.88-1.86,1.76s.38,1.45,1.86,1.75l2.14.33c4.2.6,6.94,2,6.94,6,0,3.34-2.17,6.14-6.94,6.44v3.43h-2.14v-3.43c-4.74-.33-7-2.85-7.24-6.47h5.08a2.61,2.61,0,0,0,2.16,2.58,8.7,8.7,0,0,0,2.14,0,2,2,0,0,0,1.84-2c0-.91-.38-1.37-1.84-1.7" fill="#14aa40" stroke="#14aa40" stroke-miterlimit="10" stroke-width="1.26"/></g></g></svg>