<svg xmlns="http://www.w3.org/2000/svg" viewBox="0 0 300 250"><title>grid</title><g id="Layer_2" data-name="Layer 2"><g id="Rect"><rect width="300" height="250" fill="none"/></g><g id="Grid_Outer"><g id="Grid_Inner"><path id="_20" data-name="$20" d="M190.64,163.21l-2.07-.35c-4.63-.66-6.6-2.34-6.6-6,0-3.22,2.53-5.53,6.6-5.82v-2.37h2.07V151c3.85.32,6.14,2.1,6.46,5.75h-4.81a2.13,2.13,0,0,0-1.65-2m0,0a5,5,0,0,0-2.07-.05c-1.2.21-1.81.85-1.81,1.7s.37,1.41,1.81,1.7l2.07.32c4.07.59,6.72,2,6.72,5.82,0,3.24-2.1,6-6.72,6.25v3.32h-2.07v-3.32c-4.6-.32-6.84-2.77-7-6.27h4.92a2.5,2.5,0,0,0,2.1,2.49,8.13,8.13,0,0,0,2.07,0,1.93,1.93,0,0,0,1.78-1.88c0-.88-.37-1.33-1.78-1.65" fill="#14aa40" stroke="#14aa40" stroke-miterlimit="10" stroke-width="0.84"/><path id="_19" data-name="$19" d="M171.51,163.21l-2.07-.35c-4.62-.66-6.59-2.34-6.59-6,0-3.22,2.52-5.53,6.59-5.82v-2.37h2.07V151c3.86.32,6.15,2.1,6.46,5.75h-4.81a2.13,2.13,0,0,0-1.65-2m0,0a5,5,0,0,0-2.07-.05c-1.19.21-1.81.85-1.81,1.7s.38,1.41,1.81,1.7l2.07.32c4.07.59,6.73,2,6.73,5.82,0,3.24-2.1,6-6.73,6.25v3.32h-2.07v-3.32c-4.6-.32-6.83-2.77-7-6.27h4.92a2.51,2.51,0,0,0,2.1,2.49,8.13,8.13,0,0,0,2.07,0,1.94,1.94,0,0,0,1.79-1.88c0-.88-.38-1.33-1.79-1.65" fill="#14aa40" stroke="#14aa40" stroke-miterlimit="10" stroke-width="0.84"/><path id="_18" data-name="$18" d="M152.39,163.21l-2.07-.35c-4.63-.66-6.59-2.34-6.59-6,0-3.22,2.52-5.53,6.59-5.82v-2.37h2.07V151c3.86.32,6.14,2.1,6.46,5.75H154a2.13,2.13,0,0,0-1.65-2m0,0a5,5,0,0,0-2.07-.05c-1.19.21-1.81.85-1.81,1.7s.37,1.41,1.81,1.7l2.07.32c4.07.59,6.73,2,6.73,5.82,0,3.24-2.1,6-6.73,6.25v3.32h-2.07v-3.32c-4.6-.32-6.83-2.77-7-6.27h4.92a2.51,2.51,0,0,0,2.1,2.49,8.13,8.13,0,0,0,2.07,0,1.93,1.93,0,0,0,1.78-1.88c0-.88-.37-1.33-1.78-1.65" fill="#14aa40" stroke="#14aa40" stroke-miterlimit="10" stroke-width="0.84"/><path id="_17" data-name="$17" d="M133.27,163.21l-2.08-.35c-4.62-.66-6.59-2.34-6.59-6,0-3.22,2.53-5.53,6.59-5.82v-2.37h2.08V151c3.85.32,6.14,2.1,6.46,5.75h-4.81a2.13,2.13,0,0,0-1.65-2m0,0a5,5,0,0,0-2.08-.05c-1.19.21-1.8.85-1.8,1.7s.37,1.41,1.8,1.7l2.08.32c4.06.59,6.72,2,6.72,5.82,0,3.24-2.1,6-6.72,6.25v3.32h-2.08v-3.32c-4.6-.32-6.83-2.77-7-6.27h4.91a2.52,2.52,0,0,0,2.1,2.49,8.22,8.22,0,0,0,2.08,0,1.93,1.93,0,0,0,1.78-1.88c0-.88-.37-1.33-1.78-1.65" fill="#14aa40" stroke="#14aa40" stroke-miterlimit="10" stroke-width="0.84"/><path id="_16" data-name="$16" d="M114.14,163.21l-2.07-.35c-4.63-.66-6.59-2.34-6.59-6,0-3.22,2.52-5.53,6.59-5.82v-2.37h2.07V151c3.86.32,6.14,2.1,6.46,5.75h-4.81a2.13,2.13,0,0,0-1.65-2m0,0a5,5,0,0,0-2.07-.05c-1.19.21-1.81.85-1.81,1.7s.37,1.41,1.81,1.7l2.07.32c4.07.59,6.73,2,6.73,5.82,0,3.24-2.1,6-6.73,6.25v3.32h-2.07v-3.32c-4.6-.32-6.83-2.77-7-6.27H110a2.51,2.51,0,0,0,2.1,2.49,8.13,8.13,0,0,0,2.07,0,1.93,1.93,0,0,0,1.78-1.88c0-.88-.37-1.33-1.78-1.65" fill="#14aa40" stroke="#14aa40" stroke-miterlimit="10" stroke-width="0.84"/><path id="_15" data-name="$15" d="M190.64,138l-2.07-.35c-4.63-.66-6.6-2.34-6.6-6,0-3.22,2.53-5.53,6.6-5.82v-2.37h2.07v2.39c3.85.32,6.14,2.1,6.46,5.75h-4.81a2.13,2.13,0,0,0-1.65-2m0,0a5,5,0,0,0-2.07-.05c-1.2.21-1.81.85-1.81,1.7s.37,1.41,1.81,1.7l2.07.32c4.07.59,6.72,2,6.72,5.82,0,3.24-2.1,6-6.72,6.25v3.32h-2.07v-3.32c-4.6-.32-6.84-2.77-7-6.27h4.92a2.5,2.5,0,0,0,2.1,2.49,8.13,8.13,0,0,0,2.07,0,1.93,1.93,0,0,0,1.78-1.88c0-.88-.37-1.33-1.78-1.65" fill="#14aa40" stroke="#14aa40" stroke-miterlimit="10" stroke-width="0.84"/><path id="_14" data-name="$14" d="M171.51,138l-2.07-.35c-4.62-.66-6.59-2.34-6.59-6,0-3.22,2.52-5.53,6.59-5.82v-2.37h2.07v2.39c3.86.32,6.15,2.1,6.46,5.75h-4.81a2.13,2.13,0,0,0-1.65-2m0,0a5,5,0,0,0-2.07-.05c-1.19.21-1.81.85-1.81,1.7s.38,1.41,1.81,1.7l2.07.32c4.07.59,6.73,2,6.73,5.82,0,3.24-2.1,6-6.73,6.25v3.32h-2.07v-3.32c-4.6-.32-6.83-2.77-7-6.27h4.92a2.51,2.51,0,0,0,2.1,2.49,8.13,8.13,0,0,0,2.07,0,1.94,1.94,0,0,0,1.79-1.88c0-.88-.38-1.33-1.79-1.65" fill="#14aa40" stroke="#14aa40" stroke-miterlimit="10" stroke-width="0.84"/><path id="_13" data-name="$13" d="M152.39,138l-2.07-.35c-4.63-.66-6.59-2.34-6.59-6,0-3.22,2.52-5.53,6.59-5.82v-2.37h2.07v2.39c3.86.32,6.14,2.1,6.46,5.75H154a2.13,2.13,0,0,0-1.65-2m0,0a5,5,0,0,0-2.07-.05c-1.19.21-1.81.85-1.81,1.7s.37,1.41,1.81,1.7l2.07.32c4.07.59,6.73,2,6.73,5.82,0,3.24-2.1,6-6.73,6.25v3.32h-2.07v-3.32c-4.6-.32-6.83-2.77-7-6.27h4.92a2.51,2.51,0,0,0,2.1,2.49,8.13,8.13,0,0,0,2.07,0,1.93,1.93,0,0,0,1.78-1.88c0-.88-.37-1.33-1.78-1.65" fill="#14aa40" stroke="#14aa40" stroke-miterlimit="10" stroke-width="0.84"/><path id="_12" data-name="$12" d="M133.27,138l-2.08-.35c-4.62-.66-6.59-2.34-6.59-6,0-3.22,2.53-5.53,6.59-5.82v-2.37h2.08v2.39c3.85.32,6.14,2.1,6.46,5.75h-4.81a2.13,2.13,0,0,0-1.65-2m0,0a5,5,0,0,0-2.08-.05c-1.19.21-1.8.85-1.8,1.7s.37,1.41,1.8,1.7l2.08.32c4.06.59,6.72,2,6.72,5.82,0,3.24-2.1,6-6.72,6.25v3.32h-2.08v-3.32c-4.6-.32-6.83-2.77-7-6.27h4.91a2.52,2.52,0,0,0,2.1,2.49,8.22,8.22,0,0,0,2.08,0,1.93,1.93,0,0,0,1.78-1.88c0-.88-.37-1.33-1.78-1.65" fill="#14aa40" stroke="#14aa40" stroke-miterlimit="10" stroke-width="0.84"/><path id="_11" data-name="$11" d="M114.14,138l-2.07-.35c-4.63-.66-6.59-2.34-6.59-6,0-3.22,2.52-5.53,6.59-5.82v-2.37h2.07v2.39c3.86.32,6.14,2.1,6.46,5.75h-4.81a2.13,2.13,0,0,0-1.65-2m0,0a5,5,0,0,0-2.07-.05c-1.19.21-1.81.85-1.81,1.7s.37,1.41,1.81,1.7l2.07.32c4.07.59,6.73,2,6.73,5.82,0,3.24-2.1,6-6.73,6.25v3.32h-2.07v-3.32c-4.6-.32-6.83-2.77-7-6.27H110a2.51,2.51,0,0,0,2.1,2.49,8.13,8.13,0,0,0,2.07,0,1.93,1.93,0,0,0,1.78-1.88c0-.88-.37-1.33-1.78-1.65" fill="#14aa40" stroke="#14aa40" stroke-miterlimit="10" stroke-width="0.84"/><path id="_10" data-name="$10" d="M190.64,112.81l-2.07-.35c-4.63-.66-6.6-2.34-6.6-6,0-3.22,2.53-5.53,6.6-5.82V98.24h2.07v2.39c3.85.32,6.14,2.1,6.46,5.75h-4.81a2.13,2.13,0,0,0-1.65-2m0,0a5,5,0,0,0-2.07,0c-1.2.21-1.81.85-1.81,1.7s.37,1.41,1.81,1.7l2.07.32c4.07.59,6.72,2,6.72,5.82,0,3.24-2.1,6-6.72,6.25v3.32h-2.07v-3.32c-4.6-.32-6.84-2.77-7-6.27h4.92a2.5,2.5,0,0,0,2.1,2.49,8.13,8.13,0,0,0,2.07,0,1.93,1.93,0,0,0,1.78-1.88c0-.88-.37-1.33-1.78-1.65" fill="#14aa40" stroke="#14aa40" stroke-miterlimit="10" stroke-width="0.84"/><path id="_9" data-name="$9" d="M171.51,112.81l-2.07-.35c-4.62-.66-6.59-2.34-6.59-6,0-3.22,2.52-5.53,6.59-5.82V98.24h2.07v2.39c3.86.32,6.15,2.1,6.46,5.75h-4.81a2.13,2.13,0,0,0-1.65-2m0,0a5,5,0,0,0-2.07,0c-1.19.21-1.81.85-1.81,1.7s.38,1.41,1.81,1.7l2.07.32c4.07.59,6.73,2,6.73,5.82,0,3.24-2.1,6-6.73,6.25v3.32h-2.07v-3.32c-4.6-.32-6.83-2.77-7-6.27h4.92a2.51,2.51,0,0,0,2.1,2.49,8.13,8.13,0,0,0,2.07,0,1.94,1.94,0,0,0,1.79-1.88c0-.88-.38-1.33-1.79-1.65" fill="#14aa40" stroke="#14aa40" stroke-miterlimit="10" stroke-width="0.84"/><path id="_8" data-name="$8" d="M152.39,112.81l-2.07-.35c-4.63-.66-6.59-2.34-6.59-6,0-3.22,2.52-5.53,6.59-5.82V98.24h2.07v2.39c3.86.32,6.14,2.1,6.46,5.75H154a2.13,2.13,0,0,0-1.65-2m0,0a5,5,0,0,0-2.07,0c-1.19.21-1.81.85-1.81,1.7s.37,1.41,1.81,1.7l2.07.32c4.07.59,6.73,2,6.73,5.82,0,3.24-2.1,6-6.73,6.25v3.32h-2.07v-3.32c-4.6-.32-6.83-2.77-7-6.27h4.92a2.51,2.51,0,0,0,2.1,2.49,8.13,8.13,0,0,0,2.07,0,1.93,1.93,0,0,0,1.78-1.88c0-.88-.37-1.33-1.78-1.65" fill="#14aa40" stroke="#14aa40" stroke-miterlimit="10" stroke-width="0.84"/><path id="_7" data-name="$7" d="M133.27,112.81l-2.08-.35c-4.62-.66-6.59-2.34-6.59-6,0-3.22,2.53-5.53,6.59-5.82V98.24h2.08v2.39c3.85.32,6.14,2.1,6.46,5.75h-4.81a2.13,2.13,0,0,0-1.65-2m0,0a5,5,0,0,0-2.08,0c-1.19.21-1.8.85-1.8,1.7s.37,1.41,1.8,1.7l2.08.32c4.06.59,6.72,2,6.72,5.82,0,3.24-2.1,6-6.72,6.25v3.32h-2.08v-3.32c-4.6-.32-6.83-2.77-7-6.27h4.91a2.52,2.52,0,0,0,2.1,2.49,8.22,8.22,0,0,0,2.08,0,1.93,1.93,0,0,0,1.78-1.88c0-.88-.37-1.33-1.78-1.65" fill="#14aa40" stroke="#14aa40" stroke-miterlimit="10" stroke-width="0.84"/><path id="_6" data-name="$6" d="M114.14,112.81l-2.07-.35c-4.63-.66-6.59-2.34-6.59-6,0-3.22,2.52-5.53,6.59-5.82V98.24h2.07v2.39c3.86.32,6.14,2.1,6.46,5.75h-4.81a2.13,2.13,0,0,0-1.65-2m0,0a5,5,0,0,0-2.07,0c-1.19.21-1.81.85-1.81,1.7s.37,1.41,1.81,1.7l2.07.32c4.07.59,6.73,2,6.73,5.82,0,3.24-2.1,6-6.73,6.25v3.32h-2.07v-3.32c-4.6-.32-6.83-2.77-7-6.27H110a2.51,2.51,0,0,0,2.1,2.49,8.13,8.13,0,0,0,2.07,0,1.93,1.93,0,0,0,1.78-1.88c0-.88-.37-1.33-1.78-1.65" fill="#14aa40" stroke="#14aa40" stroke-miterlimit="10" stroke-width="0.84"/><path id="_5" data-name="$5" d="M190.64,87.61l-2.07-.35c-4.63-.66-6.6-2.34-6.6-6,0-3.22,2.53-5.53,6.6-5.82V73h2.07v2.39c3.85.32,6.14,2.1,6.46,5.75h-4.81a2.13,2.13,0,0,0-1.65-2m0,0a5,5,0,0,0-2.07-.05c-1.2.21-1.81.85-1.81,1.7s.37,1.41,1.81,1.7l2.07.32c4.07.59,6.72,2,6.72,5.82,0,3.24-2.1,6-6.72,6.25v3.32h-2.07V94.92c-4.6-.32-6.84-2.77-7-6.27h4.92a2.5,2.5,0,0,0,2.1,2.49,8.13,8.13,0,0,0,2.07,0,1.93,1.93,0,0,0,1.78-1.88c0-.88-.37-1.33-1.78-1.65" fill="#14aa40" stroke="#14aa40" stroke-miterlimit="10" stroke-width="0.84"/><path id="_4" data-name="$4" d="M171.51,87.61l-2.07-.35c-4.62-.66-6.59-2.34-6.59-6,0-3.22,2.52-5.53,6.59-5.82V73h2.07v2.39c3.86.32,6.15,2.1,6.46,5.75h-4.81a2.13,2.13,0,0,0-1.65-2m0,0a5,5,0,0,0-2.07-.05c-1.19.21-1.81.85-1.81,1.7s.38,1.41,1.81,1.7l2.07.32c4.07.59,6.73,2,6.73,5.82,0,3.24-2.1,6-6.73,6.25v3.32h-2.07V94.92c-4.6-.32-6.83-2.77-7-6.27h4.92a2.51,2.51,0,0,0,2.1,2.49,8.13,8.13,0,0,0,2.07,0,1.94,1.94,0,0,0,1.79-1.88c0-.88-.38-1.33-1.79-1.65" fill="#14aa40" stroke="#14aa40" stroke-miterlimit="10" stroke-width="0.84"/><path id="_3" data-name="$3" d="M152.39,87.61l-2.07-.35c-4.63-.66-6.59-2.34-6.59-6,0-3.22,2.52-5.53,6.59-5.82V73h2.07v2.39c3.86.32,6.14,2.1,6.46,5.75H154a2.13,2.13,0,0,0-1.65-2m0,0a5,5,0,0,0-2.07-.05c-1.19.21-1.81.85-1.81,1.7s.37,1.41,1.81,1.7l2.07.32c4.07.59,6.73,2,6.73,5.82,0,3.24-2.1,6-6.73,6.25v3.32h-2.07V94.92c-4.6-.32-6.83-2.77-7-6.27h4.92a2.51,2.51,0,0,0,2.1,2.49,8.13,8.13,0,0,0,2.07,0,1.93,1.93,0,0,0,1.78-1.88c0-.88-.37-1.33-1.78-1.65" fill="#14aa40" stroke="#14aa40" stroke-miterlimit="10" stroke-width="0.84"/><path id="_2" data-name="$2" d="M133.27,87.61l-2.08-.35c-4.62-.66-6.59-2.34-6.59-6,0-3.22,2.53-5.53,6.59-5.82V73h2.08v2.39c3.85.32,6.14,2.1,6.46,5.75h-4.81a2.13,2.13,0,0,0-1.65-2m0,0a5,5,0,0,0-2.08-.05c-1.19.21-1.8.85-1.8,1.7s.37,1.41,1.8,1.7l2.08.32c4.06.59,6.72,2,6.72,5.82,0,3.24-2.1,6-6.72,6.25v3.32h-2.08V94.92c-4.6-.32-6.83-2.77-7-6.27h4.91a2.52,2.52,0,0,0,2.1,2.49,8.22,8.22,0,0,0,2.08,0,1.93,1.93,0,0,0,1.78-1.88c0-.88-.37-1.33-1.78-1.65" fill="#14aa40" stroke="#14aa40" stroke-miterlimit="10" stroke-width="0.84"/><path id="_1" data-name="$1" d="M114.14,87.61l-2.07-.35c-4.63-.66-6.59-2.34-6.59-6,0-3.22,2.52-5.53,6.59-5.82V73h2.07v2.39c3.86.32,6.14,2.1,6.46,5.75h-4.81a2.13,2.13,0,0,0-1.65-2m0,0a5,5,0,0,0-2.07-.05c-1.19.21-1.81.85-1.81,1.7s.37,1.41,1.81,1.7l2.07.32c4.07.59,6.73,2,6.73,5.82,0,3.24-2.1,6-6.73,6.25v3.32h-2.07V94.92c-4.6-.32-6.83-2.77-7-6.27H110a2.51,2.51,0,0,0,2.1,2.49,8.13,8.13,0,0,0,2.07,0,1.93,1.93,0,0,0,1.78-1.88c0-.88-.37-1.33-1.78-1.65" fill="#14aa40" stroke="#14aa40" stroke-miterlimit="10" stroke-width="0.84"/></g></g></g></svg>