<svg xmlns="http://www.w3.org/2000/svg" viewBox="0 0 300 250"><title>legal</title><g id="Layer_2" data-name="Layer 2"><g id="Rect"><rect width="300" height="250" fill="none"/></g><g id="For_paid_versions." data-name="For paid versions."><path d="M209,233.52h3.76v.64h-3v2.28h2.32v.64H209.8V240H209Z" fill="#14aa40"/><path d="M213.12,237.64v-.07a2.32,2.32,0,1,1,4.63,0v.07a2.32,2.32,0,1,1-4.63,0Zm3.86,0v-.06c0-1.09-.61-1.79-1.54-1.79s-1.54.7-1.54,1.78v.07c0,1.07.58,1.78,1.54,1.78A1.57,1.57,0,0,0,217,237.64Z" fill="#14aa40"/><path d="M218.77,235.25h.75v.84a1.63,1.63,0,0,1,1.55-.92v.7c-.95,0-1.55.34-1.55,1.5V240h-.75Z" fill="#14aa40"/><path d="M224.27,235.25H225V236a1.93,1.93,0,0,1,1.59-.87,2.14,2.14,0,0,1,2.15,2.37v.07a2.18,2.18,0,0,1-2.15,2.43,1.78,1.78,0,0,1-1.59-.86v2.42h-.75Zm3.71,2.39v-.07c0-1.19-.65-1.78-1.45-1.78s-1.54.58-1.54,1.78v.07c0,1.21.63,1.78,1.55,1.78S228,238.79,228,237.64Z" fill="#14aa40"/><path d="M229.39,238.65c0-1.09,1.16-1.46,2.36-1.46h.68v-.34c0-.75-.29-1.06-1-1.06s-1,.27-1.08.84h-.75a1.65,1.65,0,0,1,1.87-1.46,1.51,1.51,0,0,1,1.71,1.68V240h-.74v-.6A1.71,1.71,0,0,1,231,240C230.09,240,229.39,239.62,229.39,238.65Zm3-.34v-.59h-.65c-.95,0-1.64.24-1.64.93,0,.49.24.79.89.79S232.43,239,232.43,238.31Z" fill="#14aa40"/><path d="M234.39,233.77a.49.49,0,0,1,.49-.49.5.5,0,0,1,.5.49.51.51,0,0,1-.5.5A.5.5,0,0,1,234.39,233.77Zm.13,1.48h.75V240h-.75Z" fill="#14aa40"/><path d="M236.31,237.7v-.08a2.23,2.23,0,0,1,2.2-2.45,1.7,1.7,0,0,1,1.54.83v-3h.75v7h-.75v-.81a2,2,0,0,1-1.61.89A2.11,2.11,0,0,1,236.31,237.7Zm3.77-.07v-.07c0-1.2-.58-1.77-1.5-1.77s-1.49.66-1.49,1.8v.07c0,1.19.64,1.76,1.43,1.76S240.08,238.84,240.08,237.63Z" fill="#14aa40"/><path d="M243.89,235.25h.81l1.4,3.95,1.38-3.95h.77L246.56,240h-1Z" fill="#14aa40"/><path d="M248.61,237.65v-.07a2.21,2.21,0,0,1,2.2-2.41,2.06,2.06,0,0,1,2.12,2.34v.24h-3.55c0,1.07.55,1.67,1.52,1.67.72,0,1.15-.27,1.25-.82h.74a1.81,1.81,0,0,1-2,1.44A2.21,2.21,0,0,1,248.61,237.65Zm3.56-.5c-.08-1-.58-1.36-1.36-1.36a1.41,1.41,0,0,0-1.4,1.36Z" fill="#14aa40"/><path d="M253.94,235.25h.74v.84a1.64,1.64,0,0,1,1.55-.92v.7c-.94,0-1.55.34-1.55,1.5V240h-.74Z" fill="#14aa40"/><path d="M256.75,238.51h.73c.06.56.35.91,1.11.91s1-.25,1-.75-.37-.66-1.1-.79c-1.23-.23-1.64-.57-1.64-1.39a1.47,1.47,0,0,1,1.59-1.32,1.5,1.5,0,0,1,1.7,1.36h-.72c-.1-.52-.39-.74-1-.74s-.89.27-.89.67.24.6,1.1.75,1.66.4,1.66,1.4c0,.85-.59,1.43-1.73,1.43S256.8,239.47,256.75,238.51Z" fill="#14aa40"/><path d="M261.21,233.77a.49.49,0,0,1,.49-.49.5.5,0,0,1,.5.49.51.51,0,0,1-.5.5A.5.5,0,0,1,261.21,233.77Zm.13,1.48h.75V240h-.75Z" fill="#14aa40"/><path d="M263.13,237.64v-.07a2.32,2.32,0,1,1,4.63,0v.07a2.32,2.32,0,1,1-4.63,0Zm3.86,0v-.06c0-1.09-.61-1.79-1.54-1.79s-1.54.7-1.54,1.78v.07c0,1.07.58,1.78,1.54,1.78A1.57,1.57,0,0,0,267,237.64Z" fill="#14aa40"/><path d="M268.79,235.25h.74V236a1.61,1.61,0,0,1,1.52-.83c1,0,1.65.53,1.65,1.9V240H272v-3c0-.83-.36-1.19-1.11-1.19a1.24,1.24,0,0,0-1.32,1.28V240h-.74Z" fill="#14aa40"/><path d="M273.65,238.51h.73c.05.56.35.91,1.1.91s1-.25,1-.75-.37-.66-1.1-.79c-1.22-.23-1.64-.57-1.64-1.39a1.47,1.47,0,0,1,1.6-1.32,1.51,1.51,0,0,1,1.7,1.36h-.72c-.11-.52-.4-.74-1-.74s-.89.27-.89.67.23.6,1.09.75,1.66.4,1.66,1.4c0,.85-.59,1.43-1.73,1.43S273.69,239.47,273.65,238.51Z" fill="#14aa40"/><path d="M278.16,239.43a.58.58,0,1,1,.57.57A.57.57,0,0,1,278.16,239.43Z" fill="#14aa40"/></g></g></svg>