<?xml version="1.0" encoding="utf-8"?>
<!-- Generator: Adobe Illustrator 23.1.1, SVG Export Plug-In . SVG Version: 6.00 Build 0)  -->
<svg version="1.1" id="Layer_1" xmlns="http://www.w3.org/2000/svg" xmlns:xlink="http://www.w3.org/1999/xlink" x="0px" y="0px"
	 viewBox="0 0 300 250" style="enable-background:new 0 0 300 250;" xml:space="preserve">
<style type="text/css">
	.st0{fill:none;}
	.st1{fill:#FFFFFF;stroke:#14AA40;stroke-miterlimit:10;}
</style>
<g id="Rect">
	<rect class="st0" width="300" height="250"/>
</g>
<g>
	<path class="st1" d="M66.4,104.8c-3.6-0.2-5.3-2.1-5.4-4.9h3.8c0.1,0.9,0.5,1.7,1.6,1.9v-3c-3.6-0.5-5.1-1.8-5.1-4.7
		c0-2.5,2-4.3,5.1-4.5v-1.8H68v1.9c3,0.2,4.8,1.6,5,4.5h-3.7c-0.1-0.8-0.4-1.3-1.3-1.5v2.8c3.2,0.5,5.2,1.5,5.2,4.5
		c0,2.5-1.6,4.6-5.2,4.8v2.6h-1.6V104.8z M66.4,95.1v-2.6c-0.9,0.2-1.4,0.7-1.4,1.3C65,94.5,65.3,94.9,66.4,95.1z M68,99.1v2.7
		c0.9-0.2,1.4-0.7,1.4-1.5C69.4,99.7,69.1,99.3,68,99.1z"/>
	<path class="st1" d="M81.9,98.2l-4.8,3v-6l5.8-4.1h6.3v25.3h-7.2V98.2z"/>
	<path class="st1" d="M92.6,104.2v-1.1c0-8,5-12.5,11.7-12.5c6.6,0,11.7,4.1,11.7,12.3v1c0,8-4.6,12.7-11.8,12.7
		C97,116.7,92.6,112.2,92.6,104.2z M108.7,104.2v-1c0-4.6-1.3-7-4.4-7c-3,0-4.4,2.3-4.4,7v1.1c0,4.7,1.4,6.9,4.5,6.9
		S108.7,108.8,108.7,104.2z"/>
</g>
</svg>
