<?xml version="1.0" encoding="utf-8"?>
<!-- Generator: Adobe Illustrator 23.1.1, SVG Export Plug-In . SVG Version: 6.00 Build 0)  -->
<svg version="1.1" id="Layer_1" xmlns="http://www.w3.org/2000/svg" xmlns:xlink="http://www.w3.org/1999/xlink" x="0px" y="0px"
	 viewBox="0 0 300 250" style="enable-background:new 0 0 300 250;" xml:space="preserve">
<style type="text/css">
	.st0{fill:none;}
	.st1{fill:#14AA40;}
</style>
<g id="Rect">
	<rect class="st0" width="300" height="250"/>
</g>
<g>
	<path class="st1" d="M21.8,16.3h7.3V26h8.3v-9.7h7.2v25.3h-7.2v-10h-8.3v10h-7.3V16.3z"/>
	<path class="st1" d="M68.9,36.5l4.2,5.2h-8.2l-1.5-1.8c-1.6,1.3-3.5,2.3-6.8,2.3c-5.4,0-8.9-2.8-8.9-7.6c0-3.3,2-5.7,5.5-7.4
		c-1.1-1.6-1.6-3.2-1.6-4.4c0-4.3,3.7-6.6,8.1-6.6c4,0,7.7,2,7.7,5.9c0,2.8-1.6,4.8-5.1,6.3l3.2,3.9l1.8-3.6h5.5L68.9,36.5z
		 M60.1,35.7l-4-4.8c-1,0.6-1.7,1.3-1.7,2.7c0,1.8,1.1,3.1,3.2,3.1C58.6,36.8,59.4,36.4,60.1,35.7z M59.3,25.5
		c1.7-0.8,2.5-1.8,2.5-3.1c0-1.1-0.7-1.9-1.9-1.9c-1.2,0-2.1,0.8-2.1,2.2C57.9,23.6,58.4,24.5,59.3,25.5z"/>
	<path class="st1" d="M75.4,16.3h9.9c6.6,0,10.3,2.7,10.3,8v0.1c0,3.6-1.9,5.6-4.6,6.6l6,10.5h-7.6l-5.1-9.1h-1.7v9.1h-7.2V16.3z
		 M84.9,27.9c2.4,0,3.6-1,3.6-3.1v-0.1c0-2.1-1.3-2.9-3.6-2.9h-2.4v6.1H84.9z"/>
	<path class="st1" d="M105.9,16.3h11.3c6,0,8.5,2.7,8.5,6.6v0.1c0,2.8-1.5,4.7-4.3,5.4c3.1,0.5,5.1,2.4,5.1,5.9v0.1
		c0,4.5-2.9,7-9.2,7h-11.4V16.3z M115.7,26.4c2.3,0,3.1-0.8,3.1-2.6v-0.1c0-1.7-0.9-2.5-3.1-2.5H113v5.2H115.7z M116,36.8
		c2.3,0,3.4-1.1,3.4-2.9v-0.1c0-1.9-1-2.9-3.6-2.9H113v6H116z"/>
	<path class="st1" d="M129,15h6.3v26.6H129V15z"/>
	<path class="st1" d="M137.7,32.6v-0.3c0-5.9,4.4-9.7,10.1-9.7c5.7,0,10.1,3.6,10.1,9.5v0.3c0,6-4.4,9.6-10.1,9.6
		S137.7,38.6,137.7,32.6z M151.5,32.5v-0.3c0-3.1-1.2-4.8-3.6-4.8c-2.4,0-3.7,1.7-3.7,4.8v0.3c0,3.2,1.2,4.9,3.7,4.9
		C150.2,37.3,151.5,35.6,151.5,32.5z"/>
	<path class="st1" d="M159.1,32.6v-0.3c0-6.2,4.4-9.7,9.9-9.7c4.5,0,8.7,2,9.1,7.6h-5.9c-0.3-1.7-1.1-2.7-3-2.7
		c-2.2,0-3.5,1.6-3.5,4.7v0.3c0,3.2,1.2,4.9,3.6,4.9c1.8,0,3-1.1,3.2-3.1h5.7c-0.2,4.7-3.3,7.7-9.3,7.7
		C163.3,42,159.1,38.8,159.1,32.6z"/>
	<path class="st1" d="M180.2,15h6.3v15.5l5-7.3h6.6l-6,8.3l6.5,10.2h-7.1l-5-8.1v8.1h-6.3V15z"/>
	<path class="st1" d="M20.4,66.5v-0.3c0-7.7,5.8-12.9,13.4-12.9c7.7,0,13.4,4.8,13.4,12.7v0.3c0,7.8-5.3,13.1-13.5,13.1
		C25.5,79.4,20.4,74.1,20.4,66.5z M39.6,66.4v-0.3c0-4.5-2.3-7.1-5.8-7.1c-3.6,0-5.8,2.6-5.8,7.2v0.3c0,4.6,2.3,7.2,5.8,7.2
		C37.4,73.7,39.6,70.9,39.6,66.4z"/>
	<path class="st1" d="M49.6,60.5H56v3c1-1.9,3-3.5,6.1-3.5c3.6,0,6,2.2,6,7v12h-6.3V68.2c0-2.1-0.8-3.1-2.7-3.1
		c-1.9,0-3.1,1.1-3.1,3.5V79h-6.3V60.5z"/>
	<path class="st1" d="M71.3,52.3h6.3V79h-6.3V52.3z"/>
	<path class="st1" d="M80.9,55.5c0-1.9,1.5-3.3,3.5-3.3c2,0,3.5,1.4,3.5,3.3c0,1.9-1.5,3.3-3.5,3.3C82.4,58.7,80.9,57.3,80.9,55.5z
		 M81.2,60.5h6.3V79h-6.3V60.5z"/>
	<path class="st1" d="M90.9,60.5h6.3v3c1-1.9,3-3.5,6.1-3.5c3.6,0,6,2.2,6,7v12H103V68.2c0-2.1-0.8-3.1-2.7-3.1
		c-1.9,0-3.1,1.1-3.1,3.5V79h-6.3V60.5z"/>
	<path class="st1" d="M111.5,70v-0.3c0-5.9,4.4-9.7,10-9.7c5.1,0,9.4,2.9,9.4,9.5v1.7h-13c0.2,2.4,1.6,3.9,3.9,3.9
		c2.1,0,3-1,3.2-2.2h5.9c-0.6,4.2-3.8,6.5-9.4,6.5C115.7,79.4,111.5,76,111.5,70z M124.7,67.6c-0.1-2.2-1.2-3.5-3.3-3.5
		c-1.9,0-3.2,1.2-3.5,3.5H124.7z"/>
	<path class="st1" d="M138.5,70v-0.3c0-6.2,4.4-9.7,9.9-9.7c4.5,0,8.7,2,9.1,7.6h-5.9c-0.3-1.7-1.1-2.7-3-2.7
		c-2.2,0-3.5,1.6-3.5,4.7v0.3c0,3.2,1.2,4.9,3.6,4.9c1.8,0,3-1.1,3.2-3.1h5.7c-0.2,4.7-3.3,7.7-9.3,7.7
		C142.7,79.4,138.5,76.2,138.5,70z"/>
	<path class="st1" d="M158.6,70v-0.3c0-5.9,4.4-9.7,10.1-9.7c5.7,0,10.1,3.6,10.1,9.5v0.3c0,6-4.4,9.6-10.1,9.6S158.6,75.9,158.6,70
		z M172.4,69.8v-0.3c0-3.1-1.2-4.8-3.6-4.8c-2.4,0-3.7,1.7-3.7,4.8v0.3c0,3.2,1.2,4.9,3.7,4.9C171.1,74.7,172.4,72.9,172.4,69.8z"/>
	<path class="st1" d="M179.9,73.1h5.8c0.2,1.3,0.8,2.1,2.6,2.1c1.6,0,2.3-0.6,2.3-1.5c0-0.9-0.9-1.3-3.4-1.7c-4.9-0.6-7-2.1-7-5.9
		c0-4.1,3.6-6.1,7.9-6.1c4.6,0,7.7,1.6,8.2,6h-5.7c-0.2-1.2-0.9-1.8-2.4-1.8c-1.4,0-2.1,0.6-2.1,1.4c0,0.9,0.8,1.2,3.1,1.5
		c5.1,0.6,7.6,2,7.6,5.9c0,4.4-3.3,6.4-8.4,6.4C183.1,79.4,180,77.2,179.9,73.1z"/>
	<path class="st1" d="M199.7,73v-8.2h-2.2v-4.3h2.2v-3.9h6.3v3.9h3.6v4.3H206v7.6c0,1.3,0.7,1.9,1.9,1.9c0.7,0,1.2-0.1,1.8-0.3v4.8
		c-0.8,0.2-2,0.5-3.5,0.5C202,79.4,199.7,77.4,199.7,73z"/>
	<path class="st1" d="M211,73.1h5.8c0.2,1.3,0.8,2.1,2.6,2.1c1.6,0,2.3-0.6,2.3-1.5c0-0.9-0.9-1.3-3.4-1.7c-4.9-0.6-7-2.1-7-5.9
		c0-4.1,3.6-6.1,7.9-6.1c4.6,0,7.7,1.6,8.2,6h-5.7c-0.2-1.2-0.9-1.8-2.4-1.8c-1.4,0-2.1,0.6-2.1,1.4c0,0.9,0.8,1.2,3.1,1.5
		c5.1,0.6,7.6,2,7.6,5.9c0,4.4-3.3,6.4-8.4,6.4C214.3,79.4,211.2,77.2,211,73.1z"/>
	<path class="st1" d="M236.2,72.5V60.5h6.3v11c0,2.1,0.8,3.1,2.6,3.1c1.9,0,3.1-1.1,3.1-3.5V60.5h6.3V79h-6.3v-2.9
		c-1,1.9-2.8,3.3-5.9,3.3C238.9,79.4,236.2,77.2,236.2,72.5z"/>
	<path class="st1" d="M257.9,60.5h6.3v2.8c1.1-1.8,3-3.3,5.8-3.3c4.3,0,7.8,3.3,7.8,9.6v0.3c0,6.4-3.5,9.5-7.8,9.5
		c-2.8,0-4.8-1.3-5.7-3.1v8.9h-6.3V60.5z M271.3,69.8v-0.3c0-3.3-1.4-4.8-3.6-4.8c-2.3,0-3.7,1.7-3.7,4.8v0.3c0,3.1,1.4,4.7,3.7,4.7
		C270.1,74.5,271.3,72.9,271.3,69.8z"/>
	<path class="st1" d="M22.1,110.4v-8.2h-2.2v-4.3h2.2V94h6.3v3.9H32v4.3h-3.6v7.6c0,1.3,0.7,1.9,1.9,1.9c0.7,0,1.2-0.1,1.8-0.3v4.8
		c-0.8,0.2-2,0.5-3.5,0.5C24.4,116.7,22.1,114.7,22.1,110.4z"/>
	<path class="st1" d="M33.4,107.3V107c0-5.9,4.4-9.7,10.1-9.7c5.7,0,10.1,3.6,10.1,9.5v0.3c0,6-4.4,9.6-10.1,9.6
		S33.4,113.3,33.4,107.3z M47.2,107.2v-0.3c0-3.1-1.2-4.8-3.6-4.8c-2.4,0-3.7,1.7-3.7,4.8v0.3c0,3.2,1.2,4.9,3.7,4.9
		C46,112,47.2,110.3,47.2,107.2z"/>
	<path class="st1" d="M66.4,104.8c-3.6-0.2-5.3-2.1-5.4-4.9h3.8c0.1,0.9,0.5,1.7,1.6,1.9v-3c-3.6-0.5-5.1-1.8-5.1-4.7
		c0-2.5,2-4.3,5.1-4.5v-1.8H68v1.9c3,0.2,4.8,1.6,5,4.5h-3.7c-0.1-0.8-0.4-1.3-1.3-1.5v2.8c3.2,0.5,5.2,1.5,5.2,4.5
		c0,2.5-1.6,4.6-5.2,4.8v2.6h-1.6V104.8z M66.4,95.1v-2.6c-0.9,0.2-1.4,0.7-1.4,1.3C65,94.5,65.3,94.9,66.4,95.1z M68,99.1v2.7
		c0.9-0.2,1.4-0.7,1.4-1.5C69.4,99.7,69.1,99.3,68,99.1z"/>
	<path class="st1" d="M81.9,98.2l-4.8,3v-6l5.8-4.1h6.3v25.3h-7.2V98.2z"/>
	<path class="st1" d="M92.6,104.2v-1.1c0-8,5-12.5,11.7-12.5c6.6,0,11.7,4.1,11.7,12.3v1c0,8-4.6,12.7-11.8,12.7
		C97,116.7,92.6,112.2,92.6,104.2z M108.7,104.2v-1c0-4.6-1.3-7-4.4-7c-3,0-4.4,2.3-4.4,7v1.1c0,4.7,1.4,6.9,4.5,6.9
		S108.7,108.8,108.7,104.2z"/>
	<path class="st1" d="M125.2,89.7h6.3v26.6h-6.3V89.7z"/>
	<path class="st1" d="M133.8,107.3V107c0-5.9,4.4-9.7,10-9.7c5.1,0,9.4,2.9,9.4,9.5v1.7h-13c0.2,2.4,1.6,3.9,3.9,3.9
		c2.1,0,3-1,3.2-2.2h5.9c-0.6,4.2-3.8,6.5-9.4,6.5C138.1,116.7,133.8,113.3,133.8,107.3z M147.1,105c-0.1-2.2-1.2-3.5-3.3-3.5
		c-1.9,0-3.2,1.2-3.5,3.5H147.1z"/>
	<path class="st1" d="M154.4,110.5h5.8c0.2,1.3,0.8,2.1,2.6,2.1c1.6,0,2.3-0.6,2.3-1.5c0-0.9-0.9-1.3-3.4-1.7c-5-0.6-7-2.1-7-5.9
		c0-4.1,3.6-6.1,7.9-6.1c4.6,0,7.7,1.6,8.2,6H165c-0.2-1.2-0.9-1.8-2.4-1.8c-1.4,0-2.1,0.6-2.1,1.4c0,0.9,0.8,1.2,3.1,1.5
		c5.1,0.6,7.6,2,7.6,5.9c0,4.4-3.3,6.4-8.4,6.4C157.6,116.7,154.5,114.6,154.4,110.5z"/>
	<path class="st1" d="M172.2,110.5h5.8c0.2,1.3,0.8,2.1,2.6,2.1c1.6,0,2.3-0.6,2.3-1.5c0-0.9-0.9-1.3-3.4-1.7c-4.9-0.6-7-2.1-7-5.9
		c0-4.1,3.6-6.1,7.9-6.1c4.6,0,7.7,1.6,8.2,6h-5.7c-0.2-1.2-0.9-1.8-2.4-1.8c-1.4,0-2.1,0.6-2.1,1.4c0,0.9,0.8,1.2,3.1,1.5
		c5.1,0.6,7.6,2,7.6,5.9c0,4.4-3.3,6.4-8.4,6.4C175.4,116.7,172.3,114.6,172.2,110.5z"/>
	<path class="st1" d="M198.4,110.4v-8.2h-2.2v-4.3h2.2V94h6.3v3.9h3.6v4.3h-3.6v7.6c0,1.3,0.7,1.9,1.9,1.9c0.7,0,1.2-0.1,1.8-0.3
		v4.8c-0.8,0.2-2,0.5-3.5,0.5C200.7,116.7,198.4,114.7,198.4,110.4z"/>
	<path class="st1" d="M210.7,89.7h6.3v11.1c1-1.9,3-3.5,6.1-3.5c3.6,0,6,2.2,6,7v12h-6.3v-10.7c0-2.1-0.8-3.1-2.7-3.1
		c-1.9,0-3.1,1.1-3.1,3.5v10.4h-6.3V89.7z"/>
	<path class="st1" d="M231.2,111.2c0-4.3,3.7-6,9.8-6h1.8v-0.4c0-1.8-0.4-2.9-2.4-2.9c-1.7,0-2.4,1-2.5,2.2h-5.9
		c0.3-4.5,3.8-6.6,8.8-6.6c5.1,0,8.3,2.1,8.3,7v12h-6.2v-2.2c-0.9,1.3-2.5,2.6-5.5,2.6C234.1,116.7,231.2,115.1,231.2,111.2z
		 M242.8,109.8v-1.1h-1.7c-2.5,0-3.7,0.5-3.7,2c0,1.1,0.7,1.7,2.2,1.7C241.5,112.5,242.8,111.4,242.8,109.8z"/>
	<path class="st1" d="M252.2,97.8h6.3v3c1-1.9,3-3.5,6.1-3.5c3.6,0,6,2.2,6,7v12h-6.3v-10.7c0-2.1-0.8-3.1-2.7-3.1
		c-1.9,0-3.1,1.1-3.1,3.5v10.4h-6.3V97.8z"/>
	<path class="st1" d="M26.6,134h-6.5v-5.6h20.4v5.6h-6.5v19.7h-7.3V134z"/>
	<path class="st1" d="M41,147.2v-12.1h6.3v11c0,2.1,0.8,3.1,2.6,3.1c1.9,0,3.1-1.1,3.1-3.5v-10.6h6.3v18.5h-6.3v-2.9
		c-1,1.9-2.8,3.3-5.9,3.3C43.7,154.1,41,151.9,41,147.2z"/>
	<path class="st1" d="M62.6,135.2H69v3.7c1.2-2.8,3.1-4,6-3.9v5.9c-3.9-0.1-6,1.1-6,4.1v8.8h-6.3V135.2z"/>
	<path class="st1" d="M83.6,150.8v2.9h-6.3V127h6.3v10.9c1.1-1.8,3-3.3,5.8-3.3c4.3,0,7.8,3.3,7.8,9.6v0.3c0,6.4-3.5,9.5-7.8,9.5
		C86.5,154.1,84.5,152.8,83.6,150.8z M90.7,144.5v-0.3c0-3.3-1.4-4.8-3.6-4.8c-2.3,0-3.7,1.7-3.7,4.8v0.3c0,3.1,1.4,4.7,3.7,4.7
		C89.4,149.2,90.7,147.6,90.7,144.5z"/>
	<path class="st1" d="M98.4,144.7v-0.3c0-5.9,4.4-9.7,10.1-9.7c5.7,0,10.1,3.6,10.1,9.5v0.3c0,6-4.4,9.6-10.1,9.6
		S98.4,150.6,98.4,144.7z M112.2,144.5v-0.3c0-3.1-1.2-4.8-3.6-4.8c-2.4,0-3.7,1.7-3.7,4.8v0.3c0,3.2,1.2,4.9,3.7,4.9
		C111,149.4,112.2,147.6,112.2,144.5z"/>
	<path class="st1" d="M126.3,134h-6.5v-5.6h20.4v5.6h-6.5v19.7h-7.3V134z"/>
	<path class="st1" d="M138.9,148.5c0-4.3,3.7-6,9.8-6h1.8v-0.4c0-1.8-0.4-2.9-2.4-2.9c-1.7,0-2.4,1-2.5,2.2h-5.9
		c0.3-4.5,3.8-6.6,8.8-6.6c5.1,0,8.3,2.1,8.3,7v12h-6.2v-2.2c-0.9,1.3-2.5,2.6-5.5,2.6C141.8,154.1,138.9,152.5,138.9,148.5z
		 M150.4,147.2v-1.1h-1.7c-2.5,0-3.7,0.5-3.7,2c0,1.1,0.7,1.7,2.2,1.7C149.1,149.8,150.4,148.8,150.4,147.2z"/>
	<path class="st1" d="M164.5,144.3l-5.8-9.1h7.3l2.9,4.9l2.8-4.9h6.5l-5.8,8.6l6.4,9.9h-7.3l-3.3-5.5l-3.4,5.5h-6.5L164.5,144.3z"/>
	<path class="st1" d="M180,150.5c0-2,1.5-3.6,3.6-3.6c2.1,0,3.7,1.6,3.7,3.6c0,2-1.6,3.6-3.7,3.6C181.5,154.1,180,152.5,180,150.5z"
		/>
</g>
</svg>
