<?xml version="1.0" encoding="utf-8"?>
<!-- Generator: Adobe Illustrator 24.0.2, SVG Export Plug-In . SVG Version: 6.00 Build 0)  -->
<svg version="1.1" id="Layer_1" xmlns="http://www.w3.org/2000/svg" xmlns:xlink="http://www.w3.org/1999/xlink" x="0px" y="0px"
	 viewBox="0 0 728 90" style="enable-background:new 0 0 728 90;" xml:space="preserve">
<style type="text/css">
	.st0{fill:none;}
	.st1{fill:#FFFFFF;}
</style>
<title>legal</title>
<g id="Layer_2_1_">
	<g id="Rect">
		<rect class="st0" width="728" height="90"/>
	</g>
	<g id="legal">
		<path class="st1" d="M464.1,72.4h1.8c1.2,0,2.3,0.5,2.3,1.9v0c0,1.4-1,1.9-2.3,1.9h-1v2.6h-0.8V72.4z M466,75.6
			c0.9,0,1.4-0.5,1.4-1.3v0c0-0.9-0.5-1.3-1.4-1.3h-1.1v2.6H466z"/>
		<path class="st1" d="M469.2,74.1h0.7v0.8c0.3-0.5,0.7-0.9,1.5-0.9v0.7c-0.9,0-1.5,0.3-1.5,1.5v2.6h-0.7V74.1z"/>
		<path class="st1" d="M472.3,72.6c0-0.3,0.2-0.5,0.5-0.5c0.3,0,0.5,0.2,0.5,0.5c0,0.3-0.2,0.5-0.5,0.5
			C472.5,73.1,472.3,72.9,472.3,72.6z M472.4,74.1h0.7v4.7h-0.7V74.1z"/>
		<path class="st1" d="M474.2,76.5L474.2,76.5c0-1.5,1-2.5,2.3-2.5c1,0,1.9,0.5,2,1.6h-0.7c-0.1-0.7-0.7-1-1.3-1
			c-0.9,0-1.5,0.7-1.5,1.8v0.1c0,1.2,0.6,1.8,1.5,1.8c0.7,0,1.3-0.4,1.4-1.2h0.7c-0.1,1-0.9,1.8-2.1,1.8
			C475.2,78.9,474.2,78,474.2,76.5z"/>
		<path class="st1" d="M479.2,76.5L479.2,76.5c0-1.5,0.9-2.5,2.2-2.5c1.1,0,2.1,0.7,2.1,2.3v0.2H480c0,1.1,0.5,1.7,1.5,1.7
			c0.7,0,1.2-0.3,1.3-0.8h0.7c-0.2,0.9-0.9,1.4-2,1.4C480.1,78.9,479.2,78,479.2,76.5z M482.8,76c-0.1-1-0.6-1.4-1.4-1.4
			c-0.8,0-1.3,0.5-1.4,1.4H482.8z"/>
		<path class="st1" d="M486.4,76.5L486.4,76.5c0-1.5,0.9-2.5,2.2-2.5c0.8,0,1.3,0.4,1.5,0.8v-3h0.7v7h-0.7V78
			c-0.3,0.5-0.9,0.9-1.6,0.9C487.3,78.9,486.4,78,486.4,76.5z M490.2,76.5L490.2,76.5c0-1.3-0.6-1.8-1.5-1.8c-0.9,0-1.5,0.7-1.5,1.8
			v0.1c0,1.2,0.6,1.8,1.4,1.8C489.5,78.3,490.2,77.7,490.2,76.5z"/>
		<path class="st1" d="M492.2,72.6c0-0.3,0.2-0.5,0.5-0.5c0.3,0,0.5,0.2,0.5,0.5c0,0.3-0.2,0.5-0.5,0.5
			C492.4,73.1,492.2,72.9,492.2,72.6z M492.3,74.1h0.7v4.7h-0.7V74.1z"/>
		<path class="st1" d="M494.6,74.7h-0.7v-0.6h0.7v-0.7c0-1,0.5-1.5,1.4-1.5c0.2,0,0.4,0,0.6,0.1v0.6c-0.1-0.1-0.3-0.1-0.5-0.1
			c-0.5,0-0.7,0.3-0.7,0.8v0.8h1.8v-0.8c0-1,0.5-1.5,1.4-1.5c0.2,0,0.4,0,0.6,0.1v0.6c-0.1-0.1-0.3-0.1-0.5-0.1
			c-0.5,0-0.7,0.3-0.7,0.8v0.8h1.2v0.6H498v4.1h-0.7v-4.1h-1.8v4.1h-0.7V74.7z"/>
		<path class="st1" d="M499.4,76.5L499.4,76.5c0-1.5,0.9-2.5,2.2-2.5c1.1,0,2.1,0.7,2.1,2.3v0.2h-3.5c0,1.1,0.5,1.7,1.5,1.7
			c0.7,0,1.2-0.3,1.3-0.8h0.7c-0.2,0.9-0.9,1.4-2,1.4C500.4,78.9,499.4,78,499.4,76.5z M503,76c-0.1-1-0.6-1.4-1.3-1.4
			c-0.8,0-1.3,0.5-1.4,1.4H503z"/>
		<path class="st1" d="M504.8,74.1h0.7v0.8c0.3-0.5,0.7-0.9,1.5-0.9v0.7c-0.9,0-1.5,0.3-1.5,1.5v2.6h-0.7V74.1z"/>
		<path class="st1" d="M507.5,76.5L507.5,76.5c0-1.5,0.9-2.5,2.2-2.5c1.1,0,2.1,0.7,2.1,2.3v0.2h-3.5c0,1.1,0.5,1.7,1.5,1.7
			c0.7,0,1.2-0.3,1.3-0.8h0.7c-0.2,0.9-0.9,1.4-2,1.4C508.5,78.9,507.5,78,507.5,76.5z M511.1,76c-0.1-1-0.6-1.4-1.3-1.4
			c-0.8,0-1.3,0.5-1.4,1.4H511.1z"/>
		<path class="st1" d="M512.9,74.1h0.7v0.7c0.2-0.4,0.7-0.8,1.5-0.8c1,0,1.7,0.5,1.7,1.9v2.9H516v-2.9c0-0.8-0.4-1.2-1.1-1.2
			c-0.7,0-1.3,0.4-1.3,1.3v2.9h-0.7V74.1z"/>
		<path class="st1" d="M517.8,76.5L517.8,76.5c0-1.5,1-2.5,2.3-2.5c1,0,1.9,0.5,2,1.6h-0.7c-0.1-0.7-0.7-1-1.3-1
			c-0.9,0-1.5,0.7-1.5,1.8v0.1c0,1.2,0.6,1.8,1.5,1.8c0.7,0,1.3-0.4,1.3-1.2h0.7c-0.1,1-0.9,1.8-2.1,1.8
			C518.7,78.9,517.8,78,517.8,76.5z"/>
		<path class="st1" d="M522.8,76.5L522.8,76.5c0-1.5,0.9-2.5,2.2-2.5c1.1,0,2.1,0.7,2.1,2.3v0.2h-3.5c0,1.1,0.5,1.7,1.5,1.7
			c0.7,0,1.2-0.3,1.3-0.8h0.7c-0.2,0.9-0.9,1.4-2,1.4C523.7,78.9,522.8,78,522.8,76.5z M526.3,76c-0.1-1-0.6-1.4-1.4-1.4
			c-0.8,0-1.3,0.5-1.4,1.4H526.3z"/>
		<path class="st1" d="M531.1,78v0.8h-0.7v-7h0.7v3c0.3-0.5,0.9-0.9,1.6-0.9c1.2,0,2.1,0.9,2.1,2.4v0.1c0,1.4-0.8,2.4-2.1,2.4
			C531.9,78.9,531.3,78.5,531.1,78z M534,76.5L534,76.5c0-1.3-0.7-1.9-1.4-1.9c-0.9,0-1.5,0.6-1.5,1.8v0.1c0,1.2,0.6,1.8,1.5,1.8
			C533.5,78.3,534,77.6,534,76.5z"/>
		<path class="st1" d="M535.5,77.5c0-1.1,1.2-1.5,2.4-1.5h0.7v-0.3c0-0.7-0.3-1.1-1-1.1c-0.6,0-1,0.3-1.1,0.8h-0.7
			c0.1-1.1,1-1.5,1.9-1.5c0.9,0,1.7,0.4,1.7,1.7v3.1h-0.7v-0.6c-0.4,0.4-0.8,0.7-1.5,0.7C536.1,78.9,535.5,78.5,535.5,77.5z
			 M538.5,77.2v-0.6h-0.6c-0.9,0-1.6,0.2-1.6,0.9c0,0.5,0.2,0.8,0.9,0.8C537.9,78.3,538.5,77.9,538.5,77.2z"/>
		<path class="st1" d="M540.2,77.4h0.7c0.1,0.6,0.4,0.9,1.1,0.9c0.7,0,1-0.2,1-0.7c0-0.5-0.4-0.7-1.1-0.8c-1.2-0.2-1.6-0.6-1.6-1.4
			c0-0.9,0.9-1.3,1.6-1.3c0.8,0,1.6,0.3,1.7,1.4h-0.7c-0.1-0.5-0.4-0.7-1-0.7c-0.5,0-0.9,0.3-0.9,0.7c0,0.4,0.2,0.6,1.1,0.7
			c1,0.2,1.7,0.4,1.7,1.4c0,0.9-0.6,1.4-1.7,1.4C540.9,78.9,540.2,78.3,540.2,77.4z"/>
		<path class="st1" d="M544.4,76.5L544.4,76.5c0-1.5,0.9-2.5,2.2-2.5c1.1,0,2.1,0.7,2.1,2.3v0.2h-3.5c0,1.1,0.5,1.7,1.5,1.7
			c0.7,0,1.2-0.3,1.3-0.8h0.7c-0.2,0.9-0.9,1.4-2,1.4C545.3,78.9,544.4,78,544.4,76.5z M548,76c-0.1-1-0.6-1.4-1.4-1.4
			c-0.8,0-1.3,0.5-1.4,1.4H548z"/>
		<path class="st1" d="M549.4,76.5L549.4,76.5c0-1.5,0.9-2.5,2.2-2.5c0.8,0,1.3,0.4,1.5,0.8v-3h0.7v7h-0.7V78
			c-0.3,0.5-0.9,0.9-1.6,0.9C550.3,78.9,549.4,78,549.4,76.5z M553.1,76.5L553.1,76.5c0-1.3-0.6-1.8-1.5-1.8c-0.9,0-1.5,0.7-1.5,1.8
			v0.1c0,1.2,0.6,1.8,1.4,1.8C552.5,78.3,553.1,77.7,553.1,76.5z"/>
		<path class="st1" d="M557.1,76.5L557.1,76.5c0-1.5,1-2.5,2.3-2.5c1.3,0,2.3,1,2.3,2.4v0.1c0,1.4-1,2.4-2.3,2.4
			S557.1,77.9,557.1,76.5z M561,76.5L561,76.5c0-1.2-0.6-1.9-1.5-1.9c-0.9,0-1.5,0.7-1.5,1.8v0.1c0,1.1,0.6,1.8,1.5,1.8
			C560.4,78.3,561,77.6,561,76.5z"/>
		<path class="st1" d="M562.8,74.1h0.7v0.7c0.2-0.4,0.7-0.8,1.5-0.8c1,0,1.7,0.5,1.7,1.9v2.9H566v-2.9c0-0.8-0.4-1.2-1.1-1.2
			c-0.7,0-1.3,0.4-1.3,1.3v2.9h-0.7V74.1z"/>
		<path class="st1" d="M569.9,76.5L569.9,76.5c0-1.5,1-2.5,2.3-2.5c1,0,1.9,0.5,2,1.6h-0.7c-0.1-0.7-0.7-1-1.3-1
			c-0.9,0-1.5,0.7-1.5,1.8v0.1c0,1.2,0.6,1.8,1.5,1.8c0.7,0,1.3-0.4,1.4-1.2h0.7c-0.1,1-0.9,1.8-2.1,1.8
			C570.9,78.9,569.9,78,569.9,76.5z"/>
		<path class="st1" d="M574.9,76.5L574.9,76.5c0-1.5,1-2.5,2.3-2.5s2.3,1,2.3,2.4v0.1c0,1.4-1,2.4-2.3,2.4
			C575.9,78.9,574.9,77.9,574.9,76.5z M578.8,76.5L578.8,76.5c0-1.2-0.6-1.9-1.5-1.9c-0.9,0-1.5,0.7-1.5,1.8v0.1
			c0,1.1,0.6,1.8,1.5,1.8C578.2,78.3,578.8,77.6,578.8,76.5z"/>
		<path class="st1" d="M580.2,77.4h0.7c0.1,0.6,0.4,0.9,1.1,0.9c0.7,0,1-0.2,1-0.7c0-0.5-0.4-0.7-1.1-0.8c-1.2-0.2-1.6-0.6-1.6-1.4
			c0-0.9,0.9-1.3,1.6-1.3c0.8,0,1.6,0.3,1.7,1.4h-0.7c-0.1-0.5-0.4-0.7-1-0.7c-0.5,0-0.9,0.3-0.9,0.7c0,0.4,0.2,0.6,1.1,0.7
			c1,0.2,1.7,0.4,1.7,1.4c0,0.9-0.6,1.4-1.7,1.4C580.9,78.9,580.2,78.3,580.2,77.4z"/>
		<path class="st1" d="M584.9,77.6v-2.9h-0.7v-0.6h0.7V73h0.7v1.1h1.1v0.6h-1.1v2.8c0,0.5,0.2,0.7,0.6,0.7c0.2,0,0.4,0,0.6-0.1v0.6
			c-0.2,0.1-0.3,0.1-0.6,0.1C585.3,78.9,584.9,78.4,584.9,77.6z"/>
		<path class="st1" d="M590.2,74.7h-0.7v-0.6h0.7v-0.8c0-1,0.5-1.5,1.4-1.5c0.2,0,0.4,0,0.6,0.1v0.6c-0.1-0.1-0.3-0.1-0.5-0.1
			c-0.5,0-0.7,0.3-0.7,0.8v0.8h1.2v0.6H591v4.1h-0.7V74.7z"/>
		<path class="st1" d="M592.5,76.5L592.5,76.5c0-1.5,1-2.5,2.3-2.5s2.3,1,2.3,2.4v0.1c0,1.4-1,2.4-2.3,2.4
			C593.4,78.9,592.5,77.9,592.5,76.5z M596.3,76.5L596.3,76.5c0-1.2-0.6-1.9-1.5-1.9c-0.9,0-1.5,0.7-1.5,1.8v0.1
			c0,1.1,0.6,1.8,1.5,1.8C595.7,78.3,596.3,77.6,596.3,76.5z"/>
		<path class="st1" d="M598.1,74.1h0.7v0.8c0.3-0.5,0.7-0.9,1.5-0.9v0.7c-0.9,0-1.5,0.3-1.5,1.5v2.6h-0.7V74.1z"/>
		<path class="st1" d="M603.8,74.7h-0.7v-0.6h0.7v-0.8c0-1,0.5-1.5,1.4-1.5c0.2,0,0.4,0,0.6,0.1v0.6c-0.1-0.1-0.3-0.1-0.5-0.1
			c-0.5,0-0.7,0.3-0.7,0.8v0.8h1.2v0.6h-1.2v4.1h-0.7V74.7z"/>
		<path class="st1" d="M606,76.5L606,76.5c0-1.5,0.9-2.5,2.2-2.5c1.1,0,2.1,0.7,2.1,2.3v0.2h-3.5c0,1.1,0.5,1.7,1.5,1.7
			c0.7,0,1.2-0.3,1.3-0.8h0.7c-0.2,0.9-0.9,1.4-2,1.4C607,78.9,606,78,606,76.5z M609.6,76c-0.1-1-0.6-1.4-1.4-1.4
			c-0.8,0-1.3,0.5-1.4,1.4H609.6z"/>
		<path class="st1" d="M611,76.5L611,76.5c0-1.5,0.9-2.5,2.2-2.5c0.8,0,1.3,0.4,1.5,0.8v-3h0.7v7h-0.7V78c-0.3,0.5-0.9,0.9-1.6,0.9
			C611.9,78.9,611,78,611,76.5z M614.8,76.5L614.8,76.5c0-1.3-0.6-1.8-1.5-1.8c-0.9,0-1.5,0.7-1.5,1.8v0.1c0,1.2,0.6,1.8,1.4,1.8
			C614.1,78.3,614.8,77.7,614.8,76.5z"/>
		<path class="st1" d="M616.5,76.5L616.5,76.5c0-1.5,0.9-2.5,2.2-2.5c1.1,0,2.1,0.7,2.1,2.3v0.2h-3.5c0,1.1,0.5,1.7,1.5,1.7
			c0.7,0,1.2-0.3,1.3-0.8h0.7c-0.2,0.9-0.9,1.4-2,1.4C617.5,78.9,616.5,78,616.5,76.5z M620.1,76c-0.1-1-0.6-1.4-1.4-1.4
			c-0.8,0-1.3,0.5-1.4,1.4H620.1z"/>
		<path class="st1" d="M621.8,74.1h0.7v0.8c0.3-0.5,0.7-0.9,1.5-0.9v0.7c-0.9,0-1.5,0.3-1.5,1.5v2.6h-0.7V74.1z"/>
		<path class="st1" d="M624.7,77.5c0-1.1,1.2-1.5,2.4-1.5h0.7v-0.3c0-0.7-0.3-1.1-1-1.1c-0.6,0-1,0.3-1.1,0.8h-0.7
			c0.1-1.1,1-1.5,1.9-1.5c0.9,0,1.7,0.4,1.7,1.7v3.1h-0.7v-0.6c-0.4,0.4-0.8,0.7-1.5,0.7C625.4,78.9,624.7,78.5,624.7,77.5z
			 M627.7,77.2v-0.6H627c-0.9,0-1.6,0.2-1.6,0.9c0,0.5,0.2,0.8,0.9,0.8C627.1,78.3,627.7,77.9,627.7,77.2z"/>
		<path class="st1" d="M629.8,71.8h0.8v7h-0.8V71.8z"/>
		<path class="st1" d="M633.8,77.5c0-1.1,1.2-1.5,2.4-1.5h0.7v-0.3c0-0.7-0.3-1.1-1-1.1c-0.6,0-1,0.3-1.1,0.8H634
			c0.1-1.1,1-1.5,1.9-1.5c0.9,0,1.7,0.4,1.7,1.7v3.1h-0.7v-0.6c-0.4,0.4-0.8,0.7-1.5,0.7C634.5,78.9,633.8,78.5,633.8,77.5z
			 M636.8,77.2v-0.6h-0.6c-0.9,0-1.6,0.2-1.6,0.9c0,0.5,0.2,0.8,0.9,0.8C636.2,78.3,636.8,77.9,636.8,77.2z"/>
		<path class="st1" d="M638.9,74.1h0.7v0.7c0.2-0.4,0.7-0.8,1.5-0.8c1,0,1.7,0.5,1.7,1.9v2.9h-0.7v-2.9c0-0.8-0.4-1.2-1.1-1.2
			c-0.7,0-1.3,0.4-1.3,1.3v2.9h-0.7V74.1z"/>
		<path class="st1" d="M643.8,76.5L643.8,76.5c0-1.5,0.9-2.5,2.2-2.5c0.8,0,1.3,0.4,1.5,0.8v-3h0.7v7h-0.7V78
			c-0.3,0.5-0.9,0.9-1.6,0.9C644.7,78.9,643.8,78,643.8,76.5z M647.6,76.5L647.6,76.5c0-1.3-0.6-1.8-1.5-1.8c-0.9,0-1.5,0.7-1.5,1.8
			v0.1c0,1.2,0.6,1.8,1.4,1.8C646.9,78.3,647.6,77.7,647.6,76.5z"/>
		<path class="st1" d="M651.6,76.5L651.6,76.5c0-1.5,1-2.5,2.3-2.5c1.3,0,2.3,1,2.3,2.4v0.1c0,1.4-1,2.4-2.3,2.4
			C652.5,78.9,651.6,77.9,651.6,76.5z M655.4,76.5L655.4,76.5c0-1.2-0.6-1.9-1.5-1.9c-0.9,0-1.5,0.7-1.5,1.8v0.1
			c0,1.1,0.6,1.8,1.5,1.8C654.8,78.3,655.4,77.6,655.4,76.5z"/>
		<path class="st1" d="M657.2,74.1h0.7v0.7c0.2-0.4,0.7-0.8,1.5-0.8c1,0,1.7,0.5,1.7,1.9v2.9h-0.7v-2.9c0-0.8-0.4-1.2-1.1-1.2
			c-0.7,0-1.3,0.4-1.3,1.3v2.9h-0.7V74.1z"/>
		<path class="st1" d="M662.1,76.5L662.1,76.5c0-1.5,0.9-2.5,2.2-2.5c1.1,0,2.1,0.7,2.1,2.3v0.2h-3.5c0,1.1,0.5,1.7,1.5,1.7
			c0.7,0,1.2-0.3,1.3-0.8h0.7c-0.2,0.9-0.9,1.4-2,1.4C663.1,78.9,662.1,78,662.1,76.5z M665.7,76c-0.1-1-0.6-1.4-1.4-1.4
			c-0.8,0-1.3,0.5-1.4,1.4H665.7z"/>
		<path class="st1" d="M669.3,77.4h0.7c0.1,0.6,0.4,0.9,1.1,0.9c0.7,0,1-0.2,1-0.7c0-0.5-0.4-0.7-1.1-0.8c-1.2-0.2-1.6-0.6-1.6-1.4
			c0-0.9,0.9-1.3,1.6-1.3c0.8,0,1.6,0.3,1.7,1.4H672c-0.1-0.5-0.4-0.7-1-0.7c-0.5,0-0.9,0.3-0.9,0.7c0,0.4,0.2,0.6,1.1,0.7
			c1,0.2,1.7,0.4,1.7,1.4c0,0.9-0.6,1.4-1.7,1.4C670,78.9,669.4,78.3,669.3,77.4z"/>
		<path class="st1" d="M674,77.6v-2.9h-0.7v-0.6h0.7V73h0.7v1.1h1.1v0.6h-1.1v2.8c0,0.5,0.2,0.7,0.6,0.7c0.2,0,0.4,0,0.6-0.1v0.6
			c-0.2,0.1-0.3,0.1-0.6,0.1C674.5,78.9,674,78.4,674,77.6z"/>
		<path class="st1" d="M676.6,77.5c0-1.1,1.2-1.5,2.4-1.5h0.7v-0.3c0-0.7-0.3-1.1-1-1.1c-0.6,0-1,0.3-1.1,0.8h-0.7
			c0.1-1.1,1-1.5,1.9-1.5c0.9,0,1.7,0.4,1.7,1.7v3.1h-0.7v-0.6c-0.4,0.4-0.8,0.7-1.5,0.7C677.3,78.9,676.6,78.5,676.6,77.5z
			 M679.6,77.2v-0.6H679c-0.9,0-1.6,0.2-1.6,0.9c0,0.5,0.2,0.8,0.9,0.8C679,78.3,679.6,77.9,679.6,77.2z"/>
		<path class="st1" d="M681.9,77.6v-2.9h-0.7v-0.6h0.7V73h0.7v1.1h1.1v0.6h-1.1v2.8c0,0.5,0.2,0.7,0.6,0.7c0.2,0,0.4,0,0.6-0.1v0.6
			c-0.2,0.1-0.3,0.1-0.6,0.1C682.3,78.9,681.9,78.4,681.9,77.6z"/>
		<path class="st1" d="M684.4,76.5L684.4,76.5c0-1.5,0.9-2.5,2.2-2.5c1.1,0,2.1,0.7,2.1,2.3v0.2h-3.5c0,1.1,0.5,1.7,1.5,1.7
			c0.7,0,1.2-0.3,1.3-0.8h0.7c-0.2,0.9-0.9,1.4-2,1.4C685.4,78.9,684.4,78,684.4,76.5z M688,76c-0.1-1-0.6-1.4-1.4-1.4
			c-0.8,0-1.3,0.5-1.4,1.4H688z"/>
		<path class="st1" d="M692,74.1h0.7v0.8c0.3-0.5,0.7-0.9,1.5-0.9v0.7c-0.9,0-1.5,0.3-1.5,1.5v2.6H692V74.1z"/>
		<path class="st1" d="M694.8,76.5L694.8,76.5c0-1.5,0.9-2.5,2.2-2.5c1.1,0,2.1,0.7,2.1,2.3v0.2h-3.5c0,1.1,0.5,1.7,1.5,1.7
			c0.7,0,1.2-0.3,1.3-0.8h0.7c-0.2,0.9-0.9,1.4-2,1.4C695.7,78.9,694.8,78,694.8,76.5z M698.3,76c-0.1-1-0.6-1.4-1.4-1.4
			c-0.8,0-1.3,0.5-1.4,1.4H698.3z"/>
		<path class="st1" d="M700.2,77.6v-2.9h-0.7v-0.6h0.7V73h0.7v1.1h1.1v0.6H701v2.8c0,0.5,0.2,0.7,0.6,0.7c0.2,0,0.4,0,0.6-0.1v0.6
			c-0.2,0.1-0.3,0.1-0.6,0.1C700.7,78.9,700.2,78.4,700.2,77.6z"/>
		<path class="st1" d="M703.1,77.1v-3h0.7V77c0,0.8,0.4,1.2,1.1,1.2c0.7,0,1.3-0.4,1.3-1.3v-2.9h0.7v4.7h-0.7v-0.7
			c-0.2,0.4-0.7,0.8-1.5,0.8C703.8,78.9,703.1,78.4,703.1,77.1z"/>
		<path class="st1" d="M708.4,74.1h0.7v0.8c0.3-0.5,0.7-0.9,1.5-0.9v0.7c-0.9,0-1.5,0.3-1.5,1.5v2.6h-0.7V74.1z"/>
		<path class="st1" d="M711.6,74.1h0.7v0.7c0.2-0.4,0.7-0.8,1.5-0.8c1,0,1.7,0.5,1.7,1.9v2.9h-0.7v-2.9c0-0.8-0.4-1.2-1.1-1.2
			c-0.7,0-1.3,0.4-1.3,1.3v2.9h-0.7V74.1z"/>
		<path class="st1" d="M716.8,78.3c0-0.3,0.3-0.6,0.6-0.6s0.6,0.3,0.6,0.6s-0.3,0.6-0.6,0.6S716.8,78.6,716.8,78.3z"/>
	</g>
</g>
</svg>
