<?xml version="1.0" encoding="utf-8"?>
<!-- Generator: Adobe Illustrator 24.0.2, SVG Export Plug-In . SVG Version: 6.00 Build 0)  -->
<svg version="1.1" id="Layer_1" xmlns="http://www.w3.org/2000/svg" xmlns:xlink="http://www.w3.org/1999/xlink" x="0px" y="0px"
	 viewBox="0 0 728 90" style="enable-background:new 0 0 728 90;" xml:space="preserve">
<style type="text/css">
	.st0{fill:#FFFFFF;}
	.st1{fill:none;}
</style>
<title>legal</title>
<g id="Layer_2_1_">
	<g id="legal">
		<path class="st0" d="M586.7,67.3h1.6c1.1,0,2,0.5,2,1.7v0c0,1.2-0.9,1.7-2,1.7h-0.9V73h-0.7V67.3z M588.4,70.2
			c0.8,0,1.3-0.4,1.3-1.1v0c0-0.8-0.5-1.1-1.3-1.1h-1v2.3H588.4z"/>
		<path class="st0" d="M591.2,68.9h0.7v0.8c0.3-0.5,0.6-0.8,1.4-0.8v0.6c-0.8,0-1.4,0.3-1.4,1.3V73h-0.7V68.9z"/>
		<path class="st0" d="M594,67.5c0-0.2,0.2-0.4,0.4-0.4c0.2,0,0.4,0.2,0.4,0.4c0,0.2-0.2,0.4-0.4,0.4C594.2,68,594,67.8,594,67.5z
			 M594.1,68.9h0.7V73h-0.7V68.9z"/>
		<path class="st0" d="M595.7,71L595.7,71c0-1.3,0.9-2.2,2-2.2c0.9,0,1.7,0.4,1.8,1.5h-0.7c-0.1-0.7-0.6-0.9-1.2-0.9
			c-0.8,0-1.3,0.6-1.3,1.6V71c0,1,0.6,1.6,1.4,1.6c0.6,0,1.1-0.3,1.2-1h0.6c-0.1,0.9-0.8,1.6-1.8,1.6
			C596.6,73.1,595.7,72.3,595.7,71z"/>
		<path class="st0" d="M600.1,71L600.1,71c0-1.3,0.8-2.2,2-2.2c1,0,1.9,0.6,1.9,2.1v0.2h-3.2c0,1,0.5,1.5,1.3,1.5
			c0.6,0,1-0.2,1.1-0.7h0.7c-0.1,0.8-0.8,1.3-1.8,1.3C601,73.1,600.1,72.3,600.1,71z M603.3,70.5c-0.1-0.9-0.5-1.2-1.2-1.2
			c-0.7,0-1.1,0.5-1.2,1.2H603.3z"/>
		<path class="st0" d="M606.5,71L606.5,71c0-1.3,0.8-2.2,2-2.2c0.7,0,1.1,0.3,1.4,0.7v-2.7h0.7V73h-0.7v-0.7
			c-0.2,0.4-0.8,0.8-1.4,0.8C607.3,73.1,606.5,72.3,606.5,71z M609.9,71L609.9,71c0-1.1-0.5-1.6-1.3-1.6c-0.8,0-1.3,0.6-1.3,1.6V71
			c0,1.1,0.6,1.6,1.3,1.6C609.3,72.6,609.9,72,609.9,71z"/>
		<path class="st0" d="M611.6,67.5c0-0.2,0.2-0.4,0.4-0.4c0.2,0,0.4,0.2,0.4,0.4c0,0.2-0.2,0.4-0.4,0.4
			C611.8,68,611.6,67.8,611.6,67.5z M611.8,68.9h0.7V73h-0.7V68.9z"/>
		<path class="st0" d="M613.8,69.4h-0.6v-0.6h0.6v-0.6c0-0.8,0.4-1.3,1.2-1.3c0.2,0,0.3,0,0.5,0.1v0.6c-0.1,0-0.3-0.1-0.5-0.1
			c-0.4,0-0.6,0.3-0.6,0.7v0.7h1.6v-0.7c0-0.8,0.4-1.3,1.2-1.3c0.2,0,0.3,0,0.5,0.1v0.6c-0.1,0-0.3-0.1-0.5-0.1
			c-0.4,0-0.6,0.3-0.6,0.7v0.8h1v0.6h-1V73h-0.7v-3.6h-1.6V73h-0.7V69.4z"/>
		<path class="st0" d="M618.1,71L618.1,71c0-1.3,0.8-2.2,2-2.2c1,0,1.9,0.6,1.9,2.1v0.2h-3.2c0,1,0.5,1.5,1.3,1.5
			c0.6,0,1-0.2,1.1-0.7h0.7c-0.1,0.8-0.8,1.3-1.8,1.3C618.9,73.1,618.1,72.3,618.1,71z M621.3,70.5c-0.1-0.9-0.5-1.2-1.2-1.2
			c-0.7,0-1.1,0.5-1.2,1.2H621.3z"/>
		<path class="st0" d="M622.8,68.9h0.7v0.8c0.3-0.5,0.6-0.8,1.4-0.8v0.6c-0.8,0-1.4,0.3-1.4,1.3V73h-0.7V68.9z"/>
		<path class="st0" d="M625.3,71L625.3,71c0-1.3,0.8-2.2,2-2.2c1,0,1.9,0.6,1.9,2.1v0.2H626c0,1,0.5,1.5,1.3,1.5
			c0.6,0,1-0.2,1.1-0.7h0.7c-0.1,0.8-0.8,1.3-1.8,1.3C626.1,73.1,625.3,72.3,625.3,71z M628.5,70.5c-0.1-0.9-0.5-1.2-1.2-1.2
			c-0.7,0-1.1,0.5-1.2,1.2H628.5z"/>
		<path class="st0" d="M630,68.9h0.7v0.7c0.2-0.4,0.7-0.7,1.3-0.7c0.9,0,1.5,0.5,1.5,1.7V73h-0.7v-2.6c0-0.7-0.3-1.1-1-1.1
			c-0.6,0-1.2,0.4-1.2,1.1V73H630V68.9z"/>
		<path class="st0" d="M634.4,71L634.4,71c0-1.3,0.9-2.2,2-2.2c0.9,0,1.7,0.4,1.8,1.5h-0.7c-0.1-0.7-0.6-0.9-1.2-0.9
			c-0.8,0-1.3,0.6-1.3,1.6V71c0,1,0.6,1.6,1.4,1.6c0.6,0,1.1-0.3,1.2-1h0.6c-0.1,0.9-0.8,1.6-1.8,1.6
			C635.3,73.1,634.4,72.3,634.4,71z"/>
		<path class="st0" d="M638.8,71L638.8,71c0-1.3,0.8-2.2,2-2.2c1,0,1.9,0.6,1.9,2.1v0.2h-3.2c0,1,0.5,1.5,1.3,1.5
			c0.6,0,1-0.2,1.1-0.7h0.7c-0.1,0.8-0.8,1.3-1.8,1.3C639.7,73.1,638.8,72.3,638.8,71z M642,70.5c-0.1-0.9-0.5-1.2-1.2-1.2
			c-0.7,0-1.1,0.5-1.2,1.2H642z"/>
		<path class="st0" d="M646.2,72.3V73h-0.7v-6.2h0.7v2.7c0.2-0.4,0.8-0.8,1.4-0.8c1.1,0,1.9,0.8,1.9,2.1v0.1c0,1.3-0.8,2.2-1.9,2.2
			C647,73.1,646.5,72.8,646.2,72.3z M648.9,71L648.9,71c0-1.1-0.6-1.6-1.3-1.6c-0.8,0-1.4,0.5-1.4,1.6V71c0,1.1,0.6,1.6,1.4,1.6
			C648.4,72.6,648.9,72,648.9,71z"/>
		<path class="st0" d="M650.1,71.9c0-1,1-1.3,2.1-1.3h0.6v-0.3c0-0.7-0.3-0.9-0.9-0.9c-0.6,0-0.9,0.2-1,0.8h-0.7
			c0.1-1,0.8-1.3,1.7-1.3c0.8,0,1.5,0.3,1.5,1.5V73h-0.7v-0.5c-0.3,0.4-0.7,0.6-1.3,0.6C650.7,73.1,650.1,72.7,650.1,71.9z
			 M652.8,71.6v-0.5h-0.6c-0.8,0-1.5,0.2-1.5,0.8c0,0.4,0.2,0.7,0.8,0.7C652.3,72.6,652.8,72.2,652.8,71.6z"/>
		<path class="st0" d="M654.3,71.7h0.6c0,0.5,0.3,0.8,1,0.8c0.6,0,0.9-0.2,0.9-0.7c0-0.4-0.3-0.6-1-0.7c-1.1-0.2-1.5-0.5-1.5-1.2
			c0-0.8,0.8-1.2,1.4-1.2c0.8,0,1.4,0.3,1.5,1.2h-0.6c-0.1-0.5-0.4-0.7-0.9-0.7c-0.5,0-0.8,0.2-0.8,0.6c0,0.4,0.2,0.5,1,0.7
			c0.9,0.2,1.5,0.4,1.5,1.2c0,0.8-0.5,1.3-1.5,1.3C655,73.1,654.4,72.6,654.3,71.7z"/>
		<path class="st0" d="M658.1,71L658.1,71c0-1.3,0.8-2.2,2-2.2c1,0,1.9,0.6,1.9,2.1v0.2h-3.2c0,1,0.5,1.5,1.3,1.5
			c0.6,0,1-0.2,1.1-0.7h0.7c-0.1,0.8-0.8,1.3-1.8,1.3C658.9,73.1,658.1,72.3,658.1,71z M661.2,70.5c-0.1-0.9-0.5-1.2-1.2-1.2
			c-0.7,0-1.1,0.5-1.2,1.2H661.2z"/>
		<path class="st0" d="M662.5,71L662.5,71c0-1.3,0.8-2.2,2-2.2c0.7,0,1.1,0.3,1.4,0.7v-2.7h0.7V73h-0.7v-0.7
			c-0.2,0.4-0.8,0.8-1.4,0.8C663.3,73.1,662.5,72.3,662.5,71z M665.8,71L665.8,71c0-1.1-0.5-1.6-1.3-1.6c-0.8,0-1.3,0.6-1.3,1.6V71
			c0,1.1,0.6,1.6,1.3,1.6C665.2,72.6,665.8,72,665.8,71z"/>
		<path class="st0" d="M669.4,71L669.4,71c0-1.3,0.9-2.2,2.1-2.2s2.1,0.9,2.1,2.1V71c0,1.3-0.9,2.1-2.1,2.1S669.4,72.2,669.4,71z
			 M672.8,71L672.8,71c0-1-0.5-1.6-1.4-1.6c-0.8,0-1.4,0.6-1.4,1.6V71c0,1,0.5,1.6,1.4,1.6C672.3,72.6,672.8,71.9,672.8,71z"/>
		<path class="st0" d="M674.4,68.9h0.7v0.7c0.2-0.4,0.7-0.7,1.3-0.7c0.9,0,1.5,0.5,1.5,1.7V73h-0.7v-2.6c0-0.7-0.3-1.1-1-1.1
			c-0.6,0-1.2,0.4-1.2,1.1V73h-0.7V68.9z"/>
		<path class="st0" d="M680.8,71L680.8,71c0-1.3,0.9-2.2,2-2.2c0.9,0,1.7,0.4,1.8,1.5H684c-0.1-0.7-0.6-0.9-1.2-0.9
			c-0.8,0-1.3,0.6-1.3,1.6V71c0,1,0.6,1.6,1.4,1.6c0.6,0,1.1-0.3,1.2-1h0.6c-0.1,0.9-0.8,1.6-1.8,1.6
			C681.6,73.1,680.8,72.3,680.8,71z"/>
		<path class="st0" d="M685.2,71L685.2,71c0-1.3,0.9-2.2,2.1-2.2c1.2,0,2.1,0.9,2.1,2.1V71c0,1.3-0.9,2.1-2.1,2.1
			S685.2,72.2,685.2,71z M688.6,71L688.6,71c0-1-0.5-1.6-1.4-1.6c-0.8,0-1.4,0.6-1.4,1.6V71c0,1,0.5,1.6,1.4,1.6
			C688.1,72.6,688.6,71.9,688.6,71z"/>
		<path class="st0" d="M689.9,71.7h0.6c0,0.5,0.3,0.8,1,0.8c0.6,0,0.9-0.2,0.9-0.7c0-0.4-0.3-0.6-1-0.7c-1.1-0.2-1.5-0.5-1.5-1.2
			c0-0.8,0.8-1.2,1.4-1.2c0.8,0,1.4,0.3,1.5,1.2h-0.6c-0.1-0.5-0.4-0.7-0.9-0.7c-0.5,0-0.8,0.2-0.8,0.6c0,0.4,0.2,0.5,1,0.7
			c0.9,0.2,1.5,0.4,1.5,1.2c0,0.8-0.5,1.3-1.5,1.3C690.5,73.1,689.9,72.6,689.9,71.7z"/>
		<path class="st0" d="M694.1,72v-2.6h-0.6v-0.6h0.6v-1h0.7v1h1v0.6h-1v2.5c0,0.4,0.2,0.6,0.5,0.6c0.2,0,0.4,0,0.5-0.1V73
			c-0.1,0-0.3,0.1-0.6,0.1C694.5,73.1,694.1,72.6,694.1,72z"/>
		<path class="st0" d="M698.8,69.4h-0.6v-0.6h0.6v-0.7c0-0.8,0.4-1.3,1.2-1.3c0.2,0,0.3,0,0.5,0.1v0.6c-0.1,0-0.3-0.1-0.5-0.1
			c-0.4,0-0.6,0.3-0.6,0.7v0.8h1v0.6h-1V73h-0.7V69.4z"/>
		<path class="st0" d="M700.8,71L700.8,71c0-1.3,0.9-2.2,2.1-2.2c1.2,0,2.1,0.9,2.1,2.1V71c0,1.3-0.9,2.1-2.1,2.1
			S700.8,72.2,700.8,71z M704.2,71L704.2,71c0-1-0.5-1.6-1.4-1.6c-0.8,0-1.4,0.6-1.4,1.6V71c0,1,0.5,1.6,1.4,1.6
			C703.7,72.6,704.2,71.9,704.2,71z"/>
		<path class="st0" d="M705.8,68.9h0.7v0.8c0.3-0.5,0.6-0.8,1.4-0.8v0.6c-0.8,0-1.4,0.3-1.4,1.3V73h-0.7V68.9z"/>
		<path class="st0" d="M606.1,77.4h-0.6v-0.6h0.6v-0.7c0-0.8,0.4-1.3,1.2-1.3c0.2,0,0.3,0,0.5,0.1v0.6c-0.1,0-0.3-0.1-0.5-0.1
			c-0.4,0-0.6,0.3-0.6,0.7v0.8h1v0.6h-1V81h-0.7V77.4z"/>
		<path class="st0" d="M608.1,79L608.1,79c0-1.3,0.8-2.2,2-2.2c1,0,1.9,0.6,1.9,2.1v0.2h-3.2c0,1,0.5,1.5,1.3,1.5
			c0.6,0,1-0.2,1.1-0.7h0.7c-0.1,0.8-0.8,1.3-1.8,1.3C608.9,81.1,608.1,80.3,608.1,79z M611.2,78.5c-0.1-0.9-0.5-1.2-1.2-1.2
			c-0.7,0-1.1,0.5-1.2,1.2H611.2z"/>
		<path class="st0" d="M612.5,79L612.5,79c0-1.3,0.8-2.2,2-2.2c0.7,0,1.1,0.3,1.4,0.7v-2.7h0.7V81h-0.7v-0.7
			c-0.2,0.4-0.8,0.8-1.4,0.8C613.3,81.1,612.5,80.3,612.5,79z M615.8,79L615.8,79c0-1.1-0.5-1.6-1.3-1.6c-0.8,0-1.3,0.6-1.3,1.6V79
			c0,1.1,0.6,1.6,1.3,1.6C615.2,80.6,615.8,80,615.8,79z"/>
		<path class="st0" d="M617.4,79L617.4,79c0-1.3,0.8-2.2,2-2.2c1,0,1.9,0.6,1.9,2.1v0.2h-3.2c0,1,0.5,1.5,1.3,1.5
			c0.6,0,1-0.2,1.1-0.7h0.7c-0.1,0.8-0.8,1.3-1.8,1.3C618.2,81.1,617.4,80.3,617.4,79z M620.5,78.5c-0.1-0.9-0.5-1.2-1.2-1.2
			c-0.7,0-1.1,0.5-1.2,1.2H620.5z"/>
		<path class="st0" d="M622.1,76.9h0.7v0.8c0.3-0.5,0.6-0.8,1.4-0.8v0.6c-0.8,0-1.4,0.3-1.4,1.3V81h-0.7V76.9z"/>
		<path class="st0" d="M624.6,79.9c0-1,1-1.3,2.1-1.3h0.6v-0.3c0-0.7-0.3-0.9-0.9-0.9c-0.6,0-0.9,0.2-1,0.8h-0.7
			c0.1-1,0.8-1.3,1.7-1.3c0.8,0,1.5,0.3,1.5,1.5V81h-0.7v-0.5c-0.3,0.4-0.7,0.6-1.3,0.6C625.2,81.1,624.6,80.7,624.6,79.9z
			 M627.3,79.6v-0.5h-0.6c-0.8,0-1.5,0.2-1.5,0.8c0,0.4,0.2,0.7,0.8,0.7C626.8,80.6,627.3,80.2,627.3,79.6z"/>
		<path class="st0" d="M629.2,74.9h0.7V81h-0.7V74.9z"/>
		<path class="st0" d="M632.8,79.9c0-1,1-1.3,2.1-1.3h0.6v-0.3c0-0.7-0.3-0.9-0.9-0.9c-0.6,0-0.9,0.2-1,0.8h-0.7
			c0.1-1,0.8-1.3,1.7-1.3c0.8,0,1.5,0.3,1.5,1.5V81h-0.7v-0.5c-0.3,0.4-0.7,0.6-1.3,0.6C633.4,81.1,632.8,80.7,632.8,79.9z
			 M635.5,79.6v-0.5h-0.6c-0.8,0-1.5,0.2-1.5,0.8c0,0.4,0.2,0.7,0.8,0.7C634.9,80.6,635.5,80.2,635.5,79.6z"/>
		<path class="st0" d="M637.3,76.9h0.7v0.7c0.2-0.4,0.7-0.7,1.3-0.7c0.9,0,1.5,0.5,1.5,1.7V81h-0.7v-2.6c0-0.7-0.3-1.1-1-1.1
			c-0.6,0-1.2,0.4-1.2,1.1V81h-0.7V76.9z"/>
		<path class="st0" d="M641.7,79L641.7,79c0-1.3,0.8-2.2,2-2.2c0.7,0,1.1,0.3,1.4,0.7v-2.7h0.7V81H645v-0.7
			c-0.2,0.4-0.8,0.8-1.4,0.8C642.4,81.1,641.7,80.3,641.7,79z M645,79L645,79c0-1.1-0.5-1.6-1.3-1.6c-0.8,0-1.3,0.6-1.3,1.6V79
			c0,1.1,0.6,1.6,1.3,1.6C644.4,80.6,645,80,645,79z"/>
		<path class="st0" d="M648.5,79L648.5,79c0-1.3,0.9-2.2,2.1-2.2s2.1,0.9,2.1,2.1V79c0,1.3-0.9,2.1-2.1,2.1S648.5,80.2,648.5,79z
			 M652,79L652,79c0-1-0.5-1.6-1.4-1.6c-0.8,0-1.4,0.6-1.4,1.6V79c0,1,0.5,1.6,1.4,1.6C651.4,80.6,652,79.9,652,79z"/>
		<path class="st0" d="M653.6,76.9h0.7v0.7c0.2-0.4,0.7-0.7,1.3-0.7c0.9,0,1.5,0.5,1.5,1.7V81h-0.7v-2.6c0-0.7-0.3-1.1-1-1.1
			c-0.6,0-1.2,0.4-1.2,1.1V81h-0.7V76.9z"/>
		<path class="st0" d="M657.9,79L657.9,79c0-1.3,0.8-2.2,2-2.2c1,0,1.9,0.6,1.9,2.1v0.2h-3.2c0,1,0.5,1.5,1.3,1.5
			c0.6,0,1-0.2,1.1-0.7h0.7c-0.1,0.8-0.8,1.3-1.8,1.3C658.8,81.1,657.9,80.3,657.9,79z M661.1,78.5c-0.1-0.9-0.5-1.2-1.2-1.2
			c-0.7,0-1.1,0.5-1.2,1.2H661.1z"/>
		<path class="st0" d="M664.3,79.7h0.6c0,0.5,0.3,0.8,1,0.8c0.6,0,0.9-0.2,0.9-0.7c0-0.4-0.3-0.6-1-0.7c-1.1-0.2-1.5-0.5-1.5-1.2
			c0-0.8,0.8-1.2,1.4-1.2c0.8,0,1.4,0.3,1.5,1.2h-0.6c-0.1-0.5-0.4-0.7-0.9-0.7c-0.5,0-0.8,0.2-0.8,0.6c0,0.4,0.2,0.5,1,0.7
			c0.9,0.2,1.5,0.4,1.5,1.2c0,0.8-0.5,1.3-1.5,1.3C665,81.1,664.4,80.6,664.3,79.7z"/>
		<path class="st0" d="M668.5,80v-2.6h-0.6v-0.6h0.6v-1h0.7v1h1v0.6h-1v2.5c0,0.4,0.2,0.6,0.5,0.6c0.2,0,0.4,0,0.5-0.1V81
			c-0.1,0-0.3,0.1-0.6,0.1C668.9,81.1,668.5,80.6,668.5,80z"/>
		<path class="st0" d="M670.8,79.9c0-1,1-1.3,2.1-1.3h0.6v-0.3c0-0.7-0.3-0.9-0.9-0.9c-0.6,0-0.9,0.2-1,0.8H671
			c0.1-1,0.8-1.3,1.7-1.3c0.8,0,1.5,0.3,1.5,1.5V81h-0.7v-0.5c-0.3,0.4-0.7,0.6-1.3,0.6C671.4,81.1,670.8,80.7,670.8,79.9z
			 M673.5,79.6v-0.5h-0.6c-0.8,0-1.5,0.2-1.5,0.8c0,0.4,0.2,0.7,0.8,0.7C673,80.6,673.5,80.2,673.5,79.6z"/>
		<path class="st0" d="M675.5,80v-2.6h-0.6v-0.6h0.6v-1h0.7v1h1v0.6h-1v2.5c0,0.4,0.2,0.6,0.5,0.6c0.2,0,0.4,0,0.5-0.1V81
			c-0.1,0-0.3,0.1-0.6,0.1C675.9,81.1,675.5,80.6,675.5,80z"/>
		<path class="st0" d="M677.7,79L677.7,79c0-1.3,0.8-2.2,2-2.2c1,0,1.9,0.6,1.9,2.1v0.2h-3.2c0,1,0.5,1.5,1.3,1.5
			c0.6,0,1-0.2,1.1-0.7h0.7c-0.1,0.8-0.8,1.3-1.8,1.3C678.6,81.1,677.7,80.3,677.7,79z M680.9,78.5c-0.1-0.9-0.5-1.2-1.2-1.2
			c-0.7,0-1.1,0.5-1.2,1.2H680.9z"/>
		<path class="st0" d="M684.5,76.9h0.7v0.8c0.3-0.5,0.6-0.8,1.4-0.8v0.6c-0.8,0-1.4,0.3-1.4,1.3V81h-0.7V76.9z"/>
		<path class="st0" d="M686.9,79L686.9,79c0-1.3,0.8-2.2,2-2.2c1,0,1.9,0.6,1.9,2.1v0.2h-3.2c0,1,0.5,1.5,1.3,1.5
			c0.6,0,1-0.2,1.1-0.7h0.7c-0.1,0.8-0.8,1.3-1.8,1.3C687.8,81.1,686.9,80.3,686.9,79z M690.1,78.5c-0.1-0.9-0.5-1.2-1.2-1.2
			c-0.7,0-1.1,0.5-1.2,1.2H690.1z"/>
		<path class="st0" d="M691.8,80v-2.6h-0.6v-0.6h0.6v-1h0.7v1h1v0.6h-1v2.5c0,0.4,0.2,0.6,0.5,0.6c0.2,0,0.4,0,0.5-0.1V81
			c-0.1,0-0.3,0.1-0.6,0.1C692.2,81.1,691.8,80.6,691.8,80z"/>
		<path class="st0" d="M694.4,79.5v-2.6h0.7v2.6c0,0.7,0.3,1.1,1,1.1c0.6,0,1.2-0.4,1.2-1.1v-2.5h0.7V81h-0.7v-0.7
			c-0.2,0.4-0.7,0.7-1.3,0.7C695,81.1,694.4,80.7,694.4,79.5z"/>
		<path class="st0" d="M699,76.9h0.7v0.8c0.3-0.5,0.6-0.8,1.4-0.8v0.6c-0.8,0-1.4,0.3-1.4,1.3V81H699V76.9z"/>
		<path class="st0" d="M701.9,76.9h0.7v0.7c0.2-0.4,0.7-0.7,1.3-0.7c0.9,0,1.5,0.5,1.5,1.7V81h-0.7v-2.6c0-0.7-0.3-1.1-1-1.1
			c-0.6,0-1.2,0.4-1.2,1.1V81h-0.7V76.9z"/>
		<path class="st0" d="M706.5,80.6c0-0.3,0.2-0.5,0.5-0.5c0.3,0,0.5,0.2,0.5,0.5c0,0.3-0.2,0.5-0.5,0.5
			C706.8,81.1,706.5,80.9,706.5,80.6z"/>
	</g>
	<g id="Rect">
		<rect class="st1" width="728" height="90"/>
	</g>
</g>
</svg>
