<svg xmlns="http://www.w3.org/2000/svg" viewBox="0 0 728 90"><title>Asset 3</title><rect width="728" height="90" fill="none"/><path d="M120.76,31.36h6.43c.17,1.68.93,3.07,3.73,3.07,2,0,3-1,3-2.35s-.89-1.85-3.73-2.27c-6.67-.8-8.91-2.78-8.91-7.53,0-4.26,3.5-7.36,9.14-7.36s8.88,2.38,9.31,7.36H133.5a2.68,2.68,0,0,0-3-2.54c-1.81,0-2.74.82-2.74,2s.73,1.92,3.67,2.31c6,.66,9,2.21,9,7.33,0,4.32-3.43,7.85-9.51,7.85C124.32,39.24,121,36.47,120.76,31.36Z" fill="#fff"/><path d="M140.92,21.59h6.17l2.51,10.33,2.91-10.33h4.75l2.57,10.33,2.81-10.33h5.61l-5.48,17.26h-5.64l-2.58-9.64-2.67,9.64h-5.74Z" fill="#fff"/><path d="M169.63,16.9a3.26,3.26,0,1,1,3.24,3A3.09,3.09,0,0,1,169.63,16.9Zm.3,4.69h5.91V38.85h-5.91Z" fill="#fff"/><path d="M179.8,33.3V25.61h-2.08v-4h2.08V18h5.9v3.6h3.4v4h-3.4v7.13c0,1.26.63,1.82,1.75,1.82a4.5,4.5,0,0,0,1.69-.3v4.49a12.42,12.42,0,0,1-3.27.49C182,39.24,179.8,37.36,179.8,33.3Z" fill="#fff"/><path d="M190.42,30.43v-.26c0-5.74,4.13-9,9.21-9,4.22,0,8.12,1.85,8.45,7.1h-5.55c-.26-1.62-1.05-2.51-2.77-2.51-2.08,0-3.3,1.49-3.3,4.39v.27c0,3,1.16,4.55,3.4,4.55a2.87,2.87,0,0,0,3-2.87h5.32c-.17,4.36-3.1,7.19-8.68,7.19C194.35,39.24,190.42,36.24,190.42,30.43Z" fill="#fff"/><path d="M210.09,14H216V24.36a6.09,6.09,0,0,1,5.67-3.24c3.34,0,5.65,2.08,5.65,6.51V38.85h-5.91v-10c0-1.95-.76-2.91-2.48-2.91S216,27,216,29.18v9.67h-5.91Z" fill="#fff"/><path d="M237.08,25.61H234.9v-4h2.18V20.07c0-4.29,2.68-6.34,6.77-6.34a10.5,10.5,0,0,1,2.71.37v4.32a5.52,5.52,0,0,0-1.62-.23,1.73,1.73,0,0,0-2,1.88v1.52h3.5v4H243V38.85h-5.88Z" fill="#fff"/><path d="M248.43,21.59h5.91V25a5.44,5.44,0,0,1,5.58-3.66v5.51c-3.6-.1-5.58,1-5.58,3.79v8.19h-5.91Z" fill="#fff"/><path d="M261,30.43v-.26c0-5.55,4.13-9,9.48-9s9.4,3.4,9.4,8.88v.27c0,5.61-4.12,9-9.44,9S261,36,261,30.43Zm12.88-.1v-.26c0-2.9-1.16-4.52-3.4-4.52S267,27.1,267,30v.27c0,3,1.16,4.58,3.44,4.58S273.85,33.21,273.85,30.33Z" fill="#fff"/><path d="M281.93,21.59h5.91v2.64a6,6,0,0,1,5.41-3.11A4.72,4.72,0,0,1,297.94,24a6.83,6.83,0,0,1,5.71-2.88c3.26,0,5.64,2.12,5.64,6.44V38.85h-5.91V28.55c0-1.75-.86-2.61-2.21-2.61-1.58,0-2.64,1-2.64,2.91v10h-5.84V28.55c0-1.75-.86-2.61-2.21-2.61-1.59,0-2.64,1-2.64,2.91v10h-5.91Z" fill="#fff"/><path d="M323.21,20.46h-6.1V15.25h19v5.21H330V38.85h-6.8Z" fill="#fff"/><path d="M336.64,32.84V21.59h5.91V31.88c0,1.95.76,2.91,2.44,2.91s2.94-1.06,2.94-3.27V21.59h5.91V38.85h-5.91V36.18a5.67,5.67,0,0,1-5.48,3.06C339.12,39.24,336.64,37.2,336.64,32.84Z" fill="#fff"/><path d="M356.84,21.59h5.91V25a5.43,5.43,0,0,1,5.57-3.66v5.51c-3.59-.1-5.57,1-5.57,3.79v8.19h-5.91Z" fill="#fff"/><path d="M376.38,36.18v2.67h-5.91V14h5.91V24.16a6.09,6.09,0,0,1,5.37-3c4,0,7.3,3,7.3,9v.26c0,5.94-3.27,8.91-7.33,8.91A5.59,5.59,0,0,1,376.38,36.18ZM383,30.33v-.26c0-3-1.32-4.49-3.4-4.49s-3.43,1.55-3.43,4.46v.26c0,2.94,1.29,4.42,3.43,4.42S383,33.17,383,30.33Z" fill="#fff"/><path d="M390.27,30.43v-.26c0-5.55,4.12-9,9.47-9s9.41,3.4,9.41,8.88v.27c0,5.61-4.13,9-9.44,9S390.27,36,390.27,30.43Zm12.87-.1v-.26c0-2.9-1.16-4.52-3.4-4.52s-3.43,1.55-3.43,4.45v.27c0,3,1.15,4.58,3.43,4.58S403.14,33.21,403.14,30.33Z" fill="#fff"/><path d="M416.27,20.46h-6.1V15.25h19v5.21h-6.11V38.85h-6.8Z" fill="#fff"/><path d="M428,34.06c0-4.06,3.43-5.64,9.17-5.64h1.65V28c0-1.65-.39-2.74-2.28-2.74a2.12,2.12,0,0,0-2.34,2h-5.54c.26-4.16,3.53-6.21,8.25-6.21s7.79,1.95,7.79,6.54V38.85h-5.75v-2c-.82,1.25-2.34,2.4-5.11,2.4C430.73,39.24,428,37.73,428,34.06Zm10.82-1.25V31.75h-1.55c-2.38,0-3.43.46-3.43,1.88,0,1,.66,1.62,2,1.62C437.56,35.25,438.81,34.29,438.81,32.81Z" fill="#fff"/><path d="M451.91,30.07l-5.38-8.48h6.8L456,26.14l2.61-4.55h6.07l-5.44,8,6,9.24h-6.8l-3.07-5.15-3.13,5.15h-6Z" fill="#fff"/><path d="M466.4,35.88a3.29,3.29,0,0,1,3.36-3.34,3.34,3.34,0,1,1,0,6.67A3.29,3.29,0,0,1,466.4,35.88Z" fill="#fff"/><path d="M120.76,66.36h6.43c.17,1.68.93,3.07,3.73,3.07,2,0,3-1,3-2.35s-.89-1.85-3.73-2.27c-6.67-.8-8.91-2.78-8.91-7.53,0-4.26,3.5-7.36,9.14-7.36s8.88,2.38,9.31,7.36H133.5a2.68,2.68,0,0,0-3-2.54c-1.81,0-2.74.82-2.74,2s.73,1.92,3.67,2.31c6,.66,9,2.21,9,7.33,0,4.32-3.43,7.86-9.51,7.86C124.32,74.25,121,71.47,120.76,66.36Z" fill="#fff"/><path d="M141.61,69.06c0-4.06,3.44-5.64,9.18-5.64h1.65V63c0-1.65-.4-2.74-2.28-2.74a2.12,2.12,0,0,0-2.34,2h-5.55c.27-4.16,3.54-6.21,8.26-6.21s7.78,2,7.78,6.54V73.85h-5.74v-2a5.65,5.65,0,0,1-5.11,2.42C144.35,74.25,141.61,72.73,141.61,69.06Zm10.83-1.25V66.75h-1.55c-2.38,0-3.43.46-3.43,1.88,0,1,.66,1.62,2,1.62C151.19,70.25,152.44,69.29,152.44,67.81Z" fill="#fff"/><path d="M159.2,56.59h6.31l3.59,11.12,3.54-11.12h5.64L172,73.85h-6.44Z" fill="#fff"/><path d="M177.91,65.43v-.26c0-5.55,4.13-9.05,9.34-9.05C192,56.12,196,58.83,196,65v1.55H183.89c.16,2.28,1.48,3.6,3.6,3.6,1.94,0,2.77-.9,3-2H196c-.52,3.89-3.53,6.11-8.74,6.11C181.87,74.25,177.91,71.08,177.91,65.43Zm12.38-2.18c-.1-2.08-1.12-3.23-3-3.23s-3,1.15-3.3,3.23Z" fill="#fff"/><path d="M204,67.84V56.59h5.91V66.88c0,2,.76,2.91,2.44,2.91s2.94-1.06,2.94-3.27V56.59h5.91V73.85h-5.91V71.18a5.69,5.69,0,0,1-5.48,3.07C206.43,74.25,204,72.2,204,67.84Z" fill="#fff"/><path d="M224.15,56.59h5.9v2.57a6.1,6.1,0,0,1,5.38-3c4,0,7.3,3,7.3,8.95v.26c0,5.94-3.27,8.92-7.33,8.92a5.71,5.71,0,0,1-5.35-2.94v8.31h-5.9Zm12.57,8.74v-.26c0-3-1.32-4.49-3.4-4.49s-3.43,1.55-3.43,4.46v.26c0,2.94,1.29,4.42,3.43,4.42S236.72,68.17,236.72,65.33Z" fill="#fff"/><path d="M251.67,68.3V60.61h-2.08v-4h2.08V53h5.91v3.6H261v4h-3.39v7.13c0,1.26.62,1.82,1.74,1.82a4.5,4.5,0,0,0,1.69-.3v4.49a12.28,12.28,0,0,1-3.27.5C253.85,74.25,251.67,72.36,251.67,68.3Z" fill="#fff"/><path d="M262.29,65.43v-.26c0-5.55,4.13-9.05,9.48-9.05s9.4,3.4,9.4,8.88v.27c0,5.61-4.12,9-9.44,9S262.29,71,262.29,65.43Zm12.88-.1v-.26c0-2.9-1.16-4.52-3.4-4.52s-3.44,1.55-3.44,4.45v.27c0,3,1.16,4.59,3.44,4.59S275.17,68.21,275.17,65.33Z" fill="#fff"/><path d="M293.05,63.05c-3.33-.23-4.95-2-5.08-4.54h3.56a1.81,1.81,0,0,0,1.52,1.81V57.51c-3.35-.48-4.78-1.69-4.78-4.37,0-2.33,1.83-4,4.78-4.21V47.22h1.5V49c2.79.23,4.44,1.52,4.67,4.15h-3.48a1.53,1.53,0,0,0-1.19-1.44v2.66c2.94.42,4.86,1.42,4.86,4.21,0,2.35-1.52,4.31-4.86,4.52v2.41h-1.5Zm0-9V51.62c-.87.16-1.31.62-1.31,1.23S292,53.87,293.05,54.09Zm1.5,3.67v2.56A1.39,1.39,0,0,0,295.84,59C295.84,58.32,295.57,58,294.55,57.76Z" fill="#fff"/><path d="M300.59,66.09h6c.2,2,1.13,3.27,3.47,3.27,2.08,0,3.1-1,3.1-2.67,0-1.85-1-2.78-3.1-2.78h-1.88V59.72h1.75c2.11,0,3.13-.95,3.13-2.6,0-1.42-.92-2.35-2.7-2.35s-2.87,1.09-3.14,3h-6c.29-4.66,3.4-7.86,9.27-7.86,5.55,0,8.88,2.54,8.88,6.47a5,5,0,0,1-4,5.08A5.32,5.32,0,0,1,320,66.82c0,4.49-3.33,7.43-9.57,7.43C303.85,74.25,300.79,71.21,300.59,66.09Z" fill="#fff"/><path d="M321.77,62.56v-1c0-7.46,4.66-11.65,10.9-11.65s10.89,3.86,10.89,11.52v.92c0,7.5-4.29,11.89-11,11.89S321.77,70,321.77,62.56Zm15-.06v-1c0-4.33-1.25-6.5-4.12-6.5s-4.13,2.14-4.13,6.5v1c0,4.39,1.29,6.47,4.19,6.47S336.79,66.85,336.79,62.5Z" fill="#fff"/><path d="M344.11,70.88a3.3,3.3,0,0,1,3.37-3.34,3.34,3.34,0,1,1,0,6.67A3.29,3.29,0,0,1,344.11,70.88Z" fill="#fff"/><path d="M638.11,72.37h3.76V73h-3v2.28h2.33v.64h-2.33v2.88h-.78Z" fill="#fff"/><path d="M642.21,76.49v-.07a2.32,2.32,0,1,1,4.63,0v.08a2.32,2.32,0,1,1-4.63,0Zm3.86,0v-.06c0-1.09-.61-1.79-1.54-1.79s-1.54.7-1.54,1.78v.07c0,1.08.58,1.78,1.54,1.78A1.57,1.57,0,0,0,646.07,76.49Z" fill="#fff"/><path d="M647.87,74.1h.74V75a1.63,1.63,0,0,1,1.55-.93v.7c-.94,0-1.55.34-1.55,1.5v2.59h-.74Z" fill="#fff"/><path d="M653.37,74.1h.74v.79a1.94,1.94,0,0,1,1.6-.87,2.14,2.14,0,0,1,2.14,2.37v.07a2.18,2.18,0,0,1-2.14,2.43,1.79,1.79,0,0,1-1.6-.86v2.42h-.74Zm3.7,2.39v-.07c0-1.19-.65-1.78-1.45-1.78s-1.54.58-1.54,1.78v.07c0,1.21.63,1.78,1.55,1.78S657.07,77.64,657.07,76.49Z" fill="#fff"/><path d="M658.49,77.5c0-1.09,1.15-1.46,2.35-1.46h.68V75.7c0-.75-.29-1.06-1-1.06s-1,.27-1.08.85h-.75A1.65,1.65,0,0,1,660.55,74a1.52,1.52,0,0,1,1.72,1.68v3.11h-.75v-.6a1.7,1.7,0,0,1-1.47.68C659.18,78.89,658.49,78.47,658.49,77.5Zm3-.34v-.58h-.65c-.94,0-1.64.23-1.64.92,0,.49.24.79.89.79S661.52,77.89,661.52,77.16Z" fill="#fff"/><path d="M663.48,72.62a.5.5,0,0,1,.5-.49.49.49,0,0,1,.49.49.5.5,0,0,1-.49.5A.51.51,0,0,1,663.48,72.62Zm.14,1.48h.74v4.71h-.74Z" fill="#fff"/><path d="M665.41,76.55v-.07A2.24,2.24,0,0,1,667.6,74a1.68,1.68,0,0,1,1.54.84v-3h.75v7h-.75V78a2,2,0,0,1-1.61.89A2.1,2.1,0,0,1,665.41,76.55Zm3.76-.06v-.08c0-1.2-.58-1.77-1.5-1.77s-1.49.66-1.49,1.8v.07c0,1.19.64,1.76,1.43,1.76S669.17,77.69,669.17,76.49Z" fill="#fff"/><path d="M673,74.1h.81l1.4,4,1.38-4h.77l-1.69,4.71h-.95Z" fill="#fff"/><path d="M677.7,76.5v-.07A2.22,2.22,0,0,1,679.91,74,2.06,2.06,0,0,1,682,76.36v.24h-3.55c0,1.07.55,1.67,1.52,1.67.73,0,1.15-.27,1.25-.82H682a1.83,1.83,0,0,1-2,1.44A2.22,2.22,0,0,1,677.7,76.5Zm3.56-.5c-.08-1-.58-1.36-1.35-1.36A1.41,1.41,0,0,0,678.5,76Z" fill="#fff"/><path d="M683,74.1h.75V75a1.61,1.61,0,0,1,1.54-.93v.7c-.94,0-1.54.34-1.54,1.5v2.59H683Z" fill="#fff"/><path d="M685.85,77.36h.72c.06.56.36.91,1.11.91s1-.25,1-.75-.37-.66-1.1-.79c-1.22-.23-1.64-.57-1.64-1.39A1.47,1.47,0,0,1,687.56,74a1.51,1.51,0,0,1,1.71,1.36h-.72c-.11-.52-.4-.74-1-.74s-.89.27-.89.67.23.6,1.09.75,1.66.4,1.66,1.4-.59,1.43-1.73,1.43S685.89,78.32,685.85,77.36Z" fill="#fff"/><path d="M690.3,72.62a.5.5,0,0,1,.5-.49.49.49,0,0,1,.49.49.5.5,0,0,1-.49.5A.51.51,0,0,1,690.3,72.62Zm.14,1.48h.74v4.71h-.74Z" fill="#fff"/><path d="M692.23,76.49v-.07a2.31,2.31,0,1,1,4.62,0v.08a2.31,2.31,0,1,1-4.62,0Zm3.85,0v-.06c0-1.09-.6-1.79-1.54-1.79s-1.54.7-1.54,1.78v.07c0,1.08.59,1.78,1.54,1.78S696.08,77.56,696.08,76.49Z" fill="#fff"/><path d="M697.88,74.1h.75v.75a1.6,1.6,0,0,1,1.51-.83c1,0,1.65.53,1.65,1.9v2.89h-.74v-3c0-.82-.35-1.19-1.11-1.19A1.23,1.23,0,0,0,698.63,76v2.86h-.75Z" fill="#fff"/><path d="M702.74,77.36h.73c0,.56.35.91,1.1.91s1-.25,1-.75-.37-.66-1.1-.79c-1.22-.23-1.64-.57-1.64-1.39a1.47,1.47,0,0,1,1.6-1.32,1.51,1.51,0,0,1,1.7,1.36h-.72c-.11-.52-.4-.74-1-.74s-.89.27-.89.67.23.6,1.1.75,1.65.4,1.65,1.4-.58,1.43-1.73,1.43S702.78,78.32,702.74,77.36Z" fill="#fff"/><path d="M707.25,78.28a.58.58,0,1,1,.57.57A.57.57,0,0,1,707.25,78.28Z" fill="#fff"/></svg>