<svg xmlns="http://www.w3.org/2000/svg" viewBox="0 0 300 600"><title>Asset 2</title><rect width="300" height="600" fill="none"/><path d="M210,573.52h3.76v.64h-3v2.28h2.32v.64H210.8V580H210Z" fill="#14aa40"/><path d="M214.12,577.64v-.07a2.32,2.32,0,1,1,4.63,0v.07a2.32,2.32,0,1,1-4.63,0Zm3.86,0v-.06c0-1.09-.61-1.79-1.54-1.79s-1.54.7-1.54,1.78v.07c0,1.07.58,1.78,1.54,1.78A1.57,1.57,0,0,0,218,577.64Z" fill="#14aa40"/><path d="M219.77,575.25h.75v.84a1.63,1.63,0,0,1,1.55-.92v.7c-.95,0-1.55.34-1.55,1.5V580h-.75Z" fill="#14aa40"/><path d="M225.27,575.25H226V576a1.93,1.93,0,0,1,1.59-.87,2.14,2.14,0,0,1,2.15,2.37v.07a2.18,2.18,0,0,1-2.15,2.43,1.78,1.78,0,0,1-1.59-.86v2.42h-.75Zm3.71,2.39v-.07c0-1.19-.65-1.78-1.45-1.78s-1.54.58-1.54,1.78v.07c0,1.21.63,1.78,1.55,1.78S229,578.79,229,577.64Z" fill="#14aa40"/><path d="M230.39,578.65c0-1.09,1.16-1.46,2.36-1.46h.68v-.34c0-.75-.29-1.06-1-1.06s-1,.27-1.08.84h-.75a1.65,1.65,0,0,1,1.87-1.46,1.51,1.51,0,0,1,1.71,1.68V580h-.74v-.6A1.71,1.71,0,0,1,232,580C231.09,580,230.39,579.62,230.39,578.65Zm3-.34v-.59h-.65c-.95,0-1.64.24-1.64.93,0,.49.24.79.89.79S233.43,579,233.43,578.31Z" fill="#14aa40"/><path d="M235.39,573.77a.49.49,0,0,1,.49-.49.5.5,0,0,1,.5.49.51.51,0,0,1-.5.5A.5.5,0,0,1,235.39,573.77Zm.13,1.48h.75V580h-.75Z" fill="#14aa40"/><path d="M237.31,577.7v-.08a2.23,2.23,0,0,1,2.2-2.45,1.7,1.7,0,0,1,1.54.83v-3h.75v7h-.75v-.81a2,2,0,0,1-1.61.89A2.11,2.11,0,0,1,237.31,577.7Zm3.77-.07v-.07c0-1.2-.58-1.77-1.5-1.77s-1.49.66-1.49,1.8v.07c0,1.19.64,1.76,1.43,1.76S241.08,578.84,241.08,577.63Z" fill="#14aa40"/><path d="M244.89,575.25h.81l1.4,4,1.38-4h.77L247.56,580h-1Z" fill="#14aa40"/><path d="M249.61,577.65v-.07a2.21,2.21,0,0,1,2.2-2.41,2.06,2.06,0,0,1,2.12,2.34v.24h-3.55c0,1.07.55,1.67,1.52,1.67.72,0,1.15-.27,1.25-.82h.74a1.81,1.81,0,0,1-2,1.44A2.21,2.21,0,0,1,249.61,577.65Zm3.56-.5c-.08-1-.58-1.36-1.36-1.36a1.41,1.41,0,0,0-1.4,1.36Z" fill="#14aa40"/><path d="M254.94,575.25h.74v.84a1.64,1.64,0,0,1,1.55-.92v.7c-.94,0-1.55.34-1.55,1.5V580h-.74Z" fill="#14aa40"/><path d="M257.75,578.51h.73c.06.56.35.91,1.11.91s1-.25,1-.75-.37-.66-1.1-.79c-1.23-.23-1.64-.57-1.64-1.39a1.47,1.47,0,0,1,1.59-1.32,1.5,1.5,0,0,1,1.7,1.36h-.72c-.1-.52-.39-.74-1-.74s-.89.27-.89.67.24.6,1.1.75,1.66.4,1.66,1.4-.59,1.43-1.73,1.43S257.8,579.47,257.75,578.51Z" fill="#14aa40"/><path d="M262.21,573.77a.49.49,0,0,1,.49-.49.5.5,0,0,1,.5.49.51.51,0,0,1-.5.5A.5.5,0,0,1,262.21,573.77Zm.13,1.48h.75V580h-.75Z" fill="#14aa40"/><path d="M264.13,577.64v-.07a2.32,2.32,0,1,1,4.63,0v.07a2.32,2.32,0,1,1-4.63,0Zm3.86,0v-.06c0-1.09-.61-1.79-1.54-1.79s-1.54.7-1.54,1.78v.07c0,1.07.58,1.78,1.54,1.78A1.57,1.57,0,0,0,268,577.64Z" fill="#14aa40"/><path d="M269.79,575.25h.74V576a1.61,1.61,0,0,1,1.52-.83c1,0,1.65.53,1.65,1.9V580H273v-3c0-.83-.36-1.19-1.11-1.19a1.24,1.24,0,0,0-1.32,1.28V580h-.74Z" fill="#14aa40"/><path d="M274.65,578.51h.73c.05.56.35.91,1.1.91s1-.25,1-.75-.37-.66-1.1-.79c-1.22-.23-1.64-.57-1.64-1.39a1.47,1.47,0,0,1,1.6-1.32,1.51,1.51,0,0,1,1.7,1.36h-.72c-.11-.52-.4-.74-1-.74s-.89.27-.89.67.23.6,1.09.75,1.66.4,1.66,1.4-.59,1.43-1.73,1.43S274.69,579.47,274.65,578.51Z" fill="#14aa40"/><path d="M279.16,579.43a.58.58,0,1,1,.57.57A.57.57,0,0,1,279.16,579.43Z" fill="#14aa40"/><path d="M21,67.64H29.8c.22,2.3,1.26,4.18,5.08,4.18,2.65,0,4.13-1.3,4.13-3.19s-1.21-2.52-5.07-3.1C24.85,64.45,21.8,61.75,21.8,55.28c0-5.8,4.76-10,12.45-10s12.09,3.23,12.68,10H38.39c-.32-2.29-1.62-3.46-4.14-3.46s-3.73,1.12-3.73,2.74c0,1.8,1,2.61,5,3.15,8.14.9,12.32,3,12.32,10,0,5.89-4.68,10.7-12.95,10.7C25.89,78.39,21.3,74.61,21,67.64Z" fill="#14aa40"/><path d="M48.5,54.34h8.4l3.42,14.07,4-14.07h6.47l3.51,14.07,3.82-14.07h7.64L78.26,77.85H70.57L67.06,64.72,63.42,77.85H55.6Z" fill="#14aa40"/><path d="M87.6,48A4.44,4.44,0,1,1,92,52.09,4.2,4.2,0,0,1,87.6,48ZM88,54.34h8V77.85H88Z" fill="#14aa40"/><path d="M101.45,70.29V59.82H98.62V54.34h2.83v-4.9h8v4.9h4.63v5.48H109.5v9.71c0,1.71.85,2.47,2.38,2.47a6.11,6.11,0,0,0,2.29-.4v6.11a16.79,16.79,0,0,1-4.45.68C104.42,78.39,101.45,75.82,101.45,70.29Z" fill="#14aa40"/><path d="M115.92,66.38V66c0-7.82,5.62-12.31,12.54-12.31,5.76,0,11.06,2.51,11.51,9.66h-7.55c-.36-2.2-1.44-3.41-3.78-3.41-2.83,0-4.49,2-4.49,6v.36c0,4.09,1.57,6.21,4.63,6.21,2.25,0,3.82-1.35,4.09-3.91h7.24c-.23,5.93-4.23,9.8-11.83,9.8C121.27,78.39,115.92,74.3,115.92,66.38Z" fill="#14aa40"/><path d="M142.71,44h8V58.11a8.31,8.31,0,0,1,7.73-4.4c4.54,0,7.69,2.83,7.69,8.85V77.85h-8.05V64.18c0-2.65-1-4-3.37-4s-4,1.43-4,4.45V77.85h-8Z" fill="#14aa40"/><path d="M179.48,59.82h-3V54.34h3V52.27c0-5.84,3.64-8.63,9.22-8.63a14.32,14.32,0,0,1,3.68.49V50a7.35,7.35,0,0,0-2.2-.31,2.36,2.36,0,0,0-2.7,2.56v2.07h4.77v5.48h-4.77v18h-8Z" fill="#14aa40"/><path d="M194.94,54.34H203V59a7.42,7.42,0,0,1,7.6-5v7.51c-4.9-.14-7.6,1.39-7.6,5.17V77.85h-8.05Z" fill="#14aa40"/><path d="M212,66.38V66c0-7.55,5.62-12.31,12.9-12.31s12.82,4.63,12.82,12.09v.36c0,7.64-5.62,12.23-12.86,12.23S212,74,212,66.38Zm17.54-.13v-.36c0-4-1.58-6.16-4.64-6.16s-4.67,2.11-4.67,6.07v.36c0,4,1.57,6.25,4.67,6.25S229.56,70.16,229.56,66.25Z" fill="#14aa40"/><path d="M240.57,54.34h8v3.59A8.23,8.23,0,0,1,256,53.71c3.1,0,5.26,1.35,6.38,3.91a9.32,9.32,0,0,1,7.78-3.91c4.45,0,7.68,2.87,7.68,8.76V77.85h-8v-14c0-2.38-1.17-3.55-3-3.55-2.15,0-3.59,1.39-3.59,4V77.85h-8v-14c0-2.38-1.17-3.55-3-3.55-2.16,0-3.6,1.39-3.6,4V77.85h-8Z" fill="#14aa40"/><path d="M29.26,99.76H20.94v-7.1h25.9v7.1H38.52v25H29.26Z" fill="#14aa40"/><path d="M47.55,116.62V101.29H55.6v14c0,2.65,1,4,3.33,4s4-1.44,4-4.45V101.29H71V124.8H62.93v-3.64c-1.26,2.42-3.55,4.18-7.46,4.18C50.93,125.34,47.55,122.55,47.55,116.62Z" fill="#14aa40"/><path d="M75.06,101.29h8V106a7.42,7.42,0,0,1,7.6-5v7.51c-4.9-.14-7.6,1.39-7.6,5.17V124.8h-8Z" fill="#14aa40"/><path d="M101.67,121.16v3.64h-8V91h8v13.84a8.32,8.32,0,0,1,7.33-4.13c5.49,0,9.94,4.13,9.94,12.18v.36c0,8.09-4.45,12.14-10,12.14C105.45,125.34,102.84,123.67,101.67,121.16Zm9.08-8v-.36c0-4.14-1.79-6.11-4.63-6.11s-4.67,2.11-4.67,6.06v.36c0,4,1.75,6,4.67,6S110.75,117.06,110.75,113.2Z" fill="#14aa40"/><path d="M120.6,113.33V113c0-7.55,5.62-12.31,12.9-12.31s12.81,4.63,12.81,12.09v.36c0,7.64-5.62,12.23-12.86,12.23S120.6,120.93,120.6,113.33Zm17.53-.13v-.36c0-4-1.57-6.16-4.63-6.16s-4.68,2.11-4.68,6.07v.36c0,4,1.58,6.25,4.68,6.25S138.13,117.11,138.13,113.2Z" fill="#14aa40"/><path d="M156,99.76H147.7v-7.1h25.89v7.1h-8.31v25H156Z" fill="#14aa40"/><path d="M172,118.28c0-5.53,4.67-7.69,12.49-7.69h2.25v-.54c0-2.25-.54-3.73-3.1-3.73a2.89,2.89,0,0,0-3.19,2.79h-7.56c.36-5.67,4.81-8.45,11.24-8.45s10.61,2.65,10.61,8.9V124.8H186.9v-2.75c-1.12,1.71-3.19,3.29-7,3.29C175.71,125.34,172,123.27,172,118.28Zm14.74-1.71v-1.44h-2.11c-3.24,0-4.68.63-4.68,2.56,0,1.35.9,2.21,2.79,2.21C185,119.9,186.72,118.59,186.72,116.57Z" fill="#14aa40"/><path d="M204.56,112.84l-7.32-11.55h9.26l3.64,6.2,3.55-6.2H222l-7.42,10.92,8.14,12.59h-9.26l-4.18-7-4.27,7h-8.23Z" fill="#14aa40"/><path d="M224.3,120.75a4.48,4.48,0,0,1,4.58-4.54,4.54,4.54,0,1,1,0,9.08A4.48,4.48,0,0,1,224.3,120.75Z" fill="#14aa40"/><path d="M21,161.54H29.8c.22,2.3,1.26,4.18,5.08,4.18,2.65,0,4.13-1.3,4.13-3.19s-1.21-2.52-5.07-3.1c-9.09-1.08-12.14-3.78-12.14-10.25,0-5.8,4.76-10,12.45-10s12.09,3.23,12.68,10H38.39c-.32-2.29-1.62-3.46-4.14-3.46s-3.73,1.12-3.73,2.74c0,1.8,1,2.61,5,3.15,8.14.9,12.32,3,12.32,10,0,5.89-4.68,10.7-12.95,10.7C25.89,172.29,21.3,168.51,21,161.54Z" fill="#14aa40"/><path d="M49.44,165.23c0-5.53,4.68-7.69,12.5-7.69h2.25V157c0-2.25-.54-3.73-3.11-3.73a2.89,2.89,0,0,0-3.19,2.79H50.34c.36-5.67,4.81-8.45,11.24-8.45s10.61,2.65,10.61,8.9v15.24H64.37V169c-1.13,1.71-3.2,3.29-7,3.29C53.17,172.29,49.44,170.22,49.44,165.23Zm14.75-1.71v-1.44H62.07c-3.23,0-4.67.63-4.67,2.56,0,1.35.9,2.21,2.79,2.21C62.48,166.85,64.19,165.54,64.19,163.52Z" fill="#14aa40"/><path d="M73.4,148.24H82l4.9,15.15,4.81-15.15h7.68L90.8,171.75H82Z" fill="#14aa40"/><path d="M98.89,160.28v-.36c0-7.55,5.61-12.31,12.72-12.31,6.43,0,12,3.68,12,12.13v2.12H107c.23,3.1,2,4.9,4.9,4.9,2.65,0,3.78-1.22,4.09-2.79h7.55c-.71,5.3-4.81,8.32-11.91,8.32C104.28,172.29,98.89,168,98.89,160.28Zm16.85-3c-.13-2.83-1.53-4.41-4.13-4.41-2.43,0-4.09,1.58-4.5,4.41Z" fill="#14aa40"/><path d="M134.35,163.57V148.24h8.05v14c0,2.65,1,4,3.32,4s4-1.44,4-4.45V148.24h8.05v23.51h-8.05v-3.64c-1.25,2.42-3.55,4.18-7.46,4.18C137.72,172.29,134.35,169.5,134.35,163.57Z" fill="#14aa40"/><path d="M161.86,148.24h8v3.5a8.29,8.29,0,0,1,7.32-4.13c5.49,0,9.94,4.13,9.94,12.18v.36c0,8.09-4.45,12.14-10,12.14-3.55,0-6.12-1.67-7.28-4v11.32h-8ZM179,160.15v-.36c0-4.14-1.8-6.11-4.63-6.11s-4.68,2.11-4.68,6.06v.36c0,4,1.75,6,4.68,6S179,164,179,160.15Z" fill="#14aa40"/><path d="M199.35,164.19V153.72h-2.84v-5.48h2.84v-4.9h8v4.9H212v5.48h-4.63v9.71a2.15,2.15,0,0,0,2.39,2.47,6.15,6.15,0,0,0,2.29-.4v6.11a16.86,16.86,0,0,1-4.45.68C202.31,172.29,199.35,169.72,199.35,164.19Z" fill="#14aa40"/><path d="M213.82,160.28v-.36c0-7.55,5.62-12.31,12.9-12.31s12.81,4.63,12.81,12.09v.36c0,7.64-5.62,12.23-12.85,12.23S213.82,167.88,213.82,160.28Zm17.53-.13v-.36c0-4-1.57-6.16-4.63-6.16s-4.67,2.11-4.67,6.07v.36c0,4,1.57,6.25,4.67,6.25S231.35,164.06,231.35,160.15Z" fill="#14aa40"/></svg>