<svg xmlns="http://www.w3.org/2000/svg" viewBox="0 0 728 90"><title>Asset 1</title><rect width="728" height="90" fill="none"/><path d="M122.24,16.23h6.7v8.88h7.64V16.23h6.66V39.47h-6.66V30.31h-7.64v9.16h-6.7Z" fill="#fff"/><path d="M165.53,34.73l3.87,4.74h-7.57l-1.37-1.69a9.25,9.25,0,0,1-6.27,2.08c-4.94,0-8.16-2.6-8.16-7,0-3,1.82-5.2,5.11-6.76A7.4,7.4,0,0,1,149.71,22c0-4,3.37-6.08,7.47-6.08,3.71,0,7,1.85,7,5.43,0,2.53-1.49,4.39-4.64,5.75l2.92,3.58,1.69-3.32h5.07ZM157.47,34l-3.67-4.42a2.76,2.76,0,0,0-1.56,2.51,2.7,2.7,0,0,0,3,2.89A3,3,0,0,0,157.47,34Zm-.71-9.36c1.56-.74,2.31-1.62,2.31-2.82a1.68,1.68,0,0,0-1.73-1.79,1.85,1.85,0,0,0-1.91,2A4.26,4.26,0,0,0,156.76,24.68Z" fill="#fff"/><path d="M171.51,16.23h9.1c6.08,0,9.46,2.47,9.46,7.38v.13a6.06,6.06,0,0,1-4.19,6.11l5.56,9.62h-7l-4.72-8.32h-1.56v8.32h-6.63Zm8.78,10.6c2.24,0,3.35-.94,3.35-2.83v-.13c0-1.88-1.17-2.63-3.32-2.63h-2.18v5.59Z" fill="#fff"/><path d="M199.59,16.23H210c5.49,0,7.83,2.47,7.83,6.08v.13a4.8,4.8,0,0,1-3.93,5c2.86.48,4.65,2.21,4.65,5.42V33c0,4.16-2.7,6.47-8.45,6.47H199.59Zm9,9.23c2.08,0,2.86-.71,2.86-2.37V23c0-1.59-.85-2.31-2.86-2.31h-2.54v4.81Zm.22,9.56c2.12,0,3.09-1,3.09-2.7v-.13c0-1.75-.94-2.66-3.28-2.66h-2.57V35Z" fill="#fff"/><path d="M220.81,15h5.79V39.47h-5.79Z" fill="#fff"/><path d="M228.81,31.18v-.26c0-5.46,4.06-8.9,9.33-8.9s9.26,3.35,9.26,8.74V31c0,5.53-4.06,8.84-9.3,8.84S228.81,36.68,228.81,31.18Zm12.67-.09v-.26c0-2.86-1.13-4.46-3.34-4.46s-3.38,1.53-3.38,4.39V31c0,2.93,1.13,4.52,3.38,4.52S241.48,33.91,241.48,31.09Z" fill="#fff"/><path d="M248.54,31.18v-.26c0-5.65,4.06-8.9,9.06-8.9,4.16,0,8,1.82,8.32,7h-5.46c-.26-1.6-1-2.47-2.73-2.47-2,0-3.25,1.46-3.25,4.32v.26c0,3,1.14,4.48,3.35,4.48a2.83,2.83,0,0,0,3-2.82H266c-.16,4.29-3,7.08-8.55,7.08C252.4,39.86,248.54,36.9,248.54,31.18Z" fill="#fff"/><path d="M267.91,15h5.81V29.2l4.59-6.73h6l-5.56,7.64,6,9.36h-6.5L273.72,32v7.44h-5.81Z" fill="#fff"/><path d="M291.37,28v-.26c0-7.09,5.33-11.83,12.29-11.83S316,20.36,316,27.58v.26c0,7.15-4.9,12-12.41,12S291.37,35,291.37,28ZM309,27.93v-.26c0-4.12-2.08-6.56-5.36-6.56s-5.33,2.37-5.33,6.6V28c0,4.22,2.14,6.66,5.36,6.66S309,32.09,309,27.93Z" fill="#fff"/><path d="M318.21,22.47H324V25.2A6,6,0,0,1,329.62,22c3.29,0,5.56,2.05,5.56,6.4v11h-5.82V29.59c0-1.92-.75-2.86-2.44-2.86S324,27.77,324,30v9.52h-5.82Z" fill="#fff"/><path d="M338.17,15H344V39.47h-5.78Z" fill="#fff"/><path d="M346.94,17.86a3.21,3.21,0,1,1,3.19,3A3,3,0,0,1,346.94,17.86Zm.3,4.61h5.81v17h-5.81Z" fill="#fff"/><path d="M356.17,22.47H362V25.2A6,6,0,0,1,367.58,22c3.28,0,5.56,2.05,5.56,6.4v11h-5.82V29.59c0-1.92-.75-2.86-2.44-2.86S362,27.77,362,30v9.52h-5.82Z" fill="#fff"/><path d="M375.06,31.18v-.26c0-5.46,4.06-8.9,9.19-8.9,4.65,0,8.65,2.66,8.65,8.77v1.53h-12c.16,2.24,1.46,3.54,3.54,3.54,1.92,0,2.73-.87,3-2h5.46c-.52,3.83-3.48,6-8.61,6C379,39.86,375.06,36.74,375.06,31.18ZM387.24,29c-.09-2.05-1.1-3.19-3-3.19S381.3,27,381,29Z" fill="#fff"/><path d="M399.92,31.18v-.26c0-5.65,4.06-8.9,9.07-8.9,4.16,0,8,1.82,8.32,7h-5.46c-.26-1.6-1-2.47-2.73-2.47-2.05,0-3.25,1.46-3.25,4.32v.26c0,3,1.13,4.48,3.34,4.48a2.82,2.82,0,0,0,3-2.82h5.23c-.16,4.29-3,7.08-8.54,7.08C403.79,39.86,399.92,36.9,399.92,31.18Z" fill="#fff"/><path d="M418.38,31.18v-.26c0-5.46,4.06-8.9,9.33-8.9S437,25.37,437,30.76V31c0,5.53-4.06,8.84-9.3,8.84S418.38,36.68,418.38,31.18Zm12.67-.09v-.26c0-2.86-1.13-4.46-3.34-4.46s-3.38,1.53-3.38,4.39V31c0,2.93,1.13,4.52,3.38,4.52S431.05,33.91,431.05,31.09Z" fill="#fff"/><path d="M438,34.08h5.37c.19,1.23.74,1.91,2.4,1.91,1.43,0,2.08-.55,2.08-1.39s-.81-1.21-3.15-1.53c-4.55-.59-6.47-1.92-6.47-5.46,0-3.77,3.35-5.59,7.28-5.59,4.2,0,7.12,1.43,7.51,5.49h-5.26a1.9,1.9,0,0,0-2.18-1.69c-1.27,0-1.92.55-1.92,1.33s.78,1.14,2.86,1.4c4.71.59,7,1.82,7,5.46,0,4-3,5.85-7.7,5.85S438.1,37.85,438,34.08Z" fill="#fff"/><path d="M456.14,34V26.44h-2.05v-4h2.05V18.93H462v3.54h3.35v4H462v7a1.56,1.56,0,0,0,1.72,1.79,4.35,4.35,0,0,0,1.66-.3v4.42a12,12,0,0,1-3.22.49C458.29,39.86,456.14,38,456.14,34Z" fill="#fff"/><path d="M466.61,34.08H472c.19,1.23.75,1.91,2.4,1.91,1.43,0,2.08-.55,2.08-1.39s-.81-1.21-3.15-1.53c-4.55-.59-6.47-1.92-6.47-5.46,0-3.77,3.35-5.59,7.28-5.59,4.2,0,7.12,1.43,7.51,5.49h-5.26a1.9,1.9,0,0,0-2.18-1.69c-1.27,0-1.92.55-1.92,1.33s.78,1.14,2.86,1.4c4.71.59,7,1.82,7,5.46,0,4-3,5.85-7.7,5.85S466.74,37.85,466.61,34.08Z" fill="#fff"/><path d="M489.78,33.56V22.47h5.82V32.61c0,1.92.74,2.86,2.4,2.86s2.89-1,2.89-3.21V22.47h5.82v17h-5.82V36.84a5.58,5.58,0,0,1-5.39,3C492.22,39.86,489.78,37.85,489.78,33.56Z" fill="#fff"/><path d="M509.67,22.47h5.82V25a6,6,0,0,1,5.29-3c4,0,7.19,3,7.19,8.81v.26c0,5.85-3.22,8.77-7.22,8.77A5.59,5.59,0,0,1,515.49,37v8.19h-5.82Zm12.38,8.62v-.26c0-3-1.3-4.42-3.35-4.42s-3.38,1.52-3.38,4.38v.26c0,2.9,1.27,4.36,3.38,4.36S522.05,33.88,522.05,31.09Z" fill="#fff"/><path d="M122.5,68.51V60.94h-2V57h2V53.43h5.82V57h3.35v4h-3.35v7A1.56,1.56,0,0,0,130,69.75a4.35,4.35,0,0,0,1.66-.3v4.43a12.47,12.47,0,0,1-3.22.48C124.65,74.36,122.5,72.51,122.5,68.51Z" fill="#fff"/><path d="M133,65.68v-.26c0-5.46,4.06-8.9,9.32-8.9s9.27,3.35,9.27,8.74v.26c0,5.53-4.06,8.84-9.3,8.84S133,71.18,133,65.68Zm12.67-.09v-.26c0-2.86-1.13-4.46-3.35-4.46s-3.37,1.53-3.37,4.39v.26c0,2.93,1.13,4.52,3.37,4.52S145.64,68.41,145.64,65.59Z" fill="#fff"/><path d="M163.25,63.34c-3.27-.23-4.87-2-5-4.47h3.51a1.79,1.79,0,0,0,1.49,1.78V57.88c-3.29-.47-4.7-1.67-4.7-4.3,0-2.29,1.8-3.94,4.7-4.15V47.74h1.48v1.71c2.75.22,4.38,1.5,4.61,4.09h-3.43a1.52,1.52,0,0,0-1.18-1.42v2.62c2.9.41,4.8,1.4,4.8,4.15,0,2.31-1.5,4.24-4.8,4.45v2.37h-1.48Zm0-8.83V52.08c-.85.15-1.28.61-1.28,1.21S162.23,54.3,163.25,54.51Zm1.48,3.62v2.52A1.37,1.37,0,0,0,166,59.3C166,58.68,165.74,58.36,164.73,58.13Z" fill="#fff"/><path d="M170.68,66.33h5.92c.19,1.92,1.1,3.22,3.41,3.22,2.05,0,3.05-1,3.05-2.63,0-1.82-1-2.73-3.05-2.73h-1.85V60.06h1.72c2.08,0,3.09-.94,3.09-2.57,0-1.39-.91-2.3-2.67-2.3s-2.83,1.07-3.09,3h-5.88c.29-4.58,3.35-7.73,9.13-7.73,5.46,0,8.75,2.5,8.75,6.37a5,5,0,0,1-3.94,5,5.24,5.24,0,0,1,4.52,5.27c0,4.42-3.28,7.31-9.42,7.31C173.9,74.36,170.88,71.37,170.68,66.33Z" fill="#fff"/><path d="M191.55,62.86v-1c0-7.34,4.58-11.47,10.72-11.47S213,54.21,213,61.75v.91c0,7.38-4.23,11.7-10.86,11.7S191.55,70.17,191.55,62.86Zm14.78-.07v-.94c0-4.26-1.23-6.4-4.06-6.4s-4.06,2.11-4.06,6.4v1c0,4.33,1.27,6.37,4.13,6.37S206.33,67.08,206.33,62.79Z" fill="#fff"/><path d="M221.48,49.5h5.78V74h-5.78Z" fill="#fff"/><path d="M229.47,65.68v-.26c0-5.46,4.07-8.9,9.2-8.9,4.65,0,8.65,2.66,8.65,8.77v1.53h-12c.16,2.24,1.46,3.54,3.54,3.54,1.92,0,2.73-.87,3-2h5.46c-.52,3.83-3.48,6-8.62,6C233.37,74.36,229.47,71.24,229.47,65.68Zm12.19-2.14c-.1-2-1.1-3.19-3-3.19s-3,1.14-3.25,3.19Z" fill="#fff"/><path d="M248.35,68.58h5.37c.19,1.23.75,1.91,2.4,1.91,1.43,0,2.08-.55,2.08-1.39s-.81-1.21-3.15-1.53c-4.55-.59-6.47-1.92-6.47-5.46,0-3.77,3.35-5.59,7.28-5.59,4.2,0,7.12,1.43,7.51,5.49h-5.26a1.9,1.9,0,0,0-2.18-1.69c-1.27,0-1.92.55-1.92,1.33s.78,1.14,2.86,1.4c4.71.59,7,1.82,7,5.46,0,4-3,5.85-7.7,5.85S248.48,72.35,248.35,68.58Z" fill="#fff"/><path d="M264.7,68.58h5.36c.2,1.23.75,1.91,2.41,1.91,1.43,0,2.08-.55,2.08-1.39s-.81-1.21-3.15-1.53c-4.55-.59-6.47-1.92-6.47-5.46,0-3.77,3.35-5.59,7.28-5.59,4.19,0,7.12,1.43,7.51,5.49h-5.27a1.89,1.89,0,0,0-2.18-1.69c-1.26,0-1.91.55-1.91,1.33s.78,1.14,2.86,1.4c4.71.59,7,1.82,7,5.46,0,4-3,5.85-7.71,5.85S264.83,72.35,264.7,68.58Z" fill="#fff"/><path d="M288.78,68.51V60.94h-2V57h2V53.43h5.82V57H298v4H294.6v7a1.56,1.56,0,0,0,1.72,1.79,4.35,4.35,0,0,0,1.66-.3v4.43a12.47,12.47,0,0,1-3.22.48C290.93,74.36,288.78,72.51,288.78,68.51Z" fill="#fff"/><path d="M300.16,49.5H306V59.7a6,6,0,0,1,5.59-3.18c3.28,0,5.55,2,5.55,6.4V74h-5.81V64.09c0-1.92-.75-2.86-2.44-2.86s-2.89,1-2.89,3.22V74h-5.82Z" fill="#fff"/><path d="M319,69.26c0-4,3.38-5.56,9-5.56h1.63v-.39c0-1.62-.39-2.7-2.25-2.7a2.09,2.09,0,0,0-2.3,2h-5.46c.26-4.1,3.47-6.11,8.12-6.11s7.67,1.92,7.67,6.43V74h-5.65V72a5.61,5.61,0,0,1-5,2.37C321.67,74.36,319,72.87,319,69.26ZM329.64,68V67h-1.53c-2.34,0-3.38.46-3.38,1.86,0,1,.65,1.59,2,1.59C328.4,70.43,329.64,69.49,329.64,68Z" fill="#fff"/><path d="M338.25,57h5.82V59.7a6,6,0,0,1,5.59-3.18c3.28,0,5.55,2,5.55,6.4V74H349.4V64.09c0-1.92-.75-2.86-2.44-2.86s-2.89,1-2.89,3.22V74h-5.82Z" fill="#fff"/><path d="M368.93,55.87h-6V50.73h18.72v5.14h-6V74h-6.69Z" fill="#fff"/><path d="M382.16,68.06V57H388V67.11c0,1.92.75,2.86,2.41,2.86s2.89-1,2.89-3.21V57h5.82V74h-5.82V71.34a5.59,5.59,0,0,1-5.39,3C384.59,74.36,382.16,72.35,382.16,68.06Z" fill="#fff"/><path d="M402,57h5.82v3.38a5.36,5.36,0,0,1,5.5-3.6v5.42c-3.55-.09-5.5,1-5.5,3.74V74H402Z" fill="#fff"/><path d="M421.29,71.34V74h-5.82V49.5h5.82v10a6,6,0,0,1,5.29-3c4,0,7.19,3,7.19,8.81v.26c0,5.85-3.22,8.77-7.22,8.77A5.5,5.5,0,0,1,421.29,71.34Zm6.56-5.75v-.26c0-3-1.3-4.42-3.35-4.42s-3.38,1.52-3.38,4.38v.26c0,2.9,1.27,4.36,3.38,4.36S427.85,68.38,427.85,65.59Z" fill="#fff"/><path d="M435,65.68v-.26c0-5.46,4.06-8.9,9.32-8.9s9.27,3.35,9.27,8.74v.26c0,5.53-4.06,8.84-9.3,8.84S435,71.18,435,65.68Zm12.67-.09v-.26c0-2.86-1.14-4.46-3.35-4.46s-3.37,1.53-3.37,4.39v.26c0,2.93,1.13,4.52,3.37,4.52S447.64,68.41,447.64,65.59Z" fill="#fff"/><path d="M460.58,55.87h-6V50.73h18.73v5.14h-6V74h-6.69Z" fill="#fff"/><path d="M472.12,69.26c0-4,3.38-5.56,9-5.56h1.63v-.39c0-1.62-.39-2.7-2.25-2.7a2.09,2.09,0,0,0-2.3,2h-5.47c.27-4.1,3.48-6.11,8.13-6.11s7.67,1.92,7.67,6.43V74h-5.65V72a5.61,5.61,0,0,1-5,2.37C474.81,74.36,472.12,72.87,472.12,69.26ZM482.78,68V67h-1.53c-2.34,0-3.38.46-3.38,1.86,0,1,.65,1.59,2,1.59C481.54,70.43,482.78,69.49,482.78,68Z" fill="#fff"/><path d="M495.68,65.33,490.38,57h6.69l2.64,4.49L502.28,57h6l-5.36,7.9,5.89,9.1h-6.7l-3-5.07L496,74h-6Z" fill="#fff"/><path d="M509.94,71.05a3.25,3.25,0,0,1,3.32-3.29,3.29,3.29,0,1,1,0,6.57A3.24,3.24,0,0,1,509.94,71.05Z" fill="#fff"/><path d="M638.11,72.37h3.76V73h-3v2.28h2.33v.64h-2.33v2.88h-.78Z" fill="#fff"/><path d="M642.21,76.49v-.07a2.32,2.32,0,1,1,4.63,0v.08a2.32,2.32,0,1,1-4.63,0Zm3.86,0v-.06c0-1.09-.61-1.79-1.54-1.79s-1.54.7-1.54,1.78v.07c0,1.08.58,1.78,1.54,1.78A1.57,1.57,0,0,0,646.07,76.49Z" fill="#fff"/><path d="M647.87,74.1h.74V75a1.63,1.63,0,0,1,1.55-.93v.7c-.94,0-1.55.34-1.55,1.5v2.59h-.74Z" fill="#fff"/><path d="M653.37,74.1h.74v.79a1.94,1.94,0,0,1,1.6-.87,2.14,2.14,0,0,1,2.14,2.37v.07a2.18,2.18,0,0,1-2.14,2.43,1.79,1.79,0,0,1-1.6-.86v2.42h-.74Zm3.7,2.39v-.07c0-1.19-.65-1.78-1.45-1.78s-1.54.58-1.54,1.78v.07c0,1.21.63,1.78,1.55,1.78S657.07,77.64,657.07,76.49Z" fill="#fff"/><path d="M658.49,77.5c0-1.09,1.15-1.46,2.35-1.46h.68V75.7c0-.75-.29-1.06-1-1.06s-1,.27-1.08.85h-.75A1.65,1.65,0,0,1,660.55,74a1.52,1.52,0,0,1,1.72,1.68v3.11h-.75v-.6a1.7,1.7,0,0,1-1.47.68C659.18,78.89,658.49,78.47,658.49,77.5Zm3-.34v-.58h-.65c-.94,0-1.64.23-1.64.92,0,.49.24.79.89.79S661.52,77.89,661.52,77.16Z" fill="#fff"/><path d="M663.48,72.62a.5.5,0,0,1,.5-.49.49.49,0,0,1,.49.49.5.5,0,0,1-.49.5A.51.51,0,0,1,663.48,72.62Zm.14,1.48h.74v4.71h-.74Z" fill="#fff"/><path d="M665.41,76.55v-.07A2.24,2.24,0,0,1,667.6,74a1.68,1.68,0,0,1,1.54.84v-3h.75v7h-.75V78a2,2,0,0,1-1.61.89A2.1,2.1,0,0,1,665.41,76.55Zm3.76-.06v-.08c0-1.2-.58-1.77-1.5-1.77s-1.49.66-1.49,1.8v.07c0,1.19.64,1.76,1.43,1.76S669.17,77.69,669.17,76.49Z" fill="#fff"/><path d="M673,74.1h.81l1.4,4,1.38-4h.77l-1.69,4.71h-.95Z" fill="#fff"/><path d="M677.7,76.5v-.07A2.22,2.22,0,0,1,679.91,74,2.06,2.06,0,0,1,682,76.36v.24h-3.55c0,1.07.55,1.67,1.52,1.67.73,0,1.15-.27,1.25-.82H682a1.83,1.83,0,0,1-2,1.44A2.22,2.22,0,0,1,677.7,76.5Zm3.56-.5c-.08-1-.58-1.36-1.35-1.36A1.41,1.41,0,0,0,678.5,76Z" fill="#fff"/><path d="M683,74.1h.75V75a1.61,1.61,0,0,1,1.54-.93v.7c-.94,0-1.54.34-1.54,1.5v2.59H683Z" fill="#fff"/><path d="M685.85,77.36h.72c.06.56.36.91,1.11.91s1-.25,1-.75-.37-.66-1.1-.79c-1.22-.23-1.64-.57-1.64-1.39A1.47,1.47,0,0,1,687.56,74a1.51,1.51,0,0,1,1.71,1.36h-.72c-.11-.52-.4-.74-1-.74s-.89.27-.89.67.23.6,1.09.75,1.66.4,1.66,1.4-.59,1.43-1.73,1.43S685.89,78.32,685.85,77.36Z" fill="#fff"/><path d="M690.3,72.62a.5.5,0,0,1,.5-.49.49.49,0,0,1,.49.49.5.5,0,0,1-.49.5A.51.51,0,0,1,690.3,72.62Zm.14,1.48h.74v4.71h-.74Z" fill="#fff"/><path d="M692.23,76.49v-.07a2.31,2.31,0,1,1,4.62,0v.08a2.31,2.31,0,1,1-4.62,0Zm3.85,0v-.06c0-1.09-.6-1.79-1.54-1.79s-1.54.7-1.54,1.78v.07c0,1.08.59,1.78,1.54,1.78S696.08,77.56,696.08,76.49Z" fill="#fff"/><path d="M697.88,74.1h.75v.75a1.6,1.6,0,0,1,1.51-.83c1,0,1.65.53,1.65,1.9v2.89h-.74v-3c0-.82-.35-1.19-1.11-1.19A1.23,1.23,0,0,0,698.63,76v2.86h-.75Z" fill="#fff"/><path d="M702.74,77.36h.73c0,.56.35.91,1.1.91s1-.25,1-.75-.37-.66-1.1-.79c-1.22-.23-1.64-.57-1.64-1.39a1.47,1.47,0,0,1,1.6-1.32,1.51,1.51,0,0,1,1.7,1.36h-.72c-.11-.52-.4-.74-1-.74s-.89.27-.89.67.23.6,1.1.75,1.65.4,1.65,1.4-.58,1.43-1.73,1.43S702.78,78.32,702.74,77.36Z" fill="#fff"/><path d="M707.25,78.28a.58.58,0,1,1,.57.57A.57.57,0,0,1,707.25,78.28Z" fill="#fff"/></svg>