<?xml version="1.0" encoding="utf-8"?>
<!-- Generator: Adobe Illustrator 24.0.2, SVG Export Plug-In . SVG Version: 6.00 Build 0)  -->
<svg version="1.1" id="Layer_1" xmlns="http://www.w3.org/2000/svg" xmlns:xlink="http://www.w3.org/1999/xlink" x="0px" y="0px"
	 viewBox="0 0 300 600" style="enable-background:new 0 0 300 600;" xml:space="preserve">
<style type="text/css">
	.st0{fill:#14AA40;}
</style>
<g id="legal">
	<path class="st0" d="M157.5,562.2c0.4-0.1,0.9-0.1,1.5-0.1c0.8,0,1.3,0.2,1.7,0.5c0.3,0.3,0.5,0.7,0.5,1.3c0,0.5-0.2,1-0.5,1.3
		c-0.4,0.4-1.1,0.7-1.9,0.7c-0.2,0-0.4,0-0.6-0.1v2.4h-0.8V562.2z M158.3,565.1c0.2,0,0.4,0.1,0.6,0.1c0.9,0,1.5-0.5,1.5-1.3
		c0-0.8-0.6-1.2-1.4-1.2c-0.3,0-0.6,0-0.7,0.1V565.1z"/>
	<path class="st0" d="M162.1,565.2c0-0.5,0-1,0-1.4h0.7l0,0.9h0c0.2-0.6,0.7-1,1.2-1c0.1,0,0.2,0,0.2,0v0.7c-0.1,0-0.2,0-0.3,0
		c-0.6,0-1,0.4-1.1,1c0,0.1,0,0.2,0,0.4v2.3h-0.8V565.2z"/>
	<path class="st0" d="M166,562.6c0,0.3-0.2,0.5-0.5,0.5c-0.3,0-0.5-0.2-0.5-0.5c0-0.3,0.2-0.5,0.5-0.5
		C165.8,562.1,166,562.3,166,562.6z M165.1,568.1v-4.4h0.8v4.4H165.1z"/>
	<path class="st0" d="M170.3,568c-0.2,0.1-0.7,0.3-1.3,0.3c-1.3,0-2.2-0.9-2.2-2.2c0-1.3,0.9-2.3,2.3-2.3c0.5,0,0.9,0.1,1.1,0.2
		l-0.2,0.6c-0.2-0.1-0.5-0.2-0.9-0.2c-1,0-1.5,0.7-1.5,1.6c0,1,0.6,1.6,1.5,1.6c0.5,0,0.7-0.1,1-0.2L170.3,568z"/>
	<path class="st0" d="M171.6,566.1c0,1.1,0.7,1.5,1.5,1.5c0.6,0,0.9-0.1,1.2-0.2l0.1,0.6c-0.3,0.1-0.8,0.3-1.4,0.3
		c-1.3,0-2.1-0.9-2.1-2.2s0.8-2.3,2-2.3c1.4,0,1.8,1.3,1.8,2.1c0,0.2,0,0.3,0,0.4H171.6z M173.9,565.5c0-0.5-0.2-1.3-1.1-1.3
		c-0.8,0-1.2,0.7-1.2,1.3H173.9z"/>
	<path class="st0" d="M181.4,561.8v5.3c0,0.4,0,0.8,0,1.1h-0.7l0-0.8h0c-0.2,0.5-0.8,0.9-1.5,0.9c-1.1,0-1.9-0.9-1.9-2.2
		c0-1.5,0.9-2.3,2-2.3c0.7,0,1.1,0.3,1.3,0.7h0v-2.6H181.4z M180.6,565.6c0-0.1,0-0.2,0-0.3c-0.1-0.5-0.5-0.9-1.1-0.9
		c-0.8,0-1.3,0.7-1.3,1.7c0,0.9,0.4,1.6,1.3,1.6c0.5,0,1-0.4,1.2-0.9c0-0.1,0-0.2,0-0.3V565.6z"/>
	<path class="st0" d="M183.6,562.6c0,0.3-0.2,0.5-0.5,0.5c-0.3,0-0.5-0.2-0.5-0.5c0-0.3,0.2-0.5,0.5-0.5
		C183.4,562.1,183.6,562.3,183.6,562.6z M182.7,568.1v-4.4h0.8v4.4H182.7z"/>
	<path class="st0" d="M187.5,568.1v-3.8h-1.8v3.8h-0.8v-3.8h-0.6v-0.6h0.6v-0.1c0-0.6,0.1-1.1,0.5-1.5c0.3-0.3,0.6-0.4,1.1-0.4
		c0.3,0,0.5,0.1,0.6,0.2l-0.2,0.6c-0.1-0.1-0.3-0.1-0.5-0.1c-0.6,0-0.8,0.5-0.8,1.2v0.2h1.8v-0.2c0-0.6,0.1-1.2,0.5-1.5
		c0.3-0.3,0.7-0.4,1.1-0.4c0.3,0,0.5,0.1,0.7,0.1l-0.1,0.6c-0.1-0.1-0.3-0.1-0.5-0.1c-0.7,0-0.8,0.6-0.8,1.3v0.2h1.1v0.6h-1v3.8
		H187.5z"/>
	<path class="st0" d="M190.4,566.1c0,1.1,0.7,1.5,1.5,1.5c0.6,0,0.9-0.1,1.2-0.2l0.1,0.6c-0.3,0.1-0.8,0.3-1.4,0.3
		c-1.3,0-2.1-0.9-2.1-2.2s0.8-2.3,2-2.3c1.4,0,1.8,1.3,1.8,2.1c0,0.2,0,0.3,0,0.4H190.4z M192.7,565.5c0-0.5-0.2-1.3-1.1-1.3
		c-0.8,0-1.2,0.7-1.2,1.3H192.7z"/>
	<path class="st0" d="M194.4,565.2c0-0.5,0-1,0-1.4h0.7l0,0.9h0c0.2-0.6,0.7-1,1.2-1c0.1,0,0.2,0,0.2,0v0.7c-0.1,0-0.2,0-0.3,0
		c-0.6,0-1,0.4-1.1,1c0,0.1,0,0.2,0,0.4v2.3h-0.8V565.2z"/>
	<path class="st0" d="M197.7,566.1c0,1.1,0.7,1.5,1.5,1.5c0.6,0,0.9-0.1,1.2-0.2l0.1,0.6c-0.3,0.1-0.8,0.3-1.4,0.3
		c-1.3,0-2.1-0.9-2.1-2.2s0.8-2.3,2-2.3c1.4,0,1.8,1.3,1.8,2.1c0,0.2,0,0.3,0,0.4H197.7z M200,565.5c0-0.5-0.2-1.3-1.1-1.3
		c-0.8,0-1.2,0.7-1.2,1.3H200z"/>
	<path class="st0" d="M201.8,565c0-0.5,0-0.8,0-1.2h0.7l0,0.7h0c0.2-0.4,0.7-0.8,1.4-0.8c0.6,0,1.5,0.4,1.5,1.9v2.6h-0.8v-2.5
		c0-0.7-0.3-1.3-1-1.3c-0.5,0-0.9,0.4-1.1,0.8c0,0.1-0.1,0.2-0.1,0.4v2.6h-0.8V565z"/>
	<path class="st0" d="M209.9,568c-0.2,0.1-0.7,0.3-1.3,0.3c-1.3,0-2.2-0.9-2.2-2.2c0-1.3,0.9-2.3,2.3-2.3c0.5,0,0.9,0.1,1.1,0.2
		l-0.2,0.6c-0.2-0.1-0.5-0.2-0.9-0.2c-1,0-1.5,0.7-1.5,1.6c0,1,0.6,1.6,1.5,1.6c0.5,0,0.7-0.1,1-0.2L209.9,568z"/>
	<path class="st0" d="M211.2,566.1c0,1.1,0.7,1.5,1.5,1.5c0.6,0,0.9-0.1,1.2-0.2l0.1,0.6c-0.3,0.1-0.8,0.3-1.4,0.3
		c-1.3,0-2.1-0.9-2.1-2.2s0.8-2.3,2-2.3c1.4,0,1.8,1.3,1.8,2.1c0,0.2,0,0.3,0,0.4H211.2z M213.5,565.5c0-0.5-0.2-1.3-1.1-1.3
		c-0.8,0-1.2,0.7-1.2,1.3H213.5z"/>
	<path class="st0" d="M217.1,568.1c0-0.3,0-0.7,0-1.1v-5.3h0.8v2.7h0c0.3-0.5,0.8-0.8,1.5-0.8c1.1,0,1.8,0.9,1.8,2.2
		c0,1.6-1,2.3-2,2.3c-0.6,0-1.1-0.2-1.5-0.8h0l0,0.7H217.1z M218,566.4c0,0.1,0,0.2,0,0.3c0.2,0.5,0.6,0.9,1.2,0.9
		c0.8,0,1.3-0.7,1.3-1.7c0-0.9-0.4-1.6-1.3-1.6c-0.5,0-1,0.4-1.2,1c0,0.1,0,0.2,0,0.3V566.4z"/>
	<path class="st0" d="M224.7,568.1l-0.1-0.5h0c-0.2,0.3-0.7,0.6-1.3,0.6c-0.9,0-1.3-0.6-1.3-1.3c0-1.1,0.9-1.6,2.6-1.6v-0.1
		c0-0.4-0.1-1-1-1c-0.4,0-0.8,0.1-1.1,0.3l-0.2-0.5c0.4-0.2,0.9-0.4,1.4-0.4c1.3,0,1.7,0.9,1.7,1.8v1.6c0,0.4,0,0.7,0.1,1H224.7z
		 M224.6,565.9c-0.9,0-1.8,0.1-1.8,1c0,0.5,0.3,0.8,0.7,0.8c0.6,0,0.9-0.4,1.1-0.7c0-0.1,0-0.2,0-0.3V565.9z"/>
	<path class="st0" d="M226.5,567.3c0.2,0.2,0.6,0.3,1,0.3c0.6,0,0.8-0.3,0.8-0.6c0-0.4-0.2-0.6-0.8-0.8c-0.8-0.3-1.2-0.7-1.2-1.2
		c0-0.7,0.6-1.3,1.5-1.3c0.4,0,0.8,0.1,1.1,0.3l-0.2,0.6c-0.2-0.1-0.5-0.3-0.9-0.3c-0.5,0-0.7,0.3-0.7,0.6c0,0.4,0.3,0.5,0.8,0.7
		c0.8,0.3,1.1,0.7,1.1,1.3c0,0.8-0.6,1.3-1.6,1.3c-0.5,0-0.9-0.1-1.2-0.3L226.5,567.3z"/>
	<path class="st0" d="M230.6,566.1c0,1.1,0.7,1.5,1.5,1.5c0.6,0,0.9-0.1,1.2-0.2l0.1,0.6c-0.3,0.1-0.8,0.3-1.4,0.3
		c-1.3,0-2.1-0.9-2.1-2.2s0.8-2.3,2-2.3c1.4,0,1.8,1.3,1.8,2.1c0,0.2,0,0.3,0,0.4H230.6z M233,565.5c0-0.5-0.2-1.3-1.1-1.3
		c-0.8,0-1.2,0.7-1.2,1.3H233z"/>
	<path class="st0" d="M238.5,561.8v5.3c0,0.4,0,0.8,0,1.1h-0.7l0-0.8h0c-0.2,0.5-0.8,0.9-1.5,0.9c-1.1,0-1.9-0.9-1.9-2.2
		c0-1.5,0.9-2.3,2-2.3c0.7,0,1.1,0.3,1.3,0.7h0v-2.6H238.5z M237.7,565.6c0-0.1,0-0.2,0-0.3c-0.1-0.5-0.5-0.9-1.1-0.9
		c-0.8,0-1.3,0.7-1.3,1.7c0,0.9,0.4,1.6,1.3,1.6c0.5,0,1-0.4,1.2-0.9c0-0.1,0-0.2,0-0.3V565.6z"/>
	<path class="st0" d="M245.6,565.9c0,1.6-1.1,2.3-2.2,2.3c-1.2,0-2.1-0.9-2.1-2.2c0-1.5,1-2.3,2.2-2.3
		C244.8,563.7,245.6,564.6,245.6,565.9z M242.2,566c0,1,0.5,1.7,1.3,1.7c0.8,0,1.3-0.7,1.3-1.7c0-0.7-0.4-1.7-1.3-1.7
		S242.2,565.2,242.2,566z"/>
	<path class="st0" d="M246.6,565c0-0.5,0-0.8,0-1.2h0.7l0,0.7h0c0.2-0.4,0.7-0.8,1.4-0.8c0.6,0,1.5,0.4,1.5,1.9v2.6h-0.8v-2.5
		c0-0.7-0.3-1.3-1-1.3c-0.5,0-0.9,0.4-1.1,0.8c0,0.1-0.1,0.2-0.1,0.4v2.6h-0.8V565z"/>
	<path class="st0" d="M256.6,568c-0.2,0.1-0.7,0.3-1.3,0.3c-1.3,0-2.2-0.9-2.2-2.2c0-1.3,0.9-2.3,2.3-2.3c0.5,0,0.9,0.1,1.1,0.2
		l-0.2,0.6c-0.2-0.1-0.5-0.2-0.9-0.2c-1,0-1.5,0.7-1.5,1.6c0,1,0.6,1.6,1.5,1.6c0.5,0,0.7-0.1,1-0.2L256.6,568z"/>
	<path class="st0" d="M261.5,565.9c0,1.6-1.1,2.3-2.2,2.3c-1.2,0-2.1-0.9-2.1-2.2c0-1.5,1-2.3,2.2-2.3
		C260.6,563.7,261.5,564.6,261.5,565.9z M258,566c0,1,0.5,1.7,1.3,1.7c0.8,0,1.3-0.7,1.3-1.7c0-0.7-0.4-1.7-1.3-1.7
		C258.4,564.3,258,565.2,258,566z"/>
	<path class="st0" d="M262.3,567.3c0.2,0.2,0.6,0.3,1,0.3c0.6,0,0.8-0.3,0.8-0.6c0-0.4-0.2-0.6-0.8-0.8c-0.8-0.3-1.2-0.7-1.2-1.2
		c0-0.7,0.6-1.3,1.5-1.3c0.4,0,0.8,0.1,1.1,0.3l-0.2,0.6c-0.2-0.1-0.5-0.3-0.9-0.3c-0.5,0-0.7,0.3-0.7,0.6c0,0.4,0.3,0.5,0.8,0.7
		c0.8,0.3,1.1,0.7,1.1,1.3c0,0.8-0.6,1.3-1.6,1.3c-0.5,0-0.9-0.1-1.2-0.3L262.3,567.3z"/>
	<path class="st0" d="M267,562.5v1.3h1.1v0.6H267v2.3c0,0.5,0.2,0.8,0.6,0.8c0.2,0,0.4,0,0.5-0.1l0,0.6c-0.2,0.1-0.4,0.1-0.7,0.1
		c-0.4,0-0.7-0.1-0.9-0.3c-0.2-0.2-0.3-0.6-0.3-1.1v-2.4h-0.7v-0.6h0.7v-1L267,562.5z"/>
	<path class="st0" d="M271,568.1v-3.8h-0.6v-0.6h0.6v-0.2c0-0.6,0.1-1.2,0.5-1.5c0.3-0.3,0.7-0.4,1.1-0.4c0.3,0,0.5,0.1,0.7,0.1
		l-0.1,0.6c-0.1-0.1-0.3-0.1-0.5-0.1c-0.7,0-0.8,0.6-0.8,1.3v0.2h1.1v0.6h-1.1v3.8H271z"/>
	<path class="st0" d="M277.4,565.9c0,1.6-1.1,2.3-2.2,2.3c-1.2,0-2.1-0.9-2.1-2.2c0-1.5,1-2.3,2.2-2.3
		C276.5,563.7,277.4,564.6,277.4,565.9z M273.9,566c0,1,0.5,1.7,1.3,1.7c0.8,0,1.3-0.7,1.3-1.7c0-0.7-0.4-1.7-1.3-1.7
		C274.3,564.3,273.9,565.2,273.9,566z"/>
	<path class="st0" d="M278.4,565.2c0-0.5,0-1,0-1.4h0.7l0,0.9h0c0.2-0.6,0.7-1,1.2-1c0.1,0,0.2,0,0.2,0v0.7c-0.1,0-0.2,0-0.3,0
		c-0.6,0-1,0.4-1.1,1c0,0.1,0,0.2,0,0.4v2.3h-0.8V565.2z"/>
	<path class="st0" d="M175.5,578.9v-3.8h-0.6v-0.6h0.6v-0.2c0-0.6,0.1-1.2,0.5-1.5c0.3-0.3,0.7-0.4,1.1-0.4c0.3,0,0.5,0.1,0.7,0.1
		l-0.1,0.6c-0.1-0.1-0.3-0.1-0.5-0.1c-0.7,0-0.8,0.6-0.8,1.3v0.2h1.1v0.6h-1.1v3.8H175.5z"/>
	<path class="st0" d="M178.4,576.9c0,1.1,0.7,1.5,1.5,1.5c0.6,0,0.9-0.1,1.2-0.2l0.1,0.6c-0.3,0.1-0.8,0.3-1.4,0.3
		c-1.3,0-2.1-0.9-2.1-2.2s0.8-2.3,2-2.3c1.4,0,1.8,1.3,1.8,2.1c0,0.2,0,0.3,0,0.4H178.4z M180.7,576.3c0-0.5-0.2-1.3-1.1-1.3
		c-0.8,0-1.2,0.7-1.2,1.3H180.7z"/>
	<path class="st0" d="M186.2,572.6v5.3c0,0.4,0,0.8,0,1.1h-0.7l0-0.8h0c-0.2,0.5-0.8,0.9-1.5,0.9c-1.1,0-1.9-0.9-1.9-2.2
		c0-1.5,0.9-2.3,2-2.3c0.7,0,1.1,0.3,1.3,0.7h0v-2.6H186.2z M185.4,576.4c0-0.1,0-0.2,0-0.3c-0.1-0.5-0.5-0.9-1.1-0.9
		c-0.8,0-1.3,0.7-1.3,1.7c0,0.9,0.4,1.6,1.3,1.6c0.5,0,1-0.4,1.2-0.9c0-0.1,0-0.2,0-0.3V576.4z"/>
	<path class="st0" d="M188,576.9c0,1.1,0.7,1.5,1.5,1.5c0.6,0,0.9-0.1,1.2-0.2l0.1,0.6c-0.3,0.1-0.8,0.3-1.4,0.3
		c-1.3,0-2.1-0.9-2.1-2.2s0.8-2.3,2-2.3c1.4,0,1.8,1.3,1.8,2.1c0,0.2,0,0.3,0,0.4H188z M190.3,576.3c0-0.5-0.2-1.3-1.1-1.3
		c-0.8,0-1.2,0.7-1.2,1.3H190.3z"/>
	<path class="st0" d="M192,576c0-0.5,0-1,0-1.4h0.7l0,0.9h0c0.2-0.6,0.7-1,1.2-1c0.1,0,0.2,0,0.2,0v0.7c-0.1,0-0.2,0-0.3,0
		c-0.6,0-1,0.4-1.1,1c0,0.1,0,0.2,0,0.4v2.3H192V576z"/>
	<path class="st0" d="M197.3,578.9l-0.1-0.5h0c-0.2,0.3-0.7,0.6-1.3,0.6c-0.9,0-1.3-0.6-1.3-1.3c0-1.1,0.9-1.6,2.6-1.6v-0.1
		c0-0.4-0.1-1-1-1c-0.4,0-0.8,0.1-1.1,0.3l-0.2-0.5c0.4-0.2,0.9-0.4,1.4-0.4c1.3,0,1.7,0.9,1.7,1.8v1.6c0,0.4,0,0.7,0.1,1H197.3z
		 M197.2,576.7c-0.9,0-1.8,0.1-1.8,1c0,0.5,0.3,0.8,0.7,0.8c0.6,0,0.9-0.4,1.1-0.7c0-0.1,0-0.2,0-0.3V576.7z"/>
	<path class="st0" d="M199.3,572.6h0.8v6.4h-0.8V572.6z"/>
	<path class="st0" d="M205.7,578.9l-0.1-0.5h0c-0.2,0.3-0.7,0.6-1.3,0.6c-0.9,0-1.3-0.6-1.3-1.3c0-1.1,0.9-1.6,2.6-1.6v-0.1
		c0-0.4-0.1-1-1-1c-0.4,0-0.8,0.1-1.1,0.3l-0.2-0.5c0.4-0.2,0.9-0.4,1.4-0.4c1.3,0,1.7,0.9,1.7,1.8v1.6c0,0.4,0,0.7,0.1,1H205.7z
		 M205.6,576.7c-0.9,0-1.8,0.1-1.8,1c0,0.5,0.3,0.8,0.7,0.8c0.6,0,0.9-0.4,1.1-0.7c0-0.1,0-0.2,0-0.3V576.7z"/>
	<path class="st0" d="M207.6,575.8c0-0.5,0-0.8,0-1.2h0.7l0,0.7h0c0.2-0.4,0.7-0.8,1.4-0.8c0.6,0,1.5,0.4,1.5,1.9v2.6h-0.8v-2.5
		c0-0.7-0.3-1.3-1-1.3c-0.5,0-0.9,0.4-1.1,0.8c0,0.1-0.1,0.2-0.1,0.4v2.6h-0.8V575.8z"/>
	<path class="st0" d="M216.4,572.6v5.3c0,0.4,0,0.8,0,1.1h-0.7l0-0.8h0c-0.2,0.5-0.8,0.9-1.5,0.9c-1.1,0-1.9-0.9-1.9-2.2
		c0-1.5,0.9-2.3,2-2.3c0.7,0,1.1,0.3,1.3,0.7h0v-2.6H216.4z M215.6,576.4c0-0.1,0-0.2,0-0.3c-0.1-0.5-0.5-0.9-1.1-0.9
		c-0.8,0-1.3,0.7-1.3,1.7c0,0.9,0.4,1.6,1.3,1.6c0.5,0,1-0.4,1.2-0.9c0-0.1,0-0.2,0-0.3V576.4z"/>
	<path class="st0" d="M223.6,576.7c0,1.6-1.1,2.3-2.2,2.3c-1.2,0-2.1-0.9-2.1-2.2c0-1.5,1-2.3,2.2-2.3
		C222.7,574.5,223.6,575.4,223.6,576.7z M220.1,576.8c0,1,0.5,1.7,1.3,1.7c0.8,0,1.3-0.7,1.3-1.7c0-0.7-0.4-1.7-1.3-1.7
		S220.1,576,220.1,576.8z"/>
	<path class="st0" d="M224.6,575.8c0-0.5,0-0.8,0-1.2h0.7l0,0.7h0c0.2-0.4,0.7-0.8,1.4-0.8c0.6,0,1.5,0.4,1.5,1.9v2.6h-0.8v-2.5
		c0-0.7-0.3-1.3-1-1.3c-0.5,0-0.9,0.4-1.1,0.8c0,0.1-0.1,0.2-0.1,0.4v2.6h-0.8V575.8z"/>
	<path class="st0" d="M230,576.9c0,1.1,0.7,1.5,1.5,1.5c0.6,0,0.9-0.1,1.2-0.2l0.1,0.6c-0.3,0.1-0.8,0.3-1.4,0.3
		c-1.3,0-2.1-0.9-2.1-2.2s0.8-2.3,2-2.3c1.4,0,1.8,1.3,1.8,2.1c0,0.2,0,0.3,0,0.4H230z M232.3,576.3c0-0.5-0.2-1.3-1.1-1.3
		c-0.8,0-1.2,0.7-1.2,1.3H232.3z"/>
	<path class="st0" d="M235.9,578.1c0.2,0.2,0.6,0.3,1,0.3c0.6,0,0.8-0.3,0.8-0.6c0-0.4-0.2-0.6-0.8-0.8c-0.8-0.3-1.2-0.7-1.2-1.2
		c0-0.7,0.6-1.3,1.5-1.3c0.4,0,0.8,0.1,1.1,0.3l-0.2,0.6c-0.2-0.1-0.5-0.3-0.9-0.3c-0.5,0-0.7,0.3-0.7,0.6c0,0.4,0.3,0.5,0.8,0.7
		c0.8,0.3,1.1,0.7,1.1,1.3c0,0.8-0.6,1.3-1.6,1.3c-0.5,0-0.9-0.1-1.2-0.3L235.9,578.1z"/>
	<path class="st0" d="M240.5,573.3v1.3h1.1v0.6h-1.1v2.3c0,0.5,0.2,0.8,0.6,0.8c0.2,0,0.4,0,0.5-0.1l0,0.6c-0.2,0.1-0.4,0.1-0.7,0.1
		c-0.4,0-0.7-0.1-0.9-0.3c-0.2-0.2-0.3-0.6-0.3-1.1v-2.4H239v-0.6h0.7v-1L240.5,573.3z"/>
	<path class="st0" d="M244.9,578.9l-0.1-0.5h0c-0.2,0.3-0.7,0.6-1.3,0.6c-0.9,0-1.3-0.6-1.3-1.3c0-1.1,0.9-1.6,2.6-1.6v-0.1
		c0-0.4-0.1-1-1-1c-0.4,0-0.8,0.1-1.1,0.3l-0.2-0.5c0.4-0.2,0.9-0.4,1.4-0.4c1.3,0,1.7,0.9,1.7,1.8v1.6c0,0.4,0,0.7,0.1,1H244.9z
		 M244.8,576.7c-0.9,0-1.8,0.1-1.8,1c0,0.5,0.3,0.8,0.7,0.8c0.6,0,0.9-0.4,1.1-0.7c0-0.1,0-0.2,0-0.3V576.7z"/>
	<path class="st0" d="M247.8,573.3v1.3h1.1v0.6h-1.1v2.3c0,0.5,0.2,0.8,0.6,0.8c0.2,0,0.4,0,0.5-0.1l0,0.6c-0.2,0.1-0.4,0.1-0.7,0.1
		c-0.4,0-0.7-0.1-0.9-0.3c-0.2-0.2-0.3-0.6-0.3-1.1v-2.4h-0.7v-0.6h0.7v-1L247.8,573.3z"/>
	<path class="st0" d="M250.2,576.9c0,1.1,0.7,1.5,1.5,1.5c0.6,0,0.9-0.1,1.2-0.2l0.1,0.6c-0.3,0.1-0.8,0.3-1.4,0.3
		c-1.3,0-2.1-0.9-2.1-2.2s0.8-2.3,2-2.3c1.4,0,1.8,1.3,1.8,2.1c0,0.2,0,0.3,0,0.4H250.2z M252.5,576.3c0-0.5-0.2-1.3-1.1-1.3
		c-0.8,0-1.2,0.7-1.2,1.3H252.5z"/>
	<path class="st0" d="M256.2,576c0-0.5,0-1,0-1.4h0.7l0,0.9h0c0.2-0.6,0.7-1,1.2-1c0.1,0,0.2,0,0.2,0v0.7c-0.1,0-0.2,0-0.3,0
		c-0.6,0-1,0.4-1.1,1c0,0.1,0,0.2,0,0.4v2.3h-0.8V576z"/>
	<path class="st0" d="M259.5,576.9c0,1.1,0.7,1.5,1.5,1.5c0.6,0,0.9-0.1,1.2-0.2l0.1,0.6c-0.3,0.1-0.8,0.3-1.4,0.3
		c-1.3,0-2.1-0.9-2.1-2.2s0.8-2.3,2-2.3c1.4,0,1.8,1.3,1.8,2.1c0,0.2,0,0.3,0,0.4H259.5z M261.8,576.3c0-0.5-0.2-1.3-1.1-1.3
		c-0.8,0-1.2,0.7-1.2,1.3H261.8z"/>
	<path class="st0" d="M264.5,573.3v1.3h1.1v0.6h-1.1v2.3c0,0.5,0.2,0.8,0.6,0.8c0.2,0,0.4,0,0.5-0.1l0,0.6c-0.2,0.1-0.4,0.1-0.7,0.1
		c-0.4,0-0.7-0.1-0.9-0.3c-0.2-0.2-0.3-0.6-0.3-1.1v-2.4H263v-0.6h0.7v-1L264.5,573.3z"/>
	<path class="st0" d="M270.1,577.8c0,0.5,0,0.8,0,1.2h-0.7l0-0.7h0c-0.2,0.4-0.7,0.8-1.4,0.8c-0.7,0-1.5-0.4-1.5-1.9v-2.5h0.8v2.4
		c0,0.8,0.3,1.4,1,1.4c0.5,0,0.9-0.4,1-0.7c0-0.1,0.1-0.3,0.1-0.4v-2.7h0.8V577.8z"/>
	<path class="st0" d="M271.5,576c0-0.5,0-1,0-1.4h0.7l0,0.9h0c0.2-0.6,0.7-1,1.2-1c0.1,0,0.2,0,0.2,0v0.7c-0.1,0-0.2,0-0.3,0
		c-0.6,0-1,0.4-1.1,1c0,0.1,0,0.2,0,0.4v2.3h-0.8V576z"/>
	<path class="st0" d="M274.4,575.8c0-0.5,0-0.8,0-1.2h0.7l0,0.7h0c0.2-0.4,0.7-0.8,1.4-0.8c0.6,0,1.5,0.4,1.5,1.9v2.6h-0.8v-2.5
		c0-0.7-0.3-1.3-1-1.3c-0.5,0-0.9,0.4-1.1,0.8c0,0.1-0.1,0.2-0.1,0.4v2.6h-0.8V575.8z"/>
	<path class="st0" d="M279.2,578.5c0-0.3,0.2-0.6,0.5-0.6s0.5,0.2,0.5,0.6c0,0.3-0.2,0.6-0.5,0.6C279.5,579,279.2,578.8,279.2,578.5
		z"/>
</g>
</svg>
