<?xml version="1.0" encoding="utf-8"?>
<!-- Generator: Adobe Illustrator 23.1.1, SVG Export Plug-In . SVG Version: 6.00 Build 0)  -->
<svg version="1.1" id="Layer_1" xmlns="http://www.w3.org/2000/svg" xmlns:xlink="http://www.w3.org/1999/xlink" x="0px" y="0px"
	 viewBox="0 0 300 600" style="enable-background:new 0 0 300 600;" xml:space="preserve">
<style type="text/css">
	.st0{fill:none;}
	.st1{fill:#FFFFFF;stroke:#14AA40;stroke-miterlimit:10;}
</style>
<g id="Rect">
	<line class="st0" x1="300" y1="600" x2="0" y2="600"/>
	<line class="st0" x1="0" y1="0" x2="300" y2="0"/>
</g>
<g>
	<path class="st1" d="M88.7,281.1c-5.2-0.4-7.7-3.1-7.9-7.1h5.5c0.1,1.4,0.7,2.5,2.4,2.8v-4.4c-5.2-0.7-7.4-2.6-7.4-6.8
		c0-3.6,2.8-6.2,7.4-6.6v-2.7h2.3v2.7c4.3,0.4,6.9,2.4,7.3,6.5h-5.4c-0.2-1.1-0.6-1.9-1.9-2.2v4.1c4.6,0.7,7.6,2.2,7.6,6.6
		c0,3.7-2.4,6.7-7.6,7v3.7h-2.3V281.1z M88.7,267.2v-3.8c-1.3,0.2-2,1-2,1.9C86.7,266.3,87.1,266.8,88.7,267.2z M91.1,272.9v4
		c1.3-0.3,2-1,2-2.1C93.1,273.8,92.7,273.2,91.1,272.9z"/>
	<path class="st1" d="M108.9,271.6l-7,4.3v-8.8l8.4-5.9h9.1v36.7h-10.5V271.6z"/>
	<path class="st1" d="M123.4,280.4v-1.5c0-11.6,7.2-18.1,16.9-18.1c9.7,0,16.9,6,16.9,17.9v1.4c0,11.7-6.7,18.5-17.1,18.5
		C129.9,298.5,123.4,291.9,123.4,280.4z M146.8,280.3v-1.5c0-6.7-2-10.1-6.4-10.1c-4.4,0-6.4,3.3-6.4,10.1v1.5
		c0,6.8,2,10.1,6.5,10.1S146.8,287,146.8,280.3z"/>
</g>
</svg>
