<?xml version="1.0" encoding="utf-8"?>
<!-- Generator: Adobe Illustrator 23.1.1, SVG Export Plug-In . SVG Version: 6.00 Build 0)  -->
<svg version="1.1" id="Layer_1" xmlns="http://www.w3.org/2000/svg" xmlns:xlink="http://www.w3.org/1999/xlink" x="0px" y="0px"
	 viewBox="0 0 300 600" style="enable-background:new 0 0 300 600;" xml:space="preserve">
<style type="text/css">
	.st0{fill:none;}
	.st1{fill:#14AA40;}
</style>
<g id="Rect">
	<rect class="st0" width="300" height="600"/>
</g>
<g>
	<path class="st1" d="M23.9,101.2h10.6v14h12.1v-14h10.5v36.7H46.6v-14.5H34.5v14.5H23.9V101.2z"/>
	<path class="st1" d="M92.3,130.4l6.1,7.5h-12l-2.2-2.7c-2.3,1.8-5.1,3.3-9.9,3.3c-7.8,0-12.9-4.1-12.9-11.1c0-4.7,2.9-8.2,8.1-10.7
		c-1.6-2.3-2.3-4.7-2.3-6.4c0-6.3,5.3-9.6,11.8-9.6c5.9,0,11.1,2.9,11.1,8.6c0,4-2.4,6.9-7.3,9.1l4.6,5.6l2.7-5.2h8L92.3,130.4z
		 M79.6,129.3l-5.8-7c-1.4,0.8-2.5,2-2.5,4c0,2.7,1.6,4.6,4.7,4.6C77.4,130.8,78.6,130.3,79.6,129.3z M78.5,114.5
		c2.5-1.2,3.6-2.6,3.6-4.5c0-1.6-1.1-2.8-2.7-2.8c-1.7,0-3,1.2-3,3.2C76.4,111.7,77.2,113,78.5,114.5z"/>
	<path class="st1" d="M101.8,101.2h14.4c9.6,0,14.9,3.9,14.9,11.7v0.2c0,5.2-2.8,8.2-6.6,9.7l8.8,15.2h-11.1l-7.4-13.1h-2.5v13.1
		h-10.5V101.2z M115.7,117.9c3.5,0,5.3-1.5,5.3-4.5v-0.2c0-3-1.8-4.2-5.2-4.2h-3.4v8.8H115.7z"/>
	<path class="st1" d="M146.2,101.2h16.4c8.7,0,12.4,3.9,12.4,9.6v0.2c0,4.1-2.1,6.8-6.2,7.9c4.5,0.8,7.3,3.5,7.3,8.6v0.2
		c0,6.6-4.3,10.2-13.3,10.2h-16.5V101.2z M160.4,115.7c3.3,0,4.5-1.1,4.5-3.7v-0.2c0-2.5-1.3-3.6-4.5-3.6h-4v7.6H160.4z
		 M160.8,130.8c3.3,0,4.9-1.5,4.9-4.3v-0.2c0-2.8-1.5-4.2-5.2-4.2h-4.1v8.7H160.8z"/>
	<path class="st1" d="M179.7,99.2h9.1v38.7h-9.1V99.2z"/>
	<path class="st1" d="M192.3,124.8v-0.4c0-8.6,6.4-14.1,14.7-14.1c8.3,0,14.6,5.3,14.6,13.8v0.4c0,8.7-6.4,14-14.7,14
		S192.3,133.5,192.3,124.8z M212.3,124.6v-0.4c0-4.5-1.8-7-5.3-7c-3.4,0-5.3,2.4-5.3,6.9v0.4c0,4.6,1.8,7.1,5.3,7.1
		C210.5,131.7,212.3,129.1,212.3,124.6z"/>
	<path class="st1" d="M223.5,124.8v-0.4c0-8.9,6.4-14.1,14.3-14.1c6.6,0,12.6,2.9,13.1,11h-8.6c-0.4-2.5-1.6-3.9-4.3-3.9
		c-3.2,0-5.1,2.3-5.1,6.8v0.4c0,4.7,1.8,7.1,5.3,7.1c2.6,0,4.4-1.5,4.7-4.5h8.3c-0.3,6.8-4.8,11.2-13.5,11.2
		C229.6,138.5,223.5,133.8,223.5,124.8z"/>
	<path class="st1" d="M254.1,99.2h9.2v22.4l7.2-10.6h9.5l-8.8,12.1l9.5,14.8h-10.3l-7.2-11.8v11.8h-9.2V99.2z"/>
	<path class="st1" d="M22,173.1v-0.4c0-11.2,8.4-18.7,19.4-18.7c11.2,0,19.5,7,19.5,18.4v0.4c0,11.3-7.8,19-19.6,19
		C29.4,191.8,22,184.1,22,173.1z M49.9,173v-0.4c0-6.5-3.3-10.4-8.5-10.4c-5.2,0-8.4,3.7-8.4,10.4v0.4c0,6.7,3.4,10.5,8.5,10.5
		C46.6,183.6,49.9,179.6,49.9,173z"/>
	<path class="st1" d="M64.4,164.4h9.2v4.3c1.4-2.8,4.4-5,8.8-5c5.2,0,8.8,3.2,8.8,10.1v17.5H82v-15.6c0-3-1.2-4.5-3.9-4.5
		c-2.7,0-4.6,1.6-4.6,5.1v15h-9.2V164.4z"/>
	<path class="st1" d="M95.9,152.6h9.1v38.7h-9.1V152.6z"/>
	<path class="st1" d="M109.8,157.1c0-2.7,2.2-4.8,5-4.8s5.1,2.1,5.1,4.8s-2.2,4.7-5.1,4.7S109.8,159.8,109.8,157.1z M110.3,164.4
		h9.2v26.9h-9.2V164.4z"/>
	<path class="st1" d="M124.4,164.4h9.2v4.3c1.4-2.8,4.4-5,8.8-5c5.2,0,8.8,3.2,8.8,10.1v17.5H142v-15.6c0-3-1.2-4.5-3.9-4.5
		c-2.7,0-4.6,1.6-4.6,5.1v15h-9.2V164.4z"/>
	<path class="st1" d="M154.2,178.1v-0.4c0-8.6,6.4-14.1,14.5-14.1c7.3,0,13.7,4.2,13.7,13.9v2.4h-18.9c0.3,3.5,2.3,5.6,5.6,5.6
		c3,0,4.3-1.4,4.7-3.2h8.6c-0.8,6.1-5.5,9.5-13.6,9.5C160.4,191.8,154.2,186.9,154.2,178.1z M173.5,174.7c-0.2-3.2-1.7-5-4.7-5
		c-2.8,0-4.7,1.8-5.1,5H173.5z"/>
	<path class="st1" d="M21.7,231.5v-0.4c0-8.9,6.4-14.1,14.3-14.1c6.6,0,12.6,2.9,13.1,11h-8.6c-0.4-2.5-1.6-3.9-4.3-3.9
		c-3.2,0-5.1,2.3-5.1,6.8v0.4c0,4.7,1.8,7.1,5.3,7.1c2.6,0,4.4-1.5,4.7-4.5h8.3c-0.3,6.8-4.8,11.2-13.5,11.2
		C27.8,245.2,21.7,240.5,21.7,231.5z"/>
	<path class="st1" d="M50.9,231.5v-0.4c0-8.6,6.4-14.1,14.7-14.1c8.3,0,14.6,5.3,14.6,13.8v0.4c0,8.7-6.4,14-14.7,14
		S50.9,240.2,50.9,231.5z M70.9,231.3v-0.4c0-4.5-1.8-7-5.3-7c-3.4,0-5.3,2.4-5.3,6.9v0.4c0,4.6,1.8,7.1,5.3,7.1
		C69,238.4,70.9,235.8,70.9,231.3z"/>
	<path class="st1" d="M81.8,236h8.5c0.3,2,1.2,3,3.8,3c2.3,0,3.3-0.9,3.3-2.2c0-1.3-1.3-1.9-5-2.4c-7.2-0.9-10.2-3-10.2-8.6
		c0-6,5.3-8.8,11.5-8.8c6.6,0,11.2,2.3,11.9,8.7h-8.3c-0.4-1.8-1.3-2.7-3.4-2.7c-2,0-3,0.9-3,2.1c0,1.3,1.2,1.8,4.5,2.2
		c7.4,0.9,11,2.9,11,8.6c0,6.4-4.7,9.2-12.2,9.2C86.5,245.2,82,242,81.8,236z"/>
	<path class="st1" d="M110.5,235.9v-12h-3.2v-6.3h3.2v-5.6h9.2v5.6h5.3v6.3h-5.3v11.1c0,2,1,2.8,2.7,2.8c1,0,1.8-0.2,2.6-0.5v7
		c-1.2,0.3-2.9,0.8-5.1,0.8C113.9,245.2,110.5,242.3,110.5,235.9z"/>
	<path class="st1" d="M127.1,236h8.5c0.3,2,1.2,3,3.8,3c2.3,0,3.3-0.9,3.3-2.2c0-1.3-1.3-1.9-5-2.4c-7.2-0.9-10.2-3-10.2-8.6
		c0-6,5.3-8.8,11.5-8.8c6.6,0,11.2,2.3,11.9,8.7h-8.3c-0.4-1.8-1.3-2.7-3.4-2.7c-2,0-3,0.9-3,2.1c0,1.3,1.2,1.8,4.5,2.2
		c7.4,0.9,11,2.9,11,8.6c0,6.4-4.7,9.2-12.2,9.2C131.7,245.2,127.3,242,127.1,236z"/>
	<path class="st1" d="M163.7,235.2v-17.5h9.2v16c0,3,1.2,4.5,3.8,4.5c2.8,0,4.6-1.6,4.6-5.1v-15.5h9.2v26.9h-9.2v-4.2
		c-1.4,2.8-4.1,4.8-8.5,4.8C167.5,245.2,163.7,242,163.7,235.2z"/>
	<path class="st1" d="M195.1,217.7h9.2v4c1.5-2.6,4.3-4.7,8.4-4.7c6.3,0,11.3,4.7,11.3,13.9v0.4c0,9.2-5.1,13.9-11.4,13.9
		c-4.1,0-7-1.9-8.3-4.6v12.9h-9.2V217.7z M214.7,231.3v-0.4c0-4.7-2.1-7-5.3-7c-3.3,0-5.3,2.4-5.3,6.9v0.4c0,4.6,2,6.9,5.3,6.9
		C212.8,238.2,214.7,235.7,214.7,231.3z"/>
	<path class="st1" d="M24.4,289.3v-12h-3.2v-6.3h3.2v-5.6h9.2v5.6h5.3v6.3h-5.3v11.1c0,2,1,2.8,2.7,2.8c1,0,1.8-0.2,2.6-0.5v7
		c-1.2,0.3-2.9,0.8-5.1,0.8C27.7,298.5,24.4,295.6,24.4,289.3z"/>
	<path class="st1" d="M40.9,284.8v-0.4c0-8.6,6.4-14.1,14.7-14.1c8.3,0,14.6,5.3,14.6,13.8v0.4c0,8.7-6.4,14-14.7,14
		S40.9,293.5,40.9,284.8z M60.9,284.7v-0.4c0-4.5-1.8-7-5.3-7c-3.4,0-5.3,2.4-5.3,6.9v0.4c0,4.6,1.8,7.1,5.3,7.1
		C59.1,291.7,60.9,289.1,60.9,284.7z"/>
	<path class="st1" d="M88.7,281.1c-5.2-0.4-7.7-3.1-7.9-7.1h5.5c0.1,1.4,0.7,2.5,2.4,2.8v-4.4c-5.2-0.7-7.4-2.6-7.4-6.8
		c0-3.6,2.8-6.2,7.4-6.6v-2.7h2.3v2.7c4.3,0.4,6.9,2.4,7.3,6.5h-5.4c-0.2-1.1-0.6-1.9-1.9-2.2v4.1c4.6,0.7,7.6,2.2,7.6,6.6
		c0,3.7-2.4,6.7-7.6,7v3.7h-2.3V281.1z M88.7,267.2v-3.8c-1.3,0.2-2,1-2,1.9C86.7,266.3,87.1,266.8,88.7,267.2z M91.1,272.9v4
		c1.3-0.3,2-1,2-2.1C93.1,273.8,92.7,273.2,91.1,272.9z"/>
	<path class="st1" d="M108.9,271.6l-7,4.3v-8.8l8.4-5.9h9.1v36.7h-10.5V271.6z"/>
	<path class="st1" d="M123.4,280.4v-1.5c0-11.6,7.2-18.1,16.9-18.1c9.7,0,16.9,6,16.9,17.9v1.4c0,11.7-6.7,18.5-17.1,18.5
		C129.9,298.5,123.4,291.9,123.4,280.4z M146.8,280.3v-1.5c0-6.7-2-10.1-6.4-10.1c-4.4,0-6.4,3.3-6.4,10.1v1.5
		c0,6.8,2,10.1,6.5,10.1S146.8,287,146.8,280.3z"/>
	<path class="st1" d="M23.4,312.6h9.1v38.7h-9.1V312.6z"/>
	<path class="st1" d="M36,338.2v-0.4c0-8.6,6.4-14.1,14.5-14.1c7.3,0,13.7,4.2,13.7,13.9v2.4H45.3c0.3,3.5,2.3,5.6,5.6,5.6
		c3,0,4.3-1.4,4.7-3.2h8.6c-0.8,6.1-5.5,9.5-13.6,9.5C42.2,351.9,36,347,36,338.2z M55.3,334.8c-0.2-3.2-1.7-5-4.7-5
		c-2.8,0-4.7,1.8-5.1,5H55.3z"/>
	<path class="st1" d="M65.8,342.7h8.5c0.3,2,1.2,3,3.8,3c2.3,0,3.3-0.9,3.3-2.2c0-1.3-1.3-1.9-5-2.4c-7.2-0.9-10.2-3-10.2-8.6
		c0-6,5.3-8.8,11.5-8.8c6.6,0,11.2,2.3,11.9,8.7h-8.3c-0.4-1.8-1.3-2.7-3.4-2.7c-2,0-3,0.9-3,2.1c0,1.3,1.2,1.8,4.5,2.2
		c7.4,0.9,11,2.9,11,8.6c0,6.4-4.7,9.2-12.2,9.2C70.5,351.9,66.1,348.7,65.8,342.7z"/>
	<path class="st1" d="M91.7,342.7h8.5c0.3,2,1.2,3,3.8,3c2.3,0,3.3-0.9,3.3-2.2c0-1.3-1.3-1.9-5-2.4c-7.2-0.9-10.2-3-10.2-8.6
		c0-6,5.3-8.8,11.5-8.8c6.6,0,11.2,2.3,11.9,8.7h-8.3c-0.4-1.8-1.3-2.7-3.4-2.7c-2,0-3,0.9-3,2.1c0,1.3,1.2,1.8,4.5,2.2
		c7.4,0.9,11,2.9,11,8.6c0,6.4-4.7,9.2-12.2,9.2C96.4,351.9,91.9,348.7,91.7,342.7z"/>
	<path class="st1" d="M129.7,342.6v-12h-3.2v-6.3h3.2v-5.6h9.2v5.6h5.3v6.3h-5.3v11.1c0,2,1,2.8,2.7,2.8c1,0,1.8-0.2,2.6-0.5v7
		c-1.2,0.3-2.9,0.8-5.1,0.8C133.1,351.9,129.7,349,129.7,342.6z"/>
	<path class="st1" d="M147.7,312.6h9.2v16.1c1.4-2.8,4.4-5,8.8-5c5.2,0,8.8,3.2,8.8,10.1v17.5h-9.2v-15.6c0-3-1.2-4.5-3.9-4.5
		c-2.7,0-4.6,1.6-4.6,5.1v15h-9.2V312.6z"/>
	<path class="st1" d="M177.4,343.8c0-6.3,5.3-8.8,14.3-8.8h2.6v-0.6c0-2.6-0.6-4.3-3.5-4.3c-2.5,0-3.4,1.5-3.6,3.2h-8.6
		c0.4-6.5,5.5-9.7,12.8-9.7c7.4,0,12.1,3,12.1,10.2v17.4h-8.9v-3.1c-1.3,2-3.6,3.7-8,3.7C181.7,351.9,177.4,349.5,177.4,343.8z
		 M194.3,341.9v-1.6h-2.4c-3.7,0-5.3,0.7-5.3,2.9c0,1.5,1,2.5,3.2,2.5C192.3,345.7,194.3,344.2,194.3,341.9z"/>
	<path class="st1" d="M207.9,324.4h9.2v4.3c1.4-2.8,4.4-5,8.8-5c5.2,0,8.8,3.2,8.8,10.1v17.5h-9.2v-15.6c0-3-1.2-4.5-3.9-4.5
		c-2.7,0-4.6,1.6-4.6,5.1v15h-9.2V324.4z"/>
	<path class="st1" d="M31,376h-9.5v-8.1h29.6v8.1h-9.5v28.6H31V376z"/>
	<path class="st1" d="M51.9,395.3v-17.5h9.2v16c0,3,1.2,4.5,3.8,4.5c2.8,0,4.6-1.6,4.6-5.1v-15.5h9.2v26.9h-9.2v-4.2
		c-1.4,2.8-4.1,4.8-8.5,4.8C55.7,405.2,51.9,402.1,51.9,395.3z"/>
	<path class="st1" d="M83.3,377.8h9.2v5.3c1.7-4,4.5-5.8,8.7-5.7v8.6c-5.6-0.2-8.7,1.6-8.7,5.9v12.7h-9.2V377.8z"/>
	<path class="st1" d="M113.7,400.5v4.2h-9.2V366h9.2v15.8c1.5-2.6,4.3-4.7,8.4-4.7c6.3,0,11.3,4.7,11.3,13.9v0.4
		c0,9.2-5.1,13.9-11.4,13.9C118,405.2,115,403.3,113.7,400.5z M124.1,391.4V391c0-4.7-2.1-7-5.3-7c-3.3,0-5.3,2.4-5.3,6.9v0.4
		c0,4.6,2,6.9,5.3,6.9C122.2,398.2,124.1,395.8,124.1,391.4z"/>
	<path class="st1" d="M135.3,391.5v-0.4c0-8.6,6.4-14.1,14.7-14.1c8.3,0,14.6,5.3,14.6,13.8v0.4c0,8.7-6.4,14-14.7,14
		S135.3,400.2,135.3,391.5z M155.4,391.4V391c0-4.5-1.8-7-5.3-7c-3.4,0-5.3,2.4-5.3,6.9v0.4c0,4.6,1.8,7.1,5.3,7.1
		C153.5,398.4,155.4,395.8,155.4,391.4z"/>
	<path class="st1" d="M175.8,376h-9.5v-8.1h29.6v8.1h-9.5v28.6h-10.6V376z"/>
	<path class="st1" d="M194,397.2c0-6.3,5.3-8.8,14.3-8.8h2.6v-0.6c0-2.6-0.6-4.3-3.5-4.3c-2.5,0-3.4,1.5-3.6,3.2H195
		c0.4-6.5,5.5-9.7,12.8-9.7c7.4,0,12.1,3,12.1,10.2v17.4h-8.9v-3.1c-1.3,2-3.6,3.7-8,3.7C198.3,405.2,194,402.9,194,397.2z
		 M210.9,395.2v-1.6h-2.4c-3.7,0-5.3,0.7-5.3,2.9c0,1.5,1,2.5,3.2,2.5C208.9,399,210.9,397.5,210.9,395.2z"/>
	<path class="st1" d="M231.2,391l-8.4-13.2h10.6l4.2,7.1l4.1-7.1h9.4l-8.5,12.5l9.3,14.4h-10.6l-4.8-8l-4.9,8h-9.4L231.2,391z"/>
	<path class="st1" d="M253.8,400c0-2.9,2.2-5.2,5.2-5.2c3.1,0,5.4,2.3,5.4,5.2s-2.3,5.2-5.4,5.2C256,405.2,253.8,402.9,253.8,400z"
		/>
</g>
</svg>
