<svg xmlns="http://www.w3.org/2000/svg" viewBox="0 0 300 600"><title>overlay</title><g id="Layer_2" data-name="Layer 2"><g id="Rect"><rect width="300" height="600" fill="none"/></g><g id="_20" data-name="$20"><path d="M86.56,280.72c-5.14-.36-7.64-3.1-7.85-7h5.51a2.79,2.79,0,0,0,2.34,2.79v-4.34c-5.17-.74-7.37-2.61-7.37-6.75,0-3.6,2.82-6.18,7.37-6.51v-2.65h2.32v2.68c4.32.35,6.87,2.35,7.23,6.42H90.73a2.38,2.38,0,0,0-1.85-2.23v4.11c4.55.65,7.53,2.2,7.53,6.51,0,3.63-2.35,6.66-7.53,7v3.71H86.56Zm0-13.86v-3.81c-1.33.24-2,.95-2,1.91S85,266.53,86.56,266.86Zm2.32,5.68v3.95a2.14,2.14,0,0,0,2-2.11C90.88,273.4,90.46,272.9,88.88,272.54Z" fill="#fff" stroke="#14aa40" stroke-miterlimit="10"/><path d="M97.2,295.92,110,282.41c3.62-3.88,6-7,6-10.05,0-2.44-1.27-4.08-3.87-4.08s-4.23,1.59-4.69,5.92H97.91c.36-9.13,5.87-13.77,14.69-13.77s13.67,4.79,13.67,11.53c0,5-2.81,8.77-6.89,12.69l-5.1,5h12.24v7.8H97.2Z" fill="#fff" stroke="#14aa40" stroke-miterlimit="10"/><path d="M129,280v-1.53c0-11.52,7.19-18,16.83-18s16.83,6,16.83,17.8v1.43c0,11.57-6.63,18.35-17,18.35C135.4,298,129,291.44,129,280Zm23.2-.1v-1.48c0-6.68-1.93-10-6.37-10s-6.37,3.31-6.37,10v1.53c0,6.78,2,10,6.47,10S152.17,286.59,152.17,279.86Z" fill="#fff" stroke="#14aa40" stroke-miterlimit="10"/></g></g></svg>