<svg xmlns="http://www.w3.org/2000/svg" viewBox="0 0 300 600"><title>txt</title><g id="Layer_2" data-name="Layer 2"><g id="Rect"><rect width="300" height="600" fill="none"/></g><g id="H_R_Block_Online_costs_up_to_20_less_than_TurboTax." data-name="H&amp;R Block Online costs up  to $20  less than TurboTax."><path d="M23.52,101.94H34v13.92H46V101.94H56.46V138.4H46V124H34V138.4H23.52Z" fill="#14aa40"/><path d="M91.45,131l6.07,7.44H85.63l-2.14-2.65A14.49,14.49,0,0,1,73.65,139c-7.75,0-12.8-4.07-12.8-11,0-4.69,2.86-8.16,8-10.61A11.64,11.64,0,0,1,66.61,111c0-6.22,5.31-9.54,11.73-9.54,5.82,0,11.07,2.91,11.07,8.52,0,4-2.35,6.88-7.29,9l4.59,5.61,2.65-5.2h8ZM78.8,129.89,73,123a4.32,4.32,0,0,0-2.45,3.93c0,2.65,1.58,4.54,4.64,4.54A4.78,4.78,0,0,0,78.8,129.89ZM77.68,115.2c2.45-1.17,3.62-2.55,3.62-4.44a2.62,2.62,0,0,0-2.7-2.8,2.9,2.9,0,0,0-3,3.16C75.59,112.45,76.4,113.72,77.68,115.2Z" fill="#14aa40"/><path d="M100.83,101.94h14.28c9.54,0,14.84,3.88,14.84,11.58v.2a9.53,9.53,0,0,1-6.58,9.59l8.72,15.09h-11l-7.39-13.05h-2.45V138.4H100.83Zm13.77,16.63c3.52,0,5.26-1.48,5.26-4.44v-.21c0-3-1.84-4.13-5.21-4.13h-3.41v8.78Z" fill="#14aa40"/><path d="M144.9,101.94h16.27c8.61,0,12.28,3.88,12.28,9.54v.2c0,4.08-2.09,6.78-6.17,7.85,4.49.77,7.3,3.47,7.3,8.52v.2c0,6.53-4.24,10.15-13.26,10.15H144.9Zm14.17,14.48c3.27,0,4.49-1.12,4.49-3.72v-.2c0-2.5-1.32-3.62-4.49-3.62h-4v7.54Zm.36,15c3.32,0,4.85-1.53,4.85-4.24V127c0-2.75-1.48-4.18-5.16-4.18h-4v8.62Z" fill="#14aa40"/><path d="M178.2,100h9.08v38.4H178.2Z" fill="#14aa40"/><path d="M190.75,125.4V125c0-8.57,6.37-14,14.63-14s14.53,5.25,14.53,13.72v.4c0,8.67-6.37,13.87-14.58,13.87S190.75,134,190.75,125.4Zm19.88-.15v-.41c0-4.49-1.78-7-5.25-7s-5.3,2.4-5.3,6.89v.4c0,4.59,1.78,7.09,5.3,7.09S210.63,129.68,210.63,125.25Z" fill="#14aa40"/><path d="M221.7,125.4V125c0-8.87,6.38-14,14.23-14,6.53,0,12.54,2.85,13,11h-8.56c-.41-2.5-1.63-3.87-4.29-3.87-3.21,0-5.1,2.29-5.1,6.78v.41c0,4.64,1.79,7,5.26,7,2.55,0,4.33-1.53,4.64-4.43h8.21c-.26,6.73-4.8,11.11-13.41,11.11C227.77,139,221.7,134.37,221.7,125.4Z" fill="#14aa40"/><path d="M252.1,100h9.13v22.29l7.19-10.56h9.48l-8.72,12,9.44,14.68h-10.2l-7.19-11.68V138.4H252.1Z" fill="#14aa40"/><path d="M21.58,173.4V173c0-11.11,8.36-18.56,19.28-18.56,11.11,0,19.32,7,19.32,18.31v.41c0,11.22-7.7,18.86-19.48,18.86S21.58,184.37,21.58,173.4Zm27.69-.1v-.41c0-6.47-3.26-10.3-8.41-10.3s-8.37,3.72-8.37,10.35v.41c0,6.63,3.37,10.45,8.42,10.45S49.27,179.83,49.27,173.3Z" fill="#14aa40"/><path d="M63.71,164.73h9.12V169a9.41,9.41,0,0,1,8.77-5c5.16,0,8.73,3.21,8.73,10V191.4H81.2V175.9c0-3-1.18-4.49-3.83-4.49s-4.54,1.63-4.54,5.05V191.4H63.71Z" fill="#14aa40"/><path d="M95,153h9.08v38.4H95Z" fill="#14aa40"/><path d="M108.79,157.49a5,5,0,1,1,5,4.69A4.76,4.76,0,0,1,108.79,157.49Zm.46,7.24h9.13V191.4h-9.13Z" fill="#14aa40"/><path d="M123.27,164.73h9.13V169a9.41,9.41,0,0,1,8.77-5c5.15,0,8.72,3.21,8.72,10V191.4h-9.13V175.9c0-3-1.17-4.49-3.82-4.49s-4.54,1.63-4.54,5.05V191.4h-9.13Z" fill="#14aa40"/><path d="M152.9,178.4V178c0-8.57,6.38-14,14.43-14,7.3,0,13.57,4.18,13.57,13.77v2.39H162.13c.26,3.52,2.3,5.56,5.56,5.56,3,0,4.29-1.37,4.64-3.16h8.57c-.82,6-5.46,9.43-13.51,9.43C159,192,152.9,187.12,152.9,178.4ZM172,175c-.16-3.21-1.74-5-4.7-5-2.75,0-4.63,1.78-5.09,5Z" fill="#14aa40"/><path d="M21.27,231.4V231c0-8.87,6.38-14,14.23-14,6.53,0,12.55,2.85,13.06,11H40c-.41-2.5-1.63-3.87-4.28-3.87-3.22,0-5.1,2.29-5.1,6.78v.41c0,4.64,1.78,7,5.25,7,2.55,0,4.33-1.53,4.64-4.43h8.21C48.46,240.63,43.92,245,35.3,245,27.34,245,21.27,240.37,21.27,231.4Z" fill="#14aa40"/><path d="M50.24,231.4V231c0-8.57,6.38-14,14.64-14s14.53,5.25,14.53,13.72v.4C79.41,239.81,73,245,64.83,245S50.24,240,50.24,231.4Zm19.89-.15v-.41c0-4.49-1.78-7-5.25-7s-5.31,2.4-5.31,6.89v.4c0,4.59,1.79,7.09,5.31,7.09S70.13,235.68,70.13,231.25Z" fill="#14aa40"/><path d="M81,235.94h8.42c.3,1.94,1.17,3,3.77,3,2.25,0,3.27-.87,3.27-2.2s-1.28-1.88-5-2.39c-7.14-.92-10.15-3-10.15-8.57,0-5.92,5.25-8.77,11.42-8.77,6.58,0,11.17,2.24,11.78,8.62H96.29C95.94,223.85,95,223,92.88,223s-3,.87-3,2.1,1.22,1.78,4.49,2.19c7.39.92,11,2.85,11,8.57,0,6.32-4.69,9.17-12.09,9.17C85.64,245,81.2,241.85,81,235.94Z" fill="#14aa40"/><path d="M109.5,235.84V224h-3.21v-6.22h3.21v-5.56h9.13v5.56h5.25V224h-5.25v11c0,1.94,1,2.8,2.7,2.8a6.94,6.94,0,0,0,2.61-.46v6.94a19.09,19.09,0,0,1-5,.76C112.87,245,109.5,242.11,109.5,235.84Z" fill="#14aa40"/><path d="M125.92,235.94h8.42c.31,1.94,1.17,3,3.77,3,2.25,0,3.27-.87,3.27-2.2s-1.28-1.88-4.95-2.39c-7.14-.92-10.15-3-10.15-8.57,0-5.92,5.25-8.77,11.42-8.77,6.58,0,11.17,2.24,11.78,8.62h-8.26c-.35-1.79-1.32-2.66-3.41-2.66s-3,.87-3,2.1,1.22,1.78,4.49,2.19c7.39.92,11,2.85,11,8.57,0,6.32-4.69,9.17-12.09,9.17C130.57,245,126.13,241.85,125.92,235.94Z" fill="#14aa40"/><path d="M162.29,235.12V217.73h9.13v15.91c0,3,1.17,4.49,3.77,4.49,2.75,0,4.54-1.63,4.54-5V217.73h9.13V244.4h-9.13v-4.13c-1.43,2.76-4,4.74-8.47,4.74C166.11,245,162.29,241.85,162.29,235.12Z" fill="#14aa40"/><path d="M193.5,217.73h9.13v4a9.41,9.41,0,0,1,8.31-4.69c6.22,0,11.27,4.69,11.27,13.82v.41c0,9.17-5.05,13.76-11.32,13.76-4,0-6.94-1.88-8.26-4.53v12.85H193.5Zm19.43,13.52v-.41c0-4.69-2-6.94-5.26-6.94s-5.3,2.4-5.3,6.89v.4c0,4.54,2,6.84,5.3,6.84S212.93,235.63,212.93,231.25Z" fill="#14aa40"/><path d="M23.93,288.84V277H20.71v-6.22h3.22v-5.56h9.12v5.56h5.26V277H33.05v11c0,1.94,1,2.8,2.71,2.8a6.89,6.89,0,0,0,2.6-.46v6.94a19,19,0,0,1-5,.76C27.29,298,23.93,295.11,23.93,288.84Z" fill="#14aa40"/><path d="M40.35,284.4V284c0-8.57,6.37-14,14.63-14s14.54,5.25,14.54,13.72v.4c0,8.67-6.38,13.87-14.59,13.87S40.35,293,40.35,284.4Zm19.89-.15v-.41c0-4.49-1.79-7-5.26-7s-5.3,2.4-5.3,6.89v.4c0,4.59,1.79,7.09,5.3,7.09S60.24,288.68,60.24,284.25Z" fill="#14aa40"/><path d="M86.86,280.72c-5.15-.36-7.65-3.1-7.85-7h5.5a2.8,2.8,0,0,0,2.35,2.79v-4.34c-5.18-.74-7.38-2.61-7.38-6.75,0-3.6,2.83-6.18,7.38-6.51v-2.65h2.32v2.68c4.31.35,6.87,2.35,7.22,6.42H91a2.37,2.37,0,0,0-1.84-2.23v4.11c4.55.65,7.52,2.2,7.52,6.51,0,3.63-2.35,6.66-7.52,7v3.71H86.86Zm0-13.86v-3.81c-1.34.24-2,.95-2,1.91S85.25,266.53,86.86,266.86Zm2.32,5.68v3.95a2.14,2.14,0,0,0,2-2.11C91.17,273.4,90.75,272.9,89.18,272.54Z" fill="#14aa40"/><path d="M97.49,295.92l12.75-13.51c3.62-3.88,6-7,6-10.05,0-2.44-1.28-4.08-3.88-4.08s-4.23,1.59-4.69,5.92H98.2c.36-9.13,5.87-13.77,14.69-13.77s13.67,4.79,13.67,11.53c0,5-2.81,8.77-6.89,12.69l-5.1,5h12.24v7.8H97.49Z" fill="#14aa40"/><path d="M129.26,280v-1.53c0-11.52,7.19-18,16.83-18s16.83,6,16.83,17.8v1.43c0,11.57-6.63,18.35-17,18.35C135.69,298,129.26,291.44,129.26,280Zm23.21-.1v-1.48c0-6.68-1.94-10-6.38-10s-6.37,3.31-6.37,10v1.53c0,6.78,2,10,6.47,10S152.47,286.59,152.47,279.86Z" fill="#14aa40"/><path d="M23,312H32v38.4H23Z" fill="#14aa40"/><path d="M35.5,337.4V337c0-8.57,6.38-14,14.44-14,7.29,0,13.56,4.18,13.56,13.77v2.39H44.73c.26,3.52,2.3,5.56,5.56,5.56,3,0,4.29-1.37,4.64-3.16H63.5C62.68,347.6,58,351,50,351,41.62,351,35.5,346.12,35.5,337.4ZM54.63,334c-.16-3.21-1.74-5-4.69-5-2.76,0-4.65,1.78-5.1,5Z" fill="#14aa40"/><path d="M65.13,341.94h8.42c.3,1.94,1.17,3,3.77,3,2.24,0,3.26-.87,3.26-2.2s-1.27-1.88-4.94-2.39c-7.14-.92-10.15-3-10.15-8.57,0-5.92,5.25-8.77,11.42-8.77,6.58,0,11.17,2.24,11.78,8.62H80.43C80.08,329.85,79.11,329,77,329s-3,.87-3,2.1,1.22,1.78,4.48,2.19c7.4.92,11,2.85,11,8.56,0,6.33-4.69,9.18-12.09,9.18C69.77,351,65.34,347.85,65.13,341.94Z" fill="#14aa40"/><path d="M90.79,341.94H99.2c.31,1.94,1.17,3,3.77,3,2.25,0,3.27-.87,3.27-2.2s-1.28-1.88-4.95-2.39c-7.14-.92-10.15-3-10.15-8.57,0-5.92,5.26-8.77,11.43-8.77,6.57,0,11.16,2.24,11.78,8.62h-8.27c-.35-1.79-1.32-2.66-3.41-2.66s-3,.87-3,2.1,1.22,1.78,4.49,2.19c7.39.92,11,2.85,11,8.56,0,6.33-4.69,9.18-12.09,9.18C95.43,351,91,347.85,90.79,341.94Z" fill="#14aa40"/><path d="M128.58,341.83V330h-3.22v-6.22h3.22v-5.56h9.12v5.56H143V330H137.7v11c0,1.94,1,2.8,2.71,2.8a6.89,6.89,0,0,0,2.6-.46v6.94a19.09,19.09,0,0,1-5,.76C131.94,351,128.58,348.11,128.58,341.83Z" fill="#14aa40"/><path d="M146.43,312h9.12v16a9.42,9.42,0,0,1,8.78-5c5.15,0,8.71,3.21,8.71,10V350.4h-9.12V334.9c0-3-1.18-4.49-3.83-4.49s-4.54,1.63-4.54,5V350.4h-9.12Z" fill="#14aa40"/><path d="M176,343c0-6.27,5.3-8.72,14.17-8.72h2.55v-.61c0-2.55-.61-4.24-3.52-4.24a3.28,3.28,0,0,0-3.62,3.17H177c.41-6.43,5.46-9.59,12.75-9.59s12,3,12,10.1V350.4h-8.88v-3.11c-1.27,1.94-3.62,3.72-7.9,3.72C180.19,351,176,348.67,176,343Zm16.72-1.94v-1.63h-2.4c-3.67,0-5.3.71-5.3,2.91,0,1.53,1,2.49,3.16,2.49C190.74,344.84,192.68,343.37,192.68,341.07Z" fill="#14aa40"/><path d="M206.2,323.73h9.13V328a9.39,9.39,0,0,1,8.77-5c5.15,0,8.72,3.21,8.72,10V350.4h-9.13V334.9c0-3-1.17-4.49-3.83-4.49s-4.53,1.63-4.53,5V350.4H206.2Z" fill="#14aa40"/><path d="M30.5,375H21.07v-8.06H50.44V375H41v28.4H30.5Z" fill="#14aa40"/><path d="M51.26,394.12V376.73h9.13v15.91c0,3,1.17,4.49,3.78,4.49s4.53-1.63,4.53-5.05V376.73h9.13V403.4H68.7v-4.13c-1.42,2.76-4,4.74-8.46,4.74C55.09,404,51.26,400.85,51.26,394.12Z" fill="#14aa40"/><path d="M82.47,376.73H91.6V382c1.69-4,4.49-5.72,8.62-5.66v8.51c-5.56-.15-8.62,1.58-8.62,5.87V403.4H82.47Z" fill="#14aa40"/><path d="M112.67,399.27v4.13h-9.13V365h9.13v15.71A9.41,9.41,0,0,1,121,376c6.22,0,11.27,4.69,11.27,13.82v.41c0,9.17-5,13.76-11.32,13.76C117,404,114,402.13,112.67,399.27Zm10.3-9v-.41c0-4.69-2-6.94-5.26-6.94s-5.3,2.4-5.3,6.89v.41c0,4.53,2,6.83,5.3,6.83S123,394.63,123,390.25Z" fill="#14aa40"/><path d="M134.14,390.4V390c0-8.57,6.37-14,14.63-14s14.54,5.25,14.54,13.72v.4c0,8.67-6.38,13.87-14.59,13.87S134.14,399,134.14,390.4Zm19.88-.15v-.41c0-4.49-1.78-7-5.25-7s-5.3,2.4-5.3,6.89v.4c0,4.59,1.78,7.09,5.3,7.09S154,394.68,154,390.25Z" fill="#14aa40"/><path d="M174.32,375h-9.43v-8.06h29.37V375h-9.43v28.4H174.32Z" fill="#14aa40"/><path d="M192.43,396c0-6.27,5.3-8.72,14.18-8.72h2.55v-.61c0-2.55-.62-4.24-3.52-4.24a3.27,3.27,0,0,0-3.62,3.17h-8.57c.41-6.43,5.46-9.59,12.75-9.59s12,3,12,10.1V403.4h-8.87v-3.11c-1.28,1.94-3.62,3.72-7.9,3.72C196.66,404,192.43,401.67,192.43,396Zm16.73-1.94v-1.63h-2.4c-3.67,0-5.3.71-5.3,2.91,0,1.53,1,2.49,3.16,2.49C207.22,397.84,209.16,396.37,209.16,394.07Z" fill="#14aa40"/><path d="M229.4,389.84l-8.31-13.11H231.6l4.13,7,4-7h9.38l-8.42,12.39L250,403.4h-10.5l-4.74-7.95-4.85,7.95h-9.33Z" fill="#14aa40"/><path d="M251.79,398.81a5.09,5.09,0,0,1,5.21-5.15,5.15,5.15,0,1,1,0,10.3A5.09,5.09,0,0,1,251.79,398.81Z" fill="#14aa40"/></g></g></svg>