<?xml version="1.0" encoding="utf-8"?>
<!-- Generator: Adobe Illustrator 24.0.2, SVG Export Plug-In . SVG Version: 6.00 Build 0)  -->
<svg version="1.1" id="Layer_1" xmlns="http://www.w3.org/2000/svg" xmlns:xlink="http://www.w3.org/1999/xlink" x="0px" y="0px"
	 viewBox="0 0 300 250" style="enable-background:new 0 0 300 250;" xml:space="preserve">
<style type="text/css">
	.st0{fill:#14AA40;}
	.st1{fill:none;}
</style>
<title>300x250 4</title>
<g id="Layer_2_1_">
	<g id="H_R_Block_Online_costs_at_least_30_less_than_TurboTax.">
		<path class="st0" d="M22.4,16.3h7.3V26H38v-9.7h7.3v25.3H38v-10h-8.3v10h-7.3C22.4,41.6,22.4,16.3,22.4,16.3z"/>
		<path class="st0" d="M69.5,36.5l4.2,5.2h-8.2L64,39.8c-1.9,1.5-4.3,2.3-6.8,2.2c-5.4,0-8.9-2.8-8.9-7.6c0-3.3,2-5.7,5.5-7.4
			c-0.9-1.3-1.5-2.8-1.6-4.4c0-4.3,3.7-6.6,8.1-6.6c4,0,7.7,2,7.7,5.9c0,2.8-1.6,4.8-5,6.3l3.2,3.9l1.8-3.6h5.5L69.5,36.5z
			 M60.8,35.7l-4-4.8c-1,0.5-1.7,1.6-1.7,2.7c-0.1,1.6,1.1,3,2.7,3.1c0.2,0,0.3,0,0.5,0C59.2,36.8,60.1,36.4,60.8,35.7z M60,25.5
			c1.7-0.8,2.5-1.8,2.5-3.1c0.1-1-0.7-1.9-1.7-1.9c-0.1,0-0.1,0-0.2,0c-1.1-0.1-2,0.8-2.1,1.9c0,0.1,0,0.2,0,0.3
			C58.7,23.8,59.2,24.8,60,25.5z"/>
		<path class="st0" d="M76,16.3h9.9c6.6,0,10.3,2.7,10.3,8v0.1c0.2,3-1.7,5.7-4.6,6.6l6,10.5H90l-5.1-9h-1.7v9H76V16.3z M85.6,27.9
			c2.4,0,3.6-1,3.6-3.1v-0.1c0-2-1.3-2.9-3.6-2.9h-2.3v6.1H85.6z"/>
		<path class="st0" d="M106.6,16.3h11.3c6,0,8.5,2.7,8.5,6.6V23c0.2,2.6-1.7,5-4.3,5.5c3.1,0.5,5.1,2.4,5.1,5.9v0.1
			c0,4.5-2.9,7-9.2,7h-11.4V16.3z M116.4,26.3c2.3,0,3.1-0.8,3.1-2.6v-0.1c0-1.7-0.9-2.5-3.1-2.5h-2.8v5.2H116.4z M116.7,36.7
			c2.3,0,3.4-1.1,3.4-2.9v-0.1c0-1.9-1-2.9-3.6-2.9h-2.8v6L116.7,36.7z"/>
		<path class="st0" d="M129.6,15h6.4v26.6h-6.3L129.6,15z"/>
		<path class="st0" d="M138.4,32.6v-0.3c0-5.9,4.4-9.7,10.1-9.7s10.1,3.6,10.1,9.5v0.3c0,6-4.4,9.6-10.1,9.6S138.4,38.6,138.4,32.6z
			 M152.1,32.5v-0.3c0-3.1-1.2-4.8-3.6-4.8s-3.7,1.7-3.7,4.8v0.3c0,3.2,1.2,4.9,3.7,4.9S152.1,35.6,152.1,32.5z"/>
		<path class="st0" d="M159.8,32.6v-0.3c0-6.1,4.4-9.7,9.9-9.7c4.5,0,8.7,2,9.1,7.6h-5.9c-0.3-1.7-1.1-2.7-3-2.7
			c-2.2,0-3.5,1.6-3.5,4.7v0.3c0,3.2,1.2,4.9,3.6,4.9c1.7,0.1,3.1-1.3,3.2-3v-0.1h5.7c-0.2,4.7-3.3,7.7-9.3,7.7
			C164,42,159.8,38.8,159.8,32.6z"/>
		<path class="st0" d="M180.9,15h6.3v15.5l5-7.3h6.6l-6.1,8.3l6.5,10.2h-7.1l-5-8.1v8.1h-6.3L180.9,15z"/>
		<path class="st0" d="M21.1,66.5v-0.3c0-7.7,5.8-12.9,13.4-12.9S47.9,58.2,47.9,66v0.3c0,7.8-5.3,13.1-13.5,13.1
			S21.1,74.1,21.1,66.5z M40.3,66.4v-0.3c0-4.5-2.3-7.1-5.8-7.1s-5.8,2.6-5.8,7.2v0.3c0,4.6,2.3,7.3,5.8,7.3S40.3,70.9,40.3,66.4z"
			/>
		<path class="st0" d="M50.3,60.5h6.3v3c1.2-2.2,3.5-3.6,6.1-3.5c3.6,0,6,2.2,6,7v12h-6.3V68.2c0-2.1-0.8-3.1-2.7-3.1
			s-3.2,1.1-3.2,3.5V79h-6.3V60.5H50.3z"/>
		<path class="st0" d="M72,52.3h6.3V79H72V52.3z"/>
		<path class="st0" d="M81.5,55.5c-0.1-1.9,1.3-3.6,3.2-3.7c1.9-0.1,3.6,1.3,3.7,3.2s-1.3,3.6-3.2,3.7c-0.1,0-0.2,0-0.3,0
			C83.2,58.8,81.6,57.4,81.5,55.5L81.5,55.5z M81.9,60.5h6.3V79h-6.3V60.5z"/>
		<path class="st0" d="M91.6,60.5h6.3v3c1.2-2.2,3.6-3.6,6.1-3.5c3.6,0,6.1,2.2,6.1,7v12h-6.3V68.2c0-2.1-0.8-3.1-2.7-3.1
			s-3.2,1.1-3.2,3.5V79h-6.3V60.5z"/>
		<path class="st0" d="M112.1,70v-0.3c0-5.9,4.4-9.7,10-9.7c5.1,0,9.4,2.9,9.4,9.5v1.7h-13c0.2,2.4,1.6,3.8,3.8,3.8
			c2.1,0,3-1,3.2-2.2h5.9c-0.6,4.2-3.8,6.5-9.4,6.5C116.4,79.4,112.1,76,112.1,70z M125.4,67.7c-0.1-2.2-1.2-3.5-3.3-3.5
			s-3.2,1.2-3.5,3.5H125.4z"/>
		<path class="st0" d="M139.2,70v-0.3c0-6.2,4.4-9.7,9.9-9.7c4.5,0,8.7,2,9.1,7.6h-5.9c-0.3-1.7-1.1-2.7-3-2.7
			c-2.2,0-3.5,1.6-3.5,4.7v0.3c0,3.2,1.2,4.9,3.6,4.9c1.7,0.1,3.1-1.2,3.2-2.9v-0.1h5.7c-0.2,4.7-3.3,7.7-9.3,7.7
			C143.4,79.4,139.2,76.2,139.2,70z"/>
		<path class="st0" d="M159.2,70v-0.3c0-5.9,4.4-9.7,10.1-9.7s10.1,3.6,10.1,9.5v0.3c0,6-4.4,9.6-10.1,9.6S159.2,75.9,159.2,70z
			 M173,69.9v-0.3c0-3.1-1.2-4.8-3.6-4.8s-3.7,1.7-3.7,4.8v0.3c0,3.2,1.2,4.9,3.7,4.9S173,72.9,173,69.9L173,69.9z"/>
		<path class="st0" d="M180.6,73.1h5.8c0.2,1.3,0.8,2.1,2.6,2.1c1.6,0,2.3-0.6,2.3-1.5s-0.9-1.3-3.4-1.7c-5-0.6-7-2.1-7-5.9
			c0-4.1,3.6-6.1,7.9-6.1c4.6,0,7.8,1.6,8.2,6h-5.7c-0.1-1.1-1.1-2-2.2-1.9H189c-1.4,0-2.1,0.6-2.1,1.4s0.9,1.2,3.1,1.5
			c5.1,0.6,7.6,2,7.6,5.9c0,4.4-3.3,6.4-8.4,6.4S180.7,77.2,180.6,73.1z"/>
		<path class="st0" d="M200.3,73v-8.2h-2.2v-4.3h2.2v-3.9h6.3v3.9h3.6v4.3h-3.6v7.6c-0.2,0.9,0.5,1.8,1.4,1.9c0.2,0,0.3,0,0.5,0
			c0.6,0,1.2-0.1,1.8-0.3v4.8c-1.1,0.3-2.3,0.5-3.5,0.5C202.6,79.4,200.3,77.4,200.3,73z"/>
		<path class="st0" d="M211.7,73.1h5.8c0.2,1.3,0.8,2.1,2.6,2.1c1.6,0,2.3-0.6,2.3-1.5s-0.9-1.3-3.4-1.7c-4.9-0.6-7-2.1-7-5.9
			c0-4.1,3.6-6.1,7.9-6.1c4.6,0,7.7,1.6,8.2,6h-5.7c-0.1-1.1-1.1-2-2.3-1.9H220c-1.4,0-2.1,0.6-2.1,1.4s0.9,1.2,3.1,1.5
			c5.1,0.6,7.6,2,7.6,5.9c0,4.4-3.3,6.4-8.4,6.4S211.8,77.2,211.7,73.1z"/>
		<path class="st0" d="M236,73.8c0-4.3,3.7-6,9.8-6h1.8v-0.4c0-1.8-0.4-2.9-2.4-2.9c-1.2-0.1-2.4,0.8-2.5,2c0,0.1,0,0.1,0,0.2h-5.9
			c0.3-4.5,3.8-6.7,8.8-6.7s8.3,2.1,8.3,7v12h-6.1v-2.2c-0.9,1.3-2.5,2.6-5.5,2.6C238.9,79.4,236,77.8,236,73.8z M247.6,72.5v-1.1
			h-1.7c-2.6,0-3.7,0.5-3.7,2c0,1.1,0.7,1.7,2.2,1.7C246.2,75.1,247.6,74.1,247.6,72.5L247.6,72.5z"/>
		<path class="st0" d="M257.7,73v-8.2h-2.2v-4.3h2.2v-3.9h6.3v3.9h3.6v4.3H264v7.6c-0.2,0.9,0.5,1.8,1.4,1.9c0.2,0,0.3,0,0.5,0
			c0.6,0,1.2-0.1,1.8-0.3v4.8c-1.1,0.3-2.3,0.5-3.5,0.5C260,79.4,257.7,77.4,257.7,73z"/>
		<path class="st0" d="M22,89.7h6.3v26.6H22V89.7z"/>
		<path class="st0" d="M30.8,107.3V107c0-5.9,4.4-9.7,10-9.7c5.1,0,9.4,2.9,9.4,9.6v1.7h-13c0.2,2.4,1.6,3.8,3.8,3.8
			c2.1,0,3-1,3.2-2.2h5.9c-0.6,4.2-3.8,6.5-9.4,6.5C35,116.7,30.8,113.3,30.8,107.3z M44,105c-0.1-2.2-1.2-3.5-3.3-3.5
			s-3.2,1.2-3.5,3.5H44z"/>
		<path class="st0" d="M51.5,111.2c0-4.3,3.7-6,9.8-6h1.8v-0.4c0-1.8-0.4-2.9-2.4-2.9c-1.2-0.1-2.4,0.8-2.5,2c0,0.1,0,0.1,0,0.2
			h-5.9c0.3-4.5,3.8-6.7,8.8-6.7s8.3,2.1,8.3,7v12h-6.1v-2.2c-0.9,1.3-2.5,2.6-5.5,2.6C54.4,116.7,51.5,115.1,51.5,111.2z
			 M63.1,109.9v-1.1h-1.7c-2.5,0-3.7,0.5-3.7,2c0,1.1,0.7,1.7,2.2,1.7C61.7,112.5,63.1,111.4,63.1,109.9z"/>
		<path class="st0" d="M71.2,110.4H77c0.2,1.3,0.8,2.1,2.6,2.1c1.6,0,2.3-0.6,2.3-1.5s-0.9-1.3-3.4-1.7c-5-0.6-7-2.1-7-5.9
			c0-4.1,3.6-6.1,7.9-6.1c4.6,0,7.8,1.6,8.2,6h-5.8c-0.1-1.1-1.1-2-2.3-1.9h-0.1c-1.4,0-2.1,0.6-2.1,1.4s0.8,1.2,3.1,1.5
			c5.1,0.6,7.6,2,7.6,5.9c0,4.4-3.3,6.4-8.4,6.4S71.3,114.6,71.2,110.4z"/>
		<path class="st0" d="M91,110.4v-8.2h-2.3v-4.3H91V94h6.3v3.9h3.7v4.3h-3.7v7.6c-0.1,0.9,0.5,1.8,1.4,1.9c0.2,0,0.3,0,0.5,0
			c0.6,0,1.2-0.1,1.8-0.3v4.8c-1.1,0.3-2.3,0.5-3.5,0.5C93.3,116.7,91,114.7,91,110.4z"/>
		<path class="st0" d="M177.1,89.7h6.3v26.6h-6.3V89.7z"/>
		<path class="st0" d="M185.8,107.3V107c0-5.9,4.4-9.7,10-9.7c5.1,0,9.4,2.9,9.4,9.6v1.7h-13c0.2,2.4,1.6,3.8,3.9,3.8
			c2.1,0,3-1,3.2-2.2h5.9c-0.6,4.2-3.8,6.5-9.4,6.5C190.1,116.7,185.8,113.3,185.8,107.3z M199.1,105c-0.1-2.2-1.2-3.5-3.3-3.5
			s-3.2,1.2-3.5,3.5H199.1z"/>
		<path class="st0" d="M206.4,110.4h5.8c0.2,1.3,0.8,2.1,2.6,2.1c1.6,0,2.3-0.6,2.3-1.5s-0.9-1.3-3.4-1.7c-4.9-0.6-7-2.1-7-5.9
			c0-4.1,3.6-6.1,7.9-6.1c4.6,0,7.8,1.6,8.2,6H217c-0.1-1.1-1.1-2-2.2-1.9h-0.1c-1.4,0-2.1,0.6-2.1,1.4s0.9,1.2,3.1,1.5
			c5.1,0.6,7.6,2,7.6,5.9c0,4.4-3.3,6.4-8.4,6.4S206.5,114.6,206.4,110.4z"/>
		<path class="st0" d="M224.2,110.4h5.8c0.2,1.3,0.8,2.1,2.6,2.1c1.6,0,2.3-0.6,2.3-1.5s-0.9-1.3-3.4-1.7c-4.9-0.6-7-2.1-7-5.9
			c0-4.1,3.6-6.1,7.9-6.1c4.6,0,7.7,1.6,8.2,6h-5.7c-0.1-1.1-1.1-2-2.2-1.9h-0.1c-1.4,0-2.1,0.6-2.1,1.4s0.9,1.2,3.1,1.5
			c5.1,0.6,7.6,2,7.6,5.9c0,4.4-3.3,6.4-8.4,6.4S224.3,114.6,224.2,110.4z"/>
		<path class="st0" d="M22.7,147.7v-8.2h-2.2v-4.3h2.2v-3.9H29v3.9h3.6v4.3H29v7.6c-0.2,0.9,0.5,1.8,1.4,1.9c0.2,0,0.3,0,0.5,0
			c0.6,0,1.2-0.1,1.8-0.3v4.8c-1.1,0.3-2.3,0.5-3.5,0.5C25.1,154.1,22.7,152.1,22.7,147.7z"/>
		<path class="st0" d="M35.1,127.1h6.3v11.1c1.2-2.2,3.6-3.6,6.1-3.5c3.6,0,6,2.2,6,7v12h-6.3v-10.8c0-2.1-0.8-3.1-2.7-3.1
			s-3.2,1.1-3.2,3.5v10.4H35v-26.6H35.1z"/>
		<path class="st0" d="M55.6,148.5c0-4.4,3.7-6,9.8-6h1.8v-0.4c0-1.8-0.4-2.9-2.4-2.9c-1.2-0.1-2.4,0.8-2.5,2c0,0.1,0,0.1,0,0.2
			h-5.9c0.3-4.4,3.8-6.6,8.8-6.6s8.3,2.1,8.3,7v12h-6.1v-2.2c-0.9,1.4-2.5,2.6-5.5,2.6C58.5,154.1,55.6,152.5,55.6,148.5z
			 M67.2,147.2v-1.1h-1.7c-2.5,0-3.7,0.5-3.7,2c0,1.1,0.7,1.7,2.2,1.7C65.8,149.8,67.2,148.8,67.2,147.2z"/>
		<path class="st0" d="M76.5,135.2h6.3v3c1.2-2.2,3.6-3.6,6.1-3.5c3.6,0,6,2.2,6,7v12h-6.3v-10.8c0-2.1-0.8-3.1-2.7-3.1
			s-3.2,1.1-3.2,3.5v10.4h-6.3L76.5,135.2L76.5,135.2z"/>
		<path class="st0" d="M109.9,134h-6.5v-5.6h20.4v5.6h-6.5v19.7H110L109.9,134L109.9,134z"/>
		<path class="st0" d="M124.3,147.2v-12h6.3v11c0,2.1,0.8,3.1,2.6,3.1s3.1-1.1,3.1-3.5v-10.7h6.3v18.5h-6.3v-2.9
			c-1.1,2.2-3.4,3.5-5.9,3.3C126.9,154.1,124.3,151.9,124.3,147.2z"/>
		<path class="st0" d="M145.9,135.2h6.3v3.7c0.9-2.5,3.3-4.1,6-3.9v5.9c-3.9-0.1-6,1.1-6,4.1v8.8h-6.3V135.2z"/>
		<path class="st0" d="M166.8,150.8v2.9h-6.3v-26.6h6.3V138c1.2-2.1,3.4-3.3,5.8-3.3c4.3,0,7.8,3.3,7.8,9.6v0.3
			c0,6.4-3.5,9.5-7.9,9.5C170.2,154.2,167.9,152.9,166.8,150.8z M174,144.6v-0.3c0-3.3-1.4-4.8-3.6-4.8s-3.7,1.7-3.7,4.8v0.3
			c0,3.1,1.4,4.7,3.7,4.7S174,147.6,174,144.6L174,144.6z"/>
		<path class="st0" d="M181.7,144.6v-0.3c0-5.9,4.4-9.7,10.1-9.7s10.1,3.6,10.1,9.5v0.3c0,6-4.4,9.6-10.1,9.6
			S181.7,150.6,181.7,144.6z M195.5,144.5v-0.3c0-3.1-1.2-4.8-3.6-4.8s-3.7,1.7-3.7,4.8v0.3c0,3.2,1.2,4.9,3.7,4.9
			S195.5,147.6,195.5,144.5L195.5,144.5z"/>
		<path class="st0" d="M209.6,134H203v-5.6h20.4v5.6h-6.5v19.7h-7.3L209.6,134L209.6,134z"/>
		<path class="st0" d="M222.1,148.5c0-4.4,3.7-6,9.8-6h1.8v-0.4c0-1.8-0.4-2.9-2.4-2.9c-1.2-0.1-2.4,0.8-2.5,2c0,0.1,0,0.1,0,0.2
			h-5.9c0.3-4.4,3.8-6.6,8.8-6.6s8.4,2.1,8.4,7v12H234v-2.2c-0.9,1.4-2.5,2.6-5.5,2.6C225.1,154.1,222.1,152.5,222.1,148.5z
			 M233.7,147.2v-1.1H232c-2.5,0-3.7,0.5-3.7,2c0,1.1,0.7,1.7,2.2,1.7C232.4,149.8,233.7,148.8,233.7,147.2L233.7,147.2z"/>
		<path class="st0" d="M247.8,144.3l-5.8-9.1h7.3l2.9,4.9l2.8-4.9h6.5l-5.8,8.6l6.4,9.9h-7.3l-3.3-5.5l-3.4,5.5h-6.5L247.8,144.3z"
			/>
		<path class="st0" d="M263.3,150.5c0-1.9,1.5-3.5,3.5-3.6h0.1c2,0,3.6,1.6,3.6,3.6s-1.6,3.6-3.6,3.6l0,0c-1.9,0-3.6-1.5-3.6-3.4
			C263.3,150.6,263.3,150.5,263.3,150.5z"/>
	</g>
	<g id="Rect">
		<rect class="st1" width="300" height="250"/>
	</g>
</g>
<g>
	<path class="st0" d="M209,233.5h3.8v0.6h-3v2.3h2.3v0.6h-2.3v2.9H209V233.5z"/>
	<path class="st0" d="M213.1,237.6L213.1,237.6c0-1.5,1-2.5,2.3-2.5c1.3,0,2.3,1,2.3,2.4v0.1c0,1.4-1,2.4-2.3,2.4
		S213.1,239,213.1,237.6z M217,237.6L217,237.6c0-1.2-0.6-1.9-1.5-1.9c-0.9,0-1.5,0.7-1.5,1.8v0.1c0,1.1,0.6,1.8,1.5,1.8
		C216.4,239.4,217,238.7,217,237.6z"/>
	<path class="st0" d="M218.8,235.2h0.7v0.8c0.3-0.5,0.7-0.9,1.5-0.9v0.7c-0.9,0-1.5,0.3-1.5,1.5v2.6h-0.7V235.2z"/>
	<path class="st0" d="M224.3,235.2h0.7v0.8c0.3-0.5,0.9-0.9,1.6-0.9c1.2,0,2.1,0.9,2.1,2.4v0.1c0,1.4-0.8,2.4-2.1,2.4
		c-0.8,0-1.3-0.4-1.6-0.9v2.4h-0.7V235.2z M228,237.6L228,237.6c0-1.3-0.7-1.9-1.5-1.9c-0.9,0-1.5,0.6-1.5,1.8v0.1
		c0,1.2,0.6,1.8,1.5,1.8C227.5,239.4,228,238.8,228,237.6z"/>
	<path class="st0" d="M229.4,238.7c0-1.1,1.2-1.5,2.4-1.5h0.7v-0.3c0-0.7-0.3-1.1-1-1.1c-0.6,0-1,0.3-1.1,0.8h-0.7
		c0.1-1.1,1-1.5,1.9-1.5c0.9,0,1.7,0.4,1.7,1.7v3.1h-0.7v-0.6c-0.4,0.4-0.8,0.7-1.5,0.7C230.1,240,229.4,239.6,229.4,238.7z
		 M232.4,238.3v-0.6h-0.6c-0.9,0-1.6,0.2-1.6,0.9c0,0.5,0.2,0.8,0.9,0.8C231.8,239.4,232.4,239,232.4,238.3z"/>
	<path class="st0" d="M234.4,233.8c0-0.3,0.2-0.5,0.5-0.5c0.3,0,0.5,0.2,0.5,0.5c0,0.3-0.2,0.5-0.5,0.5
		C234.6,234.3,234.4,234,234.4,233.8z M234.5,235.2h0.7v4.7h-0.7V235.2z"/>
	<path class="st0" d="M236.3,237.7L236.3,237.7c0-1.5,0.9-2.5,2.2-2.5c0.8,0,1.3,0.4,1.5,0.8v-3h0.7v7h-0.7v-0.8
		c-0.3,0.5-0.9,0.9-1.6,0.9C237.2,240,236.3,239.2,236.3,237.7z M240.1,237.6L240.1,237.6c0-1.3-0.6-1.8-1.5-1.8
		c-0.9,0-1.5,0.7-1.5,1.8v0.1c0,1.2,0.6,1.8,1.4,1.8C239.4,239.4,240.1,238.8,240.1,237.6z"/>
	<path class="st0" d="M243.9,235.2h0.8l1.4,4l1.4-4h0.8l-1.7,4.7h-1L243.9,235.2z"/>
	<path class="st0" d="M248.6,237.7L248.6,237.7c0-1.5,0.9-2.5,2.2-2.5c1.1,0,2.1,0.7,2.1,2.3v0.2h-3.5c0,1.1,0.5,1.7,1.5,1.7
		c0.7,0,1.2-0.3,1.3-0.8h0.7c-0.2,0.9-0.9,1.4-2,1.4C249.6,240,248.6,239.1,248.6,237.7z M252.2,237.1c-0.1-1-0.6-1.4-1.4-1.4
		c-0.8,0-1.3,0.5-1.4,1.4H252.2z"/>
	<path class="st0" d="M253.9,235.2h0.7v0.8c0.3-0.5,0.7-0.9,1.5-0.9v0.7c-0.9,0-1.5,0.3-1.5,1.5v2.6h-0.7V235.2z"/>
	<path class="st0" d="M256.8,238.5h0.7c0.1,0.6,0.4,0.9,1.1,0.9c0.7,0,1-0.2,1-0.7c0-0.5-0.4-0.7-1.1-0.8c-1.2-0.2-1.6-0.6-1.6-1.4
		c0-0.9,0.9-1.3,1.6-1.3c0.8,0,1.6,0.3,1.7,1.4h-0.7c-0.1-0.5-0.4-0.7-1-0.7c-0.5,0-0.9,0.3-0.9,0.7c0,0.4,0.2,0.6,1.1,0.7
		c1,0.2,1.7,0.4,1.7,1.4c0,0.9-0.6,1.4-1.7,1.4C257.5,240,256.8,239.5,256.8,238.5z"/>
	<path class="st0" d="M261.2,233.8c0-0.3,0.2-0.5,0.5-0.5c0.3,0,0.5,0.2,0.5,0.5c0,0.3-0.2,0.5-0.5,0.5
		C261.4,234.3,261.2,234,261.2,233.8z M261.3,235.2h0.7v4.7h-0.7V235.2z"/>
	<path class="st0" d="M263.1,237.6L263.1,237.6c0-1.5,1-2.5,2.3-2.5s2.3,1,2.3,2.4v0.1c0,1.4-1,2.4-2.3,2.4
		C264.1,240,263.1,239,263.1,237.6z M267,237.6L267,237.6c0-1.2-0.6-1.9-1.5-1.9c-0.9,0-1.5,0.7-1.5,1.8v0.1c0,1.1,0.6,1.8,1.5,1.8
		C266.4,239.4,267,238.7,267,237.6z"/>
	<path class="st0" d="M268.8,235.2h0.7v0.7c0.2-0.4,0.7-0.8,1.5-0.8c1,0,1.7,0.5,1.7,1.9v2.9H272V237c0-0.8-0.4-1.2-1.1-1.2
		c-0.7,0-1.3,0.4-1.3,1.3v2.9h-0.7V235.2z"/>
	<path class="st0" d="M273.6,238.5h0.7c0.1,0.6,0.4,0.9,1.1,0.9c0.7,0,1-0.2,1-0.7c0-0.5-0.4-0.7-1.1-0.8c-1.2-0.2-1.6-0.6-1.6-1.4
		c0-0.9,0.9-1.3,1.6-1.3c0.8,0,1.6,0.3,1.7,1.4h-0.7c-0.1-0.5-0.4-0.7-1-0.7c-0.5,0-0.9,0.3-0.9,0.7c0,0.4,0.2,0.6,1.1,0.7
		c1,0.2,1.7,0.4,1.7,1.4c0,0.9-0.6,1.4-1.7,1.4C274.4,240,273.7,239.5,273.6,238.5z"/>
	<path class="st0" d="M278.2,239.4c0-0.3,0.3-0.6,0.6-0.6s0.6,0.3,0.6,0.6s-0.3,0.6-0.6,0.6S278.2,239.8,278.2,239.4z"/>
</g>
</svg>
