<svg xmlns="http://www.w3.org/2000/svg" viewBox="0 0 160 600"><title>20_outline</title><g id="Layer_2" data-name="Layer 2"><g id="Rect"><rect width="160" height="600" fill="none"/></g><g id="_20_Solid" data-name="$20_Solid"><path d="M40.82,288.93l19.67-20.85c5.59-6,9.29-10.78,9.29-15.5,0-3.78-2-6.3-6-6.3s-6.53,2.44-7.24,9.13H41.92c.55-14.09,9-21.25,22.66-21.25,13.78,0,21.09,7.4,21.09,17.79,0,7.71-4.32,13.53-10.62,19.59l-7.87,7.63H86.07v12H40.82Z" fill="#14aa40" stroke="#14aa40" stroke-miterlimit="10" stroke-width="1.53"/><path d="M88.27,264.3v-2.36c0-17.78,11.09-27.78,26-27.78s26,9.21,26,27.47v2.2c0,17.86-10.23,28.33-26.29,28.33C98.18,292.16,88.27,282,88.27,264.3Zm35.8-.16v-2.28c0-10.31-3-15.5-9.83-15.5s-9.84,5.12-9.84,15.5v2.36c0,10.47,3.07,15.43,10,15.43S124.07,274.53,124.07,264.14Z" fill="#14aa40" stroke="#14aa40" stroke-miterlimit="10" stroke-width="1.53"/><path d="M29.71,250.62l-2.59-.43c-5.8-.84-8.26-2.93-8.26-7.56,0-4,3.16-6.93,8.26-7.29v-3h2.59v3c4.83.4,7.69,2.63,8.09,7.19h-6a2.67,2.67,0,0,0-2.07-2.5m0,0a6.28,6.28,0,0,0-2.59-.06c-1.5.26-2.27,1.06-2.27,2.13s.47,1.76,2.27,2.13l2.59.4c5.1.73,8.43,2.46,8.43,7.29,0,4.06-2.63,7.46-8.43,7.83v4.16H27.12v-4.16c-5.77-.4-8.56-3.47-8.8-7.86h6.16a3.16,3.16,0,0,0,2.64,3.13,10,10,0,0,0,2.59,0,2.43,2.43,0,0,0,2.23-2.37c0-1.09-.46-1.66-2.23-2.06" fill="#14aa40" stroke="#14aa40" stroke-miterlimit="10" stroke-width="1.53"/></g></g></svg>