<svg xmlns="http://www.w3.org/2000/svg" viewBox="0 0 160 600"><title>grid</title><g id="Layer_2" data-name="Layer 2"><g id="Rect"><rect width="160" height="600" fill="none"/></g><g id="Grid_Outer"><g id="Grid_Inner"><path id="_20" data-name="$20" d="M127.79,383.15l-3.32-.56c-7.4-1.06-10.55-3.74-10.55-9.65,0-5.15,4-8.85,10.55-9.31v-3.79h3.32v3.83c6.17.51,9.82,3.36,10.34,9.18h-7.7a3.41,3.41,0,0,0-2.64-3.19m0,0a8.08,8.08,0,0,0-3.32-.08c-1.9.33-2.89,1.36-2.89,2.72s.6,2.26,2.89,2.72l3.32.51c6.51.94,10.76,3.15,10.76,9.32,0,5.19-3.36,9.53-10.76,10v5.32h-3.32v-5.32c-7.36-.51-10.93-4.42-11.23-10h7.87c.22,1.95,1,3.48,3.36,4a13.09,13.09,0,0,0,3.32,0,3.09,3.09,0,0,0,2.85-3c0-1.4-.6-2.12-2.85-2.63" fill="#14aa40" stroke="#14aa40" stroke-miterlimit="10" stroke-width="1.34"/><path id="_19" data-name="$19" d="M97.19,383.15l-3.32-.56c-7.4-1.06-10.54-3.74-10.54-9.65,0-5.15,4-8.85,10.54-9.31v-3.79h3.32v3.83c6.17.51,9.83,3.36,10.34,9.18h-7.7a3.4,3.4,0,0,0-2.64-3.19m0,0a8.08,8.08,0,0,0-3.32-.08c-1.9.33-2.89,1.36-2.89,2.72s.6,2.26,2.89,2.72l3.32.51c6.51.94,10.76,3.15,10.76,9.32,0,5.19-3.36,9.53-10.76,10v5.32H93.87v-5.32c-7.35-.51-10.93-4.42-11.22-10h7.86c.22,1.95,1,3.48,3.36,4a13.09,13.09,0,0,0,3.32,0,3.09,3.09,0,0,0,2.85-3c0-1.4-.59-2.12-2.85-2.63" fill="#14aa40" stroke="#14aa40" stroke-miterlimit="10" stroke-width="1.34"/><path id="_18" data-name="$18" d="M66.59,383.15l-3.31-.56c-7.4-1.06-10.55-3.74-10.55-9.65,0-5.15,4-8.85,10.55-9.31v-3.79h3.31v3.83c6.17.51,9.83,3.36,10.34,9.18h-7.7a3.39,3.39,0,0,0-2.64-3.19m0,0a8,8,0,0,0-3.31-.08c-1.91.33-2.9,1.36-2.9,2.72s.6,2.26,2.9,2.72l3.31.51c6.51.94,10.76,3.15,10.76,9.32,0,5.19-3.36,9.53-10.76,10v5.32H63.28v-5.32c-7.36-.51-10.93-4.42-11.23-10h7.87c.21,1.95,1,3.48,3.36,4a13,13,0,0,0,3.31,0,3.08,3.08,0,0,0,2.85-3c0-1.4-.59-2.12-2.85-2.63" fill="#14aa40" stroke="#14aa40" stroke-miterlimit="10" stroke-width="1.34"/><path id="_17" data-name="$17" d="M36,383.15l-3.32-.56c-7.4-1.06-10.55-3.74-10.55-9.65,0-5.15,4-8.85,10.55-9.31v-3.79H36v3.83c6.16.51,9.82,3.36,10.33,9.18h-7.7A3.39,3.39,0,0,0,36,369.66m0,0a8.1,8.1,0,0,0-3.32-.08c-1.91.33-2.89,1.36-2.89,2.72s.59,2.26,2.89,2.72l3.32.51c6.5.94,10.76,3.15,10.76,9.32,0,5.19-3.36,9.53-10.76,10v5.32H32.68v-5.32c-7.36-.51-10.93-4.42-11.23-10h7.87c.21,1.95,1,3.48,3.36,4a13.06,13.06,0,0,0,3.32,0,3.08,3.08,0,0,0,2.84-3c0-1.4-.59-2.12-2.84-2.63" fill="#14aa40" stroke="#14aa40" stroke-miterlimit="10" stroke-width="1.34"/><path id="_16" data-name="$16" d="M127.79,343.15l-3.32-.56c-7.4-1.06-10.55-3.74-10.55-9.65,0-5.15,4-8.85,10.55-9.31v-3.79h3.32v3.83c6.17.51,9.82,3.36,10.34,9.18h-7.7a3.41,3.41,0,0,0-2.64-3.19m0,0a8.08,8.08,0,0,0-3.32-.08c-1.9.33-2.89,1.36-2.89,2.72s.6,2.26,2.89,2.72l3.32.51c6.51.94,10.76,3.15,10.76,9.32,0,5.19-3.36,9.53-10.76,10v5.32h-3.32v-5.32c-7.36-.51-10.93-4.42-11.23-10h7.87c.22,1.95,1,3.48,3.36,4a13.09,13.09,0,0,0,3.32,0,3.09,3.09,0,0,0,2.85-3c0-1.4-.6-2.12-2.85-2.63" fill="#14aa40" stroke="#14aa40" stroke-miterlimit="10" stroke-width="1.34"/><path id="_15" data-name="$15" d="M97.19,343.15l-3.32-.56c-7.4-1.06-10.54-3.74-10.54-9.65,0-5.15,4-8.85,10.54-9.31v-3.79h3.32v3.83c6.17.51,9.83,3.36,10.34,9.18h-7.7a3.4,3.4,0,0,0-2.64-3.19m0,0a8.08,8.08,0,0,0-3.32-.08c-1.9.33-2.89,1.36-2.89,2.72s.6,2.26,2.89,2.72l3.32.51c6.51.94,10.76,3.15,10.76,9.32,0,5.19-3.36,9.53-10.76,10v5.32H93.87v-5.32c-7.35-.51-10.93-4.42-11.22-10h7.86c.22,1.95,1,3.48,3.36,4a13.09,13.09,0,0,0,3.32,0,3.09,3.09,0,0,0,2.85-3c0-1.4-.59-2.12-2.85-2.63" fill="#14aa40" stroke="#14aa40" stroke-miterlimit="10" stroke-width="1.34"/><path id="_14" data-name="$14" d="M66.59,343.15l-3.31-.56c-7.4-1.06-10.55-3.74-10.55-9.65,0-5.15,4-8.85,10.55-9.31v-3.79h3.31v3.83c6.17.51,9.83,3.36,10.34,9.18h-7.7a3.39,3.39,0,0,0-2.64-3.19m0,0a8,8,0,0,0-3.31-.08c-1.91.33-2.9,1.36-2.9,2.72s.6,2.26,2.9,2.72l3.31.51c6.51.94,10.76,3.15,10.76,9.32,0,5.19-3.36,9.53-10.76,10v5.32H63.28v-5.32c-7.36-.51-10.93-4.42-11.23-10h7.87c.21,1.95,1,3.48,3.36,4a13,13,0,0,0,3.31,0,3.08,3.08,0,0,0,2.85-3c0-1.4-.59-2.12-2.85-2.63" fill="#14aa40" stroke="#14aa40" stroke-miterlimit="10" stroke-width="1.34"/><path id="_13" data-name="$13" d="M36,343.15l-3.32-.56c-7.4-1.06-10.55-3.74-10.55-9.65,0-5.15,4-8.85,10.55-9.31v-3.79H36v3.83c6.16.51,9.82,3.36,10.33,9.18h-7.7A3.39,3.39,0,0,0,36,329.66m0,0a8.1,8.1,0,0,0-3.32-.08c-1.91.33-2.89,1.36-2.89,2.72s.59,2.26,2.89,2.72l3.32.51c6.5.94,10.76,3.15,10.76,9.32,0,5.19-3.36,9.53-10.76,10v5.32H32.68v-5.32c-7.36-.51-10.93-4.42-11.23-10h7.87c.21,1.95,1,3.48,3.36,4a13.06,13.06,0,0,0,3.32,0,3.08,3.08,0,0,0,2.84-3c0-1.4-.59-2.12-2.84-2.63" fill="#14aa40" stroke="#14aa40" stroke-miterlimit="10" stroke-width="1.34"/><path id="_12" data-name="$12" d="M127.79,303.15l-3.32-.56c-7.4-1.06-10.55-3.74-10.55-9.65,0-5.15,4-8.85,10.55-9.31v-3.79h3.32v3.83c6.17.51,9.82,3.36,10.34,9.18h-7.7a3.41,3.41,0,0,0-2.64-3.19m0,0a8.08,8.08,0,0,0-3.32-.08c-1.9.33-2.89,1.36-2.89,2.72s.6,2.26,2.89,2.72l3.32.51c6.51.94,10.76,3.15,10.76,9.32,0,5.19-3.36,9.53-10.76,10v5.32h-3.32v-5.32c-7.36-.51-10.93-4.42-11.23-10h7.87c.22,1.95,1,3.48,3.36,4a13.09,13.09,0,0,0,3.32,0,3.09,3.09,0,0,0,2.85-3c0-1.4-.6-2.12-2.85-2.63" fill="#14aa40" stroke="#14aa40" stroke-miterlimit="10" stroke-width="1.34"/><path id="_11" data-name="$11" d="M97.19,303.15l-3.32-.56c-7.4-1.06-10.54-3.74-10.54-9.65,0-5.15,4-8.85,10.54-9.31v-3.79h3.32v3.83c6.17.51,9.83,3.36,10.34,9.18h-7.7a3.4,3.4,0,0,0-2.64-3.19m0,0a8.08,8.08,0,0,0-3.32-.08c-1.9.33-2.89,1.36-2.89,2.72s.6,2.26,2.89,2.72l3.32.51c6.51.94,10.76,3.15,10.76,9.32,0,5.19-3.36,9.53-10.76,10v5.32H93.87v-5.32c-7.35-.51-10.93-4.42-11.22-10h7.86c.22,1.95,1,3.48,3.36,4a13.09,13.09,0,0,0,3.32,0,3.09,3.09,0,0,0,2.85-3c0-1.4-.59-2.12-2.85-2.63" fill="#14aa40" stroke="#14aa40" stroke-miterlimit="10" stroke-width="1.34"/><path id="_10" data-name="$10" d="M66.59,303.15l-3.31-.56c-7.4-1.06-10.55-3.74-10.55-9.65,0-5.15,4-8.85,10.55-9.31v-3.79h3.31v3.83c6.17.51,9.83,3.36,10.34,9.18h-7.7a3.39,3.39,0,0,0-2.64-3.19m0,0a8,8,0,0,0-3.31-.08c-1.91.33-2.9,1.36-2.9,2.72s.6,2.26,2.9,2.72l3.31.51c6.51.94,10.76,3.15,10.76,9.32,0,5.19-3.36,9.53-10.76,10v5.32H63.28v-5.32c-7.36-.51-10.93-4.42-11.23-10h7.87c.21,1.95,1,3.48,3.36,4a13,13,0,0,0,3.31,0,3.08,3.08,0,0,0,2.85-3c0-1.4-.59-2.12-2.85-2.63" fill="#14aa40" stroke="#14aa40" stroke-miterlimit="10" stroke-width="1.34"/><path id="_9" data-name="$9" d="M36,303.15l-3.32-.56c-7.4-1.06-10.55-3.74-10.55-9.65,0-5.15,4-8.85,10.55-9.31v-3.79H36v3.83c6.16.51,9.82,3.36,10.33,9.18h-7.7A3.39,3.39,0,0,0,36,289.66m0,0a8.1,8.1,0,0,0-3.32-.08c-1.91.33-2.89,1.36-2.89,2.72s.59,2.26,2.89,2.72l3.32.51c6.5.94,10.76,3.15,10.76,9.32,0,5.19-3.36,9.53-10.76,10v5.32H32.68v-5.32c-7.36-.51-10.93-4.42-11.23-10h7.87c.21,1.95,1,3.48,3.36,4a13.06,13.06,0,0,0,3.32,0,3.08,3.08,0,0,0,2.84-3c0-1.4-.59-2.12-2.84-2.63" fill="#14aa40" stroke="#14aa40" stroke-miterlimit="10" stroke-width="1.34"/><path id="_8" data-name="$8" d="M127.79,263.15l-3.32-.56c-7.4-1.06-10.55-3.74-10.55-9.65,0-5.15,4-8.85,10.55-9.31v-3.79h3.32v3.83c6.17.51,9.82,3.36,10.34,9.18h-7.7a3.41,3.41,0,0,0-2.64-3.19m0,0a8.08,8.08,0,0,0-3.32-.08c-1.9.33-2.89,1.36-2.89,2.72s.6,2.26,2.89,2.72l3.32.51c6.51.94,10.76,3.15,10.76,9.32,0,5.19-3.36,9.53-10.76,10v5.32h-3.32v-5.32c-7.36-.51-10.93-4.42-11.23-10h7.87c.22,1.95,1,3.48,3.36,4a13.09,13.09,0,0,0,3.32,0,3.09,3.09,0,0,0,2.85-3c0-1.4-.6-2.12-2.85-2.63" fill="#14aa40" stroke="#14aa40" stroke-miterlimit="10" stroke-width="1.34"/><path id="_7" data-name="$7" d="M97.19,263.15l-3.32-.56c-7.4-1.06-10.54-3.74-10.54-9.65,0-5.15,4-8.85,10.54-9.31v-3.79h3.32v3.83c6.17.51,9.83,3.36,10.34,9.18h-7.7a3.4,3.4,0,0,0-2.64-3.19m0,0a8.08,8.08,0,0,0-3.32-.08c-1.9.33-2.89,1.36-2.89,2.72s.6,2.26,2.89,2.72l3.32.51c6.51.94,10.76,3.15,10.76,9.32,0,5.19-3.36,9.53-10.76,10v5.32H93.87v-5.32c-7.35-.51-10.93-4.42-11.22-10h7.86c.22,1.95,1,3.48,3.36,4a13.09,13.09,0,0,0,3.32,0,3.09,3.09,0,0,0,2.85-3c0-1.4-.59-2.12-2.85-2.63" fill="#14aa40" stroke="#14aa40" stroke-miterlimit="10" stroke-width="1.34"/><path id="_6" data-name="$6" d="M66.59,263.15l-3.31-.56c-7.4-1.06-10.55-3.74-10.55-9.65,0-5.15,4-8.85,10.55-9.31v-3.79h3.31v3.83c6.17.51,9.83,3.36,10.34,9.18h-7.7a3.39,3.39,0,0,0-2.64-3.19m0,0a8,8,0,0,0-3.31-.08c-1.91.33-2.9,1.36-2.9,2.72s.6,2.26,2.9,2.72l3.31.51c6.51.94,10.76,3.15,10.76,9.32,0,5.19-3.36,9.53-10.76,10v5.32H63.28v-5.32c-7.36-.51-10.93-4.42-11.23-10h7.87c.21,1.95,1,3.48,3.36,4a13,13,0,0,0,3.31,0,3.08,3.08,0,0,0,2.85-3c0-1.4-.59-2.12-2.85-2.63" fill="#14aa40" stroke="#14aa40" stroke-miterlimit="10" stroke-width="1.34"/><path id="_5" data-name="$5" d="M36,263.15l-3.32-.56c-7.4-1.06-10.55-3.74-10.55-9.65,0-5.15,4-8.85,10.55-9.31v-3.79H36v3.83c6.16.51,9.82,3.36,10.33,9.18h-7.7A3.39,3.39,0,0,0,36,249.66m0,0a8.1,8.1,0,0,0-3.32-.08c-1.91.33-2.89,1.36-2.89,2.72s.59,2.26,2.89,2.72l3.32.51c6.5.94,10.76,3.15,10.76,9.32,0,5.19-3.36,9.53-10.76,10v5.32H32.68v-5.32c-7.36-.51-10.93-4.42-11.23-10h7.87c.21,1.95,1,3.48,3.36,4a13.06,13.06,0,0,0,3.32,0,3.08,3.08,0,0,0,2.84-3c0-1.4-.59-2.12-2.84-2.63" fill="#14aa40" stroke="#14aa40" stroke-miterlimit="10" stroke-width="1.34"/><path id="_4" data-name="$4" d="M127.79,223.15l-3.32-.56c-7.4-1.06-10.55-3.74-10.55-9.65,0-5.15,4-8.85,10.55-9.31v-3.79h3.32v3.83c6.17.51,9.82,3.36,10.34,9.18h-7.7a3.41,3.41,0,0,0-2.64-3.19m0,0a8.08,8.08,0,0,0-3.32-.08c-1.9.33-2.89,1.36-2.89,2.72s.6,2.26,2.89,2.72l3.32.51c6.51.94,10.76,3.15,10.76,9.32,0,5.19-3.36,9.53-10.76,10v5.32h-3.32v-5.32c-7.36-.51-10.93-4.42-11.23-10h7.87c.22,1.95,1,3.48,3.36,4a13.09,13.09,0,0,0,3.32,0,3.09,3.09,0,0,0,2.85-3c0-1.4-.6-2.12-2.85-2.63" fill="#14aa40" stroke="#14aa40" stroke-miterlimit="10" stroke-width="1.34"/><path id="_3" data-name="$3" d="M97.19,223.15l-3.32-.56c-7.4-1.06-10.54-3.74-10.54-9.65,0-5.15,4-8.85,10.54-9.31v-3.79h3.32v3.83c6.17.51,9.83,3.36,10.34,9.18h-7.7a3.4,3.4,0,0,0-2.64-3.19m0,0a8.08,8.08,0,0,0-3.32-.08c-1.9.33-2.89,1.36-2.89,2.72s.6,2.26,2.89,2.72l3.32.51c6.51.94,10.76,3.15,10.76,9.32,0,5.19-3.36,9.53-10.76,10v5.32H93.87v-5.32c-7.35-.51-10.93-4.42-11.22-10h7.86c.22,1.95,1,3.48,3.36,4a13.09,13.09,0,0,0,3.32,0,3.09,3.09,0,0,0,2.85-3c0-1.4-.59-2.12-2.85-2.63" fill="#14aa40" stroke="#14aa40" stroke-miterlimit="10" stroke-width="1.34"/><path id="_2" data-name="$2" d="M66.59,223.15l-3.31-.56c-7.4-1.06-10.55-3.74-10.55-9.65,0-5.15,4-8.85,10.55-9.31v-3.79h3.31v3.83c6.17.51,9.83,3.36,10.34,9.18h-7.7a3.39,3.39,0,0,0-2.64-3.19m0,0a8,8,0,0,0-3.31-.08c-1.91.33-2.9,1.36-2.9,2.72s.6,2.26,2.9,2.72l3.31.51c6.51.94,10.76,3.15,10.76,9.32,0,5.19-3.36,9.53-10.76,10v5.32H63.28v-5.32c-7.36-.51-10.93-4.42-11.23-10h7.87c.21,1.95,1,3.48,3.36,4a13,13,0,0,0,3.31,0,3.08,3.08,0,0,0,2.85-3c0-1.4-.59-2.12-2.85-2.63" fill="#14aa40" stroke="#14aa40" stroke-miterlimit="10" stroke-width="1.34"/><path id="_1" data-name="$1" d="M36,223.15l-3.32-.56c-7.4-1.06-10.55-3.74-10.55-9.65,0-5.15,4-8.85,10.55-9.31v-3.79H36v3.83c6.16.51,9.82,3.36,10.33,9.18h-7.7A3.39,3.39,0,0,0,36,209.66m0,0a8.1,8.1,0,0,0-3.32-.08c-1.91.33-2.89,1.36-2.89,2.72s.59,2.26,2.89,2.72l3.32.51c6.5.94,10.76,3.15,10.76,9.32,0,5.19-3.36,9.53-10.76,10v5.32H32.68v-5.32c-7.36-.51-10.93-4.42-11.23-10h7.87c.21,1.95,1,3.48,3.36,4a13.06,13.06,0,0,0,3.32,0,3.08,3.08,0,0,0,2.84-3c0-1.4-.59-2.12-2.84-2.63" fill="#14aa40" stroke="#14aa40" stroke-miterlimit="10" stroke-width="1.34"/></g></g></g></svg>