<svg xmlns="http://www.w3.org/2000/svg" viewBox="0 0 728 90"><title>H2</title><g id="Layer_2" data-name="Layer 2"><g id="Artboard_2" data-name="Artboard 2" style="isolation:isolate"><g id="Rect"><rect width="728" height="90" fill="none"/></g><g id="H_R_Block_Online_costs_up_to_10_less_than_TurboTax." data-name="H&amp;R Block Online costs up to $10 less than TurboTax."><path d="M122.24,16.23h6.7v8.88h7.64V16.23h6.66V39.47h-6.66V30.31h-7.64v9.16h-6.7Z" fill="#fff"/><path d="M165.53,34.73l3.87,4.74h-7.57l-1.37-1.69a9.25,9.25,0,0,1-6.27,2.08c-4.94,0-8.16-2.6-8.16-7,0-3,1.82-5.2,5.11-6.76A7.4,7.4,0,0,1,149.71,22c0-4,3.37-6.08,7.47-6.08,3.71,0,7,1.85,7,5.43,0,2.53-1.49,4.39-4.64,5.75l2.92,3.58,1.69-3.32h5.07ZM157.47,34l-3.67-4.42a2.76,2.76,0,0,0-1.56,2.51,2.7,2.7,0,0,0,3,2.89A3,3,0,0,0,157.47,34Zm-.71-9.36c1.56-.74,2.31-1.62,2.31-2.82a1.68,1.68,0,0,0-1.73-1.79,1.85,1.85,0,0,0-1.91,2A4.26,4.26,0,0,0,156.76,24.68Z" fill="#fff"/><path d="M171.51,16.23h9.1c6.08,0,9.46,2.47,9.46,7.38v.13a6.06,6.06,0,0,1-4.19,6.11l5.56,9.62h-7l-4.72-8.32h-1.56v8.32h-6.63Zm8.78,10.6c2.24,0,3.35-.94,3.35-2.83v-.13c0-1.88-1.17-2.63-3.32-2.63h-2.18v5.59Z" fill="#fff"/><path d="M199.59,16.23H210c5.49,0,7.83,2.47,7.83,6.08v.13a4.8,4.8,0,0,1-3.93,5c2.86.48,4.65,2.21,4.65,5.42V33c0,4.16-2.7,6.47-8.45,6.47H199.59Zm9,9.23c2.08,0,2.86-.71,2.86-2.37V23c0-1.59-.85-2.31-2.86-2.31h-2.54v4.81Zm.22,9.56c2.12,0,3.09-1,3.09-2.7v-.13c0-1.75-.94-2.66-3.28-2.66h-2.57V35Z" fill="#fff"/><path d="M220.81,15h5.79V39.47h-5.79Z" fill="#fff"/><path d="M228.81,31.18v-.26c0-5.46,4.06-8.9,9.33-8.9s9.26,3.35,9.26,8.74V31c0,5.53-4.06,8.84-9.3,8.84S228.81,36.68,228.81,31.18Zm12.67-.09v-.26c0-2.86-1.13-4.46-3.34-4.46s-3.38,1.53-3.38,4.39V31c0,2.93,1.13,4.52,3.38,4.52S241.48,33.91,241.48,31.09Z" fill="#fff"/><path d="M248.54,31.18v-.26c0-5.65,4.06-8.9,9.06-8.9,4.16,0,8,1.82,8.32,7h-5.46c-.26-1.6-1-2.47-2.73-2.47-2,0-3.25,1.46-3.25,4.32v.26c0,3,1.14,4.48,3.35,4.48a2.83,2.83,0,0,0,3-2.82H266c-.16,4.29-3,7.08-8.55,7.08C252.4,39.86,248.54,36.9,248.54,31.18Z" fill="#fff"/><path d="M267.91,15h5.81V29.2l4.59-6.73h6l-5.56,7.64,6,9.36h-6.5L273.72,32v7.44h-5.81Z" fill="#fff"/><path d="M291.37,28v-.26c0-7.09,5.33-11.83,12.29-11.83S316,20.36,316,27.58v.26c0,7.15-4.9,12-12.41,12S291.37,35,291.37,28ZM309,27.93v-.26c0-4.12-2.08-6.56-5.36-6.56s-5.33,2.37-5.33,6.6V28c0,4.22,2.14,6.66,5.36,6.66S309,32.09,309,27.93Z" fill="#fff"/><path d="M318.21,22.47H324V25.2A6,6,0,0,1,329.62,22c3.29,0,5.56,2.05,5.56,6.4v11h-5.82V29.59c0-1.92-.75-2.86-2.44-2.86S324,27.77,324,30v9.52h-5.82Z" fill="#fff"/><path d="M338.17,15H344V39.47h-5.78Z" fill="#fff"/><path d="M346.94,17.86a3.21,3.21,0,1,1,3.19,3A3,3,0,0,1,346.94,17.86Zm.3,4.61h5.81v17h-5.81Z" fill="#fff"/><path d="M356.17,22.47H362V25.2A6,6,0,0,1,367.58,22c3.28,0,5.56,2.05,5.56,6.4v11h-5.82V29.59c0-1.92-.75-2.86-2.44-2.86S362,27.77,362,30v9.52h-5.82Z" fill="#fff"/><path d="M375.06,31.18v-.26c0-5.46,4.06-8.9,9.19-8.9,4.65,0,8.65,2.66,8.65,8.77v1.53h-12c.16,2.24,1.46,3.54,3.54,3.54,1.92,0,2.73-.87,3-2h5.46c-.52,3.83-3.48,6-8.61,6C379,39.86,375.06,36.74,375.06,31.18ZM387.24,29c-.09-2.05-1.1-3.19-3-3.19S381.3,27,381,29Z" fill="#fff"/><path d="M399.92,31.18v-.26c0-5.65,4.06-8.9,9.07-8.9,4.16,0,8,1.82,8.32,7h-5.46c-.26-1.6-1-2.47-2.73-2.47-2.05,0-3.25,1.46-3.25,4.32v.26c0,3,1.13,4.48,3.34,4.48a2.82,2.82,0,0,0,3-2.82h5.23c-.16,4.29-3,7.08-8.54,7.08C403.79,39.86,399.92,36.9,399.92,31.18Z" fill="#fff"/><path d="M418.38,31.18v-.26c0-5.46,4.06-8.9,9.33-8.9S437,25.37,437,30.76V31c0,5.53-4.06,8.84-9.3,8.84S418.38,36.68,418.38,31.18Zm12.67-.09v-.26c0-2.86-1.13-4.46-3.34-4.46s-3.38,1.53-3.38,4.39V31c0,2.93,1.13,4.52,3.38,4.52S431.05,33.91,431.05,31.09Z" fill="#fff"/><path d="M438,34.08h5.37c.19,1.23.74,1.91,2.4,1.91,1.43,0,2.08-.55,2.08-1.39s-.81-1.21-3.15-1.53c-4.55-.59-6.47-1.92-6.47-5.46,0-3.77,3.35-5.59,7.28-5.59,4.2,0,7.12,1.43,7.51,5.49h-5.26a1.9,1.9,0,0,0-2.18-1.69c-1.27,0-1.92.55-1.92,1.33s.78,1.14,2.86,1.4c4.71.59,7,1.82,7,5.46,0,4-3,5.85-7.7,5.85S438.1,37.85,438,34.08Z" fill="#fff"/><path d="M456.14,34V26.44h-2.05v-4h2.05V18.93H462v3.54h3.35v4H462v7a1.56,1.56,0,0,0,1.72,1.79,4.35,4.35,0,0,0,1.66-.3v4.42a12,12,0,0,1-3.22.49C458.29,39.86,456.14,38,456.14,34Z" fill="#fff"/><path d="M466.61,34.08H472c.19,1.23.75,1.91,2.4,1.91,1.43,0,2.08-.55,2.08-1.39s-.81-1.21-3.15-1.53c-4.55-.59-6.47-1.92-6.47-5.46,0-3.77,3.35-5.59,7.28-5.59,4.2,0,7.12,1.43,7.51,5.49h-5.26a1.9,1.9,0,0,0-2.18-1.69c-1.27,0-1.92.55-1.92,1.33s.78,1.14,2.86,1.4c4.71.59,7,1.82,7,5.46,0,4-3,5.85-7.7,5.85S466.74,37.85,466.61,34.08Z" fill="#fff"/><path d="M489.78,33.56V22.47h5.82V32.61c0,1.92.74,2.86,2.4,2.86s2.89-1,2.89-3.21V22.47h5.82v17h-5.82V36.84a5.58,5.58,0,0,1-5.39,3C492.22,39.86,489.78,37.85,489.78,33.56Z" fill="#fff"/><path d="M509.67,22.47h5.82V25a6,6,0,0,1,5.29-3c4,0,7.19,3,7.19,8.81v.26c0,5.85-3.22,8.77-7.22,8.77A5.59,5.59,0,0,1,515.49,37v8.19h-5.82Zm12.38,8.62v-.26c0-3-1.3-4.42-3.35-4.42s-3.38,1.52-3.38,4.38v.26c0,2.9,1.27,4.36,3.38,4.36S522.05,33.88,522.05,31.09Z" fill="#fff"/><path d="M536.77,34V26.44h-2v-4h2V18.93h5.82v3.54h3.35v4h-3.35v7a1.56,1.56,0,0,0,1.72,1.79A4.35,4.35,0,0,0,546,35v4.42a12,12,0,0,1-3.22.49C538.92,39.86,536.77,38,536.77,34Z" fill="#fff"/><path d="M547.24,31.18v-.26c0-5.46,4.06-8.9,9.33-8.9s9.26,3.35,9.26,8.74V31c0,5.53-4.06,8.84-9.3,8.84S547.24,36.68,547.24,31.18Zm12.67-.09v-.26c0-2.86-1.13-4.46-3.34-4.46s-3.38,1.53-3.38,4.39V31c0,2.93,1.13,4.52,3.38,4.52S559.91,33.91,559.91,31.09Z" fill="#fff"/><path d="M125.46,63.34c-3.28-.23-4.87-2-5-4.47H124a1.81,1.81,0,0,0,1.5,1.78V57.88c-3.3-.47-4.7-1.67-4.7-4.3,0-2.29,1.8-3.94,4.7-4.15V47.74h1.48v1.71c2.74.22,4.37,1.5,4.6,4.09h-3.43a1.51,1.51,0,0,0-1.17-1.42v2.62c2.9.41,4.79,1.4,4.79,4.15,0,2.31-1.5,4.24-4.79,4.45v2.37h-1.48Zm0-8.83V52.08c-.86.15-1.29.61-1.29,1.21S124.43,54.3,125.46,54.51Zm1.48,3.62v2.52a1.37,1.37,0,0,0,1.27-1.35C128.21,58.68,127.94,58.36,126.94,58.13Z" fill="#fff"/><path d="M137.43,57.3,133,60V54.47l5.33-3.74h5.76V74h-6.67Z" fill="#fff"/><path d="M147.28,62.86v-1c0-7.34,4.58-11.47,10.73-11.47s10.72,3.8,10.72,11.34v.91c0,7.38-4.22,11.7-10.85,11.7S147.28,70.17,147.28,62.86Zm14.79-.07v-.94c0-4.26-1.24-6.4-4.06-6.4s-4.07,2.11-4.07,6.4v1c0,4.33,1.27,6.37,4.13,6.37S162.07,67.08,162.07,62.79Z" fill="#fff"/><path d="M177.21,49.5H183V74h-5.79Z" fill="#fff"/><path d="M185.21,65.68v-.26c0-5.46,4.06-8.9,9.2-8.9,4.64,0,8.64,2.66,8.64,8.77v1.53h-12c.16,2.24,1.46,3.54,3.54,3.54,1.92,0,2.73-.87,3-2h5.46c-.52,3.83-3.48,6-8.61,6C189.11,74.36,185.21,71.24,185.21,65.68Zm12.19-2.14c-.1-2-1.11-3.19-3-3.19s-3,1.14-3.25,3.19Z" fill="#fff"/><path d="M204.09,68.58h5.36c.2,1.23.75,1.91,2.41,1.91,1.43,0,2.08-.55,2.08-1.39s-.81-1.21-3.15-1.53c-4.55-.59-6.47-1.92-6.47-5.46,0-3.77,3.35-5.59,7.28-5.59,4.19,0,7.12,1.43,7.51,5.49h-5.27a1.9,1.9,0,0,0-2.18-1.69c-1.26,0-1.91.55-1.91,1.33s.78,1.14,2.86,1.4c4.71.59,7,1.82,7,5.46,0,4-3,5.85-7.7,5.85S204.22,72.35,204.09,68.58Z" fill="#fff"/><path d="M220.44,68.58h5.36c.2,1.23.75,1.91,2.41,1.91,1.43,0,2.08-.55,2.08-1.39s-.82-1.21-3.16-1.53c-4.55-.59-6.46-1.92-6.46-5.46,0-3.77,3.34-5.59,7.28-5.59,4.19,0,7.11,1.43,7.5,5.49h-5.26A1.9,1.9,0,0,0,228,60.32c-1.27,0-1.92.55-1.92,1.33s.78,1.14,2.86,1.4c4.72.59,7,1.82,7,5.46,0,4-3,5.85-7.7,5.85S220.57,72.35,220.44,68.58Z" fill="#fff"/><path d="M244.52,68.51V60.94h-2.05V57h2.05V53.43h5.82V57h3.35v4h-3.35v7a1.56,1.56,0,0,0,1.72,1.79,4.35,4.35,0,0,0,1.66-.3v4.43a12.47,12.47,0,0,1-3.22.48C246.67,74.36,244.52,72.51,244.52,68.51Z" fill="#fff"/><path d="M255.89,49.5h5.82V59.7a6,6,0,0,1,5.59-3.18c3.29,0,5.56,2,5.56,6.4V74H267V64.09c0-1.92-.75-2.86-2.44-2.86s-2.89,1-2.89,3.22V74h-5.82Z" fill="#fff"/><path d="M274.71,69.26c0-4,3.38-5.56,9-5.56h1.62v-.39c0-1.62-.39-2.7-2.24-2.7a2.1,2.1,0,0,0-2.31,2h-5.46c.26-4.1,3.48-6.11,8.13-6.11s7.67,1.92,7.67,6.43V74H285.5V72a5.59,5.59,0,0,1-5,2.37C277.41,74.36,274.71,72.87,274.71,69.26ZM285.37,68V67h-1.53c-2.34,0-3.38.46-3.38,1.86,0,1,.65,1.59,2,1.59C284.14,70.43,285.37,69.49,285.37,68Z" fill="#fff"/><path d="M294,57h5.82V59.7a6,6,0,0,1,5.59-3.18c3.28,0,5.56,2,5.56,6.4V74h-5.82V64.09c0-1.92-.75-2.86-2.44-2.86s-2.89,1-2.89,3.22V74H294Z" fill="#fff"/><path d="M324.66,55.87h-6V50.73h18.72v5.14h-6V74h-6.7Z" fill="#fff"/><path d="M337.89,68.06V57h5.82V67.11c0,1.92.75,2.86,2.4,2.86s2.9-1,2.9-3.21V57h5.81V74H349V71.34a5.6,5.6,0,0,1-5.4,3C340.33,74.36,337.89,72.35,337.89,68.06Z" fill="#fff"/><path d="M357.78,57h5.82v3.38a5.34,5.34,0,0,1,5.49-3.6v5.42c-3.54-.09-5.49,1-5.49,3.74V74h-5.82Z" fill="#fff"/><path d="M377,71.34V74H371.2V49.5H377v10a6,6,0,0,1,5.3-3c4,0,7.18,3,7.18,8.81v.26c0,5.85-3.22,8.77-7.21,8.77A5.52,5.52,0,0,1,377,71.34Zm6.57-5.75v-.26c0-3-1.3-4.42-3.35-4.42s-3.38,1.52-3.38,4.38v.26c0,2.9,1.27,4.36,3.38,4.36S383.59,68.38,383.59,65.59Z" fill="#fff"/><path d="M390.7,65.68v-.26c0-5.46,4.07-8.9,9.33-8.9s9.26,3.35,9.26,8.74v.26c0,5.53-4.06,8.84-9.29,8.84S390.7,71.18,390.7,65.68Zm12.68-.09v-.26c0-2.86-1.14-4.46-3.35-4.46s-3.38,1.53-3.38,4.39v.26c0,2.93,1.14,4.52,3.38,4.52S403.38,68.41,403.38,65.59Z" fill="#fff"/><path d="M416.31,55.87h-6V50.73H429v5.14h-6V74h-6.7Z" fill="#fff"/><path d="M427.85,69.26c0-4,3.38-5.56,9-5.56h1.62v-.39c0-1.62-.39-2.7-2.24-2.7a2.1,2.1,0,0,0-2.31,2H428.5c.26-4.1,3.48-6.11,8.13-6.11s7.67,1.92,7.67,6.43V74h-5.66V72a5.59,5.59,0,0,1-5,2.37C430.55,74.36,427.85,72.87,427.85,69.26ZM438.51,68V67H437c-2.34,0-3.38.46-3.38,1.86,0,1,.65,1.59,2,1.59C437.28,70.43,438.51,69.49,438.51,68Z" fill="#fff"/><path d="M451.41,65.33,446.12,57h6.69l2.63,4.49L458,57h6l-5.36,7.9,5.88,9.1h-6.69l-3-5.07L451.71,74h-5.95Z" fill="#fff"/><path d="M465.68,71.05A3.25,3.25,0,0,1,469,67.76a3.29,3.29,0,1,1,0,6.57A3.24,3.24,0,0,1,465.68,71.05Z" fill="#fff"/></g></g></g></svg>