<svg xmlns="http://www.w3.org/2000/svg" viewBox="0 0 728 90"><title>txt</title><g id="Layer_2" data-name="Layer 2"><g id="H_R_Block_Online_costs_up_to_10_less_than_TurboTax." data-name="H&amp;R Block Online costs up to $10 less than TurboTax."><path d="M122.1,15.93h6.25v8.29h7.14V15.93h6.23V37.65h-6.23V29.08h-7.14v8.57H122.1Z" fill="#fff"/><path d="M162.56,33.22l3.62,4.43H159.1l-1.28-1.58A8.63,8.63,0,0,1,152,38c-4.62,0-7.63-2.43-7.63-6.57,0-2.79,1.7-4.86,4.77-6.31a7,7,0,0,1-1.33-3.8c0-3.71,3.15-5.68,7-5.68,3.47,0,6.59,1.73,6.59,5.07,0,2.37-1.39,4.1-4.34,5.38l2.73,3.34,1.58-3.1h4.74ZM155,32.58l-3.44-4.13a2.56,2.56,0,0,0-1.46,2.34,2.52,2.52,0,0,0,2.77,2.7A2.85,2.85,0,0,0,155,32.58Zm-.67-8.75c1.46-.7,2.15-1.52,2.15-2.64a1.56,1.56,0,0,0-1.61-1.68,1.73,1.73,0,0,0-1.79,1.89A4,4,0,0,0,154.36,23.83Z" fill="#fff"/><path d="M168.15,15.93h8.5c5.68,0,8.84,2.31,8.84,6.9V23a5.68,5.68,0,0,1-3.91,5.71l5.19,9h-6.56l-4.41-7.78h-1.45v7.78h-6.2Zm8.2,9.9c2.1,0,3.13-.88,3.13-2.64v-.12c0-1.76-1.09-2.46-3.1-2.46h-2v5.22Z" fill="#fff"/><path d="M194.39,15.93h9.69c5.14,0,7.33,2.31,7.33,5.68v.12a4.48,4.48,0,0,1-3.68,4.68c2.67.46,4.34,2.07,4.34,5.07v.13c0,3.88-2.52,6-7.9,6h-9.78Zm8.45,8.63c1.94,0,2.67-.67,2.67-2.22v-.12c0-1.49-.79-2.16-2.67-2.16h-2.37v4.5Zm.21,8.93c2,0,2.89-.91,2.89-2.52v-.12c0-1.64-.88-2.49-3.07-2.49h-2.4v5.13Z" fill="#fff"/><path d="M214.23,14.78h5.41V37.65h-5.41Z" fill="#fff"/><path d="M221.7,29.9v-.24c0-5.1,3.8-8.32,8.72-8.32s8.66,3.13,8.66,8.17v.24c0,5.17-3.8,8.27-8.69,8.27S221.7,35,221.7,29.9Zm11.85-.09v-.24c0-2.67-1.06-4.16-3.13-4.16s-3.16,1.43-3.16,4.1v.24c0,2.74,1.06,4.23,3.16,4.23S233.55,32.46,233.55,29.81Z" fill="#fff"/><path d="M240.14,29.9v-.24c0-5.28,3.8-8.32,8.48-8.32,3.88,0,7.47,1.7,7.77,6.53h-5.1a2.34,2.34,0,0,0-2.55-2.31c-1.92,0-3,1.37-3,4v.24c0,2.77,1.06,4.2,3.13,4.2a2.64,2.64,0,0,0,2.76-2.65h4.89c-.15,4-2.85,6.63-8,6.63C243.75,38,240.14,35.25,240.14,29.9Z" fill="#fff"/><path d="M258.24,14.78h5.44V28.05L268,21.76h5.65l-5.2,7.14L274,37.65H268l-4.29-7v7h-5.44Z" fill="#fff"/><path d="M280.18,26.93v-.25c0-6.62,5-11,11.48-11s11.51,4.16,11.51,10.9v.25c0,6.68-4.58,11.24-11.6,11.24S280.18,33.46,280.18,26.93Zm16.49-.06v-.25c0-3.85-1.94-6.13-5-6.13s-5,2.21-5,6.16v.25c0,4,2,6.23,5,6.23S296.67,30.76,296.67,26.87Z" fill="#fff"/><path d="M305.27,21.76h5.43v2.55a5.63,5.63,0,0,1,5.23-3c3.07,0,5.2,1.91,5.2,6V37.65h-5.44V28.42c0-1.8-.7-2.68-2.28-2.68s-2.71,1-2.71,3v8.9h-5.43Z" fill="#fff"/><path d="M323.92,14.78h5.41V37.65h-5.41Z" fill="#fff"/><path d="M332.12,17.45a3,3,0,1,1,3,2.79A2.81,2.81,0,0,1,332.12,17.45Zm.27,4.31h5.44V37.65h-5.44Z" fill="#fff"/><path d="M340.75,21.76h5.43v2.55a5.61,5.61,0,0,1,5.23-3c3.07,0,5.19,1.91,5.19,6V37.65h-5.43V28.42c0-1.8-.7-2.68-2.28-2.68s-2.71,1-2.71,3v8.9h-5.43Z" fill="#fff"/><path d="M358.39,29.9v-.24c0-5.1,3.8-8.32,8.6-8.32,4.35,0,8.08,2.49,8.08,8.2V31H363.89c.15,2.09,1.37,3.31,3.31,3.31s2.56-.82,2.77-1.88h5.1C374.59,36,371.82,38,367,38,362,38,358.39,35.1,358.39,29.9Zm11.4-2c-.09-1.91-1-3-2.8-3s-2.76,1.07-3,3Z" fill="#fff"/><path d="M381.63,29.9v-.24c0-5.28,3.8-8.32,8.48-8.32,3.89,0,7.47,1.7,7.78,6.53h-5.11a2.34,2.34,0,0,0-2.55-2.31c-1.91,0-3,1.37-3,4v.24c0,2.77,1.07,4.2,3.13,4.2a2.66,2.66,0,0,0,2.77-2.65H398c-.15,4-2.86,6.63-8,6.63C385.25,38,381.63,35.25,381.63,29.9Z" fill="#fff"/><path d="M398.89,29.9v-.24c0-5.1,3.79-8.32,8.72-8.32s8.65,3.13,8.65,8.17v.24c0,5.17-3.79,8.27-8.68,8.27S398.89,35,398.89,29.9Zm11.84-.09v-.24c0-2.67-1.06-4.16-3.12-4.16s-3.16,1.43-3.16,4.1v.24c0,2.74,1.06,4.23,3.16,4.23S410.73,32.46,410.73,29.81Z" fill="#fff"/><path d="M417.2,32.61h5c.18,1.15.7,1.79,2.24,1.79,1.34,0,2-.52,2-1.31s-.76-1.12-3-1.42c-4.25-.55-6-1.8-6-5.11,0-3.52,3.13-5.22,6.8-5.22,3.92,0,6.66,1.33,7,5.13h-4.92a1.78,1.78,0,0,0-2-1.58c-1.18,0-1.79.52-1.79,1.25s.73,1.06,2.67,1.3c4.41.55,6.54,1.71,6.54,5.11,0,3.76-2.8,5.47-7.2,5.47S417.33,36.13,417.2,32.61Z" fill="#fff"/><path d="M434.18,32.55V25.47h-1.91V21.76h1.91V18.45h5.44v3.31h3.13v3.71h-3.13V32c0,1.16.58,1.67,1.61,1.67a4.16,4.16,0,0,0,1.55-.27v4.13a11.46,11.46,0,0,1-3,.46C436.19,38,434.18,36.28,434.18,32.55Z" fill="#fff"/><path d="M444,32.61h5c.18,1.15.7,1.79,2.25,1.79,1.33,0,1.94-.52,1.94-1.31s-.76-1.12-2.95-1.42c-4.25-.55-6-1.8-6-5.11,0-3.52,3.13-5.22,6.8-5.22,3.92,0,6.66,1.33,7,5.13h-4.92a1.78,1.78,0,0,0-2-1.58c-1.18,0-1.79.52-1.79,1.25s.73,1.06,2.68,1.3c4.4.55,6.53,1.71,6.53,5.11,0,3.76-2.8,5.47-7.2,5.47S444.09,36.13,444,32.61Z" fill="#fff"/><path d="M465.62,32.12V21.76h5.44v9.48c0,1.79.7,2.68,2.25,2.68s2.7-1,2.7-3V21.76h5.44V37.65H476V35.19A5.22,5.22,0,0,1,471,38C467.9,38,465.62,36.13,465.62,32.12Z" fill="#fff"/><path d="M484.22,21.76h5.43v2.37a5.63,5.63,0,0,1,5-2.79c3.7,0,6.71,2.79,6.71,8.23v.24c0,5.47-3,8.21-6.74,8.21a5.25,5.25,0,0,1-4.93-2.71V43h-5.43Zm11.57,8v-.24c0-2.79-1.21-4.13-3.13-4.13s-3.16,1.43-3.16,4.1v.24c0,2.71,1.19,4.07,3.16,4.07S495.79,32.43,495.79,29.81Z" fill="#fff"/><path d="M509.55,32.55V25.47h-1.91V21.76h1.91V18.45H515v3.31h3.13v3.71H515V32c0,1.16.58,1.67,1.61,1.67a4.2,4.2,0,0,0,1.55-.27v4.13a11.48,11.48,0,0,1-3,.46C511.56,38,509.55,36.28,509.55,32.55Z" fill="#fff"/><path d="M519.33,29.9v-.24c0-5.1,3.8-8.32,8.72-8.32s8.66,3.13,8.66,8.17v.24c0,5.17-3.8,8.27-8.69,8.27S519.33,35,519.33,29.9Zm11.85-.09v-.24c0-2.67-1.06-4.16-3.13-4.16s-3.16,1.43-3.16,4.1v.24c0,2.74,1.06,4.23,3.16,4.23S531.18,32.46,531.18,29.81Z" fill="#fff"/><path d="M125.1,60c-3.06-.21-4.55-1.84-4.67-4.18h3.27a1.68,1.68,0,0,0,1.4,1.66V54.86c-3.08-.44-4.39-1.56-4.39-4,0-2.15,1.68-3.69,4.39-3.88V45.38h1.38V47c2.57.22,4.1,1.4,4.31,3.83h-3.21a1.41,1.41,0,0,0-1.1-1.33v2.45c2.71.39,4.49,1.31,4.49,3.88,0,2.16-1.4,4-4.49,4.16v2.21H125.1Zm0-8.25V49.44c-.8.14-1.2.56-1.2,1.13S124.15,51.51,125.1,51.71Zm1.38,3.38v2.35a1.26,1.26,0,0,0,1.19-1.25C127.67,55.6,127.42,55.3,126.48,55.09Z" fill="#fff"/><path d="M136.3,54.31l-4.14,2.56v-5.2l5-3.49h5.37V69.9H136.3Z" fill="#fff"/><path d="M145.5,59.51V58.6c0-6.87,4.28-10.73,10-10.73s10,3.56,10,10.61v.85c0,6.89-4,10.93-10.15,10.93S145.5,66.34,145.5,59.51Zm13.82-.06v-.88c0-4-1.15-6-3.79-6s-3.8,2-3.8,6v.91c0,4,1.18,6,3.86,6S159.32,63.46,159.32,59.45Z" fill="#fff"/><path d="M173.48,47h5.4V69.9h-5.4Z" fill="#fff"/><path d="M181,62.15v-.24c0-5.11,3.8-8.33,8.6-8.33,4.34,0,8.08,2.5,8.08,8.21v1.42H186.45c.15,2.1,1.36,3.32,3.31,3.32,1.79,0,2.55-.82,2.76-1.89h5.11c-.49,3.59-3.25,5.62-8,5.62C184.59,70.26,181,67.35,181,62.15Zm11.39-2c-.09-1.92-1-3-2.79-3s-2.77,1.06-3,3Z" fill="#fff"/><path d="M198.6,64.86h5c.18,1.15.7,1.79,2.25,1.79,1.33,0,1.94-.52,1.94-1.31s-.76-1.12-2.94-1.43c-4.26-.54-6.05-1.79-6.05-5.1,0-3.52,3.13-5.23,6.8-5.23,3.92,0,6.66,1.34,7,5.14h-4.92a1.77,1.77,0,0,0-2-1.58c-1.19,0-1.8.52-1.8,1.24s.73,1.07,2.68,1.31c4.4.55,6.53,1.7,6.53,5.1,0,3.77-2.8,5.47-7.2,5.47S198.72,68.38,198.6,64.86Z" fill="#fff"/><path d="M213.88,64.86h5c.18,1.15.7,1.79,2.25,1.79,1.33,0,1.94-.52,1.94-1.31s-.76-1.12-3-1.43c-4.25-.54-6-1.79-6-5.1,0-3.52,3.13-5.23,6.8-5.23,3.92,0,6.66,1.34,7,5.14H223a1.77,1.77,0,0,0-2-1.58c-1.19,0-1.8.52-1.8,1.24s.73,1.07,2.68,1.31c4.4.55,6.53,1.7,6.53,5.1,0,3.77-2.8,5.47-7.2,5.47S214,68.38,213.88,64.86Z" fill="#fff"/><path d="M236.39,64.79V57.72h-1.92V54h1.92V50.7h5.43V54H245v3.71h-3.13v6.56A1.45,1.45,0,0,0,243.43,66a4.16,4.16,0,0,0,1.55-.27v4.13a11.53,11.53,0,0,1-3,.45C238.39,70.26,236.39,68.53,236.39,64.79Z" fill="#fff"/><path d="M247,47h5.44v9.54a5.61,5.61,0,0,1,5.22-3c3.07,0,5.2,1.92,5.2,6V69.9h-5.44V60.66c0-1.79-.7-2.67-2.28-2.67s-2.7,1-2.7,3v8.9H247Z" fill="#fff"/><path d="M264.6,65.49c0-3.73,3.16-5.19,8.45-5.19h1.52v-.37c0-1.51-.36-2.52-2.1-2.52a1.94,1.94,0,0,0-2.15,1.89h-5.11c.25-3.83,3.25-5.72,7.6-5.72s7.17,1.8,7.17,6V69.9h-5.29V68A5.21,5.21,0,0,1,270,70.26C267.13,70.26,264.6,68.87,264.6,65.49Zm10-1.15v-1h-1.43c-2.19,0-3.16.42-3.16,1.73,0,.91.61,1.49,1.89,1.49C273.42,66.59,274.57,65.71,274.57,64.34Z" fill="#fff"/><path d="M282.62,54h5.44v2.55a5.61,5.61,0,0,1,5.22-3c3.07,0,5.2,1.92,5.2,6V69.9H293V60.66c0-1.79-.7-2.67-2.28-2.67s-2.7,1-2.7,3v8.9h-5.44Z" fill="#fff"/><path d="M311.29,53h-5.62v-4.8h17.5V53h-5.62V69.9h-6.26Z" fill="#fff"/><path d="M323.66,64.37V54h5.44v9.48c0,1.79.69,2.67,2.24,2.67s2.71-1,2.71-3V54h5.44V69.9h-5.44V67.44A5.22,5.22,0,0,1,329,70.26C325.94,70.26,323.66,68.38,323.66,64.37Z" fill="#fff"/><path d="M342.25,54h5.44v3.16a5,5,0,0,1,5.13-3.37v5.07c-3.31-.09-5.13.94-5.13,3.49V69.9h-5.44Z" fill="#fff"/><path d="M360.23,67.44V69.9h-5.44V47h5.44v9.36a5.6,5.6,0,0,1,4.95-2.8c3.71,0,6.72,2.8,6.72,8.24v.24c0,5.47-3,8.2-6.75,8.2A5.15,5.15,0,0,1,360.23,67.44Zm6.14-5.38v-.24c0-2.8-1.22-4.13-3.13-4.13s-3.16,1.42-3.16,4.1V62c0,2.7,1.18,4.07,3.16,4.07S366.37,64.67,366.37,62.06Z" fill="#fff"/><path d="M373,62.15v-.24c0-5.11,3.8-8.33,8.72-8.33s8.66,3.13,8.66,8.18V62c0,5.16-3.8,8.26-8.69,8.26S373,67.29,373,62.15Zm11.85-.09v-.24c0-2.68-1.07-4.16-3.13-4.16s-3.16,1.42-3.16,4.1V62c0,2.73,1.06,4.22,3.16,4.22S384.87,64.7,384.87,62.06Z" fill="#fff"/><path d="M397,53h-5.62v-4.8h17.49V53h-5.62V69.9H397Z" fill="#fff"/><path d="M407.74,65.49c0-3.73,3.16-5.19,8.45-5.19h1.51v-.37c0-1.51-.36-2.52-2.09-2.52a2,2,0,0,0-2.16,1.89h-5.1c.24-3.83,3.25-5.72,7.59-5.72s7.17,1.8,7.17,6V69.9h-5.28V68a5.21,5.21,0,0,1-4.71,2.22C410.26,70.26,407.74,68.87,407.74,65.49Zm10-1.15v-1h-1.42c-2.19,0-3.16.42-3.16,1.73,0,.91.6,1.49,1.88,1.49C416.55,66.59,417.7,65.71,417.7,64.34Z" fill="#fff"/><path d="M429.76,61.82,424.81,54h6.26l2.46,4.19,2.4-4.19h5.59l-5,7.38L442,69.9h-6.26l-2.83-4.74L430,69.9h-5.56Z" fill="#fff"/><path d="M443.1,67.16a3,3,0,0,1,3.1-3.06,3.07,3.07,0,1,1,0,6.13A3,3,0,0,1,443.1,67.16Z" fill="#fff"/></g><g id="Rect"><rect width="728" height="90" fill="none"/></g></g></svg>