<svg xmlns="http://www.w3.org/2000/svg" viewBox="0 0 300 600"><title>Asset 1</title><rect width="300" height="600" fill="none"/><path d="M210,573.52h3.76v.64h-3v2.28h2.32v.64H210.8V580H210Z" fill="#14aa40"/><path d="M214.12,577.64v-.07a2.32,2.32,0,1,1,4.63,0v.07a2.32,2.32,0,1,1-4.63,0Zm3.86,0v-.06c0-1.09-.61-1.79-1.54-1.79s-1.54.7-1.54,1.78v.07c0,1.07.58,1.78,1.54,1.78A1.57,1.57,0,0,0,218,577.64Z" fill="#14aa40"/><path d="M219.77,575.25h.75v.84a1.63,1.63,0,0,1,1.55-.92v.7c-.95,0-1.55.34-1.55,1.5V580h-.75Z" fill="#14aa40"/><path d="M225.27,575.25H226V576a1.93,1.93,0,0,1,1.59-.87,2.14,2.14,0,0,1,2.15,2.37v.07a2.18,2.18,0,0,1-2.15,2.43,1.78,1.78,0,0,1-1.59-.86v2.42h-.75Zm3.71,2.39v-.07c0-1.19-.65-1.78-1.45-1.78s-1.54.58-1.54,1.78v.07c0,1.21.63,1.78,1.55,1.78S229,578.79,229,577.64Z" fill="#14aa40"/><path d="M230.39,578.65c0-1.09,1.16-1.46,2.36-1.46h.68v-.34c0-.75-.29-1.06-1-1.06s-1,.27-1.08.84h-.75a1.65,1.65,0,0,1,1.87-1.46,1.51,1.51,0,0,1,1.71,1.68V580h-.74v-.6A1.71,1.71,0,0,1,232,580C231.09,580,230.39,579.62,230.39,578.65Zm3-.34v-.59h-.65c-.95,0-1.64.24-1.64.93,0,.49.24.79.89.79S233.43,579,233.43,578.31Z" fill="#14aa40"/><path d="M235.39,573.77a.49.49,0,0,1,.49-.49.5.5,0,0,1,.5.49.51.51,0,0,1-.5.5A.5.5,0,0,1,235.39,573.77Zm.13,1.48h.75V580h-.75Z" fill="#14aa40"/><path d="M237.31,577.7v-.08a2.23,2.23,0,0,1,2.2-2.45,1.7,1.7,0,0,1,1.54.83v-3h.75v7h-.75v-.81a2,2,0,0,1-1.61.89A2.11,2.11,0,0,1,237.31,577.7Zm3.77-.07v-.07c0-1.2-.58-1.77-1.5-1.77s-1.49.66-1.49,1.8v.07c0,1.19.64,1.76,1.43,1.76S241.08,578.84,241.08,577.63Z" fill="#14aa40"/><path d="M244.89,575.25h.81l1.4,4,1.38-4h.77L247.56,580h-1Z" fill="#14aa40"/><path d="M249.61,577.65v-.07a2.21,2.21,0,0,1,2.2-2.41,2.06,2.06,0,0,1,2.12,2.34v.24h-3.55c0,1.07.55,1.67,1.52,1.67.72,0,1.15-.27,1.25-.82h.74a1.81,1.81,0,0,1-2,1.44A2.21,2.21,0,0,1,249.61,577.65Zm3.56-.5c-.08-1-.58-1.36-1.36-1.36a1.41,1.41,0,0,0-1.4,1.36Z" fill="#14aa40"/><path d="M254.94,575.25h.74v.84a1.64,1.64,0,0,1,1.55-.92v.7c-.94,0-1.55.34-1.55,1.5V580h-.74Z" fill="#14aa40"/><path d="M257.75,578.51h.73c.06.56.35.91,1.11.91s1-.25,1-.75-.37-.66-1.1-.79c-1.23-.23-1.64-.57-1.64-1.39a1.47,1.47,0,0,1,1.59-1.32,1.5,1.5,0,0,1,1.7,1.36h-.72c-.1-.52-.39-.74-1-.74s-.89.27-.89.67.24.6,1.1.75,1.66.4,1.66,1.4-.59,1.43-1.73,1.43S257.8,579.47,257.75,578.51Z" fill="#14aa40"/><path d="M262.21,573.77a.49.49,0,0,1,.49-.49.5.5,0,0,1,.5.49.51.51,0,0,1-.5.5A.5.5,0,0,1,262.21,573.77Zm.13,1.48h.75V580h-.75Z" fill="#14aa40"/><path d="M264.13,577.64v-.07a2.32,2.32,0,1,1,4.63,0v.07a2.32,2.32,0,1,1-4.63,0Zm3.86,0v-.06c0-1.09-.61-1.79-1.54-1.79s-1.54.7-1.54,1.78v.07c0,1.07.58,1.78,1.54,1.78A1.57,1.57,0,0,0,268,577.64Z" fill="#14aa40"/><path d="M269.79,575.25h.74V576a1.61,1.61,0,0,1,1.52-.83c1,0,1.65.53,1.65,1.9V580H273v-3c0-.83-.36-1.19-1.11-1.19a1.24,1.24,0,0,0-1.32,1.28V580h-.74Z" fill="#14aa40"/><path d="M274.65,578.51h.73c.05.56.35.91,1.1.91s1-.25,1-.75-.37-.66-1.1-.79c-1.22-.23-1.64-.57-1.64-1.39a1.47,1.47,0,0,1,1.6-1.32,1.51,1.51,0,0,1,1.7,1.36h-.72c-.11-.52-.4-.74-1-.74s-.89.27-.89.67.23.6,1.09.75,1.66.4,1.66,1.4-.59,1.43-1.73,1.43S274.69,579.47,274.65,578.51Z" fill="#14aa40"/><path d="M279.16,579.43a.58.58,0,1,1,.57.57A.57.57,0,0,1,279.16,579.43Z" fill="#14aa40"/><path d="M23.52,101.94H34v13.92H46V101.94H56.46V138.4H46V124H34V138.4H23.52Z" fill="#14aa40"/><path d="M91.45,131l6.07,7.44H85.63l-2.14-2.65A14.49,14.49,0,0,1,73.65,139c-7.75,0-12.8-4.07-12.8-11,0-4.69,2.86-8.16,8-10.61A11.64,11.64,0,0,1,66.61,111c0-6.22,5.31-9.54,11.73-9.54,5.82,0,11.07,2.91,11.07,8.52,0,4-2.35,6.88-7.29,9l4.59,5.61,2.65-5.2h8ZM78.8,129.89,73,123a4.32,4.32,0,0,0-2.45,3.93c0,2.65,1.58,4.54,4.64,4.54A4.78,4.78,0,0,0,78.8,129.89ZM77.68,115.2c2.45-1.17,3.62-2.55,3.62-4.44a2.62,2.62,0,0,0-2.7-2.8,2.9,2.9,0,0,0-3,3.16C75.59,112.45,76.4,113.72,77.68,115.2Z" fill="#14aa40"/><path d="M100.83,101.94h14.28c9.54,0,14.84,3.88,14.84,11.58v.2a9.53,9.53,0,0,1-6.58,9.59l8.72,15.09h-11l-7.39-13.05h-2.45V138.4H100.83Zm13.77,16.63c3.52,0,5.26-1.48,5.26-4.44v-.21c0-3-1.84-4.13-5.21-4.13h-3.41v8.78Z" fill="#14aa40"/><path d="M144.9,101.94h16.27c8.61,0,12.28,3.88,12.28,9.54v.2c0,4.08-2.09,6.78-6.17,7.85,4.49.77,7.3,3.47,7.3,8.52v.2c0,6.53-4.24,10.15-13.26,10.15H144.9Zm14.17,14.48c3.27,0,4.49-1.12,4.49-3.72v-.2c0-2.5-1.32-3.62-4.49-3.62h-4v7.54Zm.36,15c3.32,0,4.85-1.53,4.85-4.24V127c0-2.75-1.48-4.18-5.16-4.18h-4v8.62Z" fill="#14aa40"/><path d="M178.2,100h9.08v38.4H178.2Z" fill="#14aa40"/><path d="M190.75,125.4V125c0-8.57,6.37-14,14.63-14s14.53,5.25,14.53,13.72v.4c0,8.67-6.37,13.87-14.58,13.87S190.75,134,190.75,125.4Zm19.88-.15v-.41c0-4.49-1.78-7-5.25-7s-5.3,2.4-5.3,6.89v.4c0,4.59,1.78,7.09,5.3,7.09S210.63,129.68,210.63,125.25Z" fill="#14aa40"/><path d="M221.7,125.4V125c0-8.87,6.38-14,14.23-14,6.53,0,12.54,2.85,13,11h-8.56c-.41-2.5-1.63-3.87-4.29-3.87-3.21,0-5.1,2.29-5.1,6.78v.41c0,4.64,1.79,7,5.26,7,2.55,0,4.33-1.53,4.64-4.43h8.21c-.26,6.73-4.8,11.11-13.41,11.11C227.77,139,221.7,134.37,221.7,125.4Z" fill="#14aa40"/><path d="M252.1,100h9.13v22.29l7.19-10.56h9.48l-8.72,12,9.44,14.68h-10.2l-7.19-11.68V138.4H252.1Z" fill="#14aa40"/><path d="M21.58,173.4V173c0-11.11,8.36-18.56,19.28-18.56,11.11,0,19.32,7,19.32,18.31v.41c0,11.22-7.7,18.86-19.48,18.86S21.58,184.37,21.58,173.4Zm27.69-.1v-.41c0-6.47-3.26-10.3-8.41-10.3s-8.37,3.72-8.37,10.35v.41c0,6.63,3.37,10.45,8.42,10.45S49.27,179.83,49.27,173.3Z" fill="#14aa40"/><path d="M63.71,164.73h9.12V169a9.41,9.41,0,0,1,8.77-5c5.16,0,8.73,3.21,8.73,10V191.4H81.2V175.9c0-3-1.18-4.49-3.83-4.49s-4.54,1.63-4.54,5.05V191.4H63.71Z" fill="#14aa40"/><path d="M95,153h9.08v38.4H95Z" fill="#14aa40"/><path d="M108.79,157.49a5,5,0,1,1,5,4.69A4.76,4.76,0,0,1,108.79,157.49Zm.46,7.24h9.13V191.4h-9.13Z" fill="#14aa40"/><path d="M123.27,164.73h9.13V169a9.41,9.41,0,0,1,8.77-5c5.15,0,8.72,3.21,8.72,10V191.4h-9.13V175.9c0-3-1.17-4.49-3.82-4.49s-4.54,1.63-4.54,5.05V191.4h-9.13Z" fill="#14aa40"/><path d="M152.9,178.4V178c0-8.57,6.38-14,14.43-14,7.3,0,13.57,4.18,13.57,13.77v2.39H162.13c.26,3.52,2.3,5.56,5.56,5.56,3,0,4.29-1.37,4.64-3.16h8.57c-.82,6-5.46,9.43-13.51,9.43C159,192,152.9,187.12,152.9,178.4ZM172,175c-.16-3.21-1.74-5-4.7-5-2.75,0-4.63,1.78-5.09,5Z" fill="#14aa40"/><path d="M21.27,231.4V231c0-8.87,6.38-14,14.23-14,6.53,0,12.55,2.85,13.06,11H40c-.41-2.5-1.63-3.87-4.28-3.87-3.22,0-5.1,2.29-5.1,6.78v.41c0,4.64,1.78,7,5.25,7,2.55,0,4.33-1.53,4.64-4.43h8.21C48.46,240.63,43.92,245,35.3,245,27.34,245,21.27,240.37,21.27,231.4Z" fill="#14aa40"/><path d="M50.24,231.4V231c0-8.57,6.38-14,14.64-14s14.53,5.25,14.53,13.72v.4C79.41,239.81,73,245,64.83,245S50.24,240,50.24,231.4Zm19.89-.15v-.41c0-4.49-1.78-7-5.25-7s-5.31,2.4-5.31,6.89v.4c0,4.59,1.79,7.09,5.31,7.09S70.13,235.68,70.13,231.25Z" fill="#14aa40"/><path d="M81,235.94h8.42c.3,1.94,1.17,3,3.77,3,2.25,0,3.27-.87,3.27-2.2s-1.28-1.88-5-2.39c-7.14-.92-10.15-3-10.15-8.57,0-5.92,5.25-8.77,11.42-8.77,6.58,0,11.17,2.24,11.78,8.62H96.29C95.94,223.85,95,223,92.88,223s-3,.87-3,2.1,1.22,1.78,4.49,2.19c7.39.92,11,2.85,11,8.57,0,6.32-4.69,9.17-12.09,9.17C85.64,245,81.2,241.85,81,235.94Z" fill="#14aa40"/><path d="M109.5,235.84V224h-3.21v-6.22h3.21v-5.56h9.13v5.56h5.25V224h-5.25v11c0,1.94,1,2.8,2.7,2.8a6.94,6.94,0,0,0,2.61-.46v6.94a19.09,19.09,0,0,1-5,.76C112.87,245,109.5,242.11,109.5,235.84Z" fill="#14aa40"/><path d="M125.92,235.94h8.42c.31,1.94,1.17,3,3.77,3,2.25,0,3.27-.87,3.27-2.2s-1.28-1.88-4.95-2.39c-7.14-.92-10.15-3-10.15-8.57,0-5.92,5.25-8.77,11.42-8.77,6.58,0,11.17,2.24,11.78,8.62h-8.26c-.35-1.79-1.32-2.66-3.41-2.66s-3,.87-3,2.1,1.22,1.78,4.49,2.19c7.39.92,11,2.85,11,8.57,0,6.32-4.69,9.17-12.09,9.17C130.57,245,126.13,241.85,125.92,235.94Z" fill="#14aa40"/><path d="M162.29,235.12V217.73h9.13v15.91c0,3,1.17,4.49,3.77,4.49,2.75,0,4.54-1.63,4.54-5V217.73h9.13V244.4h-9.13v-4.13c-1.43,2.76-4,4.74-8.47,4.74C166.11,245,162.29,241.85,162.29,235.12Z" fill="#14aa40"/><path d="M193.5,217.73h9.13v4a9.41,9.41,0,0,1,8.31-4.69c6.22,0,11.27,4.69,11.27,13.82v.41c0,9.17-5.05,13.76-11.32,13.76-4,0-6.94-1.88-8.26-4.53v12.85H193.5Zm19.43,13.52v-.41c0-4.69-2-6.94-5.26-6.94s-5.3,2.4-5.3,6.89v.4c0,4.54,2,6.84,5.3,6.84S212.93,235.63,212.93,231.25Z" fill="#14aa40"/><path d="M23.93,288.84V277H20.71v-6.22h3.22v-5.56h9.12v5.56h5.26V277H33.05v11c0,1.94,1,2.8,2.71,2.8a6.89,6.89,0,0,0,2.6-.46v6.94a19,19,0,0,1-5,.76C27.29,298,23.93,295.11,23.93,288.84Z" fill="#14aa40"/><path d="M40.35,284.4V284c0-8.57,6.37-14,14.63-14s14.54,5.25,14.54,13.72v.4c0,8.67-6.38,13.87-14.59,13.87S40.35,293,40.35,284.4Zm19.89-.15v-.41c0-4.49-1.79-7-5.26-7s-5.3,2.4-5.3,6.89v.4c0,4.59,1.79,7.09,5.3,7.09S60.24,288.68,60.24,284.25Z" fill="#14aa40"/><path d="M177.2,259h9.08v38.4H177.2Z" fill="#14aa40"/><path d="M189.75,284.4V284c0-8.57,6.37-14,14.43-14,7.29,0,13.57,4.18,13.57,13.77v2.39H199c.25,3.52,2.29,5.56,5.56,5.56,3,0,4.28-1.37,4.64-3.16h8.57c-.82,6-5.46,9.43-13.52,9.43C195.87,298,189.75,293.12,189.75,284.4ZM208.87,281c-.15-3.21-1.73-5-4.69-5-2.75,0-4.64,1.78-5.1,5Z" fill="#14aa40"/><path d="M219.38,288.94h8.41c.31,1.94,1.18,3,3.78,3,2.24,0,3.26-.87,3.26-2.2s-1.27-1.88-5-2.39c-7.14-.92-10.14-3-10.14-8.57,0-5.92,5.25-8.77,11.42-8.77,6.58,0,11.17,2.24,11.78,8.62h-8.26c-.36-1.79-1.33-2.66-3.42-2.66s-3,.87-3,2.1,1.23,1.78,4.49,2.19c7.39.92,11,2.85,11,8.57,0,6.32-4.69,9.17-12.08,9.17C224,298,219.58,294.85,219.38,288.94Z" fill="#14aa40"/><path d="M245,288.94h8.42c.3,1.94,1.17,3,3.77,3,2.24,0,3.26-.87,3.26-2.2s-1.27-1.88-4.94-2.39c-7.14-.92-10.15-3-10.15-8.57,0-5.92,5.25-8.77,11.42-8.77,6.58,0,11.17,2.24,11.78,8.62h-8.26C260,276.85,259,276,256.91,276s-3,.87-3,2.1,1.23,1.78,4.49,2.19c7.4.92,11,2.85,11,8.57,0,6.32-4.7,9.17-12.09,9.17C249.67,298,245.24,294.85,245,288.94Z" fill="#14aa40"/><path d="M23.93,341.83V330H20.71v-6.22h3.22v-5.56h9.12v5.56h5.26V330H33.05v11c0,1.94,1,2.8,2.71,2.8a6.89,6.89,0,0,0,2.6-.46v6.94a19,19,0,0,1-5,.76C27.29,351,23.93,348.11,23.93,341.83Z" fill="#14aa40"/><path d="M41.78,312H50.9v16a9.42,9.42,0,0,1,8.78-5c5.15,0,8.72,3.21,8.72,10V350.4H59.27V334.9c0-3-1.18-4.49-3.83-4.49s-4.54,1.63-4.54,5V350.4H41.78Z" fill="#14aa40"/><path d="M71.31,343c0-6.27,5.3-8.72,14.17-8.72H88v-.61c0-2.55-.61-4.24-3.52-4.24a3.28,3.28,0,0,0-3.62,3.17H72.33c.4-6.43,5.45-9.59,12.74-9.59s12,3,12,10.1V350.4H88.24v-3.11C87,349.23,84.61,351,80.33,351,75.54,351,71.31,348.67,71.31,343ZM88,341.07v-1.63h-2.4c-3.67,0-5.3.71-5.3,2.91,0,1.53,1,2.49,3.16,2.49C86.09,344.84,88,343.37,88,341.07Z" fill="#14aa40"/><path d="M101.55,323.73h9.13V328a9.39,9.39,0,0,1,8.77-5c5.15,0,8.72,3.21,8.72,10V350.4H119V334.9c0-3-1.17-4.49-3.83-4.49s-4.53,1.63-4.53,5V350.4h-9.13Z" fill="#14aa40"/><path d="M30.5,375H21.07v-8.06H50.44V375H41v28.4H30.5Z" fill="#14aa40"/><path d="M51.26,394.12V376.73h9.13v15.91c0,3,1.17,4.49,3.78,4.49s4.53-1.63,4.53-5.05V376.73h9.13V403.4H68.7v-4.13c-1.42,2.76-4,4.74-8.46,4.74C55.09,404,51.26,400.85,51.26,394.12Z" fill="#14aa40"/><path d="M82.47,376.73H91.6V382c1.69-4,4.49-5.72,8.62-5.66v8.51c-5.56-.15-8.62,1.58-8.62,5.87V403.4H82.47Z" fill="#14aa40"/><path d="M112.67,399.27v4.13h-9.13V365h9.13v15.71A9.41,9.41,0,0,1,121,376c6.22,0,11.27,4.69,11.27,13.82v.41c0,9.17-5,13.76-11.32,13.76C117,404,114,402.13,112.67,399.27Zm10.3-9v-.41c0-4.69-2-6.94-5.26-6.94s-5.3,2.4-5.3,6.89v.41c0,4.53,2,6.83,5.3,6.83S123,394.63,123,390.25Z" fill="#14aa40"/><path d="M134.14,390.4V390c0-8.57,6.37-14,14.63-14s14.54,5.25,14.54,13.72v.4c0,8.67-6.38,13.87-14.59,13.87S134.14,399,134.14,390.4Zm19.88-.15v-.41c0-4.49-1.78-7-5.25-7s-5.3,2.4-5.3,6.89v.4c0,4.59,1.78,7.09,5.3,7.09S154,394.68,154,390.25Z" fill="#14aa40"/><path d="M174.32,375h-9.43v-8.06h29.37V375h-9.43v28.4H174.32Z" fill="#14aa40"/><path d="M192.43,396c0-6.27,5.3-8.72,14.18-8.72h2.55v-.61c0-2.55-.62-4.24-3.52-4.24a3.27,3.27,0,0,0-3.62,3.17h-8.57c.41-6.43,5.46-9.59,12.75-9.59s12,3,12,10.1V403.4h-8.87v-3.11c-1.28,1.94-3.62,3.72-7.9,3.72C196.66,404,192.43,401.67,192.43,396Zm16.73-1.94v-1.63h-2.4c-3.67,0-5.3.71-5.3,2.91,0,1.53,1,2.49,3.16,2.49C207.22,397.84,209.16,396.37,209.16,394.07Z" fill="#14aa40"/><path d="M229.4,389.84l-8.31-13.11H231.6l4.13,7,4-7h9.38l-8.42,12.39L250,403.4h-10.5l-4.74-7.95-4.85,7.95h-9.33Z" fill="#14aa40"/><path d="M251.79,398.81a5.09,5.09,0,0,1,5.21-5.15,5.15,5.15,0,1,1,0,10.3A5.09,5.09,0,0,1,251.79,398.81Z" fill="#14aa40"/></svg>