<svg xmlns="http://www.w3.org/2000/svg" viewBox="0 0 160 600"><title>Asset 1</title><rect width="160" height="600" fill="none"/><path d="M21.31,441.52h3.76v.64h-3v2.28h2.33v.64H22.09V448h-.78Z" fill="#14aa40"/><path d="M25.41,445.64v-.07a2.32,2.32,0,1,1,4.63,0v.07a2.32,2.32,0,1,1-4.63,0Zm3.86,0v-.06c0-1.09-.61-1.79-1.54-1.79s-1.54.7-1.54,1.78v.07c0,1.07.58,1.78,1.54,1.78A1.57,1.57,0,0,0,29.27,445.64Z" fill="#14aa40"/><path d="M31.07,443.25h.74v.84a1.64,1.64,0,0,1,1.55-.92v.7c-.94.05-1.55.34-1.55,1.5V448h-.74Z" fill="#14aa40"/><path d="M36.56,443.25h.75V444a1.94,1.94,0,0,1,1.6-.87,2.14,2.14,0,0,1,2.14,2.37v.07A2.18,2.18,0,0,1,38.91,448a1.79,1.79,0,0,1-1.6-.86v2.42h-.75Zm3.71,2.39v-.07c0-1.19-.65-1.78-1.45-1.78s-1.53.58-1.53,1.78v.07c0,1.21.63,1.78,1.54,1.78S40.27,446.79,40.27,445.64Z" fill="#14aa40"/><path d="M41.69,446.65c0-1.09,1.15-1.46,2.35-1.46h.68v-.34c0-.75-.29-1.06-1-1.06s-1,.27-1.08.84h-.75a1.65,1.65,0,0,1,1.87-1.46,1.52,1.52,0,0,1,1.72,1.68V448h-.75v-.6a1.7,1.7,0,0,1-1.47.68C42.38,448,41.69,447.62,41.69,446.65Zm3-.34v-.59h-.65c-.94,0-1.64.24-1.64.93,0,.49.24.79.89.79S44.72,447,44.72,446.31Z" fill="#14aa40"/><path d="M46.68,441.77a.5.5,0,0,1,.5-.49.49.49,0,0,1,.49.49.5.5,0,0,1-.49.5A.51.51,0,0,1,46.68,441.77Zm.14,1.48h.74V448h-.74Z" fill="#14aa40"/><path d="M48.61,445.7v-.08a2.23,2.23,0,0,1,2.19-2.45,1.69,1.69,0,0,1,1.54.83v-3h.75v7h-.75v-.81a2,2,0,0,1-1.61.89A2.1,2.1,0,0,1,48.61,445.7Zm3.76-.07v-.07c0-1.2-.58-1.77-1.49-1.77s-1.5.66-1.5,1.8v.07c0,1.19.64,1.76,1.43,1.76S52.37,446.84,52.37,445.63Z" fill="#14aa40"/><path d="M56.18,443.25H57l1.4,3.95,1.38-3.95h.77L58.85,448h-1Z" fill="#14aa40"/><path d="M60.9,445.65v-.07a2.22,2.22,0,0,1,2.21-2.41,2.06,2.06,0,0,1,2.11,2.34v.24H61.67c0,1.07.55,1.67,1.52,1.67.73,0,1.15-.27,1.25-.82h.75a1.83,1.83,0,0,1-2,1.44A2.22,2.22,0,0,1,60.9,445.65Zm3.56-.5c-.08-1-.58-1.36-1.35-1.36a1.41,1.41,0,0,0-1.41,1.36Z" fill="#14aa40"/><path d="M66.23,443.25H67v.84a1.62,1.62,0,0,1,1.54-.92v.7c-.94.05-1.54.34-1.54,1.5V448h-.75Z" fill="#14aa40"/><path d="M69.05,446.51h.72c.06.56.36.91,1.11.91s1-.25,1-.75-.37-.66-1.1-.79c-1.22-.23-1.64-.57-1.64-1.39a1.47,1.47,0,0,1,1.6-1.32,1.51,1.51,0,0,1,1.7,1.36h-.72c-.11-.52-.4-.74-1-.74s-.9.27-.9.67.24.6,1.1.75,1.66.4,1.66,1.4c0,.85-.59,1.43-1.73,1.43S69.09,447.47,69.05,446.51Z" fill="#14aa40"/><path d="M73.5,441.77a.5.5,0,0,1,.5-.49.49.49,0,0,1,.49.49.5.5,0,0,1-.49.5A.51.51,0,0,1,73.5,441.77Zm.14,1.48h.74V448h-.74Z" fill="#14aa40"/><path d="M75.43,445.64v-.07a2.31,2.31,0,1,1,4.62,0v.07a2.31,2.31,0,1,1-4.62,0Zm3.85,0v-.06c0-1.09-.6-1.79-1.54-1.79s-1.54.7-1.54,1.78v.07c0,1.07.59,1.78,1.54,1.78S79.28,446.71,79.28,445.64Z" fill="#14aa40"/><path d="M81.08,443.25h.75V444a1.59,1.59,0,0,1,1.51-.83c1,0,1.66.53,1.66,1.9V448h-.75V445c0-.83-.35-1.19-1.11-1.19a1.23,1.23,0,0,0-1.31,1.28V448h-.75Z" fill="#14aa40"/><path d="M85.94,446.51h.73c0,.56.35.91,1.1.91s1-.25,1-.75-.37-.66-1.1-.79c-1.22-.23-1.64-.57-1.64-1.39a1.47,1.47,0,0,1,1.6-1.32,1.51,1.51,0,0,1,1.7,1.36h-.72c-.11-.52-.4-.74-1-.74s-.89.27-.89.67.23.6,1.1.75,1.65.4,1.65,1.4c0,.85-.58,1.43-1.73,1.43S86,447.47,85.94,446.51Z" fill="#14aa40"/><path d="M90.45,447.43A.58.58,0,1,1,91,448,.57.57,0,0,1,90.45,447.43Z" fill="#14aa40"/><path d="M21.6,148.88h4.8v6.35h5.46v-6.35h4.77v16.63H31.86V159H26.4v6.56H21.6Z" fill="#14aa40"/><path d="M52.58,162.11l2.76,3.4H49.92l-1-1.21a6.68,6.68,0,0,1-4.49,1.49c-3.53,0-5.84-1.86-5.84-5,0-2.14,1.31-3.72,3.65-4.83a5.33,5.33,0,0,1-1-2.91c0-2.84,2.42-4.35,5.35-4.35,2.65,0,5,1.33,5,3.88,0,1.82-1.07,3.14-3.33,4.12l2.09,2.56,1.21-2.37h3.63Zm-5.77-.49-2.63-3.16a2,2,0,0,0-1.12,1.79,1.94,1.94,0,0,0,2.12,2.07A2.16,2.16,0,0,0,46.81,161.62Zm-.51-6.69c1.11-.54,1.65-1.17,1.65-2a1.2,1.2,0,0,0-1.23-1.28,1.34,1.34,0,0,0-1.38,1.45A3.1,3.1,0,0,0,46.3,154.93Z" fill="#14aa40"/><path d="M56.85,148.88h6.51c4.35,0,6.77,1.77,6.77,5.28v.09a4.35,4.35,0,0,1-3,4.37l4,6.89h-5l-3.37-6H61.6v6H56.85Zm6.28,7.58c1.6,0,2.4-.67,2.4-2v-.1c0-1.34-.84-1.88-2.38-1.88H61.6v4Z" fill="#14aa40"/><path d="M76.94,148.88h7.42c3.93,0,5.6,1.77,5.6,4.35v.09a3.42,3.42,0,0,1-2.81,3.58,3.62,3.62,0,0,1,3.32,3.89v.09c0,3-1.93,4.63-6,4.63H76.94Zm6.46,6.6c1.49,0,2-.51,2-1.69v-.1c0-1.14-.6-1.65-2-1.65H81.59v3.44Zm.17,6.84c1.51,0,2.21-.7,2.21-1.93v-.09c0-1.26-.68-1.91-2.35-1.91H81.59v3.93Z" fill="#14aa40"/><path d="M92.12,148h4.14v17.51H92.12Z" fill="#14aa40"/><path d="M97.84,159.58v-.19c0-3.91,2.91-6.37,6.67-6.37s6.63,2.39,6.63,6.25v.19c0,3.95-2.91,6.33-6.65,6.33S97.84,163.51,97.84,159.58Zm9.07-.07v-.19c0-2-.82-3.18-2.4-3.18s-2.41,1.09-2.41,3.13v.19c0,2.09.81,3.23,2.41,3.23S106.91,161.53,106.91,159.51Z" fill="#14aa40"/><path d="M112,159.58v-.19c0-4,2.91-6.37,6.49-6.37,3,0,5.72,1.3,6,5h-3.9a1.81,1.81,0,0,0-2-1.77c-1.46,0-2.32,1.05-2.32,3.09v.19c0,2.12.81,3.21,2.39,3.21a2,2,0,0,0,2.12-2h3.74c-.11,3.07-2.18,5.07-6.11,5.07C114.72,165.79,112,163.67,112,159.58Z" fill="#14aa40"/><path d="M125.81,148H130v10.16l3.28-4.81h4.33l-4,5.46,4.3,6.7h-4.65L130,160.18v5.33h-4.16Z" fill="#14aa40"/><path d="M20.72,182.55v-.19c0-5.07,3.81-8.46,8.79-8.46s8.81,3.18,8.81,8.35v.18c0,5.12-3.51,8.61-8.88,8.61S20.72,187.55,20.72,182.55Zm12.63-.05v-.18c0-3-1.49-4.7-3.84-4.7s-3.81,1.7-3.81,4.72v.18c0,3,1.53,4.77,3.83,4.77S33.35,185.48,33.35,182.5Z" fill="#14aa40"/><path d="M39.93,178.6h4.16v2a4.28,4.28,0,0,1,4-2.28c2.35,0,4,1.46,4,4.58v7.91H47.9v-7.07c0-1.37-.53-2.05-1.74-2.05s-2.07.75-2.07,2.3v6.82H39.93Z" fill="#14aa40"/><path d="M54.2,173.25h4.14v17.51H54.2Z" fill="#14aa40"/><path d="M60.48,175.29a2.17,2.17,0,0,1,2.28-2.16,2.15,2.15,0,1,1,0,4.3A2.15,2.15,0,0,1,60.48,175.29Zm.21,3.31h4.16v12.16H60.69Z" fill="#14aa40"/><path d="M67.08,178.6h4.16v2a4.29,4.29,0,0,1,4-2.28c2.35,0,4,1.46,4,4.58v7.91H75.06v-7.07c0-1.37-.54-2.05-1.75-2.05s-2.07.75-2.07,2.3v6.82H67.08Z" fill="#14aa40"/><path d="M80.59,184.83v-.19a6.22,6.22,0,0,1,6.58-6.37c3.33,0,6.19,1.91,6.19,6.28v1.09H84.8a2.42,2.42,0,0,0,2.53,2.54c1.37,0,2-.63,2.12-1.45h3.91C93,189.48,90.87,191,87.19,191S80.59,188.8,80.59,184.83Zm8.72-1.54c-.07-1.46-.79-2.28-2.14-2.28a2.32,2.32,0,0,0-2.33,2.28Z" fill="#14aa40"/><path d="M20.58,210.08v-.19c0-4,2.91-6.37,6.49-6.37,3,0,5.72,1.3,6,5h-3.9a1.81,1.81,0,0,0-2-1.77c-1.46,0-2.32,1.05-2.32,3.09V210c0,2.12.81,3.21,2.39,3.21a2,2,0,0,0,2.12-2h3.74c-.11,3.07-2.18,5.07-6.11,5.07C23.35,216.29,20.58,214.17,20.58,210.08Z" fill="#14aa40"/><path d="M33.79,210.08v-.19c0-3.91,2.9-6.37,6.67-6.37s6.63,2.39,6.63,6.25V210c0,3.95-2.91,6.33-6.65,6.33S33.79,214,33.79,210.08Zm9.07-.07v-.19c0-2-.82-3.18-2.4-3.18S38,207.73,38,209.77V210c0,2.09.82,3.23,2.42,3.23S42.86,212,42.86,210Z" fill="#14aa40"/><path d="M47.81,212.15h3.83c.14.88.54,1.37,1.72,1.37s1.49-.4,1.49-1-.58-.86-2.25-1.09C49.34,211,48,210.05,48,207.52c0-2.7,2.39-4,5.21-4,3,0,5.09,1,5.37,3.93H54.78a1.36,1.36,0,0,0-1.56-1.21c-.9,0-1.37.4-1.37.95s.56.82,2,1c3.37.42,5,1.31,5,3.91,0,2.88-2.14,4.19-5.51,4.19S47.9,214.84,47.81,212.15Z" fill="#14aa40"/><path d="M60.8,212.1v-5.42H59.34v-2.83H60.8v-2.54H65v2.54h2.39v2.83H65v5A1.1,1.1,0,0,0,66.2,213a3.14,3.14,0,0,0,1.18-.21v3.17a8.63,8.63,0,0,1-2.3.35C62.34,216.29,60.8,215,60.8,212.1Z" fill="#14aa40"/><path d="M68.29,212.15h3.84c.14.88.53,1.37,1.72,1.37,1,0,1.49-.4,1.49-1s-.59-.86-2.26-1.09c-3.26-.42-4.63-1.38-4.63-3.91,0-2.7,2.4-4,5.21-4,3,0,5.09,1,5.37,3.93H75.27a1.37,1.37,0,0,0-1.56-1.21c-.91,0-1.37.4-1.37.95s.55.82,2,1c3.37.42,5,1.31,5,3.91,0,2.88-2.14,4.19-5.51,4.19S68.38,214.84,68.29,212.15Z" fill="#14aa40"/><path d="M84.87,211.77v-7.92H89v7.25c0,1.37.53,2.05,1.72,2.05s2.07-.75,2.07-2.31v-7H97V216H92.82v-1.89A4,4,0,0,1,89,216.29C86.61,216.29,84.87,214.84,84.87,211.77Z" fill="#14aa40"/><path d="M99.09,203.85h4.17v1.81a4.3,4.3,0,0,1,3.79-2.14c2.83,0,5.14,2.14,5.14,6.3V210c0,4.18-2.31,6.28-5.17,6.28a4,4,0,0,1-3.76-2.07v5.86H99.09ZM108,210v-.19c0-2.14-.94-3.16-2.4-3.16s-2.42,1.09-2.42,3.14V210c0,2.07.91,3.12,2.42,3.12S108,212,108,210Z" fill="#14aa40"/><path d="M118.49,212.1v-5.42H117v-2.83h1.47v-2.54h4.16v2.54H125v2.83h-2.39v5a1.1,1.1,0,0,0,1.23,1.27,3.19,3.19,0,0,0,1.19-.21v3.17a8.79,8.79,0,0,1-2.31.35C120,216.29,118.49,215,118.49,212.1Z" fill="#14aa40"/><path d="M126,210.08v-.19c0-3.91,2.91-6.37,6.68-6.37s6.62,2.39,6.62,6.25V210c0,3.95-2.9,6.33-6.65,6.33S126,214,126,210.08ZM135,210v-.19c0-2-.81-3.18-2.39-3.18s-2.42,1.09-2.42,3.13V210c0,2.09.81,3.23,2.42,3.23S135,212,135,210Z" fill="#14aa40"/><path d="M65.56,223.75H69.7v17.51H65.56Z" fill="#14aa40"/><path d="M71.28,235.33v-.19c0-3.91,2.9-6.37,6.58-6.37,3.32,0,6.18,1.91,6.18,6.28v1.09H75.49A2.42,2.42,0,0,0,78,238.68c1.37,0,2-.63,2.12-1.45H84c-.37,2.75-2.49,4.31-6.16,4.31S71.28,239.3,71.28,235.33ZM80,233.79c-.07-1.46-.79-2.28-2.14-2.28a2.32,2.32,0,0,0-2.33,2.28Z" fill="#14aa40"/><path d="M84.78,237.4h3.84c.14.88.54,1.37,1.72,1.37,1,0,1.49-.4,1.49-1s-.58-.86-2.26-1.09c-3.25-.42-4.62-1.38-4.62-3.91,0-2.7,2.39-4,5.21-4,3,0,5.09,1,5.37,3.93H91.76a1.36,1.36,0,0,0-1.56-1.21c-.91,0-1.37.4-1.37.95s.56.82,2,1c3.37.42,5,1.31,5,3.91,0,2.88-2.14,4.19-5.51,4.19S84.88,240.09,84.78,237.4Z" fill="#14aa40"/><path d="M96.48,237.4h3.84c.14.88.53,1.37,1.72,1.37,1,0,1.48-.4,1.48-1s-.58-.86-2.25-1.09c-3.26-.42-4.63-1.38-4.63-3.91,0-2.7,2.4-4,5.21-4,3,0,5.09,1,5.37,3.93h-3.76a1.37,1.37,0,0,0-1.56-1.21c-.91,0-1.38.4-1.38.95s.56.82,2,1c3.37.42,5,1.31,5,3.91,0,2.88-2.14,4.19-5.51,4.19S96.57,240.09,96.48,237.4Z" fill="#14aa40"/><path d="M21.79,262.6v-5.42H20.33v-2.83h1.46v-2.54H26v2.54h2.4v2.83H26v5a1.11,1.11,0,0,0,1.24,1.27,3.14,3.14,0,0,0,1.18-.21v3.17a8.63,8.63,0,0,1-2.3.35C23.33,266.79,21.79,265.46,21.79,262.6Z" fill="#14aa40"/><path d="M29.93,249h4.16v7.3a4.29,4.29,0,0,1,4-2.28c2.35,0,4,1.46,4,4.58v7.91H37.9v-7.07c0-1.37-.53-2.05-1.74-2.05s-2.07.75-2.07,2.3v6.82H29.93Z" fill="#14aa40"/><path d="M43.39,263.14c0-2.87,2.42-4,6.46-4H51v-.28c0-1.16-.28-1.93-1.61-1.93a1.49,1.49,0,0,0-1.65,1.44H43.85c.19-2.93,2.49-4.37,5.82-4.37s5.49,1.37,5.49,4.6v7.89h-4v-1.42a4,4,0,0,1-3.6,1.7C45.32,266.79,43.39,265.72,43.39,263.14Zm7.63-.89v-.74h-1.1c-1.67,0-2.41.32-2.41,1.32,0,.7.46,1.14,1.44,1.14A1.83,1.83,0,0,0,51,262.25Z" fill="#14aa40"/><path d="M57.18,254.35h4.16v2a4.29,4.29,0,0,1,4-2.28c2.35,0,4,1.46,4,4.58v7.91H65.15v-7.07c0-1.37-.53-2.05-1.74-2.05s-2.07.75-2.07,2.3v6.82H57.18Z" fill="#14aa40"/><path d="M24.79,278.8h-4.3v-3.67H33.88v3.67h-4.3v13H24.79Z" fill="#14aa40"/><path d="M34.25,287.52V279.6h4.17v7.25c0,1.37.53,2,1.72,2s2.07-.75,2.07-2.31v-7h4.16v12.16H42.21v-1.89A4,4,0,0,1,38.35,292C36,292,34.25,290.59,34.25,287.52Z" fill="#14aa40"/><path d="M48.48,279.6h4.16V282a3.84,3.84,0,0,1,3.93-2.58v3.89c-2.53-.07-3.93.72-3.93,2.67v5.77H48.48Z" fill="#14aa40"/><path d="M62.25,289.87v1.89H58.08V274.25h4.17v7.16A4.28,4.28,0,0,1,66,279.27c2.83,0,5.14,2.14,5.14,6.3v.19c0,4.18-2.31,6.28-5.17,6.28A3.92,3.92,0,0,1,62.25,289.87Zm4.69-4.11v-.19c0-2.14-.93-3.16-2.39-3.16s-2.42,1.09-2.42,3.14v.18c0,2.07.91,3.12,2.42,3.12S66.94,287.76,66.94,285.76Z" fill="#14aa40"/><path d="M72,285.83v-.19c0-3.91,2.91-6.37,6.68-6.37s6.62,2.39,6.62,6.25v.19c0,4-2.9,6.33-6.65,6.33S72,289.76,72,285.83Zm9.07-.07v-.19c0-2.05-.81-3.18-2.39-3.18s-2.42,1.09-2.42,3.13v.19c0,2.09.81,3.23,2.42,3.23S81.1,287.78,81.1,285.76Z" fill="#14aa40"/><path d="M90.35,278.8h-4.3v-3.67h13.4v3.67h-4.3v13h-4.8Z" fill="#14aa40"/><path d="M98.61,288.39c0-2.87,2.42-4,6.46-4h1.17v-.28c0-1.16-.28-1.93-1.61-1.93a1.49,1.49,0,0,0-1.65,1.44H99.07c.19-2.93,2.49-4.37,5.82-4.37s5.49,1.37,5.49,4.6v7.89h-4v-1.42a4,4,0,0,1-3.61,1.7C100.54,292,98.61,291,98.61,288.39Zm7.63-.89v-.74h-1.1c-1.67,0-2.42.32-2.42,1.32,0,.7.47,1.14,1.45,1.14A1.83,1.83,0,0,0,106.24,287.5Z" fill="#14aa40"/><path d="M115.46,285.57l-3.79-6h4.79l1.89,3.2,1.84-3.2h4.27l-3.83,5.65,4.21,6.51h-4.79l-2.17-3.63-2.21,3.63h-4.25Z" fill="#14aa40"/><path d="M125.67,289.66a2.31,2.31,0,0,1,2.37-2.34,2.35,2.35,0,1,1,0,4.69A2.31,2.31,0,0,1,125.67,289.66Z" fill="#14aa40"/></svg>