<svg xmlns="http://www.w3.org/2000/svg" viewBox="0 0 160 600"><title>overlay</title><g id="Layer_2" data-name="Layer 2"><g id="Rect"><rect width="160" height="600" fill="none"/></g><g id="_20" data-name="$20"><path d="M50.9,233.7c-2.34-.16-3.48-1.41-3.57-3.2h2.5a1.3,1.3,0,0,0,1.07,1.28v-2c-2.36-.34-3.36-1.19-3.36-3.08,0-1.64,1.29-2.82,3.36-3v-1.2H52v1.22c2,.16,3.13,1.07,3.29,2.92H52.8a1.08,1.08,0,0,0-.84-1v1.87c2.07.3,3.43,1,3.43,3,0,1.65-1.07,3-3.43,3.18v1.69H50.9Zm0-6.31v-1.74c-.61.11-.92.43-.92.87S50.17,227.24,50.9,227.39ZM52,230v1.81c.6-.13.91-.48.91-1S52.68,230.14,52,230Z" fill="#fff" stroke="#14aa40" stroke-miterlimit="10" stroke-width="0.5"/><path d="M55.75,240.63l5.82-6.16c1.65-1.77,2.74-3.19,2.74-4.58A1.65,1.65,0,0,0,62.54,228c-1.18,0-1.93.72-2.14,2.7H56.08c.16-4.17,2.67-6.28,6.7-6.28S69,226.63,69,229.7c0,2.28-1.28,4-3.14,5.79l-2.33,2.26h5.58v3.56H55.75Z" fill="#fff" stroke="#14aa40" stroke-miterlimit="10" stroke-width="0.5"/><path d="M70.24,233.35v-.69c0-5.26,3.28-8.21,7.67-8.21s7.67,2.72,7.67,8.11v.65c0,5.28-3,8.38-7.76,8.38S70.24,238.59,70.24,233.35Zm10.58,0v-.68c0-3-.89-4.58-2.91-4.58S75,229.56,75,232.63v.7c0,3.09.91,4.56,3,4.56S80.82,236.38,80.82,233.31Z" fill="#fff" stroke="#14aa40" stroke-miterlimit="10" stroke-width="0.5"/></g></g></svg>