<svg xmlns="http://www.w3.org/2000/svg" viewBox="0 0 728 90"><title>legal</title><g id="Layer_2" data-name="Layer 2"><g id="For_paid_versions." data-name="For paid versions."><path d="M638.11,72.37h3.76V73h-3v2.28h2.33v.64h-2.33v2.88h-.78Z" fill="#fff"/><path d="M642.21,76.49v-.07a2.32,2.32,0,1,1,4.63,0v.08a2.32,2.32,0,1,1-4.63,0Zm3.86,0v-.06c0-1.09-.61-1.79-1.54-1.79s-1.54.7-1.54,1.78v.07c0,1.08.58,1.78,1.54,1.78A1.57,1.57,0,0,0,646.07,76.49Z" fill="#fff"/><path d="M647.87,74.1h.74V75a1.63,1.63,0,0,1,1.55-.93v.7c-.94,0-1.55.34-1.55,1.5v2.59h-.74Z" fill="#fff"/><path d="M653.37,74.1h.74v.79a1.94,1.94,0,0,1,1.6-.87,2.14,2.14,0,0,1,2.14,2.37v.07a2.18,2.18,0,0,1-2.14,2.43,1.79,1.79,0,0,1-1.6-.86v2.42h-.74Zm3.7,2.39v-.07c0-1.19-.65-1.78-1.45-1.78s-1.54.58-1.54,1.78v.07c0,1.21.63,1.78,1.55,1.78S657.07,77.64,657.07,76.49Z" fill="#fff"/><path d="M658.49,77.5c0-1.09,1.15-1.46,2.35-1.46h.68V75.7c0-.75-.29-1.06-1-1.06s-1,.27-1.08.85h-.75A1.65,1.65,0,0,1,660.55,74a1.52,1.52,0,0,1,1.72,1.68v3.11h-.75v-.6a1.7,1.7,0,0,1-1.47.68C659.18,78.89,658.49,78.47,658.49,77.5Zm3-.34v-.58h-.65c-.94,0-1.64.23-1.64.92,0,.49.24.79.89.79S661.52,77.89,661.52,77.16Z" fill="#fff"/><path d="M663.48,72.62a.5.5,0,0,1,.5-.49.49.49,0,0,1,.49.49.5.5,0,0,1-.49.5A.51.51,0,0,1,663.48,72.62Zm.14,1.48h.74v4.71h-.74Z" fill="#fff"/><path d="M665.41,76.55v-.07A2.24,2.24,0,0,1,667.6,74a1.68,1.68,0,0,1,1.54.84v-3h.75v7h-.75V78a2,2,0,0,1-1.61.89A2.1,2.1,0,0,1,665.41,76.55Zm3.76-.06v-.08c0-1.2-.58-1.77-1.5-1.77s-1.49.66-1.49,1.8v.07c0,1.19.64,1.76,1.43,1.76S669.17,77.69,669.17,76.49Z" fill="#fff"/><path d="M673,74.1h.81l1.4,4,1.38-4h.77l-1.69,4.71h-.95Z" fill="#fff"/><path d="M677.7,76.5v-.07A2.22,2.22,0,0,1,679.91,74,2.06,2.06,0,0,1,682,76.36v.24h-3.55c0,1.07.55,1.67,1.52,1.67.73,0,1.15-.27,1.25-.82H682a1.83,1.83,0,0,1-2,1.44A2.22,2.22,0,0,1,677.7,76.5Zm3.56-.5c-.08-1-.58-1.36-1.35-1.36A1.41,1.41,0,0,0,678.5,76Z" fill="#fff"/><path d="M683,74.1h.75V75a1.61,1.61,0,0,1,1.54-.93v.7c-.94,0-1.54.34-1.54,1.5v2.59H683Z" fill="#fff"/><path d="M685.85,77.36h.72c.06.56.36.91,1.11.91s1-.25,1-.75-.37-.66-1.1-.79c-1.22-.23-1.64-.57-1.64-1.39A1.47,1.47,0,0,1,687.56,74a1.51,1.51,0,0,1,1.71,1.36h-.72c-.11-.52-.4-.74-1-.74s-.89.27-.89.67.23.6,1.09.75,1.66.4,1.66,1.4-.59,1.43-1.73,1.43S685.89,78.32,685.85,77.36Z" fill="#fff"/><path d="M690.3,72.62a.5.5,0,0,1,.5-.49.49.49,0,0,1,.49.49.5.5,0,0,1-.49.5A.51.51,0,0,1,690.3,72.62Zm.14,1.48h.74v4.71h-.74Z" fill="#fff"/><path d="M692.23,76.49v-.07a2.31,2.31,0,1,1,4.62,0v.08a2.31,2.31,0,1,1-4.62,0Zm3.85,0v-.06c0-1.09-.6-1.79-1.54-1.79s-1.54.7-1.54,1.78v.07c0,1.08.59,1.78,1.54,1.78S696.08,77.56,696.08,76.49Z" fill="#fff"/><path d="M697.88,74.1h.75v.75a1.6,1.6,0,0,1,1.51-.83c1,0,1.65.53,1.65,1.9v2.89h-.74v-3c0-.82-.35-1.19-1.11-1.19A1.23,1.23,0,0,0,698.63,76v2.86h-.75Z" fill="#fff"/><path d="M702.74,77.36h.73c0,.56.35.91,1.1.91s1-.25,1-.75-.37-.66-1.1-.79c-1.22-.23-1.64-.57-1.64-1.39a1.47,1.47,0,0,1,1.6-1.32,1.51,1.51,0,0,1,1.7,1.36h-.72c-.11-.52-.4-.74-1-.74s-.89.27-.89.67.23.6,1.1.75,1.65.4,1.65,1.4-.58,1.43-1.73,1.43S702.78,78.32,702.74,77.36Z" fill="#fff"/><path d="M707.25,78.28a.58.58,0,1,1,.57.57A.57.57,0,0,1,707.25,78.28Z" fill="#fff"/></g><g id="Rect"><rect width="728" height="90" fill="none"/></g></g></svg>