<svg xmlns="http://www.w3.org/2000/svg" viewBox="0 0 728 90"><title>switch</title><g id="Layer_2" data-name="Layer 2"><g id="Rect"><rect width="728" height="90" fill="none"/></g><g id="Switch_from_TurboTax._Save_at_least_40." data-name="Switch from TurboTax. Save at least $40."><path d="M120.76,31.36h6.43c.17,1.68.93,3.07,3.73,3.07,2,0,3-1,3-2.35s-.89-1.85-3.73-2.27c-6.67-.8-8.91-2.78-8.91-7.53,0-4.26,3.5-7.36,9.14-7.36s8.88,2.38,9.31,7.36H133.5a2.68,2.68,0,0,0-3-2.54c-1.81,0-2.74.82-2.74,2s.73,1.92,3.67,2.31c6,.66,9,2.21,9,7.33,0,4.32-3.43,7.85-9.51,7.85C124.32,39.24,121,36.47,120.76,31.36Z" fill="#fff"/><path d="M140.92,21.59h6.17l2.51,10.33,2.91-10.33h4.75l2.57,10.33,2.81-10.33h5.61l-5.48,17.26h-5.64l-2.58-9.64-2.67,9.64h-5.74Z" fill="#fff"/><path d="M169.63,16.9a3.26,3.26,0,1,1,3.24,3A3.09,3.09,0,0,1,169.63,16.9Zm.3,4.69h5.91V38.85h-5.91Z" fill="#fff"/><path d="M179.8,33.3V25.61h-2.08v-4h2.08V18h5.9v3.6h3.4v4h-3.4v7.13c0,1.26.63,1.82,1.75,1.82a4.5,4.5,0,0,0,1.69-.3v4.49a12.42,12.42,0,0,1-3.27.49C182,39.24,179.8,37.36,179.8,33.3Z" fill="#fff"/><path d="M190.42,30.43v-.26c0-5.74,4.13-9,9.21-9,4.22,0,8.12,1.84,8.45,7.09h-5.55c-.26-1.62-1.05-2.51-2.77-2.51-2.08,0-3.3,1.49-3.3,4.39v.27c0,3,1.16,4.55,3.4,4.55a2.87,2.87,0,0,0,3-2.87h5.32c-.17,4.36-3.1,7.19-8.68,7.19C194.35,39.24,190.42,36.24,190.42,30.43Z" fill="#fff"/><path d="M210.09,14H216V24.36a6.08,6.08,0,0,1,5.67-3.23c3.34,0,5.65,2.07,5.65,6.5V38.85h-5.91v-10c0-1.95-.76-2.91-2.48-2.91S216,27,216,29.18v9.67h-5.91Z" fill="#fff"/><path d="M237.08,25.61H234.9v-4h2.18V20.07c0-4.29,2.68-6.34,6.77-6.34a10.5,10.5,0,0,1,2.71.37v4.32a5.52,5.52,0,0,0-1.62-.23,1.73,1.73,0,0,0-2,1.88v1.52h3.5v4H243V38.85h-5.88Z" fill="#fff"/><path d="M248.43,21.59h5.91V25a5.44,5.44,0,0,1,5.58-3.66v5.51c-3.6-.1-5.58,1-5.58,3.79v8.19h-5.91Z" fill="#fff"/><path d="M261,30.43v-.26c0-5.55,4.13-9,9.48-9s9.4,3.39,9.4,8.87v.27c0,5.61-4.12,9-9.44,9S261,36,261,30.43Zm12.88-.1v-.26c0-2.9-1.16-4.52-3.4-4.52S267,27.1,267,30v.27c0,3,1.16,4.58,3.44,4.58S273.85,33.21,273.85,30.33Z" fill="#fff"/><path d="M281.93,21.59h5.91v2.64a6,6,0,0,1,5.41-3.1A4.71,4.71,0,0,1,297.94,24a6.82,6.82,0,0,1,5.71-2.87c3.26,0,5.64,2.11,5.64,6.43V38.85h-5.91V28.55c0-1.75-.86-2.61-2.21-2.61-1.58,0-2.64,1-2.64,2.91v10h-5.84V28.55c0-1.75-.86-2.61-2.21-2.61-1.59,0-2.64,1-2.64,2.91v10h-5.91Z" fill="#fff"/><path d="M323.21,20.46h-6.1V15.25h19v5.21H330V38.85h-6.8Z" fill="#fff"/><path d="M336.64,32.84V21.59h5.91V31.88c0,1.95.76,2.91,2.44,2.91s2.94-1.06,2.94-3.27V21.59h5.91V38.85h-5.91V36.18a5.67,5.67,0,0,1-5.48,3.06C339.12,39.24,336.64,37.2,336.64,32.84Z" fill="#fff"/><path d="M356.84,21.59h5.91V25a5.43,5.43,0,0,1,5.57-3.66v5.51c-3.59-.1-5.57,1-5.57,3.79v8.19h-5.91Z" fill="#fff"/><path d="M376.38,36.18v2.67h-5.91V14h5.91V24.16a6.08,6.08,0,0,1,5.37-3c4,0,7.3,3,7.3,8.94v.26c0,5.94-3.27,8.91-7.33,8.91A5.59,5.59,0,0,1,376.38,36.18ZM383,30.33v-.26c0-3-1.32-4.49-3.4-4.49s-3.43,1.55-3.43,4.46v.26c0,2.94,1.29,4.42,3.43,4.42S383,33.17,383,30.33Z" fill="#fff"/><path d="M390.27,30.43v-.26c0-5.55,4.12-9,9.47-9s9.41,3.39,9.41,8.87v.27c0,5.61-4.13,9-9.44,9S390.27,36,390.27,30.43Zm12.87-.1v-.26c0-2.9-1.16-4.52-3.4-4.52s-3.43,1.55-3.43,4.45v.27c0,3,1.15,4.58,3.43,4.58S403.14,33.21,403.14,30.33Z" fill="#fff"/><path d="M416.27,20.46h-6.1V15.25h19v5.21h-6.11V38.85h-6.8Z" fill="#fff"/><path d="M428,34.06c0-4.06,3.43-5.64,9.17-5.64h1.65V28c0-1.65-.39-2.74-2.28-2.74a2.12,2.12,0,0,0-2.34,2h-5.54c.26-4.16,3.53-6.2,8.25-6.2s7.79,1.94,7.79,6.53V38.85h-5.75v-2c-.82,1.25-2.34,2.4-5.11,2.4C430.73,39.24,428,37.73,428,34.06Zm10.82-1.25V31.75h-1.55c-2.38,0-3.43.46-3.43,1.88,0,1,.66,1.62,2,1.62C437.56,35.25,438.81,34.29,438.81,32.81Z" fill="#fff"/><path d="M451.91,30.07l-5.38-8.48h6.8L456,26.14l2.61-4.55h6.07l-5.44,8,6,9.24h-6.8l-3.07-5.15-3.13,5.15h-6Z" fill="#fff"/><path d="M466.4,35.88a3.29,3.29,0,0,1,3.36-3.34,3.34,3.34,0,1,1,0,6.67A3.29,3.29,0,0,1,466.4,35.88Z" fill="#fff"/><path d="M120.76,66.36h6.43c.17,1.68.93,3.07,3.73,3.07,2,0,3-1,3-2.35s-.89-1.85-3.73-2.27c-6.67-.8-8.91-2.78-8.91-7.53,0-4.26,3.5-7.36,9.14-7.36s8.88,2.38,9.31,7.36H133.5a2.68,2.68,0,0,0-3-2.54c-1.81,0-2.74.82-2.74,2s.73,1.92,3.67,2.31c6,.66,9,2.21,9,7.33,0,4.32-3.43,7.86-9.51,7.86C124.32,74.25,121,71.47,120.76,66.36Z" fill="#fff"/><path d="M141.61,69.06c0-4.06,3.44-5.64,9.18-5.64h1.65V63c0-1.65-.4-2.74-2.28-2.74a2.12,2.12,0,0,0-2.34,2h-5.55c.27-4.16,3.54-6.2,8.26-6.2s7.78,1.94,7.78,6.53V73.85h-5.74v-2a5.65,5.65,0,0,1-5.11,2.42C144.35,74.25,141.61,72.73,141.61,69.06Zm10.83-1.25V66.75h-1.55c-2.38,0-3.43.46-3.43,1.88,0,1,.66,1.62,2,1.62C151.19,70.25,152.44,69.29,152.44,67.81Z" fill="#fff"/><path d="M159.2,56.59h6.31l3.59,11.12,3.54-11.12h5.64L172,73.85h-6.44Z" fill="#fff"/><path d="M177.91,65.43v-.26c0-5.55,4.13-9,9.34-9,4.72,0,8.78,2.7,8.78,8.91v1.55H183.89c.16,2.28,1.48,3.6,3.6,3.6,1.94,0,2.77-.9,3-2H196c-.52,3.89-3.53,6.11-8.74,6.11C181.87,74.25,177.91,71.08,177.91,65.43Zm12.38-2.18c-.1-2.08-1.12-3.23-3-3.23s-3,1.15-3.3,3.23Z" fill="#fff"/><path d="M203.09,69.06c0-4.06,3.43-5.64,9.18-5.64h1.65V63c0-1.65-.4-2.74-2.28-2.74a2.12,2.12,0,0,0-2.34,2h-5.55c.27-4.16,3.53-6.2,8.25-6.2s7.79,1.94,7.79,6.53V73.85h-5.74v-2a5.67,5.67,0,0,1-5.12,2.42C205.83,74.25,203.09,72.73,203.09,69.06Zm10.83-1.25V66.75h-1.55c-2.38,0-3.44.46-3.44,1.88,0,1,.66,1.62,2,1.62C212.66,70.25,213.92,69.29,213.92,67.81Z" fill="#fff"/><path d="M223.35,68.3V60.61h-2.07v-4h2.07V53h5.91v3.6h3.4v4h-3.4v7.13c0,1.26.63,1.82,1.75,1.82a4.42,4.42,0,0,0,1.68-.3v4.49a12.2,12.2,0,0,1-3.26.5C225.53,74.25,223.35,72.36,223.35,68.3Z" fill="#fff"/><path d="M241.07,49H247V73.85h-5.88Z" fill="#fff"/><path d="M249.19,65.43v-.26c0-5.55,4.13-9,9.34-9,4.72,0,8.78,2.7,8.78,8.91v1.55H255.17c.16,2.28,1.48,3.6,3.59,3.6,1.95,0,2.78-.9,3-2h5.54c-.53,3.89-3.53,6.11-8.74,6.11C253.15,74.25,249.19,71.08,249.19,65.43Zm12.38-2.18c-.1-2.08-1.12-3.23-3-3.23s-3,1.15-3.3,3.23Z" fill="#fff"/><path d="M268.53,69.06c0-4.06,3.43-5.64,9.18-5.64h1.65V63c0-1.65-.4-2.74-2.28-2.74a2.13,2.13,0,0,0-2.35,2h-5.54c.26-4.16,3.53-6.2,8.25-6.2s7.79,1.94,7.79,6.53V73.85h-5.74v-2a5.68,5.68,0,0,1-5.12,2.42C271.27,74.25,268.53,72.73,268.53,69.06Zm10.83-1.25V66.75H277.8c-2.37,0-3.43.46-3.43,1.88,0,1,.66,1.62,2.05,1.62C278.1,70.25,279.36,69.29,279.36,67.81Z" fill="#fff"/><path d="M286.94,68.37h5.45c.2,1.25.76,1.95,2.44,1.95,1.45,0,2.11-.56,2.11-1.42s-.82-1.22-3.2-1.55c-4.62-.6-6.57-1.95-6.57-5.55,0-3.83,3.4-5.67,7.4-5.67,4.26,0,7.23,1.45,7.62,5.57h-5.35A1.92,1.92,0,0,0,294.63,60c-1.28,0-1.94.56-1.94,1.35s.79,1.16,2.9,1.42c4.79.59,7.1,1.85,7.1,5.54,0,4.1-3,6-7.83,6S287.08,72.2,286.94,68.37Z" fill="#fff"/><path d="M305.39,68.3V60.61h-2.08v-4h2.08V53h5.91v3.6h3.4v4h-3.4v7.13c0,1.26.63,1.82,1.75,1.82a4.45,4.45,0,0,0,1.68-.3v4.49a12.28,12.28,0,0,1-3.27.5C307.57,74.25,305.39,72.36,305.39,68.3Z" fill="#fff"/><path d="M326.74,63.05c-3.33-.23-4.95-2-5.08-4.54h3.56a1.81,1.81,0,0,0,1.52,1.81V57.51C323.39,57,322,55.82,322,53.14c0-2.33,1.82-4,4.77-4.21V47.22h1.5V49c2.79.23,4.44,1.52,4.67,4.15h-3.48a1.52,1.52,0,0,0-1.19-1.44v2.66c2.94.42,4.87,1.42,4.87,4.21,0,2.35-1.52,4.31-4.87,4.52v2.41h-1.5Zm0-9V51.62c-.87.16-1.31.62-1.31,1.23S325.7,53.87,326.74,54.09Zm1.5,3.67v2.56A1.38,1.38,0,0,0,329.53,59C329.53,58.32,329.26,58,328.24,57.76Z" fill="#fff"/><path d="M345.44,69.33H334V66.79l9.84-16.54h8.15V64.67h3v4.66h-3v4.52h-6.5Zm.16-4.66V55.33l-5.28,9.34Z" fill="#fff"/><path d="M356.36,62.56v-1c0-7.46,4.65-11.65,10.89-11.65s10.89,3.86,10.89,11.52v.92c0,7.5-4.29,11.89-11,11.89S356.36,70,356.36,62.56Zm15-.06v-1c0-4.33-1.25-6.5-4.12-6.5s-4.13,2.14-4.13,6.5v1c0,4.39,1.29,6.47,4.19,6.47S371.37,66.85,371.37,62.5Z" fill="#fff"/><path d="M378.7,70.88a3.29,3.29,0,0,1,3.36-3.34,3.34,3.34,0,1,1,0,6.67A3.29,3.29,0,0,1,378.7,70.88Z" fill="#fff"/></g></g></svg>