<?xml version="1.0" encoding="utf-8"?>
<!-- Generator: Adobe Illustrator 23.1.1, SVG Export Plug-In . SVG Version: 6.00 Build 0)  -->
<svg version="1.1" id="Layer_1" xmlns="http://www.w3.org/2000/svg" xmlns:xlink="http://www.w3.org/1999/xlink" x="0px" y="0px"
	 viewBox="0 0 300 600" style="enable-background:new 0 0 300 600;" xml:space="preserve">
<style type="text/css">
	.st0{fill:none;}
	.st1{fill:#FFFFFF;stroke:#14AA40;stroke-width:4.0206;stroke-miterlimit:10;}
	.st2{fill:#FFFFFF;stroke:#14AA40;stroke-width:3;stroke-miterlimit:10;}
</style>
<g id="Rect">
	<rect class="st0" width="300" height="600"/>
</g>
<g>
	<path class="st1" d="M115.9,273.6L94,287.2v-27.5l26.4-18.5h28.5v115h-33V273.6z"/>
	<path class="st1" d="M160.6,301.1v-4.8c0-36.3,22.7-56.8,53.1-56.8c30.2,0,53.1,18.8,53.1,56.1v4.5c0,36.5-20.9,57.9-53.7,57.9
		C180.9,358.1,160.6,337.3,160.6,301.1z M233.8,300.8v-4.7c0-21.1-6.1-31.7-20.1-31.7c-13.8,0-20.1,10.5-20.1,31.7v4.8
		c0,21.4,6.3,31.5,20.4,31.5S233.8,322.1,233.8,300.8z"/>
</g>
<g>
	<path class="st2" d="M56.2,282.2c2.8-0.6,4.3-2.3,4.3-4.6c0-2.1-0.9-3.2-4.3-4l-5-0.8c-11.3-1.6-16-5.7-16-14.7
		c0-7.8,6.1-13.5,16-14.2v-5.8h5v5.8c9.4,0.8,14.9,5.1,15.7,14H60.2c-0.4-2.5-1.4-4.1-4-4.9c0,0-2.5-0.6-5-0.1
		c-2.5,0.4-4.4,2.1-4.4,4.1c0,2.3,0.9,3.4,4.4,4.1l5,0.8c9.9,1.4,16.4,4.8,16.4,14.2c0,7.9-5.1,14.5-16.4,15.2v8.1h-5v-8.1
		c-11.2-0.8-16.6-6.7-17.1-15.3h12c0.3,3,2,5.7,5.1,6.1C54.3,282.6,56.2,282.2,56.2,282.2z"/>
</g>
</svg>
