<?xml version="1.0" encoding="utf-8"?>
<!-- Generator: Adobe Illustrator 24.0.2, SVG Export Plug-In . SVG Version: 6.00 Build 0)  -->
<svg version="1.1" id="Layer_1" xmlns="http://www.w3.org/2000/svg" xmlns:xlink="http://www.w3.org/1999/xlink" x="0px" y="0px"
	 viewBox="0 0 300 600" style="enable-background:new 0 0 300 600;" xml:space="preserve">
<style type="text/css">
	.st0{fill:none;}
	.st1{fill:#14AA40;}
</style>
<title>txt</title>
<g id="Layer_2_1_">
	<g id="Headline1">
		<g id="Rect">
			<rect class="st0" width="300" height="600"/>
		</g>
		<g id="legal">
			<path class="st1" d="M143.5,564.4h1.8c1.2,0,2.3,0.5,2.3,1.9v0c0,1.4-1,1.9-2.3,1.9h-1v2.6h-0.8V564.4z M145.4,567.6
				c0.9,0,1.4-0.5,1.4-1.3v0c0-0.9-0.5-1.3-1.4-1.3h-1.1v2.6H145.4z"/>
			<path class="st1" d="M148.5,566.2h0.7v0.8c0.3-0.5,0.7-0.9,1.5-0.9v0.7c-0.9,0-1.5,0.3-1.5,1.5v2.6h-0.7V566.2z"/>
			<path class="st1" d="M151.7,564.7c0-0.3,0.2-0.5,0.5-0.5s0.5,0.2,0.5,0.5c0,0.3-0.2,0.5-0.5,0.5S151.7,565,151.7,564.7z
				 M151.8,566.2h0.7v4.7h-0.7V566.2z"/>
			<path class="st1" d="M153.6,568.6L153.6,568.6c0-1.5,1-2.5,2.3-2.5c1,0,1.9,0.5,2,1.6h-0.7c-0.1-0.7-0.7-1-1.3-1
				c-0.9,0-1.5,0.7-1.5,1.8v0.1c0,1.2,0.6,1.8,1.5,1.8c0.7,0,1.3-0.4,1.3-1.2h0.7c-0.1,1-0.9,1.8-2.1,1.8
				C154.6,571,153.6,570,153.6,568.6z"/>
			<path class="st1" d="M158.6,568.6L158.6,568.6c0-1.5,0.9-2.5,2.2-2.5c1.1,0,2.1,0.7,2.1,2.3v0.2h-3.5c0,1.1,0.5,1.7,1.5,1.7
				c0.7,0,1.2-0.3,1.3-0.8h0.7c-0.2,0.9-0.9,1.4-2,1.4C159.5,571,158.6,570,158.6,568.6z M162.1,568.1c-0.1-1-0.6-1.4-1.3-1.4
				c-0.8,0-1.3,0.5-1.4,1.4H162.1z"/>
			<path class="st1" d="M165.8,568.6L165.8,568.6c0-1.5,0.9-2.5,2.2-2.5c0.8,0,1.3,0.4,1.5,0.8v-3h0.7v7h-0.7v-0.8
				c-0.3,0.5-0.9,0.9-1.6,0.9C166.7,571,165.8,570.1,165.8,568.6z M169.6,568.5L169.6,568.5c0-1.3-0.6-1.8-1.5-1.8
				c-0.9,0-1.5,0.7-1.5,1.8v0.1c0,1.2,0.6,1.8,1.4,1.8C168.9,570.3,169.6,569.8,169.6,568.5z"/>
			<path class="st1" d="M171.6,564.7c0-0.3,0.2-0.5,0.5-0.5s0.5,0.2,0.5,0.5c0,0.3-0.2,0.5-0.5,0.5S171.6,565,171.6,564.7z
				 M171.7,566.2h0.7v4.7h-0.7V566.2z"/>
			<path class="st1" d="M174,566.8h-0.7v-0.6h0.7v-0.7c0-1,0.5-1.5,1.4-1.5c0.2,0,0.4,0,0.6,0.1v0.6c-0.1-0.1-0.3-0.1-0.5-0.1
				c-0.5,0-0.7,0.3-0.7,0.8v0.8h1.8v-0.8c0-1,0.5-1.5,1.4-1.5c0.2,0,0.4,0,0.6,0.1v0.6c-0.1-0.1-0.3-0.1-0.5-0.1
				c-0.5,0-0.7,0.3-0.7,0.8v0.8h1.2v0.6h-1.2v4.1h-0.7v-4.1h-1.8v4.1H174V566.8z"/>
			<path class="st1" d="M178.8,568.6L178.8,568.6c0-1.5,0.9-2.5,2.2-2.5c1.1,0,2.1,0.7,2.1,2.3v0.2h-3.5c0,1.1,0.5,1.7,1.5,1.7
				c0.7,0,1.2-0.3,1.3-0.8h0.7c-0.2,0.9-0.9,1.4-2,1.4C179.8,571,178.8,570,178.8,568.6z M182.4,568.1c-0.1-1-0.6-1.4-1.3-1.4
				c-0.8,0-1.3,0.5-1.4,1.4H182.4z"/>
			<path class="st1" d="M184.2,566.2h0.7v0.8c0.3-0.5,0.7-0.9,1.5-0.9v0.7c-0.9,0-1.5,0.3-1.5,1.5v2.6h-0.7V566.2z"/>
			<path class="st1" d="M186.9,568.6L186.9,568.6c0-1.5,0.9-2.5,2.2-2.5c1.1,0,2.1,0.7,2.1,2.3v0.2h-3.5c0,1.1,0.5,1.7,1.5,1.7
				c0.7,0,1.2-0.3,1.3-0.8h0.7c-0.2,0.9-0.9,1.4-2,1.4C187.9,571,186.9,570,186.9,568.6z M190.5,568.1c-0.1-1-0.6-1.4-1.4-1.4
				c-0.8,0-1.3,0.5-1.4,1.4H190.5z"/>
			<path class="st1" d="M192.2,566.2h0.7v0.7c0.2-0.4,0.7-0.8,1.5-0.8c1,0,1.7,0.5,1.7,1.9v2.9h-0.7v-2.9c0-0.8-0.4-1.2-1.1-1.2
				c-0.7,0-1.3,0.4-1.3,1.3v2.9h-0.7V566.2z"/>
			<path class="st1" d="M197.1,568.6L197.1,568.6c0-1.5,1-2.5,2.3-2.5c1,0,1.9,0.5,2,1.6h-0.7c-0.1-0.7-0.7-1-1.3-1
				c-0.9,0-1.5,0.7-1.5,1.8v0.1c0,1.2,0.6,1.8,1.5,1.8c0.7,0,1.3-0.4,1.4-1.2h0.7c-0.1,1-0.9,1.8-2.1,1.8
				C198.1,571,197.1,570,197.1,568.6z"/>
			<path class="st1" d="M202.1,568.6L202.1,568.6c0-1.5,0.9-2.5,2.2-2.5c1.1,0,2.1,0.7,2.1,2.3v0.2h-3.5c0,1.1,0.5,1.7,1.5,1.7
				c0.7,0,1.2-0.3,1.3-0.8h0.7c-0.2,0.9-0.9,1.4-2,1.4C203.1,571,202.1,570,202.1,568.6z M205.7,568.1c-0.1-1-0.6-1.4-1.3-1.4
				c-0.8,0-1.3,0.5-1.4,1.4H205.7z"/>
			<path class="st1" d="M210.5,570.1v0.8h-0.7v-7h0.7v3c0.3-0.5,0.9-0.9,1.6-0.9c1.2,0,2.1,0.9,2.1,2.4v0.1c0,1.4-0.8,2.4-2.1,2.4
				C211.3,571,210.7,570.6,210.5,570.1z M213.4,568.6L213.4,568.6c0-1.3-0.7-1.9-1.4-1.9c-0.9,0-1.5,0.6-1.5,1.8v0.1
				c0,1.2,0.6,1.8,1.5,1.8C212.9,570.3,213.4,569.7,213.4,568.6z"/>
			<path class="st1" d="M214.8,569.6c0-1.1,1.2-1.5,2.4-1.5h0.7v-0.3c0-0.7-0.3-1.1-1-1.1c-0.6,0-1,0.3-1.1,0.8H215
				c0.1-1.1,1-1.5,1.9-1.5c0.9,0,1.7,0.4,1.7,1.7v3.1h-0.7v-0.6c-0.4,0.4-0.8,0.7-1.5,0.7C215.5,571,214.8,570.5,214.8,569.6z
				 M217.9,569.2v-0.6h-0.6c-0.9,0-1.6,0.2-1.6,0.9c0,0.5,0.2,0.8,0.9,0.8C217.3,570.4,217.9,570,217.9,569.2z"/>
			<path class="st1" d="M219.6,569.4h0.7c0.1,0.6,0.4,0.9,1.1,0.9c0.7,0,1-0.2,1-0.7c0-0.5-0.4-0.7-1.1-0.8
				c-1.2-0.2-1.6-0.6-1.6-1.4c0-0.9,0.9-1.3,1.6-1.3c0.8,0,1.6,0.3,1.7,1.4h-0.7c-0.1-0.5-0.4-0.7-1-0.7c-0.5,0-0.9,0.3-0.9,0.7
				c0,0.4,0.2,0.6,1.1,0.7c1,0.2,1.7,0.4,1.7,1.4c0,0.9-0.6,1.4-1.7,1.4C220.3,571,219.6,570.4,219.6,569.4z"/>
			<path class="st1" d="M223.8,568.6L223.8,568.6c0-1.5,0.9-2.5,2.2-2.5c1.1,0,2.1,0.7,2.1,2.3v0.2h-3.5c0,1.1,0.5,1.7,1.5,1.7
				c0.7,0,1.2-0.3,1.3-0.8h0.7c-0.2,0.9-0.9,1.4-2,1.4C224.7,571,223.8,570,223.8,568.6z M227.3,568.1c-0.1-1-0.6-1.4-1.3-1.4
				c-0.8,0-1.3,0.5-1.4,1.4H227.3z"/>
			<path class="st1" d="M228.8,568.6L228.8,568.6c0-1.5,0.9-2.5,2.2-2.5c0.8,0,1.3,0.4,1.5,0.8v-3h0.7v7h-0.7v-0.8
				c-0.3,0.5-0.9,0.9-1.6,0.9C229.6,571,228.8,570.1,228.8,568.6z M232.5,568.5L232.5,568.5c0-1.3-0.6-1.8-1.5-1.8
				c-0.9,0-1.5,0.7-1.5,1.8v0.1c0,1.2,0.6,1.8,1.4,1.8C231.8,570.3,232.5,569.8,232.5,568.5z"/>
			<path class="st1" d="M236.5,568.6L236.5,568.6c0-1.5,1-2.5,2.3-2.5c1.3,0,2.3,1,2.3,2.4v0.1c0,1.4-1,2.4-2.3,2.4
				C237.5,571,236.5,569.9,236.5,568.6z M240.4,568.6L240.4,568.6c0-1.2-0.6-1.9-1.5-1.9c-0.9,0-1.5,0.7-1.5,1.8v0.1
				c0,1.1,0.6,1.8,1.5,1.8C239.8,570.3,240.4,569.6,240.4,568.6z"/>
			<path class="st1" d="M242.2,566.2h0.7v0.7c0.2-0.4,0.7-0.8,1.5-0.8c1,0,1.7,0.5,1.7,1.9v2.9h-0.7v-2.9c0-0.8-0.4-1.2-1.1-1.2
				c-0.7,0-1.3,0.4-1.3,1.3v2.9h-0.7V566.2z"/>
			<path class="st1" d="M249.3,568.6L249.3,568.6c0-1.5,1-2.5,2.3-2.5c1,0,1.9,0.5,2,1.6h-0.7c-0.1-0.7-0.7-1-1.3-1
				c-0.9,0-1.5,0.7-1.5,1.8v0.1c0,1.2,0.6,1.8,1.5,1.8c0.7,0,1.3-0.4,1.3-1.2h0.7c-0.1,1-0.9,1.8-2.1,1.8
				C250.3,571,249.3,570,249.3,568.6z"/>
			<path class="st1" d="M254.3,568.6L254.3,568.6c0-1.5,1-2.5,2.3-2.5s2.3,1,2.3,2.4v0.1c0,1.4-1,2.4-2.3,2.4
				C255.3,571,254.3,569.9,254.3,568.6z M258.2,568.6L258.2,568.6c0-1.2-0.6-1.9-1.5-1.9c-0.9,0-1.5,0.7-1.5,1.8v0.1
				c0,1.1,0.6,1.8,1.5,1.8C257.6,570.3,258.2,569.6,258.2,568.6z"/>
			<path class="st1" d="M259.6,569.4h0.7c0.1,0.6,0.3,0.9,1.1,0.9c0.7,0,1-0.2,1-0.7c0-0.5-0.4-0.7-1.1-0.8
				c-1.2-0.2-1.6-0.6-1.6-1.4c0-0.9,0.9-1.3,1.6-1.3c0.8,0,1.6,0.3,1.7,1.4h-0.7c-0.1-0.5-0.4-0.7-1-0.7c-0.5,0-0.9,0.3-0.9,0.7
				c0,0.4,0.2,0.6,1.1,0.7c1,0.2,1.7,0.4,1.7,1.4c0,0.9-0.6,1.4-1.7,1.4C260.3,571,259.6,570.4,259.6,569.4z"/>
			<path class="st1" d="M264.3,569.7v-2.9h-0.7v-0.6h0.7v-1.1h0.7v1.1h1.1v0.6h-1.1v2.8c0,0.5,0.2,0.7,0.6,0.7c0.2,0,0.4,0,0.6-0.1
				v0.6c-0.2,0.1-0.3,0.1-0.6,0.1C264.7,570.9,264.3,570.4,264.3,569.7z"/>
			<path class="st1" d="M269.6,566.8h-0.7v-0.6h0.7v-0.8c0-1,0.5-1.5,1.4-1.5c0.2,0,0.4,0,0.6,0.1v0.6c-0.1-0.1-0.3-0.1-0.5-0.1
				c-0.5,0-0.7,0.3-0.7,0.8v0.8h1.2v0.6h-1.2v4.1h-0.7V566.8z"/>
			<path class="st1" d="M271.9,568.6L271.9,568.6c0-1.5,1-2.5,2.3-2.5s2.3,1,2.3,2.4v0.1c0,1.4-1,2.4-2.3,2.4
				S271.9,569.9,271.9,568.6z M275.7,568.6L275.7,568.6c0-1.2-0.6-1.9-1.5-1.9c-0.9,0-1.5,0.7-1.5,1.8v0.1c0,1.1,0.6,1.8,1.5,1.8
				C275.1,570.3,275.7,569.6,275.7,568.6z"/>
			<path class="st1" d="M277.5,566.2h0.7v0.8c0.3-0.5,0.7-0.9,1.5-0.9v0.7c-0.9,0-1.5,0.3-1.5,1.5v2.6h-0.7V566.2z"/>
			<path class="st1" d="M165.3,575.8h-0.7v-0.6h0.7v-0.8c0-1,0.5-1.5,1.4-1.5c0.2,0,0.4,0,0.6,0.1v0.6c-0.1-0.1-0.3-0.1-0.5-0.1
				c-0.5,0-0.7,0.3-0.7,0.8v0.8h1.2v0.6H166v4.1h-0.7V575.8z"/>
			<path class="st1" d="M167.5,577.6L167.5,577.6c0-1.5,0.9-2.5,2.2-2.5c1.1,0,2.1,0.7,2.1,2.3v0.2h-3.5c0,1.1,0.5,1.7,1.5,1.7
				c0.7,0,1.2-0.3,1.3-0.8h0.7c-0.2,0.9-0.9,1.4-2,1.4C168.5,580,167.5,579,167.5,577.6z M171.1,577.1c-0.1-1-0.6-1.4-1.3-1.4
				c-0.8,0-1.3,0.5-1.4,1.4H171.1z"/>
			<path class="st1" d="M172.5,577.6L172.5,577.6c0-1.5,0.9-2.5,2.2-2.5c0.8,0,1.3,0.4,1.5,0.8v-3h0.7v7h-0.7v-0.8
				c-0.3,0.5-0.9,0.9-1.6,0.9C173.4,580,172.5,579.1,172.5,577.6z M176.3,577.5L176.3,577.5c0-1.3-0.6-1.8-1.5-1.8
				c-0.9,0-1.5,0.7-1.5,1.8v0.1c0,1.2,0.6,1.8,1.4,1.8C175.6,579.3,176.3,578.8,176.3,577.5z"/>
			<path class="st1" d="M178,577.6L178,577.6c0-1.5,0.9-2.5,2.2-2.5c1.1,0,2.1,0.7,2.1,2.3v0.2h-3.5c0,1.1,0.5,1.7,1.5,1.7
				c0.7,0,1.2-0.3,1.3-0.8h0.7c-0.2,0.9-0.9,1.4-2,1.4C179,580,178,579,178,577.6z M181.6,577.1c-0.1-1-0.6-1.4-1.4-1.4
				c-0.8,0-1.3,0.5-1.4,1.4H181.6z"/>
			<path class="st1" d="M183.3,575.2h0.7v0.8c0.3-0.5,0.7-0.9,1.5-0.9v0.7c-0.9,0-1.5,0.3-1.5,1.5v2.6h-0.7V575.2z"/>
			<path class="st1" d="M186.2,578.6c0-1.1,1.2-1.5,2.4-1.5h0.7v-0.3c0-0.7-0.3-1.1-1-1.1c-0.6,0-1,0.3-1.1,0.8h-0.7
				c0.1-1.1,1-1.5,1.9-1.5c0.9,0,1.7,0.4,1.7,1.7v3.1h-0.7v-0.6c-0.4,0.4-0.8,0.7-1.5,0.7C186.9,580,186.2,579.5,186.2,578.6z
				 M189.2,578.2v-0.6h-0.6c-0.9,0-1.6,0.2-1.6,0.9c0,0.5,0.2,0.8,0.9,0.8C188.6,579.4,189.2,579,189.2,578.2z"/>
			<path class="st1" d="M191.3,572.9h0.8v7h-0.8V572.9z"/>
			<path class="st1" d="M195.3,578.6c0-1.1,1.2-1.5,2.4-1.5h0.7v-0.3c0-0.7-0.3-1.1-1-1.1c-0.6,0-1,0.3-1.1,0.8h-0.7
				c0.1-1.1,1-1.5,1.9-1.5c0.9,0,1.7,0.4,1.7,1.7v3.1h-0.7v-0.6c-0.4,0.4-0.8,0.7-1.5,0.7C196,580,195.3,579.5,195.3,578.6z
				 M198.3,578.2v-0.6h-0.6c-0.9,0-1.6,0.2-1.6,0.9c0,0.5,0.2,0.8,0.9,0.8C197.7,579.4,198.3,579,198.3,578.2z"/>
			<path class="st1" d="M200.4,575.2h0.7v0.7c0.2-0.4,0.7-0.8,1.5-0.8c1,0,1.7,0.5,1.7,1.9v2.9h-0.7v-2.9c0-0.8-0.4-1.2-1.1-1.2
				c-0.7,0-1.3,0.4-1.3,1.3v2.9h-0.7V575.2z"/>
			<path class="st1" d="M205.3,577.6L205.3,577.6c0-1.5,0.9-2.5,2.2-2.5c0.8,0,1.3,0.4,1.5,0.8v-3h0.7v7H209v-0.8
				c-0.3,0.5-0.9,0.9-1.6,0.9C206.2,580,205.3,579.1,205.3,577.6z M209.1,577.5L209.1,577.5c0-1.3-0.6-1.8-1.5-1.8
				c-0.9,0-1.5,0.7-1.5,1.8v0.1c0,1.2,0.6,1.8,1.4,1.8C208.4,579.3,209.1,578.8,209.1,577.5z"/>
			<path class="st1" d="M213.1,577.6L213.1,577.6c0-1.5,1-2.5,2.3-2.5s2.3,1,2.3,2.4v0.1c0,1.4-1,2.4-2.3,2.4
				S213.1,578.9,213.1,577.6z M216.9,577.6L216.9,577.6c0-1.2-0.6-1.9-1.5-1.9c-0.9,0-1.5,0.7-1.5,1.8v0.1c0,1.1,0.6,1.8,1.5,1.8
				C216.3,579.3,216.9,578.6,216.9,577.6z"/>
			<path class="st1" d="M218.7,575.2h0.7v0.7c0.2-0.4,0.7-0.8,1.5-0.8c1,0,1.7,0.5,1.7,1.9v2.9h-0.7v-2.9c0-0.8-0.4-1.2-1.1-1.2
				c-0.7,0-1.3,0.4-1.3,1.3v2.9h-0.7V575.2z"/>
			<path class="st1" d="M223.6,577.6L223.6,577.6c0-1.5,0.9-2.5,2.2-2.5c1.1,0,2.1,0.7,2.1,2.3v0.2h-3.5c0,1.1,0.5,1.7,1.5,1.7
				c0.7,0,1.2-0.3,1.3-0.8h0.7c-0.2,0.9-0.9,1.4-2,1.4C224.6,580,223.6,579,223.6,577.6z M227.2,577.1c-0.1-1-0.6-1.4-1.3-1.4
				c-0.8,0-1.3,0.5-1.4,1.4H227.2z"/>
			<path class="st1" d="M230.8,578.4h0.7c0.1,0.6,0.4,0.9,1.1,0.9c0.7,0,1-0.2,1-0.7c0-0.5-0.4-0.7-1.1-0.8
				c-1.2-0.2-1.6-0.6-1.6-1.4c0-0.9,0.9-1.3,1.6-1.3c0.8,0,1.6,0.3,1.7,1.4h-0.7c-0.1-0.5-0.4-0.7-1-0.7c-0.5,0-0.9,0.3-0.9,0.7
				c0,0.4,0.2,0.6,1.1,0.7c1,0.2,1.7,0.4,1.7,1.4c0,0.9-0.6,1.4-1.7,1.4C231.5,580,230.9,579.4,230.8,578.4z"/>
			<path class="st1" d="M235.5,578.7v-2.9h-0.7v-0.6h0.7v-1.1h0.7v1.1h1.1v0.6h-1.1v2.8c0,0.5,0.2,0.7,0.6,0.7c0.2,0,0.4,0,0.6-0.1
				v0.6c-0.2,0.1-0.3,0.1-0.6,0.1C236,579.9,235.5,579.4,235.5,578.7z"/>
			<path class="st1" d="M238.1,578.6c0-1.1,1.2-1.5,2.4-1.5h0.7v-0.3c0-0.7-0.3-1.1-1-1.1c-0.6,0-1,0.3-1.1,0.8h-0.7
				c0.1-1.1,1-1.5,1.9-1.5c0.9,0,1.7,0.4,1.7,1.7v3.1h-0.7v-0.6c-0.4,0.4-0.8,0.7-1.5,0.7C238.8,580,238.1,579.5,238.1,578.6z
				 M241.1,578.2v-0.6h-0.6c-0.9,0-1.6,0.2-1.6,0.9c0,0.5,0.2,0.8,0.9,0.8C240.5,579.4,241.1,579,241.1,578.2z"/>
			<path class="st1" d="M243.4,578.7v-2.9h-0.7v-0.6h0.7v-1.1h0.7v1.1h1.1v0.6h-1.1v2.8c0,0.5,0.2,0.7,0.6,0.7c0.2,0,0.4,0,0.6-0.1
				v0.6c-0.2,0.1-0.3,0.1-0.6,0.1C243.8,579.9,243.4,579.4,243.4,578.7z"/>
			<path class="st1" d="M245.9,577.6L245.9,577.6c0-1.5,0.9-2.5,2.2-2.5c1.1,0,2.1,0.7,2.1,2.3v0.2h-3.5c0,1.1,0.5,1.7,1.5,1.7
				c0.7,0,1.2-0.3,1.3-0.8h0.7c-0.2,0.9-0.9,1.4-2,1.4C246.9,580,245.9,579,245.9,577.6z M249.5,577.1c-0.1-1-0.6-1.4-1.4-1.4
				c-0.8,0-1.3,0.5-1.4,1.4H249.5z"/>
			<path class="st1" d="M253.5,575.2h0.7v0.8c0.3-0.5,0.7-0.9,1.5-0.9v0.7c-0.9,0-1.5,0.3-1.5,1.5v2.6h-0.7V575.2z"/>
			<path class="st1" d="M256.3,577.6L256.3,577.6c0-1.5,0.9-2.5,2.2-2.5c1.1,0,2.1,0.7,2.1,2.3v0.2H257c0,1.1,0.5,1.7,1.5,1.7
				c0.7,0,1.2-0.3,1.3-0.8h0.7c-0.2,0.9-0.9,1.4-2,1.4C257.2,580,256.3,579,256.3,577.6z M259.8,577.1c-0.1-1-0.6-1.4-1.3-1.4
				c-0.8,0-1.3,0.5-1.4,1.4H259.8z"/>
			<path class="st1" d="M261.7,578.7v-2.9h-0.7v-0.6h0.7v-1.1h0.7v1.1h1.1v0.6h-1.1v2.8c0,0.5,0.2,0.7,0.6,0.7c0.2,0,0.4,0,0.6-0.1
				v0.6c-0.2,0.1-0.3,0.1-0.6,0.1C262.2,579.9,261.7,579.4,261.7,578.7z"/>
			<path class="st1" d="M264.6,578.1v-3h0.7v2.9c0,0.8,0.4,1.2,1.1,1.2c0.7,0,1.3-0.4,1.3-1.3v-2.9h0.7v4.7h-0.7v-0.7
				c-0.2,0.4-0.7,0.8-1.5,0.8C265.3,580,264.6,579.4,264.6,578.1z"/>
			<path class="st1" d="M269.9,575.2h0.7v0.8c0.3-0.5,0.7-0.9,1.5-0.9v0.7c-0.9,0-1.5,0.3-1.5,1.5v2.6h-0.7V575.2z"/>
			<path class="st1" d="M273.1,575.2h0.7v0.7c0.2-0.4,0.7-0.8,1.5-0.8c1,0,1.7,0.5,1.7,1.9v2.9h-0.7v-2.9c0-0.8-0.4-1.2-1.1-1.2
				c-0.7,0-1.3,0.4-1.3,1.3v2.9h-0.7V575.2z"/>
			<path class="st1" d="M278.3,579.3c0-0.3,0.3-0.6,0.6-0.6c0.3,0,0.6,0.3,0.6,0.6s-0.3,0.6-0.6,0.6
				C278.6,579.9,278.3,579.7,278.3,579.3z"/>
		</g>
		<g id="Switch_from_TurboTax._Save_up_to">
			<path class="st1" d="M21,66.6h8.4c0.2,2.2,1.2,4,4.9,4c2.5,0,4-1.2,4-3s-1.2-2.4-4.8-3c-8.7-1-11.6-3.6-11.6-9.8
				c0-5.5,4.6-9.6,11.9-9.6s11.5,3.1,12.1,9.6h-8.2c-0.3-2.2-1.5-3.3-4-3.3S30,52.6,30,54.1c0,1.7,1,2.5,4.8,3
				c7.8,0.9,11.8,2.9,11.8,9.5c0,5.6-4.5,10.2-12.4,10.2C25.6,76.9,21.3,73.3,21,66.6z"/>
			<path class="st1" d="M47.2,53.9h8l3.3,13.4l3.8-13.4h6.2l3.3,13.4l3.7-13.4h7.3l-7.1,22.5h-7.3L65,63.8l-3.5,12.5H54L47.2,53.9z"
				/>
			<path class="st1" d="M84.6,47.8c0-2.2,1.8-4,4-4c0.1,0,0.1,0,0.2,0c2.2-0.2,4.2,1.3,4.4,3.5c0.2,2.2-1.3,4.2-3.5,4.4
				c-0.3,0-0.6,0-0.9,0c-2.2,0.1-4.1-1.6-4.2-3.8C84.6,47.9,84.6,47.8,84.6,47.8z M85,53.9h7.7v22.5H85L85,53.9z"/>
			<path class="st1" d="M97.8,69.1v-10h-2.7v-5.2h2.7v-4.7h7.7v4.7h4.4v5.2h-4.4v9.3c0,1.6,0.8,2.4,2.3,2.4c0.7,0,1.5-0.1,2.2-0.4
				v5.8c-1.4,0.4-2.8,0.6-4.3,0.7C100.7,76.9,97.8,74.4,97.8,69.1z"/>
			<path class="st1" d="M111.7,65.4V65c0-7.5,5.4-11.8,12-11.8c5.5,0,10.6,2.4,11,9.2h-7.2c-0.3-2.1-1.4-3.3-3.6-3.3
				c-2.7,0-4.3,1.9-4.3,5.7v0.3c0,3.9,1.5,5.9,4.4,5.9c2.2,0,3.7-1.3,3.9-3.7h6.9c-0.2,5.7-4,9.4-11.3,9.4
				C116.8,76.9,111.7,73,111.7,65.4z"/>
			<path class="st1" d="M137.3,44h7.7v13.5c1.4-2.7,4.3-4.4,7.4-4.2c4.3,0,7.3,2.7,7.3,8.5v14.6H152V63.3c0-2.5-1-3.8-3.2-3.8
				s-3.8,1.4-3.8,4.3v12.6h-7.7L137.3,44z"/>
			<path class="st1" d="M172.4,59.1h-2.8v-5.2h2.8v-2c0-5.6,3.5-8.3,8.8-8.3c1.2,0,2.4,0.2,3.5,0.5v5.6c-0.7-0.2-1.4-0.3-2.1-0.3
				c-1.2-0.2-2.4,0.6-2.6,1.9c0,0.2,0,0.4,0,0.6v2h4.6v5.2H180v17.2h-7.6L172.4,59.1z"/>
			<path class="st1" d="M187.2,53.9h7.7v4.5c1-3.1,4-5,7.3-4.8v7.2c-4.7-0.1-7.3,1.3-7.3,4.9v10.6h-7.7V53.9z"/>
			<path class="st1" d="M203.5,65.4V65c0-7.2,5.4-11.8,12.3-11.8s12.2,4.4,12.2,11.6v0.3c0,7.3-5.4,11.7-12.3,11.7
				S203.5,72.7,203.5,65.4z M220.2,65.3v-0.3c0-3.8-1.5-5.9-4.4-5.9s-4.5,2-4.5,5.8v0.3c0,3.9,1.5,6,4.5,6S220.2,69,220.2,65.3z"/>
			<path class="st1" d="M230.8,53.9h7.7v3.4c1.4-2.5,4.1-4.1,7.1-4c2.6-0.2,5.1,1.3,6.1,3.7c1.7-2.4,4.5-3.8,7.4-3.8
				c4.3,0,7.3,2.8,7.3,8.4v14.7h-7.7V62.9c0-2.3-1.1-3.4-2.9-3.4c-2.1,0-3.4,1.3-3.4,3.8v13h-7.6V62.9c0-2.3-1.1-3.4-2.9-3.4
				c-2.1,0-3.4,1.3-3.4,3.8v13h-7.7L230.8,53.9z"/>
			<path class="st1" d="M28.9,99.4h-8v-6.8h24.8v6.8h-7.9v23.9h-8.9V99.4z"/>
			<path class="st1" d="M46.3,115.5v-14.6H54v13.4c0,2.5,1,3.8,3.2,3.8s3.8-1.4,3.8-4.3v-12.9h7.7v22.5H61v-3.5
				c-1.2,2.3-3.4,4-7.1,4C49.5,123.8,46.3,121.1,46.3,115.5z"/>
			<path class="st1" d="M72.6,100.8h7.7v4.5c1-3.1,4-5,7.3-4.8v7.2c-4.7-0.1-7.3,1.3-7.3,4.9v10.7h-7.7V100.8z"/>
			<path class="st1" d="M98,119.8v3.5h-7.7V91H98v13.2c1.4-2.5,4.1-4,7-4c5.2,0,9.5,4,9.5,11.6v0.3c0,7.7-4.3,11.6-9.5,11.6
				C101.7,123.8,99.2,122.2,98,119.8z M106.7,112.2v-0.3c0-4-1.7-5.8-4.4-5.8s-4.5,2-4.5,5.8v0.3c0,3.8,1.7,5.8,4.5,5.8
				S106.7,115.9,106.7,112.2L106.7,112.2z"/>
			<path class="st1" d="M116.1,112.3V112c0-7.2,5.4-11.8,12.3-11.8s12.2,4.4,12.2,11.6v0.3c0,7.3-5.4,11.7-12.3,11.7
				S116.1,119.6,116.1,112.3z M132.9,112.2v-0.3c0-3.8-1.5-5.9-4.4-5.9s-4.5,2-4.5,5.8v0.3c0,3.9,1.5,6,4.5,6
				C131.4,118.1,132.9,116,132.9,112.2z"/>
			<path class="st1" d="M150,99.4h-8v-6.8h24.7v6.8h-7.9v23.9H150V99.4z"/>
			<path class="st1" d="M165.2,117.1c0-5.3,4.5-7.3,11.9-7.3h2.1v-0.5c0-2.2-0.5-3.6-3-3.6c-1.5-0.2-2.9,0.9-3,2.4
				c0,0.1,0,0.2,0,0.2H166c0.4-5.4,4.6-8.1,10.7-8.1s10.1,2.5,10.1,8.5v14.6h-7.5v-2.6c-1.1,1.6-3.1,3.1-6.6,3.1
				C168.8,123.8,165.2,121.8,165.2,117.1z M179.3,115.4v-1.4h-2c-3.1,0-4.5,0.6-4.5,2.4c0,1.3,0.9,2.1,2.7,2.1
				C177.7,118.6,179.3,117.4,179.3,115.4z"/>
			<path class="st1" d="M196.4,111.9l-7-11h8.9l3.5,5.9l3.4-5.9h7.9l-7.1,10.4l7.8,12h-8.9l-4-6.7l-4.1,6.7h-7.9L196.4,111.9z"/>
			<path class="st1" d="M215.2,119.4c0-2.4,1.9-4.3,4.2-4.3c0.1,0,0.1,0,0.2,0c2.4-0.1,4.4,1.7,4.5,4.1s-1.7,4.4-4.1,4.5
				c-0.1,0-0.3,0-0.4,0c-2.4,0.1-4.3-1.8-4.4-4.2C215.2,119.5,215.2,119.5,215.2,119.4z"/>
			<path class="st1" d="M21,160.5h8.4c0.2,2.2,1.2,4,4.9,4c2.5,0,4-1.3,4-3.1s-1.2-2.4-4.8-3c-8.7-1-11.6-3.6-11.6-9.8
				c0-5.5,4.6-9.6,11.9-9.6s11.5,3.1,12.1,9.6h-8.2c-0.3-2.2-1.5-3.3-4-3.3S30,146.4,30,148c0,1.7,1,2.5,4.8,3
				c7.8,0.9,11.8,2.9,11.8,9.5c0,5.6-4.5,10.2-12.4,10.2C25.6,170.8,21.3,167.1,21,160.5z"/>
			<path class="st1" d="M48.1,164c0-5.3,4.5-7.3,11.9-7.3h2.2v-0.5c0-2.1-0.5-3.6-3-3.6c-1.5-0.1-2.9,1-3,2.5c0,0.1,0,0.1,0,0.2H49
				c0.3-5.4,4.6-8.1,10.7-8.1s10.1,2.5,10.1,8.5v14.6h-7.5v-2.6c-1.1,1.6-3,3.1-6.7,3.1C51.7,170.8,48.1,168.8,48.1,164z
				 M62.2,162.4V161h-2c-3.1,0-4.5,0.6-4.5,2.4c0,1.3,0.9,2.1,2.7,2.1C60.6,165.6,62.2,164.3,62.2,162.4L62.2,162.4z"/>
			<path class="st1" d="M71,147.8h8.2l4.7,14.5l4.6-14.5h7.3l-8.2,22.5h-8.4L71,147.8z"/>
			<path class="st1" d="M95.4,159.3v-0.4c0-7.2,5.4-11.8,12.2-11.8c6.1,0,11.4,3.5,11.4,11.6v2h-15.8c0.2,3,1.9,4.7,4.7,4.7
				c2.5,0,3.6-1.2,3.9-2.7h7.3c-0.7,5.1-4.6,7.9-11.4,7.9C100.5,170.8,95.4,166.6,95.4,159.3z M111.5,156.4c-0.1-2.7-1.5-4.2-4-4.2
				c-2.3,0-3.9,1.5-4.3,4.2H111.5z"/>
			<path class="st1" d="M129.3,162.4v-14.6h7.7v13.4c0,2.5,1,3.8,3.2,3.8s3.8-1.4,3.8-4.3v-12.9h7.7v22.5H144v-3.5
				c-1.2,2.3-3.4,4-7.1,4C132.5,170.8,129.3,168.1,129.3,162.4z"/>
			<path class="st1" d="M155.6,147.8h7.7v3.4c1.4-2.5,4.1-4,7-4c5.2,0,9.5,4,9.5,11.6v0.3c0,7.7-4.3,11.6-9.5,11.6
				c-3.4,0-5.8-1.6-6.9-3.8v10.8h-7.7L155.6,147.8z M171.9,159.2v-0.3c0-4-1.7-5.9-4.4-5.9s-4.5,2-4.5,5.8v0.4
				c0,3.8,1.7,5.8,4.5,5.8S171.9,162.9,171.9,159.2z"/>
			<path class="st1" d="M191.4,163v-10h-2.7v-5.2h2.7v-4.7h7.7v4.7h4.4v5.2h-4.4v9.3c0,1.6,0.8,2.4,2.3,2.4c0.7,0,1.5-0.1,2.2-0.4
				v5.8c-1.4,0.4-2.8,0.6-4.3,0.6C194.2,170.8,191.4,168.3,191.4,163z"/>
			<path class="st1" d="M205.2,159.3v-0.4c0-7.2,5.4-11.8,12.3-11.8s12.3,4.4,12.3,11.6v0.3c0,7.3-5.4,11.7-12.3,11.7
				S205.2,166.6,205.2,159.3z M221.9,159.2v-0.3c0-3.8-1.5-5.9-4.4-5.9s-4.5,2-4.5,5.8v0.3c0,3.9,1.5,6,4.5,6S222,162.9,221.9,159.2
				L221.9,159.2z"/>
		</g>
	</g>
</g>
</svg>
