<?xml version="1.0" encoding="utf-8"?>
<!-- Generator: Adobe Illustrator 24.0.2, SVG Export Plug-In . SVG Version: 6.00 Build 0)  -->
<svg version="1.1" id="Layer_1" xmlns="http://www.w3.org/2000/svg" xmlns:xlink="http://www.w3.org/1999/xlink" x="0px" y="0px"
	 viewBox="0 0 300 600" style="enable-background:new 0 0 300 600;" xml:space="preserve">
<style type="text/css">
	.st0{fill:none;}
	.st1{fill:#14AA40;}
</style>
<title>txt</title>
<g id="Layer_2_1_">
	<g id="Headline1">
		<g id="Rect">
			<rect class="st0" width="300" height="600"/>
		</g>
		<g id="legal">
			<path class="st1" d="M157.5,562.2c0.4-0.1,0.9-0.1,1.5-0.1c0.8,0,1.3,0.2,1.7,0.5c0.3,0.3,0.5,0.7,0.5,1.3c0,0.5-0.2,1-0.5,1.3
				c-0.4,0.4-1.1,0.7-1.9,0.7c-0.2,0-0.4,0-0.6-0.1v2.4h-0.8V562.2z M158.3,565.1c0.2,0,0.4,0.1,0.6,0.1c0.9,0,1.5-0.5,1.5-1.3
				c0-0.8-0.6-1.2-1.4-1.2c-0.3,0-0.6,0-0.7,0.1V565.1z"/>
			<path class="st1" d="M162.1,565.2c0-0.5,0-1,0-1.4h0.7l0,0.9h0c0.2-0.6,0.7-1,1.2-1c0.1,0,0.2,0,0.2,0v0.7c-0.1,0-0.2,0-0.3,0
				c-0.6,0-1,0.4-1.1,1c0,0.1,0,0.2,0,0.4v2.3h-0.8V565.2z"/>
			<path class="st1" d="M166,562.6c0,0.3-0.2,0.5-0.5,0.5c-0.3,0-0.5-0.2-0.5-0.5c0-0.3,0.2-0.5,0.5-0.5
				C165.8,562.1,166,562.3,166,562.6z M165.1,568.1v-4.4h0.8v4.4H165.1z"/>
			<path class="st1" d="M170.3,568c-0.2,0.1-0.7,0.3-1.3,0.3c-1.3,0-2.2-0.9-2.2-2.2c0-1.3,0.9-2.3,2.3-2.3c0.5,0,0.9,0.1,1.1,0.2
				l-0.2,0.6c-0.2-0.1-0.5-0.2-0.9-0.2c-1,0-1.5,0.7-1.5,1.6c0,1,0.6,1.6,1.5,1.6c0.5,0,0.7-0.1,1-0.2L170.3,568z"/>
			<path class="st1" d="M171.6,566.1c0,1.1,0.7,1.5,1.5,1.5c0.6,0,0.9-0.1,1.2-0.2l0.1,0.6c-0.3,0.1-0.8,0.3-1.4,0.3
				c-1.3,0-2.1-0.9-2.1-2.2s0.8-2.3,2-2.3c1.4,0,1.8,1.3,1.8,2.1c0,0.2,0,0.3,0,0.4H171.6z M173.9,565.5c0-0.5-0.2-1.3-1.1-1.3
				c-0.8,0-1.2,0.7-1.2,1.3H173.9z"/>
			<path class="st1" d="M181.4,561.8v5.3c0,0.4,0,0.8,0,1.1h-0.7l0-0.8h0c-0.2,0.5-0.8,0.9-1.5,0.9c-1.1,0-1.9-0.9-1.9-2.2
				c0-1.5,0.9-2.3,2-2.3c0.7,0,1.1,0.3,1.3,0.7h0v-2.6H181.4z M180.6,565.6c0-0.1,0-0.2,0-0.3c-0.1-0.5-0.5-0.9-1.1-0.9
				c-0.8,0-1.3,0.7-1.3,1.7c0,0.9,0.4,1.6,1.3,1.6c0.5,0,1-0.4,1.2-0.9c0-0.1,0-0.2,0-0.3V565.6z"/>
			<path class="st1" d="M183.6,562.6c0,0.3-0.2,0.5-0.5,0.5c-0.3,0-0.5-0.2-0.5-0.5c0-0.3,0.2-0.5,0.5-0.5
				C183.4,562.1,183.6,562.3,183.6,562.6z M182.7,568.1v-4.4h0.8v4.4H182.7z"/>
			<path class="st1" d="M187.5,568.1v-3.8h-1.8v3.8h-0.8v-3.8h-0.6v-0.6h0.6v-0.1c0-0.6,0.1-1.1,0.5-1.5c0.3-0.3,0.6-0.4,1.1-0.4
				c0.3,0,0.5,0.1,0.6,0.2l-0.2,0.6c-0.1-0.1-0.3-0.1-0.5-0.1c-0.6,0-0.8,0.5-0.8,1.2v0.2h1.8v-0.2c0-0.6,0.1-1.2,0.5-1.5
				c0.3-0.3,0.7-0.4,1.1-0.4c0.3,0,0.5,0.1,0.7,0.1l-0.1,0.6c-0.1-0.1-0.3-0.1-0.5-0.1c-0.7,0-0.8,0.6-0.8,1.3v0.2h1.1v0.6h-1v3.8
				H187.5z"/>
			<path class="st1" d="M190.4,566.1c0,1.1,0.7,1.5,1.5,1.5c0.6,0,0.9-0.1,1.2-0.2l0.1,0.6c-0.3,0.1-0.8,0.3-1.4,0.3
				c-1.3,0-2.1-0.9-2.1-2.2s0.8-2.3,2-2.3c1.4,0,1.8,1.3,1.8,2.1c0,0.2,0,0.3,0,0.4H190.4z M192.7,565.5c0-0.5-0.2-1.3-1.1-1.3
				c-0.8,0-1.2,0.7-1.2,1.3H192.7z"/>
			<path class="st1" d="M194.4,565.2c0-0.5,0-1,0-1.4h0.7l0,0.9h0c0.2-0.6,0.7-1,1.2-1c0.1,0,0.2,0,0.2,0v0.7c-0.1,0-0.2,0-0.3,0
				c-0.6,0-1,0.4-1.1,1c0,0.1,0,0.2,0,0.4v2.3h-0.8V565.2z"/>
			<path class="st1" d="M197.7,566.1c0,1.1,0.7,1.5,1.5,1.5c0.6,0,0.9-0.1,1.2-0.2l0.1,0.6c-0.3,0.1-0.8,0.3-1.4,0.3
				c-1.3,0-2.1-0.9-2.1-2.2s0.8-2.3,2-2.3c1.4,0,1.8,1.3,1.8,2.1c0,0.2,0,0.3,0,0.4H197.7z M200,565.5c0-0.5-0.2-1.3-1.1-1.3
				c-0.8,0-1.2,0.7-1.2,1.3H200z"/>
			<path class="st1" d="M201.8,565c0-0.5,0-0.8,0-1.2h0.7l0,0.7h0c0.2-0.4,0.7-0.8,1.4-0.8c0.6,0,1.5,0.4,1.5,1.9v2.6h-0.8v-2.5
				c0-0.7-0.3-1.3-1-1.3c-0.5,0-0.9,0.4-1.1,0.8c0,0.1-0.1,0.2-0.1,0.4v2.6h-0.8V565z"/>
			<path class="st1" d="M209.9,568c-0.2,0.1-0.7,0.3-1.3,0.3c-1.3,0-2.2-0.9-2.2-2.2c0-1.3,0.9-2.3,2.3-2.3c0.5,0,0.9,0.1,1.1,0.2
				l-0.2,0.6c-0.2-0.1-0.5-0.2-0.9-0.2c-1,0-1.5,0.7-1.5,1.6c0,1,0.6,1.6,1.5,1.6c0.5,0,0.7-0.1,1-0.2L209.9,568z"/>
			<path class="st1" d="M211.2,566.1c0,1.1,0.7,1.5,1.5,1.5c0.6,0,0.9-0.1,1.2-0.2l0.1,0.6c-0.3,0.1-0.8,0.3-1.4,0.3
				c-1.3,0-2.1-0.9-2.1-2.2s0.8-2.3,2-2.3c1.4,0,1.8,1.3,1.8,2.1c0,0.2,0,0.3,0,0.4H211.2z M213.5,565.5c0-0.5-0.2-1.3-1.1-1.3
				c-0.8,0-1.2,0.7-1.2,1.3H213.5z"/>
			<path class="st1" d="M217.1,568.1c0-0.3,0-0.7,0-1.1v-5.3h0.8v2.7h0c0.3-0.5,0.8-0.8,1.5-0.8c1.1,0,1.8,0.9,1.8,2.2
				c0,1.6-1,2.3-2,2.3c-0.6,0-1.1-0.2-1.5-0.8h0l0,0.7H217.1z M218,566.4c0,0.1,0,0.2,0,0.3c0.2,0.5,0.6,0.9,1.2,0.9
				c0.8,0,1.3-0.7,1.3-1.7c0-0.9-0.4-1.6-1.3-1.6c-0.5,0-1,0.4-1.2,1c0,0.1,0,0.2,0,0.3V566.4z"/>
			<path class="st1" d="M224.7,568.1l-0.1-0.5h0c-0.2,0.3-0.7,0.6-1.3,0.6c-0.9,0-1.3-0.6-1.3-1.3c0-1.1,0.9-1.6,2.6-1.6v-0.1
				c0-0.4-0.1-1-1-1c-0.4,0-0.8,0.1-1.1,0.3l-0.2-0.5c0.4-0.2,0.9-0.4,1.4-0.4c1.3,0,1.7,0.9,1.7,1.8v1.6c0,0.4,0,0.7,0.1,1H224.7z
				 M224.6,565.9c-0.9,0-1.8,0.1-1.8,1c0,0.5,0.3,0.8,0.7,0.8c0.6,0,0.9-0.4,1.1-0.7c0-0.1,0-0.2,0-0.3V565.9z"/>
			<path class="st1" d="M226.5,567.3c0.2,0.2,0.6,0.3,1,0.3c0.6,0,0.8-0.3,0.8-0.6c0-0.4-0.2-0.6-0.8-0.8c-0.8-0.3-1.2-0.7-1.2-1.2
				c0-0.7,0.6-1.3,1.5-1.3c0.4,0,0.8,0.1,1.1,0.3l-0.2,0.6c-0.2-0.1-0.5-0.3-0.9-0.3c-0.5,0-0.7,0.3-0.7,0.6c0,0.4,0.3,0.5,0.8,0.7
				c0.8,0.3,1.1,0.7,1.1,1.3c0,0.8-0.6,1.3-1.6,1.3c-0.5,0-0.9-0.1-1.2-0.3L226.5,567.3z"/>
			<path class="st1" d="M230.6,566.1c0,1.1,0.7,1.5,1.5,1.5c0.6,0,0.9-0.1,1.2-0.2l0.1,0.6c-0.3,0.1-0.8,0.3-1.4,0.3
				c-1.3,0-2.1-0.9-2.1-2.2s0.8-2.3,2-2.3c1.4,0,1.8,1.3,1.8,2.1c0,0.2,0,0.3,0,0.4H230.6z M233,565.5c0-0.5-0.2-1.3-1.1-1.3
				c-0.8,0-1.2,0.7-1.2,1.3H233z"/>
			<path class="st1" d="M238.5,561.8v5.3c0,0.4,0,0.8,0,1.1h-0.7l0-0.8h0c-0.2,0.5-0.8,0.9-1.5,0.9c-1.1,0-1.9-0.9-1.9-2.2
				c0-1.5,0.9-2.3,2-2.3c0.7,0,1.1,0.3,1.3,0.7h0v-2.6H238.5z M237.7,565.6c0-0.1,0-0.2,0-0.3c-0.1-0.5-0.5-0.9-1.1-0.9
				c-0.8,0-1.3,0.7-1.3,1.7c0,0.9,0.4,1.6,1.3,1.6c0.5,0,1-0.4,1.2-0.9c0-0.1,0-0.2,0-0.3V565.6z"/>
			<path class="st1" d="M245.6,565.9c0,1.6-1.1,2.3-2.2,2.3c-1.2,0-2.1-0.9-2.1-2.2c0-1.5,1-2.3,2.2-2.3
				C244.8,563.7,245.6,564.6,245.6,565.9z M242.2,566c0,1,0.5,1.7,1.3,1.7c0.8,0,1.3-0.7,1.3-1.7c0-0.7-0.4-1.7-1.3-1.7
				S242.2,565.2,242.2,566z"/>
			<path class="st1" d="M246.6,565c0-0.5,0-0.8,0-1.2h0.7l0,0.7h0c0.2-0.4,0.7-0.8,1.4-0.8c0.6,0,1.5,0.4,1.5,1.9v2.6h-0.8v-2.5
				c0-0.7-0.3-1.3-1-1.3c-0.5,0-0.9,0.4-1.1,0.8c0,0.1-0.1,0.2-0.1,0.4v2.6h-0.8V565z"/>
			<path class="st1" d="M256.6,568c-0.2,0.1-0.7,0.3-1.3,0.3c-1.3,0-2.2-0.9-2.2-2.2c0-1.3,0.9-2.3,2.3-2.3c0.5,0,0.9,0.1,1.1,0.2
				l-0.2,0.6c-0.2-0.1-0.5-0.2-0.9-0.2c-1,0-1.5,0.7-1.5,1.6c0,1,0.6,1.6,1.5,1.6c0.5,0,0.7-0.1,1-0.2L256.6,568z"/>
			<path class="st1" d="M261.5,565.9c0,1.6-1.1,2.3-2.2,2.3c-1.2,0-2.1-0.9-2.1-2.2c0-1.5,1-2.3,2.2-2.3
				C260.6,563.7,261.5,564.6,261.5,565.9z M258,566c0,1,0.5,1.7,1.3,1.7c0.8,0,1.3-0.7,1.3-1.7c0-0.7-0.4-1.7-1.3-1.7
				C258.4,564.3,258,565.2,258,566z"/>
			<path class="st1" d="M262.3,567.3c0.2,0.2,0.6,0.3,1,0.3c0.6,0,0.8-0.3,0.8-0.6c0-0.4-0.2-0.6-0.8-0.8c-0.8-0.3-1.2-0.7-1.2-1.2
				c0-0.7,0.6-1.3,1.5-1.3c0.4,0,0.8,0.1,1.1,0.3l-0.2,0.6c-0.2-0.1-0.5-0.3-0.9-0.3c-0.5,0-0.7,0.3-0.7,0.6c0,0.4,0.3,0.5,0.8,0.7
				c0.8,0.3,1.1,0.7,1.1,1.3c0,0.8-0.6,1.3-1.6,1.3c-0.5,0-0.9-0.1-1.2-0.3L262.3,567.3z"/>
			<path class="st1" d="M267,562.5v1.3h1.1v0.6H267v2.3c0,0.5,0.2,0.8,0.6,0.8c0.2,0,0.4,0,0.5-0.1l0,0.6c-0.2,0.1-0.4,0.1-0.7,0.1
				c-0.4,0-0.7-0.1-0.9-0.3c-0.2-0.2-0.3-0.6-0.3-1.1v-2.4h-0.7v-0.6h0.7v-1L267,562.5z"/>
			<path class="st1" d="M271,568.1v-3.8h-0.6v-0.6h0.6v-0.2c0-0.6,0.1-1.2,0.5-1.5c0.3-0.3,0.7-0.4,1.1-0.4c0.3,0,0.5,0.1,0.7,0.1
				l-0.1,0.6c-0.1-0.1-0.3-0.1-0.5-0.1c-0.7,0-0.8,0.6-0.8,1.3v0.2h1.1v0.6h-1.1v3.8H271z"/>
			<path class="st1" d="M277.4,565.9c0,1.6-1.1,2.3-2.2,2.3c-1.2,0-2.1-0.9-2.1-2.2c0-1.5,1-2.3,2.2-2.3
				C276.5,563.7,277.4,564.6,277.4,565.9z M273.9,566c0,1,0.5,1.7,1.3,1.7c0.8,0,1.3-0.7,1.3-1.7c0-0.7-0.4-1.7-1.3-1.7
				C274.3,564.3,273.9,565.2,273.9,566z"/>
			<path class="st1" d="M278.4,565.2c0-0.5,0-1,0-1.4h0.7l0,0.9h0c0.2-0.6,0.7-1,1.2-1c0.1,0,0.2,0,0.2,0v0.7c-0.1,0-0.2,0-0.3,0
				c-0.6,0-1,0.4-1.1,1c0,0.1,0,0.2,0,0.4v2.3h-0.8V565.2z"/>
			<path class="st1" d="M175.5,578.9v-3.8h-0.6v-0.6h0.6v-0.2c0-0.6,0.1-1.2,0.5-1.5c0.3-0.3,0.7-0.4,1.1-0.4c0.3,0,0.5,0.1,0.7,0.1
				l-0.1,0.6c-0.1-0.1-0.3-0.1-0.5-0.1c-0.7,0-0.8,0.6-0.8,1.3v0.2h1.1v0.6h-1.1v3.8H175.5z"/>
			<path class="st1" d="M178.4,576.9c0,1.1,0.7,1.5,1.5,1.5c0.6,0,0.9-0.1,1.2-0.2l0.1,0.6c-0.3,0.1-0.8,0.3-1.4,0.3
				c-1.3,0-2.1-0.9-2.1-2.2s0.8-2.3,2-2.3c1.4,0,1.8,1.3,1.8,2.1c0,0.2,0,0.3,0,0.4H178.4z M180.7,576.3c0-0.5-0.2-1.3-1.1-1.3
				c-0.8,0-1.2,0.7-1.2,1.3H180.7z"/>
			<path class="st1" d="M186.2,572.6v5.3c0,0.4,0,0.8,0,1.1h-0.7l0-0.8h0c-0.2,0.5-0.8,0.9-1.5,0.9c-1.1,0-1.9-0.9-1.9-2.2
				c0-1.5,0.9-2.3,2-2.3c0.7,0,1.1,0.3,1.3,0.7h0v-2.6H186.2z M185.4,576.4c0-0.1,0-0.2,0-0.3c-0.1-0.5-0.5-0.9-1.1-0.9
				c-0.8,0-1.3,0.7-1.3,1.7c0,0.9,0.4,1.6,1.3,1.6c0.5,0,1-0.4,1.2-0.9c0-0.1,0-0.2,0-0.3V576.4z"/>
			<path class="st1" d="M188,576.9c0,1.1,0.7,1.5,1.5,1.5c0.6,0,0.9-0.1,1.2-0.2l0.1,0.6c-0.3,0.1-0.8,0.3-1.4,0.3
				c-1.3,0-2.1-0.9-2.1-2.2s0.8-2.3,2-2.3c1.4,0,1.8,1.3,1.8,2.1c0,0.2,0,0.3,0,0.4H188z M190.3,576.3c0-0.5-0.2-1.3-1.1-1.3
				c-0.8,0-1.2,0.7-1.2,1.3H190.3z"/>
			<path class="st1" d="M192,576c0-0.5,0-1,0-1.4h0.7l0,0.9h0c0.2-0.6,0.7-1,1.2-1c0.1,0,0.2,0,0.2,0v0.7c-0.1,0-0.2,0-0.3,0
				c-0.6,0-1,0.4-1.1,1c0,0.1,0,0.2,0,0.4v2.3H192V576z"/>
			<path class="st1" d="M197.3,578.9l-0.1-0.5h0c-0.2,0.3-0.7,0.6-1.3,0.6c-0.9,0-1.3-0.6-1.3-1.3c0-1.1,0.9-1.6,2.6-1.6v-0.1
				c0-0.4-0.1-1-1-1c-0.4,0-0.8,0.1-1.1,0.3l-0.2-0.5c0.4-0.2,0.9-0.4,1.4-0.4c1.3,0,1.7,0.9,1.7,1.8v1.6c0,0.4,0,0.7,0.1,1H197.3z
				 M197.2,576.7c-0.9,0-1.8,0.1-1.8,1c0,0.5,0.3,0.8,0.7,0.8c0.6,0,0.9-0.4,1.1-0.7c0-0.1,0-0.2,0-0.3V576.7z"/>
			<path class="st1" d="M199.3,572.6h0.8v6.4h-0.8V572.6z"/>
			<path class="st1" d="M205.7,578.9l-0.1-0.5h0c-0.2,0.3-0.7,0.6-1.3,0.6c-0.9,0-1.3-0.6-1.3-1.3c0-1.1,0.9-1.6,2.6-1.6v-0.1
				c0-0.4-0.1-1-1-1c-0.4,0-0.8,0.1-1.1,0.3l-0.2-0.5c0.4-0.2,0.9-0.4,1.4-0.4c1.3,0,1.7,0.9,1.7,1.8v1.6c0,0.4,0,0.7,0.1,1H205.7z
				 M205.6,576.7c-0.9,0-1.8,0.1-1.8,1c0,0.5,0.3,0.8,0.7,0.8c0.6,0,0.9-0.4,1.1-0.7c0-0.1,0-0.2,0-0.3V576.7z"/>
			<path class="st1" d="M207.6,575.8c0-0.5,0-0.8,0-1.2h0.7l0,0.7h0c0.2-0.4,0.7-0.8,1.4-0.8c0.6,0,1.5,0.4,1.5,1.9v2.6h-0.8v-2.5
				c0-0.7-0.3-1.3-1-1.3c-0.5,0-0.9,0.4-1.1,0.8c0,0.1-0.1,0.2-0.1,0.4v2.6h-0.8V575.8z"/>
			<path class="st1" d="M216.4,572.6v5.3c0,0.4,0,0.8,0,1.1h-0.7l0-0.8h0c-0.2,0.5-0.8,0.9-1.5,0.9c-1.1,0-1.9-0.9-1.9-2.2
				c0-1.5,0.9-2.3,2-2.3c0.7,0,1.1,0.3,1.3,0.7h0v-2.6H216.4z M215.6,576.4c0-0.1,0-0.2,0-0.3c-0.1-0.5-0.5-0.9-1.1-0.9
				c-0.8,0-1.3,0.7-1.3,1.7c0,0.9,0.4,1.6,1.3,1.6c0.5,0,1-0.4,1.2-0.9c0-0.1,0-0.2,0-0.3V576.4z"/>
			<path class="st1" d="M223.6,576.7c0,1.6-1.1,2.3-2.2,2.3c-1.2,0-2.1-0.9-2.1-2.2c0-1.5,1-2.3,2.2-2.3
				C222.7,574.5,223.6,575.4,223.6,576.7z M220.1,576.8c0,1,0.5,1.7,1.3,1.7c0.8,0,1.3-0.7,1.3-1.7c0-0.7-0.4-1.7-1.3-1.7
				S220.1,576,220.1,576.8z"/>
			<path class="st1" d="M224.6,575.8c0-0.5,0-0.8,0-1.2h0.7l0,0.7h0c0.2-0.4,0.7-0.8,1.4-0.8c0.6,0,1.5,0.4,1.5,1.9v2.6h-0.8v-2.5
				c0-0.7-0.3-1.3-1-1.3c-0.5,0-0.9,0.4-1.1,0.8c0,0.1-0.1,0.2-0.1,0.4v2.6h-0.8V575.8z"/>
			<path class="st1" d="M230,576.9c0,1.1,0.7,1.5,1.5,1.5c0.6,0,0.9-0.1,1.2-0.2l0.1,0.6c-0.3,0.1-0.8,0.3-1.4,0.3
				c-1.3,0-2.1-0.9-2.1-2.2s0.8-2.3,2-2.3c1.4,0,1.8,1.3,1.8,2.1c0,0.2,0,0.3,0,0.4H230z M232.3,576.3c0-0.5-0.2-1.3-1.1-1.3
				c-0.8,0-1.2,0.7-1.2,1.3H232.3z"/>
			<path class="st1" d="M235.9,578.1c0.2,0.2,0.6,0.3,1,0.3c0.6,0,0.8-0.3,0.8-0.6c0-0.4-0.2-0.6-0.8-0.8c-0.8-0.3-1.2-0.7-1.2-1.2
				c0-0.7,0.6-1.3,1.5-1.3c0.4,0,0.8,0.1,1.1,0.3l-0.2,0.6c-0.2-0.1-0.5-0.3-0.9-0.3c-0.5,0-0.7,0.3-0.7,0.6c0,0.4,0.3,0.5,0.8,0.7
				c0.8,0.3,1.1,0.7,1.1,1.3c0,0.8-0.6,1.3-1.6,1.3c-0.5,0-0.9-0.1-1.2-0.3L235.9,578.1z"/>
			<path class="st1" d="M240.5,573.3v1.3h1.1v0.6h-1.1v2.3c0,0.5,0.2,0.8,0.6,0.8c0.2,0,0.4,0,0.5-0.1l0,0.6
				c-0.2,0.1-0.4,0.1-0.7,0.1c-0.4,0-0.7-0.1-0.9-0.3c-0.2-0.2-0.3-0.6-0.3-1.1v-2.4H239v-0.6h0.7v-1L240.5,573.3z"/>
			<path class="st1" d="M244.9,578.9l-0.1-0.5h0c-0.2,0.3-0.7,0.6-1.3,0.6c-0.9,0-1.3-0.6-1.3-1.3c0-1.1,0.9-1.6,2.6-1.6v-0.1
				c0-0.4-0.1-1-1-1c-0.4,0-0.8,0.1-1.1,0.3l-0.2-0.5c0.4-0.2,0.9-0.4,1.4-0.4c1.3,0,1.7,0.9,1.7,1.8v1.6c0,0.4,0,0.7,0.1,1H244.9z
				 M244.8,576.7c-0.9,0-1.8,0.1-1.8,1c0,0.5,0.3,0.8,0.7,0.8c0.6,0,0.9-0.4,1.1-0.7c0-0.1,0-0.2,0-0.3V576.7z"/>
			<path class="st1" d="M247.8,573.3v1.3h1.1v0.6h-1.1v2.3c0,0.5,0.2,0.8,0.6,0.8c0.2,0,0.4,0,0.5-0.1l0,0.6
				c-0.2,0.1-0.4,0.1-0.7,0.1c-0.4,0-0.7-0.1-0.9-0.3c-0.2-0.2-0.3-0.6-0.3-1.1v-2.4h-0.7v-0.6h0.7v-1L247.8,573.3z"/>
			<path class="st1" d="M250.2,576.9c0,1.1,0.7,1.5,1.5,1.5c0.6,0,0.9-0.1,1.2-0.2l0.1,0.6c-0.3,0.1-0.8,0.3-1.4,0.3
				c-1.3,0-2.1-0.9-2.1-2.2s0.8-2.3,2-2.3c1.4,0,1.8,1.3,1.8,2.1c0,0.2,0,0.3,0,0.4H250.2z M252.5,576.3c0-0.5-0.2-1.3-1.1-1.3
				c-0.8,0-1.2,0.7-1.2,1.3H252.5z"/>
			<path class="st1" d="M256.2,576c0-0.5,0-1,0-1.4h0.7l0,0.9h0c0.2-0.6,0.7-1,1.2-1c0.1,0,0.2,0,0.2,0v0.7c-0.1,0-0.2,0-0.3,0
				c-0.6,0-1,0.4-1.1,1c0,0.1,0,0.2,0,0.4v2.3h-0.8V576z"/>
			<path class="st1" d="M259.5,576.9c0,1.1,0.7,1.5,1.5,1.5c0.6,0,0.9-0.1,1.2-0.2l0.1,0.6c-0.3,0.1-0.8,0.3-1.4,0.3
				c-1.3,0-2.1-0.9-2.1-2.2s0.8-2.3,2-2.3c1.4,0,1.8,1.3,1.8,2.1c0,0.2,0,0.3,0,0.4H259.5z M261.8,576.3c0-0.5-0.2-1.3-1.1-1.3
				c-0.8,0-1.2,0.7-1.2,1.3H261.8z"/>
			<path class="st1" d="M264.5,573.3v1.3h1.1v0.6h-1.1v2.3c0,0.5,0.2,0.8,0.6,0.8c0.2,0,0.4,0,0.5-0.1l0,0.6
				c-0.2,0.1-0.4,0.1-0.7,0.1c-0.4,0-0.7-0.1-0.9-0.3c-0.2-0.2-0.3-0.6-0.3-1.1v-2.4H263v-0.6h0.7v-1L264.5,573.3z"/>
			<path class="st1" d="M270.1,577.8c0,0.5,0,0.8,0,1.2h-0.7l0-0.7h0c-0.2,0.4-0.7,0.8-1.4,0.8c-0.7,0-1.5-0.4-1.5-1.9v-2.5h0.8v2.4
				c0,0.8,0.3,1.4,1,1.4c0.5,0,0.9-0.4,1-0.7c0-0.1,0.1-0.3,0.1-0.4v-2.7h0.8V577.8z"/>
			<path class="st1" d="M271.5,576c0-0.5,0-1,0-1.4h0.7l0,0.9h0c0.2-0.6,0.7-1,1.2-1c0.1,0,0.2,0,0.2,0v0.7c-0.1,0-0.2,0-0.3,0
				c-0.6,0-1,0.4-1.1,1c0,0.1,0,0.2,0,0.4v2.3h-0.8V576z"/>
			<path class="st1" d="M274.4,575.8c0-0.5,0-0.8,0-1.2h0.7l0,0.7h0c0.2-0.4,0.7-0.8,1.4-0.8c0.6,0,1.5,0.4,1.5,1.9v2.6h-0.8v-2.5
				c0-0.7-0.3-1.3-1-1.3c-0.5,0-0.9,0.4-1.1,0.8c0,0.1-0.1,0.2-0.1,0.4v2.6h-0.8V575.8z"/>
			<path class="st1" d="M279.2,578.5c0-0.3,0.2-0.6,0.5-0.6s0.5,0.2,0.5,0.6c0,0.3-0.2,0.6-0.5,0.6
				C279.5,579,279.2,578.8,279.2,578.5z"/>
		</g>
		<g id="Switch_from_TurboTax._Save_up_to">
			<path class="st1" d="M21,66.6h8.4c0.2,2.2,1.2,4,4.9,4c2.5,0,4-1.2,4-3s-1.2-2.4-4.8-3c-8.7-1-11.6-3.6-11.6-9.8
				c0-5.5,4.6-9.6,11.9-9.6s11.5,3.1,12.1,9.6h-8.2c-0.3-2.2-1.5-3.3-4-3.3S30,52.6,30,54.1c0,1.7,1,2.5,4.8,3
				c7.8,0.9,11.8,2.9,11.8,9.5c0,5.6-4.5,10.2-12.4,10.2C25.6,76.9,21.3,73.3,21,66.6z"/>
			<path class="st1" d="M47.2,53.9h8l3.3,13.4l3.8-13.4h6.2l3.3,13.4l3.7-13.4h7.3l-7.1,22.5h-7.3L65,63.8l-3.5,12.5H54L47.2,53.9z"
				/>
			<path class="st1" d="M84.6,47.8c0-2.2,1.8-4,4-4c0.1,0,0.1,0,0.2,0c2.2-0.2,4.2,1.3,4.4,3.5c0.2,2.2-1.3,4.2-3.5,4.4
				c-0.3,0-0.6,0-0.9,0c-2.2,0.1-4.1-1.6-4.2-3.8V47.8z M85,53.9h7.7v22.5H85V53.9z"/>
			<path class="st1" d="M97.8,69.1v-10h-2.7v-5.2h2.7v-4.7h7.7v4.7h4.4v5.2h-4.4v9.3c0,1.6,0.8,2.4,2.3,2.4c0.7,0,1.5-0.1,2.2-0.4
				v5.8c-1.4,0.4-2.8,0.6-4.3,0.7C100.7,76.9,97.8,74.4,97.8,69.1z"/>
			<path class="st1" d="M111.7,65.4V65c0-7.5,5.4-11.8,12-11.8c5.5,0,10.6,2.4,11,9.2h-7.2c-0.3-2.1-1.4-3.3-3.6-3.3
				c-2.7,0-4.3,1.9-4.3,5.7v0.3c0,3.9,1.5,5.9,4.4,5.9c2.2,0,3.7-1.3,3.9-3.7h6.9c-0.2,5.7-4,9.4-11.3,9.4
				C116.8,76.9,111.7,73,111.7,65.4z"/>
			<path class="st1" d="M137.3,44h7.7v13.5c1.4-2.7,4.3-4.4,7.4-4.2c4.3,0,7.3,2.7,7.3,8.5v14.6H152V63.3c0-2.5-1-3.8-3.2-3.8
				s-3.8,1.4-3.8,4.3v12.6h-7.7V44z"/>
			<path class="st1" d="M172.4,59.1h-2.8v-5.2h2.8v-2c0-5.6,3.5-8.3,8.8-8.3c1.2,0,2.4,0.2,3.5,0.5v5.6c-0.7-0.2-1.4-0.3-2.1-0.3
				c-1.2-0.2-2.4,0.6-2.6,1.9c0,0.2,0,0.4,0,0.6v2h4.6v5.2H180v17.2h-7.6V59.1z"/>
			<path class="st1" d="M187.2,53.9h7.7v4.5c1-3.1,4-5,7.3-4.8v7.2c-4.7-0.1-7.3,1.3-7.3,4.9v10.6h-7.7V53.9z"/>
			<path class="st1" d="M203.5,65.4V65c0-7.2,5.4-11.8,12.3-11.8S228,57.6,228,64.8v0.3c0,7.3-5.4,11.7-12.3,11.7
				S203.5,72.7,203.5,65.4z M220.2,65.3V65c0-3.8-1.5-5.9-4.4-5.9s-4.5,2-4.5,5.8v0.3c0,3.9,1.5,6,4.5,6S220.2,69,220.2,65.3z"/>
			<path class="st1" d="M230.8,53.9h7.7v3.4c1.4-2.5,4.1-4.1,7.1-4c2.6-0.2,5.1,1.3,6.1,3.7c1.7-2.4,4.5-3.8,7.4-3.8
				c4.3,0,7.3,2.8,7.3,8.4v14.7h-7.7V62.9c0-2.3-1.1-3.4-2.9-3.4c-2.1,0-3.4,1.3-3.4,3.8v13h-7.6V62.9c0-2.3-1.1-3.4-2.9-3.4
				c-2.1,0-3.4,1.3-3.4,3.8v13h-7.7V53.9z"/>
			<path class="st1" d="M28.9,99.4h-8v-6.8h24.8v6.8h-7.9v23.9h-8.9C28.9,123.3,28.9,99.4,28.9,99.4z"/>
			<path class="st1" d="M46.3,115.5v-14.6H54v13.4c0,2.5,1,3.8,3.2,3.8s3.8-1.4,3.8-4.3v-12.9h7.7v22.5H61v-3.5
				c-1.2,2.3-3.4,4-7.1,4C49.5,123.8,46.3,121.1,46.3,115.5z"/>
			<path class="st1" d="M72.6,100.8h7.7v4.5c1-3.1,4-5,7.3-4.8v7.2c-4.7-0.1-7.3,1.3-7.3,4.9v10.7h-7.7V100.8z"/>
			<path class="st1" d="M98,119.8v3.5h-7.7V91H98v13.2c1.4-2.5,4.1-4,7-4c5.2,0,9.5,4,9.5,11.6v0.3c0,7.7-4.3,11.6-9.5,11.6
				C101.7,123.8,99.2,122.2,98,119.8z M106.7,112.2v-0.3c0-4-1.7-5.8-4.4-5.8s-4.5,2-4.5,5.8v0.3c0,3.8,1.7,5.8,4.5,5.8
				S106.7,115.9,106.7,112.2L106.7,112.2z"/>
			<path class="st1" d="M116.1,112.3V112c0-7.2,5.4-11.8,12.3-11.8s12.2,4.4,12.2,11.6v0.3c0,7.3-5.4,11.7-12.3,11.7
				S116.1,119.6,116.1,112.3z M132.9,112.2v-0.3c0-3.8-1.5-5.9-4.4-5.9s-4.5,2-4.5,5.8v0.3c0,3.9,1.5,6,4.5,6
				C131.4,118.1,132.9,116,132.9,112.2z"/>
			<path class="st1" d="M150,99.4h-8v-6.8h24.7v6.8h-7.9v23.9H150V99.4z"/>
			<path class="st1" d="M165.2,117.1c0-5.3,4.5-7.3,11.9-7.3h2.1v-0.5c0-2.2-0.5-3.6-3-3.6c-1.5-0.2-2.9,0.9-3,2.4
				c0,0.1,0,0.2,0,0.2H166c0.4-5.4,4.6-8.1,10.7-8.1s10.1,2.5,10.1,8.5v14.6h-7.5v-2.6c-1.1,1.6-3.1,3.1-6.6,3.1
				C168.8,123.8,165.2,121.8,165.2,117.1z M179.3,115.4V114h-2c-3.1,0-4.5,0.6-4.5,2.4c0,1.3,0.9,2.1,2.7,2.1
				C177.7,118.6,179.3,117.4,179.3,115.4z"/>
			<path class="st1" d="M196.4,111.9l-7-11h8.9l3.5,5.9l3.4-5.9h7.9l-7.1,10.4l7.8,12h-8.9l-4-6.7l-4.1,6.7h-7.9L196.4,111.9z"/>
			<path class="st1" d="M215.2,119.4c0-2.4,1.9-4.3,4.2-4.3c0.1,0,0.1,0,0.2,0c2.4-0.1,4.4,1.7,4.5,4.1s-1.7,4.4-4.1,4.5
				c-0.1,0-0.3,0-0.4,0C217.2,123.8,215.3,121.9,215.2,119.4C215.2,119.5,215.2,119.5,215.2,119.4z"/>
			<path class="st1" d="M21,160.5h8.4c0.2,2.2,1.2,4,4.9,4c2.5,0,4-1.3,4-3.1s-1.2-2.4-4.8-3c-8.7-1-11.6-3.6-11.6-9.8
				c0-5.5,4.6-9.6,11.9-9.6s11.5,3.1,12.1,9.6h-8.2c-0.3-2.2-1.5-3.3-4-3.3S30,146.4,30,148c0,1.7,1,2.5,4.8,3
				c7.8,0.9,11.8,2.9,11.8,9.5c0,5.6-4.5,10.2-12.4,10.2C25.6,170.8,21.3,167.1,21,160.5z"/>
			<path class="st1" d="M48.1,164c0-5.3,4.5-7.3,11.9-7.3h2.2v-0.5c0-2.1-0.5-3.6-3-3.6c-1.5-0.1-2.9,1-3,2.5c0,0.1,0,0.1,0,0.2H49
				c0.3-5.4,4.6-8.1,10.7-8.1s10.1,2.5,10.1,8.5v14.6h-7.5v-2.6c-1.1,1.6-3,3.1-6.7,3.1C51.7,170.8,48.1,168.8,48.1,164z
				 M62.2,162.4V161h-2c-3.1,0-4.5,0.6-4.5,2.4c0,1.3,0.9,2.1,2.7,2.1C60.6,165.6,62.2,164.3,62.2,162.4L62.2,162.4z"/>
			<path class="st1" d="M71,147.8h8.2l4.7,14.5l4.6-14.5h7.3l-8.2,22.5h-8.4L71,147.8z"/>
			<path class="st1" d="M95.4,159.3v-0.4c0-7.2,5.4-11.8,12.2-11.8c6.1,0,11.4,3.5,11.4,11.6v2h-15.8c0.2,3,1.9,4.7,4.7,4.7
				c2.5,0,3.6-1.2,3.9-2.7h7.3c-0.7,5.1-4.6,7.9-11.4,7.9C100.5,170.8,95.4,166.6,95.4,159.3z M111.5,156.4c-0.1-2.7-1.5-4.2-4-4.2
				c-2.3,0-3.9,1.5-4.3,4.2H111.5z"/>
			<path class="st1" d="M129.3,162.4v-14.6h7.7v13.4c0,2.5,1,3.8,3.2,3.8s3.8-1.4,3.8-4.3v-12.9h7.7v22.5H144v-3.5
				c-1.2,2.3-3.4,4-7.1,4C132.5,170.8,129.3,168.1,129.3,162.4z"/>
			<path class="st1" d="M155.6,147.8h7.7v3.4c1.4-2.5,4.1-4,7-4c5.2,0,9.5,4,9.5,11.6v0.3c0,7.7-4.3,11.6-9.5,11.6
				c-3.4,0-5.8-1.6-6.9-3.8v10.8h-7.7L155.6,147.8z M171.9,159.2v-0.3c0-4-1.7-5.9-4.4-5.9s-4.5,2-4.5,5.8v0.4
				c0,3.8,1.7,5.8,4.5,5.8S171.9,162.9,171.9,159.2z"/>
			<path class="st1" d="M191.4,163v-10h-2.7v-5.2h2.7v-4.7h7.7v4.7h4.4v5.2h-4.4v9.3c0,1.6,0.8,2.4,2.3,2.4c0.7,0,1.5-0.1,2.2-0.4
				v5.8c-1.4,0.4-2.8,0.6-4.3,0.6C194.2,170.8,191.4,168.3,191.4,163z"/>
			<path class="st1" d="M205.2,159.3v-0.4c0-7.2,5.4-11.8,12.3-11.8s12.3,4.4,12.3,11.6v0.3c0,7.3-5.4,11.7-12.3,11.7
				S205.2,166.6,205.2,159.3z M221.9,159.2v-0.3c0-3.8-1.5-5.9-4.4-5.9s-4.5,2-4.5,5.8v0.3c0,3.9,1.5,6,4.5,6S222,162.9,221.9,159.2
				L221.9,159.2z"/>
		</g>
	</g>
</g>
</svg>
