<svg xmlns="http://www.w3.org/2000/svg" viewBox="0 0 300 600"><title>txt</title><g id="Layer_2" data-name="Layer 2"><g id="Headline1"><g id="Rect"><rect width="300" height="600" fill="none"/></g><g id="For_paid_versions." data-name="For paid versions."><path d="M210,573.52h3.76v.64h-3v2.28h2.32v.64H210.8V580H210Z" fill="#14aa40"/><path d="M214.12,577.64v-.07a2.32,2.32,0,1,1,4.63,0v.07a2.32,2.32,0,1,1-4.63,0Zm3.86,0v-.06c0-1.09-.61-1.79-1.54-1.79s-1.54.7-1.54,1.78v.07c0,1.07.58,1.78,1.54,1.78A1.57,1.57,0,0,0,218,577.64Z" fill="#14aa40"/><path d="M219.77,575.25h.75v.84a1.63,1.63,0,0,1,1.55-.92v.7c-.95,0-1.55.34-1.55,1.5V580h-.75Z" fill="#14aa40"/><path d="M225.27,575.25H226V576a1.93,1.93,0,0,1,1.59-.87,2.14,2.14,0,0,1,2.15,2.37v.07a2.18,2.18,0,0,1-2.15,2.43,1.78,1.78,0,0,1-1.59-.86v2.42h-.75Zm3.71,2.39v-.07c0-1.19-.65-1.78-1.45-1.78s-1.54.58-1.54,1.78v.07c0,1.21.63,1.78,1.55,1.78S229,578.79,229,577.64Z" fill="#14aa40"/><path d="M230.39,578.65c0-1.09,1.16-1.46,2.36-1.46h.68v-.34c0-.75-.29-1.06-1-1.06s-1,.27-1.08.84h-.75a1.65,1.65,0,0,1,1.87-1.46,1.51,1.51,0,0,1,1.71,1.68V580h-.74v-.6A1.71,1.71,0,0,1,232,580C231.09,580,230.39,579.62,230.39,578.65Zm3-.34v-.59h-.65c-.95,0-1.64.24-1.64.93,0,.49.24.79.89.79S233.43,579,233.43,578.31Z" fill="#14aa40"/><path d="M235.39,573.77a.49.49,0,0,1,.49-.49.5.5,0,0,1,.5.49.51.51,0,0,1-.5.5A.5.5,0,0,1,235.39,573.77Zm.13,1.48h.75V580h-.75Z" fill="#14aa40"/><path d="M237.31,577.7v-.08a2.23,2.23,0,0,1,2.2-2.45,1.7,1.7,0,0,1,1.54.83v-3h.75v7h-.75v-.81a2,2,0,0,1-1.61.89A2.11,2.11,0,0,1,237.31,577.7Zm3.77-.07v-.07c0-1.2-.58-1.77-1.5-1.77s-1.49.66-1.49,1.8v.07c0,1.19.64,1.76,1.43,1.76S241.08,578.84,241.08,577.63Z" fill="#14aa40"/><path d="M244.89,575.25h.81l1.4,4,1.38-4h.77L247.56,580h-1Z" fill="#14aa40"/><path d="M249.61,577.65v-.07a2.21,2.21,0,0,1,2.2-2.41,2.06,2.06,0,0,1,2.12,2.34v.24h-3.55c0,1.07.55,1.67,1.52,1.67.72,0,1.15-.27,1.25-.82h.74a1.81,1.81,0,0,1-2,1.44A2.21,2.21,0,0,1,249.61,577.65Zm3.56-.5c-.08-1-.58-1.36-1.36-1.36a1.41,1.41,0,0,0-1.4,1.36Z" fill="#14aa40"/><path d="M254.94,575.25h.74v.84a1.64,1.64,0,0,1,1.55-.92v.7c-.94,0-1.55.34-1.55,1.5V580h-.74Z" fill="#14aa40"/><path d="M257.75,578.51h.73c.06.56.35.91,1.11.91s1-.25,1-.75-.37-.66-1.1-.79c-1.23-.23-1.64-.57-1.64-1.39a1.47,1.47,0,0,1,1.59-1.32,1.5,1.5,0,0,1,1.7,1.36h-.72c-.1-.52-.39-.74-1-.74s-.89.27-.89.67.24.6,1.1.75,1.66.4,1.66,1.4-.59,1.43-1.73,1.43S257.8,579.47,257.75,578.51Z" fill="#14aa40"/><path d="M262.21,573.77a.49.49,0,0,1,.49-.49.5.5,0,0,1,.5.49.51.51,0,0,1-.5.5A.5.5,0,0,1,262.21,573.77Zm.13,1.48h.75V580h-.75Z" fill="#14aa40"/><path d="M264.13,577.64v-.07a2.32,2.32,0,1,1,4.63,0v.07a2.32,2.32,0,1,1-4.63,0Zm3.86,0v-.06c0-1.09-.61-1.79-1.54-1.79s-1.54.7-1.54,1.78v.07c0,1.07.58,1.78,1.54,1.78A1.57,1.57,0,0,0,268,577.64Z" fill="#14aa40"/><path d="M269.79,575.25h.74V576a1.61,1.61,0,0,1,1.52-.83c1,0,1.65.53,1.65,1.9V580H273v-3c0-.83-.36-1.19-1.11-1.19a1.24,1.24,0,0,0-1.32,1.28V580h-.74Z" fill="#14aa40"/><path d="M274.65,578.51h.73c.05.56.35.91,1.1.91s1-.25,1-.75-.37-.66-1.1-.79c-1.22-.23-1.64-.57-1.64-1.39a1.47,1.47,0,0,1,1.6-1.32,1.51,1.51,0,0,1,1.7,1.36h-.72c-.11-.52-.4-.74-1-.74s-.89.27-.89.67.23.6,1.09.75,1.66.4,1.66,1.4-.59,1.43-1.73,1.43S274.69,579.47,274.65,578.51Z" fill="#14aa40"/><path d="M279.16,579.43a.58.58,0,1,1,.57.57A.57.57,0,0,1,279.16,579.43Z" fill="#14aa40"/></g><g id="Switch_from_TurboTax._Save_up_to" data-name="Switch from TurboTax. Save up to"><path d="M21,66.59h8.37c.22,2.19,1.21,4,4.86,4,2.53,0,4-1.24,4-3s-1.16-2.41-4.85-3c-8.68-1-11.6-3.61-11.6-9.79,0-5.54,4.55-9.58,11.9-9.58s11.55,3.09,12.11,9.58H37.57c-.3-2.19-1.55-3.31-4-3.31s-3.57,1.07-3.57,2.62c0,1.72.95,2.49,4.77,3C42.59,58,46.59,60,46.59,66.63c0,5.63-4.47,10.23-12.37,10.23C25.63,76.86,21.25,73.25,21,66.59Z" fill="#14aa40"/><path d="M47.23,53.88h8l3.27,13.44,3.78-13.44h6.18l3.35,13.44,3.65-13.44H82.8L75.67,76.34H68.32L65,63.8,61.49,76.34H54Z" fill="#14aa40"/><path d="M84.6,47.78a4,4,0,0,1,4.21-4,4,4,0,1,1,0,7.95A4,4,0,0,1,84.6,47.78Zm.38,6.1h7.69V76.34H85Z" fill="#14aa40"/><path d="M97.82,69.12v-10h-2.7V53.88h2.7V49.19h7.69v4.69h4.43v5.24h-4.43v9.27c0,1.64.82,2.37,2.28,2.37a5.82,5.82,0,0,0,2.19-.39v5.84a16,16,0,0,1-4.25.65C100.66,76.86,97.82,74.41,97.82,69.12Z" fill="#14aa40"/><path d="M111.65,65.39V65c0-7.47,5.37-11.77,12-11.77,5.5,0,10.57,2.41,11,9.24h-7.21c-.35-2.1-1.38-3.26-3.61-3.26-2.71,0-4.3,1.93-4.3,5.71v.34c0,3.91,1.51,5.93,4.43,5.93,2.15,0,3.65-1.29,3.91-3.74h6.91c-.21,5.67-4,9.37-11.29,9.37C116.77,76.86,111.65,73,111.65,65.39Z" fill="#14aa40"/><path d="M137.25,44h7.69V57.48a7.94,7.94,0,0,1,7.39-4.21c4.34,0,7.34,2.71,7.34,8.47v14.6H152V63.28c0-2.53-1-3.78-3.23-3.78s-3.82,1.38-3.82,4.26V76.34h-7.69Z" fill="#14aa40"/><path d="M172.38,59.12h-2.83V53.88h2.83v-2c0-5.58,3.48-8.25,8.81-8.25a13.54,13.54,0,0,1,3.52.48v5.62a7.09,7.09,0,0,0-2.1-.3A2.26,2.26,0,0,0,180,51.9v2h4.55v5.24H180V76.34h-7.65Z" fill="#14aa40"/><path d="M187.16,53.88h7.69v4.46a7.06,7.06,0,0,1,7.26-4.76v7.17c-4.69-.13-7.26,1.33-7.26,4.94V76.34h-7.69Z" fill="#14aa40"/><path d="M203.48,65.39V65c0-7.21,5.37-11.77,12.33-11.77s12.24,4.43,12.24,11.56v.34c0,7.31-5.37,11.69-12.29,11.69S203.48,72.65,203.48,65.39Zm16.75-.13v-.34c0-3.78-1.5-5.89-4.42-5.89s-4.47,2-4.47,5.8v.34c0,3.87,1.5,6,4.47,6S220.23,69,220.23,65.26Z" fill="#14aa40"/><path d="M230.75,53.88h7.69v3.43a7.88,7.88,0,0,1,7.05-4,6.13,6.13,0,0,1,6.1,3.74A8.9,8.9,0,0,1,259,53.27c4.25,0,7.34,2.75,7.34,8.38V76.34h-7.69V62.94c0-2.28-1.11-3.39-2.88-3.39-2.06,0-3.43,1.33-3.43,3.78v13h-7.6V62.94c0-2.28-1.12-3.39-2.88-3.39-2.06,0-3.44,1.33-3.44,3.78v13h-7.69Z" fill="#14aa40"/><path d="M28.85,99.37h-8V92.58H45.64v6.79H37.7v23.92H28.85Z" fill="#14aa40"/><path d="M46.33,115.47V100.83H54v13.4c0,2.53,1,3.78,3.18,3.78S61,116.63,61,113.76V100.83h7.69v22.46H61v-3.48c-1.2,2.32-3.39,4-7.13,4C49.55,123.81,46.33,121.14,46.33,115.47Z" fill="#14aa40"/><path d="M72.61,100.83H80.3v4.46a7.07,7.07,0,0,1,7.26-4.76v7.17c-4.68-.13-7.26,1.33-7.26,4.94v10.65H72.61Z" fill="#14aa40"/><path d="M98,119.81v3.48H90.35V91H98v13.23a7.93,7.93,0,0,1,7-4c5.24,0,9.49,4,9.49,11.64v.34c0,7.73-4.25,11.6-9.53,11.6C101.65,123.81,99.16,122.22,98,119.81Zm8.68-7.6v-.34c0-4-1.72-5.85-4.43-5.85s-4.46,2-4.46,5.8v.35c0,3.82,1.67,5.75,4.46,5.75S106.72,115.9,106.72,112.21Z" fill="#14aa40"/><path d="M116.12,112.34V112c0-7.21,5.37-11.76,12.33-11.76s12.24,4.42,12.24,11.55v.34c0,7.31-5.37,11.69-12.28,11.69S116.12,119.6,116.12,112.34Zm16.75-.13v-.34c0-3.78-1.5-5.89-4.42-5.89s-4.47,2-4.47,5.8v.34c0,3.87,1.51,6,4.47,6S132.87,116,132.87,112.21Z" fill="#14aa40"/><path d="M150,99.37H142V92.58h24.74v6.79h-7.95v23.92H150Z" fill="#14aa40"/><path d="M165.21,117.06c0-5.28,4.47-7.34,11.94-7.34h2.15v-.52c0-2.15-.51-3.56-3-3.56a2.75,2.75,0,0,0-3.05,2.66h-7.22c.35-5.41,4.6-8.07,10.74-8.07s10.14,2.53,10.14,8.5v14.56h-7.48v-2.62c-1.07,1.63-3.05,3.14-6.65,3.14C168.78,123.81,165.21,121.83,165.21,117.06Zm14.09-1.63v-1.37h-2c-3.09,0-4.46.6-4.46,2.44,0,1.29.85,2.11,2.66,2.11C177.67,118.61,179.3,117.36,179.3,115.43Z" fill="#14aa40"/><path d="M196.35,111.87l-7-11h8.85l3.48,5.92,3.39-5.92H213l-7.08,10.43,7.77,12h-8.85l-4-6.7-4.08,6.7h-7.86Z" fill="#14aa40"/><path d="M215.21,119.43a4.28,4.28,0,0,1,4.38-4.34,4.34,4.34,0,1,1,0,8.67A4.27,4.27,0,0,1,215.21,119.43Z" fill="#14aa40"/><path d="M21,160.49h8.37c.22,2.19,1.21,4,4.86,4,2.53,0,4-1.25,4-3.05s-1.16-2.41-4.85-3c-8.68-1-11.6-3.61-11.6-9.79,0-5.54,4.55-9.58,11.9-9.58s11.55,3.09,12.11,9.58H37.57c-.3-2.19-1.55-3.31-4-3.31s-3.57,1.07-3.57,2.62c0,1.72.95,2.49,4.77,3,7.77.86,11.77,2.88,11.77,9.53,0,5.63-4.47,10.23-12.37,10.23C25.63,170.76,21.25,167.15,21,160.49Z" fill="#14aa40"/><path d="M48.13,164c0-5.28,4.47-7.34,11.94-7.34h2.15v-.52c0-2.15-.51-3.56-3-3.56a2.75,2.75,0,0,0-3,2.66H49c.34-5.41,4.6-8.08,10.74-8.08s10.14,2.54,10.14,8.51v14.56H62.39v-2.62c-1.07,1.63-3,3.14-6.66,3.14C51.7,170.76,48.13,168.78,48.13,164Zm14.09-1.63V161h-2c-3.09,0-4.47.6-4.47,2.44,0,1.29.86,2.11,2.67,2.11C60.59,165.56,62.22,164.31,62.22,162.38Z" fill="#14aa40"/><path d="M71,147.78h8.21l4.68,14.47,4.6-14.47h7.34l-8.2,22.46H79.27Z" fill="#14aa40"/><path d="M95.38,159.29v-.35c0-7.21,5.37-11.77,12.15-11.77,6.14,0,11.43,3.53,11.43,11.6v2H103.15c.22,3,1.93,4.68,4.68,4.68,2.54,0,3.61-1.16,3.91-2.66H119c-.69,5.07-4.6,7.95-11.39,7.95C100.53,170.76,95.38,166.63,95.38,159.29Zm16.1-2.84c-.13-2.7-1.46-4.21-4-4.21-2.32,0-3.91,1.51-4.29,4.21Z" fill="#14aa40"/><path d="M129.26,162.42V147.78H137v13.4c0,2.53,1,3.78,3.18,3.78s3.82-1.38,3.82-4.25V147.78h7.69v22.46H144v-3.48c-1.2,2.32-3.39,4-7.13,4C132.48,170.76,129.26,168.09,129.26,162.42Z" fill="#14aa40"/><path d="M155.55,147.78h7.69v3.35a7.91,7.91,0,0,1,7-4c5.24,0,9.49,4,9.49,11.65v.34c0,7.73-4.25,11.6-9.54,11.6-3.39,0-5.84-1.59-6.95-3.83v10.83h-7.69Zm16.36,11.38v-.34c0-4-1.72-5.85-4.42-5.85s-4.47,2-4.47,5.8v.35c0,3.82,1.68,5.75,4.47,5.75S171.91,162.85,171.91,159.16Z" fill="#14aa40"/><path d="M191.37,163V153h-2.71v-5.24h2.71v-4.69h7.69v4.69h4.42V153h-4.42v9.27c0,1.64.81,2.37,2.27,2.37a5.78,5.78,0,0,0,2.19-.39v5.84a16,16,0,0,1-4.25.65C194.2,170.76,191.37,168.31,191.37,163Z" fill="#14aa40"/><path d="M205.2,159.29v-.35c0-7.21,5.37-11.77,12.32-11.77s12.25,4.43,12.25,11.56v.34c0,7.31-5.37,11.69-12.29,11.69S205.2,166.55,205.2,159.29Zm16.75-.13v-.34c0-3.78-1.5-5.89-4.43-5.89s-4.46,2-4.46,5.8v.34c0,3.87,1.5,6,4.46,6S222,162.9,222,159.16Z" fill="#14aa40"/></g></g></g></svg>