<?xml version="1.0" encoding="utf-8"?>
<!-- Generator: Adobe Illustrator 23.1.1, SVG Export Plug-In . SVG Version: 6.00 Build 0)  -->
<svg version="1.1" id="Layer_1" xmlns="http://www.w3.org/2000/svg" xmlns:xlink="http://www.w3.org/1999/xlink" x="0px" y="0px"
	 viewBox="0 0 160 600" style="enable-background:new 0 0 160 600;" xml:space="preserve">
<style type="text/css">
	.st0{fill:none;}
	.st1{fill:#FFFFFF;stroke:#14AA40;stroke-width:2;stroke-miterlimit:10;}
</style>
<g id="Rect_1_">
	<rect x="0.5" y="-0.5" class="st0" width="160" height="600"/>
</g>
<g>
	<path class="st1" d="M58.3,282.5l-10.9,6.7v-13.7l13.1-9.2h14.2v57.2H58.3V282.5z"/>
	<path class="st1" d="M80.5,296.2v-2.4c0-18.1,11.3-28.2,26.4-28.2c15,0,26.4,9.4,26.4,27.9v2.2c0,18.2-10.4,28.8-26.7,28.8
		C90.6,324.5,80.5,314.2,80.5,296.2z M116.9,296v-2.3c0-10.5-3-15.8-10-15.8c-6.9,0-10,5.2-10,15.8v2.4c0,10.6,3.1,15.7,10.2,15.7
		S116.9,306.6,116.9,296z"/>
</g>
<g>
	<path class="st1" d="M28.8,287.2c1.5-0.3,2.3-1.2,2.3-2.5c0-1.1-0.5-1.7-2.3-2.1l-2.7-0.4c-6-0.9-8.6-3-8.6-7.8
		c0-4.2,3.3-7.2,8.6-7.6v-3.1h2.7v3.1c5,0.4,8,2.7,8.4,7.5h-6.3c-0.2-1.3-0.7-2.2-2.1-2.6c0,0-1.3-0.3-2.7-0.1s-2.3,1.1-2.3,2.2
		c0,1.2,0.5,1.8,2.3,2.2l2.7,0.4c5.3,0.8,8.7,2.6,8.7,7.6c0,4.2-2.7,7.7-8.7,8.1v4.3h-2.7v-4.3c-6-0.4-8.9-3.6-9.1-8.2h6.4
		c0.2,1.6,1.1,3,2.7,3.2S28.8,287.2,28.8,287.2z"/>
</g>
</svg>
