<?xml version="1.0" encoding="utf-8"?>
<!-- Generator: Adobe Illustrator 23.1.1, SVG Export Plug-In . SVG Version: 6.00 Build 0)  -->
<svg version="1.1" id="Layer_1" xmlns="http://www.w3.org/2000/svg" xmlns:xlink="http://www.w3.org/1999/xlink" x="0px" y="0px"
	 viewBox="0 0 160 600" style="enable-background:new 0 0 160 600;" xml:space="preserve">
<style type="text/css">
	.st0{fill:none;}
	.st1{fill:#14AA40;}
</style>
<title>grid</title>
<g>
	<g id="Rect">
		<rect class="st0" width="160" height="600"/>
	</g>
	<g id="Grid_Outer">
		<g id="Grid_Inner">
			<g id="_x31_">
				<path class="st1" d="M31.4,230.9c1.5-0.3,2.2-1.2,2.2-2.4c0-1.1-0.5-1.7-2.2-2.1l-2.6-0.4c-5.8-0.8-8.3-3-8.3-7.6
					c0-4.1,3.2-7,8.3-7.4v-3h2.6v3c4.9,0.4,7.8,2.7,8.2,7.3h-6.1c-0.2-1.3-0.7-2.1-2.1-2.5c0,0-1.3-0.3-2.6-0.1
					c-1.3,0.2-2.3,1.1-2.3,2.1c0,1.2,0.5,1.8,2.3,2.1l2.6,0.4c5.1,0.7,8.5,2.5,8.5,7.4c0,4.1-2.7,7.5-8.5,7.9v4.2h-2.6v-4.2
					c-5.8-0.4-8.6-3.5-8.9-7.9h6.2c0.2,1.5,1,2.9,2.7,3.2S31.4,230.9,31.4,230.9z"/>
			</g>
			<g id="_x32_">
				<path class="st1" d="M56.9,230.9c1.5-0.3,2.2-1.2,2.2-2.4c0-1.1-0.5-1.7-2.2-2.1l-2.6-0.4c-5.8-0.8-8.3-3-8.3-7.6
					c0-4.1,3.2-7,8.3-7.4v-3h2.6v3c4.9,0.4,7.8,2.7,8.2,7.3h-6.1c-0.2-1.3-0.7-2.1-2.1-2.5c0,0-1.3-0.3-2.6-0.1
					c-1.3,0.2-2.3,1.1-2.3,2.1c0,1.2,0.5,1.8,2.3,2.1l2.6,0.4c5.1,0.7,8.5,2.5,8.5,7.4c0,4.1-2.7,7.5-8.5,7.9v4.2h-2.6v-4.2
					c-5.8-0.4-8.6-3.5-8.9-7.9h6.2c0.2,1.5,1,2.9,2.7,3.2C55.9,231.1,56.9,230.9,56.9,230.9z"/>
			</g>
			<g id="_x33_">
				<path class="st1" d="M82.3,230.9c1.5-0.3,2.2-1.2,2.2-2.4c0-1.1-0.5-1.7-2.2-2.1l-2.6-0.4c-5.8-0.8-8.3-3-8.3-7.6
					c0-4.1,3.2-7,8.3-7.4v-3h2.6v3c4.9,0.4,7.8,2.7,8.2,7.3h-6.1c-0.2-1.3-0.7-2.1-2.1-2.5c0,0-1.3-0.3-2.6-0.1
					c-1.3,0.2-2.3,1.1-2.3,2.1c0,1.2,0.5,1.8,2.3,2.1l2.6,0.4c5.1,0.7,8.5,2.5,8.5,7.4c0,4.1-2.7,7.5-8.5,7.9v4.2h-2.6v-4.2
					c-5.8-0.4-8.6-3.5-8.9-7.9H77c0.2,1.5,1,2.9,2.7,3.2S82.3,230.9,82.3,230.9z"/>
			</g>
			<g id="_x34_">
				<path class="st1" d="M107.8,230.9c1.5-0.3,2.2-1.2,2.2-2.4c0-1.1-0.5-1.7-2.2-2.1l-2.6-0.4c-5.8-0.8-8.3-3-8.3-7.6
					c0-4.1,3.2-7,8.3-7.4v-3h2.6v3c4.9,0.4,7.8,2.7,8.2,7.3h-6.1c-0.2-1.3-0.7-2.1-2.1-2.5c0,0-1.3-0.3-2.6-0.1
					c-1.3,0.2-2.3,1.1-2.3,2.1c0,1.2,0.5,1.8,2.3,2.1l2.6,0.4c5.1,0.7,8.5,2.5,8.5,7.4c0,4.1-2.7,7.5-8.5,7.9v4.2h-2.6v-4.2
					c-5.8-0.4-8.6-3.5-8.9-7.9h6.2c0.2,1.5,1,2.9,2.7,3.2S107.8,230.9,107.8,230.9z"/>
			</g>
			<g id="_x35_">
				<path class="st1" d="M133.2,230.9c1.5-0.3,2.2-1.2,2.2-2.4c0-1.1-0.5-1.7-2.2-2.1l-2.6-0.4c-5.8-0.8-8.3-3-8.3-7.6
					c0-4.1,3.2-7,8.3-7.4v-3h2.6v3c4.9,0.4,7.8,2.7,8.2,7.3h-6.1c-0.2-1.3-0.7-2.1-2.1-2.5c0,0-1.3-0.3-2.6-0.1
					c-1.3,0.2-2.3,1.1-2.3,2.1c0,1.2,0.5,1.8,2.3,2.1l2.6,0.4c5.1,0.7,8.5,2.5,8.5,7.4c0,4.1-2.7,7.5-8.5,7.9v4.2h-2.6v-4.2
					c-5.8-0.4-8.6-3.5-8.9-7.9h6.2c0.2,1.5,1,2.9,2.7,3.2S133.2,230.9,133.2,230.9z"/>
			</g>
			<g id="_x36_">
				<path class="st1" d="M31.4,261.3c1.5-0.3,2.2-1.2,2.2-2.4c0-1.1-0.5-1.7-2.2-2.1l-2.6-0.4c-5.8-0.8-8.3-3-8.3-7.6
					c0-4.1,3.2-7,8.3-7.4v-3h2.6v3c4.9,0.4,7.8,2.7,8.2,7.3h-6.1c-0.2-1.3-0.7-2.1-2.1-2.5c0,0-1.3-0.3-2.6-0.1
					c-1.3,0.2-2.3,1.1-2.3,2.1c0,1.2,0.5,1.8,2.3,2.1l2.6,0.4c5.1,0.7,8.5,2.5,8.5,7.4c0,4.1-2.7,7.5-8.5,7.9v4.2h-2.6v-4.2
					c-5.8-0.4-8.6-3.5-8.9-7.9h6.2c0.2,1.5,1,2.9,2.7,3.2S31.4,261.3,31.4,261.3z"/>
			</g>
			<g id="_x37_">
				<path class="st1" d="M56.9,261.3c1.5-0.3,2.2-1.2,2.2-2.4c0-1.1-0.5-1.7-2.2-2.1l-2.6-0.4c-5.8-0.8-8.3-3-8.3-7.6
					c0-4.1,3.2-7,8.3-7.4v-3h2.6v3c4.9,0.4,7.8,2.7,8.2,7.3h-6.1c-0.2-1.3-0.7-2.1-2.1-2.5c0,0-1.3-0.3-2.6-0.1
					c-1.3,0.2-2.3,1.1-2.3,2.1c0,1.2,0.5,1.8,2.3,2.1l2.6,0.4c5.1,0.7,8.5,2.5,8.5,7.4c0,4.1-2.7,7.5-8.5,7.9v4.2h-2.6v-4.2
					c-5.8-0.4-8.6-3.5-8.9-7.9h6.2c0.2,1.5,1,2.9,2.7,3.2C55.9,261.5,56.9,261.3,56.9,261.3z"/>
			</g>
			<g id="_x38_">
				<path class="st1" d="M82.3,261.3c1.5-0.3,2.2-1.2,2.2-2.4c0-1.1-0.5-1.7-2.2-2.1l-2.6-0.4c-5.8-0.8-8.3-3-8.3-7.6
					c0-4.1,3.2-7,8.3-7.4v-3h2.6v3c4.9,0.4,7.8,2.7,8.2,7.3h-6.1c-0.2-1.3-0.7-2.1-2.1-2.5c0,0-1.3-0.3-2.6-0.1
					c-1.3,0.2-2.3,1.1-2.3,2.1c0,1.2,0.5,1.8,2.3,2.1l2.6,0.4c5.1,0.7,8.5,2.5,8.5,7.4c0,4.1-2.7,7.5-8.5,7.9v4.2h-2.6v-4.2
					c-5.8-0.4-8.6-3.5-8.9-7.9H77c0.2,1.5,1,2.9,2.7,3.2S82.3,261.3,82.3,261.3z"/>
			</g>
			<g id="_x39_">
				<path class="st1" d="M107.8,261.3c1.5-0.3,2.2-1.2,2.2-2.4c0-1.1-0.5-1.7-2.2-2.1l-2.6-0.4c-5.8-0.8-8.3-3-8.3-7.6
					c0-4.1,3.2-7,8.3-7.4v-3h2.6v3c4.9,0.4,7.8,2.7,8.2,7.3h-6.1c-0.2-1.3-0.7-2.1-2.1-2.5c0,0-1.3-0.3-2.6-0.1
					c-1.3,0.2-2.3,1.1-2.3,2.1c0,1.2,0.5,1.8,2.3,2.1l2.6,0.4c5.1,0.7,8.5,2.5,8.5,7.4c0,4.1-2.7,7.5-8.5,7.9v4.2h-2.6v-4.2
					c-5.8-0.4-8.6-3.5-8.9-7.9h6.2c0.2,1.5,1,2.9,2.7,3.2S107.8,261.3,107.8,261.3z"/>
			</g>
			<g id="_x31_0">
				<path class="st1" d="M133.2,261.3c1.5-0.3,2.2-1.2,2.2-2.4c0-1.1-0.5-1.7-2.2-2.1l-2.6-0.4c-5.8-0.8-8.3-3-8.3-7.6
					c0-4.1,3.2-7,8.3-7.4v-3h2.6v3c4.9,0.4,7.8,2.7,8.2,7.3h-6.1c-0.2-1.3-0.7-2.1-2.1-2.5c0,0-1.3-0.3-2.6-0.1
					c-1.3,0.2-2.3,1.1-2.3,2.1c0,1.2,0.5,1.8,2.3,2.1l2.6,0.4c5.1,0.7,8.5,2.5,8.5,7.4c0,4.1-2.7,7.5-8.5,7.9v4.2h-2.6v-4.2
					c-5.8-0.4-8.6-3.5-8.9-7.9h6.2c0.2,1.5,1,2.9,2.7,3.2S133.2,261.3,133.2,261.3z"/>
			</g>
		</g>
	</g>
</g>
</svg>
