<svg xmlns="http://www.w3.org/2000/svg" viewBox="0 0 160 600"><title>txt</title><g id="Layer_2" data-name="Layer 2"><g id="headline1"><g id="Rect"><rect width="160" height="600" fill="none"/></g><g id="For_paid_versions." data-name="For paid versions."><path d="M21.31,441.52h3.76v.64h-3v2.28h2.33v.64H22.09V448h-.78Z" fill="#14aa40"/><path d="M25.41,445.64v-.07a2.32,2.32,0,1,1,4.63,0v.07a2.32,2.32,0,1,1-4.63,0Zm3.86,0v-.06c0-1.09-.61-1.79-1.54-1.79s-1.54.7-1.54,1.78v.07c0,1.07.58,1.78,1.54,1.78A1.57,1.57,0,0,0,29.27,445.64Z" fill="#14aa40"/><path d="M31.07,443.25h.74v.84a1.64,1.64,0,0,1,1.55-.92v.7c-.94.05-1.55.34-1.55,1.5V448h-.74Z" fill="#14aa40"/><path d="M36.56,443.25h.75V444a1.94,1.94,0,0,1,1.6-.87,2.14,2.14,0,0,1,2.14,2.37v.07A2.18,2.18,0,0,1,38.91,448a1.79,1.79,0,0,1-1.6-.86v2.42h-.75Zm3.71,2.39v-.07c0-1.19-.65-1.78-1.45-1.78s-1.53.58-1.53,1.78v.07c0,1.21.63,1.78,1.54,1.78S40.27,446.79,40.27,445.64Z" fill="#14aa40"/><path d="M41.69,446.65c0-1.09,1.15-1.46,2.35-1.46h.68v-.34c0-.75-.29-1.06-1-1.06s-1,.27-1.08.84h-.75a1.65,1.65,0,0,1,1.87-1.46,1.52,1.52,0,0,1,1.72,1.68V448h-.75v-.6a1.7,1.7,0,0,1-1.47.68C42.38,448,41.69,447.62,41.69,446.65Zm3-.34v-.59h-.65c-.94,0-1.64.24-1.64.93,0,.49.24.79.89.79S44.72,447,44.72,446.31Z" fill="#14aa40"/><path d="M46.68,441.77a.5.5,0,0,1,.5-.49.49.49,0,0,1,.49.49.5.5,0,0,1-.49.5A.51.51,0,0,1,46.68,441.77Zm.14,1.48h.74V448h-.74Z" fill="#14aa40"/><path d="M48.61,445.7v-.08a2.23,2.23,0,0,1,2.19-2.45,1.69,1.69,0,0,1,1.54.83v-3h.75v7h-.75v-.81a2,2,0,0,1-1.61.89A2.1,2.1,0,0,1,48.61,445.7Zm3.76-.07v-.07c0-1.2-.58-1.77-1.49-1.77s-1.5.66-1.5,1.8v.07c0,1.19.64,1.76,1.43,1.76S52.37,446.84,52.37,445.63Z" fill="#14aa40"/><path d="M56.18,443.25H57l1.4,3.95,1.38-3.95h.77L58.85,448h-1Z" fill="#14aa40"/><path d="M60.9,445.65v-.07a2.22,2.22,0,0,1,2.21-2.41,2.06,2.06,0,0,1,2.11,2.34v.24H61.67c0,1.07.55,1.67,1.52,1.67.73,0,1.15-.27,1.25-.82h.75a1.83,1.83,0,0,1-2,1.44A2.22,2.22,0,0,1,60.9,445.65Zm3.56-.5c-.08-1-.58-1.36-1.35-1.36a1.41,1.41,0,0,0-1.41,1.36Z" fill="#14aa40"/><path d="M66.23,443.25H67v.84a1.62,1.62,0,0,1,1.54-.92v.7c-.94.05-1.54.34-1.54,1.5V448h-.75Z" fill="#14aa40"/><path d="M69.05,446.51h.72c.06.56.36.91,1.11.91s1-.25,1-.75-.37-.66-1.1-.79c-1.22-.23-1.64-.57-1.64-1.39a1.47,1.47,0,0,1,1.6-1.32,1.51,1.51,0,0,1,1.7,1.36h-.72c-.11-.52-.4-.74-1-.74s-.9.27-.9.67.24.6,1.1.75,1.66.4,1.66,1.4c0,.85-.59,1.43-1.73,1.43S69.09,447.47,69.05,446.51Z" fill="#14aa40"/><path d="M73.5,441.77a.5.5,0,0,1,.5-.49.49.49,0,0,1,.49.49.5.5,0,0,1-.49.5A.51.51,0,0,1,73.5,441.77Zm.14,1.48h.74V448h-.74Z" fill="#14aa40"/><path d="M75.43,445.64v-.07a2.31,2.31,0,1,1,4.62,0v.07a2.31,2.31,0,1,1-4.62,0Zm3.85,0v-.06c0-1.09-.6-1.79-1.54-1.79s-1.54.7-1.54,1.78v.07c0,1.07.59,1.78,1.54,1.78S79.28,446.71,79.28,445.64Z" fill="#14aa40"/><path d="M81.08,443.25h.75V444a1.59,1.59,0,0,1,1.51-.83c1,0,1.66.53,1.66,1.9V448h-.75V445c0-.83-.35-1.19-1.11-1.19a1.23,1.23,0,0,0-1.31,1.28V448h-.75Z" fill="#14aa40"/><path d="M85.94,446.51h.73c0,.56.35.91,1.1.91s1-.25,1-.75-.37-.66-1.1-.79c-1.22-.23-1.64-.57-1.64-1.39a1.47,1.47,0,0,1,1.6-1.32,1.51,1.51,0,0,1,1.7,1.36h-.72c-.11-.52-.4-.74-1-.74s-.89.27-.89.67.23.6,1.1.75,1.65.4,1.65,1.4c0,.85-.58,1.43-1.73,1.43S86,447.47,85.94,446.51Z" fill="#14aa40"/><path d="M90.45,447.43A.58.58,0,1,1,91,448,.57.57,0,0,1,90.45,447.43Z" fill="#14aa40"/></g><g id="Switch_from_TurboTax._Save_up_to" data-name="Switch from TurboTax. Save up to"><path d="M20.57,73.15h4.88c.12,1.28.7,2.33,2.82,2.33,1.48,0,2.3-.73,2.3-1.78S29.9,72.3,27.75,72c-5.05-.6-6.75-2.1-6.75-5.7,0-3.23,2.65-5.58,6.92-5.58s6.73,1.8,7,5.58H30.22a2,2,0,0,0-2.3-1.93c-1.37,0-2.07.63-2.07,1.53s.55,1.45,2.77,1.75c4.53.5,6.85,1.67,6.85,5.55,0,3.27-2.6,5.94-7.2,5.94C23.27,79.12,20.72,77,20.57,73.15Z" fill="#14aa40"/><path d="M35.85,65.75h4.67l1.9,7.83,2.2-7.83h3.6l2,7.83,2.13-7.83h4.24L52.4,78.82H48.12l-1.95-7.29-2,7.29H39.8Z" fill="#14aa40"/><path d="M57.6,62.2a2.47,2.47,0,1,1,2.45,2.3A2.33,2.33,0,0,1,57.6,62.2Zm.22,3.55H62.3V78.82H57.82Z" fill="#14aa40"/><path d="M65.3,74.63V68.8H63.72v-3H65.3V63h4.47v2.72h2.58v3H69.77v5.4a1.2,1.2,0,0,0,1.33,1.38,3.38,3.38,0,0,0,1.27-.23v3.4a9.34,9.34,0,0,1-2.47.37C67,79.12,65.3,77.7,65.3,74.63Z" fill="#14aa40"/><path d="M73.35,72.45v-.2c0-4.35,3.12-6.85,7-6.85,3.2,0,6.15,1.4,6.4,5.38h-4.2a1.93,1.93,0,0,0-2.1-1.9c-1.57,0-2.5,1.12-2.5,3.32v.2c0,2.28.88,3.45,2.58,3.45a2.17,2.17,0,0,0,2.27-2.17h4c-.13,3.3-2.35,5.44-6.58,5.44C76.32,79.12,73.35,76.85,73.35,72.45Z" fill="#14aa40"/><path d="M88.25,60h4.47v7.85A4.62,4.62,0,0,1,97,65.4c2.53,0,4.28,1.58,4.28,4.93v8.49H96.82V71.23c0-1.48-.57-2.2-1.87-2.2s-2.23.8-2.23,2.47v7.32H88.25Z" fill="#14aa40"/><path d="M22,95.8H20.35v-3H22V91.6c0-3.25,2-4.8,5.12-4.8a7.93,7.93,0,0,1,2.05.28v3.27A4.07,4.07,0,0,0,28,90.18a1.31,1.31,0,0,0-1.5,1.42v1.15H29.1v3H26.45v10H22Z" fill="#14aa40"/><path d="M30.6,92.75h4.47v2.6a4.12,4.12,0,0,1,4.23-2.77v4.17c-2.73-.07-4.23.78-4.23,2.88v6.19H30.6Z" fill="#14aa40"/><path d="M40.1,99.45v-.2c0-4.2,3.12-6.85,7.17-6.85S54.4,95,54.4,99.13v.2c0,4.25-3.13,6.79-7.15,6.79S40.1,103.68,40.1,99.45Zm9.75-.07v-.2c0-2.2-.88-3.43-2.58-3.43s-2.6,1.18-2.6,3.38v.2c0,2.25.88,3.47,2.6,3.47S49.85,101.55,49.85,99.38Z" fill="#14aa40"/><path d="M56,92.75h4.48v2a4.57,4.57,0,0,1,4.1-2.35,3.57,3.57,0,0,1,3.55,2.18,5.16,5.16,0,0,1,4.32-2.18c2.47,0,4.27,1.6,4.27,4.88v8.54H72.22V98c0-1.33-.65-2-1.67-2a1.94,1.94,0,0,0-2,2.2v7.57H64.12V98c0-1.33-.65-2-1.67-2a1.94,1.94,0,0,0-2,2.2v7.57H56Z" fill="#14aa40"/><path d="M25.15,118.9H20.52v-4h14.4v4H30.3v13.92H25.15Z" fill="#14aa40"/><path d="M35.33,128.28v-8.53H39.8v7.8c0,1.48.57,2.2,1.85,2.2s2.22-.8,2.22-2.47v-7.53h4.48v13.07H43.87v-2a4.29,4.29,0,0,1-4.15,2.32C37.2,133.12,35.33,131.58,35.33,128.28Z" fill="#14aa40"/><path d="M50.62,119.75H55.1v2.6a4.1,4.1,0,0,1,4.22-2.77v4.17c-2.72-.07-4.22.78-4.22,2.88v6.19H50.62Z" fill="#14aa40"/><path d="M65.42,130.8v2H61V114h4.47v7.7a4.62,4.62,0,0,1,4.08-2.3c3,0,5.52,2.3,5.52,6.78v.2c0,4.5-2.47,6.74-5.55,6.74A4.24,4.24,0,0,1,65.42,130.8Zm5-4.42v-.2c0-2.3-1-3.4-2.57-3.4s-2.6,1.17-2.6,3.37v.2c0,2.23,1,3.35,2.6,3.35S70.47,128.53,70.47,126.38Z" fill="#14aa40"/><path d="M76,126.45v-.2c0-4.2,3.12-6.85,7.17-6.85s7.13,2.58,7.13,6.73v.2c0,4.25-3.13,6.79-7.15,6.79S76,130.68,76,126.45Zm9.75-.07v-.2c0-2.2-.88-3.43-2.58-3.43s-2.6,1.18-2.6,3.38v.2c0,2.25.88,3.47,2.6,3.47S85.7,128.55,85.7,126.38Z" fill="#14aa40"/><path d="M95.65,118.9H91v-4h14.4v4H100.8v13.92H95.65Z" fill="#14aa40"/><path d="M104.52,129.2c0-3.07,2.6-4.27,7-4.27h1.25v-.3c0-1.25-.3-2.08-1.72-2.08a1.61,1.61,0,0,0-1.78,1.55H105c.2-3.15,2.68-4.7,6.25-4.7s5.9,1.48,5.9,4.95v8.47h-4.35V131.3a4.28,4.28,0,0,1-3.87,1.82C106.6,133.12,104.52,132,104.52,129.2Zm8.2-.95v-.8h-1.17c-1.8,0-2.6.35-2.6,1.43,0,.75.5,1.22,1.55,1.22A2,2,0,0,0,112.72,128.25Z" fill="#14aa40"/><path d="M122.65,126.18l-4.08-6.43h5.15l2,3.45,2-3.45h4.6l-4.12,6.08,4.52,7h-5.15l-2.32-3.89-2.38,3.89H118.3Z" fill="#14aa40"/><path d="M133.62,130.58a2.5,2.5,0,0,1,2.55-2.53,2.53,2.53,0,1,1,0,5A2.49,2.49,0,0,1,133.62,130.58Z" fill="#14aa40"/><path d="M20.57,154.15h4.88c.12,1.28.7,2.33,2.82,2.33,1.48,0,2.3-.73,2.3-1.78s-.67-1.4-2.82-1.72c-5.05-.6-6.75-2.1-6.75-5.7,0-3.23,2.65-5.58,6.92-5.58s6.73,1.8,7,5.58H30.22a2,2,0,0,0-2.3-1.93c-1.37,0-2.07.63-2.07,1.53s.55,1.45,2.77,1.75c4.53.5,6.85,1.67,6.85,5.55,0,3.27-2.6,5.94-7.2,5.94C23.27,160.12,20.72,158,20.57,154.15Z" fill="#14aa40"/><path d="M35.87,156.2c0-3.07,2.6-4.27,7-4.27h1.25v-.3c0-1.25-.3-2.08-1.72-2.08a1.61,1.61,0,0,0-1.78,1.55h-4.2c.2-3.15,2.68-4.7,6.25-4.7s5.9,1.48,5.9,4.95v8.47H44.17V158.3a4.28,4.28,0,0,1-3.87,1.82C38,160.12,35.87,159,35.87,156.2Zm8.2-.95v-.8H42.9c-1.8,0-2.6.35-2.6,1.43,0,.75.5,1.22,1.55,1.22A2,2,0,0,0,44.07,155.25Z" fill="#14aa40"/><path d="M48.7,146.75h4.77l2.73,8.43,2.67-8.43h4.28l-4.78,13.07H53.5Z" fill="#14aa40"/><path d="M62.37,153.45v-.2c0-4.2,3.13-6.85,7.08-6.85,3.57,0,6.65,2,6.65,6.75v1.18H66.9a2.6,2.6,0,0,0,2.72,2.72c1.48,0,2.1-.67,2.28-1.55h4.2c-.4,2.95-2.68,4.62-6.63,4.62S62.37,157.73,62.37,153.45Zm9.38-1.65c-.08-1.57-.85-2.45-2.3-2.45A2.49,2.49,0,0,0,67,151.8Z" fill="#14aa40"/><path d="M81.1,155.28v-8.53h4.47v7.8c0,1.48.58,2.2,1.85,2.2s2.23-.8,2.23-2.47v-7.53h4.47v13.07H89.65v-2a4.3,4.3,0,0,1-4.15,2.32C83,160.12,81.1,158.58,81.1,155.28Z" fill="#14aa40"/><path d="M95.9,146.75h4.47v1.95a4.62,4.62,0,0,1,4.08-2.3c3,0,5.52,2.3,5.52,6.78v.2c0,4.5-2.47,6.74-5.55,6.74a4.31,4.31,0,0,1-4-2.22v6.3H95.9Zm9.52,6.63v-.2c0-2.3-1-3.4-2.57-3.4s-2.6,1.17-2.6,3.37v.2c0,2.23,1,3.35,2.6,3.35S105.42,155.53,105.42,153.38Z" fill="#14aa40"/><path d="M115.75,155.63V149.8h-1.58v-3.05h1.58V144h4.47v2.72h2.58v3.05h-2.58v5.4a1.2,1.2,0,0,0,1.33,1.38,3.38,3.38,0,0,0,1.27-.23v3.4a9.34,9.34,0,0,1-2.47.37C117.4,160.12,115.75,158.7,115.75,155.63Z" fill="#14aa40"/><path d="M123.3,153.45v-.2c0-4.2,3.12-6.85,7.17-6.85s7.12,2.58,7.12,6.73v.2c0,4.25-3.12,6.79-7.14,6.79S123.3,157.68,123.3,153.45Zm9.74-.07v-.2c0-2.2-.87-3.43-2.57-3.43s-2.6,1.18-2.6,3.38v.2c0,2.25.88,3.47,2.6,3.47S133,155.55,133,153.38Z" fill="#14aa40"/></g></g></g></svg>