<?xml version="1.0" encoding="utf-8"?>
<!-- Generator: Adobe Illustrator 24.0.2, SVG Export Plug-In . SVG Version: 6.00 Build 0)  -->
<svg version="1.1" id="Layer_1" xmlns="http://www.w3.org/2000/svg" xmlns:xlink="http://www.w3.org/1999/xlink" x="0px" y="0px"
	 viewBox="0 0 160 600" style="enable-background:new 0 0 160 600;" xml:space="preserve">
<style type="text/css">
	.st0{fill:none;}
	.st1{fill:#14AA40;}
</style>
<title>txt</title>
<g id="Layer_2_1_">
	<g id="headline1">
		<g id="Rect">
			<rect class="st0" width="160" height="600"/>
		</g>
		<g id="legal">
			<path class="st1" d="M20.8,419.9h1.8c1.2,0,2.3,0.5,2.3,1.9v0c0,1.4-1,1.9-2.3,1.9h-1v2.6h-0.8V419.9z M22.7,423.1
				c0.9,0,1.4-0.5,1.4-1.3v0c0-0.9-0.5-1.3-1.4-1.3h-1.1v2.6H22.7z"/>
			<path class="st1" d="M25.8,421.7h0.7v0.8c0.3-0.5,0.7-0.9,1.5-0.9v0.7c-0.9,0-1.5,0.3-1.5,1.5v2.6h-0.7V421.7z"/>
			<path class="st1" d="M29,420.2c0-0.3,0.2-0.5,0.5-0.5c0.3,0,0.5,0.2,0.5,0.5c0,0.3-0.2,0.5-0.5,0.5C29.2,420.7,29,420.5,29,420.2
				z M29.1,421.7h0.7v4.7h-0.7V421.7z"/>
			<path class="st1" d="M30.9,424.1L30.9,424.1c0-1.5,1-2.5,2.3-2.5c1,0,1.9,0.5,2,1.6h-0.7c-0.1-0.7-0.7-1-1.3-1
				c-0.9,0-1.5,0.7-1.5,1.8v0.1c0,1.2,0.6,1.8,1.5,1.8c0.7,0,1.3-0.4,1.4-1.2h0.7c-0.1,1-0.9,1.8-2.1,1.8
				C31.9,426.5,30.9,425.5,30.9,424.1z"/>
			<path class="st1" d="M35.9,424.1L35.9,424.1c0-1.5,0.9-2.5,2.2-2.5c1.1,0,2.1,0.7,2.1,2.3v0.2h-3.5c0,1.1,0.5,1.7,1.5,1.7
				c0.7,0,1.2-0.3,1.3-0.8h0.7c-0.2,0.9-0.9,1.4-2,1.4C36.8,426.5,35.9,425.5,35.9,424.1z M39.5,423.6c-0.1-1-0.6-1.4-1.4-1.4
				c-0.8,0-1.3,0.5-1.4,1.4H39.5z"/>
			<path class="st1" d="M43.1,424.1L43.1,424.1c0-1.5,0.9-2.5,2.2-2.5c0.8,0,1.3,0.4,1.5,0.8v-3h0.7v7h-0.7v-0.8
				c-0.3,0.5-0.9,0.9-1.6,0.9C44,426.5,43.1,425.6,43.1,424.1z M46.9,424.1L46.9,424.1c0-1.3-0.6-1.8-1.5-1.8
				c-0.9,0-1.5,0.7-1.5,1.8v0.1c0,1.2,0.6,1.8,1.4,1.8C46.2,425.8,46.9,425.3,46.9,424.1z"/>
			<path class="st1" d="M48.9,420.2c0-0.3,0.2-0.5,0.5-0.5c0.3,0,0.5,0.2,0.5,0.5c0,0.3-0.2,0.5-0.5,0.5
				C49.1,420.7,48.9,420.5,48.9,420.2z M49,421.7h0.7v4.7H49V421.7z"/>
			<path class="st1" d="M51.3,422.3h-0.7v-0.6h0.7V421c0-1,0.5-1.5,1.4-1.5c0.2,0,0.4,0,0.6,0.1v0.6c-0.1-0.1-0.3-0.1-0.5-0.1
				c-0.5,0-0.7,0.3-0.7,0.8v0.8h1.8v-0.8c0-1,0.5-1.5,1.4-1.5c0.2,0,0.4,0,0.6,0.1v0.6c-0.1-0.1-0.3-0.1-0.5-0.1
				c-0.5,0-0.7,0.3-0.7,0.8v0.8h1.2v0.6h-1.2v4.1h-0.7v-4.1h-1.8v4.1h-0.7V422.3z"/>
			<path class="st1" d="M56.1,424.1L56.1,424.1c0-1.5,0.9-2.5,2.2-2.5c1.1,0,2.1,0.7,2.1,2.3v0.2h-3.5c0,1.1,0.5,1.7,1.5,1.7
				c0.7,0,1.2-0.3,1.3-0.8h0.7c-0.2,0.9-0.9,1.4-2,1.4C57.1,426.5,56.1,425.5,56.1,424.1z M59.7,423.6c-0.1-1-0.6-1.4-1.4-1.4
				c-0.8,0-1.3,0.5-1.4,1.4H59.7z"/>
			<path class="st1" d="M61.5,421.7h0.7v0.8c0.3-0.5,0.7-0.9,1.5-0.9v0.7c-0.9,0-1.5,0.3-1.5,1.5v2.6h-0.7V421.7z"/>
			<path class="st1" d="M64.2,424.1L64.2,424.1c0-1.5,0.9-2.5,2.2-2.5c1.1,0,2.1,0.7,2.1,2.3v0.2H65c0,1.1,0.5,1.7,1.5,1.7
				c0.7,0,1.2-0.3,1.3-0.8h0.7c-0.2,0.9-0.9,1.4-2,1.4C65.2,426.5,64.2,425.5,64.2,424.1z M67.8,423.6c-0.1-1-0.6-1.4-1.4-1.4
				c-0.8,0-1.3,0.5-1.4,1.4H67.8z"/>
			<path class="st1" d="M69.6,421.7h0.7v0.7c0.2-0.4,0.7-0.8,1.5-0.8c1,0,1.7,0.5,1.7,1.9v2.9h-0.7v-2.9c0-0.8-0.4-1.2-1.1-1.2
				c-0.7,0-1.3,0.4-1.3,1.3v2.9h-0.7V421.7z"/>
			<path class="st1" d="M74.5,424.1L74.5,424.1c0-1.5,1-2.5,2.3-2.5c1,0,1.9,0.5,2,1.6H78c-0.1-0.7-0.7-1-1.3-1
				c-0.9,0-1.5,0.7-1.5,1.8v0.1c0,1.2,0.6,1.8,1.5,1.8c0.7,0,1.3-0.4,1.4-1.2h0.7c-0.1,1-0.9,1.8-2.1,1.8
				C75.4,426.5,74.5,425.5,74.5,424.1z"/>
			<path class="st1" d="M79.5,424.1L79.5,424.1c0-1.5,0.9-2.5,2.2-2.5c1.1,0,2.1,0.7,2.1,2.3v0.2h-3.5c0,1.1,0.5,1.7,1.5,1.7
				c0.7,0,1.2-0.3,1.3-0.8h0.7c-0.2,0.9-0.9,1.4-2,1.4C80.4,426.5,79.5,425.5,79.5,424.1z M83,423.6c-0.1-1-0.6-1.4-1.4-1.4
				c-0.8,0-1.3,0.5-1.4,1.4H83z"/>
			<path class="st1" d="M87.8,425.6v0.8H87v-7h0.7v3c0.3-0.5,0.9-0.9,1.6-0.9c1.2,0,2.1,0.9,2.1,2.4v0.1c0,1.4-0.8,2.4-2.1,2.4
				C88.6,426.5,88,426.1,87.8,425.6z M90.7,424.1L90.7,424.1c0-1.3-0.7-1.9-1.5-1.9c-0.9,0-1.5,0.6-1.5,1.8v0.1
				c0,1.2,0.6,1.8,1.5,1.8C90.2,425.8,90.7,425.2,90.7,424.1z"/>
			<path class="st1" d="M92.2,425.1c0-1.1,1.2-1.5,2.4-1.5h0.7v-0.3c0-0.7-0.3-1.1-1-1.1c-0.6,0-1,0.3-1.1,0.8h-0.7
				c0.1-1.1,1-1.5,1.9-1.5c0.9,0,1.7,0.4,1.7,1.7v3.1h-0.7v-0.6c-0.4,0.4-0.8,0.7-1.5,0.7C92.8,426.5,92.2,426,92.2,425.1z
				 M95.2,424.7v-0.6h-0.6c-0.9,0-1.6,0.2-1.6,0.9c0,0.5,0.2,0.8,0.9,0.8C94.6,425.9,95.2,425.5,95.2,424.7z"/>
			<path class="st1" d="M96.9,424.9h0.7c0.1,0.6,0.4,0.9,1.1,0.9c0.7,0,1-0.2,1-0.7c0-0.5-0.4-0.7-1.1-0.8c-1.2-0.2-1.6-0.6-1.6-1.4
				c0-0.9,0.9-1.3,1.6-1.3c0.8,0,1.6,0.3,1.7,1.4h-0.7c-0.1-0.5-0.4-0.7-1-0.7c-0.5,0-0.9,0.3-0.9,0.7c0,0.4,0.2,0.6,1.1,0.7
				c1,0.2,1.7,0.4,1.7,1.4c0,0.9-0.6,1.4-1.7,1.4C97.6,426.5,96.9,425.9,96.9,424.9z"/>
			<path class="st1" d="M101.1,424.1L101.1,424.1c0-1.5,0.9-2.5,2.2-2.5c1.1,0,2.1,0.7,2.1,2.3v0.2h-3.5c0,1.1,0.5,1.7,1.5,1.7
				c0.7,0,1.2-0.3,1.3-0.8h0.7c-0.2,0.9-0.9,1.4-2,1.4C102,426.5,101.1,425.5,101.1,424.1z M104.7,423.6c-0.1-1-0.6-1.4-1.4-1.4
				c-0.8,0-1.3,0.5-1.4,1.4H104.7z"/>
			<path class="st1" d="M106.1,424.1L106.1,424.1c0-1.5,0.9-2.5,2.2-2.5c0.8,0,1.3,0.4,1.5,0.8v-3h0.7v7h-0.7v-0.8
				c-0.3,0.5-0.9,0.9-1.6,0.9C107,426.5,106.1,425.6,106.1,424.1z M109.8,424.1L109.8,424.1c0-1.3-0.6-1.8-1.5-1.8
				c-0.9,0-1.5,0.7-1.5,1.8v0.1c0,1.2,0.6,1.8,1.4,1.8C109.2,425.8,109.8,425.3,109.8,424.1z"/>
			<path class="st1" d="M20.4,434.9L20.4,434.9c0-1.5,1-2.5,2.3-2.5s2.3,1,2.3,2.4v0.1c0,1.4-1,2.4-2.3,2.4
				C21.4,437.3,20.4,436.2,20.4,434.9z M24.3,434.9L24.3,434.9c0-1.2-0.6-1.9-1.5-1.9c-0.9,0-1.5,0.7-1.5,1.8v0.1
				c0,1.1,0.6,1.8,1.5,1.8C23.7,436.6,24.3,435.9,24.3,434.9z"/>
			<path class="st1" d="M26.1,432.5h0.7v0.7c0.2-0.4,0.7-0.8,1.5-0.8c1,0,1.7,0.5,1.7,1.9v2.9h-0.7v-2.9c0-0.8-0.4-1.2-1.1-1.2
				c-0.7,0-1.3,0.4-1.3,1.3v2.9h-0.7V432.5z"/>
			<path class="st1" d="M33.2,434.9L33.2,434.9c0-1.5,1-2.5,2.3-2.5c1,0,1.9,0.5,2,1.6h-0.7c-0.1-0.7-0.7-1-1.3-1
				c-0.9,0-1.5,0.7-1.5,1.8v0.1c0,1.2,0.6,1.8,1.5,1.8c0.7,0,1.3-0.4,1.4-1.2h0.7c-0.1,1-0.9,1.8-2.1,1.8
				C34.2,437.3,33.2,436.3,33.2,434.9z"/>
			<path class="st1" d="M38.2,434.9L38.2,434.9c0-1.5,1-2.5,2.3-2.5s2.3,1,2.3,2.4v0.1c0,1.4-1,2.4-2.3,2.4
				C39.2,437.3,38.2,436.2,38.2,434.9z M42.1,434.9L42.1,434.9c0-1.2-0.6-1.9-1.5-1.9c-0.9,0-1.5,0.7-1.5,1.8v0.1
				c0,1.1,0.6,1.8,1.5,1.8C41.5,436.6,42.1,435.9,42.1,434.9z"/>
			<path class="st1" d="M43.5,435.7h0.7c0.1,0.6,0.4,0.9,1.1,0.9c0.7,0,1-0.2,1-0.7c0-0.5-0.4-0.7-1.1-0.8c-1.2-0.2-1.6-0.6-1.6-1.4
				c0-0.9,0.9-1.3,1.6-1.3c0.8,0,1.6,0.3,1.7,1.4h-0.7c-0.1-0.5-0.4-0.7-1-0.7c-0.5,0-0.9,0.3-0.9,0.7c0,0.4,0.2,0.6,1.1,0.7
				c1,0.2,1.7,0.4,1.7,1.4c0,0.9-0.6,1.4-1.7,1.4C44.2,437.3,43.5,436.7,43.5,435.7z"/>
			<path class="st1" d="M48.2,436v-2.9h-0.7v-0.6h0.7v-1.1h0.7v1.1H50v0.6h-1.1v2.8c0,0.5,0.2,0.7,0.6,0.7c0.2,0,0.4,0,0.6-0.1v0.6
				c-0.2,0.1-0.3,0.1-0.6,0.1C48.6,437.2,48.2,436.7,48.2,436z"/>
			<path class="st1" d="M53.5,433.1h-0.7v-0.6h0.7v-0.8c0-1,0.5-1.5,1.4-1.5c0.2,0,0.4,0,0.6,0.1v0.6c-0.1-0.1-0.3-0.1-0.5-0.1
				c-0.5,0-0.7,0.3-0.7,0.8v0.8h1.2v0.6h-1.2v4.1h-0.7V433.1z"/>
			<path class="st1" d="M55.7,434.9L55.7,434.9c0-1.5,1-2.5,2.3-2.5s2.3,1,2.3,2.4v0.1c0,1.4-1,2.4-2.3,2.4
				C56.7,437.3,55.7,436.2,55.7,434.9z M59.6,434.9L59.6,434.9c0-1.2-0.6-1.9-1.5-1.9c-0.9,0-1.5,0.7-1.5,1.8v0.1
				c0,1.1,0.6,1.8,1.5,1.8C59,436.6,59.6,435.9,59.6,434.9z"/>
			<path class="st1" d="M61.4,432.5h0.7v0.8c0.3-0.5,0.7-0.9,1.5-0.9v0.7c-0.9,0-1.5,0.3-1.5,1.5v2.6h-0.7V432.5z"/>
			<path class="st1" d="M67.1,433.1h-0.7v-0.6h0.7v-0.8c0-1,0.5-1.5,1.4-1.5c0.2,0,0.4,0,0.6,0.1v0.6c-0.1-0.1-0.3-0.1-0.5-0.1
				c-0.5,0-0.7,0.3-0.7,0.8v0.8H69v0.6h-1.2v4.1h-0.7V433.1z"/>
			<path class="st1" d="M69.3,434.9L69.3,434.9c0-1.5,0.9-2.5,2.2-2.5c1.1,0,2.1,0.7,2.1,2.3v0.2h-3.5c0,1.1,0.5,1.7,1.5,1.7
				c0.7,0,1.2-0.3,1.3-0.8h0.7c-0.2,0.9-0.9,1.4-2,1.4C70.2,437.3,69.3,436.3,69.3,434.9z M72.9,434.4c-0.1-1-0.6-1.4-1.4-1.4
				c-0.8,0-1.3,0.5-1.4,1.4H72.9z"/>
			<path class="st1" d="M74.3,434.9L74.3,434.9c0-1.5,0.9-2.5,2.2-2.5c0.8,0,1.3,0.4,1.5,0.8v-3h0.7v7H78v-0.8
				c-0.3,0.5-0.9,0.9-1.6,0.9C75.2,437.3,74.3,436.4,74.3,434.9z M78,434.9L78,434.9c0-1.3-0.6-1.8-1.5-1.8c-0.9,0-1.5,0.7-1.5,1.8
				v0.1c0,1.2,0.6,1.8,1.4,1.8C77.4,436.6,78,436.1,78,434.9z"/>
			<path class="st1" d="M79.8,434.9L79.8,434.9c0-1.5,0.9-2.5,2.2-2.5c1.1,0,2.1,0.7,2.1,2.3v0.2h-3.5c0,1.1,0.5,1.7,1.5,1.7
				c0.7,0,1.2-0.3,1.3-0.8h0.7c-0.2,0.9-0.9,1.4-2,1.4C80.7,437.3,79.8,436.3,79.8,434.9z M83.3,434.4c-0.1-1-0.6-1.4-1.4-1.4
				c-0.8,0-1.3,0.5-1.4,1.4H83.3z"/>
			<path class="st1" d="M85.1,432.5h0.7v0.8c0.3-0.5,0.7-0.9,1.5-0.9v0.7c-0.9,0-1.5,0.3-1.5,1.5v2.6h-0.7V432.5z"/>
			<path class="st1" d="M87.9,435.9c0-1.1,1.2-1.5,2.4-1.5H91v-0.3c0-0.7-0.3-1.1-1-1.1c-0.6,0-1,0.3-1.1,0.8h-0.7
				c0.1-1.1,1-1.5,1.9-1.5c0.9,0,1.7,0.4,1.7,1.7v3.1H91v-0.6c-0.4,0.4-0.8,0.7-1.5,0.7C88.6,437.3,87.9,436.8,87.9,435.9z
				 M91,435.5V435h-0.6c-0.9,0-1.6,0.2-1.6,0.9c0,0.5,0.2,0.8,0.9,0.8C90.4,436.7,91,436.3,91,435.5z"/>
			<path class="st1" d="M93.1,430.2h0.8v7h-0.8V430.2z"/>
			<path class="st1" d="M97.1,435.9c0-1.1,1.2-1.5,2.4-1.5h0.7v-0.3c0-0.7-0.3-1.1-1-1.1c-0.6,0-1,0.3-1.1,0.8h-0.7
				c0.1-1.1,1-1.5,1.9-1.5c0.9,0,1.7,0.4,1.7,1.7v3.1h-0.7v-0.6c-0.4,0.4-0.8,0.7-1.5,0.7C97.8,437.3,97.1,436.8,97.1,435.9z
				 M100.1,435.5V435h-0.6c-0.9,0-1.6,0.2-1.6,0.9c0,0.5,0.2,0.8,0.9,0.8C99.5,436.7,100.1,436.3,100.1,435.5z"/>
			<path class="st1" d="M102.2,432.5h0.7v0.7c0.2-0.4,0.7-0.8,1.5-0.8c1,0,1.7,0.5,1.7,1.9v2.9h-0.7v-2.9c0-0.8-0.4-1.2-1.1-1.2
				c-0.7,0-1.3,0.4-1.3,1.3v2.9h-0.7V432.5z"/>
			<path class="st1" d="M107.1,434.9L107.1,434.9c0-1.5,0.9-2.5,2.2-2.5c0.8,0,1.3,0.4,1.5,0.8v-3h0.7v7h-0.7v-0.8
				c-0.3,0.5-0.9,0.9-1.6,0.9C108,437.3,107.1,436.4,107.1,434.9z M110.8,434.9L110.8,434.9c0-1.3-0.6-1.8-1.5-1.8
				c-0.9,0-1.5,0.7-1.5,1.8v0.1c0,1.2,0.6,1.8,1.4,1.8C110.2,436.6,110.8,436.1,110.8,434.9z"/>
			<path class="st1" d="M20.4,445.7L20.4,445.7c0-1.5,1-2.5,2.3-2.5s2.3,1,2.3,2.4v0.1c0,1.4-1,2.4-2.3,2.4
				C21.4,448.1,20.4,447,20.4,445.7z M24.3,445.7L24.3,445.7c0-1.2-0.6-1.9-1.5-1.9c-0.9,0-1.5,0.7-1.5,1.8v0.1
				c0,1.1,0.6,1.8,1.5,1.8C23.7,447.4,24.3,446.7,24.3,445.7z"/>
			<path class="st1" d="M26.1,443.3h0.7v0.7c0.2-0.4,0.7-0.8,1.5-0.8c1,0,1.7,0.5,1.7,1.9v2.9h-0.7V445c0-0.8-0.4-1.2-1.1-1.2
				c-0.7,0-1.3,0.4-1.3,1.3v2.9h-0.7V443.3z"/>
			<path class="st1" d="M31,445.7L31,445.7c0-1.5,0.9-2.5,2.2-2.5c1.1,0,2.1,0.7,2.1,2.3v0.2h-3.5c0,1.1,0.5,1.7,1.5,1.7
				c0.7,0,1.2-0.3,1.3-0.8h0.7c-0.2,0.9-0.9,1.4-2,1.4C31.9,448.1,31,447.1,31,445.7z M34.5,445.2c-0.1-1-0.6-1.4-1.4-1.4
				c-0.8,0-1.3,0.5-1.4,1.4H34.5z"/>
			<path class="st1" d="M38.1,446.5h0.7c0.1,0.6,0.4,0.9,1.1,0.9c0.7,0,1-0.2,1-0.7c0-0.5-0.4-0.7-1.1-0.8c-1.2-0.2-1.6-0.6-1.6-1.4
				c0-0.9,0.9-1.3,1.6-1.3c0.8,0,1.6,0.3,1.7,1.4h-0.7c-0.1-0.5-0.4-0.7-1-0.7c-0.5,0-0.9,0.3-0.9,0.7c0,0.4,0.2,0.6,1.1,0.7
				c1,0.2,1.7,0.4,1.7,1.4c0,0.9-0.6,1.4-1.7,1.4C38.9,448.1,38.2,447.5,38.1,446.5z"/>
			<path class="st1" d="M42.9,446.8v-2.9h-0.7v-0.6h0.7v-1.1h0.7v1.1h1.1v0.6h-1.1v2.8c0,0.5,0.2,0.7,0.6,0.7c0.2,0,0.4,0,0.6-0.1
				v0.6c-0.2,0.1-0.3,0.1-0.6,0.1C43.3,448,42.9,447.5,42.9,446.8z"/>
			<path class="st1" d="M45.4,446.7c0-1.1,1.2-1.5,2.4-1.5h0.7v-0.3c0-0.7-0.3-1.1-1-1.1c-0.6,0-1,0.3-1.1,0.8h-0.7
				c0.1-1.1,1-1.5,1.9-1.5c0.9,0,1.7,0.4,1.7,1.7v3.1h-0.7v-0.6c-0.4,0.4-0.8,0.7-1.5,0.7C46.1,448.1,45.4,447.6,45.4,446.7z
				 M48.5,446.3v-0.6h-0.6c-0.9,0-1.6,0.2-1.6,0.9c0,0.5,0.2,0.8,0.9,0.8C47.9,447.5,48.5,447.1,48.5,446.3z"/>
			<path class="st1" d="M50.7,446.8v-2.9H50v-0.6h0.7v-1.1h0.7v1.1h1.1v0.6h-1.1v2.8c0,0.5,0.2,0.7,0.6,0.7c0.2,0,0.4,0,0.6-0.1v0.6
				c-0.2,0.1-0.3,0.1-0.6,0.1C51.1,448,50.7,447.5,50.7,446.8z"/>
			<path class="st1" d="M53.3,445.7L53.3,445.7c0-1.5,0.9-2.5,2.2-2.5c1.1,0,2.1,0.7,2.1,2.3v0.2H54c0,1.1,0.5,1.7,1.5,1.7
				c0.7,0,1.2-0.3,1.3-0.8h0.7c-0.2,0.9-0.9,1.4-2,1.4C54.2,448.1,53.3,447.1,53.3,445.7z M56.8,445.2c-0.1-1-0.6-1.4-1.4-1.4
				c-0.8,0-1.3,0.5-1.4,1.4H56.8z"/>
			<path class="st1" d="M60.8,443.3h0.7v0.8c0.3-0.5,0.7-0.9,1.5-0.9v0.7c-0.9,0-1.5,0.3-1.5,1.5v2.6h-0.7V443.3z"/>
			<path class="st1" d="M63.6,445.7L63.6,445.7c0-1.5,0.9-2.5,2.2-2.5c1.1,0,2.1,0.7,2.1,2.3v0.2h-3.5c0,1.1,0.5,1.7,1.5,1.7
				c0.7,0,1.2-0.3,1.3-0.8h0.7c-0.2,0.9-0.9,1.4-2,1.4C64.5,448.1,63.6,447.1,63.6,445.7z M67.2,445.2c-0.1-1-0.6-1.4-1.4-1.4
				c-0.8,0-1.3,0.5-1.4,1.4H67.2z"/>
			<path class="st1" d="M69.1,446.8v-2.9h-0.7v-0.6h0.7v-1.1h0.7v1.1h1.1v0.6h-1.1v2.8c0,0.5,0.2,0.7,0.6,0.7c0.2,0,0.4,0,0.6-0.1
				v0.6c-0.2,0.1-0.3,0.1-0.6,0.1C69.5,448,69.1,447.5,69.1,446.8z"/>
			<path class="st1" d="M71.9,446.3v-3h0.7v2.9c0,0.8,0.4,1.2,1.1,1.2c0.7,0,1.3-0.4,1.3-1.3v-2.9h0.7v4.7h-0.7v-0.7
				c-0.2,0.4-0.7,0.8-1.5,0.8C72.6,448.1,71.9,447.6,71.9,446.3z"/>
			<path class="st1" d="M77.2,443.3h0.7v0.8c0.3-0.5,0.7-0.9,1.5-0.9v0.7c-0.9,0-1.5,0.3-1.5,1.5v2.6h-0.7V443.3z"/>
			<path class="st1" d="M80.4,443.3h0.7v0.7c0.2-0.4,0.7-0.8,1.5-0.8c1,0,1.7,0.5,1.7,1.9v2.9h-0.7V445c0-0.8-0.4-1.2-1.1-1.2
				c-0.7,0-1.3,0.4-1.3,1.3v2.9h-0.7V443.3z"/>
			<path class="st1" d="M85.6,447.5c0-0.3,0.3-0.6,0.6-0.6s0.6,0.3,0.6,0.6s-0.3,0.6-0.6,0.6S85.6,447.8,85.6,447.5z"/>
		</g>
		<g id="Switch_from_TurboTax._Save_up_to">
			<path class="st1" d="M20.6,73.2h4.9c0.1,1.3,0.7,2.3,2.8,2.3c1.5,0,2.3-0.7,2.3-1.8s-0.7-1.4-2.8-1.7c-5-0.6-6.8-2.1-6.8-5.7
				c0-3.2,2.6-5.6,6.9-5.6s6.7,1.8,7,5.6h-4.7c0-1.1-0.9-2-2-2c-0.1,0-0.2,0-0.3,0c-1.4,0-2.1,0.6-2.1,1.5s0.5,1.4,2.8,1.8
				c4.5,0.5,6.9,1.7,6.9,5.6c0,3.3-2.6,5.9-7.2,5.9C23.3,79.1,20.7,77,20.6,73.2z"/>
			<path class="st1" d="M35.8,65.8h4.7l1.9,7.8l2.2-7.8h3.6l2,7.8l2.1-7.8h4.2l-4.2,13.1H48l-2-7.3l-2,7.3h-4.4L35.8,65.8z"/>
			<path class="st1" d="M57.6,62.2c-0.1-1.4,0.9-2.5,2.3-2.6c1.4-0.1,2.5,0.9,2.6,2.3c0.1,1.4-0.9,2.5-2.3,2.6c-0.1,0-0.1,0-0.2,0
				C58.8,64.6,57.7,63.6,57.6,62.2C57.6,62.3,57.6,62.2,57.6,62.2z M57.8,65.8h4.5v13.1h-4.5V65.8z"/>
			<path class="st1" d="M65.3,74.6v-5.8h-1.6v-3h1.6V63h4.5v2.7h2.6v3h-2.6v5.4c-0.1,0.7,0.3,1.3,1,1.4c0.1,0,0.2,0,0.3,0
				c0.4,0,0.9-0.1,1.3-0.2v3.4c-0.8,0.2-1.6,0.4-2.5,0.4C67,79.1,65.3,77.7,65.3,74.6z"/>
			<path class="st1" d="M73.3,72.4v-0.2c0-4.3,3.1-6.8,7-6.8c3.2,0,6.2,1.4,6.4,5.4h-4.2c0-1.1-0.9-1.9-2-1.9h-0.1
				c-1.6,0-2.5,1.1-2.5,3.3v0.2c0,2.3,0.9,3.4,2.6,3.4c1.2,0.1,2.2-0.9,2.3-2.1v-0.1h4c-0.1,3.3-2.3,5.4-6.6,5.4
				C76.3,79.1,73.3,76.8,73.3,72.4z"/>
			<path class="st1" d="M88.3,60h4.5v7.8c0.8-1.6,2.5-2.5,4.3-2.4c2.5,0,4.3,1.6,4.3,4.9v8.5h-4.5v-7.6c0-1.5-0.6-2.2-1.9-2.2
				s-2.2,0.8-2.2,2.5v7.3h-4.5C88.3,78.8,88.3,60,88.3,60z"/>
			<path class="st1" d="M22,95.8h-1.6v-3H22v-1.2c0-3.3,2-4.8,5.1-4.8c0.7,0,1.4,0.1,2,0.3v3.3c-0.4-0.1-0.8-0.2-1.2-0.2
				c-0.7-0.1-1.4,0.4-1.5,1.1c0,0.1,0,0.2,0,0.3v1.2H29v3h-2.6v10H22V95.8z"/>
			<path class="st1" d="M30.6,92.8h4.5v2.6c0.6-1.8,2.4-2.9,4.2-2.8v4.2c-2.7-0.1-4.2,0.8-4.2,2.9v6.2h-4.5
				C30.6,105.9,30.6,92.8,30.6,92.8z"/>
			<path class="st1" d="M40.1,99.4v-0.2c0-4.2,3.1-6.8,7.2-6.8s7.1,2.6,7.1,6.7v0.2c0,4.3-3.1,6.8-7.2,6.8S40.1,103.7,40.1,99.4z
				 M49.8,99.4v-0.2c0-2.2-0.9-3.4-2.6-3.4s-2.6,1.2-2.6,3.4v0.2c0,2.3,0.9,3.5,2.6,3.5S49.8,101.6,49.8,99.4z"/>
			<path class="st1" d="M56,92.8h4.5v2c0.8-1.5,2.4-2.4,4.1-2.3c1.5-0.1,3,0.8,3.6,2.2c1-1.4,2.6-2.2,4.3-2.2c2.5,0,4.3,1.6,4.3,4.9
				v8.5h-4.5V98c0-1.3-0.7-2-1.7-2c-1.1,0-2,0.8-2,1.9c0,0.1,0,0.2,0,0.3v7.6h-4.4V98c0-1.3-0.7-2-1.7-2c-1.1,0-2,0.8-2,1.9
				c0,0.1,0,0.2,0,0.3v7.6H56V92.8z"/>
			<path class="st1" d="M25.1,118.9h-4.6v-4h14.4v4h-4.6v13.9h-5.1v-13.9H25.1z"/>
			<path class="st1" d="M35.3,128.3v-8.5h4.5v7.8c0,1.5,0.6,2.2,1.8,2.2s2.2-0.8,2.2-2.5v-7.5h4.5v13.1h-4.5v-2
				c-0.8,1.5-2.4,2.5-4.2,2.3C37.2,133.1,35.3,131.6,35.3,128.3z"/>
			<path class="st1" d="M50.6,119.8h4.5v2.6c0.6-1.8,2.3-2.9,4.2-2.8v4.2c-2.7-0.1-4.2,0.8-4.2,2.9v6.2h-4.5V119.8z"/>
			<path class="st1" d="M65.4,130.8v2H61V114h4.5v7.7c0.8-1.5,2.4-2.3,4.1-2.3c3,0,5.5,2.3,5.5,6.8v0.2c0,4.5-2.5,6.7-5.6,6.7
				C67.8,133.2,66.2,132.3,65.4,130.8z M70.4,126.4v-0.2c0-2.3-1-3.4-2.6-3.4s-2.6,1.2-2.6,3.4v0.2c0,2.2,1,3.4,2.6,3.4
				S70.5,128.5,70.4,126.4L70.4,126.4z"/>
			<path class="st1" d="M76,126.4v-0.2c0-4.2,3.1-6.8,7.2-6.8s7.1,2.6,7.1,6.7v0.2c0,4.3-3.1,6.8-7.2,6.8S76,130.7,76,126.4z
				 M85.8,126.4v-0.2c0-2.2-0.9-3.4-2.6-3.4s-2.6,1.2-2.6,3.4v0.2c0,2.2,0.9,3.5,2.6,3.5S85.7,128.6,85.8,126.4L85.8,126.4z"/>
			<path class="st1" d="M95.7,118.9H91v-4h14.4v4h-4.6v13.9h-5.2L95.7,118.9L95.7,118.9z"/>
			<path class="st1" d="M104.5,129.2c0-3.1,2.6-4.3,7-4.3h1.3v-0.3c0-1.3-0.3-2.1-1.7-2.1c-0.9-0.1-1.7,0.5-1.8,1.4v0.1H105
				c0.2-3.2,2.7-4.7,6.3-4.7s5.9,1.5,5.9,4.9v8.5h-4.3v-1.5c-0.9,1.3-2.3,1.9-3.9,1.8C106.6,133.1,104.5,132,104.5,129.2z
				 M112.7,128.3v-0.8h-1.2c-1.8,0-2.6,0.3-2.6,1.4c0,0.8,0.5,1.2,1.6,1.2C111.6,130.2,112.6,129.4,112.7,128.3L112.7,128.3z"/>
			<path class="st1" d="M122.7,126.2l-4.1-6.4h5.2l2,3.4l2-3.4h4.6l-4.1,6.1l4.5,7h-5.2l-2.3-3.9l-2.4,3.9h-4.6L122.7,126.2z"/>
			<path class="st1" d="M133.6,130.6c0-1.4,1.1-2.5,2.5-2.5h0.1c1.4-0.2,2.7,0.7,2.9,2.1s-0.7,2.7-2.1,2.9c-0.3,0-0.5,0-0.8,0
				C134.8,133.1,133.7,132,133.6,130.6L133.6,130.6z"/>
			<path class="st1" d="M20.6,154.1h4.9c0.1,1.3,0.7,2.3,2.8,2.3c1.5,0,2.3-0.7,2.3-1.8s-0.7-1.4-2.8-1.7c-5-0.6-6.8-2.1-6.8-5.7
				c0-3.2,2.6-5.6,6.9-5.6s6.7,1.8,7,5.6h-4.7c0-1.1-0.9-2-2-2c-0.1,0-0.2,0-0.3,0c-1.4,0-2.1,0.6-2.1,1.5s0.5,1.4,2.8,1.8
				c4.5,0.5,6.9,1.7,6.9,5.6c0,3.3-2.6,5.9-7.2,5.9C23.3,160.1,20.7,158,20.6,154.1z"/>
			<path class="st1" d="M35.9,156.2c0-3.1,2.6-4.3,7-4.3h1.3v-0.3c0-1.3-0.3-2.1-1.7-2.1c-0.9-0.1-1.7,0.5-1.8,1.4v0.1h-4.2
				c0.2-3.1,2.7-4.7,6.3-4.7s5.9,1.5,5.9,4.9v8.5h-4.4v-1.5c-0.9,1.3-2.3,1.9-3.9,1.8C38,160.1,35.9,159,35.9,156.2z M44.1,155.3
				v-0.8h-1.2c-1.8,0-2.6,0.4-2.6,1.4c0,0.8,0.5,1.2,1.5,1.2C42.9,157.2,43.9,156.4,44.1,155.3L44.1,155.3z"/>
			<path class="st1" d="M48.7,146.8h4.8l2.7,8.4l2.7-8.4h4.3l-4.8,13.1h-4.9L48.7,146.8z"/>
			<path class="st1" d="M62.4,153.4v-0.2c0-4.2,3.1-6.9,7.1-6.9c3.6,0,6.7,2,6.7,6.8v1.2H67c-0.1,1.4,1,2.7,2.5,2.7
				c0.1,0,0.2,0,0.2,0c1.5,0,2.1-0.7,2.3-1.6h4.2c-0.4,2.9-2.7,4.6-6.6,4.6S62.4,157.7,62.4,153.4z M71.8,151.8
				c-0.1-1.6-0.8-2.4-2.3-2.4c-1.3,0-2.4,1.1-2.4,2.4H71.8z"/>
			<path class="st1" d="M81.1,155.3v-8.5h4.5v7.8c0,1.5,0.6,2.2,1.8,2.2s2.2-0.8,2.2-2.5v-7.5h4.5v13.1h-4.5v-2
				c-0.8,1.5-2.4,2.5-4.2,2.3C83,160.1,81.1,158.6,81.1,155.3z"/>
			<path class="st1" d="M95.9,146.8h4.5v1.9c0.8-1.5,2.4-2.3,4.1-2.3c3,0,5.5,2.3,5.5,6.8v0.2c0,4.5-2.5,6.7-5.6,6.7
				c-1.6,0.1-3.2-0.8-4-2.2v6.3h-4.5V146.8z M105.4,153.4v-0.2c0-2.3-1-3.4-2.6-3.4s-2.6,1.2-2.6,3.4v0.2c0,2.2,1,3.4,2.6,3.4
				S105.4,155.5,105.4,153.4z"/>
			<path class="st1" d="M115.8,155.6v-5.8h-1.6v-3.1h1.6V144h4.5v2.7h2.6v3.1h-2.6v5.4c-0.1,0.7,0.3,1.3,1,1.4c0.1,0,0.2,0,0.3,0
				c0.4,0,0.9-0.1,1.3-0.2v3.4c-0.8,0.2-1.6,0.4-2.5,0.4C117.4,160.1,115.8,158.7,115.8,155.6z"/>
			<path class="st1" d="M123.3,153.4v-0.2c0-4.2,3.1-6.9,7.2-6.9c4,0,7.1,2.6,7.1,6.7v0.2c0,4.3-3.1,6.8-7.1,6.8
				S123.3,157.7,123.3,153.4z M133,153.4v-0.2c0-2.2-0.9-3.4-2.6-3.4s-2.6,1.2-2.6,3.4v0.2c0,2.3,0.9,3.5,2.6,3.5
				S133,155.6,133,153.4L133,153.4z"/>
		</g>
	</g>
</g>
</svg>
