<?xml version="1.0" encoding="utf-8"?>
<!-- Generator: Adobe Illustrator 24.0.2, SVG Export Plug-In . SVG Version: 6.00 Build 0)  -->
<svg version="1.1" id="Layer_1" xmlns="http://www.w3.org/2000/svg" xmlns:xlink="http://www.w3.org/1999/xlink" x="0px" y="0px"
	 viewBox="0 0 160 600" style="enable-background:new 0 0 160 600;" xml:space="preserve">
<style type="text/css">
	.st0{fill:none;}
	.st1{fill:#14AA40;}
</style>
<title>txt</title>
<g id="Layer_2_1_">
	<g id="headline1">
		<g id="Rect">
			<rect class="st0" width="160" height="600"/>
		</g>
		<g id="legal">
			<path class="st1" d="M20.3,432.2c0.4-0.1,0.9-0.1,1.5-0.1c0.8,0,1.3,0.2,1.7,0.5c0.3,0.3,0.5,0.7,0.5,1.3c0,0.5-0.2,1-0.5,1.3
				c-0.4,0.4-1.1,0.7-1.9,0.7c-0.2,0-0.5,0-0.6-0.1v2.4h-0.8V432.2z M21.1,435.1c0.2,0,0.4,0.1,0.6,0.1c0.9,0,1.5-0.5,1.5-1.3
				c0-0.8-0.6-1.2-1.4-1.2c-0.3,0-0.6,0-0.7,0.1V435.1z"/>
			<path class="st1" d="M24.9,435.2c0-0.5,0-1,0-1.4h0.7l0,0.9h0c0.2-0.6,0.7-1,1.2-1c0.1,0,0.2,0,0.2,0v0.7c-0.1,0-0.2,0-0.3,0
				c-0.6,0-1,0.4-1.1,1c0,0.1,0,0.2,0,0.4v2.3h-0.8V435.2z"/>
			<path class="st1" d="M28.8,432.6c0,0.3-0.2,0.5-0.5,0.5c-0.3,0-0.5-0.2-0.5-0.5c0-0.3,0.2-0.5,0.5-0.5
				C28.6,432.1,28.8,432.3,28.8,432.6z M27.9,438.2v-4.4h0.8v4.4H27.9z"/>
			<path class="st1" d="M33.1,438c-0.2,0.1-0.7,0.3-1.3,0.3c-1.3,0-2.2-0.9-2.2-2.2c0-1.3,0.9-2.3,2.3-2.3c0.5,0,0.9,0.1,1.1,0.2
				l-0.2,0.6c-0.2-0.1-0.5-0.2-0.9-0.2c-1,0-1.5,0.7-1.5,1.6c0,1,0.6,1.6,1.5,1.6c0.5,0,0.7-0.1,1-0.2L33.1,438z"/>
			<path class="st1" d="M34.4,436.2c0,1.1,0.7,1.5,1.5,1.5c0.6,0,0.9-0.1,1.2-0.2l0.1,0.6c-0.3,0.1-0.8,0.3-1.4,0.3
				c-1.3,0-2.1-0.9-2.1-2.2s0.8-2.3,2-2.3c1.4,0,1.8,1.3,1.8,2.1c0,0.2,0,0.3,0,0.4H34.4z M36.8,435.6c0-0.5-0.2-1.3-1.1-1.3
				c-0.8,0-1.2,0.7-1.2,1.3H36.8z"/>
			<path class="st1" d="M44.2,431.8v5.3c0,0.4,0,0.8,0,1.1h-0.7l0-0.8h0c-0.2,0.5-0.8,0.9-1.5,0.9c-1.1,0-1.9-0.9-1.9-2.2
				c0-1.5,0.9-2.3,2-2.3c0.7,0,1.1,0.3,1.3,0.7h0v-2.6H44.2z M43.4,435.6c0-0.1,0-0.2,0-0.3c-0.1-0.5-0.5-0.9-1.1-0.9
				c-0.8,0-1.3,0.7-1.3,1.7c0,0.9,0.4,1.6,1.3,1.6c0.5,0,1-0.4,1.2-0.9c0-0.1,0-0.2,0-0.3V435.6z"/>
			<path class="st1" d="M46.4,432.6c0,0.3-0.2,0.5-0.5,0.5c-0.3,0-0.5-0.2-0.5-0.5c0-0.3,0.2-0.5,0.5-0.5
				C46.2,432.1,46.4,432.3,46.4,432.6z M45.5,438.2v-4.4h0.8v4.4H45.5z"/>
			<path class="st1" d="M50.3,438.2v-3.8h-1.8v3.8h-0.8v-3.8h-0.6v-0.6h0.6v-0.1c0-0.6,0.1-1.1,0.5-1.5c0.3-0.3,0.6-0.4,1.1-0.4
				c0.3,0,0.5,0.1,0.6,0.2l-0.2,0.6c-0.1-0.1-0.3-0.1-0.5-0.1c-0.6,0-0.8,0.5-0.8,1.2v0.2h1.8v-0.2c0-0.6,0.1-1.2,0.5-1.5
				c0.3-0.3,0.7-0.4,1.1-0.4c0.3,0,0.5,0.1,0.7,0.1l-0.1,0.6c-0.1-0.1-0.3-0.1-0.5-0.1c-0.7,0-0.8,0.6-0.8,1.3v0.2h1.1v0.6h-1v3.8
				H50.3z"/>
			<path class="st1" d="M53.2,436.2c0,1.1,0.7,1.5,1.5,1.5c0.6,0,0.9-0.1,1.2-0.2L56,438c-0.3,0.1-0.8,0.3-1.4,0.3
				c-1.3,0-2.1-0.9-2.1-2.2s0.8-2.3,2-2.3c1.4,0,1.8,1.3,1.8,2.1c0,0.2,0,0.3,0,0.4H53.2z M55.5,435.6c0-0.5-0.2-1.3-1.1-1.3
				c-0.8,0-1.2,0.7-1.2,1.3H55.5z"/>
			<path class="st1" d="M57.2,435.2c0-0.5,0-1,0-1.4h0.7l0,0.9h0c0.2-0.6,0.7-1,1.2-1c0.1,0,0.2,0,0.2,0v0.7c-0.1,0-0.2,0-0.3,0
				c-0.6,0-1,0.4-1.1,1c0,0.1,0,0.2,0,0.4v2.3h-0.8V435.2z"/>
			<path class="st1" d="M60.5,436.2c0,1.1,0.7,1.5,1.5,1.5c0.6,0,0.9-0.1,1.2-0.2l0.1,0.6c-0.3,0.1-0.8,0.3-1.4,0.3
				c-1.3,0-2.1-0.9-2.1-2.2s0.8-2.3,2-2.3c1.4,0,1.8,1.3,1.8,2.1c0,0.2,0,0.3,0,0.4H60.5z M62.9,435.6c0-0.5-0.2-1.3-1.1-1.3
				c-0.8,0-1.2,0.7-1.2,1.3H62.9z"/>
			<path class="st1" d="M64.6,435c0-0.5,0-0.8,0-1.2h0.7l0,0.7h0c0.2-0.4,0.7-0.8,1.4-0.8c0.6,0,1.5,0.4,1.5,1.9v2.6h-0.8v-2.5
				c0-0.7-0.3-1.3-1-1.3c-0.5,0-0.9,0.4-1.1,0.8c0,0.1-0.1,0.2-0.1,0.4v2.6h-0.8V435z"/>
			<path class="st1" d="M72.7,438c-0.2,0.1-0.7,0.3-1.3,0.3c-1.3,0-2.2-0.9-2.2-2.2c0-1.3,0.9-2.3,2.3-2.3c0.5,0,0.9,0.1,1.1,0.2
				l-0.2,0.6c-0.2-0.1-0.5-0.2-0.9-0.2c-1,0-1.5,0.7-1.5,1.6c0,1,0.6,1.6,1.5,1.6c0.5,0,0.7-0.1,1-0.2L72.7,438z"/>
			<path class="st1" d="M74,436.2c0,1.1,0.7,1.5,1.5,1.5c0.6,0,0.9-0.1,1.2-0.2l0.1,0.6c-0.3,0.1-0.8,0.3-1.4,0.3
				c-1.3,0-2.1-0.9-2.1-2.2s0.8-2.3,2-2.3c1.4,0,1.8,1.3,1.8,2.1c0,0.2,0,0.3,0,0.4H74z M76.3,435.6c0-0.5-0.2-1.3-1.1-1.3
				c-0.8,0-1.2,0.7-1.2,1.3H76.3z"/>
			<path class="st1" d="M80,438.2c0-0.3,0-0.7,0-1.1v-5.3h0.8v2.7h0c0.3-0.5,0.8-0.8,1.5-0.8c1.1,0,1.8,0.9,1.8,2.2
				c0,1.6-1,2.3-2,2.3c-0.6,0-1.1-0.2-1.5-0.8h0l0,0.7H80z M80.8,436.4c0,0.1,0,0.2,0,0.3c0.2,0.5,0.6,0.9,1.2,0.9
				c0.8,0,1.3-0.7,1.3-1.7c0-0.9-0.5-1.6-1.3-1.6c-0.5,0-1,0.4-1.2,1c0,0.1,0,0.2,0,0.3V436.4z"/>
			<path class="st1" d="M87.5,438.2l-0.1-0.5h0c-0.2,0.3-0.7,0.6-1.3,0.6c-0.9,0-1.3-0.6-1.3-1.3c0-1.1,0.9-1.6,2.6-1.6v-0.1
				c0-0.4-0.1-1-1-1c-0.4,0-0.8,0.1-1.1,0.3l-0.2-0.5c0.4-0.2,0.9-0.4,1.4-0.4c1.3,0,1.7,0.9,1.7,1.8v1.6c0,0.4,0,0.7,0.1,1H87.5z
				 M87.4,436c-0.9,0-1.8,0.1-1.8,1c0,0.5,0.3,0.8,0.7,0.8c0.6,0,0.9-0.4,1.1-0.7c0-0.1,0-0.2,0-0.3V436z"/>
			<path class="st1" d="M89.3,437.4c0.2,0.2,0.6,0.3,1,0.3c0.6,0,0.8-0.3,0.8-0.6c0-0.4-0.2-0.6-0.8-0.8c-0.8-0.3-1.2-0.7-1.2-1.2
				c0-0.7,0.6-1.3,1.5-1.3c0.4,0,0.8,0.1,1.1,0.3l-0.2,0.6c-0.2-0.1-0.5-0.3-0.9-0.3c-0.5,0-0.7,0.3-0.7,0.6c0,0.4,0.3,0.5,0.8,0.7
				c0.8,0.3,1.1,0.7,1.1,1.3c0,0.8-0.6,1.3-1.6,1.3c-0.5,0-0.9-0.1-1.2-0.3L89.3,437.4z"/>
			<path class="st1" d="M93.5,436.2c0,1.1,0.7,1.5,1.5,1.5c0.6,0,0.9-0.1,1.2-0.2l0.1,0.6c-0.3,0.1-0.8,0.3-1.4,0.3
				c-1.3,0-2.1-0.9-2.1-2.2s0.8-2.3,2-2.3c1.4,0,1.8,1.3,1.8,2.1c0,0.2,0,0.3,0,0.4H93.5z M95.8,435.6c0-0.5-0.2-1.3-1.1-1.3
				c-0.8,0-1.2,0.7-1.2,1.3H95.8z"/>
			<path class="st1" d="M101.3,431.8v5.3c0,0.4,0,0.8,0,1.1h-0.7l0-0.8h0c-0.2,0.5-0.8,0.9-1.5,0.9c-1.1,0-1.9-0.9-1.9-2.2
				c0-1.5,0.9-2.3,2-2.3c0.7,0,1.1,0.3,1.3,0.7h0v-2.6H101.3z M100.5,435.6c0-0.1,0-0.2,0-0.3c-0.1-0.5-0.5-0.9-1.1-0.9
				c-0.8,0-1.3,0.7-1.3,1.7c0,0.9,0.4,1.6,1.3,1.6c0.5,0,1-0.4,1.2-0.9c0-0.1,0-0.2,0-0.3V435.6z"/>
			<path class="st1" d="M108.5,436c0,1.6-1.1,2.3-2.2,2.3c-1.2,0-2.1-0.9-2.1-2.2c0-1.5,1-2.3,2.2-2.3
				C107.6,433.7,108.5,434.6,108.5,436z M105,436c0,1,0.5,1.7,1.3,1.7c0.8,0,1.3-0.7,1.3-1.7c0-0.7-0.4-1.7-1.3-1.7
				S105,435.2,105,436z"/>
			<path class="st1" d="M109.4,435c0-0.5,0-0.8,0-1.2h0.7l0,0.7h0c0.2-0.4,0.7-0.8,1.4-0.8c0.6,0,1.5,0.4,1.5,1.9v2.6h-0.8v-2.5
				c0-0.7-0.3-1.3-1-1.3c-0.5,0-0.9,0.4-1.1,0.8c0,0.1-0.1,0.2-0.1,0.4v2.6h-0.8V435z"/>
			<path class="st1" d="M119.5,438c-0.2,0.1-0.7,0.3-1.3,0.3c-1.3,0-2.2-0.9-2.2-2.2c0-1.3,0.9-2.3,2.3-2.3c0.5,0,0.9,0.1,1.1,0.2
				l-0.2,0.6c-0.2-0.1-0.5-0.2-0.9-0.2c-1,0-1.5,0.7-1.5,1.6c0,1,0.6,1.6,1.5,1.6c0.5,0,0.7-0.1,1-0.2L119.5,438z"/>
			<path class="st1" d="M124.3,436c0,1.6-1.1,2.3-2.2,2.3c-1.2,0-2.1-0.9-2.1-2.2c0-1.5,1-2.3,2.2-2.3
				C123.4,433.7,124.3,434.6,124.3,436z M120.8,436c0,1,0.5,1.7,1.3,1.7c0.8,0,1.3-0.7,1.3-1.7c0-0.7-0.4-1.7-1.3-1.7
				C121.2,434.3,120.8,435.2,120.8,436z"/>
			<path class="st1" d="M125.2,437.4c0.2,0.2,0.6,0.3,1,0.3c0.6,0,0.8-0.3,0.8-0.6c0-0.4-0.2-0.6-0.8-0.8c-0.8-0.3-1.2-0.7-1.2-1.2
				c0-0.7,0.6-1.3,1.5-1.3c0.4,0,0.8,0.1,1.1,0.3l-0.2,0.6c-0.2-0.1-0.5-0.3-0.9-0.3c-0.5,0-0.7,0.3-0.7,0.6c0,0.4,0.3,0.5,0.8,0.7
				c0.8,0.3,1.1,0.7,1.1,1.3c0,0.8-0.6,1.3-1.6,1.3c-0.5,0-0.9-0.1-1.2-0.3L125.2,437.4z"/>
			<path class="st1" d="M129.8,432.6v1.3h1.1v0.6h-1.1v2.3c0,0.5,0.2,0.8,0.6,0.8c0.2,0,0.4,0,0.5-0.1l0,0.6
				c-0.2,0.1-0.4,0.1-0.7,0.1c-0.4,0-0.7-0.1-0.9-0.3c-0.2-0.2-0.3-0.6-0.3-1.1v-2.4h-0.7v-0.6h0.7v-1L129.8,432.6z"/>
			<path class="st1" d="M133.8,438.2v-3.8h-0.6v-0.6h0.6v-0.2c0-0.6,0.1-1.2,0.5-1.5c0.3-0.3,0.7-0.4,1.1-0.4c0.3,0,0.5,0.1,0.7,0.1
				l-0.1,0.6c-0.1-0.1-0.3-0.1-0.5-0.1c-0.7,0-0.8,0.6-0.8,1.3v0.2h1.1v0.6h-1.1v3.8H133.8z"/>
			<path class="st1" d="M140.2,436c0,1.6-1.1,2.3-2.2,2.3c-1.2,0-2.1-0.9-2.1-2.2c0-1.5,1-2.3,2.2-2.3
				C139.3,433.7,140.2,434.6,140.2,436z M136.7,436c0,1,0.5,1.7,1.3,1.7c0.8,0,1.3-0.7,1.3-1.7c0-0.7-0.4-1.7-1.3-1.7
				C137.1,434.3,136.7,435.2,136.7,436z"/>
			<path class="st1" d="M141.2,435.2c0-0.5,0-1,0-1.4h0.7l0,0.9h0c0.2-0.6,0.7-1,1.2-1c0.1,0,0.2,0,0.2,0v0.7c-0.1,0-0.2,0-0.3,0
				c-0.6,0-1,0.4-1.1,1c0,0.1,0,0.2,0,0.4v2.3h-0.8V435.2z"/>
			<path class="st1" d="M20.4,449v-3.8h-0.6v-0.6h0.6v-0.2c0-0.6,0.1-1.2,0.5-1.5c0.3-0.3,0.7-0.4,1.1-0.4c0.3,0,0.5,0.1,0.7,0.1
				l-0.1,0.6c-0.1-0.1-0.3-0.1-0.5-0.1c-0.7,0-0.8,0.6-0.8,1.3v0.2h1.1v0.6h-1.1v3.8H20.4z"/>
			<path class="st1" d="M23.2,447c0,1.1,0.7,1.5,1.5,1.5c0.6,0,0.9-0.1,1.2-0.2l0.1,0.6c-0.3,0.1-0.8,0.3-1.4,0.3
				c-1.3,0-2.1-0.9-2.1-2.2s0.8-2.3,2-2.3c1.4,0,1.8,1.3,1.8,2.1c0,0.2,0,0.3,0,0.4H23.2z M25.6,446.4c0-0.5-0.2-1.3-1.1-1.3
				c-0.8,0-1.2,0.7-1.2,1.3H25.6z"/>
			<path class="st1" d="M31.1,442.6v5.3c0,0.4,0,0.8,0,1.1h-0.7l0-0.8h0c-0.2,0.5-0.8,0.9-1.5,0.9c-1.1,0-1.9-0.9-1.9-2.2
				c0-1.5,0.9-2.3,2-2.3c0.7,0,1.1,0.3,1.3,0.7h0v-2.6H31.1z M30.3,446.4c0-0.1,0-0.2,0-0.3c-0.1-0.5-0.5-0.9-1.1-0.9
				c-0.8,0-1.3,0.7-1.3,1.7c0,0.9,0.4,1.6,1.3,1.6c0.5,0,1-0.4,1.2-0.9c0-0.1,0-0.2,0-0.3V446.4z"/>
			<path class="st1" d="M32.8,447c0,1.1,0.7,1.5,1.5,1.5c0.6,0,0.9-0.1,1.2-0.2l0.1,0.6c-0.3,0.1-0.8,0.3-1.4,0.3
				c-1.3,0-2.1-0.9-2.1-2.2s0.8-2.3,2-2.3c1.4,0,1.8,1.3,1.8,2.1c0,0.2,0,0.3,0,0.4H32.8z M35.2,446.4c0-0.5-0.2-1.3-1.1-1.3
				c-0.8,0-1.2,0.7-1.2,1.3H35.2z"/>
			<path class="st1" d="M36.9,446c0-0.5,0-1,0-1.4h0.7l0,0.9h0c0.2-0.6,0.7-1,1.2-1c0.1,0,0.2,0,0.2,0v0.7c-0.1,0-0.2,0-0.3,0
				c-0.6,0-1,0.4-1.1,1c0,0.1,0,0.2,0,0.4v2.3h-0.8V446z"/>
			<path class="st1" d="M42.2,449l-0.1-0.5h0c-0.2,0.3-0.7,0.6-1.3,0.6c-0.9,0-1.3-0.6-1.3-1.3c0-1.1,0.9-1.6,2.6-1.6v-0.1
				c0-0.4-0.1-1-1-1c-0.4,0-0.8,0.1-1.1,0.3l-0.2-0.5c0.4-0.2,0.9-0.4,1.4-0.4c1.3,0,1.7,0.9,1.7,1.8v1.6c0,0.4,0,0.7,0.1,1H42.2z
				 M42.1,446.8c-0.9,0-1.8,0.1-1.8,1c0,0.5,0.3,0.8,0.7,0.8c0.6,0,0.9-0.4,1.1-0.7c0-0.1,0-0.2,0-0.3V446.8z"/>
			<path class="st1" d="M44.1,442.6h0.8v6.4h-0.8V442.6z"/>
			<path class="st1" d="M50.6,449l-0.1-0.5h0c-0.2,0.3-0.7,0.6-1.3,0.6c-0.9,0-1.3-0.6-1.3-1.3c0-1.1,0.9-1.6,2.6-1.6v-0.1
				c0-0.4-0.1-1-1-1c-0.4,0-0.8,0.1-1.1,0.3l-0.2-0.5c0.4-0.2,0.9-0.4,1.4-0.4c1.3,0,1.7,0.9,1.7,1.8v1.6c0,0.4,0,0.7,0.1,1H50.6z
				 M50.5,446.8c-0.9,0-1.8,0.1-1.8,1c0,0.5,0.3,0.8,0.7,0.8c0.6,0,0.9-0.4,1.1-0.7c0-0.1,0-0.2,0-0.3V446.8z"/>
			<path class="st1" d="M52.5,445.8c0-0.5,0-0.8,0-1.2h0.7l0,0.7h0c0.2-0.4,0.7-0.8,1.4-0.8c0.6,0,1.5,0.4,1.5,1.9v2.6h-0.8v-2.5
				c0-0.7-0.3-1.3-1-1.3c-0.5,0-0.9,0.4-1.1,0.8c0,0.1-0.1,0.2-0.1,0.4v2.6h-0.8V445.8z"/>
			<path class="st1" d="M61.3,442.6v5.3c0,0.4,0,0.8,0,1.1h-0.7l0-0.8h0c-0.2,0.5-0.8,0.9-1.5,0.9c-1.1,0-1.9-0.9-1.9-2.2
				c0-1.5,0.9-2.3,2-2.3c0.7,0,1.1,0.3,1.3,0.7h0v-2.6H61.3z M60.5,446.4c0-0.1,0-0.2,0-0.3c-0.1-0.5-0.5-0.9-1.1-0.9
				c-0.8,0-1.3,0.7-1.3,1.7c0,0.9,0.4,1.6,1.3,1.6c0.5,0,1-0.4,1.2-0.9c0-0.1,0-0.2,0-0.3V446.4z"/>
			<path class="st1" d="M68.4,446.8c0,1.6-1.1,2.3-2.2,2.3c-1.2,0-2.1-0.9-2.1-2.2c0-1.5,1-2.3,2.2-2.3
				C67.6,444.5,68.4,445.4,68.4,446.8z M65,446.8c0,1,0.5,1.7,1.3,1.7c0.8,0,1.3-0.7,1.3-1.7c0-0.7-0.4-1.7-1.3-1.7
				C65.4,445.1,65,446,65,446.8z"/>
			<path class="st1" d="M69.4,445.8c0-0.5,0-0.8,0-1.2h0.7l0,0.7h0c0.2-0.4,0.7-0.8,1.4-0.8c0.6,0,1.5,0.4,1.5,1.9v2.6h-0.8v-2.5
				c0-0.7-0.3-1.3-1-1.3c-0.5,0-0.9,0.4-1.1,0.8c0,0.1-0.1,0.2-0.1,0.4v2.6h-0.8V445.8z"/>
			<path class="st1" d="M74.9,447c0,1.1,0.7,1.5,1.5,1.5c0.6,0,0.9-0.1,1.2-0.2l0.1,0.6c-0.3,0.1-0.8,0.3-1.4,0.3
				c-1.3,0-2.1-0.9-2.1-2.2s0.8-2.3,2-2.3c1.4,0,1.8,1.3,1.8,2.1c0,0.2,0,0.3,0,0.4H74.9z M77.2,446.4c0-0.5-0.2-1.3-1.1-1.3
				c-0.8,0-1.2,0.7-1.2,1.3H77.2z"/>
			<path class="st1" d="M80.7,448.2c0.2,0.2,0.6,0.3,1,0.3c0.6,0,0.8-0.3,0.8-0.6c0-0.4-0.2-0.6-0.8-0.8c-0.8-0.3-1.2-0.7-1.2-1.2
				c0-0.7,0.6-1.3,1.5-1.3c0.4,0,0.8,0.1,1.1,0.3l-0.2,0.6c-0.2-0.1-0.5-0.3-0.9-0.3c-0.5,0-0.7,0.3-0.7,0.6c0,0.4,0.3,0.5,0.8,0.7
				c0.8,0.3,1.1,0.7,1.1,1.3c0,0.8-0.6,1.3-1.6,1.3c-0.5,0-0.9-0.1-1.2-0.3L80.7,448.2z"/>
			<path class="st1" d="M85.4,443.4v1.3h1.1v0.6h-1.1v2.3c0,0.5,0.2,0.8,0.6,0.8c0.2,0,0.4,0,0.5-0.1l0,0.6
				c-0.2,0.1-0.4,0.1-0.7,0.1c-0.4,0-0.7-0.1-0.9-0.3c-0.2-0.2-0.3-0.6-0.3-1.1v-2.4h-0.7v-0.6h0.7v-1L85.4,443.4z"/>
			<path class="st1" d="M89.8,449l-0.1-0.5h0c-0.2,0.3-0.7,0.6-1.3,0.6c-0.9,0-1.3-0.6-1.3-1.3c0-1.1,0.9-1.6,2.6-1.6v-0.1
				c0-0.4-0.1-1-1-1c-0.4,0-0.8,0.1-1.1,0.3l-0.2-0.5c0.4-0.2,0.9-0.4,1.4-0.4c1.3,0,1.7,0.9,1.7,1.8v1.6c0,0.4,0,0.7,0.1,1H89.8z
				 M89.7,446.8c-0.9,0-1.8,0.1-1.8,1c0,0.5,0.3,0.8,0.7,0.8c0.6,0,0.9-0.4,1.1-0.7c0-0.1,0-0.2,0-0.3V446.8z"/>
			<path class="st1" d="M92.6,443.4v1.3h1.1v0.6h-1.1v2.3c0,0.5,0.2,0.8,0.6,0.8c0.2,0,0.4,0,0.5-0.1l0,0.6
				c-0.2,0.1-0.4,0.1-0.7,0.1c-0.4,0-0.7-0.1-0.9-0.3c-0.2-0.2-0.3-0.6-0.3-1.1v-2.4h-0.7v-0.6h0.7v-1L92.6,443.4z"/>
			<path class="st1" d="M95,447c0,1.1,0.7,1.5,1.5,1.5c0.6,0,0.9-0.1,1.2-0.2l0.1,0.6c-0.3,0.1-0.8,0.3-1.4,0.3
				c-1.3,0-2.1-0.9-2.1-2.2s0.8-2.3,2-2.3c1.4,0,1.8,1.3,1.8,2.1c0,0.2,0,0.3,0,0.4H95z M97.4,446.4c0-0.5-0.2-1.3-1.1-1.3
				c-0.8,0-1.2,0.7-1.2,1.3H97.4z"/>
			<path class="st1" d="M101,446c0-0.5,0-1,0-1.4h0.7l0,0.9h0c0.2-0.6,0.7-1,1.2-1c0.1,0,0.2,0,0.2,0v0.7c-0.1,0-0.2,0-0.3,0
				c-0.6,0-1,0.4-1.1,1c0,0.1,0,0.2,0,0.4v2.3H101V446z"/>
			<path class="st1" d="M104.3,447c0,1.1,0.7,1.5,1.5,1.5c0.6,0,0.9-0.1,1.2-0.2l0.1,0.6c-0.3,0.1-0.8,0.3-1.4,0.3
				c-1.3,0-2.1-0.9-2.1-2.2s0.8-2.3,2-2.3c1.4,0,1.8,1.3,1.8,2.1c0,0.2,0,0.3,0,0.4H104.3z M106.6,446.4c0-0.5-0.2-1.3-1.1-1.3
				c-0.8,0-1.2,0.7-1.2,1.3H106.6z"/>
			<path class="st1" d="M109.3,443.4v1.3h1.1v0.6h-1.1v2.3c0,0.5,0.2,0.8,0.6,0.8c0.2,0,0.4,0,0.5-0.1l0,0.6
				c-0.2,0.1-0.4,0.1-0.7,0.1c-0.4,0-0.7-0.1-0.9-0.3c-0.2-0.2-0.3-0.6-0.3-1.1v-2.4h-0.7v-0.6h0.7v-1L109.3,443.4z"/>
			<path class="st1" d="M115,447.8c0,0.5,0,0.8,0,1.2h-0.7l0-0.7h0c-0.2,0.4-0.7,0.8-1.4,0.8c-0.7,0-1.5-0.4-1.5-1.9v-2.5h0.8v2.4
				c0,0.8,0.3,1.4,1,1.4c0.5,0,0.9-0.4,1-0.7c0-0.1,0.1-0.3,0.1-0.4v-2.7h0.8V447.8z"/>
			<path class="st1" d="M116.3,446c0-0.5,0-1,0-1.4h0.7l0,0.9h0c0.2-0.6,0.7-1,1.2-1c0.1,0,0.2,0,0.2,0v0.7c-0.1,0-0.2,0-0.3,0
				c-0.6,0-1,0.4-1.1,1c0,0.1,0,0.2,0,0.4v2.3h-0.8V446z"/>
			<path class="st1" d="M119.3,445.8c0-0.5,0-0.8,0-1.2h0.7l0,0.7h0c0.2-0.4,0.7-0.8,1.4-0.8c0.6,0,1.5,0.4,1.5,1.9v2.6h-0.8v-2.5
				c0-0.7-0.3-1.3-1-1.3c-0.5,0-0.9,0.4-1.1,0.8c0,0.1-0.1,0.2-0.1,0.4v2.6h-0.8V445.8z"/>
			<path class="st1" d="M124.1,448.5c0-0.3,0.2-0.6,0.5-0.6c0.3,0,0.5,0.2,0.5,0.6c0,0.3-0.2,0.6-0.5,0.6
				C124.3,449.1,124.1,448.9,124.1,448.5z"/>
		</g>
		<g id="Switch_from_TurboTax._Save_up_to">
			<path class="st1" d="M20.6,73.2h4.9c0.1,1.3,0.7,2.3,2.8,2.3c1.5,0,2.3-0.7,2.3-1.8s-0.7-1.4-2.8-1.7c-5-0.6-6.8-2.1-6.8-5.7
				c0-3.2,2.6-5.6,6.9-5.6s6.7,1.8,7,5.6h-4.7c0-1.1-0.9-2-2-2c-0.1,0-0.2,0-0.3,0c-1.4,0-2.1,0.6-2.1,1.5s0.5,1.4,2.8,1.8
				c4.5,0.5,6.9,1.7,6.9,5.6c0,3.3-2.6,5.9-7.2,5.9C23.3,79.1,20.7,77,20.6,73.2z"/>
			<path class="st1" d="M35.8,65.8h4.7l1.9,7.8l2.2-7.8h3.6l2,7.8l2.1-7.8h4.2l-4.2,13.1H48l-2-7.3l-2,7.3h-4.4L35.8,65.8z"/>
			<path class="st1" d="M57.6,62.2c-0.1-1.4,0.9-2.5,2.3-2.6c1.4-0.1,2.5,0.9,2.6,2.3c0.1,1.4-0.9,2.5-2.3,2.6c-0.1,0-0.1,0-0.2,0
				C58.8,64.6,57.7,63.6,57.6,62.2C57.6,62.3,57.6,62.2,57.6,62.2z M57.8,65.8h4.5v13.1h-4.5V65.8z"/>
			<path class="st1" d="M65.3,74.6v-5.8h-1.6v-3h1.6V63h4.5v2.7h2.6v3h-2.6v5.4c-0.1,0.7,0.3,1.3,1,1.4c0.1,0,0.2,0,0.3,0
				c0.4,0,0.9-0.1,1.3-0.2v3.4c-0.8,0.2-1.6,0.4-2.5,0.4C67,79.1,65.3,77.7,65.3,74.6z"/>
			<path class="st1" d="M73.3,72.4v-0.2c0-4.3,3.1-6.8,7-6.8c3.2,0,6.2,1.4,6.4,5.4h-4.2c0-1.1-0.9-1.9-2-1.9h-0.1
				c-1.6,0-2.5,1.1-2.5,3.3v0.2c0,2.3,0.9,3.4,2.6,3.4c1.2,0.1,2.2-0.9,2.3-2.1v-0.1h4c-0.1,3.3-2.3,5.4-6.6,5.4
				C76.3,79.1,73.3,76.8,73.3,72.4z"/>
			<path class="st1" d="M88.3,60h4.5v7.8c0.8-1.6,2.5-2.5,4.3-2.4c2.5,0,4.3,1.6,4.3,4.9v8.5h-4.5v-7.6c0-1.5-0.6-2.2-1.9-2.2
				s-2.2,0.8-2.2,2.5v7.3h-4.5C88.3,78.8,88.3,60,88.3,60z"/>
			<path class="st1" d="M22,95.8h-1.6v-3H22v-1.2c0-3.3,2-4.8,5.1-4.8c0.7,0,1.4,0.1,2,0.3v3.3c-0.4-0.1-0.8-0.2-1.2-0.2
				c-0.7-0.1-1.4,0.4-1.5,1.1c0,0.1,0,0.2,0,0.3v1.2H29v3h-2.6v10H22V95.8z"/>
			<path class="st1" d="M30.6,92.8h4.5v2.6c0.6-1.8,2.4-2.9,4.2-2.8v4.2c-2.7-0.1-4.2,0.8-4.2,2.9v6.2h-4.5
				C30.6,105.9,30.6,92.8,30.6,92.8z"/>
			<path class="st1" d="M40.1,99.4v-0.2c0-4.2,3.1-6.8,7.2-6.8s7.1,2.6,7.1,6.7v0.2c0,4.3-3.1,6.8-7.2,6.8S40.1,103.7,40.1,99.4z
				 M49.8,99.4v-0.2c0-2.2-0.9-3.4-2.6-3.4s-2.6,1.2-2.6,3.4v0.2c0,2.3,0.9,3.5,2.6,3.5S49.8,101.6,49.8,99.4z"/>
			<path class="st1" d="M56,92.8h4.5v2c0.8-1.5,2.4-2.4,4.1-2.3c1.5-0.1,3,0.8,3.6,2.2c1-1.4,2.6-2.2,4.3-2.2c2.5,0,4.3,1.6,4.3,4.9
				v8.5h-4.5V98c0-1.3-0.7-2-1.7-2c-1.1,0-2,0.8-2,1.9c0,0.1,0,0.2,0,0.3v7.6h-4.4V98c0-1.3-0.7-2-1.7-2c-1.1,0-2,0.8-2,1.9
				c0,0.1,0,0.2,0,0.3v7.6H56V92.8z"/>
			<path class="st1" d="M25.1,118.9h-4.6v-4h14.4v4h-4.6v13.9h-5.1v-13.9H25.1z"/>
			<path class="st1" d="M35.3,128.3v-8.5h4.5v7.8c0,1.5,0.6,2.2,1.8,2.2s2.2-0.8,2.2-2.5v-7.5h4.5v13.1h-4.5v-2
				c-0.8,1.5-2.4,2.5-4.2,2.3C37.2,133.1,35.3,131.6,35.3,128.3z"/>
			<path class="st1" d="M50.6,119.8h4.5v2.6c0.6-1.8,2.3-2.9,4.2-2.8v4.2c-2.7-0.1-4.2,0.8-4.2,2.9v6.2h-4.5V119.8z"/>
			<path class="st1" d="M65.4,130.8v2H61V114h4.5v7.7c0.8-1.5,2.4-2.3,4.1-2.3c3,0,5.5,2.3,5.5,6.8v0.2c0,4.5-2.5,6.7-5.6,6.7
				C67.8,133.2,66.2,132.3,65.4,130.8z M70.4,126.4v-0.2c0-2.3-1-3.4-2.6-3.4s-2.6,1.2-2.6,3.4v0.2c0,2.2,1,3.4,2.6,3.4
				S70.5,128.5,70.4,126.4L70.4,126.4z"/>
			<path class="st1" d="M76,126.4v-0.2c0-4.2,3.1-6.8,7.2-6.8s7.1,2.6,7.1,6.7v0.2c0,4.3-3.1,6.8-7.2,6.8S76,130.7,76,126.4z
				 M85.8,126.4v-0.2c0-2.2-0.9-3.4-2.6-3.4s-2.6,1.2-2.6,3.4v0.2c0,2.2,0.9,3.5,2.6,3.5S85.7,128.6,85.8,126.4L85.8,126.4z"/>
			<path class="st1" d="M95.7,118.9H91v-4h14.4v4h-4.6v13.9h-5.2L95.7,118.9L95.7,118.9z"/>
			<path class="st1" d="M104.5,129.2c0-3.1,2.6-4.3,7-4.3h1.3v-0.3c0-1.3-0.3-2.1-1.7-2.1c-0.9-0.1-1.7,0.5-1.8,1.4v0.1H105
				c0.2-3.2,2.7-4.7,6.3-4.7s5.9,1.5,5.9,4.9v8.5h-4.3v-1.5c-0.9,1.3-2.3,1.9-3.9,1.8C106.6,133.1,104.5,132,104.5,129.2z
				 M112.7,128.3v-0.8h-1.2c-1.8,0-2.6,0.3-2.6,1.4c0,0.8,0.5,1.2,1.6,1.2C111.6,130.2,112.6,129.4,112.7,128.3L112.7,128.3z"/>
			<path class="st1" d="M122.7,126.2l-4.1-6.4h5.2l2,3.4l2-3.4h4.6l-4.1,6.1l4.5,7h-5.2l-2.3-3.9l-2.4,3.9h-4.6L122.7,126.2z"/>
			<path class="st1" d="M133.6,130.6c0-1.4,1.1-2.5,2.5-2.5h0.1c1.4-0.2,2.7,0.7,2.9,2.1s-0.7,2.7-2.1,2.9c-0.3,0-0.5,0-0.8,0
				C134.8,133.1,133.7,132,133.6,130.6L133.6,130.6z"/>
			<path class="st1" d="M20.6,154.1h4.9c0.1,1.3,0.7,2.3,2.8,2.3c1.5,0,2.3-0.7,2.3-1.8s-0.7-1.4-2.8-1.7c-5-0.6-6.8-2.1-6.8-5.7
				c0-3.2,2.6-5.6,6.9-5.6s6.7,1.8,7,5.6h-4.7c0-1.1-0.9-2-2-2c-0.1,0-0.2,0-0.3,0c-1.4,0-2.1,0.6-2.1,1.5s0.5,1.4,2.8,1.8
				c4.5,0.5,6.9,1.7,6.9,5.6c0,3.3-2.6,5.9-7.2,5.9C23.3,160.1,20.7,158,20.6,154.1z"/>
			<path class="st1" d="M35.9,156.2c0-3.1,2.6-4.3,7-4.3h1.3v-0.3c0-1.3-0.3-2.1-1.7-2.1c-0.9-0.1-1.7,0.5-1.8,1.4v0.1h-4.2
				c0.2-3.1,2.7-4.7,6.3-4.7s5.9,1.5,5.9,4.9v8.5h-4.4v-1.5c-0.9,1.3-2.3,1.9-3.9,1.8C38,160.1,35.9,159,35.9,156.2z M44.1,155.3
				v-0.8h-1.2c-1.8,0-2.6,0.4-2.6,1.4c0,0.8,0.5,1.2,1.5,1.2C42.9,157.2,43.9,156.4,44.1,155.3L44.1,155.3z"/>
			<path class="st1" d="M48.7,146.8h4.8l2.7,8.4l2.7-8.4h4.3l-4.8,13.1h-4.9L48.7,146.8z"/>
			<path class="st1" d="M62.4,153.4v-0.2c0-4.2,3.1-6.9,7.1-6.9c3.6,0,6.7,2,6.7,6.8v1.2H67c-0.1,1.4,1,2.7,2.5,2.7
				c0.1,0,0.2,0,0.2,0c1.5,0,2.1-0.7,2.3-1.6h4.2c-0.4,2.9-2.7,4.6-6.6,4.6S62.4,157.7,62.4,153.4z M71.8,151.8
				c-0.1-1.6-0.8-2.4-2.3-2.4c-1.3,0-2.4,1.1-2.4,2.4H71.8z"/>
			<path class="st1" d="M81.1,155.3v-8.5h4.5v7.8c0,1.5,0.6,2.2,1.8,2.2s2.2-0.8,2.2-2.5v-7.5h4.5v13.1h-4.5v-2
				c-0.8,1.5-2.4,2.5-4.2,2.3C83,160.1,81.1,158.6,81.1,155.3z"/>
			<path class="st1" d="M95.9,146.8h4.5v1.9c0.8-1.5,2.4-2.3,4.1-2.3c3,0,5.5,2.3,5.5,6.8v0.2c0,4.5-2.5,6.7-5.6,6.7
				c-1.6,0.1-3.2-0.8-4-2.2v6.3h-4.5V146.8z M105.4,153.4v-0.2c0-2.3-1-3.4-2.6-3.4s-2.6,1.2-2.6,3.4v0.2c0,2.2,1,3.4,2.6,3.4
				S105.4,155.5,105.4,153.4z"/>
			<path class="st1" d="M115.8,155.6v-5.8h-1.6v-3.1h1.6V144h4.5v2.7h2.6v3.1h-2.6v5.4c-0.1,0.7,0.3,1.3,1,1.4c0.1,0,0.2,0,0.3,0
				c0.4,0,0.9-0.1,1.3-0.2v3.4c-0.8,0.2-1.6,0.4-2.5,0.4C117.4,160.1,115.8,158.7,115.8,155.6z"/>
			<path class="st1" d="M123.3,153.4v-0.2c0-4.2,3.1-6.9,7.2-6.9c4,0,7.1,2.6,7.1,6.7v0.2c0,4.3-3.1,6.8-7.1,6.8
				S123.3,157.7,123.3,153.4z M133,153.4v-0.2c0-2.2-0.9-3.4-2.6-3.4s-2.6,1.2-2.6,3.4v0.2c0,2.3,0.9,3.5,2.6,3.5
				S133,155.6,133,153.4L133,153.4z"/>
		</g>
	</g>
</g>
</svg>
