<svg xmlns="http://www.w3.org/2000/svg" viewBox="0 0 300 600"><title>20_solid</title><g id="Layer_2" data-name="Layer 2"><g id="Rect"><rect width="300" height="600" fill="none"/></g><g id="_20_Solid" data-name="$20_Solid"><path d="M72.61,348.34l38.58-40.89c11-11.73,18.21-21.14,18.21-30.4,0-7.4-3.86-12.34-11.73-12.34s-12.81,4.78-14.2,17.9H74.77C75.85,255,92.52,241,119.21,241c27,0,41.35,14.5,41.35,34.87,0,15.12-8.48,26.54-20.83,38.42l-15.43,15h37v23.6H72.61Z" fill="#14aa40" stroke="#14aa40" stroke-miterlimit="10" stroke-width="3"/><path d="M165.65,300v-4.62c0-34.88,21.76-54.47,50.92-54.47S267.49,259,267.49,294.8v4.32c0,35-20.06,55.55-51.54,55.55C185.09,354.67,165.65,334.76,165.65,300Zm70.21-.3v-4.48c0-20.21-5.87-30.4-19.29-30.4-13.27,0-19.29,10-19.29,30.4v4.63c0,20.52,6,30.24,19.6,30.24S235.86,320.1,235.86,299.74Z" fill="#14aa40" stroke="#14aa40" stroke-miterlimit="10" stroke-width="3"/><path d="M50.84,273.22l-5.1-.85c-11.36-1.64-16.19-5.75-16.19-14.83,0-7.9,6.2-13.58,16.19-14.29v-5.81h5.1v5.87c9.46.78,15.08,5.16,15.86,14.1H54.88c-.39-2.48-1.37-4.17-4-4.89m0,0a12.27,12.27,0,0,0-5.1-.13c-2.92.51-4.44,2.09-4.44,4.18,0,2.28.92,3.46,4.44,4.17l5.1.79c10,1.43,16.52,4.83,16.52,14.3,0,8-5.16,14.62-16.52,15.34v8.16h-5.1v-8.16c-11.29-.78-16.78-6.79-17.23-15.41H40.59c.32,3,1.56,5.36,5.15,6.14a20,20,0,0,0,5.1,0,4.75,4.75,0,0,0,4.37-4.64c0-2.15-.91-3.26-4.37-4" fill="#14aa40" stroke="#14aa40" stroke-miterlimit="10" stroke-width="3"/></g></g></svg>