<svg xmlns="http://www.w3.org/2000/svg" viewBox="0 0 300 600"><title>grid</title><g id="Layer_2" data-name="Layer 2"><g id="Rect"><rect width="300" height="600" fill="none"/></g><g id="Grid_Outer"><g id="Grid_Inner"><path id="_20" data-name="$20" d="M243.88,424.12,239,423.3c-11-1.58-15.7-5.57-15.7-14.37,0-7.66,6-13.16,15.7-13.86v-5.63h4.93v5.7c9.18.75,14.62,5,15.38,13.67H247.81c-.38-2.41-1.33-4.05-3.93-4.75m0,0a11.88,11.88,0,0,0-4.93-.13c-2.84.5-4.31,2-4.31,4.05,0,2.22.89,3.36,4.31,4l4.93.76c9.69,1.4,16,4.69,16,13.86,0,7.73-5,14.18-16,14.88v7.91H239v-7.91c-10.95-.76-16.27-6.58-16.71-14.94H234c.31,2.91,1.51,5.19,5,6a19.24,19.24,0,0,0,4.93,0,4.6,4.6,0,0,0,4.24-4.49c0-2.09-.88-3.17-4.24-3.93" fill="#14aa40" stroke="#14aa40" stroke-miterlimit="10" stroke-width="2"/><path id="_19" data-name="$19" d="M198.35,424.12l-4.94-.82c-11-1.58-15.69-5.57-15.69-14.37,0-7.66,6-13.16,15.69-13.86v-5.63h4.94v5.7c9.18.75,14.62,5,15.38,13.67H202.27c-.38-2.41-1.33-4.05-3.92-4.75m0,0a11.92,11.92,0,0,0-4.94-.13c-2.83.5-4.3,2-4.3,4.05,0,2.22.89,3.36,4.3,4l4.94.76c9.68,1.4,16,4.69,16,13.86,0,7.73-5,14.18-16,14.88v7.91h-4.94v-7.91c-10.95-.76-16.26-6.58-16.71-14.94h11.71c.32,2.91,1.52,5.19,5,6a19.3,19.3,0,0,0,4.94,0,4.6,4.6,0,0,0,4.24-4.49c0-2.09-.89-3.17-4.24-3.93" fill="#14aa40" stroke="#14aa40" stroke-miterlimit="10" stroke-width="2"/><path id="_18" data-name="$18" d="M152.82,424.12l-4.94-.82c-11-1.58-15.7-5.57-15.7-14.37,0-7.66,6-13.16,15.7-13.86v-5.63h4.94v5.7c9.17.75,14.62,5,15.38,13.67H156.74c-.38-2.41-1.33-4.05-3.92-4.75m0,0a11.94,11.94,0,0,0-4.94-.13c-2.83.5-4.3,2-4.3,4.05,0,2.22.88,3.36,4.3,4l4.94.76c9.68,1.4,16,4.69,16,13.86,0,7.73-5,14.18-16,14.88v7.91h-4.94v-7.91c-10.95-.76-16.27-6.58-16.71-14.94h11.71c.32,2.91,1.52,5.19,5,6a19.3,19.3,0,0,0,4.94,0,4.6,4.6,0,0,0,4.24-4.49c0-2.09-.89-3.17-4.24-3.93" fill="#14aa40" stroke="#14aa40" stroke-miterlimit="10" stroke-width="2"/><path id="_17" data-name="$17" d="M107.28,424.12l-4.93-.82c-11-1.58-15.7-5.57-15.7-14.37,0-7.66,6-13.16,15.7-13.86v-5.63h4.93v5.7c9.18.75,14.62,5,15.38,13.67H111.21c-.38-2.41-1.33-4.05-3.93-4.75m0,0a11.88,11.88,0,0,0-4.93-.13c-2.84.5-4.31,2-4.31,4.05,0,2.22.89,3.36,4.31,4l4.93.76c9.69,1.4,16,4.69,16,13.86,0,7.73-5,14.18-16,14.88v7.91h-4.93v-7.91c-10.95-.76-16.27-6.58-16.71-14.94H97.35c.31,2.91,1.52,5.19,5,6a19.24,19.24,0,0,0,4.93,0,4.6,4.6,0,0,0,4.24-4.49c0-2.09-.88-3.17-4.24-3.93" fill="#14aa40" stroke="#14aa40" stroke-miterlimit="10" stroke-width="2"/><path id="_16" data-name="$16" d="M61.75,424.12l-4.94-.82c-11-1.58-15.69-5.57-15.69-14.37,0-7.66,6-13.16,15.69-13.86v-5.63h4.94v5.7c9.18.75,14.62,5,15.38,13.67H65.67c-.38-2.41-1.32-4.05-3.92-4.75m0,0a11.92,11.92,0,0,0-4.94-.13c-2.83.5-4.3,2-4.3,4.05,0,2.22.89,3.36,4.3,4l4.94.76c9.68,1.4,16,4.69,16,13.86,0,7.73-5,14.18-16,14.88v7.91H56.81v-7.91c-11-.76-16.26-6.58-16.71-14.94H51.81c.32,2.91,1.52,5.19,5,6a19.3,19.3,0,0,0,4.94,0A4.6,4.6,0,0,0,66,428.05c0-2.09-.89-3.17-4.24-3.93" fill="#14aa40" stroke="#14aa40" stroke-miterlimit="10" stroke-width="2"/><path id="_15" data-name="$15" d="M243.88,364.12,239,363.3c-11-1.58-15.7-5.57-15.7-14.37,0-7.66,6-13.16,15.7-13.86v-5.63h4.93v5.7c9.18.75,14.62,5,15.38,13.67H247.81c-.38-2.41-1.33-4.05-3.93-4.75m0,0a11.88,11.88,0,0,0-4.93-.13c-2.84.5-4.31,2-4.31,4.05,0,2.22.89,3.36,4.31,4l4.93.76c9.69,1.4,16,4.69,16,13.86,0,7.73-5,14.18-16,14.88v7.91H239v-7.91c-10.95-.76-16.27-6.58-16.71-14.94H234c.31,2.91,1.51,5.19,5,6a19.24,19.24,0,0,0,4.93,0,4.6,4.6,0,0,0,4.24-4.49c0-2.09-.88-3.17-4.24-3.93" fill="#14aa40" stroke="#14aa40" stroke-miterlimit="10" stroke-width="2"/><path id="_14" data-name="$14" d="M198.35,364.12l-4.94-.82c-11-1.58-15.69-5.57-15.69-14.37,0-7.66,6-13.16,15.69-13.86v-5.63h4.94v5.7c9.18.75,14.62,5,15.38,13.67H202.27c-.38-2.41-1.33-4.05-3.92-4.75m0,0a11.92,11.92,0,0,0-4.94-.13c-2.83.5-4.3,2-4.3,4.05,0,2.22.89,3.36,4.3,4l4.94.76c9.68,1.4,16,4.69,16,13.86,0,7.73-5,14.18-16,14.88v7.91h-4.94v-7.91c-10.95-.76-16.26-6.58-16.71-14.94h11.71c.32,2.91,1.52,5.19,5,6a19.3,19.3,0,0,0,4.94,0,4.6,4.6,0,0,0,4.24-4.49c0-2.09-.89-3.17-4.24-3.93" fill="#14aa40" stroke="#14aa40" stroke-miterlimit="10" stroke-width="2"/><path id="_13" data-name="$13" d="M152.82,364.12l-4.94-.82c-11-1.58-15.7-5.57-15.7-14.37,0-7.66,6-13.16,15.7-13.86v-5.63h4.94v5.7c9.17.75,14.62,5,15.38,13.67H156.74c-.38-2.41-1.33-4.05-3.92-4.75m0,0a11.94,11.94,0,0,0-4.94-.13c-2.83.5-4.3,2-4.3,4.05,0,2.22.88,3.36,4.3,4l4.94.76c9.68,1.4,16,4.69,16,13.86,0,7.73-5,14.18-16,14.88v7.91h-4.94v-7.91c-10.95-.76-16.27-6.58-16.71-14.94h11.71c.32,2.91,1.52,5.19,5,6a19.3,19.3,0,0,0,4.94,0,4.6,4.6,0,0,0,4.24-4.49c0-2.09-.89-3.17-4.24-3.93" fill="#14aa40" stroke="#14aa40" stroke-miterlimit="10" stroke-width="2"/><path id="_12" data-name="$12" d="M107.28,364.12l-4.93-.82c-11-1.58-15.7-5.57-15.7-14.37,0-7.66,6-13.16,15.7-13.86v-5.63h4.93v5.7c9.18.75,14.62,5,15.38,13.67H111.21c-.38-2.41-1.33-4.05-3.93-4.75m0,0a11.88,11.88,0,0,0-4.93-.13c-2.84.5-4.31,2-4.31,4.05,0,2.22.89,3.36,4.31,4l4.93.76c9.69,1.4,16,4.69,16,13.86,0,7.73-5,14.18-16,14.88v7.91h-4.93v-7.91c-10.95-.76-16.27-6.58-16.71-14.94H97.35c.31,2.91,1.52,5.19,5,6a19.24,19.24,0,0,0,4.93,0,4.6,4.6,0,0,0,4.24-4.49c0-2.09-.88-3.17-4.24-3.93" fill="#14aa40" stroke="#14aa40" stroke-miterlimit="10" stroke-width="2"/><path id="_11" data-name="$11" d="M61.75,364.12l-4.94-.82c-11-1.58-15.69-5.57-15.69-14.37,0-7.66,6-13.16,15.69-13.86v-5.63h4.94v5.7c9.18.75,14.62,5,15.38,13.67H65.67c-.38-2.41-1.32-4.05-3.92-4.75m0,0a11.92,11.92,0,0,0-4.94-.13c-2.83.5-4.3,2-4.3,4.05,0,2.22.89,3.36,4.3,4l4.94.76c9.68,1.4,16,4.69,16,13.86,0,7.73-5,14.18-16,14.88v7.91H56.81v-7.91c-11-.76-16.26-6.58-16.71-14.94H51.81c.32,2.91,1.52,5.19,5,6a19.3,19.3,0,0,0,4.94,0A4.6,4.6,0,0,0,66,368.05c0-2.09-.89-3.17-4.24-3.93" fill="#14aa40" stroke="#14aa40" stroke-miterlimit="10" stroke-width="2"/><path id="_10" data-name="$10" d="M243.88,304.12,239,303.3c-11-1.58-15.7-5.57-15.7-14.37,0-7.66,6-13.16,15.7-13.86v-5.63h4.93v5.7c9.18.75,14.62,5,15.38,13.67H247.81c-.38-2.41-1.33-4.05-3.93-4.75m0,0a11.88,11.88,0,0,0-4.93-.13c-2.84.5-4.31,2-4.31,4.05,0,2.22.89,3.36,4.31,4l4.93.76c9.69,1.4,16,4.69,16,13.86,0,7.73-5,14.18-16,14.88v7.91H239v-7.91c-10.95-.76-16.27-6.58-16.71-14.94H234c.31,2.91,1.51,5.19,5,6a19.24,19.24,0,0,0,4.93,0,4.6,4.6,0,0,0,4.24-4.49c0-2.09-.88-3.17-4.24-3.93" fill="#14aa40" stroke="#14aa40" stroke-miterlimit="10" stroke-width="2"/><path id="_9" data-name="$9" d="M198.35,304.12l-4.94-.82c-11-1.58-15.69-5.57-15.69-14.37,0-7.66,6-13.16,15.69-13.86v-5.63h4.94v5.7c9.18.75,14.62,5,15.38,13.67H202.27c-.38-2.41-1.33-4.05-3.92-4.75m0,0a11.92,11.92,0,0,0-4.94-.13c-2.83.5-4.3,2-4.3,4.05,0,2.22.89,3.36,4.3,4l4.94.76c9.68,1.4,16,4.69,16,13.86,0,7.73-5,14.18-16,14.88v7.91h-4.94v-7.91c-10.95-.76-16.26-6.58-16.71-14.94h11.71c.32,2.91,1.52,5.19,5,6a19.3,19.3,0,0,0,4.94,0,4.6,4.6,0,0,0,4.24-4.49c0-2.09-.89-3.17-4.24-3.93" fill="#14aa40" stroke="#14aa40" stroke-miterlimit="10" stroke-width="2"/><path id="_8" data-name="$8" d="M152.82,304.12l-4.94-.82c-11-1.58-15.7-5.57-15.7-14.37,0-7.66,6-13.16,15.7-13.86v-5.63h4.94v5.7c9.17.75,14.62,5,15.38,13.67H156.74c-.38-2.41-1.33-4.05-3.92-4.75m0,0a11.94,11.94,0,0,0-4.94-.13c-2.83.5-4.3,2-4.3,4.05,0,2.22.88,3.36,4.3,4l4.94.76c9.68,1.4,16,4.69,16,13.86,0,7.73-5,14.18-16,14.88v7.91h-4.94v-7.91c-10.95-.76-16.27-6.58-16.71-14.94h11.71c.32,2.91,1.52,5.19,5,6a19.3,19.3,0,0,0,4.94,0,4.6,4.6,0,0,0,4.24-4.49c0-2.09-.89-3.17-4.24-3.93" fill="#14aa40" stroke="#14aa40" stroke-miterlimit="10" stroke-width="2"/><path id="_7" data-name="$7" d="M107.28,304.12l-4.93-.82c-11-1.58-15.7-5.57-15.7-14.37,0-7.66,6-13.16,15.7-13.86v-5.63h4.93v5.7c9.18.75,14.62,5,15.38,13.67H111.21c-.38-2.41-1.33-4.05-3.93-4.75m0,0a11.88,11.88,0,0,0-4.93-.13c-2.84.5-4.31,2-4.31,4.05,0,2.22.89,3.36,4.31,4l4.93.76c9.69,1.4,16,4.69,16,13.86,0,7.73-5,14.18-16,14.88v7.91h-4.93v-7.91c-10.95-.76-16.27-6.58-16.71-14.94H97.35c.31,2.91,1.52,5.19,5,6a19.24,19.24,0,0,0,4.93,0,4.6,4.6,0,0,0,4.24-4.49c0-2.09-.88-3.17-4.24-3.93" fill="#14aa40" stroke="#14aa40" stroke-miterlimit="10" stroke-width="2"/><path id="_6" data-name="$6" d="M61.75,304.12l-4.94-.82c-11-1.58-15.69-5.57-15.69-14.37,0-7.66,6-13.16,15.69-13.86v-5.63h4.94v5.7c9.18.75,14.62,5,15.38,13.67H65.67c-.38-2.41-1.32-4.05-3.92-4.75m0,0a11.92,11.92,0,0,0-4.94-.13c-2.83.5-4.3,2-4.3,4.05,0,2.22.89,3.36,4.3,4l4.94.76c9.68,1.4,16,4.69,16,13.86,0,7.73-5,14.18-16,14.88v7.91H56.81v-7.91c-11-.76-16.26-6.58-16.71-14.94H51.81c.32,2.91,1.52,5.19,5,6a19.3,19.3,0,0,0,4.94,0A4.6,4.6,0,0,0,66,308.05c0-2.09-.89-3.17-4.24-3.93" fill="#14aa40" stroke="#14aa40" stroke-miterlimit="10" stroke-width="2"/><path id="_5" data-name="$5" d="M243.88,244.12,239,243.3c-11-1.58-15.7-5.57-15.7-14.37,0-7.66,6-13.16,15.7-13.86v-5.63h4.93v5.7c9.18.75,14.62,5,15.38,13.67H247.81c-.38-2.41-1.33-4.05-3.93-4.75m0,0a11.88,11.88,0,0,0-4.93-.13c-2.84.5-4.31,2-4.31,4,0,2.22.89,3.36,4.31,4.05l4.93.76c9.69,1.4,16,4.69,16,13.86,0,7.73-5,14.18-16,14.88v7.91H239v-7.91c-10.95-.76-16.27-6.58-16.71-14.94H234c.31,2.91,1.51,5.19,5,5.95a19.24,19.24,0,0,0,4.93,0,4.6,4.6,0,0,0,4.24-4.49c0-2.09-.88-3.17-4.24-3.93" fill="#14aa40" stroke="#14aa40" stroke-miterlimit="10" stroke-width="2"/><path id="_4" data-name="$4" d="M198.35,244.12l-4.94-.82c-11-1.58-15.69-5.57-15.69-14.37,0-7.66,6-13.16,15.69-13.86v-5.63h4.94v5.7c9.18.75,14.62,5,15.38,13.67H202.27c-.38-2.41-1.33-4.05-3.92-4.75m0,0a11.92,11.92,0,0,0-4.94-.13c-2.83.5-4.3,2-4.3,4,0,2.22.89,3.36,4.3,4.05l4.94.76c9.68,1.4,16,4.69,16,13.86,0,7.73-5,14.18-16,14.88v7.91h-4.94v-7.91c-10.95-.76-16.26-6.58-16.71-14.94h11.71c.32,2.91,1.52,5.19,5,5.95a19.3,19.3,0,0,0,4.94,0,4.6,4.6,0,0,0,4.24-4.49c0-2.09-.89-3.17-4.24-3.93" fill="#14aa40" stroke="#14aa40" stroke-miterlimit="10" stroke-width="2"/><path id="_3" data-name="$3" d="M152.82,244.12l-4.94-.82c-11-1.58-15.7-5.57-15.7-14.37,0-7.66,6-13.16,15.7-13.86v-5.63h4.94v5.7c9.17.75,14.62,5,15.38,13.67H156.74c-.38-2.41-1.33-4.05-3.92-4.75m0,0a11.94,11.94,0,0,0-4.94-.13c-2.83.5-4.3,2-4.3,4,0,2.22.88,3.36,4.3,4.05l4.94.76c9.68,1.4,16,4.69,16,13.86,0,7.73-5,14.18-16,14.88v7.91h-4.94v-7.91c-10.95-.76-16.27-6.58-16.71-14.94h11.71c.32,2.91,1.52,5.19,5,5.95a19.3,19.3,0,0,0,4.94,0,4.6,4.6,0,0,0,4.24-4.49c0-2.09-.89-3.17-4.24-3.93" fill="#14aa40" stroke="#14aa40" stroke-miterlimit="10" stroke-width="2"/><path id="_2" data-name="$2" d="M107.28,244.12l-4.93-.82c-11-1.58-15.7-5.57-15.7-14.37,0-7.66,6-13.16,15.7-13.86v-5.63h4.93v5.7c9.18.75,14.62,5,15.38,13.67H111.21c-.38-2.41-1.33-4.05-3.93-4.75m0,0a11.88,11.88,0,0,0-4.93-.13c-2.84.5-4.31,2-4.31,4,0,2.22.89,3.36,4.31,4.05l4.93.76c9.69,1.4,16,4.69,16,13.86,0,7.73-5,14.18-16,14.88v7.91h-4.93v-7.91c-10.95-.76-16.27-6.58-16.71-14.94H97.35c.31,2.91,1.52,5.19,5,5.95a19.24,19.24,0,0,0,4.93,0,4.6,4.6,0,0,0,4.24-4.49c0-2.09-.88-3.17-4.24-3.93" fill="#14aa40" stroke="#14aa40" stroke-miterlimit="10" stroke-width="2"/><path id="_1" data-name="$1" d="M61.75,244.12l-4.94-.82c-11-1.58-15.69-5.57-15.69-14.37,0-7.66,6-13.16,15.69-13.86v-5.63h4.94v5.7c9.18.75,14.62,5,15.38,13.67H65.67c-.38-2.41-1.32-4.05-3.92-4.75m0,0a11.92,11.92,0,0,0-4.94-.13c-2.83.5-4.3,2-4.3,4,0,2.22.89,3.36,4.3,4.05l4.94.76c9.68,1.4,16,4.69,16,13.86,0,7.73-5,14.18-16,14.88v7.91H56.81v-7.91c-11-.76-16.26-6.58-16.71-14.94H51.81c.32,2.91,1.52,5.19,5,5.95a19.3,19.3,0,0,0,4.94,0A4.6,4.6,0,0,0,66,248.05c0-2.09-.89-3.17-4.24-3.93" fill="#14aa40" stroke="#14aa40" stroke-miterlimit="10" stroke-width="2"/></g></g></g></svg>