<?xml version="1.0" encoding="utf-8"?>
<!-- Generator: Adobe Illustrator 23.1.1, SVG Export Plug-In . SVG Version: 6.00 Build 0)  -->
<svg version="1.1" id="Layer_1" xmlns="http://www.w3.org/2000/svg" xmlns:xlink="http://www.w3.org/1999/xlink" x="0px" y="0px"
	 viewBox="0 0 300 250" style="enable-background:new 0 0 300 250;" xml:space="preserve">
<style type="text/css">
	.st0{fill:none;}
	.st1{fill:#14AA40;stroke:#14AA40;stroke-width:1.5848;stroke-miterlimit:10;}
	.st2{fill:#14AA40;stroke:#14AA40;stroke-width:1.1825;stroke-miterlimit:10;}
</style>
<g id="Rect">
	<rect class="st0" width="300" height="250"/>
</g>
<g>
	<path class="st1" d="M137,114.6l-8.5,5.4v-11l10.2-7.4h11v46.1H137V114.6z"/>
	<path class="st1" d="M154.3,125.7v-1.9c0-14.6,8.8-22.8,20.6-22.8c11.7,0,20.6,7.5,20.6,22.5v1.8c0,14.6-8.1,23.2-20.8,23.2
		C162.2,148.5,154.3,140.2,154.3,125.7z M182.7,125.5v-1.9c0-8.4-2.4-12.7-7.8-12.7c-5.4,0-7.8,4.2-7.8,12.7v1.9
		c0,8.6,2.4,12.6,7.9,12.6S182.7,134.1,182.7,125.5z"/>
</g>
<g>
	<path class="st2" d="M113.9,118.1c1.1-0.2,1.7-0.9,1.7-1.8c0-0.9-0.4-1.3-1.7-1.6l-2-0.3c-4.4-0.6-6.2-2.3-6.2-5.9
		c0-3.1,2.4-5.4,6.2-5.7v-2.3h2v2.3c3.6,0.3,5.8,2,6.1,5.6h-4.5c-0.2-1-0.5-1.7-1.6-1.9c0,0-1-0.2-2-0.1c-1,0.2-1.7,0.8-1.7,1.7
		c0,0.9,0.4,1.4,1.7,1.7l2,0.3c3.8,0.6,6.3,1.9,6.3,5.7c0,3.2-2,5.8-6.3,6.1v3.2h-2v-3.2c-4.3-0.3-6.4-2.7-6.6-6.1h4.6
		c0.1,1.2,0.8,2.3,2,2.4C113.1,118.2,113.9,118.1,113.9,118.1z"/>
</g>
</svg>
