<?xml version="1.0" encoding="utf-8"?>
<!-- Generator: Adobe Illustrator 24.0.2, SVG Export Plug-In . SVG Version: 6.00 Build 0)  -->
<svg version="1.1" id="Layer_1" xmlns="http://www.w3.org/2000/svg" xmlns:xlink="http://www.w3.org/1999/xlink" x="0px" y="0px"
	 viewBox="0 0 300 250" style="enable-background:new 0 0 300 250;" xml:space="preserve">
<style type="text/css">
	.st0{fill:none;}
	.st1{fill:#14AA40;}
</style>
<title>txt</title>
<g id="Layer_2_1_">
	<g id="headline1">
		<g id="Rect">
			<rect class="st0" width="300" height="250"/>
		</g>
		<g id="legal">
			<path class="st1" d="M157.7,226.4c0.4-0.1,0.9-0.1,1.5-0.1c0.8,0,1.3,0.2,1.7,0.5c0.3,0.3,0.5,0.7,0.5,1.3c0,0.5-0.2,1-0.5,1.3
				c-0.4,0.4-1.1,0.7-1.9,0.7c-0.2,0-0.5,0-0.6-0.1v2.4h-0.8V226.4z M158.5,229.3c0.2,0,0.4,0.1,0.6,0.1c0.9,0,1.5-0.5,1.5-1.3
				c0-0.8-0.6-1.2-1.4-1.2c-0.3,0-0.6,0-0.7,0.1V229.3z"/>
			<path class="st1" d="M162.4,229.4c0-0.5,0-1,0-1.4h0.7l0,0.9h0c0.2-0.6,0.7-1,1.2-1c0.1,0,0.2,0,0.2,0v0.7c-0.1,0-0.2,0-0.3,0
				c-0.6,0-1,0.4-1.1,1c0,0.1,0,0.2,0,0.4v2.3h-0.8V229.4z"/>
			<path class="st1" d="M166.2,226.8c0,0.3-0.2,0.5-0.5,0.5c-0.3,0-0.5-0.2-0.5-0.5c0-0.3,0.2-0.5,0.5-0.5
				C166,226.3,166.2,226.5,166.2,226.8z M165.3,232.4V228h0.8v4.4H165.3z"/>
			<path class="st1" d="M170.5,232.2c-0.2,0.1-0.7,0.3-1.3,0.3c-1.3,0-2.2-0.9-2.2-2.2c0-1.3,0.9-2.3,2.3-2.3c0.5,0,0.9,0.1,1.1,0.2
				l-0.2,0.6c-0.2-0.1-0.5-0.2-0.9-0.2c-1,0-1.5,0.7-1.5,1.6c0,1,0.6,1.6,1.5,1.6c0.5,0,0.7-0.1,1-0.2L170.5,232.2z"/>
			<path class="st1" d="M171.9,230.4c0,1.1,0.7,1.5,1.5,1.5c0.6,0,0.9-0.1,1.2-0.2l0.1,0.6c-0.3,0.1-0.8,0.3-1.4,0.3
				c-1.3,0-2.1-0.9-2.1-2.2s0.8-2.3,2-2.3c1.4,0,1.8,1.3,1.8,2.1c0,0.2,0,0.3,0,0.4H171.9z M174.2,229.8c0-0.5-0.2-1.3-1.1-1.3
				c-0.8,0-1.2,0.7-1.2,1.3H174.2z"/>
			<path class="st1" d="M181.6,226v5.3c0,0.4,0,0.8,0,1.1h-0.7l0-0.8h0c-0.2,0.5-0.8,0.9-1.5,0.9c-1.1,0-1.9-0.9-1.9-2.2
				c0-1.5,0.9-2.3,2-2.3c0.7,0,1.1,0.3,1.3,0.7h0V226H181.6z M180.8,229.8c0-0.1,0-0.2,0-0.3c-0.1-0.5-0.5-0.9-1.1-0.9
				c-0.8,0-1.3,0.7-1.3,1.7c0,0.9,0.4,1.6,1.3,1.6c0.5,0,1-0.4,1.2-0.9c0-0.1,0-0.2,0-0.3V229.8z"/>
			<path class="st1" d="M183.8,226.8c0,0.3-0.2,0.5-0.5,0.5c-0.3,0-0.5-0.2-0.5-0.5c0-0.3,0.2-0.5,0.5-0.5
				C183.6,226.3,183.8,226.5,183.8,226.8z M182.9,232.4V228h0.8v4.4H182.9z"/>
			<path class="st1" d="M187.7,232.4v-3.8h-1.8v3.8h-0.8v-3.8h-0.6V228h0.6v-0.1c0-0.6,0.1-1.1,0.5-1.5c0.3-0.3,0.6-0.4,1.1-0.4
				c0.3,0,0.5,0.1,0.6,0.2l-0.2,0.6c-0.1-0.1-0.3-0.1-0.5-0.1c-0.6,0-0.8,0.5-0.8,1.2v0.2h1.8v-0.2c0-0.6,0.1-1.2,0.5-1.5
				c0.3-0.3,0.7-0.4,1.1-0.4c0.3,0,0.5,0.1,0.7,0.1l-0.1,0.6c-0.1-0.1-0.3-0.1-0.5-0.1c-0.7,0-0.8,0.6-0.8,1.3v0.2h1.1v0.6h-1v3.8
				H187.7z"/>
			<path class="st1" d="M190.6,230.4c0,1.1,0.7,1.5,1.5,1.5c0.6,0,0.9-0.1,1.2-0.2l0.1,0.6c-0.3,0.1-0.8,0.3-1.4,0.3
				c-1.3,0-2.1-0.9-2.1-2.2s0.8-2.3,2-2.3c1.4,0,1.8,1.3,1.8,2.1c0,0.2,0,0.3,0,0.4H190.6z M192.9,229.8c0-0.5-0.2-1.3-1.1-1.3
				c-0.8,0-1.2,0.7-1.2,1.3H192.9z"/>
			<path class="st1" d="M194.7,229.4c0-0.5,0-1,0-1.4h0.7l0,0.9h0c0.2-0.6,0.7-1,1.2-1c0.1,0,0.2,0,0.2,0v0.7c-0.1,0-0.2,0-0.3,0
				c-0.6,0-1,0.4-1.1,1c0,0.1,0,0.2,0,0.4v2.3h-0.8V229.4z"/>
			<path class="st1" d="M197.9,230.4c0,1.1,0.7,1.5,1.5,1.5c0.6,0,0.9-0.1,1.2-0.2l0.1,0.6c-0.3,0.1-0.8,0.3-1.4,0.3
				c-1.3,0-2.1-0.9-2.1-2.2s0.8-2.3,2-2.3c1.4,0,1.8,1.3,1.8,2.1c0,0.2,0,0.3,0,0.4H197.9z M200.3,229.8c0-0.5-0.2-1.3-1.1-1.3
				c-0.8,0-1.2,0.7-1.2,1.3H200.3z"/>
			<path class="st1" d="M202,229.2c0-0.5,0-0.8,0-1.2h0.7l0,0.7h0c0.2-0.4,0.7-0.8,1.4-0.8c0.6,0,1.5,0.4,1.5,1.9v2.6h-0.8v-2.5
				c0-0.7-0.3-1.3-1-1.3c-0.5,0-0.9,0.4-1.1,0.8c0,0.1-0.1,0.2-0.1,0.4v2.6H202V229.2z"/>
			<path class="st1" d="M210.1,232.2c-0.2,0.1-0.7,0.3-1.3,0.3c-1.3,0-2.2-0.9-2.2-2.2c0-1.3,0.9-2.3,2.3-2.3c0.5,0,0.9,0.1,1.1,0.2
				l-0.2,0.6c-0.2-0.1-0.5-0.2-0.9-0.2c-1,0-1.5,0.7-1.5,1.6c0,1,0.6,1.6,1.5,1.6c0.5,0,0.7-0.1,1-0.2L210.1,232.2z"/>
			<path class="st1" d="M211.4,230.4c0,1.1,0.7,1.5,1.5,1.5c0.6,0,0.9-0.1,1.2-0.2l0.1,0.6c-0.3,0.1-0.8,0.3-1.4,0.3
				c-1.3,0-2.1-0.9-2.1-2.2s0.8-2.3,2-2.3c1.4,0,1.8,1.3,1.8,2.1c0,0.2,0,0.3,0,0.4H211.4z M213.8,229.8c0-0.5-0.2-1.3-1.1-1.3
				c-0.8,0-1.2,0.7-1.2,1.3H213.8z"/>
			<path class="st1" d="M217.4,232.4c0-0.3,0-0.7,0-1.1V226h0.8v2.7h0c0.3-0.5,0.8-0.8,1.5-0.8c1.1,0,1.8,0.9,1.8,2.2
				c0,1.6-1,2.3-2,2.3c-0.6,0-1.1-0.2-1.5-0.8h0l0,0.7H217.4z M218.2,230.6c0,0.1,0,0.2,0,0.3c0.2,0.5,0.6,0.9,1.2,0.9
				c0.8,0,1.3-0.7,1.3-1.7c0-0.9-0.5-1.6-1.3-1.6c-0.5,0-1,0.4-1.2,1c0,0.1,0,0.2,0,0.3V230.6z"/>
			<path class="st1" d="M224.9,232.4l-0.1-0.5h0c-0.2,0.3-0.7,0.6-1.3,0.6c-0.9,0-1.3-0.6-1.3-1.3c0-1.1,0.9-1.6,2.6-1.6v-0.1
				c0-0.4-0.1-1-1-1c-0.4,0-0.8,0.1-1.1,0.3l-0.2-0.5c0.4-0.2,0.9-0.4,1.4-0.4c1.3,0,1.7,0.9,1.7,1.8v1.6c0,0.4,0,0.7,0.1,1H224.9z
				 M224.8,230.2c-0.9,0-1.8,0.1-1.8,1c0,0.5,0.3,0.8,0.7,0.8c0.6,0,0.9-0.4,1.1-0.7c0-0.1,0-0.2,0-0.3V230.2z"/>
			<path class="st1" d="M226.8,231.6c0.2,0.2,0.6,0.3,1,0.3c0.6,0,0.8-0.3,0.8-0.6c0-0.4-0.2-0.6-0.8-0.8c-0.8-0.3-1.2-0.7-1.2-1.2
				c0-0.7,0.6-1.3,1.5-1.3c0.4,0,0.8,0.1,1.1,0.3l-0.2,0.6c-0.2-0.1-0.5-0.3-0.9-0.3c-0.5,0-0.7,0.3-0.7,0.6c0,0.4,0.3,0.5,0.8,0.7
				c0.8,0.3,1.1,0.7,1.1,1.3c0,0.8-0.6,1.3-1.6,1.3c-0.5,0-0.9-0.1-1.2-0.3L226.8,231.6z"/>
			<path class="st1" d="M230.9,230.4c0,1.1,0.7,1.5,1.5,1.5c0.6,0,0.9-0.1,1.2-0.2l0.1,0.6c-0.3,0.1-0.8,0.3-1.4,0.3
				c-1.3,0-2.1-0.9-2.1-2.2s0.8-2.3,2-2.3c1.4,0,1.8,1.3,1.8,2.1c0,0.2,0,0.3,0,0.4H230.9z M233.2,229.8c0-0.5-0.2-1.3-1.1-1.3
				c-0.8,0-1.2,0.7-1.2,1.3H233.2z"/>
			<path class="st1" d="M238.7,226v5.3c0,0.4,0,0.8,0,1.1H238l0-0.8h0c-0.2,0.5-0.8,0.9-1.5,0.9c-1.1,0-1.9-0.9-1.9-2.2
				c0-1.5,0.9-2.3,2-2.3c0.7,0,1.1,0.3,1.3,0.7h0V226H238.7z M237.9,229.8c0-0.1,0-0.2,0-0.3c-0.1-0.5-0.5-0.9-1.1-0.9
				c-0.8,0-1.3,0.7-1.3,1.7c0,0.9,0.4,1.6,1.3,1.6c0.5,0,1-0.4,1.2-0.9c0-0.1,0-0.2,0-0.3V229.8z"/>
			<path class="st1" d="M245.9,230.2c0,1.6-1.1,2.3-2.2,2.3c-1.2,0-2.1-0.9-2.1-2.2c0-1.5,1-2.3,2.2-2.3
				C245,227.9,245.9,228.8,245.9,230.2z M242.4,230.2c0,1,0.5,1.7,1.3,1.7c0.8,0,1.3-0.7,1.3-1.7c0-0.7-0.4-1.7-1.3-1.7
				C242.8,228.5,242.4,229.4,242.4,230.2z"/>
			<path class="st1" d="M246.9,229.2c0-0.5,0-0.8,0-1.2h0.7l0,0.7h0c0.2-0.4,0.7-0.8,1.4-0.8c0.6,0,1.5,0.4,1.5,1.9v2.6h-0.8v-2.5
				c0-0.7-0.3-1.3-1-1.3c-0.5,0-0.9,0.4-1.1,0.8c0,0.1-0.1,0.2-0.1,0.4v2.6h-0.8V229.2z"/>
			<path class="st1" d="M256.9,232.2c-0.2,0.1-0.7,0.3-1.3,0.3c-1.3,0-2.2-0.9-2.2-2.2c0-1.3,0.9-2.3,2.3-2.3c0.5,0,0.9,0.1,1.1,0.2
				l-0.2,0.6c-0.2-0.1-0.5-0.2-0.9-0.2c-1,0-1.5,0.7-1.5,1.6c0,1,0.6,1.6,1.5,1.6c0.5,0,0.7-0.1,1-0.2L256.9,232.2z"/>
			<path class="st1" d="M261.7,230.2c0,1.6-1.1,2.3-2.2,2.3c-1.2,0-2.1-0.9-2.1-2.2c0-1.5,1-2.3,2.2-2.3
				C260.8,227.9,261.7,228.8,261.7,230.2z M258.2,230.2c0,1,0.5,1.7,1.3,1.7c0.8,0,1.3-0.7,1.3-1.7c0-0.7-0.4-1.7-1.3-1.7
				S258.2,229.4,258.2,230.2z"/>
			<path class="st1" d="M262.6,231.6c0.2,0.2,0.6,0.3,1,0.3c0.6,0,0.8-0.3,0.8-0.6c0-0.4-0.2-0.6-0.8-0.8c-0.8-0.3-1.2-0.7-1.2-1.2
				c0-0.7,0.6-1.3,1.5-1.3c0.4,0,0.8,0.1,1.1,0.3l-0.2,0.6c-0.2-0.1-0.5-0.3-0.9-0.3c-0.5,0-0.7,0.3-0.7,0.6c0,0.4,0.3,0.5,0.8,0.7
				c0.8,0.3,1.1,0.7,1.1,1.3c0,0.8-0.6,1.3-1.6,1.3c-0.5,0-0.9-0.1-1.2-0.3L262.6,231.6z"/>
			<path class="st1" d="M267.2,226.8v1.3h1.1v0.6h-1.1v2.3c0,0.5,0.2,0.8,0.6,0.8c0.2,0,0.4,0,0.5-0.1l0,0.6
				c-0.2,0.1-0.4,0.1-0.7,0.1c-0.4,0-0.7-0.1-0.9-0.3c-0.2-0.2-0.3-0.6-0.3-1.1v-2.4h-0.7V228h0.7v-1L267.2,226.8z"/>
			<path class="st1" d="M271.2,232.4v-3.8h-0.6V228h0.6v-0.2c0-0.6,0.1-1.2,0.5-1.5c0.3-0.3,0.7-0.4,1.1-0.4c0.3,0,0.5,0.1,0.7,0.1
				l-0.1,0.6c-0.1-0.1-0.3-0.1-0.5-0.1c-0.7,0-0.8,0.6-0.8,1.3v0.2h1.1v0.6H272v3.8H271.2z"/>
			<path class="st1" d="M277.6,230.2c0,1.6-1.1,2.3-2.2,2.3c-1.2,0-2.1-0.9-2.1-2.2c0-1.5,1-2.3,2.2-2.3
				C276.7,227.9,277.6,228.8,277.6,230.2z M274.1,230.2c0,1,0.5,1.7,1.3,1.7c0.8,0,1.3-0.7,1.3-1.7c0-0.7-0.4-1.7-1.3-1.7
				S274.1,229.4,274.1,230.2z"/>
			<path class="st1" d="M278.6,229.4c0-0.5,0-1,0-1.4h0.7l0,0.9h0c0.2-0.6,0.7-1,1.2-1c0.1,0,0.2,0,0.2,0v0.7c-0.1,0-0.2,0-0.3,0
				c-0.6,0-1,0.4-1.1,1c0,0.1,0,0.2,0,0.4v2.3h-0.8V229.4z"/>
			<path class="st1" d="M175.7,243.2v-3.8h-0.6v-0.6h0.6v-0.2c0-0.6,0.1-1.2,0.5-1.5c0.3-0.3,0.7-0.4,1.1-0.4c0.3,0,0.5,0.1,0.7,0.1
				l-0.1,0.6c-0.1-0.1-0.3-0.1-0.5-0.1c-0.7,0-0.8,0.6-0.8,1.3v0.2h1.1v0.6h-1.1v3.8H175.7z"/>
			<path class="st1" d="M178.6,241.2c0,1.1,0.7,1.5,1.5,1.5c0.6,0,0.9-0.1,1.2-0.2l0.1,0.6c-0.3,0.1-0.8,0.3-1.4,0.3
				c-1.3,0-2.1-0.9-2.1-2.2s0.8-2.3,2-2.3c1.4,0,1.8,1.3,1.8,2.1c0,0.2,0,0.3,0,0.4H178.6z M180.9,240.6c0-0.5-0.2-1.3-1.1-1.3
				c-0.8,0-1.2,0.7-1.2,1.3H180.9z"/>
			<path class="st1" d="M186.4,236.8v5.3c0,0.4,0,0.8,0,1.1h-0.7l0-0.8h0c-0.2,0.5-0.8,0.9-1.5,0.9c-1.1,0-1.9-0.9-1.9-2.2
				c0-1.5,0.9-2.3,2-2.3c0.7,0,1.1,0.3,1.3,0.7h0v-2.6H186.4z M185.7,240.6c0-0.1,0-0.2,0-0.3c-0.1-0.5-0.5-0.9-1.1-0.9
				c-0.8,0-1.3,0.7-1.3,1.7c0,0.9,0.4,1.6,1.3,1.6c0.5,0,1-0.4,1.2-0.9c0-0.1,0-0.2,0-0.3V240.6z"/>
			<path class="st1" d="M188.2,241.2c0,1.1,0.7,1.5,1.5,1.5c0.6,0,0.9-0.1,1.2-0.2l0.1,0.6c-0.3,0.1-0.8,0.3-1.4,0.3
				c-1.3,0-2.1-0.9-2.1-2.2s0.8-2.3,2-2.3c1.4,0,1.8,1.3,1.8,2.1c0,0.2,0,0.3,0,0.4H188.2z M190.5,240.6c0-0.5-0.2-1.3-1.1-1.3
				c-0.8,0-1.2,0.7-1.2,1.3H190.5z"/>
			<path class="st1" d="M192.3,240.2c0-0.5,0-1,0-1.4h0.7l0,0.9h0c0.2-0.6,0.7-1,1.2-1c0.1,0,0.2,0,0.2,0v0.7c-0.1,0-0.2,0-0.3,0
				c-0.6,0-1,0.4-1.1,1c0,0.1,0,0.2,0,0.4v2.3h-0.8V240.2z"/>
			<path class="st1" d="M197.6,243.2l-0.1-0.5h0c-0.2,0.3-0.7,0.6-1.3,0.6c-0.9,0-1.3-0.6-1.3-1.3c0-1.1,0.9-1.6,2.6-1.6v-0.1
				c0-0.4-0.1-1-1-1c-0.4,0-0.8,0.1-1.1,0.3l-0.2-0.5c0.4-0.2,0.9-0.4,1.4-0.4c1.3,0,1.7,0.9,1.7,1.8v1.6c0,0.4,0,0.7,0.1,1H197.6z
				 M197.5,241c-0.9,0-1.8,0.1-1.8,1c0,0.5,0.3,0.8,0.7,0.8c0.6,0,0.9-0.4,1.1-0.7c0-0.1,0-0.2,0-0.3V241z"/>
			<path class="st1" d="M199.5,236.8h0.8v6.4h-0.8V236.8z"/>
			<path class="st1" d="M205.9,243.2l-0.1-0.5h0c-0.2,0.3-0.7,0.6-1.3,0.6c-0.9,0-1.3-0.6-1.3-1.3c0-1.1,0.9-1.6,2.6-1.6v-0.1
				c0-0.4-0.1-1-1-1c-0.4,0-0.8,0.1-1.1,0.3l-0.2-0.5c0.4-0.2,0.9-0.4,1.4-0.4c1.3,0,1.7,0.9,1.7,1.8v1.6c0,0.4,0,0.7,0.1,1H205.9z
				 M205.8,241c-0.9,0-1.8,0.1-1.8,1c0,0.5,0.3,0.8,0.7,0.8c0.6,0,0.9-0.4,1.1-0.7c0-0.1,0-0.2,0-0.3V241z"/>
			<path class="st1" d="M207.9,240c0-0.5,0-0.8,0-1.2h0.7l0,0.7h0c0.2-0.4,0.7-0.8,1.4-0.8c0.6,0,1.5,0.4,1.5,1.9v2.6h-0.8v-2.5
				c0-0.7-0.3-1.3-1-1.3c-0.5,0-0.9,0.4-1.1,0.8c0,0.1-0.1,0.2-0.1,0.4v2.6h-0.8V240z"/>
			<path class="st1" d="M216.6,236.8v5.3c0,0.4,0,0.8,0,1.1H216l0-0.8h0c-0.2,0.5-0.8,0.9-1.5,0.9c-1.1,0-1.9-0.9-1.9-2.2
				c0-1.5,0.9-2.3,2-2.3c0.7,0,1.1,0.3,1.3,0.7h0v-2.6H216.6z M215.8,240.6c0-0.1,0-0.2,0-0.3c-0.1-0.5-0.5-0.9-1.1-0.9
				c-0.8,0-1.3,0.7-1.3,1.7c0,0.9,0.4,1.6,1.3,1.6c0.5,0,1-0.4,1.2-0.9c0-0.1,0-0.2,0-0.3V240.6z"/>
			<path class="st1" d="M223.8,241c0,1.6-1.1,2.3-2.2,2.3c-1.2,0-2.1-0.9-2.1-2.2c0-1.5,1-2.3,2.2-2.3
				C222.9,238.7,223.8,239.6,223.8,241z M220.3,241c0,1,0.5,1.7,1.3,1.7c0.8,0,1.3-0.7,1.3-1.7c0-0.7-0.4-1.7-1.3-1.7
				C220.7,239.3,220.3,240.2,220.3,241z"/>
			<path class="st1" d="M224.8,240c0-0.5,0-0.8,0-1.2h0.7l0,0.7h0c0.2-0.4,0.7-0.8,1.4-0.8c0.6,0,1.5,0.4,1.5,1.9v2.6h-0.8v-2.5
				c0-0.7-0.3-1.3-1-1.3c-0.5,0-0.9,0.4-1.1,0.8c0,0.1-0.1,0.2-0.1,0.4v2.6h-0.8V240z"/>
			<path class="st1" d="M230.2,241.2c0,1.1,0.7,1.5,1.5,1.5c0.6,0,0.9-0.1,1.2-0.2l0.1,0.6c-0.3,0.1-0.8,0.3-1.4,0.3
				c-1.3,0-2.1-0.9-2.1-2.2s0.8-2.3,2-2.3c1.4,0,1.8,1.3,1.8,2.1c0,0.2,0,0.3,0,0.4H230.2z M232.6,240.6c0-0.5-0.2-1.3-1.1-1.3
				c-0.8,0-1.2,0.7-1.2,1.3H232.6z"/>
			<path class="st1" d="M236.1,242.4c0.2,0.2,0.6,0.3,1,0.3c0.6,0,0.8-0.3,0.8-0.6c0-0.4-0.2-0.6-0.8-0.8c-0.8-0.3-1.2-0.7-1.2-1.2
				c0-0.7,0.6-1.3,1.5-1.3c0.4,0,0.8,0.1,1.1,0.3l-0.2,0.6c-0.2-0.1-0.5-0.3-0.9-0.3c-0.5,0-0.7,0.3-0.7,0.6c0,0.4,0.3,0.5,0.8,0.7
				c0.8,0.3,1.1,0.7,1.1,1.3c0,0.8-0.6,1.3-1.6,1.3c-0.5,0-0.9-0.1-1.2-0.3L236.1,242.4z"/>
			<path class="st1" d="M240.7,237.6v1.3h1.1v0.6h-1.1v2.3c0,0.5,0.2,0.8,0.6,0.8c0.2,0,0.4,0,0.5-0.1l0,0.6
				c-0.2,0.1-0.4,0.1-0.7,0.1c-0.4,0-0.7-0.1-0.9-0.3c-0.2-0.2-0.3-0.6-0.3-1.1v-2.4h-0.7v-0.6h0.7v-1L240.7,237.6z"/>
			<path class="st1" d="M245.2,243.2l-0.1-0.5h0c-0.2,0.3-0.7,0.6-1.3,0.6c-0.9,0-1.3-0.6-1.3-1.3c0-1.1,0.9-1.6,2.6-1.6v-0.1
				c0-0.4-0.1-1-1-1c-0.4,0-0.8,0.1-1.1,0.3l-0.2-0.5c0.4-0.2,0.9-0.4,1.4-0.4c1.3,0,1.7,0.9,1.7,1.8v1.6c0,0.4,0,0.7,0.1,1H245.2z
				 M245,241c-0.9,0-1.8,0.1-1.8,1c0,0.5,0.3,0.8,0.7,0.8c0.6,0,0.9-0.4,1.1-0.7c0-0.1,0-0.2,0-0.3V241z"/>
			<path class="st1" d="M248,237.6v1.3h1.1v0.6H248v2.3c0,0.5,0.2,0.8,0.6,0.8c0.2,0,0.4,0,0.5-0.1l0,0.6c-0.2,0.1-0.4,0.1-0.7,0.1
				c-0.4,0-0.7-0.1-0.9-0.3c-0.2-0.2-0.3-0.6-0.3-1.1v-2.4h-0.7v-0.6h0.7v-1L248,237.6z"/>
			<path class="st1" d="M250.4,241.2c0,1.1,0.7,1.5,1.5,1.5c0.6,0,0.9-0.1,1.2-0.2l0.1,0.6c-0.3,0.1-0.8,0.3-1.4,0.3
				c-1.3,0-2.1-0.9-2.1-2.2s0.8-2.3,2-2.3c1.4,0,1.8,1.3,1.8,2.1c0,0.2,0,0.3,0,0.4H250.4z M252.7,240.6c0-0.5-0.2-1.3-1.1-1.3
				c-0.8,0-1.2,0.7-1.2,1.3H252.7z"/>
			<path class="st1" d="M256.4,240.2c0-0.5,0-1,0-1.4h0.7l0,0.9h0c0.2-0.6,0.7-1,1.2-1c0.1,0,0.2,0,0.2,0v0.7c-0.1,0-0.2,0-0.3,0
				c-0.6,0-1,0.4-1.1,1c0,0.1,0,0.2,0,0.4v2.3h-0.8V240.2z"/>
			<path class="st1" d="M259.7,241.2c0,1.1,0.7,1.5,1.5,1.5c0.6,0,0.9-0.1,1.2-0.2l0.1,0.6c-0.3,0.1-0.8,0.3-1.4,0.3
				c-1.3,0-2.1-0.9-2.1-2.2s0.8-2.3,2-2.3c1.4,0,1.8,1.3,1.8,2.1c0,0.2,0,0.3,0,0.4H259.7z M262,240.6c0-0.5-0.2-1.3-1.1-1.3
				c-0.8,0-1.2,0.7-1.2,1.3H262z"/>
			<path class="st1" d="M264.7,237.6v1.3h1.1v0.6h-1.1v2.3c0,0.5,0.2,0.8,0.6,0.8c0.2,0,0.4,0,0.5-0.1l0,0.6
				c-0.2,0.1-0.4,0.1-0.7,0.1c-0.4,0-0.7-0.1-0.9-0.3c-0.2-0.2-0.3-0.6-0.3-1.1v-2.4h-0.7v-0.6h0.7v-1L264.7,237.6z"/>
			<path class="st1" d="M270.4,242c0,0.5,0,0.8,0,1.2h-0.7l0-0.7h0c-0.2,0.4-0.7,0.8-1.4,0.8c-0.7,0-1.5-0.4-1.5-1.9v-2.5h0.8v2.4
				c0,0.8,0.3,1.4,1,1.4c0.5,0,0.9-0.4,1-0.7c0-0.1,0.1-0.3,0.1-0.4v-2.7h0.8V242z"/>
			<path class="st1" d="M271.7,240.2c0-0.5,0-1,0-1.4h0.7l0,0.9h0c0.2-0.6,0.7-1,1.2-1c0.1,0,0.2,0,0.2,0v0.7c-0.1,0-0.2,0-0.3,0
				c-0.6,0-1,0.4-1.1,1c0,0.1,0,0.2,0,0.4v2.3h-0.8V240.2z"/>
			<path class="st1" d="M274.7,240c0-0.5,0-0.8,0-1.2h0.7l0,0.7h0c0.2-0.4,0.7-0.8,1.4-0.8c0.6,0,1.5,0.4,1.5,1.9v2.6h-0.8v-2.5
				c0-0.7-0.3-1.3-1-1.3c-0.5,0-0.9,0.4-1.1,0.8c0,0.1-0.1,0.2-0.1,0.4v2.6h-0.8V240z"/>
			<path class="st1" d="M279.5,242.7c0-0.3,0.2-0.6,0.5-0.6c0.3,0,0.5,0.2,0.5,0.6c0,0.3-0.2,0.6-0.5,0.6
				C279.7,243.3,279.5,243,279.5,242.7z"/>
		</g>
		<g id="Switch_from_TurboTax._Save_up_to">
			<path class="st1" d="M20.5,26.6h4.3c0.1,1.1,0.6,2.1,2.5,2.1c1.3,0,2-0.6,2-1.6s-0.6-1.2-2.5-1.5c-4.5-0.5-6-1.9-6-5.1
				c0-2.9,2.3-4.9,6.1-4.9s6,1.6,6.3,4.9h-4.1c0-1-0.9-1.8-1.9-1.7h-0.1c-1.2,0-1.8,0.5-1.8,1.4s0.5,1.3,2.5,1.5
				c4,0.5,6.1,1.5,6.1,4.9c0,2.9-2.3,5.3-6.4,5.3C22.9,31.9,20.6,30.1,20.5,26.6z"/>
			<path class="st1" d="M34,20.1h4.2l1.7,6.9l2-6.9H45l1.7,6.9l1.9-6.9h3.8l-3.7,11.6h-3.8l-1.7-6.5l-1.8,6.5h-3.9L34,20.1z"/>
			<path class="st1" d="M53.3,17c-0.1-1.2,0.8-2.3,2-2.4s2.3,0.8,2.4,2s-0.8,2.3-2,2.4c-0.1,0-0.1,0-0.2,0c-1.1,0.1-2.1-0.7-2.2-1.8
				C53.3,17.1,53.3,17.1,53.3,17z M53.5,20.1h4v11.5h-4V20.1z"/>
			<path class="st1" d="M60.1,28v-5.2h-1.4v-2.7h1.4v-2.4h4v2.4h2.3v2.7h-2.3v4.8c-0.1,0.6,0.3,1.1,0.9,1.2c0.1,0,0.2,0,0.3,0
				c0.4,0,0.8-0.1,1.1-0.2v3c-0.7,0.2-1.5,0.3-2.2,0.3C61.6,31.9,60.1,30.7,60.1,28z"/>
			<path class="st1" d="M67.3,26v-0.2c-0.1-3.2,2.4-5.9,5.6-6.1c0.2,0,0.4,0,0.6,0c2.8,0,5.4,1.2,5.7,4.8h-3.7
				c0-0.9-0.8-1.7-1.7-1.7h-0.1c-1.4,0-2.2,1-2.2,3V26c0,2,0.8,3.1,2.3,3.1c1.1,0,2-0.8,2-1.9c0,0,0,0,0-0.1h3.6
				c-0.1,2.9-2.1,4.8-5.8,4.8C69.9,31.9,67.3,29.9,67.3,26z"/>
			<path class="st1" d="M80.5,15h4v7c0.7-1.4,2.2-2.2,3.8-2.2c2.2,0,3.8,1.4,3.8,4.4v7.5h-4v-6.8c0-1.3-0.5-2-1.7-2s-2,0.7-2,2.2
				v6.5h-4L80.5,15z"/>
			<path class="st1" d="M98.6,22.8h-1.5v-2.7h1.5v-1c0-2.9,1.8-4.3,4.5-4.3c0.6,0,1.2,0.1,1.8,0.2v3c-0.4-0.1-0.7-0.2-1.1-0.1
				c-0.6-0.1-1.2,0.3-1.3,1c0,0.1,0,0.2,0,0.3v1h2.3v2.7h-2.3v8.9h-3.9V22.8z"/>
			<path class="st1" d="M106.2,20.1h4v2.3c0.5-1.6,2.1-2.6,3.8-2.5v3.7c-2.4-0.1-3.8,0.7-3.8,2.5v5.5h-4V20.1z"/>
			<path class="st1" d="M114.6,26v-0.2c0-3.7,2.8-6.1,6.4-6.1s6.3,2.3,6.3,6v0.2c0,3.8-2.8,6-6.3,6S114.6,29.8,114.6,26z
				 M123.3,25.9v-0.2c0-2-0.8-3-2.3-3s-2.3,1-2.3,3v0.2c0,2,0.8,3.1,2.3,3.1S123.3,27.9,123.3,25.9L123.3,25.9z"/>
			<path class="st1" d="M128.7,20.1h4v1.8c0.7-1.3,2.1-2.1,3.6-2.1c1.4-0.1,2.6,0.7,3.1,1.9c0.9-1.2,2.3-2,3.8-1.9
				c2.2,0,3.8,1.4,3.8,4.3v7.6h-4v-6.9c0-1.2-0.6-1.8-1.5-1.8s-1.8,0.7-1.8,1.6c0,0.1,0,0.2,0,0.4v6.7h-3.9v-6.9
				c0-1.2-0.6-1.8-1.5-1.8s-1.8,0.7-1.8,1.6c0,0.1,0,0.2,0,0.3v6.7h-4L128.7,20.1z"/>
			<path class="st1" d="M156.4,19.3h-4.1v-3.5h12.8v3.5H161v12.3h-4.6V19.3z"/>
			<path class="st1" d="M165.4,27.6V20h4v7c0,1.3,0.5,2,1.6,2s2-0.7,2-2.2v-6.7h4v11.6h-4v-1.8c-0.7,1.4-2.1,2.2-3.7,2.1
				C167.1,31.9,165.4,30.6,165.4,27.6z"/>
			<path class="st1" d="M179,20.1h4v2.3c0.5-1.6,2.1-2.6,3.8-2.5v3.7c-2.4-0.1-3.8,0.7-3.8,2.5v5.5h-4V20.1z"/>
			<path class="st1" d="M192.1,29.9v1.8h-4V15h4v6.8c0.8-1.3,2.1-2,3.6-2c2.7,0,4.9,2,4.9,6V26c0,4-2.2,6-4.9,6
				C194.2,32.1,192.7,31.2,192.1,29.9z M196.6,26v-0.2c0-2-0.9-3-2.3-3s-2.3,1-2.3,3V26c0,2,0.9,3,2.3,3S196.6,27.9,196.6,26z"/>
			<path class="st1" d="M201.4,26v-0.2c0-3.7,2.8-6.1,6.4-6.1s6.3,2.3,6.3,6v0.2c0,3.8-2.8,6-6.3,6S201.4,29.8,201.4,26z
				 M210.1,25.9v-0.2c0-2-0.8-3-2.3-3s-2.3,1-2.3,3v0.2c0,2,0.8,3.1,2.3,3.1S210.1,27.9,210.1,25.9L210.1,25.9z"/>
			<path class="st1" d="M218.9,19.3h-4.1v-3.5h12.8v3.5h-4.1v12.3h-4.6L218.9,19.3z"/>
			<path class="st1" d="M226.7,28.5c0-2.7,2.3-3.8,6.2-3.8h1.1v-0.3c0-1.1-0.3-1.8-1.5-1.8c-0.8-0.1-1.5,0.5-1.6,1.3
				c0,0.1,0,0.1,0,0.2h-3.7c0.2-2.8,2.4-4.2,5.5-4.2s5.2,1.3,5.2,4.4v7.5H234v-1.4c-0.8,1.1-2.1,1.7-3.4,1.6
				C228.6,31.9,226.7,30.9,226.7,28.5z M234,27.6v-0.7h-1c-1.6,0-2.3,0.3-2.3,1.3c0,0.7,0.4,1.1,1.4,1.1
				C233.1,29.3,234,28.6,234,27.6L234,27.6z"/>
			<path class="st1" d="M242.8,25.8l-3.6-5.7h4.6l1.8,3.1l1.8-3.1h4.1l-3.7,5.4l4,6.2h-4.6l-2.1-3.5l-2.1,3.5h-4L242.8,25.8z"/>
			<path class="st1" d="M252.5,29.7c0-1.2,1-2.2,2.2-2.2h0.1c1.2-0.1,2.3,0.9,2.4,2.1s-0.9,2.3-2.1,2.4c-0.1,0-0.2,0-0.3,0
				c-1.2,0-2.2-0.9-2.3-2.1C252.5,29.7,252.5,29.7,252.5,29.7z"/>
			<path class="st1" d="M20.5,50.8h4.3c0.1,1.1,0.6,2.1,2.5,2.1c1.3,0,2-0.6,2-1.6s-0.6-1.2-2.5-1.5c-4.5-0.5-6-1.9-6-5
				c0-2.9,2.3-4.9,6.1-4.9s6,1.6,6.3,4.9h-4.1c0-1-0.8-1.8-1.8-1.8c-0.1,0-0.2,0-0.2,0c-1.2,0-1.8,0.5-1.8,1.3s0.5,1.3,2.5,1.5
				c4,0.5,6.1,1.5,6.1,4.9c0,2.9-2.3,5.3-6.4,5.3C22.9,56.1,20.6,54.2,20.5,50.8z"/>
			<path class="st1" d="M34.5,52.6c0-2.7,2.3-3.8,6.2-3.8h1.1v-0.3c0-1.1-0.3-1.8-1.5-1.8c-0.8-0.1-1.5,0.5-1.6,1.3v0.1H35
				c0.2-2.8,2.4-4.2,5.5-4.2s5.2,1.3,5.2,4.4v7.5h-3.9v-1.4c-0.8,1.1-2.1,1.7-3.4,1.6C36.3,56.1,34.5,55.1,34.5,52.6z M41.8,51.8
				v-0.7h-1c-1.6,0-2.3,0.3-2.3,1.3c0,0.7,0.4,1.1,1.4,1.1C40.9,53.4,41.8,52.8,41.8,51.8z"/>
			<path class="st1" d="M46.3,44.2h4.2l2.4,7.5l2.4-7.5h3.8l-4.3,11.6h-4.3L46.3,44.2z"/>
			<path class="st1" d="M58.9,50.2V50c-0.1-3.3,2.5-6,5.8-6.1c0.2,0,0.3,0,0.5,0c3.2,0,5.9,1.8,5.9,6v1h-8.2
				c-0.1,1.3,0.9,2.4,2.2,2.4c0.1,0,0.1,0,0.2,0c1.3,0,1.9-0.6,2-1.4H71c-0.4,2.6-2.4,4.1-5.9,4.1S58.9,54,58.9,50.2z M67.2,48.7
				c-0.1-1.4-0.8-2.2-2-2.2c-1.2,0-2.2,1-2.2,2.2H67.2z"/>
			<path class="st1" d="M76.3,51.8v-7.6h4v6.9c0,1.3,0.5,2,1.6,2s2-0.7,2-2.2v-6.7h4v11.6h-4V54c-0.7,1.4-2.1,2.2-3.7,2.1
				C78,56.1,76.3,54.7,76.3,51.8z"/>
			<path class="st1" d="M89.9,44.2h4V46c0.8-1.3,2.1-2,3.6-2c2.7,0,4.9,2,4.9,6v0.2c0,4-2.2,6-4.9,6c-1.5,0.1-2.9-0.7-3.6-2v5.6h-4
				V44.2z M98.3,50.1v-0.2c0-2-0.9-3-2.3-3s-2.3,1-2.3,3v0.2c0,2,0.9,3,2.3,3S98.3,52,98.3,50.1z"/>
			<path class="st1" d="M108.4,52.1v-5.2H107v-2.7h1.4v-2.4h4v2.4h2.3v2.7h-2.3v4.8c-0.1,0.6,0.3,1.1,0.8,1.3c0.1,0,0.2,0,0.3,0
				c0.4,0,0.8-0.1,1.1-0.2v3c-0.7,0.2-1.5,0.3-2.2,0.3C109.8,56.1,108.4,54.8,108.4,52.1z"/>
			<path class="st1" d="M115.5,50.2V50c0-3.7,2.8-6.1,6.4-6.1s6.3,2.3,6.3,6v0.2c0,3.8-2.8,6-6.3,6S115.5,53.9,115.5,50.2z
				 M124.2,50.1v-0.2c0-2-0.8-3-2.3-3s-2.3,1-2.3,3v0.2c0,2,0.8,3.1,2.3,3.1S124.2,52,124.2,50.1z"/>
		</g>
	</g>
</g>
</svg>
