<?xml version="1.0" encoding="utf-8"?>
<!-- Generator: Adobe Illustrator 24.0.2, SVG Export Plug-In . SVG Version: 6.00 Build 0)  -->
<svg version="1.1" id="Layer_1" xmlns="http://www.w3.org/2000/svg" xmlns:xlink="http://www.w3.org/1999/xlink" x="0px" y="0px"
	 viewBox="0 0 300 250" style="enable-background:new 0 0 300 250;" xml:space="preserve">
<style type="text/css">
	.st0{fill:none;}
	.st1{fill:#14AA40;}
</style>
<title>txt</title>
<g id="Layer_2_1_">
	<g id="headline1">
		<g id="Rect">
			<rect class="st0" width="300" height="250"/>
		</g>
		<g id="legal">
			<path class="st1" d="M143.5,224.4h1.8c1.2,0,2.3,0.5,2.3,1.9v0c0,1.4-1,1.9-2.3,1.9h-1v2.6h-0.8V224.4z M145.4,227.6
				c0.9,0,1.4-0.5,1.4-1.3v0c0-0.9-0.5-1.3-1.4-1.3h-1.1v2.6H145.4z"/>
			<path class="st1" d="M148.5,226.2h0.7v0.8c0.3-0.5,0.7-0.9,1.5-0.9v0.7c-0.9,0-1.5,0.3-1.5,1.5v2.6h-0.7V226.2z"/>
			<path class="st1" d="M151.7,224.7c0-0.3,0.2-0.5,0.5-0.5c0.3,0,0.5,0.2,0.5,0.5c0,0.3-0.2,0.5-0.5,0.5
				C151.9,225.2,151.7,225,151.7,224.7z M151.8,226.2h0.7v4.7h-0.7V226.2z"/>
			<path class="st1" d="M153.6,228.6L153.6,228.6c0-1.5,1-2.5,2.3-2.5c1,0,1.9,0.5,2,1.6h-0.7c-0.1-0.7-0.7-1-1.3-1
				c-0.9,0-1.5,0.7-1.5,1.8v0.1c0,1.2,0.6,1.8,1.5,1.8c0.7,0,1.3-0.4,1.4-1.2h0.7c-0.1,1-0.9,1.8-2.1,1.8
				C154.6,231,153.6,230,153.6,228.6z"/>
			<path class="st1" d="M158.6,228.6L158.6,228.6c0-1.5,0.9-2.5,2.2-2.5c1.1,0,2.1,0.7,2.1,2.3v0.2h-3.5c0,1.1,0.5,1.7,1.5,1.7
				c0.7,0,1.2-0.3,1.3-0.8h0.7c-0.2,0.9-0.9,1.4-2,1.4C159.5,231,158.6,230,158.6,228.6z M162.1,228.1c-0.1-1-0.6-1.4-1.4-1.4
				c-0.8,0-1.3,0.5-1.4,1.4H162.1z"/>
			<path class="st1" d="M165.8,228.6L165.8,228.6c0-1.5,0.9-2.5,2.2-2.5c0.8,0,1.3,0.4,1.5,0.8v-3h0.7v7h-0.7v-0.8
				c-0.3,0.5-0.9,0.9-1.6,0.9C166.7,231,165.8,230.1,165.8,228.6z M169.6,228.5L169.6,228.5c0-1.3-0.6-1.8-1.5-1.8
				c-0.9,0-1.5,0.7-1.5,1.8v0.1c0,1.2,0.6,1.8,1.4,1.8C168.9,230.3,169.6,229.8,169.6,228.5z"/>
			<path class="st1" d="M171.6,224.7c0-0.3,0.2-0.5,0.5-0.5c0.3,0,0.5,0.2,0.5,0.5c0,0.3-0.2,0.5-0.5,0.5
				C171.8,225.2,171.6,225,171.6,224.7z M171.7,226.2h0.7v4.7h-0.7V226.2z"/>
			<path class="st1" d="M174,226.8h-0.7v-0.6h0.7v-0.7c0-1,0.5-1.5,1.4-1.5c0.2,0,0.4,0,0.6,0.1v0.6c-0.1-0.1-0.3-0.1-0.5-0.1
				c-0.5,0-0.7,0.3-0.7,0.8v0.8h1.8v-0.8c0-1,0.5-1.5,1.4-1.5c0.2,0,0.4,0,0.6,0.1v0.6c-0.1-0.1-0.3-0.1-0.5-0.1
				c-0.5,0-0.7,0.3-0.7,0.8v0.8h1.2v0.6h-1.2v4.1h-0.7v-4.1h-1.8v4.1H174V226.8z"/>
			<path class="st1" d="M178.8,228.6L178.8,228.6c0-1.5,0.9-2.5,2.2-2.5c1.1,0,2.1,0.7,2.1,2.3v0.2h-3.5c0,1.1,0.5,1.7,1.5,1.7
				c0.7,0,1.2-0.3,1.3-0.8h0.7c-0.2,0.9-0.9,1.4-2,1.4C179.8,231,178.8,230,178.8,228.6z M182.4,228.1c-0.1-1-0.6-1.4-1.3-1.4
				c-0.8,0-1.3,0.5-1.4,1.4H182.4z"/>
			<path class="st1" d="M184.2,226.2h0.7v0.8c0.3-0.5,0.7-0.9,1.5-0.9v0.7c-0.9,0-1.5,0.3-1.5,1.5v2.6h-0.7V226.2z"/>
			<path class="st1" d="M186.9,228.6L186.9,228.6c0-1.5,0.9-2.5,2.2-2.5c1.1,0,2.1,0.7,2.1,2.3v0.2h-3.5c0,1.1,0.5,1.7,1.5,1.7
				c0.7,0,1.2-0.3,1.3-0.8h0.7c-0.2,0.9-0.9,1.4-2,1.4C187.9,231,186.9,230,186.9,228.6z M190.5,228.1c-0.1-1-0.6-1.4-1.3-1.4
				c-0.8,0-1.3,0.5-1.4,1.4H190.5z"/>
			<path class="st1" d="M192.2,226.2h0.7v0.7c0.2-0.4,0.7-0.8,1.5-0.8c1,0,1.7,0.5,1.7,1.9v2.9h-0.7v-2.9c0-0.8-0.4-1.2-1.1-1.2
				c-0.7,0-1.3,0.4-1.3,1.3v2.9h-0.7V226.2z"/>
			<path class="st1" d="M197.1,228.6L197.1,228.6c0-1.5,1-2.5,2.3-2.5c1,0,1.9,0.5,2,1.6h-0.7c-0.1-0.7-0.7-1-1.3-1
				c-0.9,0-1.5,0.7-1.5,1.8v0.1c0,1.2,0.6,1.8,1.5,1.8c0.7,0,1.3-0.4,1.4-1.2h0.7c-0.1,1-0.9,1.8-2.1,1.8
				C198.1,231,197.1,230,197.1,228.6z"/>
			<path class="st1" d="M202.1,228.6L202.1,228.6c0-1.5,0.9-2.5,2.2-2.5c1.1,0,2.1,0.7,2.1,2.3v0.2h-3.5c0,1.1,0.5,1.7,1.5,1.7
				c0.7,0,1.2-0.3,1.3-0.8h0.7c-0.2,0.9-0.9,1.4-2,1.4C203.1,231,202.1,230,202.1,228.6z M205.7,228.1c-0.1-1-0.6-1.4-1.4-1.4
				c-0.8,0-1.3,0.5-1.4,1.4H205.7z"/>
			<path class="st1" d="M210.5,230.1v0.8h-0.7v-7h0.7v3c0.3-0.5,0.9-0.9,1.6-0.9c1.2,0,2.1,0.9,2.1,2.4v0.1c0,1.4-0.8,2.4-2.1,2.4
				C211.3,231,210.7,230.6,210.5,230.1z M213.4,228.6L213.4,228.6c0-1.3-0.7-1.9-1.4-1.9c-0.9,0-1.5,0.6-1.5,1.8v0.1
				c0,1.2,0.6,1.8,1.5,1.8C212.9,230.3,213.4,229.7,213.4,228.6z"/>
			<path class="st1" d="M214.8,229.6c0-1.1,1.2-1.5,2.4-1.5h0.7v-0.3c0-0.7-0.3-1.1-1-1.1c-0.6,0-1,0.3-1.1,0.8H215
				c0.1-1.1,1-1.5,1.9-1.5c0.9,0,1.7,0.4,1.7,1.7v3.1h-0.7v-0.6c-0.4,0.4-0.8,0.7-1.5,0.7C215.5,231,214.8,230.5,214.8,229.6z
				 M217.9,229.2v-0.6h-0.6c-0.9,0-1.6,0.2-1.6,0.9c0,0.5,0.2,0.8,0.9,0.8C217.3,230.4,217.9,230,217.9,229.2z"/>
			<path class="st1" d="M219.6,229.4h0.7c0.1,0.6,0.4,0.9,1.1,0.9c0.7,0,1-0.2,1-0.7c0-0.5-0.4-0.7-1.1-0.8
				c-1.2-0.2-1.6-0.6-1.6-1.4c0-0.9,0.9-1.3,1.6-1.3c0.8,0,1.6,0.3,1.7,1.4h-0.7c-0.1-0.5-0.4-0.7-1-0.7c-0.5,0-0.9,0.3-0.9,0.7
				c0,0.4,0.2,0.6,1.1,0.7c1,0.2,1.7,0.4,1.7,1.4c0,0.9-0.6,1.4-1.7,1.4C220.3,231,219.6,230.4,219.6,229.4z"/>
			<path class="st1" d="M223.8,228.6L223.8,228.6c0-1.5,0.9-2.5,2.2-2.5c1.1,0,2.1,0.7,2.1,2.3v0.2h-3.5c0,1.1,0.5,1.7,1.5,1.7
				c0.7,0,1.2-0.3,1.3-0.8h0.7c-0.2,0.9-0.9,1.4-2,1.4C224.7,231,223.8,230,223.8,228.6z M227.3,228.1c-0.1-1-0.6-1.4-1.4-1.4
				c-0.8,0-1.3,0.5-1.4,1.4H227.3z"/>
			<path class="st1" d="M228.8,228.6L228.8,228.6c0-1.5,0.9-2.5,2.2-2.5c0.8,0,1.3,0.4,1.5,0.8v-3h0.7v7h-0.7v-0.8
				c-0.3,0.5-0.9,0.9-1.6,0.9C229.6,231,228.8,230.1,228.8,228.6z M232.5,228.5L232.5,228.5c0-1.3-0.6-1.8-1.5-1.8
				c-0.9,0-1.5,0.7-1.5,1.8v0.1c0,1.2,0.6,1.8,1.4,1.8C231.8,230.3,232.5,229.8,232.5,228.5z"/>
			<path class="st1" d="M236.5,228.6L236.5,228.6c0-1.5,1-2.5,2.3-2.5c1.3,0,2.3,1,2.3,2.4v0.1c0,1.4-1,2.4-2.3,2.4
				S236.5,229.9,236.5,228.6z M240.4,228.6L240.4,228.6c0-1.2-0.6-1.9-1.5-1.9c-0.9,0-1.5,0.7-1.5,1.8v0.1c0,1.1,0.6,1.8,1.5,1.8
				C239.8,230.3,240.4,229.6,240.4,228.6z"/>
			<path class="st1" d="M242.2,226.2h0.7v0.7c0.2-0.4,0.7-0.8,1.5-0.8c1,0,1.7,0.5,1.7,1.9v2.9h-0.7v-2.9c0-0.8-0.4-1.2-1.1-1.2
				c-0.7,0-1.3,0.4-1.3,1.3v2.9h-0.7V226.2z"/>
			<path class="st1" d="M249.3,228.6L249.3,228.6c0-1.5,1-2.5,2.3-2.5c1,0,1.9,0.5,2,1.6h-0.7c-0.1-0.7-0.7-1-1.3-1
				c-0.9,0-1.5,0.7-1.5,1.8v0.1c0,1.2,0.6,1.8,1.5,1.8c0.7,0,1.3-0.4,1.4-1.2h0.7c-0.1,1-0.9,1.8-2.1,1.8
				C250.3,231,249.3,230,249.3,228.6z"/>
			<path class="st1" d="M254.3,228.6L254.3,228.6c0-1.5,1-2.5,2.3-2.5c1.3,0,2.3,1,2.3,2.4v0.1c0,1.4-1,2.4-2.3,2.4
				C255.3,231,254.3,229.9,254.3,228.6z M258.2,228.6L258.2,228.6c0-1.2-0.6-1.9-1.5-1.9c-0.9,0-1.5,0.7-1.5,1.8v0.1
				c0,1.1,0.6,1.8,1.5,1.8C257.6,230.3,258.2,229.6,258.2,228.6z"/>
			<path class="st1" d="M259.6,229.4h0.7c0.1,0.6,0.4,0.9,1.1,0.9c0.7,0,1-0.2,1-0.7c0-0.5-0.4-0.7-1.1-0.8
				c-1.2-0.2-1.6-0.6-1.6-1.4c0-0.9,0.9-1.3,1.6-1.3c0.8,0,1.6,0.3,1.7,1.4h-0.7c-0.1-0.5-0.4-0.7-1-0.7c-0.5,0-0.9,0.3-0.9,0.7
				c0,0.4,0.2,0.6,1.1,0.7c1,0.2,1.7,0.4,1.7,1.4c0,0.9-0.6,1.4-1.7,1.4C260.3,231,259.6,230.4,259.6,229.4z"/>
			<path class="st1" d="M264.3,229.7v-2.9h-0.7v-0.6h0.7v-1.1h0.7v1.1h1.1v0.6h-1.1v2.8c0,0.5,0.2,0.7,0.6,0.7c0.2,0,0.4,0,0.6-0.1
				v0.6c-0.2,0.1-0.3,0.1-0.6,0.1C264.7,230.9,264.3,230.4,264.3,229.7z"/>
			<path class="st1" d="M269.6,226.8h-0.7v-0.6h0.7v-0.8c0-1,0.5-1.5,1.4-1.5c0.2,0,0.4,0,0.6,0.1v0.6c-0.1-0.1-0.3-0.1-0.5-0.1
				c-0.5,0-0.7,0.3-0.7,0.8v0.8h1.2v0.6h-1.2v4.1h-0.7V226.8z"/>
			<path class="st1" d="M271.9,228.6L271.9,228.6c0-1.5,1-2.5,2.3-2.5s2.3,1,2.3,2.4v0.1c0,1.4-1,2.4-2.3,2.4
				C272.8,231,271.9,229.9,271.9,228.6z M275.7,228.6L275.7,228.6c0-1.2-0.6-1.9-1.5-1.9c-0.9,0-1.5,0.7-1.5,1.8v0.1
				c0,1.1,0.6,1.8,1.5,1.8C275.1,230.3,275.7,229.6,275.7,228.6z"/>
			<path class="st1" d="M277.5,226.2h0.7v0.8c0.3-0.5,0.7-0.9,1.5-0.9v0.7c-0.9,0-1.5,0.3-1.5,1.5v2.6h-0.7V226.2z"/>
			<path class="st1" d="M165.3,235.8h-0.7v-0.6h0.7v-0.8c0-1,0.5-1.5,1.4-1.5c0.2,0,0.4,0,0.6,0.1v0.6c-0.1-0.1-0.3-0.1-0.5-0.1
				c-0.5,0-0.7,0.3-0.7,0.8v0.8h1.2v0.6H166v4.1h-0.7V235.8z"/>
			<path class="st1" d="M167.5,237.6L167.5,237.6c0-1.5,0.9-2.5,2.2-2.5c1.1,0,2.1,0.7,2.1,2.3v0.2h-3.5c0,1.1,0.5,1.7,1.5,1.7
				c0.7,0,1.2-0.3,1.3-0.8h0.7c-0.2,0.9-0.9,1.4-2,1.4C168.5,240,167.5,239,167.5,237.6z M171.1,237.1c-0.1-1-0.6-1.4-1.3-1.4
				c-0.8,0-1.3,0.5-1.4,1.4H171.1z"/>
			<path class="st1" d="M172.5,237.6L172.5,237.6c0-1.5,0.9-2.5,2.2-2.5c0.8,0,1.3,0.4,1.5,0.8v-3h0.7v7h-0.7v-0.8
				c-0.3,0.5-0.9,0.9-1.6,0.9C173.4,240,172.5,239.1,172.5,237.6z M176.3,237.5L176.3,237.5c0-1.3-0.6-1.8-1.5-1.8
				c-0.9,0-1.5,0.7-1.5,1.8v0.1c0,1.2,0.6,1.8,1.4,1.8C175.6,239.3,176.3,238.8,176.3,237.5z"/>
			<path class="st1" d="M178,237.6L178,237.6c0-1.5,0.9-2.5,2.2-2.5c1.1,0,2.1,0.7,2.1,2.3v0.2h-3.5c0,1.1,0.5,1.7,1.5,1.7
				c0.7,0,1.2-0.3,1.3-0.8h0.7c-0.2,0.9-0.9,1.4-2,1.4C179,240,178,239,178,237.6z M181.6,237.1c-0.1-1-0.6-1.4-1.4-1.4
				c-0.8,0-1.3,0.5-1.4,1.4H181.6z"/>
			<path class="st1" d="M183.3,235.2h0.7v0.8c0.3-0.5,0.7-0.9,1.5-0.9v0.7c-0.9,0-1.5,0.3-1.5,1.5v2.6h-0.7V235.2z"/>
			<path class="st1" d="M186.2,238.6c0-1.1,1.2-1.5,2.4-1.5h0.7v-0.3c0-0.7-0.3-1.1-1-1.1c-0.6,0-1,0.3-1.1,0.8h-0.7
				c0.1-1.1,1-1.5,1.9-1.5c0.9,0,1.7,0.4,1.7,1.7v3.1h-0.7v-0.6c-0.4,0.4-0.8,0.7-1.5,0.7C186.9,240,186.2,239.5,186.2,238.6z
				 M189.2,238.2v-0.6h-0.6c-0.9,0-1.6,0.2-1.6,0.9c0,0.5,0.2,0.8,0.9,0.8C188.6,239.4,189.2,239,189.2,238.2z"/>
			<path class="st1" d="M191.3,232.9h0.8v7h-0.8V232.9z"/>
			<path class="st1" d="M195.3,238.6c0-1.1,1.2-1.5,2.4-1.5h0.7v-0.3c0-0.7-0.3-1.1-1-1.1c-0.6,0-1,0.3-1.1,0.8h-0.7
				c0.1-1.1,1-1.5,1.9-1.5c0.9,0,1.7,0.4,1.7,1.7v3.1h-0.7v-0.6c-0.4,0.4-0.8,0.7-1.5,0.7C196,240,195.3,239.5,195.3,238.6z
				 M198.3,238.2v-0.6h-0.6c-0.9,0-1.6,0.2-1.6,0.9c0,0.5,0.2,0.8,0.9,0.8C197.7,239.4,198.3,239,198.3,238.2z"/>
			<path class="st1" d="M200.4,235.2h0.7v0.7c0.2-0.4,0.7-0.8,1.5-0.8c1,0,1.7,0.5,1.7,1.9v2.9h-0.7v-2.9c0-0.8-0.4-1.2-1.1-1.2
				c-0.7,0-1.3,0.4-1.3,1.3v2.9h-0.7V235.2z"/>
			<path class="st1" d="M205.3,237.6L205.3,237.6c0-1.5,0.9-2.5,2.2-2.5c0.8,0,1.3,0.4,1.5,0.8v-3h0.7v7H209v-0.8
				c-0.3,0.5-0.9,0.9-1.6,0.9C206.2,240,205.3,239.1,205.3,237.6z M209.1,237.5L209.1,237.5c0-1.3-0.6-1.8-1.5-1.8
				c-0.9,0-1.5,0.7-1.5,1.8v0.1c0,1.2,0.6,1.8,1.4,1.8C208.4,239.3,209.1,238.8,209.1,237.5z"/>
			<path class="st1" d="M213.1,237.6L213.1,237.6c0-1.5,1-2.5,2.3-2.5c1.3,0,2.3,1,2.3,2.4v0.1c0,1.4-1,2.4-2.3,2.4
				C214,240,213.1,238.9,213.1,237.6z M216.9,237.6L216.9,237.6c0-1.2-0.6-1.9-1.5-1.9c-0.9,0-1.5,0.7-1.5,1.8v0.1
				c0,1.1,0.6,1.8,1.5,1.8C216.3,239.3,216.9,238.6,216.9,237.6z"/>
			<path class="st1" d="M218.7,235.2h0.7v0.7c0.2-0.4,0.7-0.8,1.5-0.8c1,0,1.7,0.5,1.7,1.9v2.9h-0.7v-2.9c0-0.8-0.4-1.2-1.1-1.2
				c-0.7,0-1.3,0.4-1.3,1.3v2.9h-0.7V235.2z"/>
			<path class="st1" d="M223.6,237.6L223.6,237.6c0-1.5,0.9-2.5,2.2-2.5c1.1,0,2.1,0.7,2.1,2.3v0.2h-3.5c0,1.1,0.5,1.7,1.5,1.7
				c0.7,0,1.2-0.3,1.3-0.8h0.7c-0.2,0.9-0.9,1.4-2,1.4C224.6,240,223.6,239,223.6,237.6z M227.2,237.1c-0.1-1-0.6-1.4-1.4-1.4
				c-0.8,0-1.3,0.5-1.4,1.4H227.2z"/>
			<path class="st1" d="M230.8,238.4h0.7c0.1,0.6,0.4,0.9,1.1,0.9c0.7,0,1-0.2,1-0.7c0-0.5-0.4-0.7-1.1-0.8
				c-1.2-0.2-1.6-0.6-1.6-1.4c0-0.9,0.9-1.3,1.6-1.3c0.8,0,1.6,0.3,1.7,1.4h-0.7c-0.1-0.5-0.4-0.7-1-0.7c-0.5,0-0.9,0.3-0.9,0.7
				c0,0.4,0.2,0.6,1.1,0.7c1,0.2,1.7,0.4,1.7,1.4c0,0.9-0.6,1.4-1.7,1.4C231.5,240,230.9,239.4,230.8,238.4z"/>
			<path class="st1" d="M235.5,238.7v-2.9h-0.7v-0.6h0.7v-1.1h0.7v1.1h1.1v0.6h-1.1v2.8c0,0.5,0.2,0.7,0.6,0.7c0.2,0,0.4,0,0.6-0.1
				v0.6c-0.2,0.1-0.3,0.1-0.6,0.1C236,239.9,235.5,239.4,235.5,238.7z"/>
			<path class="st1" d="M238.1,238.6c0-1.1,1.2-1.5,2.4-1.5h0.7v-0.3c0-0.7-0.3-1.1-1-1.1c-0.6,0-1,0.3-1.1,0.8h-0.7
				c0.1-1.1,1-1.5,1.9-1.5c0.9,0,1.7,0.4,1.7,1.7v3.1h-0.7v-0.6c-0.4,0.4-0.8,0.7-1.5,0.7C238.8,240,238.1,239.5,238.1,238.6z
				 M241.1,238.2v-0.6h-0.6c-0.9,0-1.6,0.2-1.6,0.9c0,0.5,0.2,0.8,0.9,0.8C240.5,239.4,241.1,239,241.1,238.2z"/>
			<path class="st1" d="M243.4,238.7v-2.9h-0.7v-0.6h0.7v-1.1h0.7v1.1h1.1v0.6h-1.1v2.8c0,0.5,0.2,0.7,0.6,0.7c0.2,0,0.4,0,0.6-0.1
				v0.6c-0.2,0.1-0.3,0.1-0.6,0.1C243.8,239.9,243.4,239.4,243.4,238.7z"/>
			<path class="st1" d="M245.9,237.6L245.9,237.6c0-1.5,0.9-2.5,2.2-2.5c1.1,0,2.1,0.7,2.1,2.3v0.2h-3.5c0,1.1,0.5,1.7,1.5,1.7
				c0.7,0,1.2-0.3,1.3-0.8h0.7c-0.2,0.9-0.9,1.4-2,1.4C246.9,240,245.9,239,245.9,237.6z M249.5,237.1c-0.1-1-0.6-1.4-1.4-1.4
				c-0.8,0-1.3,0.5-1.4,1.4H249.5z"/>
			<path class="st1" d="M253.5,235.2h0.7v0.8c0.3-0.5,0.7-0.9,1.5-0.9v0.7c-0.9,0-1.5,0.3-1.5,1.5v2.6h-0.7V235.2z"/>
			<path class="st1" d="M256.3,237.6L256.3,237.6c0-1.5,0.9-2.5,2.2-2.5c1.1,0,2.1,0.7,2.1,2.3v0.2H257c0,1.1,0.5,1.7,1.5,1.7
				c0.7,0,1.2-0.3,1.3-0.8h0.7c-0.2,0.9-0.9,1.4-2,1.4C257.2,240,256.3,239,256.3,237.6z M259.8,237.1c-0.1-1-0.6-1.4-1.4-1.4
				c-0.8,0-1.3,0.5-1.4,1.4H259.8z"/>
			<path class="st1" d="M261.7,238.7v-2.9h-0.7v-0.6h0.7v-1.1h0.7v1.1h1.1v0.6h-1.1v2.8c0,0.5,0.2,0.7,0.6,0.7c0.2,0,0.4,0,0.6-0.1
				v0.6c-0.2,0.1-0.3,0.1-0.6,0.1C262.2,239.9,261.7,239.4,261.7,238.7z"/>
			<path class="st1" d="M264.6,238.1v-3h0.7v2.9c0,0.8,0.4,1.2,1.1,1.2c0.7,0,1.3-0.4,1.3-1.3v-2.9h0.7v4.7h-0.7v-0.7
				c-0.2,0.4-0.7,0.8-1.5,0.8C265.3,240,264.6,239.4,264.6,238.1z"/>
			<path class="st1" d="M269.9,235.2h0.7v0.8c0.3-0.5,0.7-0.9,1.5-0.9v0.7c-0.9,0-1.5,0.3-1.5,1.5v2.6h-0.7V235.2z"/>
			<path class="st1" d="M273.1,235.2h0.7v0.7c0.2-0.4,0.7-0.8,1.5-0.8c1,0,1.7,0.5,1.7,1.9v2.9h-0.7v-2.9c0-0.8-0.4-1.2-1.1-1.2
				c-0.7,0-1.3,0.4-1.3,1.3v2.9h-0.7V235.2z"/>
			<path class="st1" d="M278.3,239.3c0-0.3,0.3-0.6,0.6-0.6c0.3,0,0.6,0.3,0.6,0.6s-0.3,0.6-0.6,0.6
				C278.6,239.9,278.3,239.7,278.3,239.3z"/>
		</g>
		<g id="Switch_from_TurboTax._Save_up_to">
			<path class="st1" d="M20.5,26.6h4.3c0.1,1.1,0.6,2.1,2.5,2.1c1.3,0,2-0.6,2-1.6s-0.6-1.2-2.5-1.5c-4.5-0.5-6-1.9-6-5.1
				c0-2.9,2.3-4.9,6.1-4.9s6,1.6,6.3,4.9h-4.1c0-1-0.9-1.8-1.9-1.7c0,0-0.1,0-0.1,0c-1.2,0-1.8,0.5-1.8,1.4s0.5,1.3,2.5,1.5
				c4,0.5,6.1,1.5,6.1,4.9c0,2.9-2.3,5.3-6.4,5.3C22.9,31.9,20.6,30.1,20.5,26.6z"/>
			<path class="st1" d="M34,20.1h4.2l1.7,6.9l2-6.9H45l1.7,6.9l1.9-6.9h3.8l-3.7,11.6h-3.8l-1.7-6.5l-1.8,6.5h-3.9L34,20.1z"/>
			<path class="st1" d="M53.3,17c-0.1-1.2,0.8-2.3,2-2.4s2.3,0.8,2.4,2s-0.8,2.3-2,2.4c-0.1,0-0.1,0-0.2,0c-1.1,0.1-2.1-0.7-2.2-1.8
				C53.3,17.1,53.3,17.1,53.3,17z M53.5,20.1h4v11.5h-4V20.1z"/>
			<path class="st1" d="M60.1,28v-5.2h-1.4v-2.7h1.4v-2.4h4v2.4h2.3v2.7h-2.3v4.8c-0.1,0.6,0.3,1.1,0.9,1.2c0.1,0,0.2,0,0.3,0
				c0.4,0,0.8-0.1,1.1-0.2v3c-0.7,0.2-1.5,0.3-2.2,0.3C61.6,31.9,60.1,30.7,60.1,28z"/>
			<path class="st1" d="M67.3,26v-0.2c-0.1-3.2,2.4-5.9,5.6-6.1c0.2,0,0.4,0,0.6,0c2.8,0,5.4,1.2,5.7,4.8h-3.7
				c0-0.9-0.8-1.7-1.7-1.7c0,0-0.1,0-0.1,0c-1.4,0-2.2,1-2.2,3V26c0,2,0.8,3.1,2.3,3.1c1.1,0,2-0.8,2-1.9c0,0,0,0,0-0.1h3.6
				c-0.1,2.9-2.1,4.8-5.8,4.8C69.9,31.9,67.3,29.9,67.3,26z"/>
			<path class="st1" d="M80.5,15h4v7c0.7-1.4,2.2-2.2,3.8-2.2c2.2,0,3.8,1.4,3.8,4.4v7.5h-4v-6.8c0-1.3-0.5-2-1.7-2s-2,0.7-2,2.2
				v6.5h-4L80.5,15z"/>
			<path class="st1" d="M98.6,22.8h-1.5v-2.7h1.5v-1c0-2.9,1.8-4.3,4.5-4.3c0.6,0,1.2,0.1,1.8,0.2V18c-0.4-0.1-0.7-0.2-1.1-0.1
				c-0.6-0.1-1.2,0.3-1.3,1c0,0.1,0,0.2,0,0.3v1h2.3v2.7h-2.3v8.9h-3.9V22.8z"/>
			<path class="st1" d="M106.2,20.1h4v2.3c0.5-1.6,2.1-2.6,3.8-2.5v3.7c-2.4-0.1-3.8,0.7-3.8,2.5v5.5h-4V20.1z"/>
			<path class="st1" d="M114.6,26v-0.2c0-3.7,2.8-6.1,6.4-6.1s6.3,2.3,6.3,6v0.2c0,3.8-2.8,6-6.3,6S114.6,29.8,114.6,26z
				 M123.3,25.9v-0.2c0-2-0.8-3-2.3-3s-2.3,1-2.3,3v0.2c0,2,0.8,3.1,2.3,3.1S123.3,27.9,123.3,25.9L123.3,25.9z"/>
			<path class="st1" d="M128.7,20.1h4v1.8c0.7-1.3,2.1-2.1,3.6-2.1c1.4-0.1,2.6,0.7,3.1,1.9c0.9-1.2,2.3-2,3.8-1.9
				c2.2,0,3.8,1.4,3.8,4.3v7.6h-4v-6.9c0-1.2-0.6-1.8-1.5-1.8c-0.9,0-1.8,0.7-1.8,1.6c0,0.1,0,0.2,0,0.4v6.7h-3.9v-6.9
				c0-1.2-0.6-1.8-1.5-1.8c-0.9,0-1.8,0.7-1.8,1.6c0,0.1,0,0.2,0,0.3v6.7h-4L128.7,20.1z"/>
			<path class="st1" d="M156.4,19.3h-4.1v-3.5h12.8v3.5H161v12.3h-4.6V19.3z"/>
			<path class="st1" d="M165.4,27.6v-7.6h4V27c0,1.3,0.5,2,1.6,2s2-0.7,2-2.2v-6.7h4v11.6h-4v-1.8c-0.7,1.4-2.1,2.2-3.7,2.1
				C167.1,31.9,165.4,30.6,165.4,27.6z"/>
			<path class="st1" d="M179,20.1h4v2.3c0.5-1.6,2.1-2.6,3.8-2.5v3.7c-2.4-0.1-3.8,0.7-3.8,2.5v5.5h-4V20.1z"/>
			<path class="st1" d="M192.1,29.9v1.8h-4V15h4v6.8c0.8-1.3,2.1-2,3.6-2c2.7,0,4.9,2,4.9,6V26c0,4-2.2,6-4.9,6
				C194.2,32.1,192.7,31.2,192.1,29.9z M196.6,26v-0.2c0-2-0.9-3-2.3-3s-2.3,1-2.3,3V26c0,2,0.9,3,2.3,3S196.6,27.9,196.6,26z"/>
			<path class="st1" d="M201.4,26v-0.2c0-3.7,2.8-6.1,6.4-6.1s6.3,2.3,6.3,6v0.2c0,3.8-2.8,6-6.3,6S201.4,29.8,201.4,26z
				 M210.1,25.9v-0.2c0-2-0.8-3-2.3-3s-2.3,1-2.3,3v0.2c0,2,0.8,3.1,2.3,3.1S210.1,27.9,210.1,25.9L210.1,25.9z"/>
			<path class="st1" d="M218.9,19.3h-4.1v-3.5h12.8v3.5h-4.1v12.3h-4.6L218.9,19.3z"/>
			<path class="st1" d="M226.7,28.5c0-2.7,2.3-3.8,6.2-3.8h1.1v-0.3c0-1.1-0.3-1.8-1.5-1.8c-0.8-0.1-1.5,0.5-1.6,1.3
				c0,0.1,0,0.1,0,0.2h-3.7c0.2-2.8,2.4-4.2,5.5-4.2s5.2,1.3,5.2,4.4v7.5h-3.9v-1.4c-0.8,1.1-2.1,1.7-3.4,1.6
				C228.6,31.9,226.7,30.9,226.7,28.5z M234,27.6v-0.7h-1c-1.6,0-2.3,0.3-2.3,1.3c0,0.7,0.4,1.1,1.4,1.1
				C233.1,29.3,234,28.6,234,27.6L234,27.6z"/>
			<path class="st1" d="M242.8,25.8l-3.6-5.7h4.6l1.8,3.1l1.8-3.1h4.1l-3.7,5.4l4,6.2h-4.6l-2.1-3.5l-2.1,3.5h-4L242.8,25.8z"/>
			<path class="st1" d="M252.5,29.7c0-1.2,1-2.2,2.2-2.2c0,0,0.1,0,0.1,0c1.2-0.1,2.3,0.9,2.4,2.1s-0.9,2.3-2.1,2.4
				c-0.1,0-0.2,0-0.3,0c-1.2,0-2.2-0.9-2.3-2.1C252.5,29.7,252.5,29.7,252.5,29.7z"/>
			<path class="st1" d="M20.5,50.8h4.3c0.1,1.1,0.6,2.1,2.5,2.1c1.3,0,2-0.6,2-1.6s-0.6-1.2-2.5-1.5c-4.5-0.5-6-1.9-6-5
				c0-2.9,2.3-4.9,6.1-4.9s6,1.6,6.3,4.9h-4.1c0-1-0.8-1.8-1.8-1.8c-0.1,0-0.2,0-0.2,0c-1.2,0-1.8,0.5-1.8,1.3s0.5,1.3,2.5,1.5
				c4,0.5,6.1,1.5,6.1,4.9c0,2.9-2.3,5.3-6.4,5.3C22.9,56.1,20.6,54.2,20.5,50.8z"/>
			<path class="st1" d="M34.5,52.6c0-2.7,2.3-3.8,6.2-3.8h1.1v-0.3c0-1.1-0.3-1.8-1.5-1.8c-0.8-0.1-1.5,0.5-1.6,1.3c0,0,0,0.1,0,0.1
				H35c0.2-2.8,2.4-4.2,5.5-4.2s5.2,1.3,5.2,4.4v7.5h-3.9v-1.4c-0.8,1.1-2.1,1.7-3.4,1.6C36.3,56.1,34.5,55.1,34.5,52.6z M41.8,51.8
				v-0.7h-1c-1.6,0-2.3,0.3-2.3,1.3c0,0.7,0.4,1.1,1.4,1.1C40.9,53.4,41.8,52.8,41.8,51.8z"/>
			<path class="st1" d="M46.3,44.2h4.2l2.4,7.5l2.4-7.5h3.8l-4.3,11.6h-4.3L46.3,44.2z"/>
			<path class="st1" d="M58.9,50.2V50c-0.1-3.3,2.5-6,5.8-6.1c0.2,0,0.3,0,0.5,0c3.2,0,5.9,1.8,5.9,6v1h-8.2
				c-0.1,1.3,0.9,2.4,2.2,2.4c0.1,0,0.1,0,0.2,0c1.3,0,1.9-0.6,2-1.4H71c-0.4,2.6-2.4,4.1-5.9,4.1S58.9,54,58.9,50.2z M67.2,48.7
				c-0.1-1.4-0.8-2.2-2-2.2c-1.2,0-2.2,1-2.2,2.2H67.2z"/>
			<path class="st1" d="M76.3,51.8v-7.6h4v6.9c0,1.3,0.5,2,1.6,2s2-0.7,2-2.2v-6.7h4v11.6h-4V54c-0.7,1.4-2.1,2.2-3.7,2.1
				C78,56.1,76.3,54.7,76.3,51.8z"/>
			<path class="st1" d="M89.9,44.2h4V46c0.8-1.3,2.1-2,3.6-2c2.7,0,4.9,2,4.9,6v0.2c0,4-2.2,6-4.9,6c-1.5,0.1-2.9-0.7-3.6-2v5.6h-4
				L89.9,44.2z M98.3,50.1v-0.2c0-2-0.9-3-2.3-3s-2.3,1-2.3,3v0.2c0,2,0.9,3,2.3,3S98.3,52,98.3,50.1z"/>
			<path class="st1" d="M108.4,52.1v-5.2H107v-2.7h1.4v-2.4h4v2.4h2.3v2.7h-2.3v4.8c-0.1,0.6,0.3,1.1,0.8,1.3c0.1,0,0.2,0,0.3,0
				c0.4,0,0.8-0.1,1.1-0.2v3c-0.7,0.2-1.5,0.3-2.2,0.3C109.8,56.1,108.4,54.8,108.4,52.1z"/>
			<path class="st1" d="M115.5,50.2V50c0-3.7,2.8-6.1,6.4-6.1s6.3,2.3,6.3,6v0.2c0,3.8-2.8,6-6.3,6S115.5,53.9,115.5,50.2z
				 M124.2,50.1v-0.2c0-2-0.8-3-2.3-3s-2.3,1-2.3,3v0.2c0,2,0.8,3.1,2.3,3.1S124.2,52,124.2,50.1z"/>
		</g>
	</g>
</g>
</svg>
