<?xml version="1.0" encoding="utf-8"?>
<!-- Generator: Adobe Illustrator 24.0.2, SVG Export Plug-In . SVG Version: 6.00 Build 0)  -->
<svg version="1.1" id="Layer_1" xmlns="http://www.w3.org/2000/svg" xmlns:xlink="http://www.w3.org/1999/xlink" x="0px" y="0px"
	 viewBox="0 0 160 600" style="enable-background:new 0 0 160 600;" xml:space="preserve">
<style type="text/css">
	.st0{fill:#14AA40;}
	.st1{fill:none;}
</style>
<title>160x600 2</title>
<g id="Layer_2_1_">
	<g id="Switch_from_TurboTax._Save_at_least">
		<path class="st0" d="M20.6,73.2h4.9c0.1,1.3,0.7,2.3,2.8,2.3c1.5,0,2.3-0.7,2.3-1.8s-0.7-1.4-2.8-1.7c-5-0.6-6.8-2.1-6.8-5.7
			c0-3.2,2.6-5.6,6.9-5.6s6.7,1.8,7,5.6h-4.7c0-1.1-0.9-2-2-2c-0.1,0-0.2,0-0.3,0c-1.4,0-2.1,0.6-2.1,1.5s0.5,1.4,2.8,1.8
			c4.5,0.5,6.9,1.7,6.9,5.6c0,3.3-2.6,5.9-7.2,5.9C23.3,79.1,20.7,77,20.6,73.2z"/>
		<path class="st0" d="M35.8,65.8h4.7l1.9,7.8l2.2-7.8h3.6l2,7.8l2.1-7.8h4.2l-4.2,13.1h-4.3l-2-7.3l-2,7.3h-4.4L35.8,65.8z"/>
		<path class="st0" d="M57.6,62.2c-0.1-1.4,0.9-2.5,2.3-2.6c1.4-0.1,2.5,0.9,2.6,2.3c0.1,1.4-0.9,2.5-2.3,2.6c-0.1,0-0.1,0-0.2,0
			C58.8,64.6,57.7,63.6,57.6,62.2C57.6,62.3,57.6,62.2,57.6,62.2z M57.8,65.8h4.5v13.1h-4.5V65.8z"/>
		<path class="st0" d="M65.3,74.6v-5.8h-1.6v-3h1.6V63h4.5v2.7h2.6v3h-2.6v5.4c-0.1,0.7,0.3,1.3,1,1.4c0.1,0,0.2,0,0.3,0
			c0.4,0,0.9-0.1,1.3-0.2v3.4c-0.8,0.2-1.6,0.4-2.5,0.4C67,79.1,65.3,77.7,65.3,74.6z"/>
		<path class="st0" d="M73.3,72.4v-0.2c0-4.3,3.1-6.8,7-6.8c3.2,0,6.2,1.4,6.4,5.4h-4.2c0-1.1-0.9-1.9-2-1.9c0,0-0.1,0-0.1,0
			c-1.6,0-2.5,1.1-2.5,3.3v0.2c0,2.3,0.9,3.4,2.6,3.4c1.2,0.1,2.2-0.9,2.3-2.1c0,0,0-0.1,0-0.1h4c-0.1,3.3-2.3,5.4-6.6,5.4
			C76.3,79.1,73.3,76.8,73.3,72.4z"/>
		<path class="st0" d="M88.3,60h4.5v7.8c0.8-1.6,2.5-2.5,4.3-2.4c2.5,0,4.3,1.6,4.3,4.9v8.5h-4.5v-7.6c0-1.5-0.6-2.2-1.9-2.2
			s-2.2,0.8-2.2,2.5v7.3h-4.5V60z"/>
		<path class="st0" d="M22,95.8h-1.6v-3H22v-1.2c0-3.3,2-4.8,5.1-4.8c0.7,0,1.4,0.1,2,0.3v3.3c-0.4-0.1-0.8-0.2-1.2-0.2
			c-0.7-0.1-1.4,0.4-1.5,1.1c0,0.1,0,0.2,0,0.3v1.2h2.6v3h-2.6v10H22V95.8z"/>
		<path class="st0" d="M30.6,92.8h4.5v2.6c0.6-1.8,2.4-2.9,4.2-2.8v4.2c-2.7-0.1-4.2,0.8-4.2,2.9v6.2h-4.5V92.8z"/>
		<path class="st0" d="M40.1,99.4v-0.2c0-4.2,3.1-6.8,7.2-6.8s7.1,2.6,7.1,6.7v0.2c0,4.3-3.1,6.8-7.2,6.8S40.1,103.7,40.1,99.4z
			 M49.8,99.4v-0.2c0-2.2-0.9-3.4-2.6-3.4s-2.6,1.2-2.6,3.4v0.2c0,2.3,0.9,3.5,2.6,3.5S49.8,101.6,49.8,99.4z"/>
		<path class="st0" d="M56,92.8h4.5v2c0.8-1.5,2.4-2.4,4.1-2.3c1.5-0.1,3,0.8,3.6,2.2c1-1.4,2.6-2.2,4.3-2.2c2.5,0,4.3,1.6,4.3,4.9
			v8.5h-4.5V98c0-1.3-0.7-2-1.7-2c-1.1,0-2,0.8-2,1.9c0,0.1,0,0.2,0,0.3v7.6h-4.4V98c0-1.3-0.7-2-1.7-2c-1.1,0-2,0.8-2,1.9
			c0,0.1,0,0.2,0,0.3v7.6H56V92.8z"/>
		<path class="st0" d="M25.1,118.9h-4.6v-4h14.4v4h-4.6v13.9h-5.1V118.9z"/>
		<path class="st0" d="M35.3,128.3v-8.5h4.5v7.8c0,1.5,0.6,2.2,1.8,2.2s2.2-0.8,2.2-2.5v-7.5h4.5v13.1h-4.5v-2
			c-0.8,1.5-2.4,2.5-4.2,2.3C37.2,133.1,35.3,131.6,35.3,128.3z"/>
		<path class="st0" d="M50.6,119.8h4.5v2.6c0.6-1.8,2.3-2.9,4.2-2.8v4.2c-2.7-0.1-4.2,0.8-4.2,2.9v6.2h-4.5V119.8z"/>
		<path class="st0" d="M65.4,130.8v2H61V114h4.5v7.7c0.8-1.5,2.4-2.3,4.1-2.3c3,0,5.5,2.3,5.5,6.8v0.2c0,4.5-2.5,6.7-5.6,6.7
			C67.8,133.2,66.2,132.3,65.4,130.8z M70.4,126.4v-0.2c0-2.3-1-3.4-2.6-3.4s-2.6,1.2-2.6,3.4v0.2c0,2.2,1,3.4,2.6,3.4
			S70.5,128.5,70.4,126.4L70.4,126.4z"/>
		<path class="st0" d="M76,126.4v-0.2c0-4.2,3.1-6.8,7.2-6.8s7.1,2.6,7.1,6.7v0.2c0,4.3-3.1,6.8-7.2,6.8S76,130.7,76,126.4z
			 M85.8,126.4v-0.2c0-2.2-0.9-3.4-2.6-3.4s-2.6,1.2-2.6,3.4v0.2c0,2.2,0.9,3.5,2.6,3.5S85.7,128.6,85.8,126.4L85.8,126.4z"/>
		<path class="st0" d="M95.7,118.9H91v-4h14.4v4h-4.6v13.9h-5.2V118.9z"/>
		<path class="st0" d="M104.5,129.2c0-3.1,2.6-4.3,7-4.3h1.3v-0.3c0-1.3-0.3-2.1-1.7-2.1c-0.9-0.1-1.7,0.5-1.8,1.4c0,0,0,0.1,0,0.1
			H105c0.2-3.2,2.7-4.7,6.3-4.7s5.9,1.5,5.9,4.9v8.5h-4.3v-1.5c-0.9,1.3-2.3,1.9-3.9,1.8C106.6,133.1,104.5,132,104.5,129.2z
			 M112.7,128.3v-0.8h-1.2c-1.8,0-2.6,0.3-2.6,1.4c0,0.8,0.5,1.2,1.6,1.2C111.6,130.2,112.6,129.4,112.7,128.3
			C112.7,128.3,112.7,128.3,112.7,128.3z"/>
		<path class="st0" d="M122.7,126.2l-4.1-6.4h5.2l2,3.4l2-3.4h4.6l-4.1,6.1l4.5,7h-5.2l-2.3-3.9l-2.4,3.9h-4.6L122.7,126.2z"/>
		<path class="st0" d="M133.6,130.6c0-1.4,1.1-2.5,2.5-2.5c0,0,0.1,0,0.1,0c1.4-0.2,2.7,0.7,2.9,2.1s-0.7,2.7-2.1,2.9
			c-0.3,0-0.5,0-0.8,0C134.8,133.1,133.7,132,133.6,130.6C133.6,130.6,133.6,130.6,133.6,130.6z"/>
		<path class="st0" d="M20.6,154.1h4.9c0.1,1.3,0.7,2.3,2.8,2.3c1.5,0,2.3-0.7,2.3-1.8s-0.7-1.4-2.8-1.7c-5-0.6-6.8-2.1-6.8-5.7
			c0-3.2,2.6-5.6,6.9-5.6s6.7,1.8,7,5.6h-4.7c0-1.1-0.9-2-2-2c-0.1,0-0.2,0-0.3,0c-1.4,0-2.1,0.6-2.1,1.5s0.5,1.4,2.8,1.8
			c4.5,0.5,6.9,1.7,6.9,5.6c0,3.3-2.6,5.9-7.2,5.9C23.3,160.1,20.7,158,20.6,154.1z"/>
		<path class="st0" d="M35.9,156.2c0-3.1,2.6-4.3,7-4.3h1.3v-0.3c0-1.3-0.3-2.1-1.7-2.1c-0.9-0.1-1.7,0.5-1.8,1.4c0,0,0,0.1,0,0.1
			h-4.2c0.2-3.1,2.7-4.7,6.3-4.7s5.9,1.5,5.9,4.9v8.5h-4.4v-1.5c-0.9,1.3-2.3,1.9-3.9,1.8C38,160.1,35.9,159,35.9,156.2z
			 M44.1,155.3v-0.8h-1.2c-1.8,0-2.6,0.4-2.6,1.4c0,0.8,0.5,1.2,1.5,1.2C42.9,157.2,43.9,156.4,44.1,155.3
			C44.1,155.3,44.1,155.3,44.1,155.3z"/>
		<path class="st0" d="M48.7,146.8h4.8l2.7,8.4l2.7-8.4h4.3l-4.8,13.1h-4.9L48.7,146.8z"/>
		<path class="st0" d="M62.4,153.4v-0.2c0-4.2,3.1-6.9,7.1-6.9c3.6,0,6.7,2,6.7,6.8v1.2h-9.2c-0.1,1.4,1,2.7,2.5,2.7
			c0.1,0,0.2,0,0.2,0c1.5,0,2.1-0.7,2.3-1.6h4.2c-0.4,2.9-2.7,4.6-6.6,4.6S62.4,157.7,62.4,153.4z M71.8,151.8
			c-0.1-1.6-0.8-2.4-2.3-2.4c-1.3,0-2.4,1.1-2.4,2.4H71.8z"/>
		<path class="st0" d="M80.4,156.2c0-3.1,2.6-4.3,7-4.3h1.3v-0.3c0-1.3-0.3-2.1-1.7-2.1c-0.9-0.1-1.7,0.6-1.8,1.4c0,0,0,0.1,0,0.1
			H81c0.2-3.1,2.7-4.7,6.3-4.7s5.9,1.5,5.9,4.9v8.5h-4.4v-1.5c-0.9,1.3-2.4,1.9-3.9,1.8C82.5,160.1,80.4,159,80.4,156.2z
			 M88.6,155.3v-0.8h-1.2c-1.8,0-2.6,0.4-2.6,1.4c0,0.8,0.5,1.2,1.6,1.2C87.7,157.1,88.7,156.4,88.6,155.3z"/>
		<path class="st0" d="M95.3,155.6v-5.8h-1.6v-3.1h1.6V144h4.5v2.7h2.6v3.1h-2.6v5.4c-0.1,0.7,0.3,1.3,1,1.4c0.1,0,0.2,0,0.3,0
			c0.4,0,0.9-0.1,1.3-0.2v3.4c-0.8,0.2-1.6,0.4-2.5,0.4C97,160.1,95.3,158.7,95.3,155.6z"/>
		<path class="st0" d="M21.5,168h4.4v18.8h-4.4V168z"/>
		<path class="st0" d="M27.1,180.4v-0.2c0-4.2,3.1-6.9,7.1-6.9c3.6,0,6.7,2,6.7,6.8v1.2h-9.2c-0.1,1.4,1.1,2.7,2.5,2.7
			c0.1,0,0.1,0,0.2,0c1.5,0,2.1-0.7,2.3-1.6h4.2c-0.4,2.9-2.7,4.6-6.6,4.6C30.1,187.1,27.1,184.7,27.1,180.4z M36.5,178.8
			c-0.1-1.6-0.8-2.4-2.3-2.4c-1.4,0-2.5,1.1-2.5,2.4H36.5z"/>
		<path class="st0" d="M41.3,183.2c0-3.1,2.6-4.3,7-4.3h1.3v-0.3c0-1.3-0.3-2.1-1.7-2.1c-0.9-0.1-1.7,0.6-1.8,1.4c0,0,0,0.1,0,0.1
			h-4.2c0.2-3.1,2.7-4.7,6.3-4.7s5.9,1.5,5.9,4.9v8.5h-4.4v-1.5c-0.9,1.3-2.4,1.9-3.9,1.8C43.3,187.1,41.3,186,41.3,183.2z
			 M49.5,182.3v-0.8h-1.2c-1.8,0-2.6,0.4-2.6,1.4c0,0.8,0.5,1.2,1.5,1.2C48.5,184.1,49.5,183.4,49.5,182.3z"/>
		<path class="st0" d="M54.7,182.7h4.1c0.2,0.9,0.6,1.5,1.8,1.5c1.1,0,1.6-0.4,1.6-1.1s-0.6-0.9-2.4-1.2c-3.5-0.4-5-1.5-5-4.2
			c0-2.9,2.6-4.3,5.6-4.3c3.2,0,5.5,1.1,5.8,4.2h-4c-0.1-0.8-0.8-1.4-1.6-1.3c0,0-0.1,0-0.1,0c-1,0-1.5,0.4-1.5,1s0.6,0.9,2.2,1.1
			c3.6,0.4,5.4,1.4,5.4,4.2c0,3.1-2.3,4.5-5.9,4.5S54.8,185.6,54.7,182.7z"/>
		<path class="st0" d="M68.2,182.6v-5.8h-1.6v-3.1h1.6V171h4.5v2.7h2.6v3.1h-2.6v5.4c0,1,0.5,1.4,1.3,1.4c0.4,0,0.9-0.1,1.3-0.2v3.4
			c-0.8,0.2-1.6,0.4-2.5,0.4C69.8,187.1,68.2,185.7,68.2,182.6z"/>
	</g>
	<g id="Rect">
		<rect class="st1" width="160" height="600"/>
	</g>
</g>
<g>
	<path class="st0" d="M21.3,441.5h3.8v0.6h-3v2.3h2.3v0.6h-2.3v2.9h-0.8V441.5z"/>
	<path class="st0" d="M25.4,445.6L25.4,445.6c0-1.5,1-2.5,2.3-2.5c1.3,0,2.3,1,2.3,2.4v0.1c0,1.4-1,2.4-2.3,2.4S25.4,447,25.4,445.6
		z M29.3,445.6L29.3,445.6c0-1.2-0.6-1.9-1.5-1.9c-0.9,0-1.5,0.7-1.5,1.8v0.1c0,1.1,0.6,1.8,1.5,1.8
		C28.7,447.4,29.3,446.7,29.3,445.6z"/>
	<path class="st0" d="M31.1,443.2h0.7v0.8c0.3-0.5,0.7-0.9,1.5-0.9v0.7c-0.9,0-1.5,0.3-1.5,1.5v2.6h-0.7V443.2z"/>
	<path class="st0" d="M36.6,443.2h0.7v0.8c0.3-0.5,0.9-0.9,1.6-0.9c1.2,0,2.1,0.9,2.1,2.4v0.1c0,1.4-0.8,2.4-2.1,2.4
		c-0.8,0-1.3-0.4-1.6-0.9v2.4h-0.7V443.2z M40.3,445.6L40.3,445.6c0-1.3-0.7-1.9-1.4-1.9c-0.9,0-1.5,0.6-1.5,1.8v0.1
		c0,1.2,0.6,1.8,1.5,1.8C39.8,447.4,40.3,446.8,40.3,445.6z"/>
	<path class="st0" d="M41.7,446.7c0-1.1,1.2-1.5,2.4-1.5h0.7v-0.3c0-0.7-0.3-1.1-1-1.1c-0.6,0-1,0.3-1.1,0.8h-0.7
		c0.1-1.1,1-1.5,1.9-1.5c0.9,0,1.7,0.4,1.7,1.7v3.1h-0.7v-0.6c-0.4,0.4-0.8,0.7-1.5,0.7C42.4,448,41.7,447.6,41.7,446.7z
		 M44.7,446.3v-0.6h-0.6c-0.9,0-1.6,0.2-1.6,0.9c0,0.5,0.2,0.8,0.9,0.8C44.1,447.4,44.7,447,44.7,446.3z"/>
	<path class="st0" d="M46.7,441.8c0-0.3,0.2-0.5,0.5-0.5c0.3,0,0.5,0.2,0.5,0.5c0,0.3-0.2,0.5-0.5,0.5
		C46.9,442.3,46.7,442,46.7,441.8z M46.8,443.2h0.7v4.7h-0.7V443.2z"/>
	<path class="st0" d="M48.6,445.7L48.6,445.7c0-1.5,0.9-2.5,2.2-2.5c0.8,0,1.3,0.4,1.5,0.8v-3h0.7v7h-0.7v-0.8
		c-0.3,0.5-0.9,0.9-1.6,0.9C49.5,448,48.6,447.2,48.6,445.7z M52.4,445.6L52.4,445.6c0-1.3-0.6-1.8-1.5-1.8c-0.9,0-1.5,0.7-1.5,1.8
		v0.1c0,1.2,0.6,1.8,1.4,1.8C51.7,447.4,52.4,446.8,52.4,445.6z"/>
	<path class="st0" d="M56.2,443.2H57l1.4,4l1.4-4h0.8l-1.7,4.7h-1L56.2,443.2z"/>
	<path class="st0" d="M60.9,445.7L60.9,445.7c0-1.5,0.9-2.5,2.2-2.5c1.1,0,2.1,0.7,2.1,2.3v0.2h-3.5c0,1.1,0.5,1.7,1.5,1.7
		c0.7,0,1.2-0.3,1.3-0.8h0.7c-0.2,0.9-0.9,1.4-2,1.4C61.8,448,60.9,447.1,60.9,445.7z M64.5,445.1c-0.1-1-0.6-1.4-1.4-1.4
		c-0.8,0-1.3,0.5-1.4,1.4H64.5z"/>
	<path class="st0" d="M66.2,443.2H67v0.8c0.3-0.5,0.7-0.9,1.5-0.9v0.7c-0.9,0-1.5,0.3-1.5,1.5v2.6h-0.7V443.2z"/>
	<path class="st0" d="M69,446.5h0.7c0.1,0.6,0.4,0.9,1.1,0.9c0.7,0,1-0.2,1-0.7c0-0.5-0.4-0.7-1.1-0.8c-1.2-0.2-1.6-0.6-1.6-1.4
		c0-0.9,0.9-1.3,1.6-1.3c0.8,0,1.6,0.3,1.7,1.4h-0.7c-0.1-0.5-0.4-0.7-1-0.7c-0.5,0-0.9,0.3-0.9,0.7c0,0.4,0.2,0.6,1.1,0.7
		c1,0.2,1.7,0.4,1.7,1.4c0,0.9-0.6,1.4-1.7,1.4C69.8,448,69.1,447.5,69,446.5z"/>
	<path class="st0" d="M73.5,441.8c0-0.3,0.2-0.5,0.5-0.5c0.3,0,0.5,0.2,0.5,0.5c0,0.3-0.2,0.5-0.5,0.5
		C73.7,442.3,73.5,442,73.5,441.8z M73.6,443.2h0.7v4.7h-0.7V443.2z"/>
	<path class="st0" d="M75.4,445.6L75.4,445.6c0-1.5,1-2.5,2.3-2.5s2.3,1,2.3,2.4v0.1c0,1.4-1,2.4-2.3,2.4
		C76.4,448,75.4,447,75.4,445.6z M79.3,445.6L79.3,445.6c0-1.2-0.6-1.9-1.5-1.9c-0.9,0-1.5,0.7-1.5,1.8v0.1c0,1.1,0.6,1.8,1.5,1.8
		C78.7,447.4,79.3,446.7,79.3,445.6z"/>
	<path class="st0" d="M81.1,443.2h0.7v0.7c0.2-0.4,0.7-0.8,1.5-0.8c1,0,1.7,0.5,1.7,1.9v2.9h-0.7V445c0-0.8-0.4-1.2-1.1-1.2
		c-0.7,0-1.3,0.4-1.3,1.3v2.9h-0.7V443.2z"/>
	<path class="st0" d="M85.9,446.5h0.7c0.1,0.6,0.4,0.9,1.1,0.9c0.7,0,1-0.2,1-0.7c0-0.5-0.4-0.7-1.1-0.8c-1.2-0.2-1.6-0.6-1.6-1.4
		c0-0.9,0.9-1.3,1.6-1.3c0.8,0,1.6,0.3,1.7,1.4h-0.7c-0.1-0.5-0.4-0.7-1-0.7c-0.5,0-0.9,0.3-0.9,0.7c0,0.4,0.2,0.6,1.1,0.7
		c1,0.2,1.7,0.4,1.7,1.4c0,0.9-0.6,1.4-1.7,1.4C86.7,448,86,447.5,85.9,446.5z"/>
	<path class="st0" d="M90.4,447.4c0-0.3,0.3-0.6,0.6-0.6s0.6,0.3,0.6,0.6S91.3,448,91,448S90.4,447.8,90.4,447.4z"/>
</g>
</svg>
