<?xml version="1.0" encoding="utf-8"?>
<!-- Generator: Adobe Illustrator 24.0.2, SVG Export Plug-In . SVG Version: 6.00 Build 0)  -->
<svg version="1.1" id="Layer_1" xmlns="http://www.w3.org/2000/svg" xmlns:xlink="http://www.w3.org/1999/xlink" x="0px" y="0px"
	 viewBox="0 0 300 600" style="enable-background:new 0 0 300 600;" xml:space="preserve">
<style type="text/css">
	.st0{fill:#14AA40;}
	.st1{fill:none;}
</style>
<title>300x600 2</title>
<g id="Layer_2_1_">
	<g id="Switch_from_TurboTax._Save_at_least">
		<path class="st0" d="M21,66.6h8.4c0.2,2.2,1.2,4,4.9,4c2.5,0,4-1.2,4-3s-1.2-2.4-4.8-3c-8.7-1-11.6-3.6-11.6-9.8
			c0-5.5,4.6-9.6,11.9-9.6s11.5,3.1,12.1,9.6h-8.2c-0.3-2.2-1.5-3.3-4-3.3S30,52.6,30,54.1c0,1.7,1,2.5,4.8,3
			c7.8,0.9,11.8,2.9,11.8,9.5c0,5.6-4.5,10.2-12.4,10.2C25.6,76.9,21.3,73.3,21,66.6z"/>
		<path class="st0" d="M47.2,53.9h8l3.3,13.4l3.8-13.4h6.2l3.3,13.4l3.7-13.4h7.3l-7.1,22.5h-7.3L65,63.8l-3.5,12.5H54L47.2,53.9z"
			/>
		<path class="st0" d="M84.6,47.8c0-2.2,1.8-4,4-4c0.1,0,0.1,0,0.2,0c2.2-0.2,4.2,1.3,4.4,3.5c0.2,2.2-1.3,4.2-3.5,4.4
			c-0.3,0-0.6,0-0.9,0c-2.2,0.1-4.1-1.6-4.2-3.8C84.6,47.9,84.6,47.8,84.6,47.8z M85,53.9h7.7v22.5H85L85,53.9z"/>
		<path class="st0" d="M97.8,69.1v-10h-2.7v-5.2h2.7v-4.7h7.7v4.7h4.4v5.2h-4.4v9.3c0,1.6,0.8,2.4,2.3,2.4c0.7,0,1.5-0.1,2.2-0.4
			v5.8c-1.4,0.4-2.8,0.6-4.3,0.7C100.7,76.9,97.8,74.4,97.8,69.1z"/>
		<path class="st0" d="M111.7,65.4V65c0-7.5,5.4-11.8,12-11.8c5.5,0,10.6,2.4,11,9.2h-7.2c-0.3-2.1-1.4-3.3-3.6-3.3
			c-2.7,0-4.3,1.9-4.3,5.7v0.3c0,3.9,1.5,5.9,4.4,5.9c2.2,0,3.7-1.3,3.9-3.7h6.9c-0.2,5.7-4,9.4-11.3,9.4
			C116.8,76.9,111.7,73,111.7,65.4z"/>
		<path class="st0" d="M137.3,44h7.7v13.5c1.4-2.7,4.3-4.4,7.4-4.2c4.3,0,7.3,2.7,7.3,8.5v14.6H152V63.3c0-2.5-1-3.8-3.2-3.8
			s-3.8,1.4-3.8,4.3v12.6h-7.7L137.3,44z"/>
		<path class="st0" d="M172.4,59.1h-2.8v-5.2h2.8v-2c0-5.6,3.5-8.3,8.8-8.3c1.2,0,2.4,0.2,3.5,0.5v5.6c-0.7-0.2-1.4-0.3-2.1-0.3
			c-1.2-0.2-2.4,0.6-2.6,1.9c0,0.2,0,0.4,0,0.6v2h4.6v5.2H180v17.2h-7.6L172.4,59.1z"/>
		<path class="st0" d="M187.2,53.9h7.7v4.5c1-3.1,4-5,7.3-4.8v7.2c-4.7-0.1-7.3,1.3-7.3,4.9v10.6h-7.7V53.9z"/>
		<path class="st0" d="M203.5,65.4V65c0-7.2,5.4-11.8,12.3-11.8s12.2,4.4,12.2,11.6v0.3c0,7.3-5.4,11.7-12.3,11.7
			S203.5,72.7,203.5,65.4z M220.2,65.3v-0.3c0-3.8-1.5-5.9-4.4-5.9s-4.5,2-4.5,5.8v0.3c0,3.9,1.5,6,4.5,6S220.2,69,220.2,65.3z"/>
		<path class="st0" d="M230.8,53.9h7.7v3.4c1.4-2.5,4.1-4.1,7.1-4c2.6-0.2,5.1,1.3,6.1,3.7c1.7-2.4,4.5-3.8,7.4-3.8
			c4.3,0,7.3,2.8,7.3,8.4v14.7h-7.7V62.9c0-2.3-1.1-3.4-2.9-3.4c-2.1,0-3.4,1.3-3.4,3.8v13h-7.6V62.9c0-2.3-1.1-3.4-2.9-3.4
			c-2.1,0-3.4,1.3-3.4,3.8v13h-7.7L230.8,53.9z"/>
		<path class="st0" d="M28.9,99.4h-8v-6.8h24.8v6.8h-7.9v23.9h-8.9V99.4z"/>
		<path class="st0" d="M46.3,115.5v-14.6H54v13.4c0,2.5,1,3.8,3.2,3.8s3.8-1.4,3.8-4.3v-12.9h7.7v22.5H61v-3.5c-1.2,2.3-3.4,4-7.1,4
			C49.5,123.8,46.3,121.1,46.3,115.5z"/>
		<path class="st0" d="M72.6,100.8h7.7v4.5c1-3.1,4-5,7.3-4.8v7.2c-4.7-0.1-7.3,1.3-7.3,4.9v10.7h-7.7V100.8z"/>
		<path class="st0" d="M98,119.8v3.5h-7.7V91H98v13.2c1.4-2.5,4.1-4,7-4c5.2,0,9.5,4,9.5,11.6v0.3c0,7.7-4.3,11.6-9.5,11.6
			C101.7,123.8,99.2,122.2,98,119.8z M106.7,112.2v-0.3c0-4-1.7-5.8-4.4-5.8s-4.5,2-4.5,5.8v0.3c0,3.8,1.7,5.8,4.5,5.8
			S106.7,115.9,106.7,112.2L106.7,112.2z"/>
		<path class="st0" d="M116.1,112.3V112c0-7.2,5.4-11.8,12.3-11.8s12.2,4.4,12.2,11.6v0.3c0,7.3-5.4,11.7-12.3,11.7
			S116.1,119.6,116.1,112.3z M132.9,112.2v-0.3c0-3.8-1.5-5.9-4.4-5.9s-4.5,2-4.5,5.8v0.3c0,3.9,1.5,6,4.5,6
			C131.4,118.1,132.9,116,132.9,112.2z"/>
		<path class="st0" d="M150,99.4h-8v-6.8h24.7v6.8h-7.9v23.9H150V99.4z"/>
		<path class="st0" d="M165.2,117.1c0-5.3,4.5-7.3,11.9-7.3h2.1v-0.5c0-2.2-0.5-3.6-3-3.6c-1.5-0.2-2.9,0.9-3,2.4c0,0.1,0,0.2,0,0.2
			H166c0.4-5.4,4.6-8.1,10.7-8.1s10.1,2.5,10.1,8.5v14.6h-7.5v-2.6c-1.1,1.6-3.1,3.1-6.6,3.1C168.8,123.8,165.2,121.8,165.2,117.1z
			 M179.3,115.4v-1.4h-2c-3.1,0-4.5,0.6-4.5,2.4c0,1.3,0.9,2.1,2.7,2.1C177.7,118.6,179.3,117.4,179.3,115.4z"/>
		<path class="st0" d="M196.4,111.9l-7-11h8.9l3.5,5.9l3.4-5.9h7.9l-7.1,10.4l7.8,12h-8.9l-4-6.7l-4.1,6.7h-7.9L196.4,111.9z"/>
		<path class="st0" d="M215.2,119.4c0-2.4,1.9-4.3,4.2-4.3c0.1,0,0.1,0,0.2,0c2.4-0.1,4.4,1.7,4.5,4.1s-1.7,4.4-4.1,4.5
			c-0.1,0-0.3,0-0.4,0c-2.4,0.1-4.3-1.8-4.4-4.2C215.2,119.5,215.2,119.5,215.2,119.4z"/>
		<path class="st0" d="M21,160.5h8.4c0.2,2.2,1.2,4,4.9,4c2.5,0,4-1.3,4-3.1s-1.2-2.4-4.8-3c-8.7-1-11.6-3.6-11.6-9.8
			c0-5.5,4.6-9.6,11.9-9.6s11.5,3.1,12.1,9.6h-8.2c-0.3-2.2-1.5-3.3-4-3.3S30,146.4,30,148c0,1.7,1,2.5,4.8,3
			c7.8,0.9,11.8,2.9,11.8,9.5c0,5.6-4.5,10.2-12.4,10.2C25.6,170.8,21.3,167.1,21,160.5z"/>
		<path class="st0" d="M48.1,164c0-5.3,4.5-7.3,11.9-7.3h2.2v-0.5c0-2.1-0.5-3.6-3-3.6c-1.5-0.1-2.9,1-3,2.5c0,0.1,0,0.1,0,0.2H49
			c0.3-5.4,4.6-8.1,10.7-8.1s10.1,2.5,10.1,8.5v14.6h-7.5v-2.6c-1.1,1.6-3,3.1-6.7,3.1C51.7,170.8,48.1,168.8,48.1,164z M62.2,162.4
			V161h-2c-3.1,0-4.5,0.6-4.5,2.4c0,1.3,0.9,2.1,2.7,2.1C60.6,165.6,62.2,164.3,62.2,162.4L62.2,162.4z"/>
		<path class="st0" d="M71,147.8h8.2l4.7,14.5l4.6-14.5h7.3l-8.2,22.5h-8.4L71,147.8z"/>
		<path class="st0" d="M95.4,159.3v-0.4c0-7.2,5.4-11.8,12.2-11.8c6.1,0,11.4,3.5,11.4,11.6v2h-15.8c0.2,3,1.9,4.7,4.7,4.7
			c2.5,0,3.6-1.2,3.9-2.7h7.3c-0.7,5.1-4.6,7.9-11.4,7.9C100.5,170.8,95.4,166.6,95.4,159.3z M111.5,156.4c-0.1-2.7-1.5-4.2-4-4.2
			c-2.3,0-3.9,1.5-4.3,4.2H111.5z"/>
		<path class="st0" d="M128.1,164c0-5.3,4.5-7.3,11.9-7.3h2.1v-0.5c0-2.1-0.5-3.6-3-3.6c-1.5-0.2-2.9,0.9-3,2.5c0,0.1,0,0.1,0,0.2
			H129c0.4-5.4,4.6-8.1,10.7-8.1s10.1,2.5,10.1,8.5v14.6h-7.5v-2.6c-1.1,1.6-3,3.1-6.7,3.1C131.7,170.8,128.1,168.8,128.1,164z
			 M142.2,162.4V161h-2c-3.1,0-4.5,0.6-4.5,2.4c0,1.3,0.9,2.1,2.7,2.1C140.6,165.6,142.2,164.3,142.2,162.4L142.2,162.4z"/>
		<path class="st0" d="M154.5,163v-10h-2.7v-5.2h2.7v-4.7h7.7v4.7h4.4v5.2h-4.4v9.3c0,1.6,0.8,2.4,2.3,2.4c0.7,0,1.5-0.1,2.2-0.4
			v5.8c-1.4,0.4-2.8,0.6-4.3,0.6C157.4,170.8,154.5,168.3,154.5,163z"/>
		<path class="st0" d="M177.6,137.9h7.6v32.3h-7.6V137.9z"/>
		<path class="st0" d="M188.1,159.3v-0.4c0-7.2,5.4-11.8,12.1-11.8c6.1,0,11.4,3.5,11.4,11.6v2h-15.8c0.2,3,1.9,4.7,4.7,4.7
			c2.5,0,3.6-1.2,3.9-2.7h7.2c-0.7,5.1-4.6,7.9-11.4,7.9C193.3,170.8,188.1,166.6,188.1,159.3z M204.3,156.4
			c-0.1-2.7-1.5-4.2-3.9-4.2c-2.3,0-3.9,1.5-4.3,4.2H204.3z"/>
		<path class="st0" d="M213.3,164c0-5.3,4.5-7.3,11.9-7.3h2.1v-0.5c0-2.1-0.5-3.6-3-3.6c-1.5-0.2-2.9,0.9-3,2.4c0,0.1,0,0.2,0,0.2
			h-7.2c0.4-5.4,4.6-8.1,10.7-8.1s10.1,2.5,10.1,8.5v14.6h-7.5v-2.6c-1.1,1.6-3,3.1-6.6,3.1C216.9,170.8,213.3,168.8,213.3,164z
			 M227.4,162.4V161h-2c-3.1,0-4.5,0.6-4.5,2.4c0,1.3,0.9,2.1,2.7,2.1C225.8,165.6,227.4,164.3,227.4,162.4L227.4,162.4z"/>
		<path class="st0" d="M237.3,163.1h7.1c0.3,1.6,1,2.5,3.2,2.5c1.9,0,2.8-0.7,2.8-1.9s-1.1-1.6-4.2-2c-6-0.8-8.6-2.5-8.6-7.2
			c0-5,4.4-7.4,9.6-7.4c5.5,0,9.4,1.9,9.9,7.3h-7c-0.1-1.4-1.4-2.4-2.8-2.2c0,0-0.1,0-0.1,0c-1.7,0-2.5,0.7-2.5,1.8s1,1.5,3.8,1.9
			c6.2,0.8,9.2,2.4,9.2,7.2c0,5.3-3.9,7.7-10.2,7.7C241.2,170.8,237.4,168.1,237.3,163.1z"/>
		<path class="st0" d="M261.3,163v-10h-2.7v-5.2h2.7v-4.7h7.7v4.7h4.4v5.2H269v9.3c0,1.6,0.8,2.4,2.3,2.4c0.7,0,1.5-0.1,2.2-0.4v5.8
			c-1.4,0.4-2.8,0.6-4.3,0.6C264.1,170.8,261.3,168.3,261.3,163z"/>
	</g>
	<g id="Rect">
		<rect class="st1" width="300" height="600"/>
	</g>
</g>
<g>
	<path class="st0" d="M210,573.5h3.8v0.6h-3v2.3h2.3v0.6h-2.3v2.9H210V573.5z"/>
	<path class="st0" d="M214.1,577.6L214.1,577.6c0-1.5,1-2.5,2.3-2.5c1.3,0,2.3,1,2.3,2.4v0.1c0,1.4-1,2.4-2.3,2.4
		S214.1,579,214.1,577.6z M218,577.6L218,577.6c0-1.2-0.6-1.9-1.5-1.9c-0.9,0-1.5,0.7-1.5,1.8v0.1c0,1.1,0.6,1.8,1.5,1.8
		C217.4,579.4,218,578.7,218,577.6z"/>
	<path class="st0" d="M219.8,575.2h0.7v0.8c0.3-0.5,0.7-0.9,1.5-0.9v0.7c-0.9,0-1.5,0.3-1.5,1.5v2.6h-0.7V575.2z"/>
	<path class="st0" d="M225.3,575.2h0.7v0.8c0.3-0.5,0.9-0.9,1.6-0.9c1.2,0,2.1,0.9,2.1,2.4v0.1c0,1.4-0.8,2.4-2.1,2.4
		c-0.8,0-1.3-0.4-1.6-0.9v2.4h-0.7V575.2z M229,577.6L229,577.6c0-1.3-0.7-1.9-1.5-1.9c-0.9,0-1.5,0.6-1.5,1.8v0.1
		c0,1.2,0.6,1.8,1.5,1.8C228.5,579.4,229,578.8,229,577.6z"/>
	<path class="st0" d="M230.4,578.7c0-1.1,1.2-1.5,2.4-1.5h0.7v-0.3c0-0.7-0.3-1.1-1-1.1c-0.6,0-1,0.3-1.1,0.8h-0.7
		c0.1-1.1,1-1.5,1.9-1.5c0.9,0,1.7,0.4,1.7,1.7v3.1h-0.7v-0.6c-0.4,0.4-0.8,0.7-1.5,0.7C231.1,580,230.4,579.6,230.4,578.7z
		 M233.4,578.3v-0.6h-0.6c-0.9,0-1.6,0.2-1.6,0.9c0,0.5,0.2,0.8,0.9,0.8C232.8,579.4,233.4,579,233.4,578.3z"/>
	<path class="st0" d="M235.4,573.8c0-0.3,0.2-0.5,0.5-0.5c0.3,0,0.5,0.2,0.5,0.5c0,0.3-0.2,0.5-0.5,0.5
		C235.6,574.3,235.4,574,235.4,573.8z M235.5,575.2h0.7v4.7h-0.7V575.2z"/>
	<path class="st0" d="M237.3,577.7L237.3,577.7c0-1.5,0.9-2.5,2.2-2.5c0.8,0,1.3,0.4,1.5,0.8v-3h0.7v7h-0.7v-0.8
		c-0.3,0.5-0.9,0.9-1.6,0.9C238.2,580,237.3,579.2,237.3,577.7z M241.1,577.6L241.1,577.6c0-1.3-0.6-1.8-1.5-1.8
		c-0.9,0-1.5,0.7-1.5,1.8v0.1c0,1.2,0.6,1.8,1.4,1.8C240.4,579.4,241.1,578.8,241.1,577.6z"/>
	<path class="st0" d="M244.9,575.2h0.8l1.4,4l1.4-4h0.8l-1.7,4.7h-1L244.9,575.2z"/>
	<path class="st0" d="M249.6,577.7L249.6,577.7c0-1.5,0.9-2.5,2.2-2.5c1.1,0,2.1,0.7,2.1,2.3v0.2h-3.5c0,1.1,0.5,1.7,1.5,1.7
		c0.7,0,1.2-0.3,1.3-0.8h0.7c-0.2,0.9-0.9,1.4-2,1.4C250.6,580,249.6,579.1,249.6,577.7z M253.2,577.1c-0.1-1-0.6-1.4-1.4-1.4
		c-0.8,0-1.3,0.5-1.4,1.4H253.2z"/>
	<path class="st0" d="M254.9,575.2h0.7v0.8c0.3-0.5,0.7-0.9,1.5-0.9v0.7c-0.9,0-1.5,0.3-1.5,1.5v2.6h-0.7V575.2z"/>
	<path class="st0" d="M257.8,578.5h0.7c0.1,0.6,0.4,0.9,1.1,0.9c0.7,0,1-0.2,1-0.7c0-0.5-0.4-0.7-1.1-0.8c-1.2-0.2-1.6-0.6-1.6-1.4
		c0-0.9,0.9-1.3,1.6-1.3c0.8,0,1.6,0.3,1.7,1.4h-0.7c-0.1-0.5-0.4-0.7-1-0.7c-0.5,0-0.9,0.3-0.9,0.7c0,0.4,0.2,0.6,1.1,0.7
		c1,0.2,1.7,0.4,1.7,1.4c0,0.9-0.6,1.4-1.7,1.4C258.5,580,257.8,579.5,257.8,578.5z"/>
	<path class="st0" d="M262.2,573.8c0-0.3,0.2-0.5,0.5-0.5c0.3,0,0.5,0.2,0.5,0.5c0,0.3-0.2,0.5-0.5,0.5
		C262.4,574.3,262.2,574,262.2,573.8z M262.3,575.2h0.7v4.7h-0.7V575.2z"/>
	<path class="st0" d="M264.1,577.6L264.1,577.6c0-1.5,1-2.5,2.3-2.5s2.3,1,2.3,2.4v0.1c0,1.4-1,2.4-2.3,2.4
		C265.1,580,264.1,579,264.1,577.6z M268,577.6L268,577.6c0-1.2-0.6-1.9-1.5-1.9c-0.9,0-1.5,0.7-1.5,1.8v0.1c0,1.1,0.6,1.8,1.5,1.8
		C267.4,579.4,268,578.7,268,577.6z"/>
	<path class="st0" d="M269.8,575.2h0.7v0.7c0.2-0.4,0.7-0.8,1.5-0.8c1,0,1.7,0.5,1.7,1.9v2.9H273V577c0-0.8-0.4-1.2-1.1-1.2
		c-0.7,0-1.3,0.4-1.3,1.3v2.9h-0.7V575.2z"/>
	<path class="st0" d="M274.6,578.5h0.7c0.1,0.6,0.4,0.9,1.1,0.9c0.7,0,1-0.2,1-0.7c0-0.5-0.4-0.7-1.1-0.8c-1.2-0.2-1.6-0.6-1.6-1.4
		c0-0.9,0.9-1.3,1.6-1.3c0.8,0,1.6,0.3,1.7,1.4h-0.7c-0.1-0.5-0.4-0.7-1-0.7c-0.5,0-0.9,0.3-0.9,0.7c0,0.4,0.2,0.6,1.1,0.7
		c1,0.2,1.7,0.4,1.7,1.4c0,0.9-0.6,1.4-1.7,1.4C275.4,580,274.7,579.5,274.6,578.5z"/>
	<path class="st0" d="M279.2,579.4c0-0.3,0.3-0.6,0.6-0.6s0.6,0.3,0.6,0.6s-0.3,0.6-0.6,0.6S279.2,579.8,279.2,579.4z"/>
</g>
</svg>
