<?xml version="1.0" encoding="utf-8"?>
<!-- Generator: Adobe Illustrator 24.0.2, SVG Export Plug-In . SVG Version: 6.00 Build 0)  -->
<svg version="1.1" id="Layer_1" xmlns="http://www.w3.org/2000/svg" xmlns:xlink="http://www.w3.org/1999/xlink" x="0px" y="0px"
	 viewBox="0 0 300 600" style="enable-background:new 0 0 300 600;" xml:space="preserve">
<style type="text/css">
	.st0{fill:none;}
	.st1{fill:#14AA40;}
</style>
<title>300x600 4</title>
<g id="Layer_2_1_">
	<g id="Rect">
		<rect class="st0" width="300" height="600"/>
	</g>
	<g id="H_R_Block_Online_costs_at_least_30_less_than_TurboTax.">
		<path class="st1" d="M23.5,101.9H34v13.9h12v-13.9h10.5v36.5H46V124H34v14.4H23.5V101.9z"/>
		<path class="st1" d="M91.4,131l6.1,7.4H85.6l-2.1-2.6c-2.8,2.2-6.3,3.4-9.8,3.2c-7.8,0-12.8-4.1-12.8-11c0-4.7,2.9-8.2,8-10.6
			c-1.4-1.9-2.1-4.1-2.2-6.4c0-6.2,5.3-9.5,11.7-9.5c5.8,0,11.1,2.9,11.1,8.5c0,4-2.3,6.9-7.3,9l4.6,5.6l2.7-5.2h8L91.4,131z
			 M78.8,129.9L73,123c-1.5,0.7-2.5,2.3-2.4,3.9c0,2.7,1.6,4.5,4.6,4.5C76.6,131.5,77.9,130.9,78.8,129.9z M77.7,115.2
			c2.4-1.2,3.6-2.6,3.6-4.4c0.1-1.4-1-2.7-2.4-2.8c-0.1,0-0.2,0-0.3,0c-1.6-0.1-2.9,1.2-3,2.8c0,0.1,0,0.2,0,0.4
			C75.6,112.4,76.4,113.7,77.7,115.2z"/>
		<path class="st1" d="M100.8,101.9h14.3c9.5,0,14.8,3.9,14.8,11.6v0.2c0.2,4.3-2.5,8.3-6.6,9.6l8.7,15.1h-11l-7.4-13.1h-2.4v13.1
			h-10.4C100.8,138.4,100.8,101.9,100.8,101.9z M114.6,118.6c3.5,0,5.3-1.5,5.3-4.4V114c0-3-1.8-4.1-5.2-4.1h-3.4v8.8h3.3V118.6z"/>
		<path class="st1" d="M144.9,101.9h16.3c8.6,0,12.3,3.9,12.3,9.5v0.2c0,4.1-2.1,6.8-6.2,7.8c4.5,0.8,7.3,3.5,7.3,8.5v0.2
			c0,6.5-4.2,10.1-13.3,10.1h-16.4L144.9,101.9L144.9,101.9z M159.1,116.4c3.3,0,4.5-1.1,4.5-3.7v-0.2c0-2.5-1.3-3.6-4.5-3.6h-4v7.5
			C155.1,116.4,159.1,116.4,159.1,116.4z M159.4,131.4c3.3,0,4.9-1.5,4.9-4.2V127c0-2.8-1.5-4.2-5.1-4.2h-4v8.6L159.4,131.4z"/>
		<path class="st1" d="M178.2,100h9.1v38.4h-9.1V100z"/>
		<path class="st1" d="M190.8,125.4V125c0-8.6,6.4-14,14.6-14s14.5,5.3,14.5,13.7v0.4c0,8.7-6.4,13.9-14.6,13.9
			S190.8,134,190.8,125.4z M210.6,125.3v-0.4c0-4.5-1.8-7-5.3-7s-5.3,2.4-5.3,6.9v0.4c0,4.6,1.8,7.1,5.3,7.1
			S210.6,129.7,210.6,125.3z"/>
		<path class="st1" d="M221.7,125.4V125c0-8.9,6.4-14,14.2-14c6.5,0,12.5,2.8,13,11h-8.6c-0.4-2.5-1.6-3.9-4.3-3.9
			c-3.2,0-5.1,2.3-5.1,6.8v0.4c0,4.6,1.8,7,5.3,7c2.6,0,4.3-1.5,4.6-4.4h8.2c-0.3,6.7-4.8,11.1-13.4,11.1
			C227.8,139,221.7,134.4,221.7,125.4z"/>
		<path class="st1" d="M252.1,100h9.1v22.3l7.2-10.6h9.5l-8.7,12l9.4,14.7h-10.2l-7.2-11.7v11.7h-9.1L252.1,100L252.1,100z"/>
		<path class="st1" d="M21.6,173.4V173c0-11.1,8.4-18.6,19.3-18.6c11.1,0,19.3,7,19.3,18.3v0.4c0,11.2-7.7,18.9-19.5,18.9
			S21.6,184.4,21.6,173.4z M49.3,173.3v-0.4c0-6.5-3.3-10.3-8.4-10.3s-8.4,3.7-8.4,10.4v0.4c0,6.6,3.4,10.4,8.4,10.4
			S49.3,179.8,49.3,173.3L49.3,173.3z"/>
		<path class="st1" d="M63.7,164.7h9.1v4.3c1.7-3.2,5.1-5.2,8.8-5c5.2,0,8.7,3.2,8.7,10v17.4h-9.1v-15.5c0-3-1.2-4.5-3.8-4.5
			s-4.5,1.6-4.5,5.1v14.9h-9.1v-26.7H63.7z"/>
		<path class="st1" d="M95,153h9.1v38.4H95V153z"/>
		<path class="st1" d="M108.8,157.5c-0.2-2.8,1.9-5.1,4.7-5.3c2.8-0.2,5.1,1.9,5.3,4.7c0.2,2.8-1.9,5.1-4.7,5.3c-0.1,0-0.2,0-0.3,0
			c-2.6,0.1-4.9-1.9-5-4.5C108.8,157.6,108.8,157.5,108.8,157.5z M109.3,164.7h9.1v26.7h-9.1V164.7z"/>
		<path class="st1" d="M123.3,164.7h9.1v4.3c1.7-3.2,5.1-5.2,8.8-5c5.1,0,8.7,3.2,8.7,10v17.4h-9.1v-15.5c0-3-1.2-4.5-3.8-4.5
			s-4.5,1.6-4.5,5.1v14.9h-9.1L123.3,164.7L123.3,164.7z"/>
		<path class="st1" d="M152.9,178.4V178c0-8.6,6.4-14,14.4-14c7.3,0,13.6,4.2,13.6,13.8v2.4h-18.8c0.3,3.5,2.3,5.6,5.6,5.6
			c3,0,4.3-1.4,4.6-3.2h8.6c-0.8,6-5.5,9.4-13.5,9.4C159,192,152.9,187.1,152.9,178.4z M172,175c-0.2-3.2-1.7-5-4.7-5
			c-2.8,0-4.6,1.8-5.1,5H172z"/>
		<path class="st1" d="M21.3,231.4V231c0-8.9,6.4-14,14.2-14c6.5,0,12.5,2.9,13.1,11H40c-0.4-2.5-1.6-3.9-4.3-3.9
			c-3.2,0-5.1,2.3-5.1,6.8v0.4c0,4.6,1.8,7,5.3,7c2.5,0,4.3-1.5,4.6-4.4h8.2c-0.3,6.7-4.8,11.1-13.4,11.1
			C27.3,245,21.3,240.4,21.3,231.4z"/>
		<path class="st1" d="M50.2,231.4V231c0-8.6,6.4-14,14.6-14s14.5,5.3,14.5,13.7v0.4c0,8.7-6.4,13.9-14.6,13.9S50.2,240,50.2,231.4z
			 M70.1,231.3v-0.4c0-4.5-1.8-7-5.3-7s-5.3,2.4-5.3,6.9v0.4c0,4.6,1.8,7.1,5.3,7.1C68.4,238.2,70.1,235.7,70.1,231.3z"/>
		<path class="st1" d="M81,235.9h8.4c0.3,1.9,1.2,3,3.8,3c2.3,0,3.3-0.9,3.3-2.2s-1.3-1.9-5-2.4c-7.1-0.9-10.2-3-10.2-8.6
			c0-5.9,5.3-8.8,11.4-8.8c6.6,0,11.2,2.2,11.8,8.6h-8.2c-0.3-1.8-1.3-2.6-3.4-2.6s-3,0.9-3,2.1s1.2,1.8,4.5,2.2
			c7.4,0.9,11,2.9,11,8.6c0,6.3-4.7,9.2-12.1,9.2C85.6,245,81.2,241.9,81,235.9z"/>
		<path class="st1" d="M109.5,235.8V224h-3.2v-6.2h3.2v-5.6h9.1v5.6h5.3v6.2h-5.3v11c0,1.9,1,2.8,2.7,2.8c0.9,0,1.8-0.1,2.6-0.5v6.9
			c-1.6,0.5-3.3,0.7-5,0.8C112.9,245,109.5,242.1,109.5,235.8z"/>
		<path class="st1" d="M125.9,235.9h8.4c0.3,1.9,1.2,3,3.8,3c2.3,0,3.3-0.9,3.3-2.2s-1.3-1.9-4.9-2.4c-7.1-0.9-10.2-3-10.2-8.6
			c0-5.9,5.2-8.8,11.4-8.8c6.6,0,11.2,2.2,11.8,8.6h-8.3c-0.4-1.8-1.3-2.7-3.4-2.7s-3,0.9-3,2.1s1.2,1.8,4.5,2.2
			c7.4,0.9,11,2.9,11,8.6c0,6.3-4.7,9.2-12.1,9.2C130.6,245,126.1,241.9,125.9,235.9z"/>
		<path class="st1" d="M161,237c0-6.3,5.3-8.7,14.2-8.7h2.6v-0.6c0-2.6-0.6-4.2-3.5-4.2c-1.8-0.2-3.4,1.1-3.6,2.9c0,0.1,0,0.2,0,0.3
			H162c0.4-6.4,5.5-9.6,12.8-9.6s12,3,12,10.1v17.3h-8.9v-3.1c-1.3,1.9-3.6,3.7-7.9,3.7C165.2,245,161,242.7,161,237z M177.7,235.1
			v-1.6h-2.4c-3.7,0-5.3,0.7-5.3,2.9c0,1.5,1,2.5,3.2,2.5C175.8,238.8,177.7,237.4,177.7,235.1L177.7,235.1z"/>
		<path class="st1" d="M192.3,235.8V224h-3.2v-6.2h3.2v-5.6h9.1v5.6h5.3v6.2h-5.3v11c0,1.9,1,2.8,2.7,2.8c0.9,0,1.8-0.1,2.6-0.5v6.9
			c-1.6,0.5-3.3,0.7-5.1,0.8C195.6,245,192.3,242.1,192.3,235.8z"/>
		<path class="st1" d="M23,259h9v38.4h-9V259z"/>
		<path class="st1" d="M35.5,284.4V284c0-8.6,6.4-14,14.4-14c7.3,0,13.6,4.2,13.6,13.8v2.4H44.7c0.3,3.5,2.3,5.6,5.6,5.6
			c3,0,4.3-1.4,4.6-3.2h8.6c-0.8,6-5.5,9.4-13.5,9.4C41.6,298,35.5,293.1,35.5,284.4z M54.6,281c-0.2-3.2-1.7-5-4.7-5
			c-2.8,0-4.7,1.8-5.1,5H54.6z"/>
		<path class="st1" d="M65.4,290c0-6.3,5.3-8.7,14.2-8.7h2.6v-0.6c0-2.5-0.6-4.2-3.5-4.2c-1.8-0.2-3.4,1.1-3.6,2.9
			c0,0.1,0,0.2,0,0.3h-8.6c0.4-6.4,5.4-9.6,12.8-9.6s12,3,12,10.1v17.3h-8.8v-3.1c-1.3,1.9-3.6,3.7-7.9,3.7
			C69.6,298,65.4,295.7,65.4,290z M82.1,288.1v-1.6h-2.4c-3.7,0-5.3,0.7-5.3,2.9c0,1.5,1,2.5,3.2,2.5
			C80.2,291.8,82.1,290.4,82.1,288.1L82.1,288.1z"/>
		<path class="st1" d="M93.8,288.9h8.4c0.3,1.9,1.2,3,3.8,3c2.3,0,3.3-0.9,3.3-2.2s-1.3-1.9-5-2.4c-7.1-0.9-10.2-3-10.2-8.6
			c0-5.9,5.3-8.8,11.4-8.8c6.6,0,11.2,2.2,11.8,8.6H109c-0.3-1.8-1.3-2.7-3.4-2.7s-3,0.9-3,2.1s1.2,1.8,4.5,2.2
			c7.4,0.9,11,2.9,11,8.6c0,6.3-4.7,9.2-12.1,9.2C98.5,298,94.1,294.9,93.8,288.9z"/>
		<path class="st1" d="M122.3,288.8V277h-3.2v-6.2h3.2v-5.6h9.1v5.6h5.3v6.2h-5.3v11c0,1.9,1,2.8,2.7,2.8c0.9,0,1.8-0.1,2.6-0.5v6.9
			c-1.6,0.5-3.3,0.7-5,0.8C125.7,298,122.3,295.1,122.3,288.8z"/>
		<path class="st1" d="M23,312h9v38.4h-9V312z"/>
		<path class="st1" d="M35.5,337.4V337c0-8.6,6.4-14,14.4-14c7.3,0,13.6,4.2,13.6,13.8v2.4H44.7c0.3,3.5,2.3,5.6,5.6,5.6
			c3,0,4.3-1.4,4.6-3.2h8.6c-0.8,6-5.5,9.4-13.5,9.4C41.6,351,35.5,346.1,35.5,337.4z M54.6,334c-0.2-3.2-1.7-5-4.7-5
			c-2.8,0-4.7,1.8-5.1,5H54.6z"/>
		<path class="st1" d="M65.1,341.9h8.4c0.3,1.9,1.2,3,3.8,3c2.2,0,3.3-0.9,3.3-2.2s-1.3-1.9-4.9-2.4c-7.1-0.9-10.2-3-10.2-8.6
			c0-5.9,5.3-8.8,11.4-8.8c6.6,0,11.2,2.2,11.8,8.6h-8.3c-0.3-1.8-1.3-2.6-3.4-2.6s-3,0.9-3,2.1s1.2,1.8,4.5,2.2
			c7.4,0.9,11,2.9,11,8.6c0,6.3-4.7,9.2-12.1,9.2C69.8,351,65.3,347.9,65.1,341.9z"/>
		<path class="st1" d="M90.8,341.9h8.4c0.3,1.9,1.2,3,3.8,3c2.3,0,3.3-0.9,3.3-2.2s-1.3-1.9-4.9-2.4c-7.1-0.9-10.2-3-10.2-8.6
			c0-5.9,5.3-8.8,11.4-8.8c6.6,0,11.2,2.2,11.8,8.6h-8.3c-0.3-1.8-1.3-2.7-3.4-2.7s-3,0.9-3,2.1s1.2,1.8,4.5,2.2
			c7.4,0.9,11,2.9,11,8.6c0,6.3-4.7,9.2-12.1,9.2C95.4,351,91,347.9,90.8,341.9z"/>
		<path class="st1" d="M128.6,341.8V330h-3.2v-6.2h3.2v-5.6h9.1v5.6h5.3v6.2h-5.3v11c0,1.9,1,2.8,2.7,2.8c0.9,0,1.8-0.1,2.6-0.5v6.9
			c-1.6,0.5-3.3,0.7-5,0.8C131.9,351,128.6,348.1,128.6,341.8z"/>
		<path class="st1" d="M146.4,312h9.1v16c1.7-3.2,5.1-5.2,8.8-5c5.1,0,8.7,3.2,8.7,10v17.4h-9.1v-15.5c0-3-1.2-4.5-3.8-4.5
			s-4.5,1.6-4.5,5v15h-9.1L146.4,312z"/>
		<path class="st1" d="M176,343c0-6.3,5.3-8.7,14.2-8.7h2.6v-0.6c0-2.5-0.6-4.2-3.5-4.2c-1.8-0.2-3.4,1.1-3.6,2.9c0,0.1,0,0.2,0,0.2
			H177c0.4-6.4,5.5-9.6,12.8-9.6s12,3,12,10.1v17.3h-8.9v-3.1c-1.3,1.9-3.6,3.7-7.9,3.7C180.2,351,176,348.7,176,343z M192.7,341.1
			v-1.6h-2.4c-3.7,0-5.3,0.7-5.3,2.9c0,1.5,1,2.5,3.2,2.5C190.7,344.8,192.7,343.4,192.7,341.1L192.7,341.1z"/>
		<path class="st1" d="M206.2,323.7h9.1v4.3c1.7-3.2,5.1-5.2,8.8-5c5.1,0,8.7,3.2,8.7,10v17.4h-9.1v-15.5c0-3-1.2-4.5-3.8-4.5
			s-4.5,1.6-4.5,5v15h-9.1L206.2,323.7L206.2,323.7z"/>
		<path class="st1" d="M30.5,375h-9.4v-8.1h29.4v8.1H41v28.4H30.5V375z"/>
		<path class="st1" d="M51.3,394.1v-17.4h9.1v15.9c0,3,1.2,4.5,3.8,4.5c2.6,0,4.5-1.6,4.5-5v-15.4h9.1v26.7h-9.1v-4.1
			c-1.4,2.8-4,4.7-8.5,4.7C55.1,404,51.3,400.9,51.3,394.1z"/>
		<path class="st1" d="M82.5,376.7h9.1v5.3c1.7-4,4.5-5.7,8.6-5.7v8.5c-5.6-0.1-8.6,1.6-8.6,5.9v12.7h-9.1V376.7z"/>
		<path class="st1" d="M112.7,399.3v4.1h-9.1V365h9.1v15.7c1.7-3,4.9-4.8,8.3-4.7c6.2,0,11.3,4.7,11.3,13.8v0.4
			c0,9.2-5,13.8-11.3,13.8C117,404,114,402.1,112.7,399.3z M123,390.3v-0.4c0-4.7-2-6.9-5.3-6.9s-5.3,2.4-5.3,6.9v0.4
			c0,4.5,2,6.8,5.3,6.8S123,394.6,123,390.3L123,390.3z"/>
		<path class="st1" d="M134.1,390.4V390c0-8.6,6.4-14,14.6-14s14.5,5.3,14.5,13.7v0.4c0,8.7-6.4,13.9-14.6,13.9
			S134.1,399,134.1,390.4z M154,390.3v-0.4c0-4.5-1.8-7-5.3-7s-5.3,2.4-5.3,6.9v0.4c0,4.6,1.8,7.1,5.3,7.1S154,394.7,154,390.3
			L154,390.3z"/>
		<path class="st1" d="M174.3,375h-9.4v-8.1h29.4v8.1h-9.4v28.4h-10.5V375H174.3z"/>
		<path class="st1" d="M192.4,396c0-6.3,5.3-8.7,14.2-8.7h2.6v-0.6c0-2.5-0.6-4.2-3.5-4.2c-1.8-0.2-3.4,1.1-3.6,2.9
			c0,0.1,0,0.2,0,0.3h-8.6c0.4-6.4,5.5-9.6,12.8-9.6s12,3,12,10.1v17.3h-8.9v-3.1c-1.3,1.9-3.6,3.7-7.9,3.7
			C196.7,404,192.4,401.7,192.4,396z M209.2,394.1v-1.6h-2.4c-3.7,0-5.3,0.7-5.3,2.9c0,1.5,1,2.5,3.2,2.5
			C207.2,397.8,209.2,396.4,209.2,394.1L209.2,394.1z"/>
		<path class="st1" d="M229.4,389.8l-8.3-13.1h10.5l4.1,7l4-7h9.4l-8.4,12.4l9.3,14.3h-10.5l-4.7-8l-4.9,8h-9.3L229.4,389.8z"/>
		<path class="st1" d="M251.8,398.8c0-2.8,2.2-5.1,5-5.2c0.1,0,0.1,0,0.2,0c2.8,0,5.2,2.3,5.2,5.1c0,2.8-2.3,5.2-5.1,5.2l0,0
			c-2.8,0.1-5.1-2.2-5.2-5C251.8,398.9,251.8,398.9,251.8,398.8z"/>
	</g>
</g>
<g>
	<path class="st1" d="M210,573.5h3.8v0.6h-3v2.3h2.3v0.6h-2.3v2.9H210V573.5z"/>
	<path class="st1" d="M214.1,577.6L214.1,577.6c0-1.5,1-2.5,2.3-2.5c1.3,0,2.3,1,2.3,2.4v0.1c0,1.4-1,2.4-2.3,2.4
		S214.1,579,214.1,577.6z M218,577.6L218,577.6c0-1.2-0.6-1.9-1.5-1.9c-0.9,0-1.5,0.7-1.5,1.8v0.1c0,1.1,0.6,1.8,1.5,1.8
		C217.4,579.4,218,578.7,218,577.6z"/>
	<path class="st1" d="M219.8,575.2h0.7v0.8c0.3-0.5,0.7-0.9,1.5-0.9v0.7c-0.9,0-1.5,0.3-1.5,1.5v2.6h-0.7V575.2z"/>
	<path class="st1" d="M225.3,575.2h0.7v0.8c0.3-0.5,0.9-0.9,1.6-0.9c1.2,0,2.1,0.9,2.1,2.4v0.1c0,1.4-0.8,2.4-2.1,2.4
		c-0.8,0-1.3-0.4-1.6-0.9v2.4h-0.7V575.2z M229,577.6L229,577.6c0-1.3-0.7-1.9-1.5-1.9c-0.9,0-1.5,0.6-1.5,1.8v0.1
		c0,1.2,0.6,1.8,1.5,1.8C228.5,579.4,229,578.8,229,577.6z"/>
	<path class="st1" d="M230.4,578.7c0-1.1,1.2-1.5,2.4-1.5h0.7v-0.3c0-0.7-0.3-1.1-1-1.1c-0.6,0-1,0.3-1.1,0.8h-0.7
		c0.1-1.1,1-1.5,1.9-1.5c0.9,0,1.7,0.4,1.7,1.7v3.1h-0.7v-0.6c-0.4,0.4-0.8,0.7-1.5,0.7C231.1,580,230.4,579.6,230.4,578.7z
		 M233.4,578.3v-0.6h-0.6c-0.9,0-1.6,0.2-1.6,0.9c0,0.5,0.2,0.8,0.9,0.8C232.8,579.4,233.4,579,233.4,578.3z"/>
	<path class="st1" d="M235.4,573.8c0-0.3,0.2-0.5,0.5-0.5c0.3,0,0.5,0.2,0.5,0.5c0,0.3-0.2,0.5-0.5,0.5
		C235.6,574.3,235.4,574,235.4,573.8z M235.5,575.2h0.7v4.7h-0.7V575.2z"/>
	<path class="st1" d="M237.3,577.7L237.3,577.7c0-1.5,0.9-2.5,2.2-2.5c0.8,0,1.3,0.4,1.5,0.8v-3h0.7v7h-0.7v-0.8
		c-0.3,0.5-0.9,0.9-1.6,0.9C238.2,580,237.3,579.2,237.3,577.7z M241.1,577.6L241.1,577.6c0-1.3-0.6-1.8-1.5-1.8
		c-0.9,0-1.5,0.7-1.5,1.8v0.1c0,1.2,0.6,1.8,1.4,1.8C240.4,579.4,241.1,578.8,241.1,577.6z"/>
	<path class="st1" d="M244.9,575.2h0.8l1.4,4l1.4-4h0.8l-1.7,4.7h-1L244.9,575.2z"/>
	<path class="st1" d="M249.6,577.7L249.6,577.7c0-1.5,0.9-2.5,2.2-2.5c1.1,0,2.1,0.7,2.1,2.3v0.2h-3.5c0,1.1,0.5,1.7,1.5,1.7
		c0.7,0,1.2-0.3,1.3-0.8h0.7c-0.2,0.9-0.9,1.4-2,1.4C250.6,580,249.6,579.1,249.6,577.7z M253.2,577.1c-0.1-1-0.6-1.4-1.4-1.4
		c-0.8,0-1.3,0.5-1.4,1.4H253.2z"/>
	<path class="st1" d="M254.9,575.2h0.7v0.8c0.3-0.5,0.7-0.9,1.5-0.9v0.7c-0.9,0-1.5,0.3-1.5,1.5v2.6h-0.7V575.2z"/>
	<path class="st1" d="M257.8,578.5h0.7c0.1,0.6,0.4,0.9,1.1,0.9c0.7,0,1-0.2,1-0.7c0-0.5-0.4-0.7-1.1-0.8c-1.2-0.2-1.6-0.6-1.6-1.4
		c0-0.9,0.9-1.3,1.6-1.3c0.8,0,1.6,0.3,1.7,1.4h-0.7c-0.1-0.5-0.4-0.7-1-0.7c-0.5,0-0.9,0.3-0.9,0.7c0,0.4,0.2,0.6,1.1,0.7
		c1,0.2,1.7,0.4,1.7,1.4c0,0.9-0.6,1.4-1.7,1.4C258.5,580,257.8,579.5,257.8,578.5z"/>
	<path class="st1" d="M262.2,573.8c0-0.3,0.2-0.5,0.5-0.5c0.3,0,0.5,0.2,0.5,0.5c0,0.3-0.2,0.5-0.5,0.5
		C262.4,574.3,262.2,574,262.2,573.8z M262.3,575.2h0.7v4.7h-0.7V575.2z"/>
	<path class="st1" d="M264.1,577.6L264.1,577.6c0-1.5,1-2.5,2.3-2.5s2.3,1,2.3,2.4v0.1c0,1.4-1,2.4-2.3,2.4
		C265.1,580,264.1,579,264.1,577.6z M268,577.6L268,577.6c0-1.2-0.6-1.9-1.5-1.9c-0.9,0-1.5,0.7-1.5,1.8v0.1c0,1.1,0.6,1.8,1.5,1.8
		C267.4,579.4,268,578.7,268,577.6z"/>
	<path class="st1" d="M269.8,575.2h0.7v0.7c0.2-0.4,0.7-0.8,1.5-0.8c1,0,1.7,0.5,1.7,1.9v2.9H273V577c0-0.8-0.4-1.2-1.1-1.2
		c-0.7,0-1.3,0.4-1.3,1.3v2.9h-0.7V575.2z"/>
	<path class="st1" d="M274.6,578.5h0.7c0.1,0.6,0.4,0.9,1.1,0.9c0.7,0,1-0.2,1-0.7c0-0.5-0.4-0.7-1.1-0.8c-1.2-0.2-1.6-0.6-1.6-1.4
		c0-0.9,0.9-1.3,1.6-1.3c0.8,0,1.6,0.3,1.7,1.4h-0.7c-0.1-0.5-0.4-0.7-1-0.7c-0.5,0-0.9,0.3-0.9,0.7c0,0.4,0.2,0.6,1.1,0.7
		c1,0.2,1.7,0.4,1.7,1.4c0,0.9-0.6,1.4-1.7,1.4C275.4,580,274.7,579.5,274.6,578.5z"/>
	<path class="st1" d="M279.2,579.4c0-0.3,0.3-0.6,0.6-0.6s0.6,0.3,0.6,0.6s-0.3,0.6-0.6,0.6S279.2,579.8,279.2,579.4z"/>
</g>
</svg>
