<svg xmlns="http://www.w3.org/2000/svg" viewBox="0 0 300 250"><title>overlay</title><g id="Layer_2" data-name="Layer 2"><g id="Rect"><rect width="300" height="250" fill="none"/></g><g id="_20" data-name="$20"><path d="M117.19,104.85c-3.57-.24-5.3-2.14-5.45-4.86h3.82a2,2,0,0,0,1.63,1.94v-3c-3.59-.52-5.12-1.82-5.12-4.68,0-2.5,2-4.29,5.12-4.52V87.89h1.6v1.85c3,.25,4.77,1.63,5,4.45h-3.73a1.63,1.63,0,0,0-1.28-1.54v2.84C122,96,124,97,124,100c0,2.51-1.63,4.62-5.22,4.84v2.58h-1.6Zm0-9.6V92.61c-.93.16-1.4.66-1.4,1.32S116.07,95,117.19,95.25Zm1.6,3.93v2.75a1.5,1.5,0,0,0,1.39-1.47C120.18,99.78,119.89,99.43,118.79,99.18Z" fill="#fff" stroke="#14aa40" stroke-miterlimit="10"/><path d="M124.56,115.39,133.4,106c2.51-2.68,4.17-4.84,4.17-7a2.52,2.52,0,0,0-2.69-2.83c-1.8,0-2.93,1.1-3.25,4.1h-6.58c.25-6.33,4.07-9.54,10.18-9.54s9.48,3.32,9.48,8c0,3.46-1.94,6.08-4.77,8.8L136.4,111h8.49v5.41H124.56Z" fill="#fff" stroke="#14aa40" stroke-miterlimit="10"/><path d="M146.58,104.33v-1.06c0-8,5-12.48,11.67-12.48s11.67,4.13,11.67,12.33v1c0,8-4.6,12.73-11.81,12.73S146.58,112.28,146.58,104.33Zm16.09-.07v-1c0-4.63-1.35-7-4.42-7s-4.42,2.29-4.42,7v1.06c0,4.7,1.38,6.93,4.49,6.93S162.67,108.92,162.67,104.26Z" fill="#fff" stroke="#14aa40" stroke-miterlimit="10"/></g></g></svg>