<svg xmlns="http://www.w3.org/2000/svg" viewBox="0 0 300 250"><title>txt</title><g id="Layer_2" data-name="Layer 2"><g id="Rect"><rect width="300" height="250" fill="none"/></g><g id="H_R_Block_Online_costs_up_to_20_less_than_TurboTax." data-name="H&amp;R Block Online costs  up to $20 less than TurboTax."><path d="M22.44,16.34h7.28V26H38V16.34h7.25V41.62H38v-10H29.72v10H22.44Z" fill="#14aa40"/><path d="M69.53,36.46l4.21,5.16H65.5L64,39.78A10.07,10.07,0,0,1,57.19,42c-5.37,0-8.87-2.83-8.87-7.63,0-3.26,2-5.66,5.55-7.36a8,8,0,0,1-1.56-4.42C52.31,18.32,56,16,60.44,16c4,0,7.67,2,7.67,5.91,0,2.75-1.62,4.77-5,6.25l3.18,3.89,1.84-3.6h5.51Zm-8.77-.75-4-4.8a3,3,0,0,0-1.7,2.72,2.93,2.93,0,0,0,3.22,3.14A3.3,3.3,0,0,0,60.76,35.71ZM60,25.53c1.7-.81,2.51-1.77,2.51-3.07a1.82,1.82,0,0,0-1.87-1.95,2,2,0,0,0-2.09,2.19A4.65,4.65,0,0,0,60,25.53Z" fill="#14aa40"/><path d="M76,16.34h9.9c6.61,0,10.29,2.69,10.29,8v.14a6.6,6.6,0,0,1-4.56,6.64l6,10.47H90.07l-5.13-9h-1.7v9H76Zm9.55,11.53c2.44,0,3.64-1,3.64-3.08v-.14c0-2-1.28-2.87-3.61-2.87H83.24v6.09Z" fill="#14aa40"/><path d="M106.57,16.34h11.28c6,0,8.52,2.69,8.52,6.61v.14a5.22,5.22,0,0,1-4.28,5.45c3.11.53,5.06,2.4,5.06,5.9v.14c0,4.53-2.94,7-9.19,7H106.57Zm9.83,10c2.26,0,3.11-.78,3.11-2.58v-.14c0-1.73-.92-2.51-3.11-2.51h-2.76v5.23Zm.25,10.39c2.3,0,3.36-1.06,3.36-2.93V33.7c0-1.91-1-2.9-3.57-2.9h-2.8v6Z" fill="#14aa40"/><path d="M129.65,15H136V41.62h-6.3Z" fill="#14aa40"/><path d="M138.35,32.6v-.28c0-5.94,4.42-9.69,10.15-9.69s10.07,3.64,10.07,9.51v.29c0,6-4.42,9.61-10.11,9.61S138.35,38.58,138.35,32.6Zm13.79-.1v-.29c0-3.11-1.24-4.84-3.64-4.84s-3.68,1.66-3.68,4.77v.29c0,3.18,1.24,4.91,3.68,4.91S152.14,35.57,152.14,32.5Z" fill="#14aa40"/><path d="M159.81,32.6v-.28c0-6.15,4.42-9.69,9.86-9.69,4.53,0,8.7,2,9.05,7.6h-5.94c-.28-1.73-1.13-2.68-3-2.68-2.23,0-3.53,1.59-3.53,4.7v.28c0,3.22,1.23,4.88,3.64,4.88a3.09,3.09,0,0,0,3.22-3.08h5.69C178.65,39,175.5,42,169.53,42,164,42,159.81,38.83,159.81,32.6Z" fill="#14aa40"/><path d="M180.88,15h6.32V30.45l5-7.32h6.58l-6.05,8.31,6.54,10.18h-7.07l-5-8.1v8.1h-6.32Z" fill="#14aa40"/><path d="M21.1,66.49v-.28c0-7.71,5.79-12.87,13.36-12.87S47.86,58.18,47.86,66v.28c0,7.78-5.34,13.08-13.51,13.08S21.1,74.09,21.1,66.49Zm19.19-.07v-.29C40.29,61.64,38,59,34.46,59s-5.8,2.58-5.8,7.18v.28c0,4.6,2.34,7.25,5.84,7.25S40.29,70.94,40.29,66.42Z" fill="#14aa40"/><path d="M50.29,60.48h6.33v3A6.53,6.53,0,0,1,62.7,60c3.57,0,6,2.23,6,7V79H62.42V68.22c0-2.09-.81-3.11-2.65-3.11s-3.15,1.13-3.15,3.5V79H50.29Z" fill="#14aa40"/><path d="M72,52.35h6.29V79H72Z" fill="#14aa40"/><path d="M81.54,55.46A3.49,3.49,0,1,1,85,58.71,3.31,3.31,0,0,1,81.54,55.46Zm.32,5h6.33V79H81.86Z" fill="#14aa40"/><path d="M91.58,60.48h6.33v3A6.53,6.53,0,0,1,104,60c3.57,0,6.05,2.23,6.05,7V79h-6.33V68.22c0-2.09-.81-3.11-2.65-3.11s-3.15,1.13-3.15,3.5V79H91.58Z" fill="#14aa40"/><path d="M112.12,70v-.28c0-5.94,4.42-9.69,10-9.69,5.05,0,9.4,2.9,9.4,9.55v1.66h-13c.18,2.44,1.59,3.85,3.85,3.85,2.09,0,3-1,3.22-2.19h5.94c-.57,4.17-3.78,6.54-9.37,6.54C116.36,79.39,112.12,76,112.12,70Zm13.26-2.33c-.11-2.23-1.2-3.47-3.25-3.47s-3.22,1.24-3.54,3.47Z" fill="#14aa40"/><path d="M139.16,70v-.28c0-6.15,4.42-9.69,9.87-9.69,4.52,0,8.69,2,9.05,7.6h-5.94c-.28-1.73-1.13-2.68-3-2.68-2.23,0-3.54,1.59-3.54,4.7v.28c0,3.22,1.24,4.88,3.64,4.88a3.08,3.08,0,0,0,3.22-3.07h5.69c-.17,4.66-3.32,7.7-9.29,7.7C143.37,79.39,139.16,76.18,139.16,70Z" fill="#14aa40"/><path d="M159.24,70v-.28c0-5.94,4.42-9.69,10.15-9.69s10.07,3.64,10.07,9.51v.29c0,6-4.42,9.61-10.11,9.61S159.24,75.93,159.24,70Zm13.79-.1v-.29c0-3.11-1.24-4.84-3.64-4.84s-3.68,1.66-3.68,4.77v.29c0,3.18,1.24,4.91,3.68,4.91S173,72.92,173,69.85Z" fill="#14aa40"/><path d="M180.56,73.1h5.83c.21,1.34.81,2.09,2.62,2.09,1.55,0,2.26-.61,2.26-1.52s-.88-1.31-3.43-1.67c-5-.63-7-2.08-7-5.94,0-4.1,3.65-6.08,7.92-6.08,4.56,0,7.75,1.56,8.17,6h-5.73a2.06,2.06,0,0,0-2.37-1.84c-1.37,0-2.08.6-2.08,1.45s.85,1.24,3.11,1.52c5.13.64,7.6,2,7.6,5.94,0,4.38-3.25,6.36-8.38,6.36S180.7,77.2,180.56,73.1Z" fill="#14aa40"/><path d="M200.32,73V64.79h-2.23V60.48h2.23V56.62h6.33v3.86h3.64v4.31h-3.64v7.64a1.68,1.68,0,0,0,1.87,1.94,4.62,4.62,0,0,0,1.8-.32v4.81a13.31,13.31,0,0,1-3.5.53C202.65,79.39,200.32,77.38,200.32,73Z" fill="#14aa40"/><path d="M211.7,73.1h5.83c.22,1.34.82,2.09,2.62,2.09,1.56,0,2.26-.61,2.26-1.52S221.53,72.36,219,72c-4.95-.63-7-2.08-7-5.94,0-4.1,3.64-6.08,7.92-6.08,4.56,0,7.74,1.56,8.16,6h-5.72a2.07,2.07,0,0,0-2.37-1.84c-1.38,0-2.09.6-2.09,1.45s.85,1.24,3.11,1.52c5.13.64,7.6,2,7.6,5.94,0,4.38-3.25,6.36-8.38,6.36S211.84,77.2,211.7,73.1Z" fill="#14aa40"/><path d="M21.73,109.88v-12h6.33v11c0,2.08.81,3.11,2.62,3.11s3.14-1.13,3.14-3.5V97.83h6.33v18.49H33.82v-2.87A6.07,6.07,0,0,1,28,116.74C24.38,116.74,21.73,114.55,21.73,109.88Z" fill="#14aa40"/><path d="M43.37,97.83h6.32v2.76a6.54,6.54,0,0,1,5.77-3.26c4.31,0,7.81,3.26,7.81,9.58v.29c0,6.36-3.5,9.54-7.85,9.54a6.12,6.12,0,0,1-5.73-3.14v8.91H43.37Zm13.47,9.37v-.29c0-3.25-1.42-4.8-3.65-4.8s-3.67,1.66-3.67,4.77v.28c0,3.15,1.38,4.74,3.67,4.74S56.84,110.24,56.84,107.2Z" fill="#14aa40"/><path d="M72.85,110.38v-8.24H70.62V97.83h2.23V94h6.33v3.86h3.64v4.31H79.18v7.64a1.68,1.68,0,0,0,1.87,1.94,4.62,4.62,0,0,0,1.8-.32v4.81a13.31,13.31,0,0,1-3.5.53C75.18,116.74,72.85,114.73,72.85,110.38Z" fill="#14aa40"/><path d="M84.23,107.3V107c0-5.94,4.42-9.69,10.15-9.69s10.07,3.64,10.07,9.51v.29c0,6-4.42,9.61-10.11,9.61S84.23,113.28,84.23,107.3ZM98,107.2v-.29c0-3.11-1.24-4.84-3.64-4.84s-3.68,1.66-3.68,4.77v.29c0,3.18,1.24,4.91,3.68,4.91S98,110.27,98,107.2Z" fill="#14aa40"/><path d="M117.17,104.75c-3.56-.24-5.29-2.14-5.44-4.86h3.81a2,2,0,0,0,1.63,1.94v-3c-3.58-.52-5.11-1.82-5.11-4.68,0-2.5,2-4.29,5.11-4.52V87.79h1.61v1.85c3,.25,4.76,1.63,5,4.46h-3.73a1.64,1.64,0,0,0-1.28-1.55v2.84c3.16.46,5.22,1.53,5.22,4.52,0,2.51-1.63,4.62-5.22,4.84v2.58h-1.61Zm0-9.6V92.51c-.92.16-1.4.66-1.4,1.32S116.06,94.92,117.17,95.15Zm1.61,3.93v2.75a1.49,1.49,0,0,0,1.38-1.47C120.16,99.68,119.87,99.33,118.78,99.08Z" fill="#14aa40"/><path d="M124.54,115.29l8.84-9.37c2.51-2.68,4.17-4.84,4.17-7a2.51,2.51,0,0,0-2.68-2.83c-1.81,0-2.94,1.1-3.26,4.1H125c.25-6.33,4.06-9.54,10.18-9.54s9.48,3.32,9.48,8c0,3.46-1.95,6.08-4.78,8.8l-3.53,3.43h8.48v5.41H124.54Z" fill="#14aa40"/><path d="M146.57,104.23v-1.06c0-8,5-12.48,11.66-12.48S169.9,94.82,169.9,103v1c0,8-4.6,12.73-11.81,12.73S146.57,112.18,146.57,104.23Zm16.08-.07v-1c0-4.63-1.34-7-4.42-7s-4.42,2.29-4.42,7v1.06c0,4.7,1.38,6.93,4.49,6.93S162.65,108.82,162.65,104.16Z" fill="#14aa40"/><path d="M179.12,89.7h6.3v26.62h-6.3Z" fill="#14aa40"/><path d="M187.82,107.3V107c0-5.94,4.42-9.69,10-9.69,5,0,9.4,2.9,9.4,9.55v1.66h-13c.18,2.44,1.59,3.85,3.85,3.85,2.09,0,3-1,3.22-2.19h5.94c-.57,4.17-3.78,6.54-9.37,6.54C192.06,116.74,187.82,113.35,187.82,107.3ZM201.08,105c-.11-2.23-1.2-3.47-3.25-3.47s-3.22,1.24-3.54,3.47Z" fill="#14aa40"/><path d="M208.36,110.45h5.83c.21,1.34.81,2.09,2.62,2.09,1.55,0,2.26-.61,2.26-1.52s-.88-1.31-3.43-1.67c-4.95-.63-7-2.08-7-5.94,0-4.1,3.65-6.08,7.92-6.08,4.56,0,7.75,1.56,8.17,6H219a2.06,2.06,0,0,0-2.37-1.84c-1.37,0-2.08.6-2.08,1.45s.85,1.24,3.11,1.52c5.13.64,7.6,2,7.6,5.94,0,4.38-3.25,6.36-8.38,6.36S208.5,114.55,208.36,110.45Z" fill="#14aa40"/><path d="M226.14,110.45H232c.21,1.34.81,2.09,2.62,2.09,1.55,0,2.26-.61,2.26-1.52s-.88-1.31-3.43-1.67c-4.95-.63-7-2.08-7-5.94,0-4.1,3.64-6.08,7.91-6.08,4.57,0,7.75,1.56,8.17,6h-5.73a2.05,2.05,0,0,0-2.36-1.84c-1.38,0-2.09.6-2.09,1.45s.85,1.24,3.11,1.52c5.13.64,7.6,2,7.6,5.94,0,4.38-3.25,6.36-8.38,6.36S226.28,114.55,226.14,110.45Z" fill="#14aa40"/><path d="M22.72,147.73v-8.24H20.5v-4.31h2.22v-3.86h6.33v3.86h3.64v4.31H29.05v7.64a1.68,1.68,0,0,0,1.87,1.94,4.71,4.71,0,0,0,1.81-.32v4.81a13.45,13.45,0,0,1-3.5.53C25.06,154.09,22.72,152.08,22.72,147.73Z" fill="#14aa40"/><path d="M35.09,127.05h6.33v11.1a6.53,6.53,0,0,1,6.08-3.47c3.57,0,6,2.23,6,7v12H47.22V142.92c0-2.09-.81-3.11-2.65-3.11s-3.15,1.13-3.15,3.5v10.36H35.09Z" fill="#14aa40"/><path d="M55.56,148.54c0-4.35,3.68-6,9.83-6h1.77v-.43c0-1.77-.43-2.93-2.44-2.93a2.27,2.27,0,0,0-2.51,2.19H56.27c.28-4.45,3.78-6.65,8.84-6.65s8.34,2.09,8.34,7v12H67.3v-2.16c-.88,1.35-2.51,2.58-5.48,2.58C58.5,154.09,55.56,152.47,55.56,148.54Zm11.6-1.34v-1.13H65.5c-2.55,0-3.68.49-3.68,2,0,1.06.71,1.73,2.19,1.73C65.81,149.81,67.16,148.79,67.16,147.2Z" fill="#14aa40"/><path d="M76.52,135.18h6.33v3a6.53,6.53,0,0,1,6.08-3.47c3.57,0,6,2.23,6,7v12H88.65V142.92c0-2.09-.81-3.11-2.65-3.11s-3.15,1.13-3.15,3.5v10.36H76.52Z" fill="#14aa40"/><path d="M109.89,134h-6.54v-5.59h20.37V134h-6.54v19.69h-7.29Z" fill="#14aa40"/><path d="M124.28,147.23v-12h6.33v11c0,2.08.81,3.11,2.62,3.11s3.14-1.13,3.14-3.5V135.18h6.33v18.49h-6.33V150.8a6.07,6.07,0,0,1-5.87,3.29C126.93,154.09,124.28,151.9,124.28,147.23Z" fill="#14aa40"/><path d="M145.92,135.18h6.32v3.67a5.83,5.83,0,0,1,6-3.92v5.9c-3.85-.1-6,1.1-6,4.07v8.77h-6.32Z" fill="#14aa40"/><path d="M166.84,150.8v2.87h-6.33V127.05h6.33v10.89a6.53,6.53,0,0,1,5.77-3.26c4.31,0,7.81,3.26,7.81,9.58v.29c0,6.36-3.5,9.54-7.85,9.54A6,6,0,0,1,166.84,150.8Zm7.14-6.25v-.29c0-3.25-1.41-4.8-3.64-4.8s-3.67,1.66-3.67,4.77v.28c0,3.15,1.37,4.74,3.67,4.74S174,147.59,174,144.55Z" fill="#14aa40"/><path d="M181.72,144.65v-.28c0-5.94,4.42-9.69,10.15-9.69S202,138.32,202,144.19v.29c0,6-4.42,9.61-10.11,9.61S181.72,150.63,181.72,144.65Zm13.79-.1v-.29c0-3.11-1.23-4.84-3.64-4.84s-3.68,1.66-3.68,4.77v.29c0,3.18,1.24,4.91,3.68,4.91S195.51,147.62,195.51,144.55Z" fill="#14aa40"/><path d="M209.58,134H203v-5.59H223.4V134h-6.54v19.69h-7.28Z" fill="#14aa40"/><path d="M222.13,148.54c0-4.35,3.68-6,9.83-6h1.77v-.43c0-1.77-.43-2.93-2.44-2.93a2.26,2.26,0,0,0-2.51,2.19h-5.94c.28-4.45,3.78-6.65,8.83-6.65s8.35,2.09,8.35,7v12h-6.15v-2.16c-.89,1.35-2.51,2.58-5.48,2.58C225.06,154.09,222.13,152.47,222.13,148.54Zm11.6-1.34v-1.13h-1.67c-2.54,0-3.67.49-3.67,2,0,1.06.7,1.73,2.19,1.73C232.38,149.81,233.73,148.79,233.73,147.2Z" fill="#14aa40"/><path d="M247.76,144.26,242,135.18h7.28l2.86,4.88,2.8-4.88h6.5l-5.83,8.59,6.4,9.9h-7.29l-3.28-5.52-3.36,5.52h-6.47Z" fill="#14aa40"/><path d="M263.28,150.49a3.52,3.52,0,0,1,3.6-3.57,3.57,3.57,0,1,1,0,7.14A3.52,3.52,0,0,1,263.28,150.49Z" fill="#14aa40"/></g></g></svg>